<?xml version="1.0" encoding="utf-8"?>
<!-- Generator: Adobe Illustrator 24.1.2, SVG Export Plug-In . SVG Version: 6.00 Build 0)  -->
<svg version="1.1" id="Слой_1" xmlns="http://www.w3.org/2000/svg" xmlns:xlink="http://www.w3.org/1999/xlink" x="0px" y="0px"
	 viewBox="0 0 70 70" style="enable-background:new 0 0 70 70;" xml:space="preserve">
<style type="text/css">
	.st0{opacity:0.1;}
	.st1{fill:#FB4700;}
	.st2{fill-rule:evenodd;clip-rule:evenodd;fill:#FB4700;}
</style>
<g class="st0">
	<path class="st1" d="M28,28.1V14c0-2.8-2.2-5-5-5H12V2h15c3.9,0,7,3.1,7,6.8V37h-4v-4C30,31.1,29.2,29.4,28,28.1z"/>
	<path class="st1" d="M33,51v8h9l3.6-5.6c0.2-0.4,0.4-0.7,0.6-1.1c0.2-0.4,0.4-0.9,0.5-1.3c0.2-0.8,0.3-1.6,0.3-2.4V45h-7.1
		C39.4,48.4,36.5,51,33,51z"/>
	<path class="st1" d="M65,7h-4v32H30v1.3c2.9,0.9,5,3.5,5,6.7v1.6c1.8-0.8,3-2.5,3-4.6v-1h27V7z"/>
	<path class="st1" d="M43,61h-8v7h8V61z"/>
</g>
<path class="st1" d="M29.2,13.9c0.6,0,1,0.5,1,1s-0.5,1-1,1H15.8c-0.6,0-1-0.5-1-1s0.5-1,1-1H29.2z"/>
<path class="st1" d="M29.9,10.6c-0.1-0.1-0.1-0.3-0.2-0.4c-0.1-0.1-0.2-0.2-0.4-0.2c-0.1,0-0.1,0-0.2,0s-0.1,0-0.2,0H16
	c-0.6,0-1,0.4-1,1c0,0.1,0,0.2,0,0.3v0.1c0,0.1,0.1,0.1,0.1,0.2c0,0.1,0.1,0.1,0.2,0.2c0.2,0.2,0.4,0.3,0.7,0.3h13c0.6,0,1-0.4,1-1
	c0-0.1,0-0.2,0-0.2L29.9,10.6L29.9,10.6z"/>
<path class="st1" d="M49,32c0-0.2-0.1-0.4-0.2-0.6C48.7,31.2,48.3,31,48,31h-7c-0.4,0-0.7,0.2-0.8,0.5C40.1,31.6,40,31.8,40,32
	s0.1,0.5,0.2,0.6c0.1,0.1,0.2,0.2,0.4,0.3h0.1h0.1h0.1c0.1,0,0.1,0,0.2,0h7C48.6,33,49,32.6,49,32z"/>
<path class="st1" d="M54,27c0.6,0,1,0.4,1,1s-0.4,1-1,1H41c-0.3,0-0.6-0.1-0.8-0.4C40.1,28.5,40,28.2,40,28c0-0.3,0.1-0.5,0.3-0.7
	c0.1-0.1,0.2-0.2,0.3-0.2h0.1h0.1l0,0h0.1c0.1,0,0.1,0,0.2,0L54,27L54,27z"/>
<path class="st1" d="M54.8,23.4C54.6,23.1,54.3,23,54,23H41c-0.2,0-0.3,0-0.5,0.1C40.2,23.3,40,23.6,40,24c0,0.6,0.4,1,1,1h13
	c0.6,0,1-0.4,1-1c0-0.1,0-0.2,0-0.3C54.9,23.6,54.9,23.5,54.8,23.4z"/>
<path class="st1" d="M54,14c0.6,0,1,0.4,1,1s-0.4,1-1,1H41c-0.6,0-1-0.4-1-1s0.4-1,1-1H54z"/>
<path class="st1" d="M55,11c0-0.6-0.4-1-1-1H41c-0.6,0-1,0.4-1,1s0.4,1,1,1h13C54.6,12,55,11.6,55,11z"/>
<path class="st1" d="M30,65c0.6,0,1-0.4,1-1s-0.4-1-1-1c-0.3,0-0.5,0.1-0.7,0.3C29.1,63.5,29,63.7,29,64C29,64.6,29.4,65,30,65z"/>
<path class="st2" d="M11,0c-0.6,0-1,0.4-1,1v4H4v40h17v2c0,0.7,0.1,1.3,0.2,1.9c0.2,1.1,0.6,2.2,1.1,3.2l3.7,7.1c-0.6,0.3-1,1-1,1.7
	v7H1c-0.3,0-0.5,0.1-0.7,0.3C0.1,68.4,0,68.7,0,69c0,0.6,0.4,1,1,1h68c0.6,0,1-0.4,1-1s-0.4-1-1-1H45v-7c0-0.4-0.1-0.7-0.3-1
	s-0.4-0.5-0.6-0.7l3.1-4.8c1.2-1.8,1.8-3.9,1.8-6V45h18V5h-6V1c0-0.3-0.1-0.5-0.3-0.7C60.6,0.1,60.3,0,60,0H43c-3.5,0-6.5,1.9-8,4.8
	C33.5,1.9,30.5,0,27,0H11z M23,28c2.8,0,5,2.2,5,5v9c2.8,0,5,2.2,5,5v4c3.5,0,6.4-2.6,6.9-6H47v3.5c0,0.8-0.1,1.7-0.3,2.4
	c-0.1,0.4-0.3,0.9-0.5,1.3c-0.2,0.4-0.4,0.8-0.6,1.1L42,59H28.1L24,51.2c-0.7-1.3-1-2.7-1-4.2V28z M21,43v-4H10V7H6v36H21z M12,37h9
	V27c0-0.6,0.4-1,1-1h1c3.9,0,7,3.1,7,7v4h4V8.8C34,5,30.9,2,27,2H12V37z M61,7h4v36H38v1c0,2.1-1.2,3.8-3,4.6V47
	c0-3.2-2.1-5.8-5-6.7V39h31V7z M59,2v35H36V8.8C36,5,39.1,2,43,2H59z M43,61v7H27v-7H43z"/>
</svg>
