<?xml version="1.0" encoding="utf-8"?>
<!-- Generator: Adobe Illustrator 24.1.2, SVG Export Plug-In . SVG Version: 6.00 Build 0)  -->
<svg version="1.1" id="Слой_1" xmlns="http://www.w3.org/2000/svg" xmlns:xlink="http://www.w3.org/1999/xlink" x="0px" y="0px"
	 viewBox="0 0 70 70" style="enable-background:new 0 0 70 70;" xml:space="preserve">
<style type="text/css">
	.st0{opacity:0.1;}
	.st1{fill:#FB4700;}
	.st2{fill-rule:evenodd;clip-rule:evenodd;fill:#FB4700;}
</style>
<g class="st0">
	<path class="st1" d="M5.8,27c9-0.4,16.2-7.9,16.2-17c0-2.8-0.7-5.4-1.8-7.7C26.9,3.8,32,9.8,32,17c0,8.3-6.7,15-15,15
		C12.5,32,8.5,30.1,5.8,27z"/>
	<path class="st1" d="M17,33h4v11h-4V33z"/>
	<path class="st1" d="M56,46.5c0,8.8-6.1,16.1-14.3,18c1.3,0.5,2.6,0.9,4,1.2c1.1,0.2,2.2,0.3,3.4,0.3c10.5,0,19-8.5,19-19
		s-8.5-19-19-19c-2,0-4,0.3-5.8,0.9C50.6,31.3,56,38.3,56,46.5z"/>
</g>
<path class="st2" d="M23,32.9c6.4-2.4,11-8.6,11-15.9c0-9.4-7.6-17-17-17C7.6,0,0,7.6,0,17c0,7.3,4.6,13.5,11,15.9V43
	c0,1.7,1.3,3,3,3h2v2c0,1.1-0.9,2-2,2H4c-2.2,0-4,1.8-4,4s1.8,4,4,4h15c1.1,0,2,0.9,2,2s-0.9,2-2,2H4c-2.2,0-4,1.8-4,4s1.8,4,4,4h15
	c1,0,2.1-0.3,3.1-0.7c1.1-0.4,2.2-1,3.2-1.7c1.4-0.9,2.8-1.8,3.9-2.7l0.6,4.1l8-5c0.6-0.4,1-1.1,0.9-1.9l-0.4-4.8c0-0.1,0-0.1,0-0.2
	l6.7-5.7c1.1,0.9,2.5,1.5,4,1.5c3.3,0,6-2.7,6-6s-2.7-6-6-6s-6,2.7-6,6c0,1.1,0.3,2.1,0.8,2.9L37,55.7c-0.1,0-0.1,0-0.2-0.1
	l-4.7-1.2c-0.7-0.2-1.5,0.1-2,0.6l-6.2,7.1l4,1.2c-1,0.8-2.3,1.7-3.6,2.5c-1,0.6-2,1.1-2.9,1.5C20.4,67.8,19.6,68,19,68L4,68
	c-1.1,0-2-0.9-2-2s0.9-2,2-2h15c1.2,0,2.2-0.5,3-1.3c0.4-0.4,0.6-0.8,0.8-1.3c0.1-0.2,0.1-0.4,0.2-0.6c0-0.3,0.1-0.5,0.1-0.8
	c0-2.2-1.8-4-4-4H4c-1.1,0-2-0.9-2-2c0-0.4,0.1-0.7,0.3-1c0.4-0.6,1-1,1.7-1h10c2.2,0,4-1.8,4-4v-2h2c1.7,0,3-1.3,3-3V32.9z
	 M35.1,57.3l-3.5-0.9l-4.2,4.8l2.3,0.7L35.1,57.3z M31,63.4l0.3,2.3l5.4-3.3l-0.3-3.6L31,63.4z M17,32c0.3,0,0.7,0,1,0V19
	c0,0,0-0.3,0-0.5c0-2.5,2-4.5,4.5-4.5s4.5,2,4.5,4.5S25,23,22.5,23H20v8.7c6.8-1.4,12-7.4,12-14.7c0-8.3-6.7-15-15-15
	C8.7,2,2,8.7,2,17c0,7.3,5.2,13.3,12,14.7V23h-2.5C9,23,7,21,7,18.5S9,14,11.5,14c2.5,0,4.5,2,4.5,4.5c0,0.2,0,0.5,0,0.5v13
	C16.3,32,16.7,32,17,32z M21,33.5c-1.3,0.3-2.6,0.5-4,0.5s-2.7-0.2-4-0.5V43c0,0.6,0.4,1,1,1h6c0.6,0,1-0.4,1-1V33.5z M22.5,21
	c1.4,0,2.5-1.1,2.5-2.5S23.9,16,22.5,16c-1.4,0-2.5,1.1-2.5,2.5V19h0v2H22.5z M9,18.5c0,1.4,1.1,2.5,2.5,2.5H14v-2h0v-0.5
	c0-1.4-1.1-2.5-2.5-2.5S9,17.1,9,18.5z M50.1,47.2l-3.5,3c0.7,0.5,1.5,0.8,2.4,0.8c2.2,0,4-1.8,4-4s-1.8-4-4-4s-4,1.8-4,4
	c0,0.6,0.1,1.1,0.3,1.6l3.5-3L50.1,47.2z"/>
<path class="st1" d="M70,47c0,11.6-9.4,21-21,21c-3.3,0-6.5-0.8-9.3-2.2l0.6-1.9C43,65.3,45.9,66,49,66c10.5,0,19-8.5,19-19
	s-8.5-19-19-19s-19,8.5-19,19c0,1.9,0.3,3.8,0.8,5.5l-2,0.4C28.3,51,28,49,28,47c0-11.6,9.4-21,21-21S70,35.4,70,47z"/>
<path class="st1" d="M42.3,58.1c2,1.2,4.3,1.9,6.7,1.9c7.2,0,13-5.8,13-13s-5.8-13-13-13s-13,5.8-13,13c0,1.6,0.3,3.1,0.8,4.5l2-0.4
	C38.3,49.8,38,48.5,38,47c0-6.1,4.9-11,11-11s11,4.9,11,11s-4.9,11-11,11c-2.2,0-4.3-0.7-6.1-1.8L42.3,58.1z"/>
</svg>
