<svg xmlns="http://www.w3.org/2000/svg" xmlns:xlink="http://www.w3.org/1999/xlink" viewBox="0 0 431.85 161.32"><defs><style>.a{fill:#eaeaea;}.b{fill:url(#a);}.c{fill:url(#b);}</style><linearGradient id="a" x1="125.37" y1="137.86" x2="1.56" y2="137.86" gradientUnits="userSpaceOnUse"><stop offset="0" stop-color="#fff"/><stop offset="1" stop-color="#747474"/></linearGradient><linearGradient id="b" x1="124.94" y1="56.13" x2="0" y2="56.13" xlink:href="#a"/></defs><path class="a" d="M176.67,82.91V57.52H164.91V82.91h-6.15V51.73h24.05V82.91Z" transform="translate(-0.99 -2.28)"/><path class="a" d="M202,51.73c8.73,0,13.89,5.17,13.89,12s-5.16,12-13.89,12h-4.1v7.17h-6.14V51.73ZM202.45,70c4,0,7.57-1.83,7.57-6.24,0-4.18-3.61-6.19-7.57-6.19h-4.59V70Z" transform="translate(-0.99 -2.28)"/><path class="a" d="M314.56,88.65V82.91h-20.3v5.74h-6.15V77.12h4.14l10.42-25.39h3.66l10.28,25.39h4.1V88.65ZM298.84,77.12H310L304.41,63Z" transform="translate(-0.99 -2.28)"/><path class="a" d="M339.1,51.73c9,0,10.56,5.22,10.56,8.29,0,3.47-1.7,5.65-4.1,6.63,3.25.76,5.3,3.61,5.3,7.31,0,4.94-2.76,9-11.54,9H327.08V51.73ZM333.22,64.2h6.55c3.29,0,4.1-1.87,4.1-3.34s-.63-3.34-4.1-3.34h-6.55Zm0,12.87h7.4c3.34,0,4.45-1.78,4.45-3.78s-1.25-3.79-4.45-3.79h-7.4Z" transform="translate(-0.99 -2.28)"/><path class="a" d="M375.84,82.91V63.27L361.06,82.91h-3.61V51.73h6.14V71.37l14.74-19.64H382V82.91Z" transform="translate(-0.99 -2.28)"/><path class="a" d="M419.48,72.89c-1.38-2.1-2.09-2.81-4.23-2.81h-1.69V82.91h-6.15V70.08h-1.69c-2.14,0-2.89.71-4.23,2.81l-6.41,10h-6.95L395.75,71c1.82-2.81,2.8-3.61,3.78-4-.84-.45-1.82-1.3-3.61-3.75l-7.3-11.49h6.95l6.1,9.62c1.38,2,2.14,2.81,4.23,2.81h1.51V51.73h6.15V64.16H415c2.14,0,2.89-.76,4.23-2.81l6.15-9.62h6.94L425,63.22c-1.73,2.45-2.76,3.3-3.56,3.75.94.44,2,1.24,3.79,4l7.61,11.89H425.9Z" transform="translate(-0.99 -2.28)"/><path class="a" d="M252.57,38.2A31.33,31.33,0,1,0,283.9,69.53,31.37,31.37,0,0,0,252.57,38.2Zm0,56.28a25,25,0,1,1,25-25A24.95,24.95,0,0,1,252.57,94.48Z" transform="translate(-0.99 -2.28)"/><path class="b" d="M106.39,112.12a46.31,46.31,0,0,1-85.85,0l-19,11a67.55,67.55,0,0,0,123.81,0Z" transform="translate(-0.99 -2.28)"/><polygon class="c" points="62.47 0 62.47 0 62.47 0 0 36.07 0 45.38 0 54.26 0 63.57 62.47 27.5 101.35 49.95 101.35 71.15 62.47 48.7 62.47 48.7 62.47 48.7 0 84.76 0 94.07 0 102.96 0 112.27 62.47 76.2 124.94 112.27 124.94 102.96 124.94 94.07 124.94 88.82 124.94 84.76 124.94 63.57 124.94 54.26 124.94 45.38 124.94 38.54 124.94 36.07 62.47 0"/></svg>