<?xml version="1.0" encoding="utf-8"?>
<!-- Generator: Adobe Illustrator 24.1.2, SVG Export Plug-In . SVG Version: 6.00 Build 0)  -->
<svg version="1.1" id="Слой_1" xmlns="http://www.w3.org/2000/svg" xmlns:xlink="http://www.w3.org/1999/xlink" x="0px" y="0px"
	 viewBox="0 0 70 70" style="enable-background:new 0 0 70 70;" xml:space="preserve">
<style type="text/css">
	.st0{fill-rule:evenodd;clip-rule:evenodd;fill:#FB4700;}
	.st1{fill:#FB4700;}
	.st2{opacity:0.1;}
</style>
<path class="st0" d="M55,2H33c-0.3,0-0.6,0.1-0.7,0.3C32.1,2.5,32,2.7,32,3v9c0,0.6-0.4,1-1,1s-1-0.4-1-1V3c0-1.7,1.3-3,3-3h34
	c1.7,0,3,1.3,3,3v42c0,1.7-1.3,3-3,3H33c-1.7,0-3-1.3-3-3v-9c0-0.2,0-0.3,0.1-0.5c0-0.1,0.1-0.2,0.2-0.2c0.1-0.1,0.2-0.2,0.3-0.2
	c0.1,0,0.2-0.1,0.4-0.1c0.6,0,1,0.4,1,1v9c0,0.6,0.4,1,1,1h34c0.6,0,1-0.4,1-1V3c0-0.2-0.1-0.4-0.2-0.6C67.6,2.2,67.3,2,67,2h-3
	v13.4l-4.5-4.5L55,15.4V2z M57,2v8.6l2.5-2.5l2.5,2.5V2H57z"/>
<path class="st0" d="M32,18c-3.3,0-6,2.7-6,6s2.7,6,6,6c1.4,0,2.7-0.5,3.7-1.3l6.1,6.5C41.3,36,41,37,41,38c0,2.8,2.2,5,5,5
	s5-2.2,5-5s-2.2-5-5-5c-1,0-2,0.3-2.7,0.8l-6.2-6.6c0.4-0.7,0.7-1.4,0.8-2.2h9.2c0.5,2.3,2.5,4,4.9,4c2.8,0,5-2.2,5-5s-2.2-5-5-5
	c-2.4,0-4.4,1.7-4.9,4h-9.2c-0.1-0.8-0.4-1.5-0.8-2.2l6.2-6.6c0.2,0.2,0.5,0.3,0.8,0.4c0.3,0.1,0.6,0.2,0.8,0.3
	C45.2,15,45.6,15,46,15c2.8,0,5-2.2,5-5c0-2.8-2.2-5-5-5s-5,2.2-5,5c0,1,0.3,2,0.8,2.8l-6.1,6.5c-0.6-0.5-1.4-0.9-2.2-1.1
	C33,18.1,32.5,18,32,18z M32,20c2.2,0,4,1.8,4,4s-1.8,4-4,4s-4-1.8-4-4S29.8,20,32,20z M49,10c0-1.7-1.3-3-3-3s-3,1.3-3,3
	c0,1.7,1.3,3,3,3c0.7,0,1.4-0.3,1.9-0.7C48.6,11.8,49,10.9,49,10z M48.7,39.4c-0.2,0.3-0.4,0.6-0.6,0.8c-0.5,0.5-1.2,0.8-2,0.8
	c-1.7,0-3-1.3-3-3s1.3-3,3-3s3,1.3,3,3C49,38.5,48.9,39,48.7,39.4z M53,26.8c-0.3,0.1-0.6,0.2-1,0.2c-1.7,0-3-1.3-3-3
	c0-0.9,0.4-1.7,1-2.2c0.5-0.5,1.2-0.8,2-0.8c1.7,0,3,1.3,3,3C55,25.3,54.2,26.4,53,26.8z"/>
<path class="st0" d="M16,22c5,0,9,4,9,9v5c0,0.2-0.1,0.4-0.2,0.6l-0.1,0.1l-0.1,0.1c-0.1,0.1-0.2,0.2-0.3,0.2C24.2,37,24.1,37,24,37
	v1c0,2.3-1.3,4.6-3,6.3v2.1l8.8,4.4c1.4,0.7,2.2,2.1,2.2,3.6V70H0V54.4c0-0.7,0.2-1.3,0.4-1.8c0.2-0.3,0.3-0.6,0.6-0.8
	c0-0.1,0.1-0.1,0.2-0.2c0.1-0.1,0.3-0.3,0.4-0.4C1.8,51,2,50.9,2.2,50.8l8.8-4.4v-2.1c-0.5-0.5-0.9-1-1.3-1.5C8.7,41.3,8,39.6,8,38
	v-1c-0.6,0-1-0.4-1-1v-5C7,26,11,22,16,22z M11.1,48.6l-7.9,4c-0.2,0.1-0.4,0.2-0.5,0.4c-0.1,0.1-0.2,0.2-0.2,0.3
	c0,0-0.1,0.1-0.1,0.1c0,0.1-0.1,0.1-0.1,0.2C2.1,53.8,2,54.1,2,54.4V68h4v-9c0-0.6,0.4-1,1-1s1,0.4,1,1v9h7V52.7l-2.9-2.3
	C11.6,49.9,11.2,49.3,11.1,48.6z M17,52.7V68h7v-9c0-0.6,0.4-1,1-1s1,0.4,1,1v9h4V54.4c0-0.4-0.1-0.7-0.3-1
	c-0.2-0.3-0.5-0.6-0.8-0.8l-7.9-4c-0.1,0.7-0.5,1.3-1.1,1.8L17,52.7z M16,47c0.9,0,1.9-0.4,3-1.1V48c0,0.2-0.1,0.4-0.1,0.5
	c-0.1,0.1-0.1,0.2-0.2,0.3L16,50.9l-2.6-2.1C13.1,48.6,13,48.3,13,48v-2.1c0.2,0.1,0.4,0.3,0.7,0.4l0.2,0.1l0.2,0.1
	c0.2,0.1,0.3,0.1,0.5,0.2C15,46.9,15.5,47,16,47z M10,37v1c0,0.7,0.2,1.4,0.5,2.1c0.2,0.5,0.5,1.1,0.9,1.6c0.3,0.4,0.6,0.7,0.9,1.1
	c0.2,0.2,0.4,0.4,0.6,0.5c0.3,0.2,0.5,0.4,0.8,0.6c0.3,0.2,0.5,0.4,0.8,0.5c0.7,0.4,1.3,0.5,1.5,0.5s0.8-0.1,1.5-0.5
	c0.3-0.2,0.6-0.3,0.8-0.5l0.2-0.2l0.2-0.2c0.3-0.2,0.6-0.5,0.9-0.8c1.4-1.5,2.3-3.3,2.3-4.8v-1.3c-0.3-0.1-0.5-0.2-0.8-0.3
	c-0.2-0.1-0.5-0.2-0.7-0.3c-1-0.6-1.9-1.4-2.5-2.5c-1.2,2-3.5,3.4-6,3.4H10z M17,30h2c0,2.4,1.7,4.4,4,4.9V31c0-3.9-3.1-7-7-7
	s-7,3.1-7,7v4h3C14.8,35,17,32.8,17,30z"/>
<path class="st1" d="M45,63c0-0.6-0.4-1-1-1s-1,0.4-1,1v7h2V63z"/>
<path class="st1" d="M52,58c0.6,0,1,0.4,1,1v11h-2V59C51,58.4,51.4,58,52,58z"/>
<path class="st1" d="M61,54c0-0.6-0.4-1-1-1s-1,0.4-1,1v16h2V54z"/>
<g class="st2">
	<path class="st1" d="M32,46v-4h31c0.6,0,1-0.4,1-1V2h3c0.3,0,0.6,0.2,0.8,0.4C67.9,2.6,68,2.8,68,3v42c0,0.6-0.4,1-1,1H32z"/>
	<path class="st1" d="M17,30h2c0,2.4,1.7,4.4,4,4.9V31c0-3.9-3.1-7-7-7c-0.8,0-1.5,0.1-2.2,0.3c1,0.4,1.9,1.1,2.5,2.1
		c0.5,0.8,0.7,1.6,0.7,2.6V30z"/>
	<path class="st1" d="M16,47c0.9,0,1.9-0.4,3-1.1V48c0,0.2-0.1,0.4-0.1,0.5c-0.1,0.1-0.1,0.2-0.2,0.3L16,50.9V47z"/>
	<path class="st1" d="M17.5,44.5C16.8,44.9,16.3,45,16,45s-0.8-0.1-1.5-0.5c-0.3-0.1-0.5-0.3-0.8-0.5c-0.3-0.2-0.5-0.4-0.8-0.6
		c-0.2-0.2-0.4-0.4-0.6-0.5c-0.3-0.3-0.5-0.6-0.8-0.9l0.1,0.1c0.3,0.2,0.5,0.4,0.8,0.5c0.7,0.4,1.3,0.5,1.5,0.5s0.8-0.1,1.5-0.5
		c0.3-0.2,0.6-0.3,0.8-0.5l0.2-0.2l0.2-0.2c0.3-0.2,0.6-0.5,0.9-0.8c1.4-1.5,2.3-3.3,2.3-4.8v-0.3c0.2,0.1,0.3,0.2,0.5,0.3
		c0.2,0.1,0.4,0.2,0.7,0.3c0.3,0.1,0.5,0.2,0.8,0.3V38c0,1.5-0.9,3.3-2.3,4.8c-0.3,0.3-0.6,0.6-0.9,0.8l-0.2,0.2l-0.2,0.2
		C18.1,44.1,17.8,44.3,17.5,44.5z"/>
	<path class="st1" d="M18,33.6l0.1,0.1l0.1,0.1C18.1,33.8,18,33.8,18,33.6L18,33.6z"/>
	<path class="st1" d="M17,52.7V68h7v-9c0-0.6,0.4-1,1-1s1,0.4,1,1v9h4V54.4c0-0.4-0.1-0.7-0.3-1c-0.2-0.3-0.5-0.6-0.8-0.8l-7.9-4
		c-0.1,0.7-0.5,1.3-1.1,1.8L17,52.7z"/>
</g>
</svg>
