<svg width="560" height="232" fill="none" xmlns="http://www.w3.org/2000/svg"><path d="M42 68a3 3 0 00-3-3h-9a3 3 0 00-3 3v164h15V68zM518 68a3 3 0 013-3h9a3 3 0 013 3v164h-15V68zM82 39a3 3 0 00-3-3h-9a3 3 0 00-3 3v193h15V39zM478 39a3 3 0 013-3h9a3 3 0 013 3v193h-15V39z" fill="#C4C4C4" fill-opacity=".1"/><path d="M107 96a3 3 0 00-3-3h-9a3 3 0 00-3 3v136h15V96zM453 96a3 3 0 013-3h9a3 3 0 013 3v136h-15V96z" fill="#C4C4C4" fill-opacity=".03"/><path d="M132 68a3 3 0 00-3-3h-9a3 3 0 00-3 3v164h15V68zM428 68a3 3 0 013-3h9a3 3 0 013 3v164h-15V68z" fill="#C4C4C4" fill-opacity=".07"/><path d="M156 56a3 3 0 00-3-3h-9a3 3 0 00-3 3v176h15V56zM404 56a3 3 0 013-3h9a3 3 0 013 3v176h-15V56z" fill="#C4C4C4" fill-opacity=".05"/><path d="M181 106a3 3 0 00-3-3h-9a3 3 0 00-3 3v126h15V106zM379 106a3 3 0 013-3h9a3 3 0 013 3v126h-15V106z" fill="#C4C4C4" fill-opacity=".03"/><path d="M206 44a3 3 0 00-3-3h-9a3 3 0 00-3 3v188h15V44zM354 44a3 3 0 013-3h9a3 3 0 013 3v188h-15V44z" fill="#C4C4C4" fill-opacity=".08"/><path d="M231 81a3 3 0 00-3-3h-9a3 3 0 00-3 3v151h15V81z" fill="#C4C4C4" fill-opacity=".05"/><path d="M256 148a3 3 0 00-3-3h-9a3 3 0 00-3 3v84h15v-84z" fill="#C4C4C4" fill-opacity=".1"/><path d="M282 106a3 3 0 00-3-3h-9a3 3 0 00-3 3v126h15V106z" fill="#C4C4C4" fill-opacity=".03"/><path d="M307 127a3 3 0 00-3-3h-9a3 3 0 00-3 3v105h15V127z" fill="#C4C4C4" fill-opacity=".05"/><path d="M333 86a3 3 0 00-3-3h-9a3 3 0 00-3 3v146h15V86z" fill="#C4C4C4" fill-opacity=".08"/><path d="M57 3a3 3 0 00-3-3h-9a3 3 0 00-3 3v229h15V3zM503 3a3 3 0 013-3h9a3 3 0 013 3v229h-15V3zM15 5a3 3 0 00-3-3H3a3 3 0 00-3 3v227h15V5zM545 5a3 3 0 013-3h9a3 3 0 013 3v227h-15V5z" fill="#C4C4C4" fill-opacity=".05"/></svg>