<?xml version="1.0" encoding="utf-8"?><svg xmlns="http://www.w3.org/2000/svg" xmlns:xlink="http://www.w3.org/1999/xlink"><symbol viewBox="0 0 512 512" id="bestseller" xmlns="http://www.w3.org/2000/svg"><path d="M256 416c-57.3 0-104-46.7-104-104s46.7-104 104-104 104 46.7 104 104-46.7 104-104 104z"/><path d="M208 360h16c5.3 0 10-2.6 12.9-6.5 6 4.2 13.3 6.5 21 6.5H296c13.2 0 24-10.8 24-24v-32c0-13.2-10.8-24-24-24h-8v-6.2c0-14.2-11.6-25.8-25.8-25.8-7.4 0-13.7 5-15.5 12.1l-3.5 13.8c-.9 3.6-4.1 6.1-7.8 6.1H208c-8.8 0-16 7.2-16 16v48c0 8.8 7.2 16 16 16zm32-64.4c9.1-1.7 16.5-8.5 18.8-17.8l3.5-13.8c5.4 0 9.8 4.4 9.8 9.8V296h24c4.4 0 8 3.6 8 8v32c0 4.4-3.6 8-8 8H258c-7.4 0-14.1-3.8-17.9-10l-.1-38.4zm-32 .4h16v48h-16v-48z"/><path d="M480.6 312l19.2-48H384v48h-16v-88c0-30.9-25.1-56-56-56v-24c0-13.2-10.8-24-24-24v-16c13.2 0 24-10.8 24-24v-8h72c13.2 0 24-10.8 24-24s-10.8-24-24-24h-73.5c-3.3-9.3-12.1-16-22.5-16h-64c-13.2 0-24 10.8-24 24v48c0 13.2 10.8 24 24 24v16c-13.2 0-24 10.8-24 24v24c-30.9 0-56 25.1-56 56v88h-16v-48H12.2l19.2 48-19.2 48H72v48h72v56c0 22.1 17.9 40 40 40h144c22.1 0 40-17.9 40-40v-56h72v-48h59.8l-19.2-48zM400 294.1l14.9 17.9H400v-17.9zM296 144v24h-16v-32h8c4.4 0 8 3.6 8 8zm-32-8v32h-16v-32h16zm128-88c0 4.4-3.6 8-8 8h-72V40h72c4.4 0 8 3.6 8 8zM216 80V32c0-4.4 3.6-8 8-8h64c4.4 0 8 3.6 8 8v48c0 4.4-3.6 8-8 8h-64c-4.4 0-8-3.6-8-8zm24 24h32v16h-32v-16zm-24 40c0-4.4 3.6-8 8-8h8v32h-16v-24zm-16 40h112c22.1 0 40 17.9 40 40v216H160V224c0-22.1 17.9-40 40-40zM97.1 312l14.9-17.9V312H97.1zm-61.3 32l12.8-32-12.8-32h67.1L72 317.1V344H35.8zM88 392v-64h56v64H88zm240 96H184c-13.2 0-24-10.8-24-24v-8h192v8c0 13.2-10.8 24-24 24zm40-96v-64h56v64h-56zm108.2-48H440v-26.9L409.1 280h67.1l-12.8 32 12.8 32z"/></symbol><symbol id="delivery-box" viewBox="0 0 512 512" xml:space="preserve" xmlns="http://www.w3.org/2000/svg"><style>.abst0{fill:#e2693e}</style><path class="abst0" d="M368 192h64v160h-64V192zm-288 0h64v160H80V192zm328 280h-48v-64h48v64zm-64 0h-48v-64h48v64z"/><path d="M264 456h16v16h-16v-16zm-32 0h16v16h-16v-16z"/><path d="M504 252.7L442.3 191c-4.5-4.5-10.6-7-17-7H376v-18.7c0-10.7-4.2-20.7-11.7-28.3l-41.8-41.8c3.4-4.2 5.5-9.4 5.5-15.2V32c0-13.2-10.8-24-24-24h-96c-13.2 0-24 10.8-24 24v48c0 5.8 2.1 11 5.5 15.2L147.7 137c-7.5 7.6-11.7 17.6-11.7 28.3V184H86.6c-6.4 0-12.4 2.5-17 7L8 252.7v182.6l64-64V504h368V371.3l64 64V252.7zM424 200v144h-48V200h48zm-64-32v48H152v-48h208zm-208 64h208v48H152v-48zm0 64h208v48H152v-48zm48-216v-8h112v8c0 4.4-3.6 8-8 8h-96c-4.4 0-8-3.6-8-8zm64-24V24h16v32h-16zm-16 0h-16V24h16v32zm64-24v24h-16V24h8c4.4 0 8 3.6 8 8zm-104-8h8v32h-16V32c0-4.4 3.6-8 8-8zm-4.3 79.6c1.4.2 2.8.4 4.3.4h96c1.5 0 2.9-.2 4.3-.4l44.7 44.7c1.1 1.1 2.1 2.4 3 3.7H156c.9-1.3 1.9-2.6 3-3.7l44.7-44.7zM136 344H88V200h48v144zm-66.3 7L24 396.7V259.3l48-48v137.8c-.8.6-1.6 1.2-2.3 1.9zM88 488V360h336v128H88zm400-91.3L442.3 351c-.7-.7-1.5-1.3-2.3-1.9V211.3l48 48v137.4z"/></symbol><symbol viewBox="0 0 271.87 452.77" id="ic-arrow" xmlns="http://www.w3.org/2000/svg"><g data-name="Слой 2"><path d="M45.78 0a43.94 43.94 0 0131.9 13.33l181 181c17.62 17.62 17.62 46.19 0 64.29l-181 181c-17.62 17.62-46.19 17.62-64.29 0s-17.62-46.19 0-64.29l149.06-149.12L13.87 77.15C-3.75 59.53-3.75 31 13.87 12.86A45.43 45.43 0 0145.78 0z" data-name="Layer 1"/></g></symbol><symbol viewBox="0 0 63.59 63.59" id="ic-close" xmlns="http://www.w3.org/2000/svg"><path d="M62.26 1.33a4.54 4.54 0 00-6.41 0L31.79 25.38 7.74 1.33a4.54 4.54 0 10-6.41 6.41l24.05 24.05L1.33 55.85a4.54 4.54 0 106.41 6.41l24.05-24.05 24.06 24.05a4.54 4.54 0 106.41-6.41L38.21 31.79 62.26 7.74a4.54 4.54 0 000-6.41z"/></symbol><symbol viewBox="0 0 63.6 63.6" id="ic-close1" xmlns="http://www.w3.org/2000/svg"><path d="M62.3 1.3c-1.8-1.8-4.6-1.8-6.4 0l-24.1 24-24.1-24C6.1-.5 3.2-.7 1.3 1s-2 4.5-.4 6.4c.1.1.2.3.4.4l24 24.1L1.3 56c-1.9 1.7-2 4.5-.4 6.4s4.5 2 6.4.4c.1-.1.3-.2.4-.4l24.1-24 24.1 24c1.7 1.9 4.5 2 6.4.4 1.9-1.7 2-4.5.4-6.4-.1-.1-.2-.3-.4-.4l-24-24.1 24-24.1C64 6 64 3.1 62.3 1.3z"/></symbol><symbol viewBox="0 0 19 16" id="icons--cart" xmlns="http://www.w3.org/2000/svg"><path data-name="Ellipse 2 copy 9" class="afcls-1" d="M18.047 8.005l-.939 1.009-11.394-.008-.952-1-.953-6H.952a.862.862 0 01-.952-1 1.025 1.025 0 011.164-1h2.327c.3 0 .6.006.6.006A1.208 1.208 0 015.427.93L5.817 3h12.23L19 4v1zm-11.916-3l.349 2h10.007l.593-2zm1.863 5a3 3 0 11-3 3 4.451 4.451 0 013-3zM8 14a1 1 0 10-1-1 1 1 0 001 1zm7.011-4a3 3 0 11-3 3 3 3 0 013-2.995zM15 14a1 1 0 10-1-1 1 1 0 001 1z"/></symbol><symbol viewBox="0 0 34 34" id="icons--close" xmlns="http://www.w3.org/2000/svg"><path fill-rule="evenodd" clip-rule="evenodd" d="M26.192 9.222l-1.414-1.414L17 15.586 9.222 7.808 7.808 9.222 15.586 17l-7.778 7.778 1.414 1.414L17 18.414l7.778 7.778 1.414-1.414L18.414 17l7.778-7.778z"/></symbol><symbol viewBox="0 0 18 17" id="icons--compare" xmlns="http://www.w3.org/2000/svg"><path data-name="Rounded Rectangle 865" class="ahcls-1" d="M9 6a1 1 0 011 1v9a1 1 0 01-2 0V7a1 1 0 011-1zm4-6a1 1 0 011 1v15a1 1 0 01-2 0V1a1 1 0 011-1zm4 8a1 1 0 011 1v7a1 1 0 01-2 0V9a1 1 0 011-1zM5 3a1 1 0 011 1v12a1 1 0 01-2 0V4a1 1 0 011-1zM1 8a1 1 0 011 1v7a1 1 0 01-2 0V9a1 1 0 011-1z"/></symbol><symbol viewBox="0 0 512 512" id="icons--email" xmlns="http://www.w3.org/2000/svg"><path d="M467 61H45c-6.927 0-13.412 1.703-19.279 4.51L255 294.789l51.389-49.387.005-.007.005-.004L486.286 65.514C480.418 62.705 473.929 61 467 61zm40.496 25.728L338.213 256.002 507.49 425.279c2.807-5.867 4.51-12.352 4.51-19.279V106c0-6.923-1.699-13.407-4.504-19.272zM4.51 86.721C1.703 92.588 0 99.073 0 106v300c0 6.923 1.701 13.409 4.506 19.274L173.789 256 4.51 86.721z"/><path d="M317.002 277.213l-51.396 49.393c-2.93 2.93-6.768 4.395-10.605 4.395s-7.676-1.465-10.605-4.395L195 277.211 25.714 446.486C31.582 449.295 38.071 451 45 451h422c6.927 0 13.412-1.703 19.279-4.51L317.002 277.213z"/></symbol><symbol viewBox="0 0 20 16" id="icons--favorite" xmlns="http://www.w3.org/2000/svg"><path d="M18.743 8.969l.01.038-.158.141a5.46 5.46 0 01-1.01.91l-6.02 5.428a2 2 0 01-1.34.514h-.463a2 2 0 01-1.342-.518l-5.937-5.377a5.51 5.51 0 01-1.189-1.077l-.057-.051v-.013A5.475 5.475 0 01.73 2.769 5.482 5.482 0 014.16.184a5.502 5.502 0 015.833 2.179A5.486 5.486 0 0113.64.069a5.502 5.502 0 014.182 1.04 5.484 5.484 0 012.142 3.734 5.469 5.469 0 01-1.22 4.126zm-4.245-6.956a3.495 3.495 0 00-2.286.856c-.52.452-1.219 1.358-1.219 2.141a.998.998 0 01-1 1 1.002 1.002 0 01-1.002-1C9 4.5 8.455 3.672 8.328 3.494a3.493 3.493 0 00-2.822-1.468 3.501 3.501 0 00-2.845 1.423 3.484 3.484 0 00.345 4.53l-.022.028 7.008 5.995L17 8.007l-.023-.028a3.494 3.494 0 00-2.48-5.966z"/></symbol><symbol viewBox="0 0 476.3 475.1" id="icons--ic-filters" xmlns="http://www.w3.org/2000/svg"><g data-name="Слой 2"><path d="M37.29 23.62a24.92 24.92 0 012.5-.12h396.66a25 25 0 012.5.12c-.33.61-.73 1.29-1.22 2L323 197.78c-14.31 21.47-25.32 57.85-25.32 83.67v119.07c0 12.82-11 26.94-23.49 30.06l-2.33.58-38.55 9.64-38.49 9.62-2.32.58c-8.78 2.2-13.87-1.76-13.87-10.71V281.36c0-25.8-11-62.07-25.32-83.58L38.51 25.63c-.51-.73-.89-1.4-1.22-2.01z" data-name="Layer 1"/></g></symbol><symbol viewBox="0 -192 426.667 426" id="icons--ic-minus" xmlns="http://www.w3.org/2000/svg"><path d="M405.332 43h-384C9.559 43 0 33.441 0 21.668 0 9.891 9.559.332 21.332.332h384c11.777 0 21.336 9.559 21.336 21.336 0 11.773-9.559 21.332-21.336 21.332zm0 0"/></symbol><symbol viewBox="0 0 426.667 426.667" id="icons--ic-plus" xmlns="http://www.w3.org/2000/svg"><path d="M405.332 192H234.668V21.332C234.668 9.559 225.109 0 213.332 0 201.559 0 192 9.559 192 21.332V192H21.332C9.559 192 0 201.559 0 213.332c0 11.777 9.559 21.336 21.332 21.336H192v170.664c0 11.777 9.559 21.336 21.332 21.336 11.777 0 21.336-9.559 21.336-21.336V234.668h170.664c11.777 0 21.336-9.559 21.336-21.336 0-11.773-9.559-21.332-21.336-21.332zm0 0"/></symbol><symbol viewBox="0 0 18 18" id="icons--lk" xmlns="http://www.w3.org/2000/svg"><path data-name="Ellipse 206 copy 4" class="ancls-1" d="M9 18a9 9 0 119-9 9 9 0 01-9 9zm2.571-2.5a6.825 6.825 0 00-5.126 0 6.825 6.825 0 005.126 0zM9 2a6.973 6.973 0 00-4.556 12.275 8.787 8.787 0 019.114 0A6.973 6.973 0 009 2zm0 10a4 4 0 114-4 4 4 0 01-4 4zm0-6a2 2 0 102 2 2 2 0 00-2-2z"/></symbol><symbol viewBox="0 0 955.96 628.9" id="icons--logo-white" xmlns="http://www.w3.org/2000/svg"><defs><style>.aocls-1{fill:#1e1d2b}</style></defs><g id="aoСлой_2" data-name="Слой 2"><g id="aoСлой_1-2" data-name="Слой 1"><path class="aocls-1" d="M229.67 537.05q11.19 9.33 11.18 25.65t-11.18 25.65q-11.16 9.31-30.65 9.31h-24.79V628h-14.34V527.74H199q19.51 0 30.67 9.31zm-10.31 42.34q7.15-5.79 7.16-16.69t-7.16-16.7q-7.16-5.81-20.78-5.8h-24.35v45h24.35q13.61 0 20.78-5.81zM311 559.12q8.37 7.74 8.38 23.08V628h-13v-10a21.72 21.72 0 01-9.82 8.09 37.37 37.37 0 01-15.12 2.8c-8.51 0-15.3-2-20.42-6.16a21.18 21.18 0 01-.35-32.31q7.31-6.07 23.21-6.09h21.77v-2.72q0-8.89-5.15-13.61t-15.19-4.73a40.38 40.38 0 00-13.18 2.21 34.17 34.17 0 00-10.9 6l-5.73-10.32a41.63 41.63 0 0114-7.24 58.85 58.85 0 0117.33-2.5q15.78-.03 24.17 7.7zm-13.7 55.67a20.08 20.08 0 008.31-10v-10.57h-21.19q-17.51 0-17.5 11.75a10.64 10.64 0 004.45 9c3 2.21 7.06 3.29 12.32 3.29a25.5 25.5 0 0013.61-3.47zm60.4 9.1a36.75 36.75 0 01-14.26-13.83 41.3 41.3 0 010-40 36.14 36.14 0 0114.26-13.75 42.56 42.56 0 0120.69-4.94 39.63 39.63 0 0118.42 4.16 29.58 29.58 0 0112.54 12l-10.46 6.73a23.6 23.6 0 00-8.88-8.17 25.44 25.44 0 00-11.75-2.72 27.13 27.13 0 00-13.4 3.3 23.41 23.41 0 00-9.31 9.38 30.93 30.93 0 000 28.08 23.29 23.29 0 009.31 9.38 27 27 0 0013.4 3.31 25.45 25.45 0 0011.74-2.68 23.36 23.36 0 008.88-8.17l10.46 6.59a30.09 30.09 0 01-12.54 12.12 39.29 39.29 0 01-18.42 4.22 42.16 42.16 0 01-20.68-5.01zm97.93-31.23l-15.76 14.61V628h-13.75V521.73h13.75v68.2l41.41-37.83h16.62L466 583.49 501.05 628h-16.9zm99.29-64.92h14.34v87.84h54.3V628h-68.64zm83.32 7.17a8.47 8.47 0 01-2.66-6.3 8.69 8.69 0 012.66-6.38 9 9 0 016.66-2.66 9.28 9.28 0 016.66 2.52 8.19 8.19 0 012.65 6.23 8.85 8.85 0 01-2.65 6.52 9.05 9.05 0 01-6.66 2.65 9.16 9.16 0 01-6.66-2.58zM638 552.1h13.75V628H638zm55.48-6.59v6.59h22.06v11.32h-21.78V628H680v-64.58h-12.89V552.1H680v-6.73q0-11.31 6.6-17.91t18.48-6.6a31.18 31.18 0 018.59 1.15 21.24 21.24 0 016.88 3.29l-4.15 10.46a17.2 17.2 0 00-10.6-3.57q-12.33 0-12.32 13.32zm102.3 49.15h-61.61a23.81 23.81 0 008.83 16.11q7.5 6.11 18.69 6.1 13.61 0 21.92-9.17l7.6 8.88a33.2 33.2 0 01-12.83 9.17A48.38 48.38 0 01739.9 624a35.33 35.33 0 01-14.4-13.82 39.61 39.61 0 01-5.08-20.07 40.3 40.3 0 014.94-19.91A35.29 35.29 0 01739 556.33a38.74 38.74 0 0119.56-4.94 38 38 0 0119.44 4.94 34.65 34.65 0 0113.32 13.83 42.2 42.2 0 014.79 20.34 37 37 0 01-.33 4.16zM742 569a24.27 24.27 0 00-7.8 15.76h48.72a24.41 24.41 0 00-7.81-15.69A25.66 25.66 0 00742 569zM504.42 324.05c38.46-33.48 61.36-80.77 61.36-135.75 0-55.39-24.49-104.76-62.69-139.25 22.55-12.27 48-19.87 75.42-19.87h135.64V0H578.51A186.75 186.75 0 00478 29.65 186.75 186.75 0 00377.45 0H241.8v29.18h135.65c27.43 0 52.87 7.6 75.42 19.87-38.2 34.49-62.69 83.86-62.69 139.25 0 55 22.89 102.27 61.36 135.75-28.23 14.72-61.85 23.37-99.42 23.37H159.89v29.18h192.23c48.33 0 91.2-12.37 125.86-33.57 34.66 21.2 77.52 33.57 125.86 33.57h192.22v-29.18H603.84c-37.57 0-71.19-8.65-99.42-23.37zM419.36 188.3c0-49.45 23.14-93.13 58.64-122.3 35.48 29.21 58.62 72.89 58.62 122.34 0 48.86-22.22 90.21-58.62 118.68-36.42-28.51-58.64-69.86-58.64-118.72z"/><path class="aocls-1" d="M636.17 86.93h259.98v29.18H636.17zm0 86.95h319.79v29.17H636.17zm0 86.96h259.98v29.17H636.17zM59.8 86.93h259.98v29.18H59.8zM0 173.88h319.78v29.17H0zm59.8 86.96h259.98v29.18H59.8z"/></g></g></symbol><symbol viewBox="-1 0 136 136.219" id="icons--magnifying-glass" xmlns="http://www.w3.org/2000/svg"><path d="M93.148 80.832c16.352-23.09 10.883-55.062-12.207-71.41S25.88-1.461 9.531 21.632C-6.816 44.723-1.352 76.693 21.742 93.04a51.226 51.226 0 0055.653 2.3l37.77 37.544c4.077 4.293 10.862 4.465 15.155.387 4.293-4.075 4.465-10.86.39-15.153a9.21 9.21 0 00-.39-.39zm-41.84 3.5c-18.245.004-33.038-14.777-33.05-33.023-.004-18.246 14.777-33.04 33.027-33.047 18.223-.008 33.008 14.75 33.043 32.972.031 18.25-14.742 33.067-32.996 33.098h-.023zm0 0"/></symbol><symbol viewBox="0 0 512 512" id="icons--maps-and-flags" xmlns="http://www.w3.org/2000/svg"><path d="M256 0C153.755 0 70.573 83.182 70.573 185.426c0 126.888 165.939 313.167 173.004 321.035 6.636 7.391 18.222 7.378 24.846 0 7.065-7.868 173.004-194.147 173.004-321.035C441.425 83.182 358.244 0 256 0zm0 278.719c-51.442 0-93.292-41.851-93.292-93.293S204.559 92.134 256 92.134s93.291 41.851 93.291 93.293-41.85 93.292-93.291 93.292z"/></symbol><symbol viewBox="0 -10 511.987 511" id="icons--star" xmlns="http://www.w3.org/2000/svg"><path d="M510.652 185.902a27.158 27.158 0 00-23.425-18.71l-147.774-13.419-58.433-136.77C276.71 6.98 266.898.494 255.996.494s-20.715 6.487-25.023 16.534l-58.434 136.746-147.797 13.418a27.208 27.208 0 00-23.402 18.71c-3.371 10.368-.258 21.739 7.957 28.907l111.7 97.96-32.938 145.09c-2.41 10.668 1.73 21.696 10.582 28.094 4.757 3.438 10.324 5.188 15.937 5.188 4.84 0 9.64-1.305 13.95-3.883l127.468-76.184 127.422 76.184c9.324 5.61 21.078 5.097 29.91-1.305a27.223 27.223 0 0010.582-28.094l-32.937-145.09 111.699-97.94a27.224 27.224 0 007.98-28.927zm0 0"/></symbol><symbol viewBox="0 0 1205.87 148.55" id="logo" xmlns="http://www.w3.org/2000/svg"><defs><style>.ascls-1{fill:#1e1d2b}</style></defs><g id="asСлой_2" data-name="Слой 2"><g id="asСлой_1-2" data-name="Слой 1"><path class="ascls-1" d="M543.68 27.37q13.07 10.9 13.06 30t-13.06 30q-13.06 10.89-35.84 10.89h-29v35.52h-16.75V16.48h45.75q22.77 0 35.84 10.89zm-12.06 49.5Q540 70.09 540 57.35t-8.37-19.51q-8.39-6.78-24.3-6.79h-28.47v52.61h28.46q15.91 0 24.3-6.79zm107.13-23.7q9.78 9 9.8 27v53.6h-15.24V122a25.42 25.42 0 01-11.49 9.47 43.71 43.71 0 01-17.67 3.27q-14.92 0-23.87-7.21a23.1 23.1 0 01-9-18.93q0-11.72 8.55-18.84T607 82.65h25.46v-3.18q0-10.39-6-15.91T608.67 58a46.89 46.89 0 00-15.4 2.59 39.64 39.64 0 00-12.74 7l-6.7-12.07a48.52 48.52 0 0116.42-8.45 68.55 68.55 0 0120.26-2.93q18.43-.01 28.24 9.03zm-16 65.08a23.47 23.47 0 009.72-11.64V94.2h-24.79c-13.64 0-20.45 4.6-20.45 13.74a12.45 12.45 0 005.19 10.56c3.47 2.58 8.26 3.85 14.41 3.85a29.81 29.81 0 0015.91-4.1zm70.61 10.64a43 43 0 01-16.68-16.17 45.38 45.38 0 01-6-23.37 45.34 45.34 0 016-23.36 42.24 42.24 0 0116.68-16.08 49.72 49.72 0 0124.19-5.78A46.39 46.39 0 01739.09 49a34.59 34.59 0 0114.65 14.07l-12.23 7.87a27.4 27.4 0 00-10.38-9.55 29.71 29.71 0 00-13.74-3.19 31.78 31.78 0 00-15.67 3.86 27.42 27.42 0 00-10.88 11 33.13 33.13 0 00-3.93 16.33 33.45 33.45 0 003.93 16.5 27.35 27.35 0 0010.88 11 31.78 31.78 0 0015.67 3.86 29.71 29.71 0 0013.74-3.19 27.24 27.24 0 0010.38-9.55l12.23 7.71a35.15 35.15 0 01-14.65 14.16 45.93 45.93 0 01-21.54 4.94 49.32 49.32 0 01-24.19-5.93zm114.49-36.51l-18.43 17.08v24.29h-16.07V9.45h16.07v79.74L837.84 45h19.43l-37.35 36.65 41 52.1h-19.73zm116.08-75.9h16.77v102.69h63.49v14.58h-80.26zm97.42 8.38a9.89 9.89 0 01-3.11-7.37 10.18 10.18 0 013.11-7.46 10.57 10.57 0 017.79-3.1 10.89 10.89 0 017.79 2.94 9.61 9.61 0 013.1 7.28 10.4 10.4 0 01-3.1 7.63 11.45 11.45 0 01-15.58.08zM1021.1 45h16.07v88.79h-16.07zm64.83-7.75V45h25.79v13.19h-25.45v75.56h-16.09V58.19h-15.07V45h15.07v-7.91q0-13.23 7.71-20.94t21.6-7.71a36.39 36.39 0 0110 1.34 24.57 24.57 0 018 3.85l-4.86 12.23a20.08 20.08 0 00-12.39-4.19q-14.31 0-14.31 15.58zm119.61 57.47h-72a27.88 27.88 0 0010.32 18.84q8.78 7.13 21.85 7.12 15.91 0 25.63-10.72l8.88 10.39a39 39 0 01-15 10.72 56.64 56.64 0 01-45-2.09 41.38 41.38 0 01-16.83-16.17 46.31 46.31 0 01-5.94-23.46 47.19 47.19 0 015.77-23.28 41.3 41.3 0 0115.92-16.16 45.28 45.28 0 0122.86-5.78 44.41 44.41 0 0122.7 5.78 40.61 40.61 0 0115.58 16.16 49.35 49.35 0 015.6 23.79 44.3 44.3 0 01-.34 4.86zm-62.91-30q-7.79 7-9.13 18.43h57a28.53 28.53 0 00-9.13-18.35q-7.78-7.12-19.35-7.12t-19.39 7.05zM199 127.82a69.68 69.68 0 0024.2-53.55 73.81 73.81 0 00-24.73-54.92 62 62 0 0129.75-7.84h53.48V0h-53.51a73.56 73.56 0 00-39.65 11.7A73.56 73.56 0 00148.89 0H95.38v11.51h53.51a62 62 0 0129.75 7.84 73.81 73.81 0 00-24.73 54.92 69.68 69.68 0 0024.2 53.55 84.31 84.31 0 01-39.22 9.18H63.07v11.51h75.82c19.07 0 36-4.88 49.65-13.24 13.67 8.36 30.58 13.24 49.64 13.24H314V137h-75.82a84.3 84.3 0 01-39.18-9.18zm-33.58-53.55A62.36 62.36 0 01188.54 26a62.36 62.36 0 0123.12 48.25c0 19.28-8.76 35.59-23.12 46.82-14.36-11.21-23.12-27.52-23.12-46.8z"/><path class="ascls-1" d="M250.94 34.29h102.55V45.8H250.94zm0 34.3h126.14V80.1H250.94zm0 34.3h102.55v11.51H250.94zM23.59 34.29h102.55V45.8H23.59zM0 68.59h126.14V80.1H0zm23.59 34.3h102.55v11.51H23.59z"/></g></g></symbol><symbol viewBox="0 0 476.2 372.1" id="svg-check-ic" xmlns="http://www.w3.org/2000/svg"><path d="M398.8 0L183 216.7l-105.6-106L0 188.4l182.9 183.7L476.2 77.7z"/></symbol><symbol viewBox="0 0 38.3 32.82" id="trigger" xmlns="http://www.w3.org/2000/svg"><defs><style>.aua,.auc{fill:none;stroke:#1e557d;stroke-linecap:round;stroke-linejoin:round;stroke-width:1.37px}</style></defs><path class="aua" d="M12.85 31.38a1.19 1.19 0 001.51.71l6.51-2.38a1.18 1.18 0 00.7-1.5l-.65-1.83a1.2 1.2 0 00-1.51-.71l-6.51 2.39a1.18 1.18 0 00-.7 1.5zM23.5 10.96l-.91-2.51a2 2 0 00-2.6-1.21L7.5 11.76l-1.89 1.27a.82.82 0 00-.43.38l-1.63 2.07c-.06.14-.17.18-.13.28l-1.48 2.47-.19.41-1 3.53-.08.71.22.6a1.46 1.46 0 00.45.3h.23a1.15 1.15 0 00.58 0l3.92-.75a.87.87 0 01.58 0h.24c.23 0 .37.09.61.12l.17.16a1.52 1.52 0 01.45.29l.34.33a1.48 1.48 0 01.46.63l.35.66v.1a1.94 1.94 0 002.29 1l6.51-2.37a2 2 0 001.3-2.06l-.31-2.73v-.81l.44-1.08a1.87 1.87 0 01.26-.54l.89-1.35.07-.14 1-1.28c.1 0 .06-.13.16-.17l.7-.59a2 2 0 00.92-2.24zm0-4.97l2 5.61 3.93-2-1.59-4.5z"/><path d="M23.5 15.02l1.29 1.12 2.53 1.64 2.8 1.17 2.3.44 2.2.07-1.61 1.86-2.41-.14-3.1-.69-2.69-1.11-1.88-.93-1.19-.75z"/><circle class="auc" cx="36.34" cy="6.18" r="1.28"/><circle class="auc" cx="34.7" cy="1.96" r="1.28"/><circle class="auc" cx="31.75" cy="5.48" r="1.28"/></symbol><symbol viewBox="0 0 37.55 33.89" id="trigger10" xmlns="http://www.w3.org/2000/svg"><defs><style>.ava{fill:none;stroke:#1e557d;stroke-linecap:round;stroke-linejoin:round;stroke-width:1.2px}</style></defs><path class="ava" d="M7.22 27.54l12.64-4.73a.85.85 0 011 .47l1.58 4.21a.86.86 0 01-.47 1L9.35 33.25a.86.86 0 01-1-.47l-1.6-4.21a.73.73 0 01.47-1.03z"/><path d="M4.13 18.72L.64 9.04a1.48 1.48 0 010-.63l.23-.49a.54.54 0 01.26-.35l1-.69h.09l3.82-1.72h.1l4-1.12h.1l1.47-.32h.32l.35.08a1 1 0 01.62.53l.24.65a.84.84 0 001 .48L26.32.65a.8.8 0 011 .48l4.81 12.08a.86.86 0 001 .48h.09a.78.78 0 011.05.26l.07.19 2.51 7.17a.88.88 0 01-.48 1l-5 1.81a.79.79 0 01-1-.48l-2.79-7.07a.78.78 0 01.39-1h.09a.77.77 0 00.51-.94l-3.12-8.71a.85.85 0 00-1-.48l-9 3.28a.86.86 0 00-.48 1l1.64 4.51a.85.85 0 01-.48 1L5.29 19.17a.77.77 0 01-1.16-.45z"/><path class="ava" d="M8.4 19.92l5.9-2.2a.86.86 0 011 .47l1.19 3.18a.87.87 0 01-.47 1l-5.89 2.23a.86.86 0 01-1-.47l-1.2-3.21a.86.86 0 01.47-1z"/></symbol><symbol viewBox="0 0 28 31" id="trigger11" xmlns="http://www.w3.org/2000/svg"><path d="M21.35 30.56H15l-.08-1.13-.12-1.13v-2.79l.09-.52a3.52 3.52 0 01.26-1l.18-.53.26-.61.27-.6.27-.35c.17-.18.44-.53.62-.7l.71-.7.35-.26.62-.26.62-.26.53-.17.53-.09.54-.09.53-.09h1.24l.53.09c.27.09.62.18.89.26s.53.18.7.26.45.27.62.35l.36.26.44.44c.27.26.53.61.71.78a2.88 2.88 0 01.44.7c.09.17.27.61.36.78l.18.44.17.61.18.61v5.57c-.27.09-3.1.09-6.65.17zm.65-1.13h4.61v-3.92l-.12-.51a4 4 0 01-.17-1l-.18-.34-.27-.53-.26-.52-.36-.43-.35-.44-.36-.26-.35-.26-.53-.22-.66-.28-.45-.08-.44-.09H20.2l-.35.09c-.18.08-.53.17-.71.26a7 7 0 01-.8.35l-.35.26-.53.43-.45.53-.26.43-.27.44-.18.43-.17.44-.09.43c-.09.26-.09.7-.18 1.14l-.09.69.09 1.53.14 1.61h.71a34.73 34.73 0 015.29-.18zm-14.88 1H2.3l-.3-.04h-.32l-.35-.17L1 30l-.26-.26-.27-.26-.17-.35-.18-.35v-1l.09-1.05c.09-.61.09-1.48.17-2s.09-1.57.09-2.26l.09-1.4v-3.48l-.09-1.48c0-.78-.09-2.18-.17-3s-.18-1.83-.18-2.18L0 10.28v-.7l.09-.35.09-.35.17-.26.18-.26.27-.17.26-.19.18-1.22.18-1.22.17-.56c.09-.34.27-.87.36-1.13a4.05 4.05 0 00.27-.78c.08-.18.26-.44.35-.61l.27-.35.44-.44.44-.43.36-.26A1.07 1.07 0 014.7.65c.17-.09.53-.17.71-.26s.62-.18.79-.26L6.56 0H8l.45.09c.26.08.62.17.88.26l.45.17.44.26.44.26.45.44.44.44.35.52.36.52.18.44c.08.26.26.61.35.95s.18.79.27 1.14.17 1.13.26 1.65l.18 1 .35.34.36.35.17.26.09.26v.27c0 .17-.09.78-.09 1.48s-.17 1.74-.17 2.35-.09 1.91-.18 2.78l-.09 1.57v5.57l.09.87c0 .44.09 1.57.18 2.44l.17 1.57-.08.44-.09.43-.18.35-.18.35-.35.26-.36.35-.26.17-.27.18-.35.08-.36.09-4.78-.52zm.09-1h4.69l.27-.08.27-.09.17-.18.18-.17.09-.35.09-.35v-.69c0-.35-.09-1.05-.09-1.57s-.09-1.57-.18-2.26-.09-2.18-.09-3.23v-1.83l-.17-.08c-.09 0-.45-.09-.89-.18s-1-.17-1.33-.26-1.42-.17-2.3-.26-2-.17-2.31-.26a5 5 0 01-1.15-.17c-.27-.09-.71-.18-1.06-.27s-.8-.26-1.15-.34l-.54-.18v5.66l-.09 1.13a19.26 19.26 0 01-.17 2.27c0 .61-.18 1.39-.18 1.83l-.09.69.27.26.26.27.27.17a1.89 1.89 0 01.44.26l.18.09 4.61.17zm5.28-11.93l.09-1.5.09-1.48.09-1.83c.09-1 .18-2.17.18-2.7v-.87H1v.18c0 .08.09.87.09 1.74s.18 2.09.27 2.79l.09 1.21.09.27.08.26.18.17c.09.09.27.18.36.26a1.86 1.86 0 00.62.26l.44.18.62.08a6.65 6.65 0 001.33.18c.35 0 1.51.17 2.48.26s2.22.26 2.66.26a9.86 9.86 0 001.24.18 7.37 7.37 0 00.94.1zM8.68 8h3.55l-.18-.87c-.09-.52-.18-1-.18-1l-.09-.18H3.46L2.84 6l-.62.09-.09 1a7.14 7.14 0 00-.09 1h1.59c.8-.09 3.1-.09 5-.09zM7.62 4.7h4v-.08l-.18-.53-.18-.52-.26-.44-.27-.43-.44-.44-.44-.43-.45-.26-.71-.35a2 2 0 00-.8-.22H6c-.18.09-.54.18-.71.27L5 1.48l-.44.26-.48.26-.36.35-.35.35-.27.35c-.09.17-.26.43-.35.61s-.18.43-.27.61a1.46 1.46 0 00-.09.43 1.84 1.84 0 01.53.09c.45-.09 2.49-.09 4.7-.09z"/></symbol><symbol viewBox="0 0 37.02 32.97" id="trigger2" xmlns="http://www.w3.org/2000/svg"><defs><style>.axa,.axb{fill:none;stroke:#1e557d;stroke-linecap:round;stroke-linejoin:round;stroke-width:1.37px}</style></defs><path class="axa" d="M8.22 31.58a1.07 1.07 0 001.37.63l12.19-4.56a1.07 1.07 0 00.63-1.37l-1.42-3.83a1.07 1.07 0 00-1.38-.62L7.42 26.45a1.06 1.06 0 00-.62 1.37z"/><path class="axb" d="M4.18 17.52L.75 8.1a1 1 0 010-.81l.13-.27c.07-.14.23-.31.29-.45l.9-.66.2-.08 3.74-1.68h.1l3.88-1.19h.1l1.38-.28h.43l.45.29a1 1 0 01.69.66l.15.4a1.06 1.06 0 001.37.63L24.98.76l1.45-.07c.1 0 .14.06.24 0l1.35.3c.1 0 .14.07.24 0l1.33.54a.11.11 0 00.14.06l.48.39a.92.92 0 01.27 1.47.11.11 0 00-.06.14l-1 1.27a1.12 1.12 0 01-1.24.34l-1.6-.66-.28-.13-.95-.11a.69.69 0 00-.43 0L15.6 7.7a1.05 1.05 0 00-.64 1.36l1.49 4.11a1.06 1.06 0 01-.59 1.37l-10.48 3.8a1.18 1.18 0 01-1.2-.82z"/><path class="axa" d="M9.12 22.89a1.07 1.07 0 001.37.63l5.5-2.07a1.08 1.08 0 00.62-1.38l-1-2.79a1.08 1.08 0 00-1.38-.63L8.7 18.72a1.08 1.08 0 00-.63 1.38z"/><path class="axb" d="M31.86 6.38a6.35 6.35 0 01-.36 4.07 2.57 2.57 0 103.48-1l-.27-.13a6.31 6.31 0 01-2.85-2.94z"/></symbol><symbol viewBox="0 0 27.98 32.74" id="trigger3" xmlns="http://www.w3.org/2000/svg"><defs><style>.aya,.ayc,.d{fill:none;stroke:#1e557d}.aya,.ayc{stroke-width:1.2px}.aya{stroke-miterlimit:4.55}.ayc{stroke-linecap:round;stroke-linejoin:round}.d{stroke-miterlimit:11.38;stroke-width:1.14px}</style></defs><path class="aya" d="M13.93 14.68c-8.74 0-13.33 3-13.33 5.87v4.48c1.6-3 7.57-4.59 13.33-4.59s11.74 1.6 13.41 4.59v-4.48c0-2.88-4.55-5.87-13.41-5.87z"/><path class="aya" d="M24.89 15.54v-6.2c0-3.2-4.16-8.75-10.88-8.75S3.13 6.15 3.13 9.34v6.2c2.88-1.5 6.94-2.14 10.88-2.14s8 .64 10.88 2.14zM9.11 7.34a4.89 4.89 0 014.9-4.9 4.82 4.82 0 014.91 4.9 5 5 0 01-4.91 4.91 4.89 4.89 0 01-4.9-4.91z"/><path class="aya" d="M15.34 8.07a1.39 1.39 0 10-1.39 1.39 1.41 1.41 0 001.39-1.39z"/><path d="M13.97 4.34a3.45 3.45 0 013.52 3.31 3.29 3.29 0 01-.32 1.49 3.17 3.17 0 00.64-1.92 3.6 3.6 0 00-3.73-3.52 3.66 3.66 0 00-3.74 3.53 3 3 0 00.64 1.92 3.29 3.29 0 01-.32-1.49 3.13 3.13 0 013.31-3.32z"/><ellipse class="ayc" cx="14.06" cy="27.01" rx="12.69" ry="5.12"/><path class="ayc" d="M11.56 28.83V22M16.49 28.83V22m-3.1 4.46v1.39c-1.28.11-2.13.75-1.71 1.28s1.71.85 3.1.64 2.13-.75 1.7-1.28a2.84 2.84 0 00-1.7-.75l-.11-.1v-1.3c0-.22-.32-.43-.64-.43s-.64.32-.64.53z"/></symbol><symbol viewBox="0 0 38.76 32.46" id="trigger4" xmlns="http://www.w3.org/2000/svg"><defs><style>.aza{fill:none;stroke:#1e557d;stroke-miterlimit:10;stroke-width:1.2px}.azb{fill:#1e557d;fill-rule:evenodd}</style></defs><path class="aza" d="M8.18 31.2a1 1 0 001.3.6l12.2-4.6a1 1 0 00.6-1.3l-1.4-3.8a1 1 0 00-1.3-.6l-12.2 4.6a1 1 0 00-.6 1.3l1.4 3.8zm-4.1-13.9L.68 7.9a1.1 1.1 0 010-.8l.1-.3a.78.78 0 01.4-.4l1-.6a.35.35 0 01.2-.1l3.7-1.6h.1l3.9-1.1h.1l1.4-.3h.4l.2.1a1.06 1.06 0 01.7.6l.1.4a1 1 0 001.3.6L24.38.7c.1 0 .2-.1.3-.1h1.7l1.4.3c.1 0 .2 0 .2.1l1.3.6a.1.1 0 01.1.1l.5.3a1 1 0 01.3 1.4.1.1 0 01-.1.1l-1 1.3a1 1 0 01-1.2.3l-1.6-.7c-.1 0-.2-.1-.3-.1l-.9-.1a.9.9 0 00-.5.1l-9.3 3.4a1 1 0 00-.6 1.3l1.5 4.1a1 1 0 01-.6 1.3l-10.4 3.8a1.86 1.86 0 01-1.1-.9zm4.9 5.4a1 1 0 001.3.6l5.4-2a1 1 0 00.6-1.3l-1-2.8a1 1 0 00-1.3-.6l-5.4 2a1 1 0 00-.6 1.3z"/><path class="azb" d="M34.08 26.02a2.8 2.8 0 013.59 1.67 2.804 2.804 0 01-5.27 1.92 2.8 2.8 0 011.68-3.59zm1.67 4.6a2.1 2.1 0 10-2.67-1.25 2.11 2.11 0 002.71 1.25z"/><path class="azb" d="M34.58 27.2a1.54 1.54 0 011.93.89.34.34 0 01-.18.39.27.27 0 01-.39-.18.88.88 0 00-1.06-.57.27.27 0 01-.38-.18c-.26-.12-.1-.29.08-.35zm1.82 1.65a.29.29 0 01.16.16c0 .09.07.18 0 .22s-.06.13-.16.16-.19.07-.22 0a.29.29 0 01-.16-.16c0-.09-.07-.19 0-.22a.31.31 0 01.38-.16zm-8.75-8.46a5.57 5.57 0 011.29-.26 7.13 7.13 0 01-.66-1.25 5.4 5.4 0 116.92 3.23 4.81 4.81 0 01-2.46.26l.17.47a4.12 4.12 0 01-2.45 5.25 4.06 4.06 0 01-5.26-2.45 4.12 4.12 0 012.45-5.25zm10.12-5a4.7 4.7 0 10-2.81 6 4.76 4.76 0 002.81-5.96zm-7.55 12a3.36 3.36 0 002-4.35c-.13-.38-.33-.63-.43-.91a4.43 4.43 0 01-2.19-1.33 3.19 3.19 0 00-1.64.17 3.37 3.37 0 00-2 4.36 3.28 3.28 0 004.26 2.06z"/><path class="azb" d="M31.9 13.2a4.12 4.12 0 015.26 2.45.32.32 0 01-.18.38.27.27 0 01-.39-.18 3.38 3.38 0 00-4.36-2 .26.26 0 01-.38-.18c-.2-.25-.14-.37.05-.44zm-3.77 8.38a2.81 2.81 0 013.59 1.68.31.31 0 01-.18.38.26.26 0 01-.38-.18 2.06 2.06 0 00-2.7-1.26.26.26 0 01-.38-.18c-.29-.21-.14-.38.05-.45zm9.1-5.17a.29.29 0 01.16.16c0 .09.07.19 0 .22a.29.29 0 01-.16.16c-.09 0-.18.07-.22 0s-.13-.06-.16-.16-.07-.18 0-.22c-.06-.21.23-.31.38-.16zm-5.54 7.69a.29.29 0 01.16.15s.07.19 0 .22a.29.29 0 01-.16.16c-.09 0-.18.07-.22 0a.29.29 0 01-.16-.16s-.07-.18 0-.22a.29.29 0 01.38-.15zm2.39-13.36a2.86 2.86 0 01-3.58-1.68 2.8 2.8 0 113.58 1.68zm-1.67-4.61a2.126 2.126 0 101.44 4 2.06 2.06 0 001.23-2.74 2 2 0 00-2.67-1.26z"/><path class="azb" d="M34.41 8.01a.27.27 0 01-.33-.18.9.9 0 00-1.06-.58.27.27 0 01-.39-.17.34.34 0 01.18-.39 1.56 1.56 0 011.93.9c-.11.13-.23.38-.33.42zm.04.3a.29.29 0 01.16.15c0 .1.07.19 0 .22a.34.34 0 01-.16.17c-.09 0-.18.07-.22 0s-.15-.09-.15-.18-.07-.19 0-.22a.31.31 0 01.37-.14z"/></symbol><symbol viewBox="0 0 35.45 33" id="trigger5" xmlns="http://www.w3.org/2000/svg"><path d="M32.97 33s.6-.46 1.29-1.1 1.19-1.11 1.19-1.2-.5-.55-1.09-1.1l-1.09-1-.3-.55-.29-.56-.3-1.1-.3-1.1-.39-.83-.4-.83-7.42-6.89-7.33-6.89.2-.65.2-.64v-.93l-.2-.37-.2-.37-.3-.27a1.68 1.68 0 00-.69-.46l-.4-.16h-1.19l-.49.1-.5.09L10.7 4l-3-2.75L7 .7 6.45.46l-.6-.28-.8-.09L4.26 0l-.59.18a4.92 4.92 0 00-1.22.46l-.5.28-.59.55L.8 2l-.3.55-.3.56-.1.64-.1.64.1.65.1.64.3.55.3.55 2.87 2.67 2.87 2.66-.1.46-.1.46v1.11l.1.27c.1.09.3.46.49.65l.4.36.4.19.39.18h1l.6-.09.49-.09 7.33 6.8 7.33 6.8.79.37.79.42 1.58.36 1.59.37.49.28.5.27 1.09.92a11.26 11.26 0 001.28.83zm-.89-2.11l-.89-.74-.74-.37-.79-.27-1.29-.28c-.69-.09-1.48-.37-1.68-.37a9.07 9.07 0 00-.89-.36l-.5-.28-7.23-6.71-7.37-6.71 2.37-2.21 2.38-2.2 7.33 6.8L30.1 24l.3.74.3.64.29 1.2c.2.64.4 1.28.5 1.56s.3.55.49.83a9.73 9.73 0 001 1.1 3.3 3.3 0 01.6.73 3.38 3.38 0 01-.4.46l-.39.37-.7-.73zm-2.37-2.21l.69.09.1-.27.1-.28-.1-.55c-.1-.28-.2-.92-.3-1.38l-.2-.92-.29-.46-.3-.46-3.66-3.4c-2-1.84-3.67-3.4-3.77-3.4s-.79.64-1.68 1.47l-1.58 1.47 1.09 1.1c.59.56 2.27 2.21 3.76 3.59l2.67 2.48.7.28.69.27.69.09a5.7 5.7 0 001.39.28zm-.7-1.2a5.1 5.1 0 01-.79-.18l-.69-.09-.4-.18-.39-.19-3.17-2.94L20.3 21v-.19l.89-.73.89-.74 3.17 2.95 3.2 2.9.3.36.29.37.1.55a3.84 3.84 0 01.2.92l.1.37-.4-.28zM8.62 14.8a2.24 2.24 0 01-.6-.18l-.39-.19-.18-.27-.2-.37v-.55l.3-.37c.2-.18.59-.64.89-.92l.59-.55v-.09a.63.63 0 00-.19-.37.7.7 0 00-.3-.28 1.15 1.15 0 00-.59.46l-.5.46L4.66 9 1.89 6.43l-.5-.64-.3-.55V3.58l.3-.58.3-.55.39-.37.37-.33.49-.28.51-.28h1.8l.5.28.49.18 2.87 2.67 2.87 2.57-1.28 1.2-1.25 1.19v.1a1.57 1.57 0 00.2.46 1.57 1.57 0 01.3.36s.69-.55 1.38-1.19l1.88-1.75.6-.46h.59l.3.19.29.18.2.46.2.46-.1.27-.1.37-3.17 2.94c-1.78 1.66-3.26 2.95-3.36 3 .3 0 .1.09 0 .09z"/></symbol><symbol viewBox="0 0 33.68 33.65" id="trigger6" xmlns="http://www.w3.org/2000/svg"><defs><style>.bba{fill:none;stroke:#1e557d;stroke-linecap:round;stroke-linejoin:round;stroke-width:1.2px}</style></defs><path class="bba" d="M1.33 18.86l2.34 6.41c2.4 6.62 10.85 9.53 18.77 6.68S34.8 21.32 32.43 14.8l-2.11-5.81c2.1 6.72-2.75 14.28-10.88 16.9-7.86 2.4-15.81-.72-18.11-7z"/><ellipse cx="18.49" cy="13.84" rx="15.25" ry="12.69" transform="rotate(-20 16.566 21.458)"/><path d="M30.7 11.8C30.51 4.74 23.69-.27 15.27.73S.47 8.29.6 15.51a10.69 10.69 0 002.33 6.41C2.74 14.8 9.27 8.25 17.65 7.15c5.31-.69 10.29 1.13 13.05 4.65z"/><path class="bba" d="M30.7 11.8C30.51 4.74 23.69-.27 15.27.73S.47 8.29.6 15.51a10.69 10.69 0 002.33 6.41C2.74 14.8 9.27 8.25 17.65 7.15c5.31-.69 10.29 1.13 13.05 4.65z"/><path d="M8.69 25.92a17.48 17.48 0 0020.17-7.57c-.07-5.2-5.07-8.94-11.19-8.3s-11.06 5.5-11 10.69a8.93 8.93 0 002.02 5.18z"/></symbol><symbol viewBox="0 0 32.9 33" id="trigger7" xmlns="http://www.w3.org/2000/svg"><path d="M32.3 22.23l-4.58-4.58a2.22 2.22 0 00-1.1-.5 1.61 1.61 0 00-.5-1.1l-.8-.8a2.09 2.09 0 00-1.09-.49 1.61 1.61 0 00-.5-1.1l-.8-.8a2.22 2.22 0 00-1.1-.5 1.6 1.6 0 00-.49-1.09l-.8-.8a1.88 1.88 0 00-1.1-.5 1.61 1.61 0 00-.5-1.1l-3.19-3.19a7.91 7.91 0 00-5.68-2.29H9.9l-.5.5-.7-.6a1.09 1.09 0 000-1.5L7.18.3a1.09 1.09 0 00-1.5 0L.3 5.68a1.09 1.09 0 000 1.5l1.5 1.49a1.09 1.09 0 00.79.3 1.33 1.33 0 00.8-.3l.8.8-.5.5v.2a8.26 8.26 0 002.29 5.68L9.17 19a2.22 2.22 0 001.1.5 1.61 1.61 0 00.5 1.1l.8.89a2.15 2.15 0 001.09.5 1.61 1.61 0 00.5 1.1l.8.8a1.88 1.88 0 001.09.5 1.6 1.6 0 00.5 1.09l.8.8a2.22 2.22 0 001.1.5 1.27 1.27 0 00.5 1.1l4.58 4.58a1.61 1.61 0 001.1.5 1.17 1.17 0 001.1-.5l7.67-7.68a1.56 1.56 0 00.5-1.09 2.29 2.29 0 00-.6-1.46zM1.2 6.48L6.58 1.1l1.5 1.49L2.69 8zm7-2.29l.7.81-3.81 3.87-.8-.79zm23.3 19.54l-7.67 7.67a.61.61 0 01-.8 0l-4.59-4.58a.61.61 0 010-.8l1.46-1.49-.8-.8-1.49 1.49a.6.6 0 01-.8 0l-.8-.79a.5.5 0 010-.8l-.4-.4.4.4 1.5-1.5-.8-.79-1.6 1.49a.59.59 0 01-.79 0l-.8-.8a.49.49 0 010-.79l1.49-1.5-.79-.8-1.5 1.5a.6.6 0 01-.8 0l-.79-.8a.6.6 0 010-.8l1.49-1.49-.8-.8-1.49 1.5c-.1.1-.2.1-.4.1s-.3 0-.4-.1l-3.19-3.2a7.11 7.11 0 01-2-4.58l5.78-5.88a7.15 7.15 0 014.59 2l3.19 3.19a.61.61 0 010 .8l-1.5 1.49.8.8 1.49-1.49-.4-.4.4.4a.6.6 0 01.8 0l.8.79a.61.61 0 010 .8l-1.5 1.5.8.79 1.5-1.49a.59.59 0 01.79 0l.8.8a.6.6 0 010 .79l-1.49 1.5.79.8 1.5-1.5-.4-.4.4.4a.61.61 0 01.8 0l.79.8a.5.5 0 010 .8L23.63 19l.8.8 1.47-1.46a.63.63 0 01.8 0l4.58 4.59a.52.52 0 01.2.4c.1.1.1.4 0 .4z"/></symbol><symbol viewBox="0 0 23.01 33.28" id="trigger8" xmlns="http://www.w3.org/2000/svg"><path d="M22.87 28.02V9.77a2.67 2.67 0 00-2.06-2.63V4.35c0-1.2-1-2.3-2.84-3.11a17.84 17.84 0 00-6.46-1.1 17.94 17.94 0 00-6.47 1.1c-1.86.81-2.84 1.9-2.84 3.11v2.79A2.68 2.68 0 00.14 9.77v18.37c0 1.41 1.28 2.71 3.53 3.62a20.42 20.42 0 007.84 1.38 20.33 20.33 0 007.83-1.4c2.26-1 3.53-2.31 3.53-3.72zm-1.67 1.41l-.09.1a.1.1 0 00-.1.1.1.1 0 00-.1.1 7.76 7.76 0 01-1.76 1.1c-.1 0-.1 0-.2.1-.1 0-.1.1-.19.1a19.25 19.25 0 01-6.27 1.21h-1.86a22.22 22.22 0 01-5.69-.91c-.09 0-.09 0-.19-.1-.1 0-.1 0-.2-.1-.1 0-.1 0-.19-.1a.31.31 0 01-.2-.1.31.31 0 01-.2-.1c-.09 0-.09 0-.19-.1a5.9 5.9 0 01-1.76-1.1.1.1 0 01-.1-.1h-.04l-.1-.1a.1.1 0 00-.1-.1 2.35 2.35 0 01-.68-1.41 1.9 1.9 0 01.68-1.4 5 5 0 012.2-1.3 20.65 20.65 0 017.54-1.31 21.05 21.05 0 017.54 1.31 6.25 6.25 0 012.16 1.3 1.9 1.9 0 01.68 1.4 1.67 1.67 0 01-.59 1.51zM19.87 7.76c-.09.81-1 1.51-2.25 2.11a15.71 15.71 0 01-6.07 1.1 16.13 16.13 0 01-6.08-1.1c-1.37-.6-2.15-1.3-2.25-2V5.66a6.86 6.86 0 002.06 1.4 16.78 16.78 0 006.23 1.08 16.82 16.82 0 006.27-1.1 5.39 5.39 0 002.09-1.38v2.1zM5.43 2.14a14.65 14.65 0 015-1h2a14.54 14.54 0 015 1c1.38.6 2.26 1.4 2.26 2.2s-.88 1.61-2.26 2.21a15.79 15.79 0 01-6.07 1 18.4 18.4 0 01-6.07-1c-1.42-.59-2.31-1.41-2.31-2.2a4 4 0 012.45-2.21zm-2.84 6a4.49 4.49 0 002.55 2.21 16.82 16.82 0 006.27 1.1 16.82 16.82 0 006.27-1.1c1.37-.6 2.35-1.4 2.55-2.21a1.57 1.57 0 011.56 1.61v16.67l-.29-.3a7.06 7.06 0 00-2.35-1.51 19.89 19.89 0 00-7.74-1.4 19.89 19.89 0 00-7.74 1.4 7.06 7.06 0 00-2.35 1.53l-.29.3V9.77a1.7 1.7 0 011.56-1.63z"/></symbol><symbol viewBox="0 0 32.5 31.5" id="trigger9" xmlns="http://www.w3.org/2000/svg"><defs><style>.bebea,.beb{fill:#1e557d;stroke:#1e557d;stroke-miterlimit:10;stroke-width:.5px}.bea{fill-rule:evenodd}</style></defs><path class="bea" d="M29.49 9.68h-1.18V7.92a2.28 2.28 0 00-2.28-2.2h-.55V2.81h.36c.92 0 3.29.18 3.84 1.32 0 .09.18.18.36.18h1.82c.19 0 .37-.09.37-.27 0 0 .27-1.14-1.19-2.38C29.13.08 25.93.25 25.75.25h-5.56a.38.38 0 00-.37.35v1.77a.38.38 0 00.37.35h2.19v2.91h-.73a2.27 2.27 0 00-2.28 2.2v1.85h-1.55a2.71 2.71 0 00-2.83 2.64v16.29a2.66 2.66 0 002.83 2.64h11.67a2.64 2.64 0 002.76-2.64v-16.2a2.72 2.72 0 00-2.76-2.73zm-8.94-7.66V.96h5.29s3-.18 4.75 1.23a2.48 2.48 0 01.91 1.32h-1.19c-1-1.67-4.28-1.58-4.47-1.58 0 .09-5.29.09-5.29.09zm4.2.79v2.91h-1.64V2.81zM20.1 7.92a1.57 1.57 0 011.55-1.5h4.38a1.57 1.57 0 011.55 1.5v1.85H20.1zm11.49 20.69a2 2 0 01-2.1 1.94H17.82a2 2 0 01-2-1.94v-16.2a2 2 0 012-1.94h11.67a2 2 0 012 1.94v16.2zM7.43 2.57a.64.64 0 11-.64-.62.61.61 0 01.64.62z"/><path class="bea" d="M10.47 9.77V7.25a1.74 1.74 0 00-1.1-1.58V1.84A1.68 1.68 0 007.64.25H5.91a1.63 1.63 0 00-1.74 1.59v3.79a1.89 1.89 0 00-1.09 1.49v2.56a3.53 3.53 0 00-2.83 3.43v15.5a2.67 2.67 0 002.83 2.64h7.48a2.72 2.72 0 002.83-2.64V13.25a3.7 3.7 0 00-2.92-3.48zM4.99 1.93a.93.93 0 011-.88h1.73a1 1 0 011 .88v3.7H4.99zm-1 5.32a1 1 0 011-1h3.84a1 1 0 011 1v2.47H3.99zm8.58 21.4a2 2 0 01-2 1.94l-7.49 2.47a2 2 0 01-2-1.94V13.25a2.74 2.74 0 012.83-2.73h5.74a2.73 2.73 0 012.82 2.73v15.36z"/><path class="beb" d="M31.9 16.34c0 .88-3.46 1.59-7.75 1.59-4.74 0-8.58.7-8.58 1.58M.65 16.25c0 .88 2.65 1.59 5.84 1.59 3.56 0 6.39.7 6.39 1.58"/></symbol><symbol id="water-bottle" viewBox="0 0 496 496" xml:space="preserve" xmlns="http://www.w3.org/2000/svg"><style>.bfst0{fill:#e2693e}</style><path class="bfst0" d="M168 416c-57.3 0-104-46.7-104-104s46.7-104 104-104 104 46.7 104 104-46.7 104-104 104zm248 0H304c-8.8 0-16-7.2-16-16V272c0-8.8 7.2-16 16-16h112c8.8 0 16 7.2 16 16v128c0 8.8-7.2 16-16 16z"/><path d="M114.6 325.9l53.4 53.4 53.4-53.4c6.8-6.8 10.6-16 10.6-25.7 0-20-16.3-36.3-36.3-36.3-9.7 0-18.8 3.8-25.7 10.6l-2.1 2.1-2.1-2.1c-6.8-6.8-16-10.6-25.7-10.6-20 0-36.3 16.3-36.3 36.3.2 9.8 4 18.9 10.8 25.7zm25.7-45.9c5.4 0 10.5 2.1 14.3 5.9l13.4 13.4 13.4-13.4c3.8-3.8 8.9-5.9 14.3-5.9 11.2 0 20.3 9.1 20.3 20.3 0 5.4-2.1 10.5-5.9 14.3L168 356.7l-42.1-42.1c-3.8-3.8-5.9-8.9-5.9-14.3 0-11.2 9.1-20.3 20.3-20.3z"/><path d="M430.1 172.2l-22.1-9.4V144h8c13.2 0 24-10.8 24-24v-16c0-10.4-6.7-19.2-16-22.5V72c0-13.2-10.8-24-24-24h-80c-13.2 0-24 10.8-24 24v9.5c-9.3 3.3-16 12.1-16 22.5v16c0 13.2 10.8 24 24 24h8v18.7l-11.9 5.1c-4.7-12-13.4-22.2-24.9-28.6l-43.2-24V80h32V40c0-22.1-17.9-40-40-40H112C89.9 0 72 17.9 72 40v40h32v35.3l-43.2 24C43 149.2 32 167.9 32 188.2V440c0 30.9 25.1 56 56 56h160c9.2 0 18.1-2.3 26.1-6.6 6.3 4.1 13.8 6.6 21.9 6.6h128c22.1 0 40-17.9 40-40V223.6c0-22.4-13.3-42.6-33.9-51.4zM320 64h80c4.4 0 8 3.6 8 8v8h-96v-8c0-4.4 3.6-8 8-8zm-24 56v-16c0-4.4 3.6-8 8-8h112c4.4 0 8 3.6 8 8v16c0 4.4-3.6 8-8 8H304c-4.4 0-8-3.6-8-8zm32 53.3V144h64v29.3l31.8 13.6c14.7 6.3 24.2 20.7 24.2 36.8v.4H272v-.4c0-16 9.5-30.5 24.2-36.8l31.8-13.6zM265.9 192c-6.3 9.1-9.9 20.1-9.9 31.6V432H48V192h217.9zm6.1 48h176v192H272V240zM112 16h112c10.4 0 19.2 6.7 22.5 16h-157c3.3-9.3 12.1-16 22.5-16zM88 48h160v16H88V48zm128 32v32h-96V80h96zM68.6 153.3l45.5-25.3H222l45.5 25.3c8.5 4.7 14.8 12.3 18.1 21.2-1 .5-2 .9-2.9 1.5H50c3.1-9.5 9.6-17.7 18.6-22.7zM88 480c-19.3 0-35.5-13.8-39.2-32H256v8c0 7.8 2.3 15.1 6.3 21.3-4.5 1.7-9.3 2.7-14.3 2.7H88zm336 0H296c-13.2 0-24-10.8-24-24v-8h176v8c0 13.2-10.8 24-24 24z"/></symbol></svg>