<svg width="32" height="32" viewBox="0 0 32 32" fill="none" xmlns="http://www.w3.org/2000/svg">
<path fill-rule="evenodd" clip-rule="evenodd" d="M4.77579 31.9838V27.1862H6.3677V30.3846H30.2464V7.99595H23.8787V1.59919H6.3677V11.1943H4.77579V0H25.3553L31.8383 6.5111V31.9838H4.77579ZM25.4706 2.39878V6.39676H29.4505L25.4706 2.39878Z" fill="#CACACA"/>
<path d="M24.6746 12.7936H1.59191C0.712725 12.7936 0 13.5096 0 14.3928V23.9879C0 24.8711 0.712725 25.5871 1.59191 25.5871H24.6746C25.5538 25.5871 26.2666 24.8711 26.2666 23.9879V14.3928C26.2666 13.5096 25.5538 12.7936 24.6746 12.7936Z" fill="#E01300"/>
<path fill-rule="evenodd" clip-rule="evenodd" d="M21.4909 18.3907V19.9899H19.103V22.3887H17.5111V15.9919H21.4909V17.5911H19.103V18.3907H21.4909ZM13.5313 22.3887H11.1434V15.9919H13.5313C14.3757 15.9919 15.1855 16.3289 15.7826 16.9287C16.3797 17.5285 16.7151 18.342 16.7151 19.1903C16.7151 20.0386 16.3797 20.8521 15.7826 21.4519C15.1855 22.0517 14.3757 22.3887 13.5313 22.3887ZM13.5313 17.5911H12.7354V20.7895H13.5313C13.9535 20.7895 14.3584 20.621 14.657 20.3211C14.9555 20.0212 15.1232 19.6144 15.1232 19.1903C15.1232 18.7662 14.9555 18.3594 14.657 18.0595C14.3584 17.7596 13.9535 17.5911 13.5313 17.5911ZM8.3576 19.9899H6.3677V22.3887H4.77579V15.9919H8.3576C8.88536 15.9919 9.39144 16.2025 9.76464 16.5774C10.1378 16.9523 10.3475 17.4607 10.3475 17.9909C10.3475 18.5211 10.1378 19.0295 9.76464 19.4044C9.39144 19.7793 8.88536 19.9899 8.3576 19.9899ZM8.3576 17.5911H6.3677V18.3907H8.3576C8.46312 18.3907 8.5644 18.3486 8.63896 18.2736C8.7136 18.1986 8.7556 18.0969 8.7556 17.9909C8.7556 17.8849 8.7136 17.7832 8.63896 17.7082C8.5644 17.6332 8.46312 17.5911 8.3576 17.5911Z" fill="white"/>
</svg>
