<?xml version="1.0" encoding="utf-8"?><svg viewBox="0 0 26 25" xmlns="http://www.w3.org/2000/svg" xmlns:xlink="http://www.w3.org/1999/xlink"><style>:root>svg{display:none}:root>svg:target{display:block}</style><svg fill="none" viewBox="0 0 11 14" id="call" xmlns="http://www.w3.org/2000/svg"><g clip-path="url(#aclip0_19_1817)"><path fill-rule="evenodd" clip-rule="evenodd" d="M11.012 11.977c.013-.062.027-.123.014-.191-.02-.198-.41-.487-.566-.614-.441-.394-.892-.78-1.322-1.18-.198-.192-.422-.519-.695-.579-.539-.12-1.682 1.296-2.159 1.189-.239-.053-.498-.341-.683-.511-1.408-1.246-2.273-2.6-2.807-4.397-.076-.239-.228-.595-.175-.833.107-.474 1.881-.9 2.001-1.436.061-.273-.141-.613-.231-.873-.181-.557-.341-1.127-.511-1.691C3.829.666 3.731.192 3.559.09 3.503.049 3.442.036 3.38.022c-.318-.071-.968-.068-1.289-.001-.474.088-.867.517-1.177.863-.399.456-.685.946-.817 1.534-.183.818-.013 1.63.094 2.438.074.579.196 1.151.388 1.701.593 1.699 1.999 3.903 3.294 5.16.419.407.887.76 1.383 1.073.689.439 1.357.938 2.178 1.121.592.132 1.159.083 1.743-.083.447-.131 1.005-.302 1.287-.691.197-.26.477-.844.548-1.16z" fill="#232E43"/></g><defs><clipPath id="aclip0_19_1817"><path fill="#fff" d="M0 0h11v14H0z"/></clipPath></defs></svg><svg viewBox="0 0 18 18" id="ic1" xmlns="http://www.w3.org/2000/svg"><path d="M17.707.293a1 1 0 00-1.414 0L12 4.586V2a1 1 0 10-2 0v5a1 1 0 001 1h5a1 1 0 100-2h-2.586l4.293-4.293a1 1 0 000-1.414z"/><path clip-rule="evenodd" d="M9.458 10.194c.561-.289 1.21-.358 1.819-.197.492.14 2.106.462 2.408.507a2.603 2.603 0 011.863 1.12c.22.323.362.693.417 1.08.107.768-.035 1.776-.373 2.468-.192.393-.461.744-.792 1.03-.47.464-.995.868-1.564 1.204-.682.403-1.445.559-2.236.589a7.606 7.606 0 01-3.448-.684c-1.463-.67-2.848-1.775-3.974-2.905a14.64 14.64 0 01-1.005-1.117c-.69-.85-1.385-1.794-1.852-2.789A7.608 7.608 0 01.005 7c.027-.767.17-1.52.556-2.187.339-.585.75-1.125 1.226-1.61.286-.333.639-.605 1.036-.798.725-.354 1.792-.497 2.59-.344A2.608 2.608 0 017.21 3.373c.152.28.25.587.29.903l.095.476v.001c.152.767.265 1.337.424 1.97a2.492 2.492 0 01-.817 2.57c.203.3.432.583.685.844.25.244.52.466.806.664.21-.248.47-.455.765-.607zm-.134 2.9a.719.719 0 01-.544-.005 8.132 8.132 0 01-2.288-1.584A8.171 8.171 0 014.916 9.21a.72.72 0 01-.008-.54c.096-.246.329-.386.55-.52l.133-.08c.198-.127.402-.268.492-.443a.56.56 0 00.04-.41 40.32 40.32 0 01-.456-2.105v-.004l-.109-.546a.629.629 0 00-.26-.479.64.64 0 00-.256-.111c-.393-.075-1.007.01-1.355.18a1.277 1.277 0 00-.443.357 6.143 6.143 0 00-.876 1.096 2.434 2.434 0 00-.386 1.178A5.645 5.645 0 002.5 9.68c.42.892 1.069 1.75 1.696 2.505.323.388.668.756 1.034 1.104.868.821 1.901 1.639 2.98 2.175a5.624 5.624 0 003.125.554 2.287 2.287 0 001.044-.374 6.087 6.087 0 001.09-.873c.151-.121.273-.274.358-.448.173-.355.25-.966.196-1.351a.621.621 0 00-.308-.455.633.633 0 00-.27-.082c-.238-.035-2.452-.43-2.674-.559a.574.574 0 00-.41.045c-.177.092-.32.3-.45.5l-.083.136c-.13.216-.265.443-.504.537z"/></svg><svg viewBox="0 0 19 20" id="ic2" xmlns="http://www.w3.org/2000/svg"><path d="M10 8.46V9.5a1.5 1.5 0 001.5 1.5h1A1.5 1.5 0 0014 9.5V5.365a.365.365 0 00-.602-.277L10.349 7.7A1 1 0 0010 8.46zM5 9.5V8.46a1 1 0 01.35-.76l3.047-2.612A.365.365 0 019 5.365V9.5A1.5 1.5 0 017.5 11h-1A1.5 1.5 0 015 9.5z"/><path fill-rule="evenodd" clip-rule="evenodd" d="M0 4a4 4 0 014-4h11a4 4 0 014 4v8a4 4 0 01-4 4H5.386l-2.878 2.61C1.544 19.484 0 18.8 0 17.499V4zm4-2a2 2 0 00-2 2v12.37l2.043-1.852A2 2 0 015.386 14H15a2 2 0 002-2V4a2 2 0 00-2-2H4z"/></svg><svg viewBox="0 0 19 14" id="ic3" xmlns="http://www.w3.org/2000/svg"><path fill-rule="evenodd" clip-rule="evenodd" d="M3 0a3 3 0 00-3 3v8a3 3 0 003 3h13a3 3 0 003-3V3a3 3 0 00-3-3H3zM2 3.28v7.306l2.293-2.293a1 1 0 011.414 1.414L3.414 12h12.172l-2.293-2.293a1 1 0 011.414-1.414L17 10.586V3.28l-6.25 5a2 2 0 01-2.5 0l-6.25-5zM15.4 2H3.6l5.9 4.72L15.4 2z"/></svg><svg viewBox="0 0 18 18" id="ic5" xmlns="http://www.w3.org/2000/svg"><path d="M9 8a1.998 1.998 0 001.997-2c0-1.105-.894-2-1.997-2a1.998 1.998 0 00-1.997 2c0 1.105.894 2 1.997 2z" fill="currentColor"/><path fill-rule="evenodd" clip-rule="evenodd" d="M3.01 6c0-3.314 2.682-6 5.99-6a5.995 5.995 0 015.99 6c0 1.48-.536 2.837-1.424 3.883L9.78 14.625A.997.997 0 018.002 14v-2.083A5.999 5.999 0 013.01 6zM9 2a3.997 3.997 0 00-3.993 4c0 2.21 1.788 4 3.993 4a1 1 0 01.998 1v.15l2.019-2.528.02-.025c.597-.7.956-1.605.956-2.597 0-2.21-1.788-4-3.993-4z"/><path d="M3.678 11.257c.41.37.443 1.002.074 1.412L2.26 14.331C1.68 14.975 2.137 16 3 16h11.998c.864 0 1.32-1.025.742-1.669l-1.493-1.662a1.001 1.001 0 01.074-1.412.997.997 0 011.41.074l1.493 1.662C18.96 14.923 17.592 18 15 18H3.001C.408 18-.96 14.924.775 12.993l1.493-1.662a.997.997 0 011.41-.074z"/></svg><svg viewBox="0 0 13 16" id="marker" xmlns="http://www.w3.org/2000/svg"><defs><style>.facls-1{fill-rule:evenodd}</style></defs><path data-name="Ellipse 74 copy" class="facls-1" d="M11.9 9.916h.03L7 16H6L1.067 9.916h.03a6.262 6.262 0 01-1.1-3.541 6.5 6.5 0 0113 0A6.262 6.262 0 0111.9 9.916zM6.5 2a4.5 4.5 0 00-3.741 7h-.012l3.542 4.447h.422L10.289 9h-.049A4.5 4.5 0 006.5 2zm0 6A1.5 1.5 0 118 6.5 1.5 1.5 0 016.5 8z"/></svg><svg fill="none" viewBox="0 0 26 25" id="search" xmlns="http://www.w3.org/2000/svg"><g clip-path="url(#gclip0_18_313)"><path d="M17.744 14.835c2.991-4.238 1.99-10.106-2.234-13.106S5.436-.268 2.445 3.97C-.545 8.208.455 14.075 4.68 17.075a9.348 9.348 0 0010.182.423l6.91 6.89c.746.788 1.988.82 2.773.07a1.972 1.972 0 000-2.852l-6.8-6.771zm-7.655.642c-3.339.001-6.045-2.712-6.047-6.06-.001-3.35 2.703-6.064 6.042-6.065 3.334-.002 6.04 2.707 6.046 6.051.006 3.35-2.697 6.069-6.037 6.074h-.004z" fill="#DFDFDF"/></g><defs><clipPath id="gclip0_18_313"><path fill="#fff" transform="translate(.498)" d="M0 0h24.922v25H0z"/></clipPath></defs></svg></svg>