<svg width="32" height="32" viewBox="0 0 32 32" fill="none" xmlns="http://www.w3.org/2000/svg">
<path fill-rule="evenodd" clip-rule="evenodd" d="M4.68828 32V27.2H6.25092V30.4H29.6905V8H23.4399V1.6H6.25092V11.2H4.68828V0H24.8893L31.2531 6.5144V32H4.68828ZM25.0026 2.4V6.4H28.9092L25.0026 2.4Z" fill="#CACACA"/>
<path d="M24.2209 12.8H1.56264C0.699618 12.8 0 13.5164 0 14.4V24C0 24.8837 0.699618 25.6 1.56264 25.6H24.2209C25.0839 25.6 25.7835 24.8837 25.7835 24V14.4C25.7835 13.5164 25.0839 12.8 24.2209 12.8Z" fill="#3387DE"/>
<path fill-rule="evenodd" clip-rule="evenodd" d="M21.35 18.0096C21.0663 17.7466 20.6974 17.6006 20.3147 17.6C20.0609 17.5984 19.8104 17.6602 19.585 17.78C19.3598 17.8997 19.1663 18.0739 19.0214 18.2875C18.8766 18.501 18.7849 18.7475 18.754 19.0054C18.7231 19.2635 18.7541 19.5254 18.8443 19.7683C18.9345 20.0114 19.0811 20.2282 19.2716 20.4001C19.462 20.572 19.6905 20.6939 19.9373 20.7551C20.184 20.8163 20.4416 20.815 20.6878 20.7513C20.9339 20.6876 21.1612 20.5635 21.35 20.3896L22.2173 21.7225C21.7557 22.0913 21.2022 22.3199 20.6199 22.3822C20.0376 22.4447 19.4499 22.3383 18.9238 22.0754C18.3976 21.8124 17.9542 21.4035 17.644 20.895C17.3338 20.3866 17.1693 19.7991 17.1693 19.1996C17.1693 18.6002 17.3338 18.0128 17.644 17.5043C17.9542 16.9959 18.3976 16.5869 18.9238 16.3239C19.4499 16.061 20.0376 15.9546 20.6199 16.017C21.2022 16.0794 21.7557 16.3081 22.2173 16.6768L21.35 18.0096ZM13.2829 22.4C12.6647 22.4 12.0605 22.2124 11.5466 21.8607C11.0326 21.5091 10.632 21.0094 10.3955 20.4247C10.159 19.8399 10.097 19.1965 10.2176 18.5757C10.3382 17.955 10.6359 17.3848 11.073 16.9373C11.51 16.4898 12.0669 16.185 12.6731 16.0615C13.2794 15.9381 13.9078 16.0014 14.4789 16.2437C15.0499 16.4859 15.538 16.896 15.8814 17.4222C16.2249 17.9484 16.4082 18.5672 16.4082 19.2C16.4082 20.0487 16.0789 20.8627 15.4928 21.4628C14.9066 22.0629 14.1118 22.4 13.2829 22.4ZM13.2829 17.6C12.9738 17.6 12.6717 17.6939 12.4147 17.8697C12.1578 18.0455 11.9574 18.2954 11.8392 18.5878C11.7209 18.8801 11.69 19.2019 11.7502 19.5122C11.8106 19.8226 11.9594 20.1077 12.1779 20.3315C12.3965 20.5552 12.6749 20.7076 12.978 20.7693C13.2811 20.8311 13.5954 20.7994 13.8809 20.6783C14.1664 20.5572 14.4105 20.352 14.5822 20.089C14.7538 19.8259 14.8455 19.5165 14.8455 19.2C14.8455 18.7757 14.6809 18.3687 14.3878 18.0686C14.0948 17.7686 13.6973 17.6 13.2829 17.6ZM6.25099 22.4H3.90703V16H6.25099C7.07986 16 7.87479 16.3372 8.46088 16.9373C9.04704 17.5374 9.37624 18.3514 9.37624 19.2C9.37624 20.0487 9.04704 20.8627 8.46088 21.4628C7.87479 22.0629 7.07986 22.4 6.25099 22.4ZM6.25099 17.6H5.46967V20.8H6.25099C6.66542 20.8 7.06289 20.6315 7.35594 20.3315C7.64899 20.0314 7.81363 19.6244 7.81363 19.2C7.81363 18.7757 7.64899 18.3687 7.35594 18.0686C7.06289 17.7686 6.66542 17.6 6.25099 17.6Z" fill="white"/>
</svg>
