<?xml version="1.0" standalone="no"?>
<!DOCTYPE svg PUBLIC "-//W3C//DTD SVG 20010904//EN"
 "http://www.w3.org/TR/2001/REC-SVG-20010904/DTD/svg10.dtd">
<svg version="1.0" xmlns="http://www.w3.org/2000/svg"
 width="141.000000pt" height="141.000000pt" viewBox="0 0 141.000000 141.000000"
 preserveAspectRatio="xMidYMid meet">
<metadata>
Created by potrace 1.11, written by Peter Selinger 2001-2013
</metadata>
<g transform="translate(0.000000,141.000000) scale(0.100000,-0.100000)"
fill="#000000" stroke="none">
<path d="M910 1368 l0 -42 -29 32 c-33 36 -58 34 -67 -4 -4 -14 -15 -29 -25
-34 -14 -8 -23 -4 -44 17 -20 23 -28 26 -43 17 -9 -6 -18 -23 -20 -38 -4 -35
-38 -53 -61 -32 -35 32 -74 12 -65 -34 8 -35 -19 -59 -47 -42 -27 17 -47 15
-59 -8 -8 -14 -8 -26 0 -40 14 -27 -21 -65 -48 -51 -22 12 -52 -4 -52 -27 0
-9 7 -25 15 -36 22 -29 2 -56 -39 -56 -43 0 -56 -33 -25 -66 25 -27 16 -54
-20 -54 -15 0 -31 -8 -39 -20 -11 -18 -9 -24 17 -48 23 -20 29 -33 25 -50 -4
-12 -14 -22 -24 -22 -23 0 -44 -26 -36 -45 3 -8 17 -20 31 -25 39 -15 43 -40
11 -65 -30 -24 -32 -53 -3 -66 9 -5 25 -13 34 -17 25 -13 27 -29 4 -49 -39
-32 -22 -68 34 -75 24 -2 31 -8 33 -30 2 -16 -1 -28 -7 -28 -6 0 -11 -11 -11
-25 0 -28 29 -48 51 -34 19 12 25 11 43 -7 12 -12 13 -20 5 -35 -22 -42 12
-77 56 -57 33 15 56 -4 49 -41 -4 -18 0 -32 10 -40 16 -13 56 -6 56 10 0 5 8
9 19 9 21 0 45 -25 37 -38 -6 -10 21 -52 34 -52 5 0 20 12 33 26 21 22 28 24
46 15 11 -7 21 -18 21 -25 0 -39 63 -44 73 -6 7 29 27 25 27 -5 0 -24 2 -25
65 -25 l65 0 0 705 0 705 -65 0 -65 0 0 -42z"/>
</g>
</svg>
