<svg width="52" height="17" viewBox="0 0 52 17" fill="none" xmlns="http://www.w3.org/2000/svg">
<g clip-path="url(#clip0_363_957)">
<path d="M25.7389 0.310786L22.2682 16.7514H18.0603L21.5617 0.310786H25.7389ZM43.4306 10.9086L45.6421 4.72395L46.9014 10.9086H43.4306ZM48.13 16.7514H52.0307L48.6214 0.310786H45.0278C44.2292 0.310786 43.5535 0.776965 43.2463 1.52285L36.9498 16.7514H41.3727L42.2327 14.2962H47.6078L48.13 16.7514ZM37.1648 11.3748C37.1955 7.02377 31.2369 6.80622 31.2676 4.84826C31.2676 4.25777 31.8204 3.6362 33.049 3.48081C33.6633 3.38757 35.3219 3.32541 37.1955 4.22669L37.9327 0.745887C36.9191 0.341865 35.6291 0 34.0012 0C29.8547 0 26.9368 2.23766 26.9061 5.43876C26.8754 7.80073 28.9947 9.13711 30.5919 9.91408C32.2197 10.7221 32.7726 11.2505 32.7726 11.9653C32.7726 13.0841 31.4519 13.5503 30.254 13.5814C28.1347 13.6124 26.9061 12.9909 25.9232 12.5558L25.1554 16.1609C26.1382 16.6271 27.9504 17 29.824 17.0311C34.2469 17 37.1341 14.7934 37.1648 11.3748ZM19.7496 0.310786L12.9309 16.7514H8.50798L5.12936 3.60512C4.91435 2.79708 4.76078 2.51737 4.14649 2.1755C3.1329 1.61609 1.47431 1.08775 0 0.776965L0.0921442 0.310786H7.24867C8.17011 0.310786 8.9687 0.932359 9.1837 1.98903L10.9652 11.4991L15.3266 0.310786H19.7496Z" fill="#2A2A6C"/>
</g>
<defs>
<clipPath id="clip0_363_957">
<rect width="52" height="17" fill="white"/>
</clipPath>
</defs>
</svg>
