<svg xmlns="http://www.w3.org/2000/svg" viewBox="0 0 249.45 147.03"><defs><style>.a,.b{fill-rule:evenodd;}.b{fill:#fff;}</style></defs><path class="a" d="M134.92,38.9a56.15,56.15,0,1,1-6,0L125.82,41a54.33,54.33,0,1,0,11.45,0l-2.35-2.07Z" transform="translate(-7 -5)"/><path class="a" d="M131.72,42.57A52.46,52.46,0,1,1,79.27,95a52.45,52.45,0,0,1,52.45-52.46Z" transform="translate(-7 -5)"/><path class="b" d="M128.53,55.73c-2.09-.5-4.63-.49-8,1.78-6.06,4.07-7,1.57-10.87-.26s-8.46.78-5.58,6.06c1.77,3.26,4.56,6.52,6.42,10.12,3.9,2,7.92,5,7.92,8.42v5.42c1.66-.2,3.33-.34,5-.44,2.76-.18,5.54-.26,8.3-.26s5.55.08,8.31.26c1.66.1,3.34.24,5,.44V81.85c0-3.46,4-6.41,7.92-8.42,1.86-3.6,4.65-6.86,6.42-10.12,2.88-5.28-1.72-7.89-5.59-6.06s-4.8,4.33-10.86.26c-3.37-2.27-5.91-2.28-8-1.78-4.5,1.07-1.89,1.07-6.39,0Z" transform="translate(-7 -5)"/><path class="b" d="M117.58,87.38V81.85c0-4.24-7.5-8.07-12.52-9.87-15.7-5.61-17.35,15.13-4.25,13.26a7,7,0,0,0-.23-3.53A4,4,0,0,1,94,78.65a4.24,4.24,0,0,1,1.2-3.06,6,6,0,0,1,5.71-1.26A6.14,6.14,0,0,1,104,76.22c2.25,2.65,2.47,7.17,2.16,10.48A32.2,32.2,0,0,1,105,92.61c-.52,1.75-1.1,3.46-1.51,5.24-.45,1.93-.89,4.69.15,6.5a4,4,0,0,0,2.15,1.74c.92.07,1.85.08,2.77.08,1.2,0,2.4-.06,3.59-.12.84,0,1.69-.11,2.53-.13a29.56,29.56,0,0,1,6,.56,16.52,16.52,0,0,0,6.64.17c.87-.19,1.72-.44,2.58-.65a7.29,7.29,0,0,1,3.71,0c.86.21,1.71.46,2.58.65a16.46,16.46,0,0,0,6.63-.17,29.72,29.72,0,0,1,6-.56c.84,0,1.69.08,2.52.13,1.2.06,2.4.11,3.6.12.92,0,1.85,0,2.77-.08a4,4,0,0,0,2.15-1.74c1.71-3-.46-8.67-1.36-11.74a31.39,31.39,0,0,1-1.17-5.91c-.31-3.31-.09-7.83,2.16-10.48a4.94,4.94,0,0,1,.56-.56,6.24,6.24,0,0,1,2.55-1.33c3.15-.82,6.91.62,6.91,4.32a4,4,0,0,1-6.63,3.06,7,7,0,0,0-.23,3.53c13.1,1.87,11.45-18.87-4.25-13.26-5,1.8-12.52,5.63-12.52,9.87v5.53q.72.09,1.44.21a24.33,24.33,0,0,1,5.27,1.3c1.07.44,2.46,1.2,2.46,2.53v9.09c0,1.22-1.6,1.74-2.55,2a34.09,34.09,0,0,1-5.22.89c-2.41.26-4.84.41-7.26.51q-4.14.18-8.29.18t-8.28-.17c-2.42-.11-4.85-.26-7.26-.52a34.07,34.07,0,0,1-5.22-.88c-1-.27-2.55-.79-2.55-2V91.42c0-1.33,1.39-2.09,2.46-2.53a24.33,24.33,0,0,1,5.27-1.3q.72-.12,1.44-.21Z" transform="translate(-7 -5)"/><path class="b" d="M103.33,76.76c1.85,2.19,2.31,6.09,2,9.86a30.76,30.76,0,0,1-1.15,5.76c-1.42,4.86-5.11,14,3.39,15,2.14.24-1.83,2.23-1.83,2.23l-6.27,1.66c1-2.71-1.12-3.91-1.82-4.76-2.31-2.77-.58-8,.62-11.07,2-5.16,5.18-11.64,2.48-15.13a3.19,3.19,0,0,1-5.93-1.62c0-4.25,6.07-4.8,8.54-1.89Zm56.79,0c-1.86,2.19-2.32,6.09-2,9.86a30.76,30.76,0,0,0,1.15,5.76c1.42,4.86,5.11,14-3.39,15-2.14.24,1.82,2.23,1.82,2.23l6.28,1.66c-1-2.71,1.12-3.91,1.82-4.76,2.31-2.77.58-8-.62-11.07-2-5.16-5.19-11.64-2.48-15.13a3.19,3.19,0,0,0,5.93-1.62c0-4.25-6.07-4.8-8.54-1.89Z" transform="translate(-7 -5)"/><path class="b" d="M152.31,109.09c-1.56-1.12-5.08-.57-6.57.63a20.68,20.68,0,0,0-1.92,1.94,3.79,3.79,0,0,0-.08-2.49l-3.49.55c.63.33,1.81,1.37,1.21,2.41-.79,1.38-5,1.35-4.4-.7a.85.85,0,0,0,.35.08.84.84,0,0,0,.84-.85,1.07,1.07,0,0,0-1.74-.77,1.91,1.91,0,0,0-.33,2.69,2.48,2.48,0,0,0,.48.59,2.74,2.74,0,0,1-.94-.26c-1.38-.74-1.88-2.52-.39-3.17,0,0,.83-.81-.69-.48l.23-.15-1.27-.4a2.25,2.25,0,0,0-.74.38l-.59-.34-.55.27-.54-.27-.59.34a2.35,2.35,0,0,0-.74-.38l-1.27.4.23.15c-1.52-.33-.69.48-.69.48,1.49.65,1,2.43-.39,3.17a2.74,2.74,0,0,1-.94.26,2.48,2.48,0,0,0,.48-.59,1.91,1.91,0,0,0-.33-2.69,1.08,1.08,0,0,0-1.75.77.84.84,0,0,0,1.2.77c.54,2-3.61,2.08-4.4.7-.6-1,.58-2.08,1.21-2.41l-3.49-.55a3.79,3.79,0,0,0-.08,2.49,22,22,0,0,0-1.92-1.94c-1.49-1.2-5-1.75-6.57-.63-2.47,1.78,0,3.77,1.41,2.64-.79-.2-.6-.83,0-1.17a4.66,4.66,0,0,1,3-.13c1.85.52,3,1.88,4.84,2.6l.37.13a6.35,6.35,0,0,0,4.07.85l.09,0c1.79,1,4.41.34,5-1.73a3.1,3.1,0,0,0,.05-1.65c.57,1.22.13,2.66-1.37,3.75a3.77,3.77,0,0,0,2.64-2.9,2.81,2.81,0,0,1,0,.29c-.11.92-.68,1.33-.8,2.1s.41,1.26,1.26,1.43c.86-.17,1.39-.66,1.27-1.43s-.69-1.18-.8-2.1c0-.1,0-.19,0-.29a3.8,3.8,0,0,0,2.65,2.9c-1.5-1.09-1.94-2.53-1.37-3.75a3.2,3.2,0,0,0,0,1.65c.63,2.07,3.25,2.68,5,1.73l.09,0a6.35,6.35,0,0,0,4.07-.85l.36-.13c1.82-.72,3-2.08,4.85-2.6a4.66,4.66,0,0,1,3,.13c.55.34.74,1,0,1.17,1.44,1.13,3.88-.86,1.41-2.64Z" transform="translate(-7 -5)"/><path class="b" d="M160.27,106.49c-2.84,1-9.61.31-11.48.26a27.37,27.37,0,0,0-5.85.56c-5.23.94-6.54.24-9.56-.49a6.2,6.2,0,0,0-3.31,0c-3,.73-4.33,1.43-9.56.49a27.37,27.37,0,0,0-5.85-.56c-1.87,0-8.64.69-11.49-.26l2.37,2.29s2.7,0,3.52.12,2.45.37,2.66.37a36,36,0,0,1,7.6.82c3.19.82,4.13,1.18,7.48.24,4.23-1.18,5.62-1.18,9.85,0,3.35.94,4.29.58,7.48-.24a36,36,0,0,1,7.6-.82c.21,0,1.84-.24,2.66-.37s3.51-.12,3.51-.12l2.37-2.29Z" transform="translate(-7 -5)"/><path class="b" d="M111.8,109.77s-3.84-1.21-6.35,1.24-.47,8.7.11,11.5-1.4,3.15-1.51,4.9-.12,3-.12,3h-2.39v-2.13c0-.55-1.71-1.49-1.77-1.74s-.19-.83,0-1,2.13-1.94,2.27-2.75.31-2.24-1.47-5.45-2.27-4.1-1.22-6.71-.94-5-.94-5l6.82,2.55,6.31.33.31,1.23Zm39.85,0s3.84-1.21,6.35,1.24.47,8.7-.11,11.5,1.4,3.15,1.51,4.9.12,3,.12,3h2.39v-2.13c0-.55,1.71-1.49,1.76-1.74s.2-.83.06-1-2.13-1.94-2.27-2.75-.31-2.24,1.47-5.45,2.27-4.1,1.22-6.71.94-5,.94-5l-6.82,2.55-6.31.33-.31,1.23Z" transform="translate(-7 -5)"/><path class="b" d="M154.2,91.42v9.09c0,3.65-44.95,3.66-44.95,0V91.42c0-5.34,44.95-5.34,44.95,0Zm-43.82.22c6.28,2.42,36.41,2.42,42.69,0-3.67,3.49-39,3.49-42.69,0Z" transform="translate(-7 -5)"/><path class="a" d="M30.58,138.36a16.57,16.57,0,0,1-2.94,2.92,16.76,16.76,0,0,1-2.05,1.34H31.5l-.15-.39a13.64,13.64,0,0,1-.77-3.87Zm202.29,0a16.57,16.57,0,0,0,2.94,2.92,17.45,17.45,0,0,0,2,1.34H232c.05-.13.1-.26.14-.39a13.32,13.32,0,0,0,.78-3.87Zm-35-21.7a8.29,8.29,0,0,0,5.59-5.32,6.26,6.26,0,0,0,0-4.5,5.4,5.4,0,0,0-1.25-1.85,5.14,5.14,0,0,0-1.87-1.17c-1.81-.64-5.61-.26-5.21,2.39a2.09,2.09,0,0,0,2.37,1.75,2.56,2.56,0,0,0,1.75-2.37c-.09-.6,0-.11,0-.17a3.36,3.36,0,0,1,1.71.89,3.61,3.61,0,0,1,.83,1.23,4.42,4.42,0,0,1,0,3.19,6.47,6.47,0,0,1-4.36,4.16,7.24,7.24,0,0,1-3.4.15c-11.18-2.16-7.48-19.45,4.9-19a11.59,11.59,0,0,1,3,.52,12.84,12.84,0,0,1,7.58,6.6,14.8,14.8,0,0,1,.83,10.54c-1.27,4.65-4.4,9.71-7.29,14.37-1,1.66-2,3.27-2.91,4.8a12.28,12.28,0,0,0-.11-1.48,10.92,10.92,0,0,0-3.83-6.85,9.9,9.9,0,0,0-7.24-2.31,8.59,8.59,0,0,0-7,5.18,7.08,7.08,0,0,0-.56,3.39,6.51,6.51,0,0,0,1.82,3.93,6.81,6.81,0,0,0,5.55,2.3,5.93,5.93,0,0,0,2.56-.85,5.13,5.13,0,0,0,1.77-1.82c1-1.84.38-5.86-2.37-5.12a2.12,2.12,0,0,0-1.48,2.55,2,2,0,0,0,2.32,1.52.8.8,0,0,1-.08.16,3.19,3.19,0,0,1-1.13,1.15,4.08,4.08,0,0,1-1.75.58,5,5,0,0,1-4.05-1.74,4.68,4.68,0,0,1-1.33-2.82,5.25,5.25,0,0,1,.42-2.52,6.79,6.79,0,0,1,5.46-4.06,8,8,0,0,1,5.9,1.89,9.08,9.08,0,0,1,3.17,5.69,14,14,0,0,1-1.47,7.82,21.29,21.29,0,0,1-5.79,7.33c-4.17,3.27-13.39,3.47-15.75-2.16a5.25,5.25,0,0,1-.42-2.52,4.66,4.66,0,0,1,1.32-2.82,5,5,0,0,1,4-1.74,4.12,4.12,0,0,1,1.76.58,3.27,3.27,0,0,1,1.13,1.15s0,.1.08.16a2,2,0,0,0-2.32,1.52,2.11,2.11,0,0,0,1.47,2.55c2.76.74,3.41-3.28,2.37-5.12a5,5,0,0,0-1.77-1.82,5.84,5.84,0,0,0-2.56-.85,6.76,6.76,0,0,0-5.54,2.3,6.4,6.4,0,0,0-1.82,3.93,7.08,7.08,0,0,0,.55,3.39,8.26,8.26,0,0,0,3.05,3.68H146.26l-10,2h45.7c3.56,0,7-.36,10.07-2.74a21.86,21.86,0,0,0,3.6-3.65l.08.07a85.64,85.64,0,0,0,5-7c1.43-2.15,2.84-4.28,4.23-6a17.44,17.44,0,0,1,8.23-5.8,14.4,14.4,0,0,1,9.35,0,13,13,0,0,1,6.42,4.9,12.34,12.34,0,0,1,2.05,5.27,11.92,11.92,0,0,1-.57,5.63,13,13,0,0,1-5.08,6.36,12.23,12.23,0,0,1-7.62,2.19,9.75,9.75,0,0,1-6.51-3.1,11.16,11.16,0,0,1-.77-.93,10,10,0,0,1-2-6,7.59,7.59,0,0,1,2.35-5.49,8.32,8.32,0,0,1,.71-.6l.29-.2a7.65,7.65,0,0,1,5.11-1.18,6.26,6.26,0,0,1,4.28,2.37h0l.15.23a4.87,4.87,0,0,1,.63,4.48,4.47,4.47,0,0,1-1.1,1.68,3.89,3.89,0,0,1-1.58.91l-.3.06c.06-.21.1,0,.1-.65a2.46,2.46,0,0,0-2.08-2.08,2.09,2.09,0,0,0-2.09,2.08c0,2.25,3.08,2.83,4.83,2.37a5.56,5.56,0,0,0,2.39-1.36,6.45,6.45,0,0,0,1.56-2.37,6.71,6.71,0,0,0-.82-6.14l-.21-.3h0a8.07,8.07,0,0,0-5.53-3.1,9.48,9.48,0,0,0-6.35,1.46l-.37.26a9.29,9.29,0,0,0-.88.74,9.41,9.41,0,0,0-2.93,6.8,11.81,11.81,0,0,0,2.33,7.13,13.47,13.47,0,0,0,.91,1.09,11.55,11.55,0,0,0,7.73,3.68,14.05,14.05,0,0,0,8.78-2.51,15.32,15.32,0,0,0,4.74-5h19.53c2.85,0,4.61-1.25,5.39-2.79a4.28,4.28,0,0,0,.46-2.22,4,4,0,0,0-.75-2.09c-1.73-2.36-6.68-2.85-6.68.49a2.09,2.09,0,0,0,2.09,2.08c1.15,0,2.08-1.48,2.08-2.08v-.14a2.06,2.06,0,0,1,1,.73,2.17,2.17,0,0,1,.4,1.13,2.51,2.51,0,0,1-.26,1.27c-.5,1-1.71,1.78-3.75,1.78h-7.18a14.23,14.23,0,0,1-6.48-2.8,15,15,0,0,1-4.49-5.69h0a14.27,14.27,0,0,0-2-4.46,14.76,14.76,0,0,0-7.32-5.59,16.23,16.23,0,0,0-10.55,0,19.31,19.31,0,0,0-8.34,5.51l.32-.53c3-4.77,6.18-10,7.51-14.85a16.66,16.66,0,0,0-1-11.84,14.68,14.68,0,0,0-8.68-7.53,13,13,0,0,0-3.43-.6,13.42,13.42,0,0,0-10.6,4.46c-7.17,8.1-.69,20.92,9.54,17.94Zm-132.33,0A8.29,8.29,0,0,1,60,111.34a6.26,6.26,0,0,1,0-4.5A5.7,5.7,0,0,1,61.25,105a5.27,5.27,0,0,1,1.88-1.17c1.81-.64,5.61-.26,5.21,2.39A2.09,2.09,0,0,1,66,108a2.56,2.56,0,0,1-1.75-2.37c.09-.6,0-.11,0-.17a3.36,3.36,0,0,0-1.71.89,3.61,3.61,0,0,0-.83,1.23,4.42,4.42,0,0,0,0,3.19,6.47,6.47,0,0,0,4.36,4.16,7.24,7.24,0,0,0,3.4.15c11.18-2.16,7.48-19.45-4.9-19a11.52,11.52,0,0,0-2.95.52,12.84,12.84,0,0,0-7.58,6.6,14.75,14.75,0,0,0-.83,10.54c1.27,4.65,4.4,9.71,7.29,14.37,1,1.66,2,3.27,2.91,4.8a10.53,10.53,0,0,1,.11-1.48,10.92,10.92,0,0,1,3.83-6.85,9.9,9.9,0,0,1,7.24-2.31,8.59,8.59,0,0,1,7,5.18,7.08,7.08,0,0,1,.56,3.39,6.51,6.51,0,0,1-1.82,3.93,6.81,6.81,0,0,1-5.55,2.3,5.93,5.93,0,0,1-2.56-.85,5.05,5.05,0,0,1-1.77-1.82c-1-1.84-.38-5.86,2.37-5.12a2.12,2.12,0,0,1,1.48,2.55A2,2,0,0,1,72,133.36a.8.8,0,0,0,.08.16,3.19,3.19,0,0,0,1.13,1.15,4,4,0,0,0,1.75.58,5,5,0,0,0,4-1.74,4.68,4.68,0,0,0,1.33-2.82,5.37,5.37,0,0,0-.42-2.52,6.79,6.79,0,0,0-5.46-4.06,8,8,0,0,0-5.9,1.89,9.08,9.08,0,0,0-3.17,5.69,13.91,13.91,0,0,0,1.47,7.82,21.18,21.18,0,0,0,5.79,7.33c4.17,3.27,13.38,3.47,15.75-2.16a5.25,5.25,0,0,0,.42-2.52,4.66,4.66,0,0,0-1.32-2.82,5,5,0,0,0-4.06-1.74,4.12,4.12,0,0,0-1.75.58,3.19,3.19,0,0,0-1.13,1.15s0,.1-.08.16A2,2,0,0,1,82.76,141a2.11,2.11,0,0,1-1.47,2.55c-2.76.74-3.41-3.28-2.38-5.12a5.08,5.08,0,0,1,1.78-1.82,5.84,5.84,0,0,1,2.56-.85,6.77,6.77,0,0,1,5.54,2.3A6.46,6.46,0,0,1,90.61,142a7.08,7.08,0,0,1-.55,3.39,8.39,8.39,0,0,1-3,3.68h30.18l10,2H81.54c-3.57,0-7-.36-10.07-2.74a21.86,21.86,0,0,1-3.6-3.65l-.08.07a85.64,85.64,0,0,1-5-7c-1.43-2.15-2.84-4.28-4.23-6a17.44,17.44,0,0,0-8.23-5.8,14.4,14.4,0,0,0-9.35,0,13,13,0,0,0-6.42,4.9,12.34,12.34,0,0,0-2,5.27,11.79,11.79,0,0,0,.57,5.63A13,13,0,0,0,38.17,148a12.22,12.22,0,0,0,7.61,2.19,9.77,9.77,0,0,0,6.52-3.1,11.16,11.16,0,0,0,.77-.93,10,10,0,0,0,2-6,7.59,7.59,0,0,0-2.35-5.49A8.32,8.32,0,0,0,52,134l-.29-.2a7.66,7.66,0,0,0-5.11-1.18A6.26,6.26,0,0,0,42.3,135h0l-.16.23a4.92,4.92,0,0,0-.63,4.48,4.61,4.61,0,0,0,1.11,1.68,3.83,3.83,0,0,0,1.58.91l.3.06c-.07-.21-.1,0-.1-.65a2.46,2.46,0,0,1,2.08-2.08,2.09,2.09,0,0,1,2.09,2.08c0,2.25-3.08,2.83-4.83,2.37a5.56,5.56,0,0,1-2.39-1.36,6.45,6.45,0,0,1-1.56-2.37,6.71,6.71,0,0,1,.82-6.14l.21-.3h0a8.07,8.07,0,0,1,5.53-3.1,9.48,9.48,0,0,1,6.35,1.46l.37.26a9.4,9.4,0,0,1,3.8,7.54,11.8,11.8,0,0,1-2.32,7.13c-.29.38-.59.74-.91,1.09A11.55,11.55,0,0,1,45.91,152a14.05,14.05,0,0,1-8.78-2.51,15.46,15.46,0,0,1-4.75-5H12.85c-2.84,0-4.6-1.25-5.38-2.79A4.28,4.28,0,0,1,7,139.45a4,4,0,0,1,.75-2.09c1.72-2.36,6.67-2.85,6.67.49a2.08,2.08,0,0,1-2.08,2.08c-1.15,0-2.08-1.48-2.08-2.08v-.14a2.09,2.09,0,0,0-1,.73,2.16,2.16,0,0,0-.39,1.13,2.51,2.51,0,0,0,.26,1.27c.5,1,1.71,1.78,3.74,1.78H20a14.14,14.14,0,0,0,6.48-2.8,14.9,14.9,0,0,0,4.5-5.69h0a14.27,14.27,0,0,1,2-4.46,14.76,14.76,0,0,1,7.32-5.59,16.23,16.23,0,0,1,10.55,0,19.31,19.31,0,0,1,8.34,5.51l-.33-.53c-3-4.77-6.17-10-7.5-14.85a16.61,16.61,0,0,1,1-11.84,14.68,14.68,0,0,1,8.68-7.53,13,13,0,0,1,3.42-.6A13.43,13.43,0,0,1,75.1,98.72c7.17,8.1.69,20.92-9.54,17.94Z" transform="translate(-7 -5)"/><path class="a" d="M131.72,5a18,18,0,0,0-2.11,2.07,11.34,11.34,0,0,0-3,7.36,12.29,12.29,0,0,0,2.56,7.27,17.6,17.6,0,0,0,1.26,1.53l-.53.46a85,85,0,0,1-8.12,5.83,22.26,22.26,0,0,0-2.16-1c-3.17-1.22-5.36-.88-6.61,0a3.14,3.14,0,0,0-1.32,2.18,3,3,0,0,0,.68,2.34,4,4,0,0,0,4.11,1.11,21.62,21.62,0,0,0,5.38-2.62,77.84,77.84,0,0,1,8.31,5.53l-3.7,2.7-1.8,1.32c1.16-.15,2.33-.26,3.51-.34l3.51-2.56h0c.52.37,1.86,1.36,3.49,2.56,1.17.07,2.34.18,3.49.33l-5.46-4a77.84,77.84,0,0,1,8.31-5.53,21.45,21.45,0,0,0,5.38,2.62,4,4,0,0,0,4.11-1.11,3,3,0,0,0,.68-2.34,3.14,3.14,0,0,0-1.32-2.18c-1.25-.91-3.44-1.25-6.61,0a22.26,22.26,0,0,0-2.16,1,85,85,0,0,1-8.12-5.83l-.53-.46a17.45,17.45,0,0,0,1.25-1.53,12.24,12.24,0,0,0,2.57-7.27,11.34,11.34,0,0,0-3-7.36A17.41,17.41,0,0,0,131.72,5Zm0,31a93.11,93.11,0,0,0-8.11-5.5,88.23,88.23,0,0,0,7.49-5.44l.62-.56.63.56a88.23,88.23,0,0,0,7.49,5.44,92.55,92.55,0,0,0-8.12,5.5Zm0-14a16.27,16.27,0,0,1-1.07-1.32,10.49,10.49,0,0,1-2.22-6.2A9.58,9.58,0,0,1,131,8.24c.24-.27.49-.55.75-.81.27.26.52.54.76.81a9.51,9.51,0,0,1,2.53,6.2,10.41,10.41,0,0,1-2.21,6.2A16.41,16.41,0,0,1,131.72,22Zm15.59,10.49a16,16,0,0,1-3.85-1.81c.33-.15.66-.29,1-.41,2.5-1,4.09-.8,4.92-.19A1.38,1.38,0,0,1,150,31a1.24,1.24,0,0,1-.28,1,2.32,2.32,0,0,1-2.36.5Zm-31.17,0A16,16,0,0,0,120,30.64c-.33-.15-.66-.29-1-.41-2.5-1-4.09-.8-4.92-.19a1.39,1.39,0,0,0-.6.94,1.29,1.29,0,0,0,.29,1,2.32,2.32,0,0,0,2.36.5Z" transform="translate(-7 -5)"/></svg>