<?xml version="1.0" encoding="utf-8"?><!DOCTYPE svg PUBLIC "-//W3C//DTD SVG 1.1//EN" "http://www.w3.org/Graphics/SVG/1.1/DTD/svg11.dtd"><svg viewBox="0 0 512 512" xmlns="http://www.w3.org/2000/svg" xmlns:xlink="http://www.w3.org/1999/xlink"><style>:root>svg{display:none}:root>svg:target{display:block}</style><svg viewBox="0 0 512 512" id="calculator" xmlns="http://www.w3.org/2000/svg"><path d="M58 190.5h252c5.522 0 10-4.477 10-10v-113c0-5.523-4.478-10-10-10h-81c-5.522 0-10 4.477-10 10s4.478 10 10 10h71v93H68v-93h71c5.522 0 10-4.477 10-10s-4.478-10-10-10H58c-5.522 0-10 4.477-10 10v113c0 5.523 4.478 10 10 10zM409.086 231.167h18v18c0 5.523 4.478 10 10 10s10-4.477 10-10v-18h18c5.522 0 10-4.477 10-10s-4.478-10-10-10h-18v-18c0-5.523-4.478-10-10-10s-10 4.477-10 10v18h-18c-5.522 0-10 4.477-10 10s4.477 10 10 10zM212 214.5h-56c-5.522 0-10 4.477-10 10v44c0 5.523 4.478 10 10 10h56c5.522 0 10-4.477 10-10v-44c0-5.523-4.478-10-10-10zm-10 44h-36v-24h36zM114 214.5H58c-5.522 0-10 4.477-10 10v44c0 5.523 4.478 10 10 10h56c5.522 0 10-4.477 10-10v-44c0-5.523-4.478-10-10-10zm-10 44H68v-24h36zM310 214.5h-56c-5.522 0-10 4.477-10 10v44c0 5.523 4.478 10 10 10h56c5.522 0 10-4.477 10-10v-44c0-5.523-4.478-10-10-10zm-10 44h-36v-24h36zM212 302.5h-56c-5.522 0-10 4.477-10 10v44c0 5.523 4.478 10 10 10h56c5.522 0 10-4.477 10-10v-44c0-5.523-4.478-10-10-10zm-10 44h-36v-24h36zM114 302.5H58c-5.522 0-10 4.477-10 10v44c0 5.523 4.478 10 10 10h56c5.522 0 10-4.477 10-10v-44c0-5.523-4.478-10-10-10zm-10 44H68v-24h36zM212 390.5h-56c-5.522 0-10 4.477-10 10v44c0 5.523 4.478 10 10 10h56c5.522 0 10-4.477 10-10v-44c0-5.523-4.478-10-10-10zm-10 44h-36v-24h36zM114 390.5H58c-5.522 0-10 4.477-10 10v44c0 5.523 4.478 10 10 10h56c5.522 0 10-4.477 10-10v-44c0-5.523-4.478-10-10-10zm-10 44H68v-24h36z"/><path d="M184 77.5c2.63 0 5.21-1.07 7.069-2.93 1.86-1.86 2.931-4.44 2.931-7.07s-1.07-5.21-2.931-7.07A10.072 10.072 0 00184 57.5c-2.641 0-5.21 1.07-7.07 2.93S174 64.87 174 67.5s1.069 5.21 2.93 7.07 4.44 2.93 7.07 2.93z"/><path d="M502 312.5H368v-251c0-27.57-22.43-50-50-50H50c-27.57 0-50 22.43-50 50v389c0 27.57 22.43 50 50 50h452c5.522 0 10-4.477 10-10v-168c0-5.523-4.478-10-10-10zm-202 34h-36v-24h36zm0 88h-36v-24h36zm20-46h172v36H320zm172-20H320v-36h172zm-472 82v-389c0-16.542 13.458-30 30-30h268c16.542 0 30 13.458 30 30v251h-28c0-5.523-4.478-10-10-10h-56c-5.522 0-10 4.477-10 10v44c0 5.523 4.478 10 10 10h46v24h-46c-5.522 0-10 4.477-10 10v44c0 5.523 4.478 10 10 10h46v26H50c-16.542 0-30-13.458-30-30zm472 30H320v-36h172z"/></svg><svg class="bb24-crm-button-icon" viewBox="0 0 28 30" id="call2" xmlns="http://www.w3.org/2000/svg"><path class="bb24-crm-button-call-icon" fill-rule="evenodd" d="M21.872 19.905c-.947-.968-2.13-.968-3.072 0-.718.737-1.256.974-1.962 1.723-.193.206-.356.25-.591.112-.465-.262-.96-.474-1.407-.761-2.082-1.355-3.827-3.097-5.372-5.057-.767-.974-1.449-2.017-1.926-3.19-.096-.238-.078-.394.109-.587.718-.718.96-.98 1.666-1.717.984-1.024.984-2.223-.006-3.253-.561-.586-1.104-1.397-1.562-2.034-.457-.637-.816-1.393-1.402-1.986C5.4 2.2 4.217 2.2 3.275 3.16c-.725.737-1.419 1.492-2.155 2.216C.438 6.045.093 6.863.02 7.818c-.115 1.555.254 3.022.773 4.452 1.062 2.959 2.68 5.587 4.642 7.997 2.65 3.259 5.813 5.837 9.513 7.698 1.666.836 3.392 1.48 5.27 1.585 1.291.075 2.414-.262 3.313-1.304.616-.712 1.31-1.361 1.962-2.042.966-1.011.972-2.235.012-3.234-1.147-1.192-2.48-1.879-3.634-3.065zm-.49-5.36l.268-.047c.583-.103.953-.707.79-1.295a10.395 10.395 0 00-2.537-4.445 9.826 9.826 0 00-4.589-2.708c-.575-.15-1.149.248-1.231.855l-.038.28c-.07.522.253 1.01.747 1.142a7.614 7.614 0 013.517 2.086 7.996 7.996 0 011.953 3.412.99.99 0 001.12.72zm2.559-9.85C21.619 2.292 18.74.69 15.56.02 15-.097 14.46.303 14.382.888l-.038.28a1.027 1.027 0 00.786 1.15c2.739.584 5.218 1.968 7.217 4.03a14.86 14.86 0 013.803 7.012c.122.53.617.873 1.136.781l.265-.047c.569-.1.933-.678.8-1.259a17.276 17.276 0 00-4.41-8.14z"/></svg><svg viewBox="0 0 97.75 97.75" id="facebook-logo_(1)" xmlns="http://www.w3.org/2000/svg"><path d="M48.875 0C21.882 0 0 21.882 0 48.875S21.882 97.75 48.875 97.75 97.75 75.868 97.75 48.875 75.868 0 48.875 0zm18.646 24.89l-6.76.003c-5.301 0-6.326 2.519-6.326 6.215v8.15h12.641l-.006 12.765H54.436v32.758H41.251V52.023H30.229V39.258h11.022v-9.414c0-10.925 6.675-16.875 16.42-16.875l9.851.015V24.89h-.001z"/></svg><svg viewBox="0 0 502.664 502.664" id="icon" xmlns="http://www.w3.org/2000/svg"><g fill="#010002"><path d="M153.821 358.226L0 274.337v-46.463l153.821-83.414v54.574L46.636 250.523l107.185 53.431v54.272zM180.094 387.584L282.103 115.08h32.227L212.084 387.584h-31.99zM348.843 358.226v-54.272l107.164-52.999-107.164-52.59v-53.927l153.821 83.522v46.183l-153.821 84.083z"/></g></svg><svg viewBox="0 0 16 13" id="mail" xmlns="http://www.w3.org/2000/svg"><defs><style>.eecls-1{fill:#222;fill-rule:evenodd}</style></defs><path class="eecls-1" d="M14 13H2a2 2 0 01-2-2V2a2 2 0 012-2h12a2 2 0 012 2v9a2 2 0 01-2 2zM3.534 2l4.481 4.482L12.5 2H3.534zM14 3.5L8.827 8.671a1.047 1.047 0 01-.812.3 1.047 1.047 0 01-.811-.3L2 3.467V11h12V3.5z"/></svg><svg viewBox="0 0 13 16" id="marker" xmlns="http://www.w3.org/2000/svg"><defs><style>.facls-1{fill-rule:evenodd}</style></defs><path data-name="Ellipse 74 copy" class="facls-1" d="M11.9 9.916h.03L7 16H6L1.067 9.916h.03a6.262 6.262 0 01-1.1-3.541 6.5 6.5 0 0113 0A6.262 6.262 0 0111.9 9.916zM6.5 2a4.5 4.5 0 00-3.741 7h-.012l3.542 4.447h.422L10.289 9h-.049A4.5 4.5 0 006.5 2zm0 6A1.5 1.5 0 118 6.5 1.5 1.5 0 016.5 8z"/></svg><svg viewBox="0 0 64 64" id="oil_barrel_icon_150207" xmlns="http://www.w3.org/2000/svg"><style>.gst0{display:none}.gst1{fill:#fff}.gst1,.gst2{display:inline}.gst3,.gst4{fill:none;stroke:#4c5159;stroke-width:2;stroke-miterlimit:10}.gst4,.gst5{display:inline}.gst5,.gst6{fill:none;stroke:#4c5159;stroke-width:2;stroke-miterlimit:10;stroke-dasharray:1.9857,1.9857}.gst7{fill:#4c5159}.gst8{font-family:'Montserrat-Bold'}.gst9{font-size:7px}.gst10,.gst11,.gst12{display:inline;fill:#74e2f0}.gst11,.gst12{fill:#fbda73}.gst12{fill:#f08e70}</style><g id="gbg" class="gst0"><path id="gXMLID_119_" class="gst1" d="M-218-268.2h500v600.3h-500z"/></g><g id="gicons"><g id="gXMLID_36_" class="gst0"><g id="gXMLID_9_" class="gst2"><path id="gXMLID_14_" class="gst3" d="M34.7 15l-.6-2.4h-4.8L28.2 17c-1.6.4-3.1 1-4.5 1.9l-3.8-2.3-3.4 3.4 2.3 3.8c-.9 1.4-1.5 2.9-1.9 4.5l-4 1.3v4.8l4 .9c.4 1.6 1 3.2 1.9 4.5l-2.4 3.7 3.4 3.4 4-2.1c1.4.9 2.9 1.5 4.5 1.9l1.1 4.6h4.8l1.1-4.6c1.6-.4 3.2-1 4.5-1.9l4 2.3 3.4-3.4-2.4-3.9c.9-1.4 1.5-2.9 1.9-4.5l4-1.1v-4.8l-1.9-.4"/><path id="gXMLID_16_" class="gst3" d="M38.2 34.3c-1 2.6-3.5 4.4-6.4 4.4-3.8 0-6.9-3.1-6.9-6.9 0-2.7 1.5-5 3.8-6.1"/></g><path id="gXMLID_15_" class="gst4" d="M51 12.8s1.4 9.8-3.7 14.9-14.9 3.7-14.9 3.7-1.4-9.8 3.7-14.9S51 12.8 51 12.8z"/><path id="gXMLID_17_" class="gst4" d="M32.4 31.4L51 12.8"/><path id="gXMLID_21_" class="gst4" d="M36.6 27.2l12.2-1.5"/><path id="gXMLID_25_" class="gst4" d="M36.6 27.2l.8-11.7"/><path id="gXMLID_29_" class="gst4" d="M43.1 20.7l8.1-1"/><path id="gXMLID_13_" class="gst4" d="M43.1 20.7l.8-8.1"/></g><g id="gXMLID_68_" class="gst0"><path id="gXMLID_50_" class="gst4" d="M33.9 51.9c0 1-.8 1.9-1.9 1.9-1 0-1.9-.8-1.9-1.9"/><g id="gXMLID_266_" class="gst2"><path id="gXMLID_53_" class="gst3" d="M33.9 41.6v-3.5"/><path id="gXMLID_49_" class="gst3" d="M37.5 37.2v4.4"/></g><g id="gXMLID_267_" class="gst2"><path id="gXMLID_52_" class="gst3" d="M26.4 41.7v-2.5"/><path id="gXMLID_51_" class="gst3" d="M29.9 38.1v3.6"/></g><path id="gXMLID_91_" class="gst4" d="M27.3 37.4l-3.4.6c-1.1.2-2-.5-2-1.6s.9-2.2 2-2.4l16.7-3.3c1.1-.2 2 .5 2 1.6s-.9 2.2-2 2.4L32 36.4"/><path id="gXMLID_54_" class="gst4" d="M26.9 30.5l-3 .6c-1.1.2-2-.5-2-1.6s.9-2.2 2-2.4l16.7-3.3c1.1-.2 2 .5 2 1.6s-.9 2.2-2 2.4l-8 1.5"/><path id="gXMLID_89_" class="gst4" d="M25.9 23.6l-2 .4c-1.1.2-2-.5-2-1.6s.9-2.2 2-2.4l16.7-3.3c1.1-.2 2 .5 2 1.6s-.9 2.2-2 2.4l-8.1 1.7"/><path id="gXMLID_90_" class="gst4" d="M29.3 16l-2.7.5c-1.1.2-2-.5-2-1.6s.9-2.2 2-2.4l11.3-2.2c1.1-.2 2 .5 2 1.6s-.9 2.2-2 2.4l-5.6 1"/><path id="gXMLID_48_" class="gst4" d="M38.8 44.1l-4.1 7.1h-5.4l-4.1-7.1"/><path id="gXMLID_134_" class="gst4" d="M38.6 44.4H25.4c-.1 0-.2-.1-.2-.2V42c0-.1.1-.2.2-.2h13.3c.1 0 .2.1.2.2v2.2c-.1.1-.2.2-.3.2z"/><path id="gXMLID_88_" class="gst4" d="M12.5 26.9h2.8"/><path id="gXMLID_87_" class="gst4" d="M10.8 20.2l5.3 2"/><path id="gXMLID_93_" class="gst4" d="M16.5 16.3l2 1.7"/><path id="gXMLID_131_" class="gst4" d="M47.6 16.1l-2.2 1.8"/><path id="gXMLID_132_" class="gst4" d="M53.2 20.1l-5.3 2"/><path id="gXMLID_155_" class="gst4" d="M51.5 26.9l-2.8-.1"/><path id="gXMLID_157_" class="gst4" d="M53.2 33.5l-5.3-2"/><path id="gXMLID_160_" class="gst4" d="M47.6 37.6l-2.1-1.9"/><path id="gXMLID_165_" class="gst4" d="M16.2 37.7l2.4-2"/><path id="gXMLID_166_" class="gst4" d="M10.8 33.4l5.4-1.9"/></g><g id="gXMLID_66_" class="gst0"><circle id="gXMLID_56_" class="gst4" cx="32" cy="31.6" r="2.8"/><path id="gXMLID_74_" class="gst5" d="M37 12.7c1.3.3 2.5.8 3.6 1.4 2.3 1.1 4.3 2.7 6 4.6 1.7 1.9 3 4.1 3.8 6.5.9 2.4 1.3 5 1.1 7.7-.1 1.6-.4 3.1-.8 4.6"/><path id="gXMLID_71_" class="gst5" d="M13.5 38.2c-.9-2.4-1.3-5-1.1-7.7.2-2.7.9-5.2 2-7.5s2.7-4.3 4.6-6 4.1-3 6.5-3.8"/><path id="gXMLID_69_" class="gst5" d="M46.9 44.3c-.6.7-1.2 1.4-1.9 2-1.9 1.7-4.1 3-6.5 3.8"/><path id="gXMLID_77_" class="gst5" d="M17.6 44.7c.6.7 1.2 1.4 1.9 2 1.9 1.7 4.1 3 6.5 3.8"/><path id="gXMLID_59_" class="gst4" d="M30 27.4V10.1h.9l3.2 13.8v3.5"/><path id="gXMLID_57_" class="gst4" d="M36.7 31.9l14.9 8.8-.4.7-13.6-4.2-3-1.8"/><path id="gXMLID_62_" class="gst4" d="M29.4 35.4l-15.1 8.5-.5-.8 10.5-9.6 3.1-1.7"/><path id="gXMLID_67_" class="gst4" d="M33.4 37.4l1.7 16.5"/><path id="gXMLID_65_" class="gst4" d="M28.9 53.9l1.7-16.5"/></g><g id="gXMLID_100_" class="gst0"><circle id="gXMLID_321_" class="gst4" cx="19.1" cy="44.2" r="3.1"/><circle id="gXMLID_333_" class="gst4" cx="47.9" cy="44.2" r="3.1"/><path id="gXMLID_73_" class="gst4" d="M11.8 39.9v4.4c0 .1.1.1.1.1h2.7"/><path id="gXMLID_75_" class="gst4" d="M24.4 44.4h14.9c.1 0 .1-.1.1-.1V41h-14"/><path id="gXMLID_337_" class="gst4" d="M43.5 44.2h-1.3V26.4c0-.1.1-.2.2-.2h9.1c.1 0 .2.1.2.1l4 7.9V44c0 .1-.1.2-.2.2h-2.7"/><path id="gXMLID_334_" class="gst4" d="M46.3 26.2v7.7h6.4"/><path id="gXMLID_338_" class="gst4" d="M45.4 37.1h1.9"/><path id="gXMLID_335_" class="gst4" d="M53.1 39.5h2"/><path id="gXMLID_302_" class="gst4" d="M27.7 28.5c0 .9-.7 1.6-1.6 1.6-.9 0-1.6-.7-1.6-1.6 0-.9 1.6-3.1 1.6-3.1s1.6 2.2 1.6 3.1z"/><path id="gXMLID_72_" class="gst4" d="M35.6 38H12c-2 0-3.7-1.7-3.7-3.7V22.4c0-2 1.7-3.7 3.7-3.7h23.7c2 0 3.7 1.7 3.7 3.7v11.9c-.1 2-1.7 3.7-3.8 3.7z"/><path id="gXMLID_81_" class="gst4" d="M32.3 35.2h3.8"/><path id="gXMLID_78_" class="gst4" d="M32.3 21.8h3.8"/><path id="gXMLID_84_" class="gst4" d="M19.3 16.6h10.2"/><g id="gXMLID_98_" class="gst2"><path id="gXMLID_85_" class="gst3" d="M12 18.9V38"/><path id="gXMLID_82_" class="gst3" d="M17.3 18.9V38"/><path id="gXMLID_92_" class="gst3" d="M12 22.3h4.8"/><path id="gXMLID_86_" class="gst3" d="M12.2 26.7H17"/><path id="gXMLID_96_" class="gst3" d="M12.4 31.1h4.9"/></g><circle id="gXMLID_80_" class="gst4" cx="26.1" cy="27.8" r="5.3"/></g><g id="gXMLID_106_" class="gst0"><g id="gXMLID_105_" class="gst2"><g id="gXMLID_97_"><path id="gXMLID_108_" class="gst3" d="M40.2 31.8s.9 6.1-2.3 9.3c-3.2 3.2-9.3 2.3-9.3 2.3s-.9-6.1 2.3-9.3c3.2-3.1 9.3-2.3 9.3-2.3z"/></g><g id="gXMLID_103_"><path id="gXMLID_104_" class="gst3" d="M26.3 41.4c-1.3-1.5-2.7-3.7-2.7-6.2 0-4.6 5-8.2 5-8.2s2.1 1.6 3.5 4"/></g></g><path id="gXMLID_188_" class="gst4" d="M24.1 26.4v-7.5c0-4.3 3.5-7.9 7.9-7.9 4.3 0 7.9 3.5 7.9 7.9v7.5"/><path id="gXMLID_94_" class="gst4" d="M48.6 53H15.4c-.1 0-.2-.1-.2-.2l1-5.9V21.6c0-.1.1-.2.2-.2h31.2c.1 0 .2.1.2.2v25.6l1 5.6c0 .1-.1.2-.2.2z"/><path id="gXMLID_102_" class="gst4" d="M16.9 46.8h14.4"/></g><g id="gXMLID_128_" class="gst0"><path id="gXMLID_110_" class="gst4" d="M52.3 39.5H11.7c-.1 0-.3-.1-.3-.3V11.4c0-.1.1-.3.3-.3h40.7c.1 0 .3.1.3.3v27.8c-.1.2-.2.3-.4.3z"/><path id="gXMLID_111_" class="gst4" d="M14.9 14.3v8h8"/><path id="gXMLID_113_" class="gst4" d="M28.2 14.3v8h8"/><path id="gXMLID_114_" class="gst4" d="M41.5 14.3v8h8"/><path id="gXMLID_118_" class="gst4" d="M14.9 26.3v8h8"/><path id="gXMLID_117_" class="gst4" d="M28.2 26.3v8h8"/><path id="gXMLID_115_" class="gst4" d="M41.5 26.3v8h8"/><path id="gXMLID_121_" class="gst4" d="M28 42v8.8"/><path id="gXMLID_120_" class="gst4" d="M36 42v8.8"/><path id="gXMLID_125_" class="gst4" d="M31 44.2h2"/><path id="gXMLID_122_" class="gst4" d="M31 48.2h2"/><path id="gXMLID_130_" class="gst4" d="M17.9 52.8h27.8"/></g><g id="gXMLID_135_" class="gst0"><path id="gXMLID_168_" class="gst4" d="M52.9 27v20.1"/><path id="gXMLID_162_" class="gst4" d="M39.1 54.5v-3.2l-8.3-22.4-4.3.1-9.3 21.5v4"/><path id="gXMLID_161_" class="gst4" d="M38.8 50.4L23.5 35.1"/><path id="gXMLID_159_" class="gst4" d="M17.3 50.7L33 35"/><path id="gXMLID_156_" class="gst4" d="M11.4 29v14.7"/><path id="gXMLID_154_" class="gst4" d="M9.1 46.1h4.7v8.4H9.1z"/><path id="gXMLID_152_" class="gst4" d="M44 16.1L10.9 29.9"/><path id="gXMLID_149_" class="gst4" d="M44.7 19.8l-12.5 5.3"/><path id="gXMLID_139_" class="gst4" d="M11.4 33.7l12.8-5.2"/><path id="gXMLID_138_" class="gst4" d="M57.1 54.5H6.9"/><path id="gXMLID_137_" class="gst4" d="M46.3 19.8l6 5.5 1.2-.5.1-8.1-2.4-5.5-3.7-1.7-2.2 1-1.3 3.9z"/><path id="gXMLID_136_" class="gst4" d="M38.7 50.8H17.3"/><path id="gXMLID_150_" class="gst4" d="M27.3 33.7h1.8"/><path id="gXMLID_140_" class="gst4" d="M55.4 54.5h-4.6l1-5.3h2.6z"/><path id="gXMLID_164_" class="gst4" d="M29.9 29v-2.8h-2.6V29"/></g><g id="gXMLID_171_" class="gst0"><g id="gXMLID_153_" class="gst2"><path id="gXMLID_170_" class="gst3" d="M40.3 51.5H23.7l-1.1-2.3v-7.1h18.8v7z"/><path id="gXMLID_169_" class="gst3" d="M29.4 51.5h5.3v3h-5.3z"/><path id="gXMLID_167_" class="gst3" d="M45.3 27.7c0-7.3-5.9-13.2-13.2-13.2-7.3 0-13.2 5.9-13.2 13.2 0 4.7 2.4 8.7 6.1 11.1v3.3h14.3v-3.3c3.6-2.3 6-6.4 6-11.1z"/><path id="gXMLID_158_" class="gst3" d="M22.6 46.8h8.2"/></g><path id="gXMLID_172_" class="gst5" d="M18.3 42.5c-3.5-3.5-5.7-8.3-5.7-13.7s2.2-10.2 5.7-13.7S26.6 9.4 32 9.4s10.2 2.2 13.7 5.7 5.7 8.3 5.7 13.7-2.2 10.2-5.7 13.7"/><path id="gXMLID_173_" class="gst4" d="M35.4 25.3c.9.9 1.4 2.1 1.4 3.4 0 1.3-.5 2.5-1.4 3.4-.9.9-2.1 1.4-3.4 1.4-1.3 0-2.5-.5-3.4-1.4-.9-.9-1.4-2.1-1.4-3.4 0-1.3.5-2.5 1.4-3.4"/><path id="gXMLID_174_" class="gst4" d="M32.1 22.4v7.3"/></g><g id="gXMLID_180_" class="gst0"><g id="gXMLID_176_" class="gst2"><path id="gXMLID_179_" class="gst3" d="M46.9 26.5v-3.8l-3.2-.9c-.3-1.3-.8-2.5-1.5-3.6l1.9-3.1-2.7-2.7-3.1 1.9c-1.1-.7-2.3-1.2-3.6-1.5l-.9-3.4H30l-.9 3.4c-1.3.3-2.5.8-3.5 1.5l-3-1.8-2.6 2.8 1.8 3c-.7 1.1-1.2 2.3-1.5 3.6l-3.2 1v3.8l3.2.7c.3 1.3.8 2.5 1.5 3.6l-1.9 2.9 2.7 2.7 3.1-1.7c1.1.7 2.3 1.2 3.6 1.5l.9 3.6H34l.9-3.6c1.3-.3 2.5-.8 3.6-1.5l3.1 1.8 2.7-2.7-1.9-3.1c.7-1.1 1.2-2.3 1.5-3.6l3-.8z"/><circle id="gXMLID_177_" class="gst3" cx="32" cy="24.6" r="5.4"/></g><g id="gXMLID_194_" class="gst2"><path id="gXMLID_196_" class="gst3" d="M45.6 41.1s.7 5-1.9 7.6c-2.6 2.6-7.6 1.9-7.6 1.9s-.7-5 1.9-7.6c2.6-2.6 7.6-1.9 7.6-1.9z"/></g><g id="gXMLID_183_" class="gst2"><path id="gXMLID_184_" class="gst3" d="M19.2 41.1s-.7 5 1.9 7.6c2.6 2.6 7.6 1.9 7.6 1.9s.7-5-1.9-7.6-7.6-1.9-7.6-1.9z"/></g><path id="gXMLID_181_" class="gst4" d="M32.4 42.3v12.2"/><path id="gXMLID_186_" class="gst4" d="M52.7 13.1l-5.2 3"/><path id="gXMLID_187_" class="gst4" d="M55.7 25h-6"/><path id="gXMLID_189_" class="gst4" d="M52.4 36.8l-5.2-3"/><path id="gXMLID_201_" class="gst4" d="M11.3 36.2l5.2-3"/><path id="gXMLID_202_" class="gst4" d="M8.3 24.3h6"/><path id="gXMLID_203_" class="gst4" d="M11.6 12.4l5.2 3"/></g><g id="gXMLID_195_" class="gst0"><path id="gXMLID_199_" class="gst4" d="M34.9 24.5c2 3.2 4.3 7.4 4.3 9.6 0 4-3.2 7.2-7.2 7.2s-7.2-3.2-7.2-7.2 7.2-14 7.2-14"/><path id="gXMLID_200_" class="gst4" d="M32 38.1c-2.4 0-4.3-1.9-4.3-4.3"/><path id="gXMLID_198_" class="gst4" d="M32 17.1c8.2 0 14.9 6.7 14.9 14.9S40.2 46.9 32 46.9 17.1 40.2 17.1 32"/><circle id="gXMLID_192_" class="gst5" cx="32" cy="32" r="21.4"/></g><g id="gXMLID_205_" class="gst0"><path id="gXMLID_209_" class="gst5" d="M40.9 13.4c7.2 3.5 12.1 11 11.7 19.6-.5 11.4-10.2 20.2-21.6 19.6"/><path id="gXMLID_207_" class="gst5" d="M21.8 50C15.3 46.3 11 39.1 11.4 31.1c.5-11.4 10.2-20.2 21.6-19.7"/><path id="gXMLID_206_" class="gst4" d="M38.3 30.5h-7.9l7.9-20.6-15.4 22-2.8 4h13l-7.7 18.2 15.2-19.5 3.2-4.1h-5.5z"/></g><g id="gXMLID_4_" class="gst0"><path id="gXMLID_219_" class="gst4" d="M21.7 24.3l2.3 2.2 5.2-5.1"/><path id="gXMLID_1167_" class="gst4" d="M37.1 26.7l-2.5 1.9.9 3.1c.3 1.2-.5 2.3-1.7 2.4l-3.2.1-1.1 3c-.4 1.2-1.8 1.6-2.8.9L24 36.3l-2.6 1.8c-1 .7-2.4.2-2.8-.9l-1.1-3-3.2-.1c-1.2 0-2.1-1.2-1.7-2.4l.9-3.1-2.5-1.9c-1-.7-1-2.2 0-2.9l2.5-1.9-.9-3.1c-.3-1.2.5-2.3 1.7-2.4l3.2-.1 1.1-3c.4-1.1 1.8-1.6 2.8-.9l2.6 1.8 2.6-1.8c1-.7 2.4-.2 2.8.9l1.1 3 3.2.1c1.2 0 2.1 1.2 1.7 2.4l-.9 3.1 2.5 1.9c1.1.7 1.1 2.2.1 2.9z"/><path id="gXMLID_214_" class="gst4" d="M24 20c-2.9 0-5.2 2.3-5.2 5.2 0 2.9 2.3 5.2 5.2 5.2 2.9 0 5.2-2.3 5.2-5.2"/><path id="gXMLID_216_" class="gst4" d="M24 40.4v5.8c0 4.1 3.4 7.5 7.5 7.5s7.5-3.4 7.5-7.5v-8.1c0-3.3 2.6-5.9 5.9-5.9 3.3 0 5.9 2.6 5.9 5.9v15.6"/><g id="gXMLID_217_" class="gst2"><path id="gXMLID_221_" class="gst3" d="M46.2 10.3v4.3"/><path id="gXMLID_218_" class="gst3" d="M51.5 12.5l-3 3"/><path id="gXMLID_222_" class="gst3" d="M53.7 17.8h-4.3"/><path id="gXMLID_224_" class="gst3" d="M51.5 23.1l-3-3.1"/><path id="gXMLID_225_" class="gst3" d="M46.2 25.3v-4.4"/><path id="gXMLID_226_" class="gst3" d="M40.9 23.1L44 20"/><path id="gXMLID_227_" class="gst3" d="M38.7 17.8H43"/><path id="gXMLID_229_" class="gst3" d="M40.9 12.5l3.1 3"/></g></g><g id="gXMLID_249_" class="gst0"><g id="gXMLID_241_" class="gst2"><path id="gXMLID_250_" class="gst3" d="M13.7 21s4.7-6.3 10.5-6.3S34.7 21 34.7 21s-4.7 6.3-10.5 6.3S13.7 21 13.7 21z"/></g><g id="gXMLID_240_" class="gst2"><path id="gXMLID_236_" class="gst3" d="M49.5 44.6l3 3c.5.5 1.4.5 1.9 0s.5-1.4 0-1.9l-3-3"/><path id="gXMLID_235_" class="gst3" d="M42.8 51.3l3 3c.5.5 1.4.5 1.9 0s.5-1.4 0-1.9l-3-3"/><path id="gXMLID_232_" class="gst3" d="M51 36.5L36.5 51c-.1.1-.1.2 0 .2l2 2c.1.1.2.1.2 0l14.5-14.5c.1-.1.1-.2 0-.2l-2-2c0-.1-.1-.1-.2 0z"/><path id="gXMLID_233_" class="gst3" d="M49.5 36l-4-4c-3.7-3.7-9.8-3.7-13.5 0-3.7 3.7-3.7 9.8 0 13.5l4 4"/><path id="gXMLID_238_" class="gst3" d="M38.4 45.1l-5-5.1"/><path id="gXMLID_237_" class="gst3" d="M41.8 41.7l-7.4-7.3"/><path id="gXMLID_239_" class="gst3" d="M45.2 38.4l-5.1-5.1"/></g><path id="gXMLID_244_" class="gst4" d="M29.3 12.7C27 10.4 24 9.3 21 9.3s-6 1.1-8.3 3.4S9.2 18 9.2 21c0 3 1.1 6 3.4 8.3 2.3 2.3 5.3 3.4 8.3 3.4s6.1-1.2 8.4-3.5l1.6 1.6"/><path id="gXMLID_242_" class="gst4" d="M14.7 21h18.7"/><path id="gXMLID_245_" class="gst4" d="M20.5 21l5.3-5.8"/><path id="gXMLID_247_" class="gst4" d="M20.1 21l5.3 6.3"/><path id="gXMLID_248_" class="gst4" d="M26.7 21l3.9-4.3"/><path id="gXMLID_234_" class="gst4" d="M26.3 21l3.7 4.4"/></g><g id="gXMLID_246_"><path id="gXMLID_274_" class="gst3" d="M33.8 34.1c0 1.2-1 2.2-2.2 2.2-1.2 0-2.2-1-2.2-2.2s2.2-4.3 2.2-4.3 2.2 3.1 2.2 4.3z"/><circle id="gXMLID_252_" class="gst3" cx="31.6" cy="33.1" r="7.4"/><path id="gXMLID_269_" class="gst3" d="M46.7 43.8V22.4c1.3-.3 2.2-1.4 2.2-2.8s-.9-2.5-2.2-2.8v-4c0-.8-.6-1.4-1.4-1.4H18.8c-.8 0-1.4.6-1.4 1.4v4c-1.3.3-2.2 1.4-2.2 2.8s.9 2.5 2.2 2.8v21.3c-1.3.3-2.2 1.4-2.2 2.8s.9 2.5 2.2 2.8v3.9c0 .8.6 1.4 1.4 1.4h26.5c.8 0 1.4-.6 1.4-1.4v-3.9c1.3-.3 2.2-1.4 2.2-2.8s-1-2.4-2.2-2.7z"/><path id="gXMLID_260_" class="gst3" d="M17.2 22.6H29"/><path id="gXMLID_243_" class="gst3" d="M36.9 22.6h-5.6"/><path id="gXMLID_263_" class="gst3" d="M46.2 43.6h-9.3"/><path id="gXMLID_265_" class="gst3" d="M32 43.6h3.7"/><path id="gXMLID_271_" class="gst3" d="M19 9.3h4.9"/></g><g id="gXMLID_277_" class="gst0"><g id="gXMLID_281_" class="gst2"><path id="gXMLID_282_" class="gst6" d="M18.8 22.7c0-7.5 6.1-13.5 13.5-13.5 7.5 0 13.5 6.1 13.5 13.5"/></g><path id="gXMLID_279_" class="gst4" d="M32.6 12.6l-2.4 6.1h4.4l-3 6.1"/><g id="gXMLID_259_" class="gst2"><path id="gXMLID_255_" class="gst3" d="M18.4 27.5v-2.8c0-.1.1-.2.2-.2h2.9c.1 0 .2.1.2.2v2.8"/><path id="gXMLID_258_" class="gst3" d="M42.4 27.5v-2.8c0-.1.1-.2.2-.2h2.9c.1 0 .2.1.2.2v2.8"/><path id="gXMLID_257_" class="gst3" d="M50.9 34.2V50"/><path id="gXMLID_256_" class="gst3" d="M13.1 50V34.2"/><path id="gXMLID_272_" class="gst3" d="M52 32.4H12c-.1 0-.2-.1-.2-.2v-4c0-.1.1-.2.2-.2h40c.1 0 .2.1.2.2v4c0 .1-.1.2-.2.2z"/><path id="gXMLID_254_" class="gst3" d="M44.8 50.5H52c.1 0 .2.1.2.2v3.9c0 .1-.1.2-.2.2H12c-.1 0-.2-.1-.2-.2v-3.9c0-.1.1-.2.2-.2h14.5"/></g><path id="gXMLID_261_" class="gst4" d="M39.7 41.6h6.1"/><g id="gXMLID_273_" class="gst2"><path id="gXMLID_264_" class="gst3" d="M18.7 41.6h6.1"/><path id="gXMLID_270_" class="gst3" d="M21.8 44.6v-6.1"/></g></g><g id="gXMLID_275_" class="gst0"><path id="gXMLID_284_" class="gst4" d="M39.3 19.8c0-2.4-1.9-4.3-4.3-4.3-1.2 0-2.3.5-3.1 1.3-.8-.8-1.9-1.3-3.1-1.3-2.4 0-4.3 1.9-4.3 4.3 0 1.2.5 2.2 1.2 3l6.2 6.1 6.3-6.3c.1-.1.2-.3.2-.3.6-.7.9-1.6.9-2.5z"/><path id="gXMLID_327_" class="gst4" d="M48.8 54.8V48s0-.1-.1-.1h-14s-.1 0-.1.1v6.8"/><path id="gXMLID_326_" class="gst4" d="M37 47.9v-8.8c.1-.5.4-1.3.8-1.7l5.3-5.7c1.3-1.7 4 .1 2.6 1.6l-4.3 5.9h2.1l5.1-5.5s.3-3.3.4-3.8L46.6 24c-.4-1-.4-2.2-.1-3.2.3-.8.6-1.5 1-1.6l4.2 10.5c.2.4.1 6 .1 6L46 47.9"/><path id="gXMLID_325_" class="gst4" d="M15.2 54.8V48s0-.1.1-.1h14s.1 0 .1.1v6.8"/><path id="gXMLID_324_" class="gst4" d="M27 47.9v-8.8c-.1-.5-.4-1.3-.8-1.7l-5.3-5.7c-1.3-1.7-4 .1-2.6 1.6l4.3 5.9h-2.1l-5.1-5.5s-.3-3.3-.4-3.8l2.5-6.1c.4-1 .4-2.2.1-3.2-.3-.8-.6-1.5-1-1.6l-4.2 10.5c-.2.4-.1 6-.1 6L18 47.9"/><g id="gXMLID_612_" class="gst2"><circle id="gXMLID_619_" class="gst3" cx="32.1" cy="21.1" r="11.9"/></g></g><g id="gXMLID_307_" class="gst0"><circle id="gXMLID_314_" class="gst4" cx="32" cy="32" r="15.5"/><path id="gXMLID_318_" class="gst4" d="M24.7 34c-.1-.5-.2-1-.2-1.5s.1-1 .2-1.5.2-1 .4-1.4c.2-.4.4-.9.7-1.3.3-.4.6-.8.9-1.1.3-.3.7-.6 1.1-.9.4-.3.8-.5 1.3-.7.4-.2.9-.3 1.4-.4.5-.1 1-.2 1.5-.2"/><path id="gXMLID_308_" class="gst4" d="M27.9 38.7c-.4-.3-.8-.6-1.1-.9-.3-.3-.6-.7-.9-1.1"/><path id="gXMLID_288_" class="gst4" d="M33.6 39.8c-.5.1-1 .2-1.5.2s-1-.1-1.5-.2"/><path id="gXMLID_289_" class="gst4" d="M38.3 36.6c-.3.4-.6.8-.9 1.1-.3.3-.7.6-1.1.9"/><path id="gXMLID_311_" class="gst4" d="M29.9 22.3l2.7 2.7-2.7 2.7"/><path id="gXMLID_286_" class="gst4" d="M32.1 9v5"/><path id="gXMLID_285_" class="gst4" d="M43.6 12.1l-2.5 4.3"/><path id="gXMLID_287_" class="gst4" d="M52 20.5L47.6 23"/><path id="gXMLID_290_" class="gst4" d="M55 32h-5"/><path id="gXMLID_292_" class="gst4" d="M51.9 43.5L47.6 41"/><path id="gXMLID_295_" class="gst4" d="M43.5 51.9L41 47.6"/><path id="gXMLID_297_" class="gst4" d="M32 55v-5"/><path id="gXMLID_299_" class="gst4" d="M20.5 51.9l2.5-4.3"/><path id="gXMLID_301_" class="gst4" d="M12.1 43.5l4.3-2.5"/><path id="gXMLID_303_" class="gst4" d="M9 32h5"/><path id="gXMLID_305_" class="gst4" d="M12.1 20.5l4.3 2.5"/><path id="gXMLID_306_" class="gst4" d="M20.5 12.1l2.5 4.3"/></g><g id="gXMLID_304_" class="gst0"><g id="gXMLID_146_" class="gst2"><path id="gXMLID_148_" class="gst3" d="M46.3 32.5v-3.1l-4.9-.7c-.2-1-.6-2-1.2-2.9l2.9-3.9-2.1-2.2-3.9 2.9c-.9-.5-1.8-1-2.9-1.2l-.7-4.9h-3.1l-.7 4.9c-1 .2-2 .6-2.9 1.2L23 19.7l-2.2 2.2 2.9 3.9c-.5.9-1 1.8-1.2 2.9l-4.9.7v3.1l4.9.7c.2 1 .6 2 1.2 2.9L20.8 40l2.2 2.2 3.9-2.9c.9.5 1.8 1 2.9 1.2l.7 4.9h3.1l.7-4.9c1-.2 2-.6 2.9-1.2l3.9 2.9 2.2-2.2-2.9-3.9c.5-.9 1-1.8 1.2-2.9l4.7-.7z"/><path id="gXMLID_291_" class="gst3" d="M32 26.6c2.4 0 4.4 2 4.4 4.4s-2 4.4-4.4 4.4c-2.4 0-4.4-2-4.4-4.4"/></g><g id="gXMLID_300_" class="gst2"><path id="gXMLID_317_" class="gst3" d="M16.4 17.1c1.5-1.7 3.3-3.2 5.5-4.4 5-2.8 10.6-3.3 15.7-1.9s9.6 4.8 12.4 9.8"/><path id="gXMLID_316_" class="gst3" d="M26.3 50.6c-5.1-1.4-9.6-4.8-12.4-9.8-2.8-5-3.3-10.6-1.9-15.7.3-1.1.7-2.2 1.2-3.2"/><path id="gXMLID_315_" class="gst3" d="M52.2 26.9c.6 3.2.4 6.4-.4 9.4-1.4 5.1-4.8 9.6-9.8 12.4-3.1 1.7-6.5 2.6-9.8 2.6"/><path id="gXMLID_313_" class="gst3" d="M52.7 21.4l-1.4 2.8-2.9-1.4"/><path id="gXMLID_312_" class="gst3" d="M30.8 53.9l-2.9-2.7 2.9-2.7"/><path id="gXMLID_310_" class="gst3" d="M11.4 19.9l3.3-1.2 1.7 3.2"/></g></g><g id="gXMLID_341_" class="gst0"><path id="gXMLID_328_" class="gst4" d="M17.7 18.3v7.2c0 .1 0 .1.1.1l2 1.3.6 13.2"/><path id="gXMLID_319_" class="gst4" d="M28.4 52.9H43c.1 0 .3-.1.3-.2L44.4 27l2-1.3c.1 0 .1-.1.1-.1v-7.2"/><path id="gXMLID_329_" class="gst4" d="M48 14.6v1.6c0 .1-.1.2-.2.2H23.5"/><path id="gXMLID_330_" class="gst4" d="M45.6 9.6H19c-1.4 0-2.5 1.1-2.5 2.5v4.1c0 .1.1.2.2.2h4.7v-3.2h26.8v-1.1c-.1-1.4-1.2-2.5-2.6-2.5z"/><circle id="gXMLID_1541_" class="gst4" cx="21.3" cy="48.2" r="6.2"/><circle id="gXMLID_320_" class="gst4" cx="21.3" cy="48.2" r="2.2"/><path id="gXMLID_339_" class="gst4" d="M39 30.7c0 1.8-.7 3.5-1.9 4.6a6.42 6.42 0 01-4.6 1.9c-1.8 0-3.5-.7-4.6-1.9a6.42 6.42 0 01-1.9-4.6c0-1.8.7-3.5 1.9-4.6 1.2-1.2 2.8-1.9 4.6-1.9"/><path id="gXMLID_336_" class="gst4" d="M46.1 52.9h9.4"/><path id="gXMLID_332_" class="gst4" d="M8.5 52.9h4.7"/><path id="gXMLID_340_" class="gst4" d="M31.3 21.7l2.4 2.5-2.4 2.4"/></g><g id="gXMLID_774_" class="gst0"><path id="gXMLID_347_" class="gst4" d="M26.5 42.7c-.5-3.2-.7-6.8-.7-10.7 0-12.6 2.8-22.8 6.2-22.8 3.4 0 6.2 10.2 6.2 22.8S35.4 54.8 32 54.8c-1.5 0-2.9-1.9-3.9-5.1"/><path id="gXMLID_349_" class="gst4" d="M24.3 22.7c3.1.8 6.6 2.1 10.2 3.6 11.6 5 19.8 11.6 18.4 14.8-1.4 3.2-11.8 1.6-23.4-3.4-5-2.2-9.3-4.6-12.6-7"/><path id="gXMLID_345_" class="gst5" d="M11.3 25c-.4-.8-.5-1.5-.2-2.1.9-2.2 6.2-2.1 13.2-.3"/><path id="gXMLID_344_" class="gst4" d="M42.1 22.1c-3.7.8-8 2.2-12.5 4.2-11.6 5-19.9 11.6-18.5 14.8 1.4 3.2 11.8 1.6 23.4-3.4 11.6-5 19.8-11.6 18.4-14.8-.4-.9-1.6-1.5-3.4-1.6"/><circle id="gXMLID_531_" class="gst4" cx="32" cy="32" r="3"/><circle id="gXMLID_757_" class="gst4" cx="14" cy="28.5" r="1.5"/><circle id="gXMLID_535_" class="gst4" cx="45.2" cy="21.3" r="1.5"/><circle id="gXMLID_756_" class="gst4" cx="27.3" cy="45.7" r="1.5"/><path id="gXMLID_764_" class="gst4" d="M8.5 32.1h4.6"/><path id="gXMLID_533_" class="gst4" d="M22 49.7l2.3-4"/><path id="gXMLID_765_" class="gst4" d="M43.2 48.7l-2.3-3.9"/><path id="gXMLID_766_" class="gst4" d="M55.5 31.9l-4.6.2"/><path id="gXMLID_767_" class="gst4" d="M41.5 13.8l-2.1 4.1"/><path id="gXMLID_768_" class="gst4" d="M20.9 14.8l2.4 3.8"/></g><g id="gXMLID_372_" class="gst0"><g id="gXMLID_369_" class="gst2"><g id="gXMLID_362_"><path id="gXMLID_343_" class="gst3" d="M31 37.5c.9-5.7 1.5-16.8.9-19.8 0-.1.1-.2.2-.2h15.6c.1 0 .2.1.2.2-.5 3.6.1 14.4.9 19.6"/><path id="gXMLID_355_" class="gst3" d="M11.2 50.6V39.7c0-.1.1-.2.2-.2h40.8c.1 0 .2.1.2.2v10.9"/><path id="gXMLID_350_" class="gst3" d="M32.8 22.5h14.6"/><path id="gXMLID_346_" class="gst3" d="M31.8 26h16.1"/><path id="gXMLID_351_" class="gst3" d="M15.5 43.8v2.5h8.4"/><path id="gXMLID_352_" class="gst3" d="M27.2 43.8v2.5h8.5"/><path id="gXMLID_353_" class="gst3" d="M39 43.8v2.5h8.4"/><path id="gXMLID_354_" class="gst3" d="M54.8 54v-3.4H9.2V54"/><path id="gXMLID_360_" class="gst3" d="M22.1 37.5l.8-14.2h2.8l.8 14"/><path id="gXMLID_358_" class="gst3" d="M14.5 37.5l.8-14.2h2.8l.9 14"/></g><path id="gXMLID_367_" class="gst3" d="M6.7 54h26.1"/><path id="gXMLID_365_" class="gst3" d="M57.3 54H45.8"/></g><path id="gXMLID_370_" class="gst4" d="M44.1 15.8v-1.6c0-2.3-1.9-4.3-4.3-4.3H9.2"/><path id="gXMLID_371_" class="gst4" d="M33.8 15.8v-.4c0-1.1-.9-1.9-1.9-1.9h-9.1"/><path id="gXMLID_373_" class="gst4" d="M11.8 13.5H20"/></g><g id="gXMLID_383_" class="gst0"><g id="gXMLID_376_" class="gst2"><path id="gXMLID_382_" class="gst3" d="M15.3 16.1c1.6-1.9 3.6-3.5 5.8-4.7 5.3-3 11.4-3.5 16.8-2s10.3 5.1 13.3 10.5"/><path id="gXMLID_381_" class="gst3" d="M25.9 51.9c-5.4-1.5-10.3-5.1-13.3-10.5-3-5.3-3.5-11.3-2-16.8.3-1.2.8-2.3 1.3-3.5"/><path id="gXMLID_380_" class="gst3" d="M53.6 26.5c.6 3.4.5 6.8-.5 10.1C51.6 42 48 46.9 42.7 49.9c-3.3 1.9-6.9 2.8-10.5 2.8"/><path id="gXMLID_379_" class="gst3" d="M54.2 20.6l-1.6 3-3.1-1.5"/><path id="gXMLID_378_" class="gst3" d="M30.7 55.5l-3-2.9 3-2.9"/><path id="gXMLID_377_" class="gst3" d="M10 19.1l3.5-1.3 1.8 3.4"/></g><g id="gXMLID_375_" class="gst2"><path id="gXMLID_384_" class="gst3" d="M29.9 34.6L24.5 44c2.2 1.3 4.8 2 7.5 2s5.3-.7 7.5-2l-5.4-9.4"/><path id="gXMLID_385_" class="gst3" d="M29.9 27.4L24.5 18C20 20.6 17 25.4 17 31h10.9"/><path id="gXMLID_388_" class="gst3" d="M36.1 31H47c0-5.6-3-10.4-7.5-13L34 27.4"/><circle id="gXMLID_944_" class="gst3" cx="32" cy="31" r="2.3"/></g></g><g id="gXMLID_386_" class="gst0"><g id="gXMLID_393_" class="gst2"><g id="gXMLID_396_"><path id="gXMLID_397_" class="gst3" d="M38.8 26.4s.7 4.9-1.9 7.5c-2.6 2.6-7.5 1.9-7.5 1.9s-.7-4.9 1.9-7.5 7.5-1.9 7.5-1.9z"/></g><g id="gXMLID_394_"><path id="gXMLID_395_" class="gst3" d="M27.6 34.1c-1.1-1.2-2.2-3-2.2-5 0-3.7 4-6.6 4-6.6s1.7 1.3 2.9 3.2"/></g></g><path id="gXMLID_483_" class="gst4" d="M43.1 45.1l-11 7.5h-.2l-11-7.5c-5.7-3.9-9.1-10.4-9.1-17.3V11.9c0-.3.3-.6.6-.6h39.2c.3 0 .6.3.6.6v15.9c0 7-3.4 13.4-9.1 17.3z"/><circle id="gXMLID_389_" class="gst4" cx="32.1" cy="29.2" r="11.4"/><g id="gXMLID_410_" class="gst2"><path id="gXMLID_392_" class="gst3" d="M19.9 14.4H22"/><path id="gXMLID_390_" class="gst3" d="M24.3 14.4h2.1"/><path id="gXMLID_398_" class="gst3" d="M28.7 14.4h2.1"/><path id="gXMLID_402_" class="gst3" d="M33.2 14.4h2.1"/><path id="gXMLID_405_" class="gst3" d="M37.6 14.4h2.1"/><path id="gXMLID_408_" class="gst3" d="M42 14.4h2.1"/></g></g><g id="gXMLID_415_" class="gst0"><path id="gXMLID_419_" class="gst4" d="M33.1 37.8c0 1.3-1 2.3-2.3 2.3-1.3 0-2.3-1-2.3-2.3 0-1.3 2.3-4.5 2.3-4.5s2.3 3.2 2.3 4.5z"/><circle id="gXMLID_418_" class="gst4" cx="30.8" cy="36.7" r="7.7"/><path id="gXMLID_829_" class="gst4" d="M42.9 30.9H44c1.3 0 2.3 1 2.3 2.3v7.6c0 1.3 1 2.3 2.3 2.3 1.3 0 2.3-1 2.3-2.3V19.7c0-.9-.5-2.1-1.2-2.8l-4.4-4"/><path id="gXMLID_827_" class="gst4" d="M38.6 23.6H23.1c-.1 0-.2-.1-.2-.2V13c0-.1.1-.2.2-.2h15.5c.1 0 .2.1.2.2v10.4c-.1.1-.1.2-.2.2z"/><path id="gXMLID_830_" class="gst4" d="M48.1 15.5v6.4l2.8 3.5"/><path id="gXMLID_414_" class="gst4" d="M17.3 54.1v-3.5c0-.1.1-.2.2-.2h27.1c.1 0 .2.1.2.2v3.5"/><path id="gXMLID_407_" class="gst4" d="M42.2 48.6V10.1c0-.1-.1-.2-.2-.2H19.6c-.1 0-.2.1-.2.2v38.6"/><path id="gXMLID_412_" class="gst4" d="M26.4 18.9v-2.8"/><path id="gXMLID_403_" class="gst4" d="M30.4 18.9v-2.8"/><path id="gXMLID_413_" class="gst4" d="M34.3 18.9v-2.8"/><path id="gXMLID_416_" class="gst4" d="M11.1 54.1h41.8"/></g><g id="gXMLID_435_" class="gst0"><g id="gXMLID_430_" class="gst2"><path id="gXMLID_423_" class="gst3" d="M17.4 14.7v-2.1c0-.6.5-1 1-1h5.1c.6 0 1 .5 1 1v2.1"/><path id="gXMLID_425_" class="gst3" d="M12.7 48V19.3"/><path id="gXMLID_420_" class="gst3" d="M29.3 19.3V48"/><path id="gXMLID_427_" class="gst3" d="M19.8 19.1h10v-1.9c0-1.3-1.1-2.4-2.4-2.4H14.6c-1.3 0-2.4 1.1-2.4 2.4v1.9h3.7"/><path id="gXMLID_424_" class="gst3" d="M21.9 47.8h-9.7V50c0 1.3 1.1 2.4 2.4 2.4h12.9c1.3 0 2.4-1.1 2.4-2.4v-2.2h-4.6"/><path id="gXMLID_428_" class="gst3" d="M15.7 34.6v10.6"/><path id="gXMLID_421_" class="gst3" d="M19.1 34.6v10.6"/><path id="gXMLID_429_" class="gst3" d="M22.6 34.6v10.6"/><path id="gXMLID_444_" class="gst3" d="M26 34.6v10.6"/><path id="gXMLID_448_" class="gst3" d="M15.7 31.6v1.6"/><path id="gXMLID_447_" class="gst3" d="M19.1 31.6v1.6"/><path id="gXMLID_446_" class="gst3" d="M22.6 31.6v1.6"/><path id="gXMLID_445_" class="gst3" d="M26 31.6v1.6"/><path id="gXMLID_452_" class="gst3" d="M15.7 28.6v1.6"/><path id="gXMLID_451_" class="gst3" d="M19.1 28.6v1.6"/><path id="gXMLID_450_" class="gst3" d="M22.6 28.6v1.6"/><path id="gXMLID_449_" class="gst3" d="M26 28.6v1.6"/><path id="gXMLID_456_" class="gst3" d="M15.7 25.6v1.6"/><path id="gXMLID_455_" class="gst3" d="M19.1 25.6v1.6"/><path id="gXMLID_454_" class="gst3" d="M22.6 25.6v1.6"/><path id="gXMLID_453_" class="gst3" d="M26 25.6v1.6"/><path id="gXMLID_460_" class="gst3" d="M15.7 22.6v1.6"/><path id="gXMLID_459_" class="gst3" d="M19.1 22.6v1.6"/><path id="gXMLID_458_" class="gst3" d="M22.6 22.6v1.6"/><path id="gXMLID_457_" class="gst3" d="M26 22.6v1.6"/></g><g id="gXMLID_431_" class="gst2"><path id="gXMLID_477_" class="gst3" d="M39.4 14.7v-2.1c0-.6.5-1 1-1h5.1c.6 0 1 .5 1 1v2.1"/><path id="gXMLID_476_" class="gst3" d="M34.7 48V19.3"/><path id="gXMLID_475_" class="gst3" d="M51.3 19.3V48"/><path id="gXMLID_474_" class="gst3" d="M41.8 19.1h10v-1.9c0-1.3-1.1-2.4-2.4-2.4H36.6c-1.3 0-2.4 1.1-2.4 2.4v1.9h3.7"/><path id="gXMLID_473_" class="gst3" d="M43.9 47.8h-9.7V50c0 1.3 1.1 2.4 2.4 2.4h12.9c1.3 0 2.4-1.1 2.4-2.4v-2.2h-4.6"/><path id="gXMLID_472_" class="gst3" d="M37.7 23.4v21.8"/><path id="gXMLID_471_" class="gst3" d="M41.1 23.4v21.8"/><path id="gXMLID_470_" class="gst3" d="M44.6 23.4v21.8"/><path id="gXMLID_469_" class="gst3" d="M48 23.4v21.8"/></g></g></g><g id="gIcon_text" class="gst0"><g id="gXMLID_40_" class="gst2"><text id="gXMLID_363_" transform="translate(-162.384 -77.833)"><tspan x="0" y="0" class="gst7 gst8 gst9">GREEN</tspan><tspan x="-2.2" y="7" class="gst7 gst8 gst9">ENERGY</tspan></text></g><g id="gXMLID_55_" class="gst2"><text id="gXMLID_364_" transform="translate(-73.525 -77.833)"><tspan x="0" y="0" class="gst7 gst8 gst9">ENERGY</tspan><tspan x=".9" y="7" class="gst7 gst8 gst9">SAVING</tspan></text></g><g id="gXMLID_70_" class="gst2"><text id="gXMLID_366_" transform="translate(12.628 -77.834)"><tspan x="0" y="0" class="gst7 gst8 gst9">POWER OF</tspan><tspan x="9.4" y="7" class="gst7 gst8 gst9">WIND</tspan></text></g><g id="gXMLID_101_" class="gst2"><text id="gXMLID_368_" transform="translate(108.72 -77.834)"><tspan x="0" y="0" class="gst7 gst8 gst9">PETROL</tspan><tspan x="4.1" y="7" class="gst7 gst8 gst9">TANK</tspan></text></g><g id="gXMLID_107_" class="gst2"><text id="gXMLID_391_" transform="translate(198.026 -77.834)" class="gst7 gst8 gst9">ECO BAG</text></g><g id="gXMLID_133_" class="gst2"><text id="gXMLID_399_" transform="translate(-162.264 18.834)"><tspan x="0" y="0" class="gst7 gst8 gst9">SOLAR</tspan><tspan x=".2" y="7" class="gst7 gst8 gst9">PANEL</tspan></text></g><g id="gXMLID_163_" class="gst2"><text id="gXMLID_400_" transform="translate(-64.944 18.834)"><tspan x="0" y="0" class="gst7 gst8 gst9">OIL</tspan><tspan x="-4.7" y="7" class="gst7 gst8 gst9">PUMP</tspan></text></g><g id="gXMLID_175_" class="gst2"><text id="gXMLID_401_" transform="translate(18.585 18.834)"><tspan x="0" y="0" class="gst7 gst8 gst9">POWER</tspan><tspan x="7.9" y="7" class="gst7 gst8 gst9">ON</tspan></text></g><g id="gXMLID_185_" class="gst2"><text id="gXMLID_404_" transform="translate(103.312 18.834)"><tspan x="0" y="0" class="gst7 gst8 gst9">POWER OF</tspan><tspan x="4.6" y="7" class="gst7 gst8 gst9">NATURE</tspan></text></g><g id="gXMLID_204_" class="gst2"><text id="gXMLID_406_" transform="translate(201.11 18.834)"><tspan x="0" y="0" class="gst7 gst8 gst9">WATER</tspan><tspan x="-1.6" y="7" class="gst7 gst8 gst9">ENERGY</tspan></text></g><g id="gXMLID_212_" class="gst2"><text id="gXMLID_409_" transform="translate(-167.093 114.667)"><tspan x="0" y="0" class="gst7 gst8 gst9">ELECTRIC</tspan><tspan x="3.9" y="7" class="gst7 gst8 gst9">POWER</tspan></text></g><g id="gXMLID_230_" class="gst2"><text id="gXMLID_422_" transform="translate(-75.617 114.667)"><tspan x="0" y="0" class="gst7 gst8 gst9">BIOMASS</tspan><tspan x="2.1" y="7" class="gst7 gst8 gst9">ENERGY</tspan></text></g><g id="gXMLID_251_" class="gst2"><text id="gXMLID_426_" transform="translate(24.258 114.668)"><tspan x="0" y="0" class="gst7 gst8 gst9">ECO</tspan><tspan x="-7" y="7" class="gst7 gst8 gst9">ENERGY</tspan></text></g><g id="gXMLID_253_" class="gst2"><text id="gXMLID_433_" transform="translate(117.326 114.667)"><tspan x="0" y="0" class="gst7 gst8 gst9">OIL</tspan><tspan x="-8.4" y="7" class="gst7 gst8 gst9">BARREL</tspan></text></g><g id="gXMLID_283_" class="gst2"><text id="gXMLID_466_" transform="translate(198.087 114.667)" class="gst7 gst8 gst9">BATTERY</text></g><g id="gXMLID_278_" class="gst2"><text id="gXMLID_467_" transform="translate(-167.546 210.417)"><tspan x="0" y="0" class="gst7 gst8 gst9">SAVE THE</tspan><tspan x="5.3" y="7" class="gst7 gst8 gst9">EARTH</tspan></text></g><g id="gXMLID_309_" class="gst2"><text id="gXMLID_468_" transform="translate(-81.362 210.416)"><tspan x="0" y="0" class="gst7 gst8 gst9">RENEWABLE</tspan><tspan x="8.1" y="7" class="gst7 gst8 gst9">ENERGY</tspan></text></g><g id="gXMLID_147_" class="gst2"><text id="gXMLID_478_" transform="translate(108.476 210.417)"><tspan x="0" y="0" class="gst7 gst8 gst9">ENERGY</tspan><tspan x="-12.8" y="7" class="gst7 gst8 gst9">DEVELOPMENT</tspan></text></g><g id="gXMLID_342_" class="gst2"><text id="gXMLID_479_" transform="translate(11.26 209.567)"><tspan x="0" y="0" class="gst7 gst8 gst9">RECYCLING</tspan><tspan x="13.4" y="7" class="gst7 gst8 gst9"> BIN</tspan></text></g><g id="gXMLID_348_" class="gst2"><text id="gXMLID_480_" transform="translate(202.993 210.416)"><tspan x="0" y="0" class="gst7 gst8 gst9">ATOM</tspan><tspan x="-3.8" y="7" class="gst7 gst8 gst9">ENERGY</tspan></text></g><g id="gXMLID_374_" class="gst2"><text id="gXMLID_481_" transform="translate(-163.61 305.166)"><tspan x="0" y="0" class="gst7 gst8 gst9">POWER</tspan><tspan x="1.7" y="7" class="gst7 gst8 gst9">PLANT</tspan></text></g><g id="gXMLID_387_" class="gst2"><text id="gXMLID_482_" transform="translate(-76.807 305.166)"><tspan x="0" y="0" class="gst7 gst8 gst9">NUCLEAR</tspan><tspan x="3.8" y="7" class="gst7 gst8 gst9">POWER</tspan></text></g><g id="gXMLID_411_" class="gst2"><text id="gXMLID_484_" transform="translate(198.902 305.165)"><tspan x="0" y="0" class="gst7 gst8 gst9">NATURE</tspan><tspan x="-8.8" y="7" class="gst7 gst8 gst9">PROTECTION</tspan></text></g><g id="gXMLID_417_" class="gst2"><text id="gXMLID_485_" transform="translate(115.887 305.166)"><tspan x="0" y="0" class="gst7 gst8 gst9">GAS</tspan><tspan x="-8.5" y="7" class="gst7 gst8 gst9">STATION</tspan></text></g><g id="gXMLID_432_" class="gst2"><text id="gXMLID_486_" transform="translate(12.607 305.166)"><tspan x="0" y="0" class="gst7 gst8 gst9">CHARGING</tspan><tspan x="3.4" y="7" class="gst7 gst8 gst9">BATTERY</tspan></text></g></g><g id="gheadline" class="gst0"><circle id="gXMLID_61_" class="gst10" cx="-133.5" cy="-208.4" r="18.3"/><circle id="gXMLID_60_" class="gst11" cx="-110.1" cy="-208.4" r="18.3"/><circle id="gXMLID_63_" class="gst12" cx="-122.7" cy="-190.1" r="18.3"/><g id="gXMLID_1_" class="gst2"><text id="gXMLID_487_" transform="translate(-183.755 -194.085)"><tspan x="0" y="0" fill="#231f20" font-family="Oswald-Bold" font-size="22.512">FLAT </tspan><tspan x="45.5" y="0" fill="#231f20" font-family="Oswald-Light" font-size="22.512">LINE </tspan><tspan x="83.9" y="0" fill="#231f20" font-family="Oswald-Bold" font-size="22.512">ICONS</tspan></text></g><g id="gXMLID_2_" class="gst2"><text id="gXMLID_488_" transform="translate(131.192 -193.906)" fill="#231f20" font-family="Oswald-Light" font-size="16.174">POWER &amp; ENERGY</text></g></g></svg><svg viewBox="0 0 512 512" id="route" xmlns="http://www.w3.org/2000/svg"><path d="M94.744 296.184C85.927 301.414 80 311.026 80 322c0 16.542 13.458 30 30 30 13.036 0 24.152-8.361 28.28-20H216c16.542 0 30 13.458 30 30s-13.458 30-30 30H96c-27.57 0-50 22.43-50 50s22.43 50 50 50h100c5.523 0 10-4.477 10-10s-4.477-10-10-10H96c-16.542 0-30-13.458-30-30s13.458-30 30-30h120c27.57 0 50-22.43 50-50s-22.43-50-50-50h-77.72a30.15 30.15 0 00-13.024-15.816l76.378-125.316C213.649 152.808 220 131.764 220 110 220 49.346 170.654 0 110 0S0 49.346 0 110c0 21.764 6.351 42.808 18.366 60.868zM110 332c-5.514 0-10-4.486-10-10s4.486-10 10-10 10 4.486 10 10-4.486 10-10 10zm0-312c49.626 0 90 40.374 90 90 0 17.868-5.227 35.135-15.115 49.935a9.078 9.078 0 00-.224.351L110 282.785S35.192 160.05 35.115 159.935C25.227 145.135 20 127.868 20 110c0-49.626 40.374-90 90-90z"/><path d="M110 160c27.57 0 50-22.43 50-50s-22.43-50-50-50-50 22.43-50 50 22.43 50 50 50zm0-80c16.542 0 30 13.458 30 30s-13.458 30-30 30-30-13.458-30-30 13.458-30 30-30zM402 166c-60.654 0-110 49.346-110 110 0 21.799 6.371 42.875 18.424 60.954l76.093 119.36A30.154 30.154 0 00373.721 472H286c-5.523 0-10 4.477-10 10s4.477 10 10 10h87.72c4.128 11.639 15.243 20 28.28 20 16.542 0 30-13.458 30-30 0-10.881-5.823-20.426-14.516-25.686l76.093-119.36C505.629 318.875 512 297.799 512 276c0-60.654-49.346-110-110-110zm0 326c-5.514 0-10-4.486-10-10s4.486-10 10-10 10 4.486 10 10-4.486 10-10 10zm74.885-166.065L402 443.397s-74.846-117.403-74.885-117.462C317.227 311.135 312 293.868 312 276c0-49.626 40.374-90 90-90s90 40.374 90 90c0 17.868-5.227 35.135-15.115 49.935z"/><path d="M402 226c-27.57 0-50 22.43-50 50s22.43 50 50 50 50-22.43 50-50-22.43-50-50-50zm0 80c-16.542 0-30-13.458-30-30s13.458-30 30-30 30 13.458 30 30-13.458 30-30 30z"/><circle cx="241" cy="482" r="10"/></svg><svg viewBox="0 0 21 16" id="send" xmlns="http://www.w3.org/2000/svg"><path data-name="Rounded Rectangle 873 copy 3" class="icls-1" d="M21 .856a.949.949 0 010 .226v.02a.955.955 0 01-.112.357L15.93 12.342a.927.927 0 01-.046.153.974.974 0 01-.179.214.974.974 0 01-.28.2c-.017.008-.032.019-.05.026a.972.972 0 01-.267.063 1.07 1.07 0 01-.127.012.989.989 0 01-.213-.036 1.01 1.01 0 01-.132-.022c-.021-.009-.035-.027-.056-.036s-.036-.007-.052-.016l-3.133-1.8-3.523 4.4a22.232 22.232 0 01-.2.229.96.96 0 01-.218.147 1.048 1.048 0 01-.1.047.975.975 0 01-.3.06c-.019 0-.035.011-.054.011h-.026a.968.968 0 01-.293-.06.821.821 0 01-.1-.033.792.792 0 01-.082-.028.906.906 0 01-.131-.116.73.73 0 01-.233-.284.887.887 0 01-.069-.142 1.032 1.032 0 01-.043-.213A.964.964 0 016 15V8.014L.68 4.964a.979.979 0 01-.618-.621 1.19 1.19 0 01-.044-.118c0-.014-.012-.024-.014-.039a.749.749 0 010-.082.966.966 0 011.118-1.112L19.851 0c.027 0 .052.005.078 0s.047 0 .071 0a.98.98 0 01.307.037.906.906 0 01.089.042.96.96 0 01.233.128 1.008 1.008 0 01.122.13.957.957 0 01.119.15c.011.018.029.029.039.048a1 1 0 01.059.212.661.661 0 01.028.074.226.226 0 01.004.035zm-6.453 9.739l3.332-7.314-8.3 4.467zM8 12.17l1.651-2.064L8 9.16v3.01zm-.462-5.59l6.83-3.676L4.009 4.557z"/></svg><svg viewBox="0 -10 511.987 511" id="star" xmlns="http://www.w3.org/2000/svg"><path d="M510.652 185.902a27.158 27.158 0 00-23.425-18.71l-147.774-13.419-58.433-136.77C276.71 6.98 266.898.494 255.996.494s-20.715 6.487-25.023 16.534l-58.434 136.746-147.797 13.418A27.208 27.208 0 001.34 185.902c-3.371 10.368-.258 21.739 7.957 28.907l111.7 97.96-32.938 145.09c-2.41 10.668 1.73 21.696 10.582 28.094 4.757 3.438 10.324 5.188 15.937 5.188 4.84 0 9.64-1.305 13.95-3.883l127.468-76.184 127.422 76.184c9.324 5.61 21.078 5.097 29.91-1.305a27.223 27.223 0 0010.582-28.094l-32.937-145.09 111.699-97.94a27.224 27.224 0 007.98-28.927zm0 0" fill="#ffc107"/></svg><svg viewBox="0 0 512.001 512.001" id="startup" xmlns="http://www.w3.org/2000/svg"><path d="M268.662 243.351a10 10 0 00-14.15 0c-3.9 3.9-3.9 10.23 0 14.14 3.91 3.9 10.24 3.9 14.15 0 3.9-3.91 3.9-10.24 0-14.14zM395.933 116.07c-19.54-19.539-51.172-19.54-70.713 0-19.489 19.489-19.49 51.209.003 70.714 19.496 19.484 51.216 19.492 70.71-.002 19.538-19.538 19.542-51.171 0-70.712zm-14.142 56.569c-11.693 11.694-30.727 11.694-42.426.002-11.695-11.702-11.696-30.736-.002-42.429 11.723-11.723 30.703-11.725 42.428 0 11.723 11.722 11.725 30.703 0 42.427z"/><path d="M509.07 2.929a9.965 9.965 0 00-7.43-2.922c-2.261.081-56.096 2.245-120.091 24.864-51.28 18.106-94.023 44.029-127.042 77.049a380.537 380.537 0 00-21.488 23.396c-32.648-19.218-58.81-13.192-75.349-4.341-38.081 20.38-61.652 75.716-61.652 115.296a10.007 10.007 0 0010.001 10 10 10 0 007.073-2.929c20.083-20.083 44.854-18.827 52.946-17.763l3.502 3.502c-6.892 16.4-12.444 32.708-16.516 48.569-1.47 5.74-.974 11.814 1.211 17.37-9.628 4.437-18.917 10.952-27.005 19.04-25.741 25.742-30.968 88.476-31.178 91.134a10 10 0 0010.755 10.756c2.658-.209 65.394-5.436 91.135-31.177 8.085-8.085 14.599-17.373 19.036-26.999 5.882 2.313 11.936 2.598 17.38 1.203 15.854-4.071 32.16-9.621 48.562-16.514l3.502 3.502c1.063 8.093 2.319 32.864-17.763 52.945a10 10 0 007.071 17.07c39.58 0 94.915-23.571 115.295-61.652 8.851-16.537 14.877-42.699-4.341-75.348a380.674 380.674 0 0023.396-21.488c33.02-33.02 58.942-75.763 77.048-127.039 22.62-63.998 24.783-117.834 24.864-120.094.1-2.775-.959-5.466-2.922-7.43zM118.376 214.762c6.212-30.063 24.255-63.052 48.735-76.154 16.359-8.754 34.24-7.896 53.252 2.511a404.33 404.33 0 00-42.015 68.487c-.149-.092-1.949-2.355-5.293-3.109-1.375-.311-27.834-6.002-54.679 8.265zM183.8 370.63c-13.75 13.75-46.005 21.002-66.392 23.963 2.962-20.388 10.215-52.642 23.964-66.391 7.7-7.7 16.628-13.538 25.602-16.826l33.652 33.652c-3.288 8.974-9.125 17.902-16.826 25.602zm45.59-31.027c-2.894.741-6.246-.347-8.738-2.835l-19.586-19.585-25.826-25.827c-2.494-2.499-3.582-5.85-2.843-8.739 3.203-12.474 7.392-25.272 12.486-38.193l82.695 82.695c-12.923 5.095-25.719 9.283-38.188 12.484zm144.004 5.288c-13.102 24.479-46.09 42.523-76.152 48.734 9.585-18.037 11.698-40.998 8.196-54.921-.813-3.234-2.923-4.86-3.041-5.051a404.48 404.48 0 0068.486-42.015c10.407 19.014 11.264 36.897 2.511 53.253zM395.94 243.35a362.965 362.965 0 01-28.84 25.872c-24.342 19.6-51.134 36.202-79.718 49.418l-94.02-94.018c13.216-28.586 29.818-55.378 49.416-79.717 8.164-10.133 16.868-19.837 25.875-28.843 29.625-29.626 67.859-53.204 113.671-70.176l83.792 83.792c-16.97 45.811-40.548 84.045-70.176 113.672zm77.371-134.763l-69.896-69.896c38.081-11.828 71.21-16.257 87.746-17.849-1.593 16.539-6.023 49.668-17.85 87.745z"/><path d="M240.371 413.049c-3.907-3.905-10.239-3.903-14.143.002l-28.28 28.29c-3.904 3.906-3.903 10.238.002 14.142 3.907 3.904 10.239 3.904 14.143-.002l28.28-28.29c3.904-3.906 3.903-10.238-.002-14.142zM98.954 271.631c-3.904-3.906-10.235-3.906-14.142-.002l-28.29 28.28c-3.906 3.904-3.907 10.236-.003 14.142 3.903 3.904 10.234 3.908 14.142.002l28.29-28.28c3.906-3.904 3.907-10.236.003-14.142zM169.663 427.2c-3.903-3.905-10.236-3.905-14.142-.001l-67.74 67.73c-3.906 3.905-3.906 10.237-.001 14.142 3.903 3.905 10.236 3.907 14.142.001l67.74-67.73c3.906-3.905 3.906-10.237.001-14.142zM89.663 427.2c-3.904-3.905-10.237-3.905-14.142-.001l-67.74 67.73c-3.906 3.905-3.906 10.237-.001 14.142 3.903 3.905 10.236 3.907 14.142.001l67.74-67.73c3.906-3.905 3.906-10.237.001-14.142zM84.802 342.338c-3.904-3.904-10.237-3.904-14.142.001l-67.73 67.74c-3.905 3.906-3.905 10.237.001 14.143 3.905 3.905 10.237 3.905 14.142-.001l67.73-67.74c3.905-3.906 3.905-10.237-.001-14.143zM311.083 200.919c-3.906-3.905-10.236-3.905-14.143 0l-14.14 14.14c-3.905 3.905-3.905 10.237 0 14.143 3.906 3.905 10.237 3.905 14.143 0l14.14-14.14c3.905-3.905 3.905-10.237 0-14.143z"/></svg><svg viewBox="0 0 14 15" id="telegram" xmlns="http://www.w3.org/2000/svg"><g clip-path="url(#lclip0_4_643)"><path d="M13.896.601a.392.392 0 00-.47-.11L.245 6.673A.441.441 0 000 7.065a.444.444 0 00.23.404l3.146 1.659.784 5.04a.426.426 0 00.349.373c.131.02.261-.029.352-.129l2.484-2.662 3.545 2.714c.114.087.26.106.39.05a.434.434 0 00.251-.322L13.992.98A.46.46 0 0013.896.6zM3.7 8.32L1.384 7.1l9.155-4.295L3.7 8.32zm1.284 1.307l-.382 2.043-.411-2.645 5.03-4.058-4.126 4.436a.457.457 0 00-.111.224zm.25 3.143l.43-2.305 1.003.768-1.434 1.537zm5.616.584L6.018 9.655l6.904-7.42-2.071 11.118z"/></g><defs><clipPath id="lclip0_4_643"><path fill="#fff" d="M0 0h14v15H0z"/></clipPath></defs></svg><svg viewBox="0 0 512 512" id="twitter" xmlns="http://www.w3.org/2000/svg"><path d="M256 0C114.637 0 0 114.637 0 256s114.637 256 256 256 256-114.637 256-256S397.363 0 256 0zm116.887 199.602c.113 2.52.168 5.05.168 7.593 0 77.645-59.102 167.18-167.184 167.184h.004-.004c-33.184 0-64.062-9.727-90.066-26.395 4.597.543 9.277.813 14.015.813 27.532 0 52.868-9.39 72.98-25.152-25.722-.477-47.41-17.465-54.894-40.813a58.481 58.481 0 0011.043 1.063c5.363 0 10.559-.723 15.496-2.07-26.886-5.384-47.14-29.145-47.14-57.598 0-.266 0-.504.007-.75a58.354 58.354 0 0026.614 7.347c-15.778-10.527-26.149-28.523-26.149-48.91a58.597 58.597 0 017.957-29.535c28.977 35.555 72.282 58.937 121.118 61.394a58.708 58.708 0 01-1.528-13.398c0-32.437 26.317-58.754 58.766-58.754 16.902 0 32.168 7.145 42.89 18.567a117.855 117.855 0 0037.313-14.262c-4.395 13.715-13.707 25.222-25.84 32.5 11.887-1.422 23.215-4.574 33.742-9.254a119.412 119.412 0 01-29.308 30.43zm0 0"/></svg><svg viewBox="0 0 17 16" id="viber" xmlns="http://www.w3.org/2000/svg"><g clip-path="url(#nclip0_4_622)"><path d="M14.947 1.79C13.603.55 11.431-.05 8.49.003c-2.967.055-4.95.545-6.24 1.543C1 2.51.418 3.92.418 5.986v2.107c0 2.438 1.388 5.118 4.04 5.524.307.047.595-.149.645-.437.05-.288-.158-.56-.464-.607-2.012-.307-3.098-2.537-3.098-4.48V5.986c0-2.961 1.166-4.818 6.969-4.926 2.63-.049 4.53.451 5.65 1.485.873.806 1.297 1.931 1.297 3.44v2.108c0 3.192-1.522 4.6-5.426 5.014H7.264a.58.58 0 00-.397.155l-1.95 1.835a.507.507 0 000 .748c.11.103.253.155.397.155a.578.578 0 00.397-.155l1.786-1.68h2.567c.02 0 .041-.002.062-.004 2.234-.233 3.764-.78 4.814-1.722 1.104-.99 1.641-2.412 1.641-4.346V5.986c0-1.784-.55-3.195-1.634-4.196z"/><path d="M8.85 3.453c.906 0 1.757.332 2.397.934.64.603.993 1.404.993 2.256 0 .292.251.529.561.529.31 0 .562-.237.562-.529 0-1.134-.47-2.201-1.322-3.003a4.628 4.628 0 00-3.19-1.244c-.31 0-.562.237-.562.529 0 .292.251.528.562.528z"/><path d="M8.85 5.312c.78 0 1.414.597 1.414 1.331 0 .292.252.529.562.529.31 0 .562-.237.562-.53 0-1.316-1.139-2.387-2.537-2.387-.31 0-.562.237-.562.529 0 .292.251.528.561.528zM6.332 6.218a.51.51 0 00-.147.735.584.584 0 00.78.138c.202-.13.674-.433.64-1.04-.02-.363-.368-.881-.657-1.253-.421-.542-.785-.87-1.077-.97a1.318 1.318 0 00-.85-.007c-.604.191-1.041.537-1.266 1-.22.45-.215.967.014 1.496a9.86 9.86 0 002.25 3.247c.962.895 2.122 1.606 3.446 2.114.287.11.57.164.843.164.261 0 .513-.05.747-.151.491-.212.858-.624 1.061-1.192a1.106 1.106 0 00-.005-.798c-.109-.277-.456-.62-1.033-1.016-.394-.271-.945-.599-1.333-.619-.643-.03-.965.413-1.103.603a.51.51 0 00.146.734.584.584 0 00.781-.137.845.845 0 01.116-.14c.316.096 1.215.717 1.377.956.004.015.004.038-.01.08-.071.198-.21.457-.465.568-.24.103-.512.04-.698-.031-1.187-.456-2.223-1.09-3.075-1.883a8.804 8.804 0 01-2.005-2.898c-.075-.175-.143-.432-.033-.657.117-.24.393-.37.602-.437a.162.162 0 01.087-.01c.253.153.913.999 1.014 1.295a.901.901 0 01-.147.11z"/></g><defs><clipPath id="nclip0_4_622"><path fill="#fff" d="M0 0h17v16H0z"/></clipPath></defs></svg><svg viewBox="0 0 16 17" id="ws" xmlns="http://www.w3.org/2000/svg"><path fill-rule="evenodd" clip-rule="evenodd" d="M13.311 2.84C11.906 1.345 10.038.523 8.048.522 3.948.523.61 4.066.608 8.42c0 1.392.342 2.75.993 3.948L.545 16.46l3.945-1.098c1.086.63 2.31.961 3.555.961h.003c4.1 0 7.439-3.543 7.44-7.897.001-2.11-.772-4.094-2.177-5.587zM8.048 14.99h-.002a5.908 5.908 0 01-3.148-.915l-.226-.143-2.34.652.625-2.422-.148-.248a6.848 6.848 0 01-.945-3.494c.001-3.619 2.776-6.563 6.187-6.563 1.651 0 3.204.684 4.371 1.925 1.168 1.24 1.81 2.89 1.81 4.644-.001 3.619-2.775 6.564-6.184 6.564zm3.392-4.916c-.186-.1-1.1-.576-1.27-.642-.17-.066-.295-.1-.418.098-.124.198-.48.642-.59.774-.108.132-.216.148-.402.05-.186-.1-.785-.308-1.495-.98-.552-.523-.926-1.17-1.034-1.367-.108-.198-.001-.294.081-.403.202-.265.403-.543.465-.675.062-.131.031-.247-.015-.345-.047-.1-.419-1.07-.573-1.466-.151-.384-.305-.332-.419-.338a7 7 0 00-.356-.007.666.666 0 00-.496.247c-.17.197-.65.675-.65 1.646 0 .971.666 1.91.759 2.041.093.132 1.31 2.125 3.175 2.98.444.203.79.325 1.06.415.446.15.85.13 1.171.079.357-.057 1.1-.478 1.255-.939.155-.46.155-.856.108-.938-.046-.082-.17-.132-.356-.23z"/></svg><svg viewBox="0 0 97.75 97.75" id="youtube-logotype" xmlns="http://www.w3.org/2000/svg"><path d="M25.676 52.482h3.875v20.973h3.666V52.482h3.947v-3.435H25.676zM56.674 55.046c-1.212 0-2.343.662-3.406 1.972v-7.972h-3.295v24.409h3.295v-1.762c1.103 1.361 2.233 2.013 3.406 2.013 1.311 0 2.193-.69 2.633-2.044.221-.771.334-1.982.334-3.665v-7.242c0-1.722-.113-2.924-.334-3.655-.439-1.364-1.323-2.054-2.633-2.054zm-.33 13.209c0 1.644-.482 2.454-1.434 2.454-.541 0-1.092-.259-1.643-.811V58.814c.551-.545 1.102-.803 1.643-.803.951 0 1.434.842 1.434 2.482v7.762zM43.824 69.167c-.731 1.033-1.422 1.542-2.084 1.542-.44 0-.691-.259-.771-.771-.03-.106-.03-.508-.03-1.28v-13.39h-3.296v14.379c0 1.285.111 2.153.291 2.705.331.922 1.063 1.354 2.123 1.354 1.213 0 2.457-.732 3.767-2.234v1.984h3.298V55.268h-3.298v13.899zM46.653 38.466c1.073 0 1.588-.851 1.588-2.551v-7.731c0-1.701-.515-2.548-1.588-2.548-1.074 0-1.59.848-1.59 2.548v7.731c0 1.701.516 2.551 1.59 2.551z"/><path d="M48.875 0C21.882 0 0 21.882 0 48.875S21.882 97.75 48.875 97.75 97.75 75.868 97.75 48.875 75.868 0 48.875 0zm5.436 22.86h3.321v13.532c0 .781 0 1.186.04 1.295.073.516.335.78.781.78.666 0 1.365-.516 2.104-1.559V22.86h3.33v18.379h-3.33v-2.004c-1.326 1.52-2.59 2.257-3.805 2.257-1.072 0-1.812-.435-2.146-1.365-.184-.557-.295-1.436-.295-2.733V22.86zm-12.578 5.993c0-1.965.334-3.401 1.042-4.33.921-1.257 2.218-1.885 3.878-1.885 1.668 0 2.964.628 3.885 1.885.698.928 1.032 2.365 1.032 4.33v6.436c0 1.954-.334 3.403-1.032 4.322-.921 1.254-2.217 1.881-3.885 1.881-1.66 0-2.957-.627-3.878-1.881-.708-.919-1.042-2.369-1.042-4.322v-6.436zm-8.906-12.277l2.622 9.685 2.519-9.685h3.735L37.26 31.251v9.989h-3.692v-9.989c-.335-1.77-1.074-4.363-2.259-7.803-.778-2.289-1.589-4.585-2.367-6.872h3.885zm42.359 58.485c-.668 2.899-3.039 5.039-5.894 5.358-6.763.755-13.604.759-20.42.755-6.813.004-13.658 0-20.419-.755-2.855-.319-5.227-2.458-5.893-5.358-.951-4.129-.951-8.638-.951-12.89s.012-8.76.962-12.89c.667-2.9 3.037-5.04 5.892-5.358 6.762-.755 13.606-.759 20.421-.755 6.813-.004 13.657 0 20.419.755 2.855.319 5.227 2.458 5.896 5.358.948 4.13.942 8.638.942 12.89s-.004 8.761-.955 12.89z"/><path d="M67.17 55.046c-1.686 0-2.995.619-3.947 1.864-.699.92-1.018 2.342-1.018 4.285v6.371c0 1.933.357 3.365 1.059 4.276.951 1.242 2.264 1.863 3.988 1.863 1.721 0 3.072-.651 3.984-1.972.4-.584.66-1.245.77-1.975a25.5 25.5 0 00.07-2.124v-.479h-3.361c0 1.32-.043 2.053-.072 2.232-.188.881-.662 1.321-1.473 1.321-1.132 0-1.686-.84-1.686-2.522V64.96h6.592v-3.767c0-1.943-.329-3.365-1.02-4.285-.921-1.242-2.232-1.862-3.886-1.862zm1.612 7.172h-3.296v-1.683c0-1.682.553-2.523 1.654-2.523 1.09 0 1.642.842 1.642 2.523v1.683z"/></svg></svg>