<svg width="77" height="77" viewBox="0 0 77 77" fill="none" xmlns="http://www.w3.org/2000/svg">
<g clip-path="url(#clip0_413_7)">
<path d="M16.0917 28.5743C16.0917 41.0132 26.2114 51.1329 38.6504 51.1329C51.0893 51.1329 61.209 41.0132 61.209 28.5743C61.209 16.1353 51.0893 6.01562 38.6504 6.01562C26.2114 6.01562 16.0917 16.1353 16.0917 28.5743ZM38.6504 9.02344C49.4309 9.02344 58.2012 17.7937 58.2012 28.5743C58.2012 39.3548 49.4309 48.1251 38.6504 48.1251C27.8698 48.1251 19.0996 39.3548 19.0996 28.5743C19.0996 17.7937 27.8698 9.02344 38.6504 9.02344Z" fill="#F88500"/>
<path d="M24.7228 25.8931L30.5522 31.6367L29.211 39.7091C29.1176 40.2713 29.3497 40.8376 29.8108 41.1725C30.2714 41.5073 30.8818 41.5526 31.3876 41.2905L38.6504 37.519L45.9126 41.2905C46.4143 41.5508 47.0247 41.5103 47.4894 41.1725C47.9505 40.8376 48.1826 40.2713 48.0892 39.7091L46.748 31.6367L52.5774 25.8931C52.9834 25.4936 53.1285 24.8991 52.9522 24.3569C52.776 23.8152 52.3089 23.4199 51.7456 23.3347L43.6556 22.1169L39.9951 14.7965C39.7407 14.2871 39.2196 13.9652 38.6504 13.9652C38.0806 13.9652 37.5601 14.2871 37.3051 14.7965L33.6446 22.1169L25.5546 23.3347C24.9913 23.4193 24.5242 23.8152 24.348 24.3569C24.1717 24.8991 24.3174 25.4936 24.7228 25.8931ZM34.8648 24.9749C35.3488 24.902 35.7671 24.5983 35.9862 24.1607L38.6504 18.8318L41.3145 24.1607C41.5337 24.5983 41.9519 24.902 42.436 24.9749L48.3242 25.8614L44.0809 30.0412C43.7326 30.3848 43.5728 30.8766 43.6527 31.3595L44.629 37.2347L39.343 34.4901C39.1262 34.3773 38.8883 34.3209 38.6504 34.3209C38.4125 34.3209 38.1745 34.3773 37.9572 34.4901L32.6712 37.2347L33.6475 31.3595C33.728 30.8766 33.5682 30.3848 33.2193 30.0412L28.9766 25.8614L34.8648 24.9749Z" fill="#F88500"/>
<path d="M40.1543 1.50391C40.1543 2.33458 39.4811 3.00782 38.6504 3.00782C37.8197 3.00782 37.1465 2.33458 37.1465 1.50391C37.1465 0.673234 37.8197 0 38.6504 0C39.4811 0 40.1543 0.673234 40.1543 1.50391Z" fill="#F88500"/>
<path d="M31.5626 0.886455C18.9116 4.11575 10.0761 15.5014 10.0761 28.5742C10.0761 36.6936 13.4899 44.3441 19.4826 49.7623L10.4221 65.7302C10.1307 66.2442 10.1672 66.881 10.5149 67.358C10.8627 67.8356 11.4572 68.0653 12.0359 67.9449L22.3253 65.8083L25.9418 75.999C26.138 76.5536 26.6402 76.9419 27.2265 76.9942C27.8128 77.0465 28.375 76.751 28.6658 76.2393L38.6504 58.6859L48.6343 76.2393C48.9034 76.7122 49.4039 76.9995 49.9408 76.9995C49.9849 76.9995 50.0295 76.9977 50.0736 76.9942C50.6599 76.9419 51.1622 76.553 51.359 75.999L54.9748 65.8083L65.2643 67.9449C65.8423 68.0648 66.4374 67.8351 66.7852 67.358C67.1336 66.881 67.1694 66.2442 66.878 65.7302L57.8176 49.7623C63.8103 44.3441 67.224 36.6936 67.224 28.5742C67.224 15.5014 58.3886 4.11575 45.7381 0.886455C44.9327 0.680843 44.1144 1.16668 43.9088 1.9715C43.7031 2.77633 44.189 3.59525 44.9938 3.80087C56.3119 6.69001 64.2168 16.8772 64.2168 28.5742C64.2168 42.8103 52.6549 54.1407 38.6504 54.1407C24.6358 54.1407 13.0839 42.8009 13.0839 28.5742C13.0839 16.8772 20.9883 6.69001 32.3063 3.80087C33.1112 3.59525 33.597 2.77633 33.392 1.9715C33.1864 1.16668 32.368 0.680843 31.5626 0.886455ZM27.6771 71.895L24.7216 63.5665C24.4702 62.8581 23.7347 62.4439 22.9986 62.5966L14.6783 64.3244L21.8489 51.6868C26.0299 54.7264 30.9804 56.5781 36.1284 57.0363L27.6771 71.895ZM54.3016 62.5966C53.5661 62.4439 52.83 62.8581 52.5786 63.5665L49.6236 71.895L41.1718 57.0363C46.3203 56.5781 51.2703 54.7264 55.4518 51.6868L62.6224 64.3244L54.3016 62.5966Z" fill="#F88500"/>
</g>
<defs>
<clipPath id="clip0_413_7">
<rect width="77" height="77" fill="white"/>
</clipPath>
</defs>
</svg>
