<svg width="85" height="85" viewBox="0 0 85 85" fill="none" xmlns="http://www.w3.org/2000/svg">
<path d="M27.8906 50.4688C26.4984 50.4649 25.1403 50.9 24.0094 51.7121C22.8786 52.5243 22.0324 53.6722 21.5912 54.9927C21.1501 56.3132 21.1363 57.7392 21.5519 59.068C21.9675 60.3968 22.7913 61.5608 23.9062 62.3946V70.3906C23.9062 71.4473 24.326 72.4608 25.0732 73.208C25.8205 73.9552 26.8339 74.375 27.8906 74.375C28.9473 74.375 29.9608 73.9552 30.708 73.208C31.4552 72.4608 31.875 71.4473 31.875 70.3906V62.3946C32.99 61.5608 33.8138 60.3968 34.2294 59.068C34.645 57.7392 34.6312 56.3132 34.19 54.9927C33.7488 53.6722 32.9027 52.5243 31.7718 51.7121C30.641 50.9 29.2829 50.4649 27.8906 50.4688ZM29.8789 60.5373C29.6781 60.6542 29.5115 60.8217 29.3956 61.0231C29.2798 61.2245 29.2188 61.4528 29.2188 61.6852V70.3906C29.2188 70.7429 29.0788 71.0807 28.8298 71.3298C28.5807 71.5788 28.2429 71.7188 27.8906 71.7188C27.5384 71.7188 27.2006 71.5788 26.9515 71.3298C26.7024 71.0807 26.5625 70.7429 26.5625 70.3906V61.6852C26.5624 61.4528 26.5014 61.2246 26.3856 61.0232C26.2697 60.8218 26.1031 60.6542 25.9023 60.5373C25.2962 60.1935 24.7921 59.6951 24.4414 59.0929C24.0907 58.4907 23.9061 57.8062 23.9062 57.1094C23.9062 56.0527 24.326 55.0392 25.0732 54.292C25.8205 53.5448 26.8339 53.125 27.8906 53.125C28.9473 53.125 29.9608 53.5448 30.708 54.292C31.4552 55.0392 31.875 56.0527 31.875 57.1094C31.8752 57.8062 31.6905 58.4907 31.3398 59.0929C30.9892 59.6951 30.4851 60.1935 29.8789 60.5373V60.5373ZM71.7188 19.9219H49.1406V9.29688C49.1386 7.53631 48.4383 5.84844 47.1933 4.60353C45.9484 3.35862 44.2606 2.65832 42.5 2.65625H13.2812C11.5207 2.65832 9.83281 3.35862 8.5879 4.60353C7.34299 5.84844 6.64269 7.53631 6.64062 9.29688V75.7031C6.64269 77.4637 7.34299 79.1516 8.5879 80.3965C9.83281 81.6414 11.5207 82.3417 13.2812 82.3438H42.5C44.2606 82.3417 45.9484 81.6414 47.1933 80.3965C48.4383 79.1516 49.1386 77.4637 49.1406 75.7031V33.2031H71.7188C73.4799 33.2031 75.169 32.5035 76.4144 31.2581C77.6597 30.0128 78.3594 28.3237 78.3594 26.5625C78.3594 24.8013 77.6597 23.1122 76.4144 21.8669C75.169 20.6215 73.4799 19.9219 71.7188 19.9219ZM46.4844 75.7031C46.4832 76.7595 46.0631 77.7723 45.3161 78.5192C44.5691 79.2662 43.5564 79.6863 42.5 79.6875H13.2812C12.2249 79.6863 11.2121 79.2662 10.4651 78.5192C9.71818 77.7723 9.29803 76.7595 9.29688 75.7031V9.29688C9.29803 8.24051 9.71818 7.22774 10.4651 6.48077C11.2121 5.7338 12.2249 5.31365 13.2812 5.3125H42.5C43.5564 5.31365 44.5691 5.7338 45.3161 6.48077C46.0631 7.22774 46.4832 8.24051 46.4844 9.29688V19.9219H39.3442C37.8823 17.3899 35.6259 15.411 32.9247 14.2922C30.2236 13.1733 27.2288 12.977 24.4047 13.7337C21.5807 14.4904 19.0852 16.1578 17.3054 18.4773C15.5255 20.7968 14.5608 23.6388 14.5608 26.5625C14.5608 29.4862 15.5255 32.3282 17.3054 34.6477C19.0852 36.9672 21.5807 38.6346 24.4047 39.3913C27.2288 40.148 30.2236 39.9517 32.9247 38.8328C35.6259 37.714 37.8823 35.7351 39.3442 33.2031H46.4844V75.7031ZM27.8906 33.2031H36.1438C35.1576 34.4466 33.9029 35.4508 32.4737 36.1408C31.0445 36.8308 29.4777 37.1886 27.8906 37.1875C25.0727 37.1875 22.3702 36.0681 20.3776 34.0755C18.385 32.0829 17.2656 29.3804 17.2656 26.5625C17.2656 23.7446 18.385 21.0421 20.3776 19.0495C22.3702 17.0569 25.0727 15.9375 27.8906 15.9375C29.4777 15.9364 31.0445 16.2942 32.4737 16.9842C33.9029 17.6742 35.1576 18.6784 36.1438 19.9219H27.8906C26.1294 19.9219 24.4404 20.6215 23.195 21.8669C21.9496 23.1122 21.25 24.8013 21.25 26.5625C21.25 28.3237 21.9496 30.0128 23.195 31.2581C24.4404 32.5035 26.1294 33.2031 27.8906 33.2031ZM71.7188 30.5469H27.8906C26.8339 30.5469 25.8205 30.1271 25.0732 29.3799C24.326 28.6327 23.9062 27.6192 23.9062 26.5625C23.9062 25.5058 24.326 24.4923 25.0732 23.7451C25.8205 22.9979 26.8339 22.5781 27.8906 22.5781H71.7188C72.7755 22.5781 73.7889 22.9979 74.5361 23.7451C75.2833 24.4923 75.7031 25.5058 75.7031 26.5625C75.7031 27.6192 75.2833 28.6327 74.5361 29.3799C73.7889 30.1271 72.7755 30.5469 71.7188 30.5469Z" fill="#F88500"/>
</svg>
