<svg width="72" height="72" viewBox="0 0 72 72" fill="none" xmlns="http://www.w3.org/2000/svg">
<path d="M70.9453 26.4487H48.7031V1.05469C48.7031 0.472219 48.2309 0 47.6484 0H1.05469C0.472219 0 0 0.472219 0 1.05469V70.9453C0 71.5278 0.472219 72 1.05469 72H70.9453C71.5278 72 72 71.5278 72 70.9453V27.5034C72 26.921 71.5278 26.4487 70.9453 26.4487ZM46.5937 27.5034V43.4419H25.4067V27.5034C25.4067 27.5002 25.4063 27.4971 25.4063 27.4939V2.10938H46.5938V27.5034H46.5937ZM2.10938 2.10938H12.7813C12.6084 4.65806 11.8477 7.22841 11.0475 9.93066C10.9693 10.1947 10.8906 10.4605 10.812 10.728C10.6476 11.2868 10.9673 11.8731 11.5262 12.0375C11.6256 12.0667 11.7257 12.0807 11.8243 12.0807C12.2801 12.0807 12.7004 11.7828 12.8357 11.3234C12.914 11.0572 12.9923 10.7927 13.0701 10.5297C13.92 7.6597 14.7263 4.93102 14.8942 2.10938H17.639C17.466 4.6582 16.7054 7.22869 15.9051 9.93108C14.814 13.6153 13.5775 17.791 13.5775 22.7756C13.5775 23.3581 14.0497 23.8303 14.6322 23.8303C15.2146 23.8303 15.6869 23.3581 15.6869 22.7756C15.6869 18.0968 16.8261 14.2501 17.9277 10.53C18.7777 7.65998 19.584 4.93116 19.7519 2.10938H23.2969V26.4487H2.10938V2.10938ZM2.10938 28.5581H23.2969V44.4966C23.2969 44.4998 23.2973 44.5029 23.2973 44.5061V53.4727C23.2973 54.0551 23.7696 54.5273 24.352 54.5273C24.9345 54.5273 25.4067 54.0551 25.4067 53.4727V45.5513H46.5938V69.8906H38.4952C38.6682 67.3419 39.4289 64.7716 40.229 62.0693C40.3073 61.8052 40.386 61.5395 40.4647 61.272C40.6291 60.7132 40.3093 60.1269 39.7505 59.9625C39.1916 59.7984 38.6054 60.1178 38.441 60.6767C38.3626 60.9429 38.2843 61.2075 38.2065 61.4704C37.3566 64.3403 36.5504 67.069 36.3825 69.8906H33.6375C33.8105 67.3418 34.5711 64.7713 35.3714 62.0689C36.4625 58.3847 37.699 54.209 37.699 49.2244C37.699 48.6419 37.2268 48.1697 36.6443 48.1697C36.0619 48.1697 35.5897 48.6419 35.5897 49.2244C35.5897 53.9033 34.4505 57.7499 33.3488 61.47C32.4989 64.34 31.6925 67.0688 31.5246 69.8906H25.4067V57.6914C25.4067 57.1089 24.9345 56.6367 24.352 56.6367C23.7696 56.6367 23.2973 57.1089 23.2973 57.6914V69.8906H2.10938V28.5581ZM69.8906 69.8906H60.3425C60.2169 61.7306 58.6475 56.8628 57.2555 52.5495C55.7162 47.7802 54.3867 43.6611 55.2824 36.1246C55.3511 35.5462 54.9378 35.0215 54.3596 34.9528C53.7806 34.884 53.2565 35.2973 53.1878 35.8755C52.2377 43.8702 53.7 48.4007 55.248 53.1973C56.6577 57.5648 58.1123 62.0772 58.2331 69.8906H48.7031V44.4966V28.5581H59.992C59.6721 32.2394 60.7874 35.8927 61.962 39.7378C63.3478 44.2737 64.7807 48.9641 64.2469 54.4798C64.1908 55.0596 64.6154 55.5751 65.1952 55.6313C65.2298 55.6345 65.2641 55.6362 65.298 55.6362C65.8347 55.6362 66.2937 55.2282 66.3466 54.683C66.9208 48.7493 65.3581 43.6344 63.9795 39.1215C62.7992 35.2579 61.768 31.879 62.1107 28.5581H69.8906V69.8906Z" fill="#F88500"/>
<path d="M9.10872 31.7517C9.10872 31.1692 8.6365 30.697 8.05403 30.697C7.47156 30.697 6.99934 31.1692 6.99934 31.7517C6.99934 34.7681 6.24461 37.2652 5.44558 39.9088C4.5429 42.8955 3.60944 45.9841 3.60944 50.121C3.60944 54.6878 4.78351 58.2775 5.72697 61.162C6.4097 63.2496 6.99934 65.0526 6.99934 66.6969C6.99934 67.2794 7.47156 67.7516 8.05403 67.7516C8.6365 67.7516 9.10872 67.2794 9.10872 66.6969C9.10872 64.7163 8.47056 62.7653 7.73172 60.5063C6.78826 57.6214 5.71881 54.3514 5.71881 50.121C5.71881 46.2959 6.60644 43.3592 7.46481 40.5191C8.27298 37.845 9.10872 35.08 9.10872 31.7517Z" fill="#F88500"/>
<path d="M13.9919 31.7517C13.9919 31.1692 13.5197 30.697 12.9372 30.697C12.3547 30.697 11.8825 31.1692 11.8825 31.7517C11.8825 35.0799 12.7182 37.845 13.5264 40.5191C14.3848 43.3592 15.2724 46.296 15.2724 50.1211C15.2724 54.3516 14.2031 57.6215 13.2595 60.5064C12.5208 62.7654 11.8826 64.7165 11.8826 66.697C11.8826 67.2795 12.3549 67.7517 12.9373 67.7517C13.5198 67.7517 13.992 67.2795 13.992 66.697C13.992 65.0526 14.5817 63.2496 15.2644 61.1622C16.2077 58.2777 17.3819 54.6878 17.3819 50.1211C17.3819 45.9842 16.4485 42.8957 15.5458 39.9089C14.7466 37.2652 13.9919 34.7681 13.9919 31.7517Z" fill="#F88500"/>
<path d="M32.503 40.2483C32.503 40.8307 32.9752 41.303 33.5577 41.303C34.1401 41.303 34.6123 40.8307 34.6123 40.2483C34.6123 38.2677 33.9742 36.3167 33.2355 34.0577C32.2919 31.1728 31.2226 27.9028 31.2226 23.6724C31.2226 19.8472 32.1102 16.9106 32.9686 14.0705C33.7767 11.3964 34.6125 8.63127 34.6125 5.3031C34.6125 4.72063 34.1403 4.24841 33.5578 4.24841C32.9753 4.24841 32.5031 4.72063 32.5031 5.3031C32.5031 8.31951 31.7484 10.8166 30.9495 13.4603C30.0468 16.4471 29.1133 19.5356 29.1133 23.6725C29.1133 28.2392 30.2874 31.8291 31.2309 34.7136C31.9133 36.8008 32.503 38.6038 32.503 40.2483Z" fill="#F88500"/>
<path d="M38.4412 41.3029C39.0237 41.3029 39.4959 40.8307 39.4959 40.2482C39.4959 38.6038 40.0854 36.8007 40.768 34.7131C41.7112 31.8287 42.885 28.239 42.885 23.6728C42.885 21.6017 42.6558 19.638 42.1636 17.4927C42.0332 16.925 41.4675 16.5705 40.8998 16.7006C40.3321 16.8308 39.9774 17.3967 40.1076 17.9644C40.5634 19.9507 40.7756 21.7646 40.7756 23.6728C40.7756 27.9029 39.7064 31.1727 38.7631 34.0575C38.0244 36.3165 37.3864 38.2675 37.3864 40.2482C37.3866 40.8307 37.8588 41.3029 38.4412 41.3029Z" fill="#F88500"/>
<path d="M38.6523 13.8547C38.79 14.3108 39.2087 14.6048 39.6616 14.6048C39.7626 14.6048 39.8652 14.5902 39.9669 14.5595C40.5245 14.3912 40.8401 13.8027 40.6717 13.245L40.662 13.2125C39.8636 10.5686 39.1094 8.07123 39.1094 5.05469C39.1094 4.47222 38.6372 4 38.0547 4C37.4722 4 37 4.47222 37 5.05469C37 8.38286 37.835 11.1481 38.6426 13.8224L38.6523 13.8547Z" fill="#F88500"/>
</svg>
