<svg width="82" height="82" viewBox="0 0 82 82" fill="none" xmlns="http://www.w3.org/2000/svg">
<path d="M79.1973 5.59521H2.80273C1.25739 5.59521 0 6.8526 0 8.39795V18.2628C0 19.8158 2.40234 19.8158 2.40234 18.2628V8.39795C2.40234 8.17725 2.58188 7.99756 2.80273 7.99756H79.1973C79.4181 7.99756 79.5977 8.17725 79.5977 8.39795V66.9733C79.5977 67.194 79.4181 67.3737 79.1973 67.3737H63.8043V64.8743H75.8856C76.5491 64.8743 77.0867 64.3365 77.0867 63.6732V51.0946C77.0867 49.5416 74.6844 49.5416 74.6844 51.0946V62.472H63.8043V57.1425C63.8434 57.1458 63.8828 57.1492 63.9198 57.1526C64.9169 57.2402 66.1572 57.3492 67.0164 56.4884C67.8747 55.6285 67.7661 54.387 67.6788 53.3894C67.5848 52.3187 67.686 52.0256 68.5089 51.3416C70.6276 49.5799 70.667 47.6936 68.5089 45.8995C67.686 45.215 67.5853 44.9222 67.6788 43.8514C67.9139 41.1645 66.659 39.8477 63.9198 40.0884C62.8508 40.1822 62.5607 40.0807 61.8791 39.2577C60.1201 37.134 58.2325 37.0947 56.4408 39.2577C55.7592 40.0805 55.4693 40.1826 54.4003 40.0884C51.7114 39.8522 50.4012 41.1142 50.6411 43.8514C50.7346 44.9224 50.6339 45.215 49.811 45.8995C47.6923 47.6611 47.6531 49.5477 49.811 51.3416C50.6339 52.0261 50.7346 52.3189 50.6411 53.3897C50.3888 56.2675 51.7633 57.3803 54.5153 57.1426V62.4723H7.31578V12.8991H74.6844V44.6884C74.6844 46.2414 77.0867 46.2414 77.0867 44.6884V11.698C77.0867 11.0346 76.5491 10.4968 75.8856 10.4968H6.11461C5.45108 10.4968 4.91343 11.0346 4.91343 11.698V63.6732C4.91343 64.3365 5.45108 64.8743 6.11461 64.8743H54.5153V67.3737H2.80273C2.58188 67.3737 2.40234 67.194 2.40234 66.9733V24.3486C2.40234 22.7955 0 22.7955 0 24.3486V66.9733C0 68.5187 1.25739 69.7761 2.80273 69.7761H54.5153V75.2134C54.6863 76.2006 55.2557 76.5637 56.223 76.3024L59.1598 74.9365L62.0966 76.3024C62.8232 76.6404 63.8043 76.1063 63.8043 75.2134V69.7761H79.1973C80.7426 69.7761 82 68.5187 82 66.9733V8.39795C82 6.85244 80.7426 5.59521 79.1973 5.59521ZM54.1897 54.7592C52.9872 54.865 52.9289 54.8007 53.034 53.5989C53.1954 51.7543 52.7712 50.6781 51.3466 49.4939C50.3719 48.6833 50.372 48.557 51.3466 47.7464C52.7712 46.5622 53.1956 45.486 53.034 43.6416C52.9289 42.4396 52.9872 42.3759 54.1897 42.4811C56.0343 42.6437 57.1092 42.2162 58.2906 40.7897C59.098 39.8153 59.2215 39.8153 60.0288 40.7897C61.2106 42.2162 62.2851 42.643 64.1298 42.4811C65.3324 42.3753 65.3905 42.4396 65.2855 43.6415C65.124 45.486 65.5483 46.5621 66.9729 47.7463C67.9474 48.5568 67.9479 48.6835 66.9727 49.4939C65.5481 50.6782 65.1237 51.754 65.2853 53.5985C65.3908 54.8003 65.3322 54.8649 64.1299 54.7592C63.3754 54.6929 62.5196 54.6176 61.7662 54.9305C61.037 55.2334 60.5243 55.8521 60.0286 56.4506C59.7951 56.7325 59.369 57.247 59.1595 57.3391C58.9501 57.247 58.524 56.7325 58.2905 56.4506C57.7948 55.8522 57.2823 55.2334 56.5529 54.9305C55.7755 54.6935 54.9877 54.6363 54.1897 54.7592ZM59.6664 72.5228C59.3451 72.3733 58.9745 72.3733 58.6532 72.5228L56.9176 73.3301V58.5398C57.4876 59.1665 58.1909 59.7484 59.1598 59.7484C60.1287 59.7484 60.832 59.1667 61.402 58.54V73.3301L59.6664 72.5228Z" fill="#F88500"/>
<path d="M15.5773 22.9537H56.9852C58.5382 22.9537 58.5382 20.5514 56.9852 20.5514H15.5773C14.0241 20.5514 14.0241 22.9537 15.5773 22.9537Z" fill="#F88500"/>
<path d="M67.6239 29.0586C67.6239 28.3952 67.0862 27.8574 66.4227 27.8574H15.5773C14.0242 27.8574 14.0242 30.2598 15.5773 30.2598H66.4228C67.0862 30.2598 67.6239 29.722 67.6239 29.0586Z" fill="#F88500"/>
<path d="M45.6664 36.3644C45.6664 35.701 45.1288 35.1632 44.4653 35.1632H15.5773C14.0242 35.1632 14.0242 37.5656 15.5773 37.5656H44.4653C45.1286 37.5656 45.6664 37.0277 45.6664 36.3644Z" fill="#F88500"/>
<path d="M29.8933 53.1074C29.2385 53.1086 28.5834 53.1094 27.9285 53.1098C26.6686 53.1108 25.9749 52.775 25.7176 51.4389C25.4826 50.2193 23.7235 50.3747 23.4011 51.4389C23.2584 51.9103 22.5377 53.2596 21.9081 53.1492C21.5745 53.0908 21.4288 52.5762 21.3054 52.3097C21.0654 51.791 20.8905 51.2411 20.7407 50.6902C20.1084 48.3625 19.9822 45.9321 19.5866 43.5605C19.3573 42.1853 17.261 42.5741 17.2272 43.8799C17.1196 48.0393 16.4396 52.1417 14.9588 56.0404C14.4093 57.4871 16.7307 58.1126 17.2753 56.6791C17.8462 55.1759 18.2995 53.6366 18.6512 52.0744C18.8398 52.6436 19.0648 53.2019 19.3395 53.745C20.041 55.1313 21.4717 55.9515 23.0024 55.3349C23.5487 55.1148 24.0471 54.7301 24.4714 54.262C25.6079 55.5726 27.2986 55.5131 28.876 55.5112C31.2539 55.5082 33.6317 55.5026 36.0097 55.496C37.5554 55.4917 37.5583 53.0893 36.0097 53.0937C33.9709 53.0994 31.9321 53.1041 29.8933 53.1074Z" fill="#F88500"/>
<path d="M59.1598 53.3118C61.7468 53.3118 63.8516 51.2072 63.8516 48.6202C63.8516 46.0332 61.7468 43.9286 59.1598 43.9286C56.573 43.9286 54.4682 46.0334 54.4682 48.6202C54.4682 51.207 56.5728 53.3118 59.1598 53.3118ZM59.1598 46.3309C60.4222 46.3309 61.4493 47.358 61.4493 48.6202C61.4493 49.8824 60.4222 50.9095 59.1598 50.9095C57.8975 50.9095 56.8705 49.8826 56.8705 48.6202C56.8705 47.3579 57.8975 46.3309 59.1598 46.3309Z" fill="#F88500"/>
</svg>
