<svg width="81" height="81" viewBox="0 0 81 81" fill="none" xmlns="http://www.w3.org/2000/svg">
<path d="M78.4688 3.79688H2.53125C2.19559 3.79688 1.87367 3.93022 1.63632 4.16757C1.39897 4.40492 1.26563 4.72684 1.26562 5.0625V32.9062C1.26563 33.2419 1.39897 33.5638 1.63632 33.8012C1.87367 34.0385 2.19559 34.1719 2.53125 34.1719H7.59375C7.92941 34.1719 8.25133 34.0385 8.48868 33.8012C8.72603 33.5638 8.85938 33.2419 8.85938 32.9062V26.5781H32.9062C32.9062 26.9138 33.0396 27.2357 33.2769 27.4731C33.5143 27.7104 33.8362 27.8438 34.1719 27.8438H34.5807L36.7917 33.3745C36.8855 33.61 37.0478 33.8119 37.2577 33.9541C37.4676 34.0962 37.7153 34.1721 37.9688 34.1719H39.2344V36.7031H41.7656V34.1719H43.0312C43.2844 34.172 43.5317 34.0962 43.7413 33.9543C43.9509 33.8123 44.1131 33.6108 44.207 33.3758L46.4193 27.8438H46.8281C47.1638 27.8438 47.4857 27.7104 47.7231 27.4731C47.9604 27.2357 48.0938 26.9138 48.0938 26.5781H72.1406V32.9062C72.1406 33.2419 72.274 33.5638 72.5113 33.8012C72.7487 34.0385 73.0706 34.1719 73.4062 34.1719H78.4688C78.8044 34.1719 79.1263 34.0385 79.3637 33.8012C79.601 33.5638 79.7344 33.2419 79.7344 32.9062V5.0625C79.7344 4.72684 79.601 4.40492 79.3637 4.16757C79.1263 3.93022 78.8044 3.79688 78.4688 3.79688ZM77.2031 6.32812V11.3906H3.79688V6.32812H77.2031ZM3.79688 31.6406V13.9219H6.32812V31.6406H3.79688ZM8.85938 24.0469V21.5156H32.9062V24.0469H8.85938ZM45.5625 25.3125H35.4375V20.25H45.5625V25.3125ZM42.1744 31.6406H38.8243L37.3056 27.8438H43.6919L42.1744 31.6406ZM34.1719 17.7188C33.8362 17.7188 33.5143 17.8521 33.2769 18.0894C33.0396 18.3268 32.9062 18.6487 32.9062 18.9844H8.85938V13.9219H72.1406V18.9844H48.0938C48.0938 18.6487 47.9604 18.3268 47.7231 18.0894C47.4857 17.8521 47.1638 17.7188 46.8281 17.7188H34.1719ZM48.0938 24.0469V21.5156H72.1406V24.0469H48.0938ZM74.6719 31.6406V13.9219H77.2031V31.6406H74.6719Z" fill="#F88500"/>
<path d="M17.5938 76.4375H21.3906C21.6729 76.4374 21.9471 76.343 22.1696 76.1691C22.392 75.9953 22.55 75.7521 22.6183 75.4782L23.6434 71.375H57.1066L58.1317 75.4782C58.2 75.7521 58.358 75.9953 58.5804 76.1691C58.8029 76.343 59.0771 76.4374 59.3594 76.4375H63.1562C63.4919 76.4375 63.8138 76.3042 64.0512 76.0668C64.2885 75.8295 64.4219 75.5075 64.4219 75.1719V71.375H69.4844C69.82 71.375 70.142 71.2417 70.3793 71.0043C70.6167 70.767 70.75 70.445 70.75 70.1094V52.3906C70.75 52.055 70.6167 51.733 70.3793 51.4957C70.142 51.2583 69.82 51.125 69.4844 51.125H66.9531C66.9501 48.4406 65.8824 45.867 63.9843 43.9689C62.0861 42.0707 59.5125 41.003 56.8281 41H23.9219C21.2375 41.003 18.6639 42.0707 16.7657 43.9689C14.8676 45.867 13.7999 48.4406 13.7969 51.125H11.2656C10.93 51.125 10.608 51.2583 10.3707 51.4957C10.1333 51.733 10 52.055 10 52.3906V70.1094C10 70.445 10.1333 70.767 10.3707 71.0043C10.608 71.2417 10.93 71.375 11.2656 71.375H16.3281V75.1719C16.3281 75.5075 16.4615 75.8295 16.6988 76.0668C16.9362 76.3042 17.2581 76.4375 17.5938 76.4375ZM20.4022 73.9062H18.8594V71.375H21.035L20.4022 73.9062ZM20.125 63.7812H60.625V68.8438H20.125V63.7812ZM61.8906 73.9062H60.3478L59.715 71.375H61.8906V73.9062ZM68.2188 53.6562V68.8438H63.1562V53.6562H68.2188ZM23.9219 43.5312H56.8281C58.8415 43.5333 60.7718 44.334 62.1955 45.7576C63.6192 47.1813 64.4199 49.1116 64.4219 51.125H61.8906C61.555 51.125 61.233 51.2583 60.9957 51.4957C60.7583 51.733 60.625 52.055 60.625 52.3906V61.25H20.125V52.3906C20.125 52.055 19.9917 51.733 19.7543 51.4957C19.517 51.2583 19.195 51.125 18.8594 51.125H16.3281C16.3301 49.1116 17.1308 47.1813 18.5545 45.7576C19.9782 44.334 21.9085 43.5333 23.9219 43.5312ZM12.5312 53.6562H17.5938V68.8438H12.5312V53.6562Z" fill="#F88500"/>
</svg>
