<svg width="72" height="62" viewBox="0 0 72 62" fill="none" xmlns="http://www.w3.org/2000/svg">
<path d="M9.03374 13.3338C3.82629 13.7483 -0.449328 18.3099 0.0379128 23.668C0.456119 28.2672 4.52197 32.0412 9.28056 31.5361C13.2707 31.1128 16.5441 27.5395 16.0145 23.3788C15.584 19.9987 12.4964 17.2206 8.93033 17.788C6.16174 18.2286 3.8724 20.8461 4.50411 23.8234C4.73307 24.9021 5.35252 25.8382 6.23451 26.4731C7.1165 27.108 8.34606 27.4193 9.54391 27.0379C10.3286 26.7881 10.955 26.2868 11.3796 25.5663C11.8042 24.8456 11.942 23.7226 11.3743 22.831C10.9166 22.1119 10.4965 21.9696 9.83737 21.8587C9.50793 21.8032 9.04707 21.7827 8.55663 22.1018C8.06619 22.4208 7.80631 23.0805 7.80631 23.547C7.80178 23.9031 7.93959 24.2461 8.1896 24.4996C8.05873 24.462 7.92892 24.4092 7.79139 24.3101C7.4702 24.0787 7.19353 23.6589 7.1109 23.27C6.82863 21.9394 7.97184 20.64 9.34853 20.4207C11.3071 20.1088 13.1185 21.7403 13.3701 23.7149C13.6983 26.2926 11.5728 28.6118 8.99883 28.8848C5.80697 29.2235 2.98108 26.6005 2.69242 23.4259C2.34644 19.6232 5.46873 16.2914 9.24511 15.991C9.2787 15.9883 9.31255 15.9867 9.34613 15.9849H62.6548C62.6884 15.9875 62.7219 15.9886 62.7553 15.991C66.5316 16.2914 69.6539 19.6232 69.308 23.4265C69.0193 26.6013 66.1934 29.2241 63.0015 28.8853C60.4273 28.6121 58.3019 26.2929 58.6302 23.7154C58.8816 21.7406 60.693 20.1094 62.6518 20.4212C64.0285 20.6403 65.1717 21.9397 64.8892 23.2706C64.8066 23.6594 64.5299 24.0795 64.2087 24.3106C64.0712 24.4095 63.9422 24.4625 63.8116 24.5001C64.0611 24.2464 64.1986 23.9033 64.1938 23.5475C64.1938 23.081 63.9344 22.4213 63.4443 22.1023C62.9538 21.7832 62.4932 21.8038 62.1635 21.8592C61.5044 21.9701 61.084 22.1127 60.6261 22.8316C60.0586 23.7229 60.1967 24.8461 60.6213 25.5668C61.0459 26.2876 61.6723 26.7889 62.457 27.0384C63.6548 27.4196 64.8839 27.1085 65.7659 26.4736C66.6479 25.8387 67.2673 24.9026 67.4963 23.8239C68.128 20.8469 65.8386 18.2294 63.0703 17.7886C59.5042 17.2211 56.4163 19.9993 55.9861 23.3793C55.4562 27.54 58.7305 31.1131 62.7206 31.5366C67.4789 32.0414 71.5445 28.2677 71.9627 23.6682C72.45 18.3102 68.1743 13.7483 62.9669 13.3341C62.8587 13.3176 62.7587 13.3242 62.655 13.3221H9.3464C9.24271 13.3157 9.13317 13.3277 9.03401 13.3346L9.03374 13.3338ZM4.015 0C3.27908 0 2.68229 0.59679 2.68229 1.33272V3.99815C2.68229 4.35158 2.82276 4.69063 3.07277 4.94038L8.40364 10.2712C8.65365 10.5213 8.99243 10.6617 9.34587 10.6617H62.6545C63.0079 10.6617 63.347 10.5213 63.5967 10.2712L68.9276 4.94038C69.1776 4.69036 69.3181 4.35158 69.3181 3.99815V1.33272C69.3181 0.59679 68.7213 0 67.9854 0C67.9854 0 4.015 0 4.015 0ZM5.34772 2.66543H66.6527V3.44587L62.1022 7.9963H9.89761L5.34772 3.44587V2.66543ZM20.0076 21.3235C19.2717 21.3235 18.6749 21.9202 18.6749 22.6562V59.9722C18.6751 60.7084 19.2719 61.3049 20.0081 61.3047C20.2712 61.3047 20.5282 61.2268 20.747 61.081L28.3277 56.0266C28.6918 55.784 28.9136 55.3781 28.9213 54.9407L29.3363 30.6749C29.3363 30.6674 29.3363 30.6599 29.3363 30.6525C29.3363 29.7782 32.0172 29.7534 32.0018 30.6285C32.0018 30.6365 32.0018 30.6445 32.0018 30.6525V51.9759C32.002 52.7121 32.5988 53.3086 33.335 53.3084C33.5981 53.3084 33.855 53.2305 34.0739 53.0847L42.0702 47.7539C42.4409 47.5068 42.6635 47.0907 42.6638 46.6451V30.6525C42.6638 29.7625 45.3292 29.7625 45.3292 30.6525V43.9796C45.3295 44.7158 45.9265 45.3123 46.6627 45.3118C46.8693 45.3118 47.0732 45.2636 47.2582 45.1711L52.589 42.5056C53.0403 42.2799 53.3255 41.8188 53.3258 41.3139V22.6559C53.3258 21.92 52.729 21.3232 51.993 21.3232H20.0079H20.0076V21.3235ZM21.3403 23.9889H50.6601V40.49L47.9946 41.8228V30.6525C47.9946 26.2097 39.9983 26.2097 39.9983 30.6525V45.9318L34.6675 49.4859V30.6525V30.6759C34.7466 26.2183 26.6717 26.194 26.6717 30.6525V30.6295L26.2687 54.1968L21.3408 57.4822V23.9889H21.3403Z" fill="#F88500"/>
</svg>
