<svg xmlns="http://www.w3.org/2000/svg" version="1.1" xmlns:xlink="http://www.w3.org/1999/xlink" xmlns:svgjs="http://svgjs.com/svgjs" width="512" height="512" x="0" y="0" viewBox="0 0 64 64" style="enable-background:new 0 0 512 512" xml:space="preserve" class=""><g><g xmlns="http://www.w3.org/2000/svg" id="Layer_21" data-name="Layer 21"><path d="m2 51v-19a6 6 0 0 1 6-6h48a6 6 0 0 1 6 6v19a3 3 0 0 1 -3 3h-54a3 3 0 0 1 -3-3z" fill="#1a9be3" data-original="#3665a6" class=""></path><path d="m56 26h-48a5.973 5.973 0 0 0 -3.793 1.353 28 28 0 0 0 27.793 24.647h29.816a2.962 2.962 0 0 0 .184-1v-19a6 6 0 0 0 -6-6z" fill="#1a9be3" data-original="#4d81bd" class=""></path><path d="m2 51a3 3 0 0 0 3 3h54a3 3 0 0 0 3-3v-9h-60z" fill="#889ea6" data-original="#889ea6" class=""></path><path d="m32 52h29.816a2.962 2.962 0 0 0 .184-1v-9h-51.442a27.936 27.936 0 0 0 21.442 10z" fill="#99b1b8" data-original="#99b1b8" class=""></path><rect fill="#344047" height="4" rx="2" width="52" x="6" y="46" data-original="#344047" class=""></rect><circle cx="56" cy="36" fill="#b2cea2" r="2" data-original="#b2cea2" class=""></circle><circle cx="48" cy="36" fill="#b2cea2" r="2" data-original="#b2cea2" class=""></circle><path d="m62 51a3.024 3.024 0 0 1 -.053.525 2.749 2.749 0 0 0 .053-.525z" fill="#1a9be3" data-original="#4d81bd" class=""></path><path d="m56 46h-41.308a28 28 0 0 0 6.916 4h34.392a2 2 0 0 0 0-4z" fill="#53626c" data-original="#53626c" class=""></path><g fill="#6bbae9"><path d="m31 57h2v6h-2z" fill="#6bbae9" data-original="#6bbae9" class=""></path><path d="m11 57h2v6h-2z" fill="#6bbae9" data-original="#6bbae9" class=""></path><path d="m21 57h2v6h-2z" fill="#6bbae9" data-original="#6bbae9" class=""></path><path d="m41 57h2v6h-2z" fill="#6bbae9" data-original="#6bbae9" class=""></path><path d="m51 57h2v6h-2z" fill="#6bbae9" data-original="#6bbae9" class=""></path></g><path d="m43 33a3 3 0 0 1 -3 3h-16a3 3 0 0 1 -3-3v-28a3 3 0 0 1 3-3h16a3 3 0 0 1 3 3z" fill="#53626c" data-original="#53626c" class=""></path><path d="m40 2h-16a2.962 2.962 0 0 0 -1 .184v9.816a22 22 0 0 0 19.849 21.894 2.971 2.971 0 0 0 .151-.894v-28a3 3 0 0 0 -3-3z" fill="#768891" data-original="#768891" class=""></path><path d="m25 6h14v26h-14z" fill="#6bbae9" data-original="#6bbae9" class=""></path><path d="m39 6h-14v15.123a22.047 22.047 0 0 0 10.882 10.877h3.118z" fill="#7bd2fc" data-original="#7bd2fc" class=""></path><circle cx="32" cy="30" fill="#ffffff" r="2" data-original="#ffffff"></circle><path d="m30 20h4v2h-4z" fill="#285298" data-original="#285298"></path><path d="m29 16h6v2h-6z" fill="#285298" data-original="#285298"></path><path d="m28 12h8v2h-8z" fill="#285298" data-original="#285298"></path><path d="m56 25h-12v-20a4 4 0 0 0 -4-4h-16a4 4 0 0 0 -4 4v20h-12a7.008 7.008 0 0 0 -7 7v19a4 4 0 0 0 4 4h54a4 4 0 0 0 4-4v-19a7.008 7.008 0 0 0 -7-7zm-34-20a2 2 0 0 1 2-2h16a2 2 0 0 1 2 2v28a2 2 0 0 1 -2 2h-16a2 2 0 0 1 -2-2zm37 48h-54a2 2 0 0 1 -2-2v-8h58v8a2 2 0 0 1 -2 2zm2-12h-58v-9a5.006 5.006 0 0 1 5-5h12v6a4 4 0 0 0 4 4h16a4 4 0 0 0 4-4v-6h12a5.006 5.006 0 0 1 5 5z" fill="#000000" data-original="#000000" class=""></path><path d="m56 45h-48a3 3 0 0 0 0 6h48a3 3 0 0 0 0-6zm0 4h-48a1 1 0 0 1 0-2h48a1 1 0 0 1 0 2z" fill="#000000" data-original="#000000" class=""></path><path d="m56 33a3 3 0 1 0 3 3 3 3 0 0 0 -3-3zm0 4a1 1 0 1 1 1-1 1 1 0 0 1 -1 1z" fill="#000000" data-original="#000000" class=""></path><path d="m48 33a3 3 0 1 0 3 3 3 3 0 0 0 -3-3zm0 4a1 1 0 1 1 1-1 1 1 0 0 1 -1 1z" fill="#000000" data-original="#000000" class=""></path><path d="m31 57h2v6h-2z" fill="#000000" data-original="#000000" class=""></path><path d="m11 57h2v6h-2z" fill="#000000" data-original="#000000" class=""></path><path d="m21 57h2v6h-2z" fill="#000000" data-original="#000000" class=""></path><path d="m41 57h2v6h-2z" fill="#000000" data-original="#000000" class=""></path><path d="m51 57h2v6h-2z" fill="#000000" data-original="#000000" class=""></path><path d="m25 33h14a1 1 0 0 0 1-1v-26a1 1 0 0 0 -1-1h-14a1 1 0 0 0 -1 1v26a1 1 0 0 0 1 1zm6-3a1 1 0 1 1 1 1 1 1 0 0 1 -1-1zm-5-23h12v24h-3.184a2.966 2.966 0 0 0 .184-1 3 3 0 0 0 -6 0 2.966 2.966 0 0 0 .184 1h-3.184z" fill="#000000" data-original="#000000" class=""></path><path d="m30 20h4v2h-4z" fill="#000000" data-original="#000000" class=""></path><path d="m29 16h6v2h-6z" fill="#000000" data-original="#000000" class=""></path><path d="m28 12h8v2h-8z" fill="#000000" data-original="#000000" class=""></path></g></g></svg>