<svg width="101" height="118" viewBox="0 0 101 118" fill="none" xmlns="http://www.w3.org/2000/svg">
<path d="M76.9223 47.6278C76.8121 42.7411 77.243 37.8544 77.4333 32.9577C77.5335 30.2496 77.6437 27.5414 77.7039 24.8332C77.7039 24.0338 78.0846 24.0937 78.5956 24.2836C80.9703 25.173 83.325 26.1124 85.7298 26.9318C86.4211 27.1617 86.7318 27.4315 86.6416 28.151C86.4621 30.203 86.0624 32.2299 85.4492 34.1969C84.2551 38.057 82.702 41.7974 80.81 45.3693C78.9264 48.9706 76.8527 52.4698 74.5977 55.8522C72.9445 58.3605 71.2611 60.8488 69.4175 63.2272C67.163 66.1452 64.9787 69.1232 62.5739 71.9113C61.2212 73.4803 59.7984 75.0192 58.4557 76.5981C55.4498 80.1357 52.2936 83.5934 48.977 86.8012C47.2636 88.4801 45.5201 90.139 43.8368 91.8478C43.4056 92.1912 42.9124 92.449 42.3839 92.6073C41.5397 92.9946 40.6651 93.3121 39.7688 93.5566C38.5463 93.9064 37.5243 93.107 36.5123 92.7172C34.9893 92.1176 33.4362 91.608 31.9132 90.9984C29.4984 89.9991 26.9935 89.2596 24.2079 88.2902L52.524 77.2477C50.9509 76.9979 49.6583 77.7973 48.2556 78.1571C46.452 78.6168 44.7185 79.3463 42.945 79.9459C39.4982 81.1118 36.048 82.2676 32.5945 83.4135C30.0194 84.263 27.4443 85.1124 24.8492 85.8819C22.8452 86.4815 22.7951 86.4215 22.7951 84.263C22.7951 80.3156 22.7951 76.3683 22.7951 72.421C22.7951 71.5616 22.6248 71.2618 21.693 71.2418C19.1379 71.1918 16.6229 70.7721 14.0478 70.8121C11.3953 70.7107 8.77354 71.407 6.52293 72.8107C6.37962 72.9141 6.21141 72.9778 6.03542 72.9953C5.85943 73.0129 5.68194 72.9837 5.52094 72.9106C6.87009 70.9964 8.69723 69.4669 10.8214 68.4736C13.5869 67.3144 16.4526 67.6642 19.2982 67.8241C22.1566 68.116 25.0398 68.0623 27.8852 67.6642C29.3108 67.3843 30.6706 66.8384 31.8931 66.0553C32.3641 65.7555 32.8951 65.5856 33.5064 65.1459C33.3235 65.9514 32.8755 66.6725 32.2338 67.1945C31.4122 67.884 31.5625 68.4137 32.2338 69.1932C35.2398 72.6808 39.2477 73.5302 43.5462 72.9106C50.2194 71.9113 55.4698 68.4037 59.7383 63.2872C61.748 60.9265 63.3038 58.2163 64.3274 55.2926C65.8304 50.8856 66.1109 46.4986 63.3254 42.4413C61.7996 40.2562 59.4691 38.7618 56.8426 38.2841C50.8307 37.005 45.7706 39.2835 40.9912 42.5113C38.4375 44.2837 36.2018 46.4729 34.3781 48.9869C33.5364 50.1161 32.0034 50.3459 30.6807 50.7157C28.5074 51.2136 26.2723 51.3886 24.0476 51.2353C23.1458 51.2353 22.7651 50.9356 22.7851 49.9762C22.8452 47.7877 22.7851 45.5892 22.7851 43.4006C22.7468 43.109 22.8221 42.8138 22.9954 42.5759C23.1688 42.3379 23.427 42.1753 23.717 42.1215C27.7249 40.7624 31.6727 39.3034 35.6606 37.9244C38.8068 36.8351 41.9731 35.8358 45.1093 34.7365C49.498 33.1976 53.8566 31.5987 58.2353 30.0497C60.5599 29.2303 62.9146 28.4908 65.2492 27.6813C68.3754 26.5821 71.4916 25.4528 74.6178 24.3336C75.1989 24.1237 75.5596 24.0838 75.6197 24.9232C75.73 31.3388 76.3813 37.7345 76.3211 44.1501C76.2917 45.3374 76.4959 46.5189 76.9223 47.6278ZM53.4959 76.6081L55.3396 76.4982C55.8105 76.4982 55.8005 76.0185 56.031 75.7787C56.2614 75.5389 56.0811 75.5089 55.9007 75.4089C55.4899 75.1791 55.3997 75.6488 55.1692 75.7187C54.5881 75.9486 54.1072 76.4782 53.4959 76.6481V76.6081Z" fill="white"/>
<path d="M81.2108 70.7023L91.7517 75.3791C89.2467 76.2485 86.9822 77.028 84.7378 77.8274C80.8401 79.1965 76.9524 80.5955 73.0547 81.9646C70.8202 82.7541 68.5858 83.5935 66.3013 84.2331C63.2982 85.0407 60.5612 86.6227 58.3656 88.82C54.8969 92.0998 51.215 95.1477 47.3437 97.9438C44.1374 100.392 40.7507 102.611 37.374 104.819C34.7688 106.528 31.9433 107.907 29.1978 109.426C27.9754 110.106 26.7329 110.775 25.4704 111.425C24.9494 111.674 24.228 111.874 23.8773 111.255C23.7839 111.111 23.7241 110.949 23.7023 110.78C23.6804 110.61 23.697 110.438 23.7509 110.276C23.8048 110.114 23.8945 109.966 24.0135 109.843C24.1326 109.72 24.2778 109.625 24.4384 109.566C28.2469 107.431 31.8819 105.002 35.3099 102.301C39.9929 98.708 44.4689 94.8545 48.7165 90.7587C53.3571 86.3635 57.7651 81.7304 61.9226 76.8781C65.0388 73.2206 68.2652 69.643 71.1208 65.7856C75.1834 60.3832 78.8662 54.7068 82.1427 48.7971C84.2306 45.0545 86.0229 41.1554 87.5033 37.135C88.6717 34.0584 89.348 30.8176 89.5072 27.5315C89.7367 24.7945 89.1585 22.0503 87.844 19.6369C86.9409 18.076 85.4925 16.9019 83.7759 16.3391C78.8065 15.297 73.663 15.4133 68.7461 16.6789C68.2351 16.8688 67.8343 16.4291 67.664 15.9894C67.6006 15.8762 67.5622 15.7509 67.5514 15.6217C67.5406 15.4926 67.5576 15.3626 67.6012 15.2405C67.6448 15.1184 67.7142 15.0071 67.8045 14.9139C67.8948 14.8207 68.004 14.7479 68.1249 14.7002C70.0086 13.8608 71.9525 13.1613 73.8963 12.4718C76.3018 11.5997 78.7997 11.0062 81.3411 10.7029C86.351 10.1433 91.1605 10.553 94.6474 14.8501C96.0828 16.7307 96.9766 18.9661 97.2325 21.3157C97.5585 23.809 97.5282 26.3359 97.1424 28.8207C96.7959 31.2845 96.2292 33.7126 95.449 36.0757C94.7877 38.1244 94.0462 40.143 93.2446 42.1416C93.1533 42.4459 93.1226 42.765 93.1545 43.081C93.1545 45.8291 93.1545 48.5773 93.1545 51.3254C93.1545 58.4606 93.1545 65.5957 93.1545 72.7309C93.1545 73.5204 93.1545 73.8901 92.1525 73.5703C89.0263 72.571 85.87 71.6816 82.7238 70.7422C82.2404 70.5495 81.7038 70.5353 81.2108 70.7023Z" fill="#A0ADBA"/>
<path d="M49.5481 63.6667C49.5481 64.9558 49.5481 66.0251 49.5481 67.1043C49.6216 67.8215 49.4537 68.5427 49.0709 69.1542C48.6881 69.7658 48.1122 70.2329 47.4339 70.482C47.2396 70.5649 47.0271 70.5964 46.8169 70.5737C46.6068 70.551 46.4061 70.4747 46.234 70.3523C46.0619 70.2299 45.9243 70.0654 45.8344 69.8746C45.7445 69.6838 45.7053 69.4731 45.7205 69.2629C45.6504 67.9637 45.7205 66.6547 45.7205 65.0957C44.7558 66.1139 43.8995 67.2291 43.1655 68.4234C42.5342 69.2429 42.0032 70.2422 40.6806 70.1922C39.5784 70.1922 39.1676 69.6926 39.4782 68.6133C39.9417 67.5291 40.5629 66.5189 41.3218 65.6153C42.8405 63.4601 44.2419 61.2251 45.5201 58.9199C45.6704 58.6201 46.0913 58.2803 45.6905 57.9905C45.2897 57.7007 45.0592 58.2303 44.8188 58.4202C43.1555 59.8393 41.8128 61.5981 40.3198 63.127C39.1175 64.3262 38.3159 65.9251 36.7528 66.7646C36.5451 66.9387 36.2826 67.0341 36.0113 67.0341C35.7401 67.0341 35.4775 66.9387 35.2699 66.7646C34.7588 66.3049 34.4382 65.8352 34.859 65.1057C35.7073 63.7879 36.6913 62.5621 37.7948 61.4482C38.0267 61.2101 38.1954 60.9182 38.2858 60.5988C37.0717 60.7901 35.8889 61.143 34.7689 61.648C33.1657 62.1277 32.5645 62.1977 32.2438 61.3582C32.1326 60.7778 32.2304 60.1768 32.52 59.6612C32.8097 59.1456 33.2725 58.7486 33.827 58.5401C35.32 57.9805 36.8329 57.4509 38.6065 56.8013C37.6045 56.3516 36.843 56.0119 36.0815 55.6521C35.32 55.2923 34.5885 55.1325 34.5985 54.2131C34.6355 53.7858 34.7714 53.3728 34.9958 53.0069C35.2201 52.641 35.5266 52.3321 35.8911 52.1045C37.0834 51.1052 38.1556 51.9146 39.1475 52.3443C41.1033 53.2277 43.1109 53.9919 45.1594 54.6328C45.3598 54.6928 45.4901 54.7827 45.6504 54.5628C45.8107 54.343 45.5702 54.0632 45.4199 53.8833C44.2266 52.6991 42.9251 51.6285 41.5323 50.6855C40.9711 50.2658 40.4401 49.8061 39.8589 49.4263C38.9772 48.8567 39.0774 48.0972 39.4381 47.3377C39.5788 47.0266 39.7856 46.7497 40.0441 46.5261C40.3025 46.3024 40.6066 46.1374 40.9353 46.0424C41.264 45.9474 41.6094 45.9246 41.9477 45.9757C42.286 46.0268 42.6092 46.1506 42.8949 46.3384C43.6765 46.8381 44.428 47.3377 45.3598 47.9873C45.3598 46.5283 45.3598 45.2691 45.3598 43.99C45.3639 43.4199 45.5401 42.8643 45.8654 42.3955C46.1907 41.9267 46.65 41.5665 47.1834 41.3618C48.4159 40.9121 49.1373 41.3618 49.1874 42.6309C49.2375 43.9001 49.1874 45.0693 49.1874 46.2885L49.498 46.3384L51.8527 42.9607C52.0438 42.6643 52.2582 42.3837 52.494 42.1213C53.2655 41.3218 54.6983 40.9621 55.1492 41.5417C55.3962 41.921 55.5069 42.3726 55.4632 42.8227C55.4195 43.2729 55.224 43.695 54.9087 44.02C53.045 46.7281 51.1313 49.4063 49.4479 52.2344C49.2976 52.4842 49.1273 52.6941 49.2475 53.0339C49.7629 52.9005 50.2161 52.5933 50.5301 52.1645C52.6042 49.8161 54.7184 47.4876 56.8125 45.1692C57.1831 44.6047 57.757 44.204 58.4157 44.05C58.9768 43.98 59.578 43.8401 59.9688 44.3598C60.1495 44.6063 60.2469 44.9038 60.2469 45.2092C60.2469 45.5146 60.1495 45.8121 59.9688 46.0586C59.3976 46.898 58.7063 47.6575 58.065 48.447L56.7825 49.966C57.1355 50.0842 57.5113 50.1186 57.8801 50.0666C58.2488 50.0145 58.6003 49.8774 58.9067 49.6662C59.7083 49.1865 60.6301 49.1965 61.4417 48.7668C62.2533 48.337 63.0649 49.4763 62.8344 50.4256C62.6789 50.9578 62.3891 51.4413 61.9926 51.8297C61.5961 52.2182 61.1063 52.4986 60.57 52.6441C59.5028 53.0341 58.4158 53.3677 57.3135 53.6435C57.1772 53.6622 57.0494 53.7205 56.9461 53.8111C56.8427 53.9017 56.7684 54.0207 56.7323 54.1531C56.6722 54.4729 57.053 54.383 57.2233 54.4729C57.9848 54.8626 58.7664 55.1924 59.5379 55.5622C59.7406 55.6245 59.9245 55.7359 60.0734 55.8865C60.2223 56.0371 60.3314 56.2222 60.3909 56.4252C60.4505 56.6282 60.4587 56.8427 60.4147 57.0496C60.3708 57.2565 60.2761 57.4493 60.1391 57.6108C59.1371 59.3396 58.1953 59.6094 56.3716 58.8C54.548 57.9905 52.4138 57.281 50.4098 56.5815C49.999 56.4416 49.4078 56.2717 49.0972 56.7414C48.7866 57.211 49.3377 57.4908 49.6283 57.8006C51.1949 59.3406 52.8986 60.7354 54.7183 61.9678C54.9519 62.0908 55.1568 62.2617 55.3195 62.4692C55.4822 62.6767 55.5991 62.9161 55.6625 63.1719C55.7259 63.4276 55.7344 63.6938 55.6873 63.953C55.6403 64.2122 55.5389 64.4586 55.3897 64.676C55.0568 65.2179 54.5258 65.6094 53.9087 65.768C53.2917 65.9265 52.6371 65.8395 52.0832 65.5254C51.2515 64.9558 50.4499 64.3262 49.5481 63.6667Z" fill="white"/>
<path d="M4.67928 65.7257C5.49237 64.2302 6.67981 62.9701 8.12607 62.0681C11.132 60.1794 14.3685 59.9296 17.8854 60.3593C23.1859 60.9989 28.5165 61.0888 33.0554 57.3613C32.6544 58.5314 31.9067 59.5524 30.9112 60.2893C29.4082 61.3686 29.5585 62.7577 29.9994 64.0768C30.3401 65.0761 29.799 65.3759 29.2279 65.4858C27.4704 65.9891 25.6552 66.2645 23.8272 66.3053C22.9755 66.2453 22.6649 65.9955 22.8252 65.196C23.0256 63.9768 22.6048 63.5172 21.3022 63.6271C18.7571 63.837 16.2021 63.4172 13.647 63.3872C10.6411 63.3872 7.8255 63.777 5.36062 65.6157C5.26121 65.6828 5.1534 65.7365 5.03998 65.7756C4.9182 65.773 4.79717 65.7562 4.67928 65.7257Z" fill="white"/>
<path d="M7.74535 58.6004C8.23211 57.5106 8.94996 56.5389 9.84949 55.7523C10.8626 54.7284 12.075 53.9218 13.4121 53.3822C14.7492 52.8426 16.1828 52.5813 17.6249 52.6145C20.2701 52.6145 22.8953 52.8443 25.5205 52.9443C29.3261 53.2228 33.1093 52.162 36.2117 49.9463C35.6266 51.3364 34.6657 52.5369 33.4362 53.4139C32.9692 53.8343 32.4338 54.1722 31.8531 54.4133C31.4909 54.5997 31.1818 54.8741 30.9541 55.2112C30.7264 55.5483 30.5876 55.9372 30.5505 56.3419C30.3701 57.1414 29.8491 57.4612 29.1277 57.761C27.4272 58.4168 25.6203 58.7555 23.7971 58.7603C22.9955 58.7603 22.6448 58.5504 22.7951 57.761C23.0657 56.3719 22.3843 55.9023 21.1218 55.8823C17.9455 55.8823 14.7592 55.4525 11.633 56.4619C10.2402 56.9834 8.93072 57.7038 7.74535 58.6004Z" fill="white"/>
<path d="M53.4959 76.6482C54.1472 76.4784 54.5881 75.9587 55.1692 75.7588C55.3997 75.6889 55.4899 75.2192 55.9007 75.449C56.0811 75.549 56.1412 75.7189 56.031 75.8188C55.9207 75.9187 55.8105 76.5183 55.3396 76.5383L53.4959 76.6482Z" fill="#FDFDFE"/>
</svg>
