<svg width="86" height="99" viewBox="0 0 86 99" fill="none" xmlns="http://www.w3.org/2000/svg">
<path d="M65.4982 38.7661C65.4044 34.5834 65.7712 30.4007 65.9333 26.2095C66.0186 23.8915 66.1125 21.5735 66.1637 19.2555C66.1637 18.5712 66.4879 18.6225 66.923 18.785C68.945 19.5463 70.95 20.3504 72.9976 21.0517C73.5863 21.2485 73.8508 21.4794 73.774 22.0953C73.6212 23.8517 73.2808 25.5866 72.7587 27.2701C71.742 30.5742 70.4195 33.7757 68.8085 36.833C67.2046 39.9154 65.4389 42.9105 63.5189 45.8056C62.1111 47.9526 60.6778 50.0824 59.1079 52.1181C57.1883 54.6157 55.3284 57.1647 53.2808 59.5511C52.129 60.894 50.9175 62.2113 49.7742 63.5627C47.2147 66.5907 44.5272 69.5502 41.7032 72.2959C40.2442 73.7329 38.7597 75.1528 37.3264 76.6154C36.9592 76.9094 36.5393 77.13 36.0893 77.2655C35.3704 77.597 34.6257 77.8688 33.8625 78.0781C32.8216 78.3774 31.9514 77.6932 31.0897 77.3596C29.7929 76.8464 28.4704 76.4101 27.1736 75.8884C25.1175 75.033 22.9845 74.4001 20.6127 73.5704L44.7234 64.1187C43.3839 63.9049 42.2833 64.5892 41.0889 64.8971C39.5532 65.2906 38.0772 65.915 36.567 66.4282C33.6321 67.4261 30.6944 68.4154 27.7538 69.3962C25.5611 70.1233 23.3684 70.8503 21.1587 71.509C19.4524 72.0222 19.4097 71.9709 19.4097 70.1233C19.4097 66.7447 19.4097 63.366 19.4097 59.9874C19.4097 59.2518 19.2647 58.9952 18.4712 58.9781C16.2956 58.9353 14.1542 58.576 11.9615 58.6102C9.70293 58.5235 7.47054 59.1195 5.55417 60.3209C5.43214 60.4094 5.28892 60.464 5.13907 60.479C4.98922 60.494 4.83808 60.469 4.701 60.4065C5.84978 58.768 7.40556 57.4589 9.21427 56.6087C11.569 55.6165 14.0091 55.9159 16.4321 56.0527C18.866 56.3026 21.321 56.2567 23.7438 55.9159C24.9577 55.6763 26.1156 55.2091 27.1565 54.5388C27.5575 54.2822 28.0097 54.1368 28.5302 53.7604C28.3744 54.4498 27.993 55.0671 27.4466 55.5139C26.747 56.1041 26.875 56.5574 27.4466 57.2246C30.0062 60.2098 33.4188 60.9368 37.079 60.4065C42.7611 59.5511 47.2317 56.5488 50.8663 52.1694C52.5775 50.1489 53.9022 47.8291 54.7738 45.3266C56.0536 41.5545 56.2925 37.7995 53.9206 34.3268C52.6214 32.4565 50.6371 31.1774 48.4006 30.7685C43.2816 29.6737 38.973 31.6239 34.9034 34.3867C32.729 35.9038 30.8253 37.7776 29.2724 39.9293C28.5557 40.8959 27.2504 41.0926 26.1242 41.4091C24.2736 41.8353 22.3704 41.9851 20.4762 41.8539C19.7083 41.8539 19.3841 41.5973 19.4012 40.7762C19.4524 38.9029 19.4012 37.0212 19.4012 35.1479C19.3686 34.8983 19.4327 34.6456 19.5803 34.442C19.7279 34.2383 19.9478 34.0991 20.1947 34.0531C23.6073 32.8898 26.9688 31.641 30.3645 30.4606C33.0434 29.5283 35.7395 28.6729 38.4099 27.732C42.1468 26.4148 45.8581 25.0462 49.5865 23.7204C51.5659 23.019 53.5708 22.3861 55.5587 21.6933C58.2206 20.7524 60.874 19.7858 63.5359 18.8278C64.0308 18.6482 64.3379 18.614 64.3891 19.3325C64.4829 24.8238 65.0375 30.2981 64.9863 35.7894C64.9612 36.8057 65.1351 37.817 65.4982 38.7661ZM45.551 63.5713L47.1208 63.4772C47.5218 63.4772 47.5133 63.0666 47.7095 62.8613C47.9058 62.6561 47.7522 62.6304 47.5986 62.5449C47.2488 62.3481 47.172 62.7501 46.9758 62.81C46.4809 63.0068 46.0714 63.4601 45.551 63.6055V63.5713Z" fill="#1A9BE3"/>
<path d="M69.1498 62.06L78.1252 66.063C75.9923 66.8072 74.0641 67.4744 72.153 68.1587C68.8341 69.3305 65.5238 70.528 62.2049 71.6998C60.3024 72.3755 58.3998 73.0941 56.4546 73.6415C53.8974 74.3328 51.5669 75.6868 49.6974 77.5676C46.7439 80.3749 43.6088 82.9837 40.3125 85.3769C37.5823 87.4725 34.6986 89.3714 31.8234 91.2617C29.6051 92.7244 27.1992 93.9048 24.8615 95.2049C23.8206 95.7866 22.7627 96.3596 21.6877 96.9156C21.2441 97.1295 20.6297 97.3005 20.3311 96.7702C20.2517 96.6476 20.2007 96.5086 20.1821 96.3636C20.1635 96.2185 20.1777 96.0711 20.2235 95.9323C20.2694 95.7935 20.3458 95.6668 20.4472 95.5616C20.5485 95.4565 20.6722 95.3755 20.8089 95.3247C24.0518 93.4974 27.1469 91.4183 30.0659 89.1062C34.0533 86.031 37.8646 82.7327 41.4813 79.2269C45.4328 75.465 49.1861 71.4993 52.7262 67.3461C55.3795 64.2155 58.1268 61.1533 60.5583 57.8517C64.0176 53.2276 67.1534 48.369 69.9432 43.3107C71.7211 40.1073 73.2472 36.7699 74.5077 33.3287C75.5027 30.6953 76.0785 27.9215 76.2141 25.1088C76.4094 22.7661 75.9172 20.4172 74.7978 18.3515C74.0288 17.0155 72.7956 16.0105 71.3339 15.5289C67.1026 14.6369 62.723 14.7364 58.5363 15.8197C58.1012 15.9822 57.7599 15.6058 57.6149 15.2295C57.5609 15.1326 57.5282 15.0253 57.519 14.9148C57.5098 14.8043 57.5243 14.693 57.5614 14.5885C57.5986 14.484 57.6576 14.3887 57.7345 14.309C57.8114 14.2292 57.9044 14.1668 58.0073 14.1261C59.6113 13.4076 61.2665 12.8088 62.9216 12.2186C64.9698 11.4723 67.0968 10.9643 69.2607 10.7047C73.5266 10.2257 77.6218 10.5763 80.5909 14.2544C81.813 15.864 82.5741 17.7774 82.7921 19.7885C83.0696 21.9226 83.0438 24.0854 82.7153 26.2122C82.4203 28.3211 81.9377 30.3993 81.2734 32.4221C80.7103 34.1755 80.079 35.9033 79.3964 37.6141C79.3186 37.8745 79.2925 38.1476 79.3196 38.4181C79.3196 40.7703 79.3196 43.1225 79.3196 45.4747C79.3196 51.5819 79.3196 57.6892 79.3196 63.7964C79.3196 64.4721 79.3196 64.7886 78.4665 64.5149C75.8046 63.6595 73.117 62.8983 70.4381 62.0942C70.0264 61.9293 69.5696 61.9171 69.1498 62.06Z" fill="#0E84C6"/>
<path d="M42.1895 52.4945C42.1895 53.5979 42.1895 54.5131 42.1895 55.4369C42.252 56.0508 42.1091 56.6681 41.7831 57.1915C41.4572 57.7149 40.9668 58.1148 40.3893 58.328C40.2238 58.3989 40.0428 58.4259 39.8639 58.4065C39.685 58.387 39.5141 58.3218 39.3675 58.217C39.221 58.1122 39.1039 57.9714 39.0273 57.8081C38.9507 57.6448 38.9174 57.4645 38.9304 57.2845C38.8706 56.1725 38.9304 55.052 38.9304 53.7177C38.1089 54.5892 37.3798 55.5437 36.7547 56.566C36.2172 57.2674 35.7651 58.1227 34.6389 58.08C33.7004 58.08 33.3506 57.6523 33.6151 56.7285C34.0097 55.8005 34.5387 54.9358 35.1849 54.1625C36.478 52.3177 37.6713 50.4047 38.7597 48.4316C38.8877 48.175 39.246 47.8842 38.9048 47.6361C38.5635 47.3881 38.3673 47.8414 38.1625 48.0039C36.7462 49.2185 35.603 50.7239 34.3317 52.0326C33.3079 53.0591 32.6254 54.4276 31.2944 55.1461C31.1176 55.2951 30.8941 55.3768 30.6631 55.3768C30.4321 55.3768 30.2086 55.2951 30.0318 55.1461C29.5966 54.7526 29.3236 54.3506 29.6819 53.7262C30.4043 52.5983 31.2421 51.5491 32.1817 50.5956C32.3791 50.3918 32.5228 50.142 32.5998 49.8686C31.566 50.0324 30.5588 50.3345 29.6052 50.7667C28.2401 51.1773 27.7282 51.2371 27.4552 50.5186C27.3604 50.0218 27.4437 49.5074 27.6903 49.0661C27.9369 48.6248 28.3311 48.285 28.8032 48.1065C30.0744 47.6275 31.3627 47.1742 32.8728 46.6182C32.0196 46.2333 31.3712 45.9425 30.7228 45.6346C30.0744 45.3267 29.4516 45.1898 29.4601 44.4029C29.4916 44.0371 29.6074 43.6837 29.7984 43.3705C29.9894 43.0573 30.2503 42.7929 30.5607 42.5981C31.576 41.7427 32.4889 42.4356 33.3335 42.8034C34.9988 43.5594 36.7083 44.2136 38.4526 44.7621C38.6232 44.8135 38.7341 44.8904 38.8706 44.7023C39.0071 44.5141 38.8024 44.2746 38.6744 44.1206C37.6583 43.107 36.5501 42.1906 35.3641 41.3835C34.8863 41.0242 34.4341 40.6308 33.9393 40.3057C33.1885 39.8182 33.2738 39.1681 33.5809 38.518C33.7008 38.2518 33.8768 38.0147 34.0969 37.8233C34.317 37.6319 34.5759 37.4907 34.8558 37.4093C35.1356 37.328 35.4297 37.3085 35.7178 37.3523C36.0059 37.396 36.2811 37.5019 36.5244 37.6627C37.1899 38.0904 37.8297 38.518 38.6232 39.074C38.6232 37.8252 38.6232 36.7475 38.6232 35.6526C38.6267 35.1647 38.7767 34.6891 39.0537 34.2879C39.3307 33.8866 39.7217 33.5783 40.176 33.4031C41.2254 33.0182 41.8397 33.403 41.8823 34.4893C41.925 35.5756 41.8823 36.5764 41.8823 37.6199L42.1468 37.6627L44.1518 34.7716C44.3145 34.5179 44.4971 34.2777 44.6978 34.0531C45.3548 33.3688 46.5748 33.0609 46.9587 33.557C47.169 33.8817 47.2633 34.2682 47.2261 34.6535C47.1889 35.0388 47.0224 35.4001 46.754 35.6783C45.167 37.9963 43.5375 40.2886 42.1042 42.7093C41.9762 42.9231 41.8311 43.1027 41.9335 43.3936C42.3724 43.2794 42.7582 43.0165 43.0256 42.6494C44.7917 40.6393 46.5919 38.6464 48.375 36.6619C48.6905 36.1788 49.1793 35.8358 49.7401 35.7039C50.2178 35.6441 50.7298 35.5243 51.0625 35.9691C51.2164 36.1801 51.2994 36.4347 51.2994 36.6961C51.2994 36.9576 51.2164 37.2122 51.0625 37.4232C50.5762 38.1417 49.9875 38.7918 49.4415 39.4675L48.3494 40.7676C48.65 40.8688 48.97 40.8983 49.284 40.8537C49.598 40.8092 49.8973 40.6919 50.1581 40.511C50.8407 40.1005 51.6256 40.109 52.3167 39.7412C53.0077 39.3734 53.6988 40.3485 53.5026 41.1611C53.3702 41.6166 53.1234 42.0304 52.7858 42.3629C52.4482 42.6954 52.0311 42.9354 51.5744 43.06C50.6658 43.3937 49.7402 43.6793 48.8016 43.9153C48.6855 43.9314 48.5767 43.9813 48.4887 44.0588C48.4007 44.1364 48.3374 44.2382 48.3067 44.3516C48.2555 44.6253 48.5797 44.5483 48.7248 44.6253C49.3732 44.9589 50.0387 45.2411 50.6956 45.5576C50.8682 45.6109 51.0248 45.7063 51.1516 45.8352C51.2784 45.9642 51.3712 46.1226 51.422 46.2963C51.4727 46.47 51.4796 46.6537 51.4422 46.8308C51.4048 47.0079 51.3242 47.1729 51.2075 47.3111C50.3544 48.7908 49.5524 49.0218 47.9996 48.3289C46.4468 47.6361 44.6296 47.0288 42.9232 46.4301C42.5734 46.3103 42.07 46.1649 41.8056 46.5669C41.5411 46.9689 42.0103 47.2084 42.2577 47.4736C43.5917 48.7917 45.0423 49.9856 46.5918 51.0404C46.7907 51.1457 46.9652 51.2919 47.1037 51.4695C47.2423 51.6471 47.3418 51.8521 47.3958 52.071C47.4498 52.2899 47.457 52.5177 47.4169 52.7396C47.3769 52.9615 47.2905 53.1724 47.1635 53.3584C46.8801 53.8222 46.4279 54.1574 45.9025 54.2931C45.3771 54.4287 44.8197 54.3543 44.348 54.0855C43.6399 53.5979 42.9573 53.059 42.1895 52.4945Z" fill="#1A9BE3"/>
<path d="M3.98434 54.2565C4.67667 52.9765 5.68777 51.898 6.91923 51.1259C9.47876 49.5093 12.2345 49.2955 15.2292 49.6633C19.7425 50.2107 24.2813 50.2877 28.1462 47.0972C27.8048 48.0987 27.1681 48.9726 26.3204 49.6034C25.0407 50.5272 25.1687 51.7161 25.5441 52.8452C25.8341 53.7006 25.3734 53.9572 24.8871 54.0512C23.3906 54.482 21.845 54.7178 20.2885 54.7526C19.5633 54.7013 19.2988 54.4875 19.4353 53.8032C19.606 52.7597 19.2476 52.3662 18.1385 52.4603C15.9714 52.6399 13.7958 52.2807 11.6202 52.255C9.06071 52.255 6.6633 52.5886 4.56449 54.1624C4.47984 54.2198 4.38805 54.2658 4.29147 54.2993C4.18778 54.297 4.08472 54.2827 3.98434 54.2565Z" fill="#1A9BE3"/>
<path d="M6.59505 48.1579C7.00952 47.225 7.62076 46.3933 8.38669 45.7201C9.24937 44.8436 10.2817 44.1533 11.4202 43.6914C12.5587 43.2295 13.7795 43.0059 15.0073 43.0343C17.2597 43.0343 19.495 43.231 21.7304 43.3166C24.9708 43.555 28.192 42.647 30.8337 40.7505C30.3355 41.9403 29.5173 42.9679 28.4704 43.7186C28.0728 44.0784 27.6169 44.3676 27.1224 44.5739C26.8141 44.7335 26.5508 44.9684 26.3569 45.2569C26.1631 45.5455 26.0449 45.8783 26.0133 46.2248C25.8597 46.909 25.4161 47.1827 24.8018 47.4394C23.3538 48.0007 21.8153 48.2906 20.2629 48.2947C19.5804 48.2947 19.2817 48.1151 19.4097 47.4394C19.6401 46.2504 19.0599 45.8484 17.9849 45.8313C15.2803 45.8313 12.5672 45.4635 9.90534 46.3274C8.71941 46.7738 7.60438 47.3904 6.59505 48.1579Z" fill="#1A9BE3"/>
</svg>
