<svg xmlns="http://www.w3.org/2000/svg" version="1.1" xmlns:xlink="http://www.w3.org/1999/xlink" xmlns:svgjs="http://svgjs.com/svgjs" width="512" height="512" x="0" y="0" viewBox="0 0 64 64" style="enable-background:new 0 0 512 512" xml:space="preserve" class=""><g><g xmlns="http://www.w3.org/2000/svg" id="Layer_4" data-name="Layer 4"><path d="m18.105 28h-16.105v-20a6 6 0 0 1 6-6h48a6 6 0 0 1 6 6v20h-20.1" fill="#117cb8" data-original="#3665a6" class=""></path><path d="m62 25v-17a6 6 0 0 0 -6-6h-48a5.974 5.974 0 0 0 -2.466.534 5.974 5.974 0 0 0 -.534 2.466 20 20 0 0 0 20 20z" fill="#1a9be3" data-original="#4d81bd" class=""></path><path d="m8 12h48v16h-48z" fill="#889ea6" data-original="#889ea6"></path><path d="m56 12h-48v3.5a19.968 19.968 0 0 0 17 9.5h31z" fill="#99b1b8" data-original="#99b1b8" class=""></path><path d="m56 28-1 6h-46l-1-6z" fill="#53626c" data-original="#53626c" class=""></path><g fill="#677982"><path d="m8 15h48v2h-48z" fill="#677982" data-original="#677982"></path><path d="m8 19h48v2h-48z" fill="#677982" data-original="#677982"></path><path d="m8 23h48v2h-48z" fill="#677982" data-original="#677982"></path></g><path d="m13 46c0-1.1-2-4-2-4s-2 2.9-2 4a2 2 0 0 0 4 0z" fill="#589edb" data-original="#589edb" class=""></path><path d="m46 24-10 19h-8l-10-19z" fill="#589edb" data-original="#589edb" class=""></path><path d="m21 24 10 19h5l10-19z" fill="#1a9be3" data-original="#6bbae9" class=""></path><path d="m37 24-4 19h-2l-4-19z" fill="#b3daf4" data-original="#b3daf4"></path><path d="m50 63a11 11 0 0 0 -11-11 5 5 0 0 1 -5-5h-4a9 9 0 0 0 9 9 7 7 0 0 1 7 7z" fill="#768891" data-original="#768891"></path><path d="m28 43h8v4h-8z" fill="#45525a" data-original="#45525a" class=""></path><path d="m28 43h8v2h-8z" fill="#53626c" data-original="#53626c" class=""></path><path d="m39 52a5 5 0 0 1 -5-5h-2.941a9 9 0 0 0 8.941 8 7 7 0 0 1 7 7v1h3a11 11 0 0 0 -11-11z" fill="#889ea6" data-original="#889ea6"></path><path d="m10 45a1.992 1.992 0 0 0 2.82 1.82 1.99 1.99 0 0 0 .18-.82c0-.9-1.321-2.978-1.816-3.726a7.55 7.55 0 0 0 -1.184 2.726z" fill="#1a9be3" data-original="#6bbae9" class=""></path><path d="m20 41c0-1.1-2-4-2-4s-2 2.9-2 4a2 2 0 0 0 4 0z" fill="#589edb" data-original="#589edb" class=""></path><path d="m17 40a1.992 1.992 0 0 0 2.82 1.82 1.99 1.99 0 0 0 .18-.82c0-.9-1.321-2.978-1.816-3.726a7.55 7.55 0 0 0 -1.184 2.726z" fill="#1a9be3" data-original="#6bbae9" class=""></path><path d="m24 56c0-1.1-2-4-2-4s-2 2.9-2 4a2 2 0 0 0 4 0z" fill="#589edb" data-original="#589edb" class=""></path><path d="m21 55a1.992 1.992 0 0 0 2.82 1.82 1.99 1.99 0 0 0 .18-.82c0-.9-1.321-2.978-1.816-3.726a7.55 7.55 0 0 0 -1.184 2.726z" fill="#1a9be3" data-original="#6bbae9" class=""></path><path d="m55 46c0-1.1-2-4-2-4s-2 2.9-2 4a2 2 0 0 0 4 0z" fill="#589edb" data-original="#589edb" class=""></path><path d="m52 45a1.992 1.992 0 0 0 2.82 1.82 1.99 1.99 0 0 0 .18-.82c0-.9-1.321-2.978-1.816-3.726a7.55 7.55 0 0 0 -1.184 2.726z" fill="#1a9be3" data-original="#6bbae9" class=""></path><path d="m48 41c0-1.1-2-4-2-4s-2 2.9-2 4a2 2 0 0 0 4 0z" fill="#589edb" data-original="#589edb" class=""></path><path d="m45 40a1.992 1.992 0 0 0 2.82 1.82 1.99 1.99 0 0 0 .18-.82c0-.9-1.321-2.978-1.816-3.726a7.55 7.55 0 0 0 -1.184 2.726z" fill="#1a9be3" data-original="#6bbae9" class=""></path><path d="m22 59a3 3 0 0 0 3-3c0-1.278-1.522-3.621-2.177-4.568a1.038 1.038 0 0 0 -1.646 0c-.655.947-2.177 3.29-2.177 4.568a3 3 0 0 0 3 3zm0-5.146a7.457 7.457 0 0 1 1 2.146 1 1 0 0 1 -2 0 7.457 7.457 0 0 1 1-2.146z" fill="#000000" data-original="#000000" class=""></path><path d="m56 1h-48a7.008 7.008 0 0 0 -7 7v20a1 1 0 0 0 1 1h5.153l.861 5.165a1 1 0 0 0 .986.835h13.66l4.34 8.247v3.753a1 1 0 0 0 1 1h1.051a10.013 10.013 0 0 0 9.949 9 6.006 6.006 0 0 1 6 6h2a8.009 8.009 0 0 0 -8-8 8.008 8.008 0 0 1 -7.931-7h2.021a6.006 6.006 0 0 0 5.91 5 10.011 10.011 0 0 1 10 10h2a12.013 12.013 0 0 0 -12-12 4 4 0 0 1 -3.858-3h.858a1 1 0 0 0 1-1v-3.753l4.34-8.247h13.66a1 1 0 0 0 .986-.835l.861-5.165h5.153a1 1 0 0 0 1-1v-20a7.008 7.008 0 0 0 -7-7zm-10.449 26 1.049-2h8.4v2zm-10.151 15h-1.168l3.579-17h6.533zm-15.744-17h6.533l3.579 17h-1.168zm12.155 17-3.579-17h7.536l-3.579 17zm-2.811 2h6v2h-6zm26-29h-46v-2h46zm-46 2h46v2h-46zm0 4h46v2h-46zm0 4h8.4l1.053 2h-9.453zm.847 8-.667-4h10.32l2.105 4zm44.306 0h-11.76l2.1-4h10.327zm6.847-6h-4v-15a1 1 0 0 0 -1-1h-48a1 1 0 0 0 -1 1v15h-4v-19a5.006 5.006 0 0 1 5-5h48a5.006 5.006 0 0 1 5 5z" fill="#000000" data-original="#000000" class=""></path><path d="m10.177 41.432c-.655.947-2.177 3.29-2.177 4.568a3 3 0 0 0 6 0c0-1.278-1.522-3.621-2.177-4.568a1.038 1.038 0 0 0 -1.646 0zm.823 5.568a1 1 0 0 1 -1-1 7.457 7.457 0 0 1 1-2.147 7.457 7.457 0 0 1 1 2.147 1 1 0 0 1 -1 1z" fill="#000000" data-original="#000000" class=""></path><path d="m17.177 36.432c-.655.947-2.177 3.29-2.177 4.568a3 3 0 0 0 6 0c0-1.278-1.522-3.621-2.177-4.568a1.038 1.038 0 0 0 -1.646 0zm.823 5.568a1 1 0 0 1 -1-1 7.457 7.457 0 0 1 1-2.147 7.457 7.457 0 0 1 1 2.147 1 1 0 0 1 -1 1z" fill="#000000" data-original="#000000" class=""></path><path d="m45.177 36.432c-.655.947-2.177 3.29-2.177 4.568a3 3 0 0 0 6 0c0-1.278-1.522-3.621-2.177-4.568a1.038 1.038 0 0 0 -1.646 0zm1.823 4.568a1 1 0 0 1 -2 0 7.457 7.457 0 0 1 1-2.147 7.457 7.457 0 0 1 1 2.147z" fill="#000000" data-original="#000000" class=""></path><path d="m53.823 41.432a1.038 1.038 0 0 0 -1.646 0c-.655.947-2.177 3.29-2.177 4.568a3 3 0 0 0 6 0c0-1.278-1.522-3.621-2.177-4.568zm-.823 5.568a1 1 0 0 1 -1-1 7.457 7.457 0 0 1 1-2.147 7.457 7.457 0 0 1 1 2.147 1 1 0 0 1 -1 1z" fill="#000000" data-original="#000000" class=""></path></g></g></svg>