<svg xmlns="http://www.w3.org/2000/svg" version="1.1" xmlns:xlink="http://www.w3.org/1999/xlink" xmlns:svgjs="http://svgjs.com/svgjs" width="512" height="512" x="0" y="0" viewBox="0 0 64 64" style="enable-background:new 0 0 512 512" xml:space="preserve" class=""><g><g xmlns="http://www.w3.org/2000/svg" id="Layer_15" data-name="Layer 15"><path d="m2 51v-19a6 6 0 0 1 6-6h48a6 6 0 0 1 6 6v19a3 3 0 0 1 -3 3h-54a3 3 0 0 1 -3-3z" fill="#1a9be3" data-original="#3665a6" class=""></path><path d="m56 26h-48a5.973 5.973 0 0 0 -3.793 1.353 28 28 0 0 0 27.793 24.647h29.816a2.962 2.962 0 0 0 .184-1v-19a6 6 0 0 0 -6-6z" fill="#1a9be3" data-original="#4d81bd" class=""></path><path d="m2 51a3 3 0 0 0 3 3h54a3 3 0 0 0 3-3v-9h-60z" fill="#889ea6" data-original="#889ea6" class=""></path><path d="m32 52h29.816a2.962 2.962 0 0 0 .184-1v-9h-51.442a27.936 27.936 0 0 0 21.442 10z" fill="#99b1b8" data-original="#99b1b8"></path><rect fill="#344047" height="4" rx="2" width="52" x="6" y="46" data-original="#344047" class=""></rect><circle cx="56" cy="36" fill="#4abe4e" r="2" data-original="#b2cea2" class=""></circle><circle cx="48" cy="36" fill="#4abe4e" r="2" data-original="#b2cea2" class=""></circle><path d="m62 51a3.024 3.024 0 0 1 -.053.525 2.749 2.749 0 0 0 .053-.525z" fill="#1a9be3" data-original="#4d81bd" class=""></path><path d="m56 46h-41.308a28 28 0 0 0 6.916 4h34.392a2 2 0 0 0 0-4z" fill="#53626c" data-original="#53626c" class=""></path><g fill="#6bbae9"><path d="m31 57h2v6h-2z" fill="#6bbae9" data-original="#6bbae9" class=""></path><path d="m11 57h2v6h-2z" fill="#6bbae9" data-original="#6bbae9" class=""></path><path d="m21 57h2v6h-2z" fill="#6bbae9" data-original="#6bbae9" class=""></path><path d="m41 57h2v6h-2z" fill="#6bbae9" data-original="#6bbae9" class=""></path><path d="m51 57h2v6h-2z" fill="#6bbae9" data-original="#6bbae9" class=""></path></g><path d="m47.82 18a11.071 11.071 0 0 1 -1.76 4.24l2.25 2.25-2.82 2.82-2.25-2.25a11.071 11.071 0 0 1 -4.24 1.76v3.18h-4v-3.18a11.071 11.071 0 0 1 -4.24-1.76l-2.25 2.25-2.82-2.82 2.25-2.25a11.071 11.071 0 0 1 -1.76-4.24h-3.18v-4h3.18a11.071 11.071 0 0 1 1.76-4.24l-2.25-2.25 2.82-2.82 2.25 2.25a11.071 11.071 0 0 1 4.24-1.76v-3.18h4v3.18a11.071 11.071 0 0 1 4.24 1.76l2.25-2.25 2.82 2.82-2.25 2.25a11.071 11.071 0 0 1 1.76 4.24h3.18v4z" fill="#768891" data-original="#768891" class=""></path><path d="m51 18v-4h-3.18a11.071 11.071 0 0 0 -1.76-4.24l2.25-2.25-2.82-2.82-2.25 2.25a11.071 11.071 0 0 0 -4.24-1.76v-3.18h-2v28h2v-3.18a11.071 11.071 0 0 0 4.24-1.76l2.25 2.25 2.82-2.82-2.25-2.25a11.071 11.071 0 0 0 1.76-4.24z" fill="#889ea6" data-original="#889ea6" class=""></path><circle cx="37" cy="16" fill="#ffffff" r="6" data-original="#ffffff" class=""></circle><path d="m32.78 23a9.055 9.055 0 0 1 -1.16 2.79l1.57 1.57-2.83 2.83-1.57-1.57a9.055 9.055 0 0 1 -2.79 1.16v2.22h-4v-2.22a9.055 9.055 0 0 1 -2.79-1.16l-1.57 1.57-2.83-2.83 1.57-1.57a9.055 9.055 0 0 1 -1.16-2.79h-2.22v-4h2.22a9.055 9.055 0 0 1 1.16-2.79l-1.57-1.57 2.83-2.83 1.57 1.57a9.055 9.055 0 0 1 2.79-1.16v-2.22h4v2.22a9.055 9.055 0 0 1 2.79 1.16l1.57-1.57 2.83 2.83-1.57 1.57a9.055 9.055 0 0 1 1.16 2.79h2.22v4z" fill="#6bbae9" data-original="#6bbae9" class=""></path><path d="m35 23v-4h-2.22a9.055 9.055 0 0 0 -1.16-2.79l1.57-1.57-2.83-2.83-1.57 1.57a9.055 9.055 0 0 0 -2.79-1.16v-2.22h-2v22h2v-2.22a9.055 9.055 0 0 0 2.79-1.16l1.57 1.57 2.83-2.83-1.57-1.57a9.055 9.055 0 0 0 1.16-2.79z" fill="#7bd2fc" data-original="#7bd2fc" class=""></path><circle cx="24" cy="21" fill="#ffffff" r="5" data-original="#ffffff" class=""></circle><path d="m56 25h-6.852a.987.987 0 0 0 -.131-1.217l-1.682-1.683a11.988 11.988 0 0 0 1.287-3.1h2.378a1 1 0 0 0 1-1v-4a1 1 0 0 0 -1-1h-2.378a11.988 11.988 0 0 0 -1.287-3.1l1.682-1.682a1 1 0 0 0 0-1.414l-2.817-2.821a1 1 0 0 0 -1.414 0l-1.686 1.682a11.988 11.988 0 0 0 -3.1-1.287v-2.378a1 1 0 0 0 -1-1h-4a1 1 0 0 0 -1 1v2.378a11.988 11.988 0 0 0 -3.1 1.287l-1.683-1.682a1 1 0 0 0 -1.414 0l-2.82 2.817a1 1 0 0 0 0 1.414l.783.786h-3.766a1 1 0 0 0 -1 1v1.457a9.991 9.991 0 0 0 -1.625.674l-1.028-1.031a1 1 0 0 0 -1.414 0l-2.83 2.83a1 1 0 0 0 0 1.414l1.028 1.028a9.991 9.991 0 0 0 -.674 1.628h-1.457a1 1 0 0 0 -1 1v4a1 1 0 0 0 1 1h1.457a9.9 9.9 0 0 0 .382 1h-6.839a7.008 7.008 0 0 0 -7 7v19a4 4 0 0 0 4 4h54a4 4 0 0 0 4-4v-19a7.008 7.008 0 0 0 -7-7zm-27.49-18.9 1.543 1.543a1 1 0 0 0 1.274.117 10.006 10.006 0 0 1 3.857-1.6 1 1 0 0 0 .816-.98v-2.18h2v2.18a1 1 0 0 0 .816.983 10.006 10.006 0 0 1 3.857 1.6 1 1 0 0 0 1.274-.117l1.543-1.546 1.41 1.41-1.547 1.543a1 1 0 0 0 -.117 1.274 10.006 10.006 0 0 1 1.6 3.857 1 1 0 0 0 .984.816h2.18v2h-2.18a1 1 0 0 0 -.983.816 10.006 10.006 0 0 1 -1.6 3.857 1 1 0 0 0 .117 1.274l1.546 1.543-1.41 1.41-1.543-1.543a1 1 0 0 0 -1.274-.117 10.008 10.008 0 0 1 -3.857 1.6 1 1 0 0 0 -.816.98v2.18h-2v-2.18a1 1 0 0 0 -.816-.983 10.038 10.038 0 0 1 -2.112-.646 10.1 10.1 0 0 0 .471-1.191h1.457a1 1 0 0 0 1-1v-.084a7.088 7.088 0 0 0 1 .084 7 7 0 1 0 -5.431-11.395l-.5-.5a1 1 0 0 0 -1.414 0l-1.028 1.028c-.224-.117-.454-.221-.686-.321a10.052 10.052 0 0 1 .825-1.484 1 1 0 0 0 -.117-1.273l-1.549-1.545zm5.39 7.833-.911-.911a5.025 5.025 0 1 1 3.011 7.867v-1.889a1 1 0 0 0 -1-1h-1.457a9.991 9.991 0 0 0 -.674-1.625l1.031-1.028a1 1 0 0 0 0-1.414zm-19.9 8.067v-2h1.22a1 1 0 0 0 .974-.775 8.118 8.118 0 0 1 1.032-2.481 1 1 0 0 0 -.139-1.241l-.863-.863 1.416-1.416.863.863a1 1 0 0 0 1.241.139 8.118 8.118 0 0 1 2.481-1.032 1 1 0 0 0 .775-.974v-1.22h2v1.22a1 1 0 0 0 .775.974 8.118 8.118 0 0 1 2.481 1.032 1 1 0 0 0 1.241-.139l.863-.863 1.416 1.416-.863.863a1 1 0 0 0 -.139 1.241 8.118 8.118 0 0 1 1.032 2.481 1 1 0 0 0 .974.775h1.22v2h-1.22a1 1 0 0 0 -.974.775 8.118 8.118 0 0 1 -1.032 2.481 1 1 0 0 0 .139 1.241l.863.863-1.416 1.416-.863-.863a1 1 0 0 0 -1.241-.139 8.071 8.071 0 0 1 -2.48 1.031 1 1 0 0 0 -.776.975v1.22h-2v-1.22a1 1 0 0 0 -.776-.975 8.071 8.071 0 0 1 -2.48-1.031 1 1 0 0 0 -1.241.139l-.863.863-1.416-1.416.863-.863a1 1 0 0 0 .139-1.241 8.118 8.118 0 0 1 -1.032-2.481 1 1 0 0 0 -.974-.775zm45 31h-54a2 2 0 0 1 -2-2v-8h58v8a2 2 0 0 1 -2 2zm2-12h-58v-9a5.006 5.006 0 0 1 5-5h5.88a1 1 0 0 0 .223 1.067l2.83 2.83a1 1 0 0 0 1.414 0l1.028-1.028a9.991 9.991 0 0 0 1.625.674v1.457a1 1 0 0 0 1 1h4a1 1 0 0 0 1-1v-1.457a9.991 9.991 0 0 0 1.625-.674l1.028 1.031a1 1 0 0 0 1.414 0l2.83-2.83a.97.97 0 0 0 .1-.155v2.085a1 1 0 0 0 1 1h4a1 1 0 0 0 1-1v-2.379a11.95 11.95 0 0 0 3.1-1.286l1.682 1.682a1 1 0 0 0 1.414 0l1.021-1.017h8.786a5.006 5.006 0 0 1 5 5z" fill="#000000" data-original="#000000" class=""></path><path d="m56 33a3 3 0 1 0 3 3 3 3 0 0 0 -3-3zm0 4a1 1 0 1 1 1-1 1 1 0 0 1 -1 1z" fill="#000000" data-original="#000000" class=""></path><path d="m48 33a3 3 0 1 0 3 3 3 3 0 0 0 -3-3zm0 4a1 1 0 1 1 1-1 1 1 0 0 1 -1 1z" fill="#000000" data-original="#000000" class=""></path><path d="m31 57h2v6h-2z" fill="#000000" data-original="#000000" class=""></path><path d="m11 57h2v6h-2z" fill="#000000" data-original="#000000" class=""></path><path d="m21 57h2v6h-2z" fill="#000000" data-original="#000000" class=""></path><path d="m41 57h2v6h-2z" fill="#000000" data-original="#000000" class=""></path><path d="m51 57h2v6h-2z" fill="#000000" data-original="#000000" class=""></path><path d="m56 45h-48a3 3 0 0 0 0 6h48a3 3 0 0 0 0-6zm0 4h-48a1 1 0 0 1 0-2h48a1 1 0 0 1 0 2z" fill="#000000" data-original="#000000" class=""></path><path d="m24 27a6 6 0 1 0 -6-6 6.006 6.006 0 0 0 6 6zm0-10a4 4 0 1 1 -4 4 4 4 0 0 1 4-4z" fill="#000000" data-original="#000000" class=""></path></g></g></svg>