<svg width="5" height="9" viewBox="0 0 5 9" fill="none" xmlns="http://www.w3.org/2000/svg">
<g clip-path="url(#clip0_0_368)">
<path d="M0.841882 3.1748e-05C0.951167 -0.000975349 1.05951 0.0219873 1.16034 0.0675308C1.26118 0.113074 1.35243 0.180252 1.42856 0.265001L4.75734 3.86286C5.08139 4.21311 5.08139 4.78101 4.75734 5.1408L1.42856 8.73866C1.10451 9.0889 0.579074 9.0889 0.246195 8.73866C-0.0866829 8.38841 -0.0778552 7.82051 0.246195 7.46072L2.98757 4.49656L0.255023 1.5336C-0.0690275 1.18335 -0.0690275 0.61624 0.255023 0.255659C0.412073 0.0905907 0.622821 -0.00120825 0.841882 3.1748e-05V3.1748e-05Z" fill="white"/>
</g>
<defs>
<clipPath id="clip0_0_368">
<rect width="5" height="9" fill="white"/>
</clipPath>
</defs>
</svg>
