<svg width="5" height="9" viewBox="0 0 5 9" fill="none" xmlns="http://www.w3.org/2000/svg">
<g clip-path="url(#clip0_0_372)">
<path d="M4.15812 3.1748e-05C4.04884 -0.000975349 3.9405 0.0219873 3.83966 0.0675308C3.73882 0.113074 3.64758 0.180252 3.57145 0.265001L0.242662 3.86286C-0.081388 4.21311 -0.081388 4.78101 0.242662 5.1408L3.57145 8.73866C3.8955 9.0889 4.42093 9.0889 4.75381 8.73866C5.08669 8.38841 5.07786 7.82051 4.75381 7.46072L2.01244 4.49656L4.74498 1.5336C5.06903 1.18335 5.06903 0.61624 4.74498 0.255659C4.58793 0.0905907 4.37718 -0.00120825 4.15812 3.1748e-05Z" fill="white"/>
</g>
<defs>
<clipPath id="clip0_0_372">
<rect width="5" height="9" fill="white" transform="matrix(-1 0 0 1 5 0)"/>
</clipPath>
</defs>
</svg>
