<?xml version="1.0" encoding="utf-8"?><!DOCTYPE svg PUBLIC "-//W3C//DTD SVG 1.1//EN" "http://www.w3.org/Graphics/SVG/1.1/DTD/svg11.dtd"><svg viewBox="0 0 512 512" xmlns="http://www.w3.org/2000/svg" xmlns:xlink="http://www.w3.org/1999/xlink"><style>:root>svg{display:none}:root>svg:target{display:block}</style><svg fill="none" viewBox="0 0 24 24" id="call" xmlns="http://www.w3.org/2000/svg"><path d="M15 12h2c0-2.76-2.24-5-5-5v2c1.66 0 3 1.34 3 3zm4 0h2a9 9 0 00-9-9v2c3.87 0 7 3.13 7 7zm1 3.5c-1.25 0-2.45-.2-3.57-.57-.1-.03-.21-.05-.31-.05-.26 0-.51.1-.71.29l-2.2 2.2a15.045 15.045 0 01-6.59-6.59l2.2-2.21a.96.96 0 00.25-1A11.36 11.36 0 018.5 4c0-.55-.45-1-1-1H4c-.55 0-1 .45-1 1 0 9.39 7.61 17 17 17 .55 0 1-.45 1-1v-3.5c0-.55-.45-1-1-1zM5.03 5h1.5c.07.88.22 1.75.45 2.58l-1.2 1.21c-.4-1.21-.66-2.47-.75-3.79zM19 18.97c-1.32-.09-2.6-.35-3.8-.76l1.2-1.2c.85.24 1.72.39 2.6.45v1.51z" fill="#A17479"/></svg><svg class="bb24-crm-button-icon" viewBox="0 0 28 30" id="call2" xmlns="http://www.w3.org/2000/svg"><path class="bb24-crm-button-call-icon" fill="#fff" fill-rule="evenodd" d="M21.872 19.905c-.947-.968-2.13-.968-3.072 0-.718.737-1.256.974-1.962 1.723-.193.206-.356.25-.591.112-.465-.262-.96-.474-1.407-.761-2.082-1.355-3.827-3.097-5.372-5.057-.767-.974-1.449-2.017-1.926-3.19-.096-.238-.078-.394.109-.587.718-.718.96-.98 1.666-1.717.984-1.024.984-2.223-.006-3.253-.561-.586-1.104-1.397-1.562-2.034-.457-.637-.816-1.393-1.402-1.986C5.4 2.2 4.217 2.2 3.275 3.16c-.725.737-1.419 1.492-2.155 2.216C.438 6.045.093 6.863.02 7.818c-.115 1.555.254 3.022.773 4.452 1.062 2.959 2.68 5.587 4.642 7.997 2.65 3.259 5.813 5.837 9.513 7.698 1.666.836 3.392 1.48 5.27 1.585 1.291.075 2.414-.262 3.313-1.304.616-.712 1.31-1.361 1.962-2.042.966-1.011.972-2.235.012-3.234-1.147-1.192-2.48-1.879-3.634-3.065zm-.49-5.36l.268-.047c.583-.103.953-.707.79-1.295a10.395 10.395 0 00-2.537-4.445 9.826 9.826 0 00-4.589-2.708c-.575-.15-1.149.248-1.231.855l-.038.28c-.07.522.253 1.01.747 1.142a7.614 7.614 0 013.517 2.086 7.996 7.996 0 011.953 3.412.99.99 0 001.12.72zm2.559-9.85C21.619 2.292 18.74.69 15.56.02 15-.097 14.46.303 14.382.888l-.038.28a1.027 1.027 0 00.786 1.15c2.739.584 5.218 1.968 7.217 4.03a14.86 14.86 0 013.803 7.012c.122.53.617.873 1.136.781l.265-.047c.569-.1.933-.678.8-1.259a17.276 17.276 0 00-4.41-8.14z"/></svg><svg viewBox="0 0 26 26" id="close" xmlns="http://www.w3.org/2000/svg"><path clip-rule="evenodd" d="M20.03 7.052L18.947 5.97 13 11.92 7.052 5.97 5.971 7.052 11.919 13 5.97 18.948l1.081 1.081L13 14.081l5.948 5.948 1.081-1.081L14.082 13l5.947-5.948z"/></svg><svg viewBox="0 0 512 512" id="documents" xmlns="http://www.w3.org/2000/svg"><path d="M446.605 124.392L326.608 4.395A15.02 15.02 0 00316 0H106C81.187 0 61 20.187 61 45v422c0 24.813 20.187 45 45 45h300c24.813 0 45-20.187 45-45V135c0-4.09-1.717-7.931-4.395-10.608zM331 51.213L399.787 120H346c-8.271 0-15-6.729-15-15zM406 482H106c-8.271 0-15-6.729-15-15V45c0-8.271 6.729-15 15-15h195v75c0 24.813 20.187 45 45 45h75v317c0 8.271-6.729 15-15 15z"/><path d="M346 212H166c-8.284 0-15 6.716-15 15s6.716 15 15 15h180c8.284 0 15-6.716 15-15s-6.716-15-15-15zM346 272H166c-8.284 0-15 6.716-15 15s6.716 15 15 15h180c8.284 0 15-6.716 15-15s-6.716-15-15-15zM346 332H166c-8.284 0-15 6.716-15 15s6.716 15 15 15h180c8.284 0 15-6.716 15-15s-6.716-15-15-15zM286 392H166c-8.284 0-15 6.716-15 15s6.716 15 15 15h120c8.284 0 15-6.716 15-15s-6.716-15-15-15z"/></svg><svg viewBox="0 0 476.3 475.1" id="ic-filters" xmlns="http://www.w3.org/2000/svg"><defs><style>.ecls-1{fill:none;stroke:#2dc964;stroke-width:47px}</style></defs><g id="eСлой_2" data-name="Слой 2"><path class="ecls-1" d="M37.29 23.62a24.92 24.92 0 012.5-.12h396.66a25 25 0 012.5.12c-.33.61-.73 1.29-1.22 2L323 197.78c-14.31 21.47-25.32 57.85-25.32 83.67v119.07c0 12.82-11 26.94-23.49 30.06l-2.33.58-38.55 9.64-38.49 9.62-2.32.58c-8.78 2.2-13.87-1.76-13.87-10.71V281.36c0-25.8-11-62.07-25.32-83.58L38.51 25.63c-.51-.73-.89-1.4-1.22-2.01z" id="eLayer_1" data-name="Layer 1"/></g></svg><svg viewBox="0 0 94 94" id="insta" xmlns="http://www.w3.org/2000/svg"><path d="M64.748 32.155h8.781a3.507 3.507 0 003.496-3.498v-8.371a3.506 3.506 0 00-3.496-3.498h-8.781a3.507 3.507 0 00-3.497 3.498v8.371a3.507 3.507 0 003.497 3.498z"/><ellipse cx="47.074" cy="46.831" rx="15.602" ry="15.117"/><path d="M89 0H5a5 5 0 00-5 5v84a5 5 0 005 5h84a5 5 0 005-5V5a5 5 0 00-5-5zm-3.157 75.872c0 5.911-4.487 9.971-9.971 9.971H18.128c-5.484 0-9.971-4.06-9.971-9.971V18.128c0-5.911 4.486-9.971 9.971-9.971h57.744c5.483 0 9.971 4.06 9.971 9.971v57.744z"/><path d="M71.221 47.676c0 12.922-10.812 23.396-24.146 23.396-13.336 0-24.147-10.475-24.147-23.396 0-2.316.35-4.553.997-6.666h-7.136v32.815a3.098 3.098 0 003.089 3.088h54.099a3.098 3.098 0 003.088-3.088V41.01h-6.838a22.82 22.82 0 01.994 6.666z"/></svg><svg viewBox="0 0 15 12" id="mail" xmlns="http://www.w3.org/2000/svg"><path fill-rule="evenodd" clip-rule="evenodd" d="M13.125 12H1.875a1.89 1.89 0 01-1.326-.54A1.832 1.832 0 010 10.153V1.846c0-.49.198-.96.55-1.305A1.89 1.89 0 011.874 0h11.25c.497 0 .974.195 1.326.54.351.347.549.817.549 1.306v8.308c0 .49-.197.96-.55 1.305a1.89 1.89 0 01-1.325.541zM3.313 1.846l4.201 4.137 4.205-4.137H3.313zm9.812 1.385l-4.85 4.773a.984.984 0 01-.76.277.996.996 0 01-.761-.277L1.875 3.2v6.954h11.25V3.23z"/></svg><svg fill="none" viewBox="0 0 15 12" id="mailw" xmlns="http://www.w3.org/2000/svg"><path fill-rule="evenodd" clip-rule="evenodd" d="M13.125 12H1.875a1.89 1.89 0 01-1.326-.54A1.832 1.832 0 010 10.153V1.846c0-.49.198-.96.55-1.305A1.89 1.89 0 011.874 0h11.25c.497 0 .974.195 1.326.54.351.347.549.817.549 1.306v8.308c0 .49-.197.96-.55 1.305a1.89 1.89 0 01-1.325.541zM3.313 1.846l4.201 4.137 4.205-4.137H3.313zm9.812 1.385l-4.85 4.773a.984.984 0 01-.76.277.996.996 0 01-.761-.277L1.875 3.2v6.954h11.25V3.23z" fill="#fff"/></svg><svg viewBox="0 0 24 24" id="mall" xmlns="http://www.w3.org/2000/svg"><path d="M19 6h-2c0-2.76-2.24-5-5-5S7 3.24 7 6H5c-1.1 0-2 .9-2 2v12c0 1.1.9 2 2 2h14c1.1 0 2-.9 2-2V8c0-1.1-.9-2-2-2zm-7-3c1.66 0 3 1.34 3 3H9c0-1.66 1.34-3 3-3zm7 17H5V8h14v12zm-7-8c-1.66 0-3-1.34-3-3H7c0 2.76 2.24 5 5 5s5-2.24 5-5h-2c0 1.66-1.34 3-3 3z"/></svg><svg viewBox="0 0 13 15" id="marker" xmlns="http://www.w3.org/2000/svg"><g clip-path="url(#jclip0_0_10)"><path fill-rule="evenodd" clip-rule="evenodd" d="M11.332 9.296h.028L6.82 15h-.921L1.354 9.296h.027a5.944 5.944 0 01-1.013-3.32c0-1.616.63-3.166 1.754-4.308A5.935 5.935 0 016.355-.117c1.588 0 3.111.642 4.234 1.785a6.149 6.149 0 011.754 4.309 5.944 5.944 0 01-1.01 3.32zM6.358 1.875a4.09 4.09 0 00-2.13.6 4.188 4.188 0 00-1.525 1.63 4.28 4.28 0 00.21 4.332H2.9l3.263 4.17h.389l3.295-4.17h-.045a4.28 4.28 0 00.21-4.332 4.188 4.188 0 00-1.524-1.63 4.09 4.09 0 00-2.13-.6zm0 5.625c-.273 0-.54-.082-.767-.237a1.401 1.401 0 01-.51-.631 1.43 1.43 0 01.3-1.533c.193-.196.44-.33.708-.384a1.36 1.36 0 01.798.08c.252.106.468.286.62.517a1.424 1.424 0 01-.172 1.776 1.37 1.37 0 01-.977.412z"/></g><defs><clipPath id="jclip0_0_10"><path transform="translate(.37)" d="M0 0h11.975v15H0z"/></clipPath></defs></svg><svg viewBox="0 0 24 24" id="plus" xmlns="http://www.w3.org/2000/svg"><path d="M0 0h24v24H0V0z" fill="none"/><path d="M13 7h-2v4H7v2h4v4h2v-4h4v-2h-4V7zm-1-5C6.49 2 2 6.49 2 12s4.49 10 10 10 10-4.49 10-10S17.51 2 12 2zm0 18c-4.41 0-8-3.59-8-8s3.59-8 8-8 8 3.59 8 8-3.59 8-8 8z"/></svg><svg viewBox="0 0 24 24" id="question" xmlns="http://www.w3.org/2000/svg"><path d="M0 0h24v24H0V0z" fill="none"/><path d="M15 4v7H5.17l-.59.59-.58.58V4h11m1-2H3c-.55 0-1 .45-1 1v14l4-4h10c.55 0 1-.45 1-1V3c0-.55-.45-1-1-1zm5 4h-2v9H6v2c0 .55.45 1 1 1h11l4 4V7c0-.55-.45-1-1-1z"/></svg><svg fill="none" viewBox="0 0 18 18" id="repair" xmlns="http://www.w3.org/2000/svg"><path d="M15 6h-2.25V4.5c0-.825-.675-1.5-1.5-1.5h-4.5c-.825 0-1.5.675-1.5 1.5V6H3c-.825 0-1.5.675-1.5 1.5V15h15V7.5c0-.825-.675-1.5-1.5-1.5zM6.75 4.5h4.5V6h-4.5V4.5zm8.25 9H3v-2.25h1.5V12H6v-.75h6V12h1.5v-.75H15v2.25zm-1.5-3.75V9H12v.75H6V9H4.5v.75H3V7.5h12v2.25h-1.5z" fill="#66727F"/></svg><svg fill="none" viewBox="0 0 18 18" id="truck" xmlns="http://www.w3.org/2000/svg"><path d="M15 6h-2.25V3H2.25c-.825 0-1.5.675-1.5 1.5v8.25h1.5A2.247 2.247 0 004.5 15a2.247 2.247 0 002.25-2.25h4.5A2.247 2.247 0 0013.5 15a2.247 2.247 0 002.25-2.25h1.5V9L15 6zm-.375 1.125L16.095 9H12.75V7.125h1.875zM4.5 13.5a.752.752 0 01-.75-.75c0-.412.338-.75.75-.75s.75.338.75.75-.338.75-.75.75zm1.665-2.25A2.227 2.227 0 004.5 10.5c-.667 0-1.252.293-1.665.75H2.25V4.5h9v6.75H6.165zM13.5 13.5a.752.752 0 01-.75-.75c0-.412.338-.75.75-.75s.75.338.75.75-.338.75-.75.75z" fill="#66727F"/></svg><svg fill="none" viewBox="0 0 15 14" id="ws" xmlns="http://www.w3.org/2000/svg"><g clip-path="url(#oclip0_0_23)"><path d="M7.708 0h-.004C3.853 0 .721 3.14.721 7c0 1.531.492 2.95 1.33 4.103l-.871 2.6 2.685-.86A6.915 6.915 0 007.708 14c3.851 0 6.984-3.14 6.984-7s-3.133-7-6.984-7zm4.065 9.885c-.169.477-.838.872-1.371.988-.365.078-.842.14-2.447-.527-2.053-.852-3.375-2.943-3.478-3.078-.099-.136-.83-1.107-.83-2.112 0-1.004.51-1.493.715-1.703.168-.173.447-.251.714-.251.086 0 .164.004.234.007.205.01.308.022.444.346.168.407.579 1.411.627 1.515.05.103.1.243.03.379-.065.14-.123.202-.226.32-.103.12-.2.21-.304.338-.094.112-.2.23-.082.436.119.202.53.873 1.133 1.412.78.695 1.412.918 1.639 1.012.168.07.369.053.492-.078.156-.169.35-.449.546-.724.14-.198.316-.223.501-.153.189.066 1.187.56 1.392.663.205.103.34.152.39.239.05.086.05.493-.12.97z" fill="#00DE3E"/></g><defs><clipPath id="oclip0_0_23"><path fill="#fff" transform="translate(.72)" d="M0 0h13.971v14H0z"/></clipPath></defs></svg><svg fill="none" viewBox="0 0 15 14" id="wsw" xmlns="http://www.w3.org/2000/svg"><g clip-path="url(#pclip0_0_23)"><path d="M7.708 0h-.004C3.853 0 .721 3.14.721 7c0 1.531.492 2.95 1.33 4.103l-.871 2.6 2.685-.86A6.915 6.915 0 007.708 14c3.851 0 6.984-3.14 6.984-7s-3.133-7-6.984-7zm4.065 9.885c-.169.477-.838.872-1.371.988-.365.078-.842.14-2.447-.527-2.053-.852-3.375-2.943-3.478-3.078-.099-.136-.83-1.107-.83-2.112 0-1.004.51-1.493.715-1.703.168-.173.447-.251.714-.251.086 0 .164.004.234.007.205.01.308.022.444.346.168.407.579 1.411.627 1.515.05.103.1.243.03.379-.065.14-.123.202-.226.32-.103.12-.2.21-.304.338-.094.112-.2.23-.082.436.119.202.53.873 1.133 1.412.78.695 1.412.918 1.639 1.012.168.07.369.053.492-.078.156-.169.35-.449.546-.724.14-.198.316-.223.501-.153.189.066 1.187.56 1.392.663.205.103.34.152.39.239.05.086.05.493-.12.97z" fill="#fff"/></g><defs><clipPath id="pclip0_0_23"><path fill="#fff" transform="translate(.72)" d="M0 0h13.971v14H0z"/></clipPath></defs></svg></svg>