<svg viewBox="0 0 70 70" fill="currentColor" xmlns="http://www.w3.org/2000/svg"><g opacity="0.1"><path d="M28 28.1006V14C28 11.2383 25.7617 9 23 9H12V1.9502H27C30.8662 1.9502 34 5.00586 34 8.77539V37H30V33C30 31.0928 29.2373 29.3633 28 28.1006Z" fill="currentColor"/><path d="M33 51V59H41.9561L45.5557 53.4365C45.791 53.0723 45.999 52.6924 46.1787 52.3008C46.373 51.877 46.5342 51.4395 46.6611 50.9912C46.8848 50.1992 47 49.377 47 48.5469V45H39.9287C39.4434 48.3926 36.5264 51 33 51Z" fill="currentColor"/><path d="M65 7H61V39H30V40.29C32.8916 41.1504 35 43.8291 35 47V48.584C36.7656 47.8125 38 46.0508 38 44V43H65V7Z" fill="currentColor"/><path d="M43 61H35V68H43V61Z" fill="currentColor"/></g><path d="M29 14C29.5527 14 30 14.4473 30 15C30 15.5527 29.5527 16 29 16H16C15.4473 16 15 15.5527 15 15C15 14.4473 15.4473 14 16 14H29Z" fill="currentColor"/><path d="M29.9258 10.6201C29.8701 10.4863 29.7871 10.3672 29.6836 10.2695C29.583 10.1758 29.4619 10.1016 29.3291 10.0557C29.2773 10.0371 29.2236 10.0234 29.168 10.0137C29.1133 10.0049 29.0576 10 29 10H16C15.4473 10 15 10.4473 15 11C15 11.0977 15.0137 11.1924 15.04 11.2803L15.0605 11.3447C15.0859 11.415 15.1201 11.4824 15.1611 11.5449C15.208 11.6162 15.2637 11.6816 15.3262 11.7393C15.5039 11.9014 15.7402 12 16 12H29C29.5527 12 30 11.5527 30 11C30 10.9199 29.9912 10.8418 29.9736 10.7676L29.9502 10.6865L29.9258 10.6201Z" fill="currentColor"/><path d="M49 32C49 31.7939 48.9375 31.6025 48.8311 31.4434C48.6514 31.1758 48.3467 31 48 31H41C40.6484 31 40.3389 31.1816 40.1602 31.4561C40.0586 31.6123 40 31.7988 40 32C40 32.2373 40.083 32.4551 40.2207 32.627C40.3193 32.749 40.4463 32.8477 40.5918 32.9131C40.6299 32.9307 40.6699 32.9453 40.7109 32.958L40.7646 32.9727L40.8447 32.9883C40.8955 32.9961 40.9473 33 41 33H48C48.5527 33 49 32.5527 49 32Z" fill="currentColor"/><path d="M54 27C54.5527 27 55 27.4473 55 28C55 28.5527 54.5527 29 54 29H41C40.6855 29 40.4053 28.8555 40.2217 28.6289C40.083 28.457 40 28.2383 40 28C40 27.7432 40.0967 27.5098 40.2549 27.333C40.3408 27.2363 40.4453 27.1572 40.5625 27.1006L40.6436 27.0654L40.7236 27.0391L40.7627 27.0293L40.8418 27.0127C40.8936 27.0039 40.9463 27 41 27H54Z" fill="currentColor"/><path d="M54.7656 23.3564C54.582 23.1387 54.3076 23 54 23H41C40.8301 23 40.6699 23.042 40.5293 23.1172C40.2139 23.2852 40 23.6172 40 24C40 24.5527 40.4473 25 41 25H54C54.5527 25 55 24.5527 55 24C55 23.9092 54.9883 23.8203 54.9658 23.7363C54.9268 23.5947 54.8574 23.4658 54.7656 23.3564Z" fill="currentColor"/><path d="M54 14C54.5527 14 55 14.4473 55 15C55 15.5527 54.5527 16 54 16H41C40.4473 16 40 15.5527 40 15C40 14.4473 40.4473 14 41 14H54Z" fill="currentColor"/><path d="M55 11C55 10.4473 54.5527 10 54 10H41C40.4473 10 40 10.4473 40 11C40 11.5527 40.4473 12 41 12H54C54.5527 12 55 11.5527 55 11Z" fill="currentColor"/><path d="M30 65C30.5527 65 31 64.5527 31 64C31 63.4473 30.5527 63 30 63C29.7256 63 29.4775 63.1104 29.2969 63.2891C29.1133 63.4697 29 63.7217 29 64C29 64.5527 29.4473 65 30 65Z" fill="currentColor"/><path fill-rule="evenodd" clip-rule="evenodd" d="M11 0C10.4473 0 10 0.447266 10 1V5H4V45H21V47.0391C21 47.6904 21.0576 48.3379 21.1709 48.9746C21.3682 50.0771 21.7324 51.1455 22.2559 52.1436L25.9902 59.2734C25.3975 59.6201 25 60.2637 25 61V68H1C0.740234 68 0.503906 68.0986 0.326172 68.2607C0.125977 68.4434 0 68.707 0 69C0 69.5527 0.447266 70 1 70H69C69.5527 70 70 69.5527 70 69C70 68.4473 69.5527 68 69 68H45V61C45 60.6396 44.9053 60.3018 44.7383 60.0098C44.585 59.7422 44.3721 59.5127 44.1172 59.3408L47.2354 54.5225C48.3867 52.7422 49 50.667 49 48.5469V45H67V5H61V1C61 0.745117 60.9053 0.512695 60.748 0.335938C60.5654 0.129883 60.2979 0 60 0H43C39.5166 0 36.4961 1.92773 35 4.75C33.5039 1.92773 30.4824 0 27 0H11ZM23 28C25.7617 28 28 30.2383 28 33V42C30.7617 42 33 44.2383 33 47V51C36.5264 51 39.4434 48.3926 39.9287 45H47V48.5469C47 49.377 46.8848 50.1992 46.6611 50.9912C46.5342 51.4395 46.373 51.877 46.1787 52.3008C45.999 52.6924 45.791 53.0723 45.5557 53.4365L41.9561 59H28.1045L24.0273 51.2158C23.3525 49.9268 23 48.4941 23 47.0391V28ZM21 43V39H10V7H6V43H21ZM12 37H21V27C21 26.4473 21.4473 26 22 26H23C26.8662 26 30 29.1338 30 33V37H34V8.77539C34 5.00586 30.8662 1.9502 27 1.9502H12V37ZM61 7H65V43H38V44C38 46.0508 36.7656 47.8125 35 48.584V47C35 43.8291 32.8916 41.1504 30 40.29V39H61V7ZM59 1.9502V37H36V8.77539C36 5.00586 39.1338 1.9502 43 1.9502H59ZM43 61V68H27V61H43Z" fill="currentColor"/></svg>