<svg viewBox="0 0 16 16" fill="currentColor" xmlns="http://www.w3.org/2000/svg"><path fill-rule="evenodd" clip-rule="evenodd" d="M2 0C0.895447 0 0 0.895386 0 2V14C0 15.1046 0.895447 16 2 16H14C15.1046 16 16 15.1046 16 14V2C16 0.895386 15.1046 0 14 0H2ZM14 2H2V14H14V2Z" fill="currentColor"/><path d="M4 4H6V6H4V4Z" fill="currentColor"/><path d="M7 4H9V6H7V4Z" fill="currentColor"/><path d="M10 4H12V6H10V4Z" fill="currentColor"/><path d="M4 7H6V9H4V7Z" fill="currentColor"/><path d="M7 7H9V9H7V7Z" fill="currentColor"/><path d="M10 7H12V9H10V7Z" fill="currentColor"/><path d="M4 10H6V12H4V10Z" fill="currentColor"/><path d="M7 10H9V12H7V10Z" fill="currentColor"/><path d="M10 10H12V12H10V10Z" fill="currentColor"/></svg>