<svg viewBox="0 0 70 70" fill="currentColor" xmlns="http://www.w3.org/2000/svg"><g opacity="0.1"><path d="M41.2344 13.5518C40.9277 14.332 40.5352 15.0713 40.0684 15.7598C40.9512 16.251 41.9189 16.6201 42.9531 16.8379C43.8799 17.0332 44.8066 17.0967 45.7129 17.04C46.5918 16.9854 47.4512 16.8184 48.2744 16.5498L48.5566 16.4531C48.7051 16.3994 48.8525 16.3428 48.999 16.2832V16.2373L49 16C49 9.94727 45.1592 4.79199 39.7822 2.83789C40.4141 3.6875 40.9277 4.62305 41.3008 5.62305C41.3574 5.77637 41.4111 5.93164 41.4619 6.08789C41.5107 6.23926 41.5566 6.3916 41.5996 6.54492C41.6748 6.81641 41.7393 7.0918 41.7939 7.37012C41.8418 7.61328 41.8809 7.8584 41.9121 8.10645C41.9707 8.5625 42 9.02832 42 9.5C42 10.9258 41.7295 12.292 41.2344 13.5518Z" fill="currentColor"/><path d="M35 60V64H68V60H35Z" fill="currentColor"/><path d="M46.9131 58H57.5947L55.7305 50.5439C55.3838 49.1572 54.3232 48.0605 52.9492 47.668L44.7383 45.3223L49.6621 51.4775C50.6172 52.6709 50.5215 54.3916 49.4414 55.4727L46.9131 58Z" fill="currentColor"/><path d="M45.96 43.5908L53.498 45.7451C53.6396 45.7852 53.7793 45.8311 53.916 45.8809L54.0518 45.9326L54.1982 45.9922C55.3145 44.8252 56 43.2422 56 41.5C56 38.0781 53.3564 35.2744 50 35.0186V37C50 37.082 49.9902 37.1631 49.9717 37.2393C49.7393 40.1982 48.1328 42.6523 45.96 43.5908Z" fill="currentColor"/><path d="M42 45L37 55.5V39.5L37.5557 39.0557L35.8818 39.2646C38.876 37.6738 41 33.6777 41 29C41 28.8115 40.9971 28.623 40.9902 28.4365C40.9844 28.29 40.9775 28.1445 40.9678 28H44.4004L43.5 32.5L41.5 35.5L39.5 37.5L42 35.5V45Z" fill="currentColor"/><path d="M7 66H62V69H7V66Z" fill="currentColor"/></g><path fill-rule="evenodd" clip-rule="evenodd" d="M51 16C51 7.16309 43.8369 0 35 0C26.1631 0 19 7.16309 19 16V17.1738C17.7178 18.2705 17.1865 20.0889 17.8047 21.7646L19.3164 25.8643C19.3936 26.0713 19.4844 26.2695 19.5889 26.4561C19.71 26.6719 19.8477 26.874 20 27.0605V33.0146C15.5381 33.2734 12 36.9736 12 41.5C12 43.6406 12.791 45.5957 14.0967 47.0898C13.7549 47.4023 13.4502 47.7539 13.1885 48.1377C12.7969 48.7139 12.5029 49.3623 12.3291 50.0586L10.3438 58H1C0.665039 58 0.368164 58.1641 0.1875 58.417C0.0693359 58.5811 0 58.7822 0 59V65C0 65.5527 0.447266 66 1 66H5V69C5 69.5527 5.44727 70 6 70C6.55273 70 7 69.5527 7 69V66H69C69.5527 66 70 65.5527 70 65V59C70 58.4473 69.5527 58 69 58H59.6562L57.6709 50.0586C57.5752 49.6758 57.4434 49.3076 57.2783 48.958C56.9443 48.248 56.4756 47.6143 55.9033 47.0898C57.209 45.5957 58 43.6406 58 41.5C58 36.9736 54.4619 33.2734 50 33.0146V27.0605C50.2852 26.7119 50.5186 26.3105 50.6836 25.8643L52.1953 21.7646C52.4561 21.0586 52.5127 20.3281 52.3955 19.6367C52.3154 19.168 52.1553 18.7178 51.9258 18.3057C51.7959 18.0732 51.6436 17.8525 51.4707 17.6475C51.3281 17.4785 51.1709 17.3193 51 17.1738V16ZM68 64V60H2V64H68ZM21 16C21 8.26758 27.2676 2 35 2C35.3174 2 35.6318 2.01074 35.9434 2.03125C35.9805 2.51074 36 3.00098 36 3.5C36 5.98926 35.5195 8.24121 34.7021 10.1611C34.6807 10.1875 34.6621 10.2178 34.6494 10.252L34.543 10.5234L34.4844 10.6494C34.2695 11.1221 34.0635 11.5732 33.8027 12C32.3506 14.4131 29.9648 16.2227 27.0469 16.8379C24.9541 17.2783 22.8652 17.0469 21.001 16.2832V16.2373L21 16ZM38 3.5C38 3.10156 37.9883 2.70605 37.9658 2.31445C44.2734 3.6748 49 9.28516 49 16L48.999 16.2373V16.2832C47.9609 16.709 46.8525 16.9688 45.7129 17.04C44.8066 17.0967 43.8799 17.0332 42.9531 16.8379C39.9766 16.21 37.5537 14.3389 36.1104 11.8525C37.3066 9.44238 38 6.57617 38 3.5ZM41 44.7715L35 57.2002L29 44.7715V37.6172C31.1191 39.7285 33.4512 41 35 41C36.5488 41 38.8809 39.7285 41 37.6172V44.7715ZM37.1494 38.1562C36.0879 38.8076 35.3398 39 35 39C34.6602 39 33.9121 38.8076 32.8506 38.1562C32.3818 37.8682 31.8896 37.5137 31.3936 37.0986C30.8213 36.6201 30.2432 36.0615 29.6875 35.4307C29.4512 35.1631 29.2217 34.8848 29 34.5967V34.5H28.9258C27.5664 32.7119 26.5156 30.5713 26.1445 28.2783C26.9932 28.7383 27.9668 29 29 29C32.3135 29 35 26.3135 35 23H36C36 26.3135 38.6865 29 42 29C42.6172 29 43.2119 28.9072 43.7725 28.7344C43.3438 30.8545 42.3438 32.8301 41.0742 34.5H41V34.5967C40.7783 34.8848 40.5488 35.1631 40.3125 35.4307C40.2051 35.5527 40.0967 35.6719 39.9883 35.7881C39.8135 35.9756 39.6367 36.1553 39.459 36.3281C39.1631 36.6162 38.8652 36.8838 38.5693 37.1299C38.3359 37.3242 38.1025 37.5049 37.873 37.6709C37.7695 37.7461 37.667 37.8174 37.5654 37.8867C37.4248 37.9824 37.2861 38.0723 37.1494 38.1562ZM44.373 26.2207L44.4258 26.1807C44.7637 25.9229 45.0596 25.6123 45.2998 25.2617C45.7412 24.6182 46 23.8389 46 23H38C38 25.209 39.791 27 42 27C42.8887 27 43.709 26.7109 44.373 26.2207ZM46.8154 26.5791C47.5596 25.5801 48 24.3418 48 23V22C48 21.708 47.875 21.4453 47.6758 21.2627C47.498 21.0996 47.2607 21 47 21H24C23.7744 21 23.5664 21.0742 23.3984 21.2002C23.1562 21.3828 23 21.6729 23 22V23C23 24.2646 23.3906 25.4365 24.0586 26.4043L23.9541 26.4463C23.1455 26.7441 22.2725 26.5254 21.6973 25.958C21.4805 25.7432 21.3057 25.4785 21.1934 25.1729L19.6807 21.0732C19.4814 20.5322 19.5137 19.9619 19.7266 19.4717C19.8623 19.1582 20.0732 18.877 20.3457 18.6572C20.4912 18.5391 20.6543 18.4395 20.833 18.3604C22.8984 19.0879 25.1729 19.2764 27.459 18.7949C30.626 18.127 33.252 16.292 35 13.8213C36.748 16.292 39.374 18.127 42.541 18.7949C44.8271 19.2764 47.1016 19.0879 49.167 18.3604C49.6797 18.5859 50.0645 18.9902 50.2734 19.4717C50.4863 19.9619 50.5186 20.5322 50.3193 21.0732L48.8066 25.1729C48.5811 25.7852 48.1064 26.2334 47.5391 26.4443C47.3096 26.5293 47.0645 26.5762 46.8154 26.5791ZM33.165 58H25.915L21.9736 54.0586C21.6133 53.6982 21.5811 53.124 21.8994 52.7266L27.3379 45.9287L33.165 58ZM23.0869 58H12.4053L14.2695 50.5439C14.6162 49.1572 15.6768 48.0605 17.0508 47.668L25.2617 45.3223L20.3379 51.4775C19.3828 52.6709 19.4785 54.3916 20.5586 55.4727L23.0869 58ZM23.668 28.5537C23.5586 28.5664 23.4492 28.5742 23.3408 28.5781C22.8818 28.5918 22.4297 28.5293 22 28.3984V37C22 37.3994 21.7666 37.7432 21.4287 37.9043C21.2988 37.9658 21.1533 38 21 38C20.4473 38 20 37.5527 20 37V35.0186C16.6436 35.2744 14 38.0781 14 41.5C14 42.3701 14.1709 43.2002 14.4814 43.958C14.792 44.7188 15.2432 45.4082 15.8018 45.9922C16.0283 45.8965 16.2617 45.8135 16.502 45.7451L27 42.7451V35.2568C25.6182 33.3184 24.5342 30.998 24.1504 28.4717C23.9902 28.5088 23.8281 28.5361 23.668 28.5537ZM36.835 58H44.085L48.0264 54.0586C48.3867 53.6982 48.4189 53.124 48.1006 52.7266L42.6621 45.9287L36.835 58ZM46.9131 58H57.5947L55.7305 50.5439C55.3838 49.1572 54.3232 48.0605 52.9492 47.668L44.7383 45.3223L49.6621 51.4775C50.6172 52.6709 50.5215 54.3916 49.4414 55.4727L46.9131 58ZM45.8496 28.4717C46.5791 28.6416 47.3184 28.6064 48 28.3984V37C48 37.5527 48.4473 38 49 38C49.2832 38 49.5381 37.8828 49.7197 37.6943C49.8936 37.5146 50 37.2695 50 37V35.0186C53.3564 35.2744 56 38.0781 56 41.5C56 43.2422 55.3145 44.8252 54.1982 45.9922L54.0518 45.9326L53.916 45.8809C53.7793 45.8311 53.6396 45.7852 53.498 45.7451L43 42.7451V35.2568C43.9414 33.9355 44.7451 32.4375 45.2832 30.8164C45.5342 30.0596 45.7275 29.2764 45.8496 28.4717ZM29 27C26.791 27 25 25.209 25 23H33C33 25.209 31.209 27 29 27Z" fill="currentColor"/></svg>