<svg viewBox="0 0 70 70" fill="currentColor" xmlns="http://www.w3.org/2000/svg"><g opacity="0.1"><path d="M5.80273 26.9814C14.8184 26.5625 22 19.1191 22 10C22 7.24316 21.3447 4.64062 20.1797 2.33789C26.9365 3.7959 32 9.80664 32 17C32 25.2842 25.2842 32 17 32C12.5488 32 8.5498 30.0605 5.80273 26.9814Z" fill="currentColor"/><path d="M17 33H21V44H17V33Z" fill="currentColor"/><path d="M56 46.5C56 55.2861 49.874 62.6426 41.6602 64.5303C42.915 65.0566 44.2393 65.4521 45.6143 65.6992C46.7129 65.8965 47.8447 66 49 66C59.4932 66 68 57.4932 68 47C68 36.5068 59.4932 28 49 28C46.9814 28 45.0361 28.3154 43.2109 28.8984C50.6338 31.3047 56 38.2764 56 46.5Z" fill="currentColor"/></g><path fill-rule="evenodd" clip-rule="evenodd" d="M23 32.9109C29.4281 30.4856 34 24.2767 34 17C34 7.61116 26.3888 0 17 0C7.61116 0 0 7.61116 0 17C0 24.2767 4.57194 30.4856 11 32.9109V43C11 44.6568 12.3431 46 14 46H16V48C16 49.1045 15.1045 50 14 50H4C1.79102 50 0 51.791 0 54C0 56.209 1.79102 58 4 58H19C20.1045 58 21 58.8955 21 60C21 61.1045 20.1045 62 19 62H4C1.79102 62 0 63.791 0 66C0 68.209 1.79102 70 4 70H19C19.9865 70 21.0668 69.6978 22.1173 69.2705C23.1815 68.8378 24.287 68.2472 25.3441 67.6052C26.7479 66.7527 28.099 65.7896 29.1996 64.9376L29.7529 69.0413L37.7624 64.0686C38.3983 63.6738 38.7605 62.9571 38.7012 62.211L38.3185 57.3943C38.3131 57.3273 38.3045 57.2611 38.2927 57.196L45.0207 51.4907C46.0797 52.4298 47.4733 53 49 53C52.3137 53 55 50.3137 55 47C55 43.6863 52.3137 41 49 41C45.6863 41 43 43.6863 43 47C43 48.0655 43.2777 49.0661 43.7647 49.9334L36.9998 55.6701C36.937 55.6476 36.8726 55.6281 36.8068 55.6118L32.1175 54.4471C31.3911 54.2666 30.6248 54.5069 30.1314 55.0697L23.9168 62.159L27.9289 63.392C26.8897 64.1942 25.6187 65.0985 24.3059 65.8957C23.3047 66.5038 22.2976 67.0382 21.3639 67.4179C20.4165 67.8032 19.6135 68.0005 19 68.0005L4 68C2.89551 68 2 67.1045 2 66C2 64.8955 2.89551 64 4 64H19C20.168 64 21.2197 63.499 21.9512 62.7002C22.3057 62.3135 22.585 61.8555 22.7666 61.3516C22.833 61.165 22.8867 60.9727 22.9258 60.7744C22.9746 60.5234 23 60.2646 23 60C23 57.791 21.209 56 19 56H4C2.89551 56 2 55.1045 2 54C2 53.6172 2.10742 53.2598 2.29395 52.9551C2.64551 52.3818 3.27832 52 4 52H14C16.209 52 18 50.209 18 48V46H20C21.6569 46 23 44.6568 23 43V32.9109ZM35.1296 57.256L31.6354 56.3881L27.4569 61.1547L29.7141 61.8483L35.1296 57.256ZM31.007 63.3742L31.3223 65.7128L36.7075 62.3694L36.4224 58.7819L31.007 63.3742ZM17 32C17.336 32 17.6695 31.989 18 31.9672V19C18 19 18.0006 18.669 18.0006 18.5C18.0006 16.0147 20.0158 14 22.5011 14C24.9864 14 27.0011 16.0147 27.0011 18.5C27.0011 20.9853 24.9864 23 22.5011 23H20V31.6999C26.8467 30.3101 32 24.2569 32 17C32 8.71573 25.2843 2 17 2C8.71573 2 2 8.71573 2 17C2 24.2572 7.15377 30.3107 14.001 31.7001V23H11.4999C9.01459 23 6.99987 20.9853 6.99987 18.5C6.99987 16.0147 9.01459 14 11.4999 14C13.9852 14 16.0004 16.0147 16.0004 18.5C16.0004 18.669 16.001 19 16.001 19V31.9673C16.3312 31.989 16.6643 32 17 32ZM21 33.5267C19.7172 33.8361 18.3778 34 17 34C15.6222 34 14.2828 33.8361 13 33.5267V43C13 43.5522 13.4477 44 14 44H20C20.5523 44 21 43.5522 21 43V33.5267ZM22.5011 21C23.8818 21 25.0011 19.8807 25.0011 18.5C25.0011 17.1193 23.8818 16 22.5011 16C21.1204 16 20.0011 17.1193 20.0011 18.5V19H20V21H22.5011ZM8.99987 18.5C8.99987 19.8807 10.1192 21 11.4999 21H14.001V19H13.9999V18.5C13.9999 17.1193 12.8806 16 11.4999 16C10.1192 16 8.99987 17.1193 8.99987 18.5ZM50.1148 47.1709L46.5696 50.1772C47.2432 50.6933 48.0858 51 49 51C51.2091 51 53 49.2091 53 47C53 44.7909 51.2091 43 49 43C46.7909 43 45 44.7909 45 47C45 47.5699 45.1192 48.112 45.334 48.6027L48.8213 45.6455L50.1148 47.1709Z" fill="currentColor"/><path d="M70 47C70 58.598 60.598 68 49 68C45.6682 68 42.5175 67.2241 39.719 65.843L40.3582 63.9255C42.9507 65.2518 45.888 66 49 66C59.4934 66 68 57.4934 68 47C68 36.5066 59.4934 28 49 28C38.5066 28 30 36.5066 30 47C30 48.9244 30.2861 50.782 30.8181 52.5325L28.8362 52.8864C28.2919 51.0187 28 49.0434 28 47C28 35.402 37.402 26 49 26C60.598 26 70 35.402 70 47Z" fill="currentColor"/><path d="M42.2881 58.1356C44.2474 59.319 46.5442 60 49 60C56.1797 60 62 54.1797 62 47C62 39.8203 56.1797 34 49 34C41.8203 34 36 39.8203 36 47C36 48.5693 36.2781 50.0737 36.7876 51.4665L38.7929 51.1084C38.2815 49.8391 38 48.4524 38 47C38 40.9249 42.9249 36 49 36C55.0751 36 60 40.9249 60 47C60 53.0751 55.0751 58 49 58C46.7605 58 44.6773 57.3308 42.9395 56.1814L42.2881 58.1356Z" fill="currentColor"/></svg>