<svg xmlns="http://www.w3.org/2000/svg" xmlns:xlink="http://www.w3.org/1999/xlink" preserveAspectRatio="xMidYMid" viewBox="0 0 14 14"><defs><style>

      .cls-2 {
        fill: #232e43;
      }
    </style></defs><path d="M12.000,14.000 C12.000,14.000 2.000,14.000 2.000,14.000 C0.895,14.000 -0.000,13.105 -0.000,12.000 C-0.000,11.849 -0.000,11.656 -0.000,11.656 C-0.000,9.202 1.772,7.170 4.104,6.747 C3.424,6.030 3.000,5.066 3.000,4.000 C3.000,1.791 4.791,-0.000 7.000,-0.000 C9.209,-0.000 11.000,1.791 11.000,4.000 C11.000,5.066 10.576,6.030 9.896,6.747 C12.228,7.170 14.000,9.202 14.000,11.656 C14.000,11.656 14.000,11.849 14.000,12.000 C14.000,13.105 13.105,14.000 12.000,14.000 ZM7.000,2.000 C5.895,2.000 5.000,2.895 5.000,4.000 C5.000,5.105 5.895,6.000 7.000,6.000 C8.105,6.000 9.000,5.105 9.000,4.000 C9.000,2.895 8.105,2.000 7.000,2.000 ZM10.862,9.170 C9.860,8.424 8.452,7.995 7.000,7.995 C5.547,7.995 4.139,8.422 3.136,9.167 C2.279,9.805 1.990,10.473 1.990,10.680 C1.990,10.680 2.000,12.000 2.000,12.000 C2.000,12.000 12.000,12.000 12.000,12.000 C12.000,12.000 12.009,10.687 12.009,10.687 C12.009,10.479 11.720,9.810 10.862,9.170 Z" id="path-1" class="cls-2" fill-rule="evenodd" style="fill: rgb(35, 46, 67);"/></svg>