<svg viewBox="0 0 70 70" fill="none" xmlns="http://www.w3.org/2000/svg"><path fill-rule="evenodd" clip-rule="evenodd" d="M55 2H33C32.71 2 32.4492 2.12305 32.2666 2.31934C32.1016 2.49805 32 2.7373 32 3V12C32 12.5527 31.5527 13 31 13C30.4473 13 30 12.5527 30 12V3C30 1.34277 31.3428 0 33 0H67C68.6572 0 70 1.34277 70 3V45C70 46.6572 68.6572 48 67 48H33C31.3428 48 30 46.6572 30 45V36C30 35.832 30.041 35.6748 30.1143 35.5361C30.1602 35.4473 30.2197 35.3672 30.2891 35.2969C30.3838 35.2002 30.498 35.123 30.626 35.0723C30.7412 35.0254 30.8672 35 31 35C31.5527 35 32 35.4473 32 36V45C32 45.5527 32.4473 46 33 46H67C67.5527 46 68 45.5527 68 45V3C68 2.77051 67.9229 2.55957 67.793 2.3916C67.6104 2.15332 67.3232 2 67 2H64V15.4141L59.5 10.9141L55 15.4141V2ZM57 2V10.5859L59.5 8.08594L62 10.5859V2H57Z" fill="#E3083D"/><path fill-rule="evenodd" clip-rule="evenodd" d="M32 18C28.6865 18 26 20.6865 26 24C26 27.3135 28.6865 30 32 30C33.415 30 34.7168 29.5098 35.7422 28.6895L41.8408 35.2236C41.3096 36.0176 41 36.9727 41 38C41 40.7617 43.2383 43 46 43C48.7617 43 51 40.7617 51 38C51 35.2383 48.7617 33 46 33C44.9893 33 44.0488 33.2998 43.2627 33.8154L37.0811 27.1924C37.4941 26.5361 37.7842 25.7949 37.917 25H47.0996C47.5635 27.2822 49.5811 29 52 29C54.7617 29 57 26.7617 57 24C57 21.2383 54.7617 19 52 19C49.5811 19 47.5635 20.7178 47.0996 23H37.917C37.7842 22.2051 37.4941 21.4639 37.0811 20.8076L43.2627 14.1846C43.5098 14.3467 43.7725 14.4873 44.0479 14.6045C44.3184 14.7197 44.6006 14.8115 44.8926 14.8779C45.249 14.958 45.6201 15 46 15C48.7617 15 51 12.7617 51 10C51 7.23828 48.7617 5 46 5C43.2383 5 41 7.23828 41 10C41 11.0273 41.3096 11.9824 41.8408 12.7764L35.7422 19.3105C35.1025 18.7988 34.3545 18.415 33.5391 18.1992C33.0479 18.0693 32.5322 18 32 18ZM32 20C34.209 20 36 21.791 36 24C36 26.209 34.209 28 32 28C29.791 28 28 26.209 28 24C28 21.791 29.791 20 32 20ZM49 10C49 8.34277 47.6572 7 46 7C44.3428 7 43 8.34277 43 10C43 11.6572 44.3428 13 46 13C46.7266 13 47.3926 12.7422 47.9111 12.3125C48.5762 11.7617 49 10.9307 49 10ZM48.6504 39.4062C48.4873 39.7129 48.2734 39.9883 48.0186 40.2197C47.4854 40.7041 46.7773 41 46 41C44.3428 41 43 39.6572 43 38C43 36.3428 44.3428 35 46 35C47.6572 35 49 36.3428 49 38C49 38.5088 48.874 38.9873 48.6504 39.4062ZM52.9834 26.835C52.6758 26.9424 52.3447 27 52 27C50.3428 27 49 25.6572 49 24C49 23.125 49.374 22.3379 49.9707 21.7891C50.5049 21.2988 51.2178 21 52 21C53.6572 21 55 22.3428 55 24C55 25.3125 54.1572 26.4277 52.9834 26.835Z" fill="#E3083D"/><path fill-rule="evenodd" clip-rule="evenodd" d="M16 22C20.9707 22 25 26.0293 25 31V36C25 36.2178 24.9307 36.418 24.8125 36.582L24.7549 36.6553L24.6875 36.7256C24.5918 36.8164 24.4775 36.8887 24.3516 36.9365C24.2422 36.9775 24.124 37 24 37V38C24 40.2656 22.6846 42.5742 20.999 44.2861V46.3809L29.7891 50.7764C31.1436 51.4541 32 52.8389 32 54.3535V70H0V54.3535C0 53.7021 0.158203 53.0752 0.446289 52.5176C0.599609 52.2207 0.790039 51.9434 1.0127 51.6934C1.0625 51.6377 1.11426 51.584 1.16699 51.5312C1.29785 51.3994 1.43848 51.2764 1.58789 51.1631C1.78125 51.0176 1.98926 50.8877 2.21094 50.7764L11 46.3818V44.2852C10.5332 43.8115 10.0947 43.292 9.70508 42.7402C8.6875 41.2988 8 39.6387 8 38V37C7.44727 37 7 36.5527 7 36V31C7 26.0293 11.0293 22 16 22ZM11.0518 48.5928L3.10547 52.5654C2.91602 52.6602 2.74512 52.7832 2.59863 52.9268C2.51562 53.0078 2.44043 53.0967 2.37305 53.1904C2.33887 53.2383 2.30762 53.2871 2.27832 53.3369C2.24512 53.3926 2.21484 53.4492 2.1875 53.5078C2.06641 53.7676 2 54.0557 2 54.3535V68H6V59C6 58.4473 6.44727 58 7 58C7.55273 58 8 58.4473 8 59V68H15V52.6807L12.126 50.3818C11.5605 49.9297 11.1826 49.293 11.0518 48.5928ZM17 52.6797V68H24V59C24 58.4473 24.4473 58 25 58C25.5527 58 26 58.4473 26 59V68H30V54.3535C30 53.9854 29.8984 53.6328 29.7168 53.3281C29.5254 53.0068 29.2432 52.7393 28.8945 52.5654L20.9473 48.5918C20.8164 49.292 20.4385 49.9297 19.873 50.3818L17 52.6797ZM16 47C16.8857 47 17.9453 46.6016 18.999 45.9248V48.0391C18.999 48.2236 18.9482 48.4023 18.8555 48.5566C18.7949 48.6562 18.7168 48.7451 18.624 48.8193L16 50.9189L13.375 48.8193C13.1377 48.6299 13 48.3428 13 48.0391V45.9238C13.2178 46.0635 13.4365 46.1914 13.6533 46.3066L13.8428 46.4043L13.998 46.4795C14.1523 46.5527 14.3066 46.6182 14.458 46.6768C15.0029 46.8857 15.5264 47 16 47ZM10 37V38C10 38.665 10.1748 39.3848 10.4941 40.1113C10.7295 40.6455 11.043 41.1826 11.4219 41.7031C11.6895 42.0703 11.9902 42.4297 12.3193 42.7734C12.5039 42.9668 12.6934 43.1494 12.8848 43.3213C13.1455 43.5566 13.4102 43.7705 13.6738 43.9619C13.9395 44.1562 14.2041 44.3262 14.4609 44.4697C15.1875 44.877 15.7188 45 16 45C16.2812 45 16.8125 44.877 17.5391 44.4697C17.8145 44.3154 18.0986 44.1318 18.3838 43.9209L18.5977 43.7588L18.8145 43.582C19.1084 43.3379 19.3994 43.0674 19.6807 42.7734C21.1104 41.2803 22 39.5 22 38V36.71C21.7217 36.6279 21.4512 36.5283 21.1895 36.4131C20.9609 36.3125 20.7383 36.2002 20.5225 36.0771C19.4863 35.4824 18.6162 34.6309 18 33.6074C16.7754 35.6406 14.5469 37 12 37H10ZM17 30H19C19 32.4189 20.7178 34.4365 23 34.9004V31C23 27.1338 19.8662 24 16 24C12.1338 24 9 27.1338 9 31V35H12C14.7617 35 17 32.7617 17 30Z" fill="#E3083D"/><path d="M45 63C45 62.4477 44.5523 62 44 62C43.4477 62 43 62.4477 43 63V70H45V63Z" fill="#E3083D"/><path d="M52 58C52.5523 58 53 58.4477 53 59V70H51V59C51 58.4477 51.4477 58 52 58Z" fill="#E3083D"/><path d="M61 54C61 53.4477 60.5523 53 60 53C59.4477 53 59 53.4477 59 54V70H61V54Z" fill="#E3083D"/><g opacity="0.1"><path d="M32 46V42H63C63.5527 42 64 41.5527 64 41V2H67C67.3232 2 67.6104 2.15332 67.793 2.3916C67.9229 2.55957 68 2.77051 68 3V45C68 45.5527 67.5527 46 67 46H32Z" fill="#D01F28"/><path d="M17 30H19C19 32.4189 20.7178 34.4365 23 34.9004V31C23 27.1338 19.8662 24 16 24C15.2412 24 14.5107 24.1201 13.8262 24.3438C14.8516 24.7461 15.7109 25.4775 16.2764 26.4072C16.7354 27.1631 17 28.0508 17 29V30Z" fill="#D01F28"/><path d="M16 47C16.8857 47 17.9453 46.6016 18.999 45.9248V48.0391C18.999 48.2236 18.9482 48.4023 18.8555 48.5566C18.7949 48.6562 18.7168 48.7451 18.624 48.8193L16 50.9189V47Z" fill="#D01F28"/><path d="M17.5391 44.4697C16.8125 44.877 16.2812 45 16 45C15.7188 45 15.1875 44.877 14.4609 44.4697C14.2041 44.3262 13.9395 44.1562 13.6738 43.9619C13.4102 43.7705 13.1455 43.5566 12.8848 43.3213C12.6934 43.1494 12.5039 42.9668 12.3193 42.7734C12.0381 42.4805 11.7783 42.1758 11.542 41.8643L11.6738 41.9619C11.9395 42.1562 12.2041 42.3262 12.4609 42.4697C13.1875 42.877 13.7188 43 14 43C14.2812 43 14.8125 42.877 15.5391 42.4697C15.8145 42.3154 16.0986 42.1318 16.3838 41.9209L16.5977 41.7588L16.8145 41.582C17.1084 41.3379 17.3994 41.0674 17.6807 40.7734C19.1104 39.2803 20 37.5 20 36V35.7461C20.1689 35.8643 20.3428 35.9746 20.5225 36.0771C20.7383 36.2002 20.9609 36.3125 21.1895 36.4131C21.4512 36.5283 21.7217 36.6279 22 36.71V38C22 39.5 21.1104 41.2803 19.6807 42.7734C19.3994 43.0674 19.1084 43.3379 18.8145 43.582L18.5977 43.7588L18.3838 43.9209C18.0986 44.1318 17.8145 44.3154 17.5391 44.4697Z" fill="#D01F28"/><path d="M18 33.6074L18.0713 33.7227L18.1523 33.8486C18.0811 33.8018 18.0098 33.7539 17.9404 33.7041L18 33.6074Z" fill="#D01F28"/><path d="M17 52.6797V68H24V59C24 58.4473 24.4473 58 25 58C25.5527 58 26 58.4473 26 59V68H30V54.3535C30 53.9854 29.8984 53.6328 29.7168 53.3281C29.5254 53.0068 29.2432 52.7393 28.8945 52.5654L20.9473 48.5918C20.8164 49.292 20.4385 49.9297 19.873 50.3818L17 52.6797Z" fill="#D01F28"/></g></svg>