<?xml version="1.0" encoding="utf-8"?><svg viewBox="0 0 512 512" xmlns="http://www.w3.org/2000/svg" xmlns:xlink="http://www.w3.org/1999/xlink"><style>:root>svg{display:none}:root>svg:target{display:block}</style><svg viewBox="0 0 512 512" id="calculator" xmlns="http://www.w3.org/2000/svg"><path d="M394 512H118c-25.364 0-46-20.636-46-46V46c0-25.364 20.636-46 46-46h276c25.364 0 46 20.636 46 46v420c0 25.364-20.636 46-46 46zM118 32c-7.72 0-14 6.28-14 14v420c0 7.72 6.28 14 14 14h276c7.72 0 14-6.28 14-14V46c0-7.72-6.28-14-14-14z"/><path d="M332 200H180c-19.851 0-36-16.149-36-36v-40c0-19.851 16.149-36 36-36h152c19.851 0 36 16.149 36 36v40c0 19.851-16.149 36-36 36zm-152-80c-2.206 0-4 1.794-4 4v40c0 2.206 1.794 4 4 4h152c2.206 0 4-1.794 4-4v-40c0-2.206-1.794-4-4-4zM176.02 288c-8.836 0-16.005-7.164-16.005-16s7.159-16 15.995-16h.01c8.837 0 16 7.164 16 16s-7.164 16-16 16zM256.02 288c-8.836 0-16.005-7.164-16.005-16s7.159-16 15.995-16h.01c8.837 0 16 7.164 16 16s-7.164 16-16 16zM336.02 288c-8.836 0-16.005-7.164-16.005-16s7.159-16 15.995-16h.01c8.837 0 16 7.164 16 16s-7.164 16-16 16zM176.02 360c-8.836 0-16.005-7.164-16.005-16s7.159-16 15.995-16h.01c8.837 0 16 7.164 16 16s-7.164 16-16 16zM256.02 360c-8.836 0-16.005-7.164-16.005-16s7.159-16 15.995-16h.01c8.837 0 16 7.164 16 16s-7.164 16-16 16zM336.02 360c-8.836 0-16.005-7.164-16.005-16s7.159-16 15.995-16h.01c8.837 0 16 7.164 16 16s-7.164 16-16 16zM176.02 432c-8.836 0-16.005-7.164-16.005-16s7.159-16 15.995-16h.01c8.837 0 16 7.164 16 16s-7.164 16-16 16zM256.02 432c-8.836 0-16.005-7.164-16.005-16s7.159-16 15.995-16h.01c8.837 0 16 7.164 16 16s-7.164 16-16 16zM336.02 432c-8.836 0-16.005-7.164-16.005-16s7.159-16 15.995-16h.01c8.837 0 16 7.164 16 16s-7.164 16-16 16z"/></svg><svg preserveAspectRatio="xMidYMid" viewBox="0 0 11 14" id="call" xmlns="http://www.w3.org/2000/svg"><path d="M11.012 11.977c.013-.062.027-.123.014-.191-.02-.198-.41-.487-.566-.614-.441-.394-.892-.78-1.322-1.18-.198-.192-.422-.519-.695-.579-.539-.12-1.682 1.296-2.159 1.189-.239-.053-.498-.341-.683-.511-1.408-1.246-2.273-2.6-2.807-4.397-.076-.239-.228-.595-.175-.833.107-.474 1.881-.9 2.001-1.436.061-.273-.141-.613-.231-.873-.181-.557-.341-1.127-.511-1.691C3.829.666 3.731.192 3.559.09 3.503.049 3.442.036 3.38.022c-.318-.071-.968-.068-1.289-.001-.474.088-.867.517-1.177.863-.399.456-.685.946-.817 1.534-.183.818-.013 1.63.094 2.438.074.579.196 1.151.388 1.701.593 1.699 1.999 3.903 3.294 5.16.419.407.887.76 1.383 1.073.689.439 1.357.938 2.178 1.121.592.132 1.159.083 1.743-.083.447-.131 1.005-.302 1.287-.691.197-.26.477-.844.548-1.16z" class="bcls-2" fill-rule="evenodd"/></svg><svg version="1.1" id="call2" x="0" y="0" viewBox="0 0 28 30" xml:space="preserve" xmlns="http://www.w3.org/2000/svg"><style>.cst0{fill-rule:evenodd;clip-rule:evenodd;fill:#f15a25}</style><path class="cst0" d="M21.9 19.9c-.9-1-2.1-1-3.1 0-.7.7-1.3 1-2 1.7-.2.2-.4.2-.6.1-.5-.3-1-.5-1.4-.8-2.1-1.4-3.8-3.1-5.4-5.1-.8-1-1.4-2-1.9-3.2-.1-.2-.1-.4.1-.6l1.7-1.7c1-1 1-2.2 0-3.3-.6-.6-1.1-1.4-1.6-2-.5-.6-.8-1.4-1.4-2-.9-1-2.1-1-3.1 0-.6.9-1.3 1.7-2.1 2.4C.4 6 .1 6.9 0 7.8c-.1 1.6.3 3 .8 4.5 1.1 3 2.7 5.6 4.6 8 2.6 3.3 5.8 5.8 9.5 7.7 1.7.8 3.4 1.5 5.3 1.6 1.3.1 2.4-.3 3.3-1.3.6-.7 1.3-1.4 2-2 1-1 1-2.2 0-3.2-1.1-1.3-2.5-2-3.6-3.2zm-.5-5.4h.3c.6-.1 1-.7.8-1.3-.5-1.7-1.3-3.2-2.5-4.4-1.3-1.3-2.9-2.3-4.6-2.7-.6-.2-1.1.2-1.2.9v.3c-.1.5.3 1 .7 1.1 1.3.4 2.5 1.1 3.5 2.1.9 1 1.6 2.1 2 3.4 0 .4.5.7 1 .6zm2.5-9.8c-2.3-2.4-5.2-4-8.4-4.7-.6-.1-1.1.3-1.2.9v.3c-.1.5.3 1 .8 1.2 2.7.6 5.2 2 7.2 4 1.9 1.9 3.2 4.4 3.8 7 .1.5.6.9 1.1.8h.3c.6-.1.9-.7.8-1.3-.7-3.1-2.2-5.9-4.4-8.2z"/></svg><svg viewBox="0 0 512 512" id="detali" xmlns="http://www.w3.org/2000/svg"><g><path d="M353.24 303.296h-19.438a155.317 155.317 0 00-6.357-23.779l16.818-9.709a7.496 7.496 0 002.746-10.245l-20.869-36.141a7.5 7.5 0 00-10.244-2.745l-16.854 9.729a157.093 157.093 0 00-17.397-17.395l9.729-16.848a7.5 7.5 0 00-2.745-10.246l-36.147-20.866a7.498 7.498 0 00-10.245 2.744l-9.711 16.818a155.298 155.298 0 00-23.786-6.358v-19.432a7.5 7.5 0 00-7.5-7.5h-41.739a7.5 7.5 0 00-7.5 7.5v19.432a155.329 155.329 0 00-23.786 6.358l-9.711-16.818a7.503 7.503 0 00-10.245-2.744l-36.147 20.866a7.5 7.5 0 00-2.745 10.246l9.729 16.848a156.921 156.921 0 00-17.397 17.395l-16.854-9.729a7.498 7.498 0 00-10.245 2.744l-20.87 36.141a7.5 7.5 0 002.745 10.246l16.82 9.709a155.098 155.098 0 00-6.358 23.779H7.5a7.5 7.5 0 00-7.5 7.5v41.731a7.5 7.5 0 007.5 7.5h19.437a155.328 155.328 0 006.358 23.779l-16.82 9.709a7.5 7.5 0 00-2.745 10.246l20.87 36.141a7.502 7.502 0 0010.245 2.744l16.854-9.729a157.093 157.093 0 0017.397 17.395l-9.729 16.848a7.5 7.5 0 002.745 10.246l36.147 20.866a7.502 7.502 0 0010.245-2.745l9.711-16.816c7.74 2.743 15.7 4.87 23.786 6.357V504.5a7.5 7.5 0 007.5 7.5h41.739a7.5 7.5 0 007.5-7.5v-19.432a155.348 155.348 0 0023.786-6.357l9.711 16.816a7.5 7.5 0 0010.245 2.745l36.147-20.866a7.5 7.5 0 002.745-10.246l-9.729-16.848a156.921 156.921 0 0017.397-17.395l16.854 9.729a7.5 7.5 0 0010.244-2.745l20.869-36.141a7.497 7.497 0 00-2.746-10.245l-16.818-9.709a155.317 155.317 0 006.357-23.779h19.438c4.143 0 7.5-3.357 7.5-7.5v-41.731c0-4.143-3.357-7.5-7.5-7.5zm-7.5 41.731h-18.316a7.5 7.5 0 00-7.427 6.455 140.22 140.22 0 01-8.778 32.83 7.499 7.499 0 003.207 9.298l15.843 9.146-13.369 23.151-15.874-9.163a7.495 7.495 0 00-9.649 1.865 141.987 141.987 0 01-24.042 24.036 7.5 7.5 0 00-1.866 9.652l9.163 15.868-23.156 13.367-9.148-15.843a7.503 7.503 0 00-9.297-3.206 140.268 140.268 0 01-32.836 8.777 7.5 7.5 0 00-6.456 7.427V497H167v-18.312a7.5 7.5 0 00-6.456-7.427 140.242 140.242 0 01-32.836-8.777 7.501 7.501 0 00-9.297 3.206l-9.148 15.843-23.156-13.367 9.164-15.868a7.501 7.501 0 00-1.866-9.652 142.097 142.097 0 01-24.042-24.036 7.5 7.5 0 00-9.649-1.865l-15.874 9.163-13.369-23.151 15.843-9.146a7.498 7.498 0 003.207-9.298 140.177 140.177 0 01-8.778-32.83 7.5 7.5 0 00-7.427-6.455H15v-26.731h18.316a7.5 7.5 0 007.427-6.455 140.177 140.177 0 018.778-32.83 7.5 7.5 0 00-3.207-9.298l-15.843-9.146 13.369-23.151 15.874 9.163a7.498 7.498 0 009.649-1.865 141.987 141.987 0 0124.042-24.036 7.5 7.5 0 001.866-9.652l-9.164-15.868 23.156-13.367 9.148 15.842a7.498 7.498 0 009.296 3.207 140.27 140.27 0 0132.837-8.777 7.5 7.5 0 006.456-7.427v-18.312h26.739v18.312a7.5 7.5 0 006.456 7.427 140.27 140.27 0 0132.837 8.777 7.498 7.498 0 009.297-3.207l9.148-15.842 23.156 13.367-9.163 15.868a7.5 7.5 0 001.866 9.652 142.097 142.097 0 0124.042 24.036 7.496 7.496 0 009.649 1.865l15.874-9.163 13.368 23.151-15.843 9.146a7.499 7.499 0 00-3.207 9.298 140.22 140.22 0 018.778 32.83 7.5 7.5 0 007.427 6.455h18.316zM504.5 79.537h-13.853a95.256 95.256 0 00-3.809-9.166l9.783-9.761a7.501 7.501 0 000-10.62l-34.735-34.655a7.501 7.501 0 00-10.594 0l-9.8 9.777a95.626 95.626 0 00-9.212-3.812V7.5c0-4.143-3.357-7.5-7.5-7.5h-49.123a7.499 7.499 0 00-7.5 7.5v13.802a95.372 95.372 0 00-9.212 3.812l-9.8-9.777a7.502 7.502 0 00-10.594 0l-34.736 34.655a7.501 7.501 0 000 10.62l9.784 9.761a95.107 95.107 0 00-3.809 9.166h-13.853a7.5 7.5 0 00-7.5 7.5v49.009a7.5 7.5 0 007.5 7.5h13.853a94.854 94.854 0 003.809 9.166l-9.784 9.761a7.501 7.501 0 000 10.62l34.736 34.655a7.501 7.501 0 0010.594 0l9.8-9.777a95.626 95.626 0 009.212 3.812v13.802c0 4.143 3.357 7.5 7.5 7.5h49.123c4.143 0 7.5-3.357 7.5-7.5v-13.802a95.372 95.372 0 009.212-3.812l9.8 9.777a7.5 7.5 0 0010.594 0l34.735-34.655a7.501 7.501 0 000-10.62l-9.783-9.761a95.511 95.511 0 003.809-9.166H504.5c4.143 0 7.5-3.357 7.5-7.5V87.037a7.5 7.5 0 00-7.5-7.5zm-7.5 49.009h-11.813a7.5 7.5 0 00-7.205 5.416 80.282 80.282 0 01-6.88 16.557 7.5 7.5 0 001.265 8.943l8.339 8.32-24.116 24.061-8.364-8.345a7.497 7.497 0 00-8.918-1.258 80.732 80.732 0 01-16.603 6.867 7.5 7.5 0 00-5.424 7.207v11.769h-34.123v-11.769a7.5 7.5 0 00-5.424-7.207 80.732 80.732 0 01-16.603-6.867 7.494 7.494 0 00-8.918 1.258l-8.364 8.345-24.116-24.061 8.339-8.32a7.5 7.5 0 001.265-8.943 80.19 80.19 0 01-6.88-16.556 7.5 7.5 0 00-7.205-5.417h-11.813V94.537h11.813a7.5 7.5 0 007.205-5.417 80.213 80.213 0 016.88-16.556 7.5 7.5 0 00-1.265-8.943l-8.339-8.32 24.116-24.061 8.364 8.345a7.496 7.496 0 008.918 1.258 80.732 80.732 0 0116.603-6.867 7.5 7.5 0 005.424-7.207V15h34.123v11.769a7.5 7.5 0 005.424 7.207 80.732 80.732 0 0116.603 6.867 7.495 7.495 0 008.918-1.258l8.364-8.345 24.116 24.061-8.339 8.32a7.5 7.5 0 00-1.265 8.943 80.236 80.236 0 016.88 16.557 7.5 7.5 0 007.205 5.416H497z" data-original="#000000"/><path d="M400.219 51.784c-9.851 0-19.621 2.441-28.255 7.06-3.652 1.953-5.03 6.498-3.076 10.15s6.496 5.032 10.15 3.076c6.466-3.458 13.79-5.286 21.181-5.286 24.746 0 44.878 20.078 44.878 44.757 0 24.68-20.132 44.758-44.878 44.758s-44.878-20.078-44.878-44.758c0-7.017 1.58-13.731 4.696-19.959a7.5 7.5 0 10-13.414-6.712c-4.169 8.33-6.282 17.304-6.282 26.672 0 32.95 26.861 59.758 59.878 59.758s59.878-26.808 59.878-59.758-26.861-59.758-59.878-59.758zM180.37 224.386c-59.162 0-107.294 48.124-107.294 107.276 0 14.479 2.838 28.528 8.435 41.759a7.5 7.5 0 0013.814-5.844c-4.811-11.372-7.25-23.455-7.25-35.915 0-50.881 41.403-92.276 92.294-92.276s92.294 41.396 92.294 92.276-41.403 92.275-92.294 92.275c-27.278 0-53.015-11.974-70.61-32.851a7.5 7.5 0 00-10.568-.901 7.498 7.498 0 00-.901 10.567c20.452 24.267 50.369 38.185 82.08 38.185 59.163 0 107.294-48.124 107.294-107.275 0-59.152-48.132-107.276-107.294-107.276z" data-original="#000000"/><path d="M180.37 271.275a60.44 60.44 0 0118.04 2.737 7.502 7.502 0 004.473-14.319 75.416 75.416 0 00-22.512-3.419c-41.575 0-75.398 33.818-75.398 75.387 0 41.567 33.824 75.386 75.398 75.386 41.575 0 75.399-33.818 75.399-75.386 0-19.582-7.474-38.137-21.044-52.248a7.5 7.5 0 00-10.811 10.398c10.87 11.302 16.856 26.164 16.856 41.85 0 33.297-27.095 60.386-60.399 60.386s-60.398-27.089-60.398-60.386 27.092-60.386 60.396-60.386zM504.5 294.469h-6.13a53.013 53.013 0 00-10.166-24.48l4.351-4.35a7.5 7.5 0 00-10.605-10.607l-4.352 4.352a53.027 53.027 0 00-24.486-10.166v-6.128c0-4.143-3.357-7.5-7.5-7.5s-7.5 3.357-7.5 7.5v6.128a53.031 53.031 0 00-24.486 10.166l-4.353-4.352a7.497 7.497 0 00-10.606.001 7.498 7.498 0 00.001 10.606l4.352 4.351a53.014 53.014 0 00-10.166 24.479h-6.131c-4.143 0-7.5 3.357-7.5 7.5s3.357 7.5 7.5 7.5h6.131a53.01 53.01 0 0010.166 24.479l-4.351 4.35a7.5 7.5 0 005.303 12.803 7.479 7.479 0 005.303-2.196l4.353-4.352a53.027 53.027 0 0024.486 10.166v6.128c0 4.143 3.357 7.5 7.5 7.5s7.5-3.357 7.5-7.5v-6.128a53.026 53.026 0 0024.485-10.165l4.352 4.352a7.479 7.479 0 005.303 2.196c1.92 0 3.84-.732 5.304-2.197a7.498 7.498 0 00-.001-10.606l-4.351-4.35a53.01 53.01 0 0010.166-24.479h6.13c4.143 0 7.5-3.357 7.5-7.5s-3.36-7.501-7.502-7.501zm-58.889 45.776c-21.11 0-38.285-17.171-38.285-38.276 0-21.106 17.175-38.277 38.285-38.277s38.285 17.171 38.285 38.277c0 21.105-17.175 38.276-38.285 38.276z" data-original="#000000"/><path d="M445.611 277.116c-13.705 0-24.855 11.148-24.855 24.853 0 13.703 11.15 24.852 24.855 24.852s24.855-11.148 24.855-24.852c.001-13.704-11.15-24.853-24.855-24.853zm0 34.704c-5.435 0-9.855-4.419-9.855-9.852s4.421-9.853 9.855-9.853 9.855 4.42 9.855 9.853-4.42 9.852-9.855 9.852z" data-original="#000000"/></g></svg><svg viewBox="0 0 512 512" id="documents" xmlns="http://www.w3.org/2000/svg"><path d="M446.605 124.392L326.608 4.395A15.02 15.02 0 00316 0H106C81.187 0 61 20.187 61 45v422c0 24.813 20.187 45 45 45h300c24.813 0 45-20.187 45-45V135c0-4.09-1.717-7.931-4.395-10.608zM331 51.213L399.787 120H346c-8.271 0-15-6.729-15-15zM406 482H106c-8.271 0-15-6.729-15-15V45c0-8.271 6.729-15 15-15h195v75c0 24.813 20.187 45 45 45h75v317c0 8.271-6.729 15-15 15z"/><path d="M346 212H166c-8.284 0-15 6.716-15 15s6.716 15 15 15h180c8.284 0 15-6.716 15-15s-6.716-15-15-15zM346 272H166c-8.284 0-15 6.716-15 15s6.716 15 15 15h180c8.284 0 15-6.716 15-15s-6.716-15-15-15zM346 332H166c-8.284 0-15 6.716-15 15s6.716 15 15 15h180c8.284 0 15-6.716 15-15s-6.716-15-15-15zM286 392H166c-8.284 0-15 6.716-15 15s6.716 15 15 15h120c8.284 0 15-6.716 15-15s-6.716-15-15-15z"/></svg><svg viewBox="0 0 512 512" id="dog" xmlns="http://www.w3.org/2000/svg"><g><path d="M447 108.781c4.143 0 7.5-3.357 7.5-7.5V46.206c0-12.909-10.502-23.411-23.411-23.411H303.472V7.5c0-4.143-3.357-7.5-7.5-7.5h-79.943a7.499 7.499 0 00-7.5 7.5v15.295H80.911c-12.909 0-23.411 10.502-23.411 23.411v442.383C57.5 501.498 68.002 512 80.911 512h350.178c12.909 0 23.411-10.502 23.411-23.411V135.651c0-4.143-3.357-7.5-7.5-7.5s-7.5 3.357-7.5 7.5v352.938c0 4.638-3.773 8.411-8.411 8.411H80.911c-4.638 0-8.411-3.773-8.411-8.411V46.206c0-4.638 3.773-8.411 8.411-8.411h75.833v15.192H95.262a7.499 7.499 0 00-7.5 7.5v333.094c0 4.143 3.357 7.5 7.5 7.5s7.5-3.357 7.5-7.5V67.987h53.982v19.294c0 4.143 3.357 7.5 7.5 7.5h183.512c4.143 0 7.5-3.357 7.5-7.5V67.987h54.982v398.82H102.762v-38.879c0-4.143-3.357-7.5-7.5-7.5s-7.5 3.357-7.5 7.5v46.379c0 4.143 3.357 7.5 7.5 7.5h322.477c4.143 0 7.5-3.357 7.5-7.5V60.487c0-4.143-3.357-7.5-7.5-7.5h-62.482V37.795h75.833c4.638 0 8.411 3.773 8.411 8.411v55.075a7.497 7.497 0 007.499 7.5zM223.528 15h64.943v30.59h-64.943zm116.728 64.781H171.744V37.795h36.784V53.09c0 4.143 3.357 7.5 7.5 7.5h79.943c4.143 0 7.5-3.357 7.5-7.5V37.795h36.784v41.986z" data-original="#000000"/><path d="M143.275 315.475c0 4.143 3.357 7.5 7.5 7.5h86.997c4.143 0 7.5-3.357 7.5-7.5s-3.357-7.5-7.5-7.5h-86.997a7.5 7.5 0 00-7.5 7.5zM150.775 357.675h116.997c4.143 0 7.5-3.357 7.5-7.5s-3.357-7.5-7.5-7.5H150.775c-4.143 0-7.5 3.357-7.5 7.5s3.358 7.5 7.5 7.5zM367.528 310.807a7.5 7.5 0 00-10.606-.001l-28.832 28.831-13.616-13.617a7.5 7.5 0 00-10.607 10.607l18.92 18.92a7.48 7.48 0 005.304 2.196 7.477 7.477 0 005.303-2.196l34.136-34.134a7.501 7.501 0 00-.002-10.606zM150.775 402.675h86.997c4.143 0 7.5-3.357 7.5-7.5s-3.357-7.5-7.5-7.5h-86.997c-4.143 0-7.5 3.357-7.5 7.5s3.358 7.5 7.5 7.5zM150.775 437.374h116.997c4.143 0 7.5-3.357 7.5-7.5s-3.357-7.5-7.5-7.5H150.775c-4.143 0-7.5 3.357-7.5 7.5s3.358 7.5 7.5 7.5zM356.921 390.505l-28.831 28.832-13.616-13.617a7.5 7.5 0 00-10.607 10.607l18.92 18.92c1.465 1.464 3.385 2.196 5.304 2.196s3.839-.732 5.304-2.196l34.135-34.135a7.5 7.5 0 10-10.609-10.607zM183.978 231.53a7.499 7.499 0 00-7.5 7.5v31.639c0 4.143 3.357 7.5 7.5 7.5h144.045c4.143 0 7.5-3.357 7.5-7.5V126.624c0-4.143-3.357-7.5-7.5-7.5H183.978a7.499 7.499 0 00-7.5 7.5v77.702c0 4.143 3.357 7.5 7.5 7.5s7.5-3.357 7.5-7.5v-70.202h24.209v64.522a7.5 7.5 0 0012.561 5.535L256 178.809l27.753 25.373a7.5 7.5 0 0012.561-5.535v-64.522h24.209V263.17H191.478v-24.14a7.5 7.5 0 00-7.5-7.5zm97.335-49.902l-20.253-18.517c-1.433-1.31-3.246-1.965-5.061-1.965s-3.628.655-5.061 1.965l-20.253 18.517v-47.504h50.627v47.504z" data-original="#000000"/><path d="M274.541 241.299c4.143 0 7.5-3.357 7.5-7.5s-3.357-7.5-7.5-7.5h-37.082c-4.143 0-7.5 3.357-7.5 7.5s3.357 7.5 7.5 7.5z" data-original="#000000"/></g></svg><svg viewBox="0 0 64 64" id="icon" xmlns="http://www.w3.org/2000/svg"><g><path d="M60 37h-1V18c0-1.654-1.346-3-3-3h-4v2h4c.552 0 1 .449 1 1v32a1 1 0 01-1 1H4a1 1 0 01-1-1V18c0-.551.448-1 1-1h42v-2H32.618l-2-4H7.382l-2 4H4c-1.654 0-3 1.346-3 3v32c0 1.302.839 2.402 2 2.816V63h54V52.816A2.996 2.996 0 0059 50v-1h1c1.654 0 3-1.346 3-3v-6c0-1.654-1.346-3-3-3zM8.618 13h20.764l1 2H7.618l1-2zM5 61v-8h6v4H7v4H5zm4 0v-2h6v2H9zm8 0v-4h-4v-4h10v4h-4v4h-2zm4 0v-2h6v2h-6zm8 0v-4h-4v-4h10v4h-4v4h-2zm4 0v-2h6v2h-6zm8 0v-4h-4v-4h10v4h-4v4h-2zm4 0v-2h6v2h-6zm8 0v-4h-4v-4h6v8h-2zm8-15a1 1 0 01-1 1h-1v-8h1a1 1 0 011 1v6z" data-original="#000000"/><path d="M48 25H35v24h20V25h-5V11h3V5c0-2.206-1.794-4-4-4s-4 1.794-4 4v6h3v14zm5 22H37V27h16v20zM47 5c0-1.103.897-2 2-2s2 .897 2 2v4h-4V5zM33 49V19H5v30h28zm-21.382-2l1-2H31v2H11.618zM31 21v22H11.382l-2 4H7V29h10v4h3v8h2v-8h3v-4h1.414l3-3-3-3H7v-2h24zM19 31v-2h4v2h-4zM7 27v-2h18.586l1 1-1 1H7z" data-original="#000000"/></g></svg><svg viewBox="0 0 512 512" id="laser" xmlns="http://www.w3.org/2000/svg"><g><path d="M488.511 88.105V65.317H504.5a7.5 7.5 0 007.5-7.5V27.528a7.5 7.5 0 00-7.5-7.5H278.736V7.5a7.5 7.5 0 00-7.5-7.5h-30.234a7.5 7.5 0 00-7.5 7.5v12.528H80.417c-4.142 0-7.5 3.357-7.5 7.5s3.358 7.5 7.5 7.5h153.084v15.289H15.237V35.028h29.887c4.142 0 7.5-3.357 7.5-7.5s-3.358-7.5-7.5-7.5H7.737a7.5 7.5 0 00-7.5 7.5v30.289a7.5 7.5 0 007.5 7.5h15.989v22.788a7.5 7.5 0 007.5 7.5h112.442v47.573a7.5 7.5 0 007.5 7.5h42.696v82.611a7.5 7.5 0 007.5 7.5h14.384l13.384 44.364a7.5 7.5 0 007.18 5.334h12.297l-.193 155.493-33.084-58.096a7.501 7.501 0 00-13.035 7.422l38.165 67.019-114.381-30.804a7.501 7.501 0 00-3.9 14.484l77.009 20.739H22.6c-12.461 0-22.6 10.15-22.6 22.627S10.138 512 22.6 512h357.407c4.142 0 7.5-3.357 7.5-7.5s-3.358-7.5-7.5-7.5H22.6c-4.19 0-7.6-3.422-7.6-7.627s3.409-7.627 7.6-7.627h466.564c4.19 0 7.6 3.422 7.6 7.627s-3.409 7.627-7.6 7.627h-73.915c-4.142 0-7.5 3.357-7.5 7.5s3.358 7.5 7.5 7.5h73.915c12.461 0 22.6-10.15 22.6-22.627s-10.138-22.627-22.6-22.627H312.572l77.009-20.739c4-1.077 6.369-5.193 5.292-9.192s-5.19-6.371-9.192-5.292L271.3 462.326l38.165-67.019a7.502 7.502 0 00-2.806-10.229 7.502 7.502 0 00-10.229 2.807l-33.013 57.972.192-155.37h12.316a7.499 7.499 0 007.18-5.334l13.384-44.364h14.384a7.5 7.5 0 007.5-7.5v-82.611h42.695a7.5 7.5 0 007.5-7.5V95.605h112.443a7.5 7.5 0 007.5-7.5zM248.501 15h15.234v65.605h-15.234zM38.726 80.605V65.317h194.775v15.288zm231.628 194.883h-28.471l-10.468-34.698h49.406zm33.019-49.698h-94.509v-75.111h94.509zm50.195-90.111h-194.9V95.605h194.9zm119.943-55.074H278.736V65.317h115.317c4.142 0 7.5-3.357 7.5-7.5s-3.358-7.5-7.5-7.5H278.736V35.028H497v15.289h-67.832c-4.142 0-7.5 3.357-7.5 7.5s3.358 7.5 7.5 7.5h44.343z" data-original="#000000"/><path d="M179.22 427.994a7.466 7.466 0 004.393 1.427 7.5 7.5 0 004.405-13.576l-72.262-52.326a7.5 7.5 0 10-8.798 12.149zM91.95 437.865c.653.176 1.309.26 1.955.26a7.504 7.504 0 007.238-5.552 7.5 7.5 0 00-5.292-9.192l-19.013-5.12c-4.001-1.077-8.115 1.292-9.192 5.292s1.292 8.115 5.292 9.192zM396.008 363.52l-73.033 52.885a7.5 7.5 0 004.405 13.576 7.468 7.468 0 004.393-1.427l73.033-52.885a7.5 7.5 0 10-8.798-12.149zM434.926 418.261l-19.013 5.12a7.5 7.5 0 00-5.292 9.192 7.503 7.503 0 007.238 5.552c.645 0 1.302-.084 1.955-.26l19.013-5.12a7.5 7.5 0 00-3.901-14.484zM231.028 195.734h49.708c4.142 0 7.5-3.357 7.5-7.5s-3.358-7.5-7.5-7.5h-49.708c-4.142 0-7.5 3.357-7.5 7.5s3.358 7.5 7.5 7.5z" data-original="#000000"/></g></svg><svg viewBox="0 0 16 13" id="mail" xmlns="http://www.w3.org/2000/svg"><defs><style>.iecls-1{fill:#222;fill-rule:evenodd}</style></defs><path class="iecls-1" d="M14 13H2a2 2 0 01-2-2V2a2 2 0 012-2h12a2 2 0 012 2v9a2 2 0 01-2 2zM3.534 2l4.481 4.482L12.5 2H3.534zM14 3.5L8.827 8.671a1.047 1.047 0 01-.812.3 1.047 1.047 0 01-.811-.3L2 3.467V11h12V3.5z"/></svg><svg viewBox="0 0 512 512" id="maps-and-flags" xmlns="http://www.w3.org/2000/svg"><path d="M256 0C153.755 0 70.573 83.182 70.573 185.426c0 126.888 165.939 313.167 173.004 321.035 6.636 7.391 18.222 7.378 24.846 0 7.065-7.868 173.004-194.147 173.004-321.035C441.425 83.182 358.244 0 256 0zm0 278.719c-51.442 0-93.292-41.851-93.292-93.293S204.559 92.134 256 92.134s93.291 41.851 93.291 93.293-41.85 93.292-93.291 93.292z"/></svg><svg viewBox="0 0 13 16" id="marker" xmlns="http://www.w3.org/2000/svg"><defs><style>.kacls-1{fill-rule:evenodd}</style></defs><path data-name="Ellipse 74 copy" class="kacls-1" d="M11.9 9.916h.03L7 16H6L1.067 9.916h.03a6.262 6.262 0 01-1.1-3.541 6.5 6.5 0 0113 0A6.262 6.262 0 0111.9 9.916zM6.5 2a4.5 4.5 0 00-3.741 7h-.012l3.542 4.447h.422L10.289 9h-.049A4.5 4.5 0 006.5 2zm0 6A1.5 1.5 0 118 6.5 1.5 1.5 0 016.5 8z"/></svg><svg viewBox="0 0 512 512" id="right-arrow" xmlns="http://www.w3.org/2000/svg"><path d="M506.134 241.843l-.018-.019-104.504-104c-7.829-7.791-20.492-7.762-28.285.068-7.792 7.829-7.762 20.492.067 28.284L443.558 236H20c-11.046 0-20 8.954-20 20s8.954 20 20 20h423.557l-70.162 69.824c-7.829 7.792-7.859 20.455-.067 28.284 7.793 7.831 20.457 7.858 28.285.068l104.504-104 .018-.019c7.833-7.818 7.808-20.522-.001-28.314z"/></svg><svg viewBox="0 0 511.999 511.999" id="search" xmlns="http://www.w3.org/2000/svg"><path d="M508.874 478.708L360.142 329.976c28.21-34.827 45.191-79.103 45.191-127.309C405.333 90.917 314.416 0 202.666 0S0 90.917 0 202.667s90.917 202.667 202.667 202.667c48.206 0 92.482-16.982 127.309-45.191l148.732 148.732c4.167 4.165 10.919 4.165 15.086 0l15.081-15.082c4.165-4.166 4.165-10.92-.001-15.085zM202.667 362.667c-88.229 0-160-71.771-160-160s71.771-160 160-160 160 71.771 160 160-71.771 160-160 160z"/></svg><svg viewBox="0 0 512 512" id="serv" xmlns="http://www.w3.org/2000/svg"><g><path d="M414.571 415.107l-116.514-22.892a43.367 43.367 0 01-2.791-10.449 43.664 43.664 0 012.282-20.974l1.282-3.479a73.026 73.026 0 003.844-2.919c44.32-35.851 66.793-68.071 66.793-95.768 0-2.892-.12-5.802-.355-8.648l-.011-.116c-.155-1.565-.288-3.732-.4-6.439 15.012-4.018 26.375-19.778 26.564-38.552a46.932 46.932 0 00-.924-9.827c9.791-4.232 16.66-13.984 16.66-25.309v-13.301a7.5 7.5 0 00-7.5-7.5h-22.435V117.37c0-55.548-45.203-100.74-100.765-100.74h-.265V7.5a7.5 7.5 0 00-7.5-7.5h-32.921a7.5 7.5 0 00-7.5 7.5v9.13h-1.823c-55.562 0-100.764 45.192-100.764 100.74v31.564h-21.986a7.5 7.5 0 00-7.5 7.5v13.301c0 11.616 7.225 21.576 17.418 25.624a47.152 47.152 0 00-.874 9.513c.187 18.67 11.426 34.36 26.316 38.484-.127 2.739-.273 4.981-.437 6.648a97.656 97.656 0 00-.36 8.624c0 27.688 22.462 59.899 66.747 95.724a73.355 73.355 0 003.167 2.436l1.477 4.005a43.662 43.662 0 012.28 20.986 43.39 43.39 0 01-2.792 10.443L97.451 415.103c-32.284 6.248-55.716 34.643-55.716 67.519V504.5a7.5 7.5 0 007.5 7.5h238.3c4.143 0 7.5-3.358 7.5-7.5s-3.357-7.5-7.5-7.5H164.31v-21.866h182.956V497h-24.537c-4.143 0-7.5 3.358-7.5 7.5s3.357 7.5 7.5 7.5h140.037a7.5 7.5 0 007.5-7.5v-21.878c0-32.876-23.432-61.272-55.695-67.515zm-26.168 45.027h-26.138v-40.017l26.138 5.135zm-8.137-255.412c-.104 10.304-5.032 19.153-11.925 22.85-.091-8.447-.092-18.702.004-30.279h11.127c.548 2.4.819 4.909.794 7.429zM280.303 31.63c44.764 0 81.627 34.462 85.439 78.24h-32.043c-4.143 0-7.5 3.358-7.5 7.5s3.357 7.5 7.5 7.5h32.368v24.064h-86.029V31.63zm-33.186 93.24h17.921v24.064h-17.921zM265.038 15v94.87h-17.921V15zM144.53 124.87h32.368a7.5 7.5 0 000-15h-32.043c3.812-43.778 40.676-78.24 85.439-78.24h1.823v117.304H144.53zm-12.943 79.852a32.039 32.039 0 01.793-7.429h11.094c.06 11.245.015 21.558-.124 30.191-6.808-3.748-11.66-12.54-11.763-22.762zm25.52 53.906c0-2.603.101-5.056.294-7.224.951-9.666 1.181-33.03 1.072-54.112h16.989a7.5 7.5 0 000-15h-47.857c-6.926 0-12.562-5.633-12.562-12.557v-5.801h280.958v5.801c0 6.924-5.635 12.557-12.562 12.557H210.532a7.5 7.5 0 000 15h142.814c-.135 16.747-.174 43.783.822 53.982.199 2.418.3 4.892.3 7.354 0 22.622-21.172 51.706-61.239 84.116a59.269 59.269 0 01-37.292 13.237h-.267a59.354 59.354 0 01-37.365-13.277c-40.036-32.389-61.198-61.461-61.198-84.076zm98.529 112.352h.333a74.078 74.078 0 0024.608-4.223 58.65 58.65 0 00-.173 17.05 58.385 58.385 0 004.885 16.652c-.848 15.679-13.875 28.174-29.766 28.174a29.659 29.659 0 01-20.791-8.443c-5.425-5.279-8.577-12.234-8.977-19.729a58.385 58.385 0 004.883-16.637 58.655 58.655 0 00-.203-17.274 74.139 74.139 0 0025.201 4.43zM123.172 425.3l26.138-5.176v40.01h-26.138zM56.734 497v-14.378c0-25.705 18.322-47.907 43.598-52.798l7.839-1.552V497zm92.576-.129h-26.138v-21.736h26.138zm15-36.737v-42.981l47.29-9.365c1.763 8.755 6.112 16.769 12.672 23.153 8.412 8.185 19.511 12.693 31.251 12.693 21.647 0 39.758-15.426 43.913-35.86l47.829 9.397v42.964H164.31zm224.093 15v21.736h-26.138v-21.736zM455.266 497h-51.862v-68.801l8.297 1.63c25.243 4.885 43.565 27.087 43.565 52.792z" data-original="#000000"/><path d="M255.521 311.369c15.935 0 29.938-10.734 34.055-26.104a7.501 7.501 0 00-5.305-9.185 7.498 7.498 0 00-9.186 5.305c-2.362 8.822-10.407 14.984-19.564 14.984-9.151 0-17.193-6.162-19.556-14.984a7.5 7.5 0 00-14.49 3.88c4.116 15.37 18.116 26.104 34.046 26.104z" data-original="#000000"/></g></svg></svg>