<svg width="333" height="240" fill="none" xmlns="http://www.w3.org/2000/svg"><path d="M42 69a3 3 0 00-3-3h-9a3 3 0 00-3 3v171h15V69zM82 40a3 3 0 00-3-3h-9a3 3 0 00-3 3v200h15V40z" fill="#C4C4C4" fill-opacity=".1"/><path d="M107 98a3 3 0 00-3-3h-9a3 3 0 00-3 3v142h15V98z" fill="#C4C4C4" fill-opacity=".03"/><path d="M132 69a3 3 0 00-3-3h-9a3 3 0 00-3 3v171h15V69z" fill="#C4C4C4" fill-opacity=".07"/><path d="M156 57a3 3 0 00-3-3h-9a3 3 0 00-3 3v183h15V57z" fill="#C4C4C4" fill-opacity=".05"/><path d="M181 108a3 3 0 00-3-3h-9a3 3 0 00-3 3v132h15V108z" fill="#C4C4C4" fill-opacity=".03"/><path d="M206 45a3 3 0 00-3-3h-9a3 3 0 00-3 3v195h15V45z" fill="#C4C4C4" fill-opacity=".08"/><path d="M231 83a3 3 0 00-3-3h-9a3 3 0 00-3 3v157h15V83z" fill="#C4C4C4" fill-opacity=".05"/><path d="M256 151a3 3 0 00-3-3h-9a3 3 0 00-3 3v89h15v-89z" fill="#C4C4C4" fill-opacity=".1"/><path d="M282 108a3 3 0 00-3-3h-9a3 3 0 00-3 3v132h15V108z" fill="#C4C4C4" fill-opacity=".03"/><path d="M307 130a3 3 0 00-3-3h-9a3 3 0 00-3 3v110h15V130z" fill="#C4C4C4" fill-opacity=".05"/><path d="M333 88a3 3 0 00-3-3h-9a3 3 0 00-3 3v152h15V88z" fill="#C4C4C4" fill-opacity=".08"/><path d="M57 3a3 3 0 00-3-3h-9a3 3 0 00-3 3v237h15V3zM15 5a3 3 0 00-3-3H3a3 3 0 00-3 3v237h15V5z" fill="#C4C4C4" fill-opacity=".05"/></svg>