<svg width="1537" height="242" fill="none" xmlns="http://www.w3.org/2000/svg"><path d="M291 69a3 3 0 013-3h9a3 3 0 013 3v171h-15V69zM251 40a3 3 0 013-3h9a3 3 0 013 3v200h-15V40z" fill="#C4C4C4" fill-opacity=".08"/><path d="M226 98a3 3 0 013-3h9a3 3 0 013 3v142h-15V98z" fill="#C4C4C4" fill-opacity=".2"/><path d="M201 69a3 3 0 013-3h9a3 3 0 013 3v171h-15V69z" fill="#C4C4C4" fill-opacity=".17"/><path d="M177 57a3 3 0 013-3h9a3 3 0 013 3v183h-15V57z" fill="#C4C4C4" fill-opacity=".08"/><path d="M152 108a3 3 0 013-3h9a3 3 0 013 3v132h-15V108z" fill="#C4C4C4" fill-opacity=".2"/><path d="M127 45a3 3 0 013-3h9a3 3 0 013 3v195h-15V45z" fill="#C4C4C4" fill-opacity=".12"/><path d="M102 83a3 3 0 013-3h9a3 3 0 013 3v157h-15V83zM77 151a3 3 0 013-3h9a3 3 0 013 3v89H77v-89z" fill="#C4C4C4" fill-opacity=".08"/><path d="M51 108a3 3 0 013-3h9a3 3 0 013 3v132H51V108z" fill="#C4C4C4" fill-opacity=".2"/><path d="M26 130a3 3 0 013-3h9a3 3 0 013 3v110H26V130z" fill="#C4C4C4" fill-opacity=".08"/><path d="M0 88a3 3 0 013-3h9a3 3 0 013 3v152H0V88z" fill="#C4C4C4" fill-opacity=".12"/><path d="M276 3a3 3 0 013-3h9a3 3 0 013 3v237h-15V3zM318 5a3 3 0 013-3h9a3 3 0 013 3v237h-15V5zM634 69a3 3 0 013-3h9a3 3 0 013 3v171h-15V69zM594 40a3 3 0 013-3h9a3 3 0 013 3v200h-15V40z" fill="#C4C4C4" fill-opacity=".08"/><path d="M569 98a3 3 0 013-3h9a3 3 0 013 3v142h-15V98z" fill="#C4C4C4" fill-opacity=".2"/><path d="M544 69a3 3 0 013-3h9a3 3 0 013 3v171h-15V69z" fill="#C4C4C4" fill-opacity=".17"/><path d="M520 57a3 3 0 013-3h9a3 3 0 013 3v183h-15V57z" fill="#C4C4C4" fill-opacity=".08"/><path d="M495 108a3 3 0 013-3h9a3 3 0 013 3v132h-15V108z" fill="#C4C4C4" fill-opacity=".2"/><path d="M470 45a3 3 0 013-3h9a3 3 0 013 3v195h-15V45z" fill="#C4C4C4" fill-opacity=".12"/><path d="M445 83a3 3 0 013-3h9a3 3 0 013 3v157h-15V83zM420 151a3 3 0 013-3h9a3 3 0 013 3v89h-15v-89z" fill="#C4C4C4" fill-opacity=".08"/><path d="M394 108a3 3 0 013-3h9a3 3 0 013 3v132h-15V108z" fill="#C4C4C4" fill-opacity=".2"/><path d="M369 130a3 3 0 013-3h9a3 3 0 013 3v110h-15V130z" fill="#C4C4C4" fill-opacity=".08"/><path d="M343 88a3 3 0 013-3h9a3 3 0 013 3v152h-15V88z" fill="#C4C4C4" fill-opacity=".12"/><path d="M619 3a3 3 0 013-3h9a3 3 0 013 3v237h-15V3zM661 5a3 3 0 013-3h9a3 3 0 013 3v237h-15V5zM939 40a3 3 0 013-3h9a3 3 0 013 3v200h-15V40z" fill="#C4C4C4" fill-opacity=".08"/><path d="M912 98a3 3 0 013-3h9a3 3 0 013 3v142h-15V98z" fill="#C4C4C4" fill-opacity=".2"/><path d="M887 69a3 3 0 013-3h9a3 3 0 013 3v171h-15V69z" fill="#C4C4C4" fill-opacity=".17"/><path d="M863 57a3 3 0 013-3h9a3 3 0 013 3v183h-15V57z" fill="#C4C4C4" fill-opacity=".08"/><path d="M838 108a3 3 0 013-3h9a3 3 0 013 3v132h-15V108z" fill="#C4C4C4" fill-opacity=".2"/><path d="M813 45a3 3 0 013-3h9a3 3 0 013 3v195h-15V45z" fill="#C4C4C4" fill-opacity=".12"/><path d="M788 83a3 3 0 013-3h9a3 3 0 013 3v157h-15V83zM763 151a3 3 0 013-3h9a3 3 0 013 3v89h-15v-89z" fill="#C4C4C4" fill-opacity=".08"/><path d="M737 108a3 3 0 013-3h9a3 3 0 013 3v132h-15V108z" fill="#C4C4C4" fill-opacity=".2"/><path d="M712 130a3 3 0 013-3h9a3 3 0 013 3v110h-15V130z" fill="#C4C4C4" fill-opacity=".08"/><path d="M686 88a3 3 0 013-3h9a3 3 0 013 3v152h-15V88z" fill="#C4C4C4" fill-opacity=".12"/><path d="M967 3a3 3 0 013-3h9a3 3 0 013 3v237h-15V3zM997 5a3 3 0 013-3h9c1.66 0 3 1.343 3 3v237h-15V5zM1280 40c0-1.657 1.34-3 3-3h9c1.66 0 3 1.343 3 3v200h-15V40z" fill="#C4C4C4" fill-opacity=".08"/><path d="M1255 98c0-1.657 1.34-3 3-3h9c1.66 0 3 1.343 3 3v142h-15V98z" fill="#C4C4C4" fill-opacity=".2"/><path d="M1230 69c0-1.657 1.34-3 3-3h9c1.66 0 3 1.343 3 3v171h-15V69z" fill="#C4C4C4" fill-opacity=".17"/><path d="M1206 57c0-1.657 1.34-3 3-3h9c1.66 0 3 1.343 3 3v183h-15V57z" fill="#C4C4C4" fill-opacity=".08"/><path d="M1181 108c0-1.657 1.34-3 3-3h9c1.66 0 3 1.343 3 3v132h-15V108z" fill="#C4C4C4" fill-opacity=".2"/><path d="M1156 45c0-1.657 1.34-3 3-3h9c1.66 0 3 1.343 3 3v195h-15V45z" fill="#C4C4C4" fill-opacity=".12"/><path d="M1131 83c0-1.657 1.34-3 3-3h9c1.66 0 3 1.343 3 3v157h-15V83zM1106 151c0-1.657 1.34-3 3-3h9c1.66 0 3 1.343 3 3v89h-15v-89z" fill="#C4C4C4" fill-opacity=".08"/><path d="M1080 108c0-1.657 1.34-3 3-3h9c1.66 0 3 1.343 3 3v132h-15V108z" fill="#C4C4C4" fill-opacity=".2"/><path d="M1055 130c0-1.657 1.34-3 3-3h9c1.66 0 3 1.343 3 3v110h-15V130z" fill="#C4C4C4" fill-opacity=".08"/><path d="M1027 88c0-1.657 1.34-3 3-3h9c1.66 0 3 1.343 3 3v152h-15V88z" fill="#C4C4C4" fill-opacity=".12"/><path d="M1305 3c0-1.657 1.34-3 3-3h9c1.66 0 3 1.343 3 3v237h-15V3zM1332 5c0-1.657 1.34-3 3-3h9c1.66 0 3 1.343 3 3v237h-15V5z" fill="#C4C4C4" fill-opacity=".08"/><path d="M1509 108c0-1.657 1.34-3 3-3h7c1.66 0 3 1.343 3 3v132h-13V108z" fill="#C4C4C4" fill-opacity=".2"/><path d="M1484 45c0-1.657 1.34-3 3-3h9c1.66 0 3 1.343 3 3v195h-15V45zM1532 44.5a2.5 2.5 0 015 0V240h-5V44.5z" fill="#C4C4C4" fill-opacity=".12"/><path d="M1459 83c0-1.657 1.34-3 3-3h9c1.66 0 3 1.343 3 3v157h-15V83zM1434 151c0-1.657 1.34-3 3-3h9c1.66 0 3 1.343 3 3v89h-15v-89z" fill="#C4C4C4" fill-opacity=".08"/><path d="M1408 108c0-1.657 1.34-3 3-3h9c1.66 0 3 1.343 3 3v132h-15V108z" fill="#C4C4C4" fill-opacity=".2"/><path d="M1383 130c0-1.657 1.34-3 3-3h9c1.66 0 3 1.343 3 3v110h-15V130z" fill="#C4C4C4" fill-opacity=".08"/><path d="M1357 88c0-1.657 1.34-3 3-3h9c1.66 0 3 1.343 3 3v152h-15V88z" fill="#C4C4C4" fill-opacity=".12"/></svg>