<svg width="333" height="240" fill="none" xmlns="http://www.w3.org/2000/svg"><path d="M291 69a3 3 0 013-3h9a3 3 0 013 3v171h-15V69zM251 40a3 3 0 013-3h9a3 3 0 013 3v200h-15V40z" fill="#C4C4C4" fill-opacity=".1"/><path d="M226 98a3 3 0 013-3h9a3 3 0 013 3v142h-15V98z" fill="#C4C4C4" fill-opacity=".03"/><path d="M201 69a3 3 0 013-3h9a3 3 0 013 3v171h-15V69z" fill="#C4C4C4" fill-opacity=".07"/><path d="M177 57a3 3 0 013-3h9a3 3 0 013 3v183h-15V57z" fill="#C4C4C4" fill-opacity=".05"/><path d="M152 108a3 3 0 013-3h9a3 3 0 013 3v132h-15V108z" fill="#C4C4C4" fill-opacity=".03"/><path d="M127 45a3 3 0 013-3h9a3 3 0 013 3v195h-15V45z" fill="#C4C4C4" fill-opacity=".08"/><path d="M102 83a3 3 0 013-3h9a3 3 0 013 3v157h-15V83z" fill="#C4C4C4" fill-opacity=".05"/><path d="M77 151a3 3 0 013-3h9a3 3 0 013 3v89H77v-89z" fill="#C4C4C4" fill-opacity=".1"/><path d="M51 108a3 3 0 013-3h9a3 3 0 013 3v132H51V108z" fill="#C4C4C4" fill-opacity=".03"/><path d="M26 130a3 3 0 013-3h9a3 3 0 013 3v110H26V130z" fill="#C4C4C4" fill-opacity=".05"/><path d="M0 88a3 3 0 013-3h9a3 3 0 013 3v152H0V88z" fill="#C4C4C4" fill-opacity=".08"/><path d="M276 3a3 3 0 013-3h9a3 3 0 013 3v237h-15V3zM318 5a3 3 0 013-3h9a3 3 0 013 3v237h-15V5z" fill="#C4C4C4" fill-opacity=".05"/></svg>