<svg width="1340" height="273" fill="none" xmlns="http://www.w3.org/2000/svg"><path d="M42 77.95c0-1.872-1.343-3.39-3-3.39h-9c-1.657 0-3 1.518-3 3.39v193.18h15V77.95zM82 45.188c0-1.872-1.343-3.389-3-3.389h-9c-1.657 0-3 1.517-3 3.39V271.13h15V45.188z" fill="#C4C4C4" fill-opacity=".1"/><path d="M107 110.711c0-1.872-1.343-3.389-3-3.389h-9c-1.657 0-3 1.517-3 3.389V271.13h15V110.711z" fill="#C4C4C4" fill-opacity=".03"/><path d="M132 77.95c0-1.872-1.343-3.39-3-3.39h-9c-1.657 0-3 1.518-3 3.39v193.18h15V77.95z" fill="#C4C4C4" fill-opacity=".07"/><path d="M156 64.393c0-1.871-1.343-3.389-3-3.389h-9c-1.657 0-3 1.518-3 3.39V271.13h15V64.393z" fill="#C4C4C4" fill-opacity=".05"/><path d="M181 122.008c0-1.872-1.343-3.389-3-3.389h-9c-1.657 0-3 1.517-3 3.389V271.13h15V122.008z" fill="#C4C4C4" fill-opacity=".03"/><path d="M206 50.837c0-1.872-1.343-3.39-3-3.39h-9c-1.657 0-3 1.518-3 3.39V271.13h15V50.837z" fill="#C4C4C4" fill-opacity=".08"/><path d="M231 93.766c0-1.872-1.343-3.39-3-3.39h-9c-1.657 0-3 1.518-3 3.39V271.13h15V93.766z" fill="#C4C4C4" fill-opacity=".05"/><path d="M256 170.586c0-1.872-1.343-3.389-3-3.389h-9c-1.657 0-3 1.517-3 3.389V271.13h15V170.586z" fill="#C4C4C4" fill-opacity=".1"/><path d="M282 122.008c0-1.872-1.343-3.389-3-3.389h-9c-1.657 0-3 1.517-3 3.389V271.13h15V122.008z" fill="#C4C4C4" fill-opacity=".03"/><path d="M307 146.862c0-1.872-1.343-3.389-3-3.389h-9c-1.657 0-3 1.517-3 3.389V271.13h15V146.862z" fill="#C4C4C4" fill-opacity=".05"/><path d="M333 99.414c0-1.872-1.343-3.389-3-3.389h-9c-1.657 0-3 1.517-3 3.39V271.13h15V99.414z" fill="#C4C4C4" fill-opacity=".08"/><path d="M57 3.39C57 1.516 55.657 0 54 0h-9c-1.657 0-3 1.517-3 3.39v267.74h15V3.39zM15 5.649c0-1.872-1.343-3.39-3-3.39H3c-1.657 0-3 1.518-3 3.39v267.74h15V5.649z" fill="#C4C4C4" fill-opacity=".05"/><path d="M388 104a3 3 0 00-3-3h-9a3 3 0 00-3 3v171h15V104zM428 75a3 3 0 00-3-3h-9a3 3 0 00-3 3v200h15V75z" fill="#C4C4C4" fill-opacity=".1"/><path d="M453 133a3 3 0 00-3-3h-9a3 3 0 00-3 3v142h15V133z" fill="#C4C4C4" fill-opacity=".03"/><path d="M478 104a3 3 0 00-3-3h-9a3 3 0 00-3 3v171h15V104z" fill="#C4C4C4" fill-opacity=".07"/><path d="M502 92a3 3 0 00-3-3h-9a3 3 0 00-3 3v183h15V92z" fill="#C4C4C4" fill-opacity=".05"/><path d="M527 143a3 3 0 00-3-3h-9a3 3 0 00-3 3v132h15V143z" fill="#C4C4C4" fill-opacity=".03"/><path d="M552 80a3 3 0 00-3-3h-9a3 3 0 00-3 3v195h15V80z" fill="#C4C4C4" fill-opacity=".08"/><path d="M577 118a3 3 0 00-3-3h-9a3 3 0 00-3 3v157h15V118z" fill="#C4C4C4" fill-opacity=".05"/><path d="M602 186a3 3 0 00-3-3h-9a3 3 0 00-3 3v89h15v-89z" fill="#C4C4C4" fill-opacity=".1"/><path d="M628 143a3 3 0 00-3-3h-9a3 3 0 00-3 3v132h15V143z" fill="#C4C4C4" fill-opacity=".03"/><path d="M653 165a3 3 0 00-3-3h-9a3 3 0 00-3 3v110h15V165z" fill="#C4C4C4" fill-opacity=".05"/><path d="M679 123a3 3 0 00-3-3h-9a3 3 0 00-3 3v152h15V123z" fill="#C4C4C4" fill-opacity=".08"/><path d="M403 38a3 3 0 00-3-3h-9a3 3 0 00-3 3v237h15V38zM361 40a3 3 0 00-3-3h-9a3 3 0 00-3 3v237h15V40z" fill="#C4C4C4" fill-opacity=".05"/><path d="M1303 98c0-1.657 1.34-3 3-3h9c1.66 0 3 1.343 3 3v171h-15V98zM1263 69c0-1.657 1.34-3 3-3h9c1.66 0 3 1.343 3 3v200h-15V69z" fill="#C4C4C4" fill-opacity=".1"/><path d="M1238 127c0-1.657 1.34-3 3-3h9c1.66 0 3 1.343 3 3v142h-15V127z" fill="#C4C4C4" fill-opacity=".03"/><path d="M1213 98c0-1.657 1.34-3 3-3h9c1.66 0 3 1.343 3 3v171h-15V98z" fill="#C4C4C4" fill-opacity=".07"/><path d="M1189 86c0-1.657 1.34-3 3-3h9c1.66 0 3 1.343 3 3v183h-15V86z" fill="#C4C4C4" fill-opacity=".05"/><path d="M1164 137c0-1.657 1.34-3 3-3h9c1.66 0 3 1.343 3 3v132h-15V137z" fill="#C4C4C4" fill-opacity=".03"/><path d="M1139 74c0-1.657 1.34-3 3-3h9c1.66 0 3 1.343 3 3v195h-15V74z" fill="#C4C4C4" fill-opacity=".08"/><path d="M1114 112c0-1.657 1.34-3 3-3h9c1.66 0 3 1.343 3 3v157h-15V112z" fill="#C4C4C4" fill-opacity=".05"/><path d="M1089 180c0-1.657 1.34-3 3-3h9c1.66 0 3 1.343 3 3v89h-15v-89z" fill="#C4C4C4" fill-opacity=".1"/><path d="M1063 137c0-1.657 1.34-3 3-3h9c1.66 0 3 1.343 3 3v132h-15V137z" fill="#C4C4C4" fill-opacity=".03"/><path d="M1038 159c0-1.657 1.34-3 3-3h9c1.66 0 3 1.343 3 3v110h-15V159zM1288 32c0-1.657 1.34-3 3-3h9c1.66 0 3 1.343 3 3v237h-15V32zM1330 34c0-1.657 1.34-3 3-3h9c1.66 0 3 1.343 3 3v237h-15V34z" fill="#C4C4C4" fill-opacity=".05"/><path d="M734 104a3 3 0 00-3-3h-9a3 3 0 00-3 3v171h15V104zM774 75a3 3 0 00-3-3h-9a3 3 0 00-3 3v200h15V75z" fill="#C4C4C4" fill-opacity=".1"/><path d="M799 133a3 3 0 00-3-3h-9a3 3 0 00-3 3v142h15V133z" fill="#C4C4C4" fill-opacity=".03"/><path d="M824 104a3 3 0 00-3-3h-9a3 3 0 00-3 3v171h15V104z" fill="#C4C4C4" fill-opacity=".07"/><path d="M848 92a3 3 0 00-3-3h-9a3 3 0 00-3 3v183h15V92z" fill="#C4C4C4" fill-opacity=".05"/><path d="M873 143a3 3 0 00-3-3h-9a3 3 0 00-3 3v132h15V143z" fill="#C4C4C4" fill-opacity=".03"/><path d="M898 80a3 3 0 00-3-3h-9a3 3 0 00-3 3v195h15V80z" fill="#C4C4C4" fill-opacity=".08"/><path d="M923 118a3 3 0 00-3-3h-9a3 3 0 00-3 3v157h15V118z" fill="#C4C4C4" fill-opacity=".05"/><path d="M948 186a3 3 0 00-3-3h-9a3 3 0 00-3 3v89h15v-89z" fill="#C4C4C4" fill-opacity=".1"/><path d="M974 143a3 3 0 00-3-3h-9a3 3 0 00-3 3v132h15V143z" fill="#C4C4C4" fill-opacity=".03"/><path d="M999 165a3 3 0 00-3-3h-9a3 3 0 00-3 3v110h15V165z" fill="#C4C4C4" fill-opacity=".05"/><path d="M1025 123c0-1.657-1.34-3-3-3h-9c-1.66 0-3 1.343-3 3v152h15V123z" fill="#C4C4C4" fill-opacity=".08"/><path d="M749 38a3 3 0 00-3-3h-9a3 3 0 00-3 3v237h15V38zM707 40a3 3 0 00-3-3h-9a3 3 0 00-3 3v237h15V40z" fill="#C4C4C4" fill-opacity=".05"/></svg>