<?xml version="1.0" encoding="utf-8"?><svg viewBox="0 0 40 32" xmlns="http://www.w3.org/2000/svg" xmlns:xlink="http://www.w3.org/1999/xlink"><style>:root>svg{display:none}:root>svg:target{display:block}</style><svg viewBox="0 0 20 20" id="api" xmlns="http://www.w3.org/2000/svg"><path d="M11.533 10.05h-.947v.997h.947a.5.5 0 000-.998zM6.709 10.05a.724.724 0 00-.723.723v.274h1.446v-.274a.724.724 0 00-.723-.724z"/><path d="M0 6.952v8.417c0 .969.789 1.758 1.758 1.758h16.484A1.76 1.76 0 0020 15.369V6.952H0zm8.604 6.378a.586.586 0 01-1.172 0v-1.111H5.986v1.11a.586.586 0 01-1.172 0v-2.556c0-1.045.85-1.895 1.895-1.895s1.895.85 1.895 1.895v2.557zm2.93-1.111h-.948v1.11a.586.586 0 11-1.172 0V9.464c0-.323.262-.585.586-.585h1.533c.922 0 1.671.749 1.671 1.67 0 .921-.75 1.67-1.67 1.67zm3.652 1.11a.586.586 0 01-1.171 0V9.464a.586.586 0 111.171 0v3.867zM18.242 2.873H1.758A1.76 1.76 0 000 4.631V5.78h20V4.63a1.76 1.76 0 00-1.758-1.758z"/></svg><svg fill="none" viewBox="0 0 21 23" id="calendar" xmlns="http://www.w3.org/2000/svg"><path d="M14.667 1.083V5.25M6.333 1.083V5.25M1.125 9.417h18.75M3.208 2.907h14.584c1.15 0 2.083.932 2.083 2.083v14.583c0 1.15-.933 2.083-2.083 2.083H3.208a2.083 2.083 0 01-2.083-2.083V4.99c0-1.151.933-2.084 2.083-2.084z" stroke="#F6E36A" stroke-width="1.5" stroke-linecap="round" stroke-linejoin="round"/></svg><svg viewBox="0 0 31.5 31.5" id="check1" xmlns="http://www.w3.org/2000/svg"><path class="ca" d="M30.75 15.75v11.67a3.35 3.35 0 01-3.33 3.33H4.08a3.35 3.35 0 01-3.33-3.33V4.08A3.35 3.35 0 014.08.75h18.34"/></svg><svg viewBox="0 0 20 20" id="coin" xmlns="http://www.w3.org/2000/svg"><path d="M5.81 11.42c.563 0 1.106-.036 1.62-.103V5.682a12.465 12.465 0 00-1.62-.104C2.603 5.578 0 6.758 0 8.214v.571c0 1.456 2.602 2.636 5.81 2.636zM5.81 14.363c.563 0 1.106-.036 1.62-.104v-1.651c-.514.067-1.057.104-1.62.104-2.8 0-5.139-.9-5.688-2.096-.08.175-.122.355-.122.54v.572c0 1.455 2.602 2.635 5.81 2.635zM7.43 15.678v-.128c-.514.067-1.057.104-1.62.104-2.8 0-5.139-.899-5.688-2.095-.08.174-.122.354-.122.54v.57c0 1.456 2.602 2.636 5.81 2.636.643 0 1.26-.047 1.837-.134a2.08 2.08 0 01-.217-.921v-.572zM14.19 1.114c-3.21 0-5.812 1.18-5.812 2.636v.572c0 1.455 2.602 2.635 5.811 2.635C17.4 6.957 20 5.777 20 4.322V3.75c0-1.456-2.602-2.636-5.81-2.636z"/><path d="M14.19 8.248c-2.802 0-5.14-.899-5.69-2.095-.08.174-.122.354-.122.54v.57C8.378 8.72 10.98 9.9 14.19 9.9 17.4 9.9 20 8.72 20 7.264v-.572c0-.185-.042-.365-.122-.54-.55 1.197-2.887 2.096-5.689 2.096z"/><path d="M14.19 11.19c-2.802 0-5.14-.898-5.69-2.095-.08.174-.122.355-.122.54v.571c0 1.456 2.602 2.636 5.811 2.636 3.21 0 5.811-1.18 5.811-2.636v-.571c0-.185-.042-.366-.122-.54-.55 1.197-2.887 2.096-5.689 2.096z"/><path d="M14.19 14.292c-2.802 0-5.14-.9-5.69-2.096-.08.175-.122.355-.122.54v.572c0 1.455 2.602 2.635 5.811 2.635 3.21 0 5.811-1.18 5.811-2.635v-.572c0-.185-.042-.366-.122-.54-.55 1.197-2.887 2.096-5.689 2.096z"/><path d="M14.19 17.234c-2.802 0-5.14-.899-5.69-2.095-.08.174-.122.354-.122.54v.571c0 1.456 2.602 2.636 5.811 2.636 3.21 0 5.811-1.18 5.811-2.636v-.572c0-.185-.042-.365-.122-.54-.55 1.197-2.887 2.096-5.689 2.096z"/></svg><svg fill="none" viewBox="0 0 18 18" id="download" xmlns="http://www.w3.org/2000/svg"><path d="M16.5 11.5v3.333a1.666 1.666 0 01-1.667 1.667H3.167A1.667 1.667 0 011.5 14.833V11.5m3.333-4.167L9 11.5m0 0l4.167-4.167M9 11.5v-10" stroke="#B8B8B8" stroke-width="1.5" stroke-linecap="round" stroke-linejoin="round"/></svg><svg viewBox="0 0 20 16" id="email" xmlns="http://www.w3.org/2000/svg"><path d="M18.333 3c0-.917-.75-1.667-1.666-1.667H3.333c-.916 0-1.666.75-1.666 1.667m16.666 0v10c0 .917-.75 1.667-1.666 1.667H3.333c-.916 0-1.666-.75-1.666-1.667V3m16.666 0L10 8.833 1.667 3"/></svg><svg viewBox="0 0 20 20" id="exit" xmlns="http://www.w3.org/2000/svg"><g clip-path="url(#gclip0)"><path d="M12.5 10.833a.833.833 0 00-.833.834V15c0 .46-.374.833-.834.833h-2.5v-12.5A1.68 1.68 0 007.198 1.75l-.246-.082h3.881c.46 0 .834.374.834.833V5a.833.833 0 101.666 0V2.5c0-1.378-1.122-2.5-2.5-2.5H1.875c-.032 0-.058.014-.09.019C1.746.015 1.708 0 1.668 0 .747 0 0 .748 0 1.667v15a1.68 1.68 0 001.135 1.584l5.015 1.671c.17.053.339.078.517.078.919 0 1.666-.747 1.666-1.667V17.5h2.5c1.378 0 2.5-1.122 2.5-2.5v-3.333a.833.833 0 00-.833-.834z" fill="#B8B8B8"/><path d="M19.756 7.744l-3.334-3.333a.833.833 0 00-1.422.59v2.5h-3.333a.834.834 0 000 1.666H15v2.5a.835.835 0 001.422.589l3.334-3.333a.833.833 0 000-1.179z"/></g><defs><clipPath id="gclip0"><path fill="#fff" d="M0 0h20v20H0z"/></clipPath></defs></svg><svg fill="none" viewBox="0 0 40 30" id="eye" xmlns="http://www.w3.org/2000/svg"><path d="M1.667 15S8.332 1.667 20 1.667C31.666 1.667 38.333 15 38.333 15S31.667 28.334 20 28.334C8.333 28.334 1.666 15 1.666 15z" stroke="#F6E36A" stroke-width="1.5" stroke-linecap="round" stroke-linejoin="round"/><path d="M20 20a5 5 0 100-10 5 5 0 000 10z" stroke="#F6E36A" stroke-width="1.5" stroke-linecap="round" stroke-linejoin="round"/></svg><svg fill="none" viewBox="0 0 32 32" id="file-plus" xmlns="http://www.w3.org/2000/svg"><path d="M18.667 2.667H8a2.667 2.667 0 00-2.667 2.666v21.334A2.667 2.667 0 008 29.333h16a2.666 2.666 0 002.667-2.666v-16m-8-8l8 8m-8-8v8h8M16 24v-8m-4 4h8" stroke="#F6E36A" stroke-width="1.5" stroke-linecap="round" stroke-linejoin="round"/></svg><svg fill="none" viewBox="0 0 34 32" id="ic-check" xmlns="http://www.w3.org/2000/svg"><path d="M11 14.333l5 5L32.667 2.667M31 16v11.667A3.333 3.333 0 0127.667 31H4.333A3.333 3.333 0 011 27.667V4.333A3.333 3.333 0 014.333 1h18.334" stroke="#0E0F0F" stroke-width="1.5" stroke-linecap="round" stroke-linejoin="round"/></svg><svg viewBox="0 0 20 20" id="printer" xmlns="http://www.w3.org/2000/svg"><path d="M5 7.5V1.667h10V7.5M5 15H3.333a1.667 1.667 0 01-1.666-1.667V9.167A1.667 1.667 0 013.333 7.5h13.334a1.667 1.667 0 011.666 1.667v4.166A1.667 1.667 0 0116.667 15H15M5 11.667h10v6.666H5v-6.666z"/></svg><svg viewBox="0 0 20 20" id="profile" xmlns="http://www.w3.org/2000/svg"><g clip-path="url(#lclip0)"><g clip-path="url(#lclip1)"><path d="M9.857 9.634c1.324 0 2.47-.475 3.407-1.411.936-.937 1.41-2.082 1.41-3.406 0-1.323-.474-2.47-1.41-3.406C12.326.475 11.18 0 9.856 0 8.534 0 7.388.475 6.452 1.411c-.937.937-1.412 2.083-1.412 3.406 0 1.324.475 2.47 1.412 3.406.936.936 2.082 1.411 3.405 1.411zM18.286 15.379c-.027-.39-.081-.815-.162-1.264a9.947 9.947 0 00-.31-1.27 6.271 6.271 0 00-.523-1.185 4.471 4.471 0 00-.788-1.027 3.471 3.471 0 00-1.131-.71 3.91 3.91 0 00-1.444-.262c-.205 0-.402.084-.783.332-.235.153-.51.33-.816.526-.262.167-.617.323-1.055.465a4.19 4.19 0 01-1.29.208c-.43 0-.864-.07-1.292-.208-.438-.142-.793-.298-1.054-.465-.304-.194-.578-.371-.817-.526-.38-.248-.578-.332-.782-.332-.52 0-1.006.088-1.444.261a3.47 3.47 0 00-1.132.711c-.297.285-.562.63-.787 1.027-.218.382-.393.78-.523 1.185-.125.39-.23.818-.31 1.27-.08.449-.135.874-.162 1.264-.027.383-.04.78-.04 1.182 0 1.044.331 1.889.986 2.512.646.615 1.502.927 2.542.927h9.63c1.04 0 1.895-.312 2.541-.927.655-.623.987-1.468.987-2.513 0-.403-.014-.8-.04-1.181z"/></g></g><defs><clipPath id="lclip0"><path d="M0 0h20v20H0z"/></clipPath><clipPath id="lclip1"><path d="M0 0h20v20H0z"/></clipPath></defs></svg><svg viewBox="0 0 20 20" id="question" xmlns="http://www.w3.org/2000/svg"><path d="M20 13.535a6.485 6.485 0 00-3.556-5.774c-.066 4.759-3.924 8.617-8.683 8.683A6.485 6.485 0 0013.535 20c1.164 0 2.295-.31 3.29-.899l3.147.87-.87-3.146a6.442 6.442 0 00.898-3.29z"/><path d="M15.273 7.637C15.273 3.426 11.848 0 7.637 0S0 3.426 0 7.637c0 1.372.365 2.708 1.059 3.881l-1.03 3.727 3.726-1.03a7.613 7.613 0 003.882 1.058c4.21 0 7.636-3.425 7.636-7.636zM6.465 5.859H5.293a2.346 2.346 0 012.344-2.343A2.346 2.346 0 019.98 5.859a2.35 2.35 0 01-.762 1.73l-.995.911v.914H7.05v-1.43l1.376-1.26a1.173 1.173 0 00-.79-2.037c-.646 0-1.172.526-1.172 1.172zm.586 4.727h1.172v1.172H7.05v-1.172z"/></svg><svg viewBox="0 0 20 20" id="settings" xmlns="http://www.w3.org/2000/svg"><g clip-path="url(#clip0)"><path d="M18.902 7.828l-1.566-.199a7.87 7.87 0 00-.474-1.145l.967-1.246a1.239 1.239 0 00-.102-1.649l-1.312-1.312a1.242 1.242 0 00-1.654-.106l-1.244.967a7.846 7.846 0 00-1.146-.474l-.2-1.564A1.248 1.248 0 0010.934 0H9.067c-.631 0-1.164.472-1.239 1.097L7.63 2.664c-.398.13-.781.288-1.146.474l-1.245-.967a1.24 1.24 0 00-1.649.102L2.277 3.583A1.242 1.242 0 002.17 5.24l.967 1.245a7.783 7.783 0 00-.474 1.145l-1.564.2C.472 7.902 0 8.435 0 9.066v1.866c0 .631.472 1.164 1.097 1.239l1.567.199c.13.397.288.78.474 1.145l-.967 1.246a1.239 1.239 0 00.102 1.649l1.312 1.312c.438.451 1.15.496 1.654.105l1.245-.967c.364.186.748.346 1.145.474l.2 1.563c.074.63.607 1.102 1.238 1.102h1.866c.631 0 1.164-.473 1.239-1.098l.199-1.566c.397-.13.78-.288 1.145-.474l1.246.967a1.239 1.239 0 001.649-.102l1.312-1.312c.452-.438.498-1.15.106-1.654l-.967-1.245c.186-.364.346-.748.474-1.145l1.563-.2a1.248 1.248 0 001.1-1.238V9.067c.001-.631-.471-1.164-1.096-1.239zM10 14.167A4.171 4.171 0 015.833 10 4.171 4.171 0 0110 5.833 4.171 4.171 0 0114.167 10 4.171 4.171 0 0110 14.167z"/></g></svg><svg viewBox="0 0 20 20" id="shopping" xmlns="http://www.w3.org/2000/svg"><path d="M10 20C4.486 20 0 15.514 0 10S4.486 0 10 0s10 4.486 10 10-4.486 10-10 10zm0-18.333c-4.595 0-8.333 3.738-8.333 8.333 0 4.595 3.738 8.333 8.333 8.333 4.595 0 8.333-3.738 8.333-8.333 0-4.595-3.738-8.333-8.333-8.333z"/><path d="M12.652 12.5H6.59a.834.834 0 01-.814-.648L5.02 8.518A.832.832 0 015.833 7.5h7.04l.487-1.876a.833.833 0 111.613.42l-1.515 5.833a.835.835 0 01-.806.623zM8.333 15a.834.834 0 11.002-1.668A.834.834 0 018.333 15zM11.667 15a.834.834 0 11.001-1.668.834.834 0 01-.001 1.668z"/></svg><svg viewBox="0 0 20 20" id="stat" xmlns="http://www.w3.org/2000/svg"><path d="M5 7.856H.715A.718.718 0 000 8.57v10.711c0 .398.322.716.715.716H5a.715.715 0 00.715-.716V8.572A.715.715 0 005 7.855zM12.142.002H7.858a.714.714 0 00-.716.711v18.57c0 .397.322.715.716.715h4.284a.715.715 0 00.716-.716V.718a.715.715 0 00-.716-.716zM19.285 5.713H15a.713.713 0 00-.716.716v12.853c0 .398.323.716.716.716h4.285a.715.715 0 00.715-.716V6.43a.715.715 0 00-.715-.716z"/></svg></svg>