<?xml version="1.0" encoding="utf-8"?><svg viewBox="0 0 18 18" xmlns="http://www.w3.org/2000/svg" xmlns:xlink="http://www.w3.org/1999/xlink"><style>:root>svg{display:none}:root>svg:target{display:block}</style><svg fill="none" viewBox="0 0 18 18" id="close" xmlns="http://www.w3.org/2000/svg"><path d="M17 1L1 17M1 1l16 16" stroke="#fff" stroke-width="1.5" stroke-linecap="round" stroke-linejoin="round"/></svg><svg fill="none" viewBox="0 0 12 16" id="lock" xmlns="http://www.w3.org/2000/svg"><path d="M10.235 6.588V4.706A4.218 4.218 0 006 .47a4.218 4.218 0 00-4.235 4.236v1.882C.965 6.588.353 7.2.353 8v6.117c0 .753.612 1.412 1.412 1.412h8.47c.8 0 1.412-.659 1.412-1.412V8c0-.8-.612-1.412-1.412-1.412zm-7.53-1.882A3.274 3.274 0 016 1.412a3.274 3.274 0 013.294 3.294v1.882H2.706V4.706zm3.766 6.965v1.035c0 .282-.189.47-.471.47s-.47-.188-.47-.47V11.67a1.37 1.37 0 01-.942-1.318c0-.8.612-1.412 1.412-1.412.8 0 1.412.612 1.412 1.412a1.37 1.37 0 01-.941 1.318z" fill="#fff"/></svg></svg>