<?xml version="1.0" encoding="utf-8"?>
<!-- Generator: Adobe Illustrator 24.1.2, SVG Export Plug-In . SVG Version: 6.00 Build 0)  -->
<svg version="1.1" id="Слой_1" xmlns="http://www.w3.org/2000/svg" xmlns:xlink="http://www.w3.org/1999/xlink" x="0px" y="0px"
	 viewBox="0 0 63.6 63.6" style="enable-background:new 0 0 63.6 63.6;" xml:space="preserve">
<style type="text/css">
	.st0{fill:#FFFFFF;}
</style>
<g>
	<path class="st0" d="M62.3,1.3c-1.8-1.8-4.6-1.8-6.4,0l-24.1,24L7.7,1.3C6.1-0.5,3.2-0.7,1.3,1s-2,4.5-0.4,6.4
		c0.1,0.1,0.2,0.3,0.4,0.4l24,24.1l-24,24.1c-1.9,1.7-2,4.5-0.4,6.4s4.5,2,6.4,0.4c0.1-0.1,0.3-0.2,0.4-0.4l24.1-24l24.1,24
		c1.7,1.9,4.5,2,6.4,0.4c1.9-1.7,2-4.5,0.4-6.4c-0.1-0.1-0.2-0.3-0.4-0.4l-24-24.1l24-24.1C64,6,64,3.1,62.3,1.3z"/>
</g>
</svg>
