<svg xmlns="http://www.w3.org/2000/svg" viewBox="0 0 1205.87 148.55"><defs><style>.cls-1{fill:#1e1d2b;}</style></defs><title>6</title><g id="Слой_2" data-name="Слой 2"><g id="Слой_1-2" data-name="Слой 1"><path class="cls-1" d="M543.68,27.37q13.07,10.9,13.06,30t-13.06,30q-13.06,10.89-35.84,10.89h-29v35.52H462.09V16.48h45.75Q530.61,16.48,543.68,27.37Zm-12.06,49.5Q540,70.09,540,57.35t-8.37-19.51q-8.39-6.78-24.3-6.79H478.86V83.66h28.46Q523.23,83.66,531.62,76.87Z"/><path class="cls-1" d="M638.75,53.17q9.78,9,9.8,27v53.6H633.31V122a25.42,25.42,0,0,1-11.49,9.47,43.71,43.71,0,0,1-17.67,3.27q-14.92,0-23.87-7.21a23.1,23.1,0,0,1-9-18.93q0-11.72,8.55-18.84T607,82.65h25.46V79.47q0-10.39-6-15.91T608.67,58a46.89,46.89,0,0,0-15.4,2.59,39.64,39.64,0,0,0-12.74,7l-6.7-12.07a48.52,48.52,0,0,1,16.42-8.45,68.55,68.55,0,0,1,20.26-2.93Q628.94,44.13,638.75,53.17Zm-16,65.08a23.47,23.47,0,0,0,9.72-11.64V94.2H607.68c-13.64,0-20.45,4.6-20.45,13.74a12.45,12.45,0,0,0,5.19,10.56c3.47,2.58,8.26,3.85,14.41,3.85A29.81,29.81,0,0,0,622.74,118.25Z"/><path class="cls-1" d="M693.36,128.89a43,43,0,0,1-16.68-16.17,45.38,45.38,0,0,1-6-23.37,45.34,45.34,0,0,1,6-23.36,42.24,42.24,0,0,1,16.68-16.08,49.72,49.72,0,0,1,24.19-5.78A46.39,46.39,0,0,1,739.09,49a34.59,34.59,0,0,1,14.65,14.07l-12.23,7.87a27.4,27.4,0,0,0-10.38-9.55,29.71,29.71,0,0,0-13.74-3.19,31.78,31.78,0,0,0-15.67,3.86,27.42,27.42,0,0,0-10.88,11,33.13,33.13,0,0,0-3.93,16.33,33.45,33.45,0,0,0,3.93,16.5,27.35,27.35,0,0,0,10.88,11,31.78,31.78,0,0,0,15.67,3.86,29.71,29.71,0,0,0,13.74-3.19,27.24,27.24,0,0,0,10.38-9.55l12.23,7.71a35.15,35.15,0,0,1-14.65,14.16,45.93,45.93,0,0,1-21.54,4.94A49.32,49.32,0,0,1,693.36,128.89Z"/><path class="cls-1" d="M807.85,92.38l-18.43,17.08v24.29H773.35V9.45h16.07V89.19L837.84,45h19.43L819.92,81.65l41,52.1H841.19Z"/><path class="cls-1" d="M923.93,16.48H940.7V119.17h63.49v14.58H923.93Z"/><path class="cls-1" d="M1021.35,24.86a9.89,9.89,0,0,1-3.11-7.37,10.18,10.18,0,0,1,3.11-7.46,10.57,10.57,0,0,1,7.79-3.1,10.89,10.89,0,0,1,7.79,2.94,9.61,9.61,0,0,1,3.1,7.28,10.4,10.4,0,0,1-3.1,7.63,11.45,11.45,0,0,1-15.58.08ZM1021.1,45h16.07v88.79H1021.1Z"/><path class="cls-1" d="M1085.93,37.25V45h25.79V58.19h-25.45v75.56h-16.09V58.19h-15.07V45h15.07V37.09q0-13.23,7.71-20.94t21.6-7.71a36.39,36.39,0,0,1,10,1.34,24.57,24.57,0,0,1,8,3.85l-4.86,12.23a20.08,20.08,0,0,0-12.39-4.19Q1085.93,21.67,1085.93,37.25Z"/><path class="cls-1" d="M1205.54,94.72h-72a27.88,27.88,0,0,0,10.32,18.84q8.78,7.13,21.85,7.12,15.91,0,25.63-10.72l8.88,10.39a39,39,0,0,1-15,10.72,56.64,56.64,0,0,1-45-2.09,41.38,41.38,0,0,1-16.83-16.17,46.31,46.31,0,0,1-5.94-23.46,47.19,47.19,0,0,1,5.77-23.28,41.3,41.3,0,0,1,15.92-16.16A45.28,45.28,0,0,1,1162,44.13a44.41,44.41,0,0,1,22.7,5.78,40.61,40.61,0,0,1,15.58,16.16,49.35,49.35,0,0,1,5.6,23.79A44.3,44.3,0,0,1,1205.54,94.72Zm-62.91-30q-7.79,7-9.13,18.43h57a28.53,28.53,0,0,0-9.13-18.35q-7.78-7.12-19.35-7.12T1142.63,64.73Z"/><path class="cls-1" d="M199,127.82a69.68,69.68,0,0,0,24.2-53.55,73.81,73.81,0,0,0-24.73-54.92,62,62,0,0,1,29.75-7.84H281.7V0H228.19a73.56,73.56,0,0,0-39.65,11.7A73.56,73.56,0,0,0,148.89,0H95.38V11.51h53.51a62,62,0,0,1,29.75,7.84,73.81,73.81,0,0,0-24.73,54.92,69.68,69.68,0,0,0,24.2,53.55A84.31,84.31,0,0,1,138.89,137H63.07v11.51h75.82c19.07,0,36-4.88,49.65-13.24,13.67,8.36,30.58,13.24,49.64,13.24H314V137H238.18A84.3,84.3,0,0,1,199,127.82ZM165.42,74.27A62.36,62.36,0,0,1,188.54,26a62.36,62.36,0,0,1,23.12,48.25c0,19.28-8.76,35.59-23.12,46.82C174.18,109.86,165.42,93.55,165.42,74.27Z"/><rect class="cls-1" x="250.94" y="34.29" width="102.55" height="11.51"/><rect class="cls-1" x="250.94" y="68.59" width="126.14" height="11.51"/><rect class="cls-1" x="250.94" y="102.89" width="102.55" height="11.51"/><rect class="cls-1" x="23.59" y="34.29" width="102.55" height="11.51"/><rect class="cls-1" y="68.59" width="126.14" height="11.51"/><rect class="cls-1" x="23.59" y="102.89" width="102.55" height="11.51"/></g></g></svg>