<svg xmlns="http://www.w3.org/2000/svg" viewBox="0 0 37.55 33.89"><defs><style>.a,.b{fill:none;stroke:#1e557d;stroke-linecap:round;stroke-linejoin:round;}.a{stroke-width:1.2px;}.b{stroke-width:1.2px;}</style></defs><path class="a" d="M8.09,27.62l12.64-4.73a.85.85,0,0,1,1,.47l1.58,4.21a.86.86,0,0,1-.47,1L10.22,33.33a.86.86,0,0,1-1-.47L7.62,28.65A.73.73,0,0,1,8.09,27.62Z" transform="translate(-0.87 -0.08)"/><path class="b" d="M5,18.8,1.51,9.12a1.48,1.48,0,0,1,0-.63L1.74,8A.54.54,0,0,1,2,7.65l1-.69.09,0L6.91,5.24l.1,0,4-1.12.1,0,1.47-.32c.1,0,.23,0,.32,0l.35.08a1,1,0,0,1,.62.53l.24.65a.84.84,0,0,0,1,.48L27.19.73a.8.8,0,0,1,1,.48L33,13.29a.86.86,0,0,0,1,.48l.09,0a.78.78,0,0,1,1.05.26l.07.19,2.51,7.17a.88.88,0,0,1-.48,1l-5,1.81a.79.79,0,0,1-1-.48l-2.79-7.07a.78.78,0,0,1,.39-1l.09,0a.77.77,0,0,0,.51-.94L26.32,6a.85.85,0,0,0-1-.48l-9,3.28a.86.86,0,0,0-.48,1l1.64,4.51a.85.85,0,0,1-.48,1L6.16,19.25A.77.77,0,0,1,5,18.8Z" transform="translate(-0.87 -0.08)"/><path class="a" d="M9.27,20l5.9-2.2a.86.86,0,0,1,1,.47l1.19,3.18a.87.87,0,0,1-.47,1L11,24.68a.86.86,0,0,1-1-.47L8.8,21A.86.86,0,0,1,9.27,20Z" transform="translate(-0.87 -0.08)"/></svg>