<svg xmlns="http://www.w3.org/2000/svg" viewBox="0 0 38.76 32.46"><defs><style>.a{fill:none;stroke:#1e557d;stroke-miterlimit:10;stroke-width:1.2px;}.b{fill:#1e557d;fill-rule:evenodd;}</style></defs><path class="a" d="M8.1,32a1,1,0,0,0,1.3.6L21.6,28a1,1,0,0,0,.6-1.3l-1.4-3.8a1,1,0,0,0-1.3-.6L7.3,26.9a1,1,0,0,0-.6,1.3L8.1,32Z" transform="translate(0.08 -0.8)"/><path class="a" d="M4,18.1.6,8.7a1.1,1.1,0,0,1,0-.8l.1-.3a.78.78,0,0,1,.4-.4l1-.6a.35.35,0,0,1,.2-.1L6,4.9h.1L10,3.8h.1l1.4-.3h.4l.2.1a1.06,1.06,0,0,1,.7.6l.1.4a1,1,0,0,0,1.3.6L24.3,1.5c.1,0,.2-.1.3-.1h1.7l1.4.3c.1,0,.2,0,.2.1l1.3.6a.1.1,0,0,1,.1.1l.5.3a1,1,0,0,1,.3,1.4.1.1,0,0,1-.1.1L29,5.6a1,1,0,0,1-1.2.3l-1.6-.7c-.1,0-.2-.1-.3-.1L25,5a.9.9,0,0,0-.5.1L15.2,8.5a1,1,0,0,0-.6,1.3l1.5,4.1a1,1,0,0,1-.6,1.3L5.1,19A1.86,1.86,0,0,1,4,18.1Z" transform="translate(0.08 -0.8)"/><path class="a" d="M8.9,23.5a1,1,0,0,0,1.3.6l5.4-2a1,1,0,0,0,.6-1.3l-1-2.8a1,1,0,0,0-1.3-.6l-5.4,2a1,1,0,0,0-.6,1.3Z" transform="translate(0.08 -0.8)"/><path class="b" d="M34,26.82a2.8,2.8,0,0,1,3.59,1.67,2.8,2.8,0,0,1-5.27,1.92A2.8,2.8,0,0,1,34,26.82Zm1.67,4.6A2.1,2.1,0,1,0,33,30.17,2.11,2.11,0,0,0,35.71,31.42Z" transform="translate(0.08 -0.8)"/><path class="b" d="M34.5,28a1.54,1.54,0,0,1,1.93.89.34.34,0,0,1-.18.39.27.27,0,0,1-.39-.18.88.88,0,0,0-1.06-.57.27.27,0,0,1-.38-.18c-.26-.12-.1-.29.08-.35Z" transform="translate(0.08 -0.8)"/><path class="b" d="M36.32,29.65a.29.29,0,0,1,.16.16c0,.09.07.18,0,.22s-.06.13-.16.16-.19.07-.22,0a.29.29,0,0,1-.16-.16c0-.09-.07-.19,0-.22A.31.31,0,0,1,36.32,29.65Z" transform="translate(0.08 -0.8)"/><path class="b" d="M27.57,21.19a5.57,5.57,0,0,1,1.29-.26,7.13,7.13,0,0,1-.66-1.25,5.4,5.4,0,1,1,6.92,3.23,4.81,4.81,0,0,1-2.46.26l.17.47a4.12,4.12,0,0,1-2.45,5.25,4.06,4.06,0,0,1-5.26-2.45,4.12,4.12,0,0,1,2.45-5.25Zm10.12-5a4.7,4.7,0,1,0-2.81,6A4.76,4.76,0,0,0,37.69,16.23Zm-7.55,12a3.36,3.36,0,0,0,2-4.35c-.13-.38-.33-.63-.43-.91a4.43,4.43,0,0,1-2.19-1.33,3.19,3.19,0,0,0-1.64.17,3.37,3.37,0,0,0-2,4.36,3.28,3.28,0,0,0,4.26,2.06Z" transform="translate(0.08 -0.8)"/><path class="b" d="M31.82,14a4.12,4.12,0,0,1,5.26,2.45.32.32,0,0,1-.18.38.27.27,0,0,1-.39-.18,3.38,3.38,0,0,0-4.36-2,.26.26,0,0,1-.38-.18c-.2-.25-.14-.37.05-.44Z" transform="translate(0.08 -0.8)"/><path class="b" d="M28.05,22.38a2.81,2.81,0,0,1,3.59,1.68.31.31,0,0,1-.18.38.26.26,0,0,1-.38-.18A2.06,2.06,0,0,0,28.38,23a.26.26,0,0,1-.38-.18c-.29-.21-.14-.38.05-.45Z" transform="translate(0.08 -0.8)"/><path class="b" d="M37.15,17.21a.29.29,0,0,1,.16.16c0,.09.07.19,0,.22a.29.29,0,0,1-.16.16c-.09,0-.18.07-.22,0s-.13-.06-.16-.16-.07-.18,0-.22C36.71,17.16,37,17.06,37.15,17.21Z" transform="translate(0.08 -0.8)"/><path class="b" d="M31.61,24.9a.29.29,0,0,1,.16.15s.07.19,0,.22a.29.29,0,0,1-.16.16c-.09,0-.18.07-.22,0a.29.29,0,0,1-.16-.16s-.07-.18,0-.22A.29.29,0,0,1,31.61,24.9Z" transform="translate(0.08 -0.8)"/><path class="b" d="M34,11.54a2.86,2.86,0,0,1-3.58-1.68A2.8,2.8,0,1,1,34,11.54ZM32.33,6.93a2.1,2.1,0,1,0,1.44,4A2.06,2.06,0,0,0,35,8.19,2,2,0,0,0,32.33,6.93Z" transform="translate(0.08 -0.8)"/><path class="b" d="M34.33,8.81A.27.27,0,0,1,34,8.63a.9.9,0,0,0-1.06-.58.27.27,0,0,1-.39-.17.34.34,0,0,1,.18-.39,1.56,1.56,0,0,1,1.93.9C34.55,8.52,34.43,8.77,34.33,8.81Z" transform="translate(0.08 -0.8)"/><path class="b" d="M34.37,9.11a.29.29,0,0,1,.16.15c0,.1.07.19,0,.22a.34.34,0,0,1-.16.17c-.09,0-.18.07-.22,0S34,9.56,34,9.47s-.07-.19,0-.22A.31.31,0,0,1,34.37,9.11Z" transform="translate(0.08 -0.8)"/></svg>