<svg xmlns="http://www.w3.org/2000/svg" viewBox="0 0 35.45 33"><defs><style>.a{fill:#1e557d;fill-rule:evenodd;}</style></defs><path class="a" d="M33.52,34s.6-.46,1.29-1.1S36,31.79,36,31.7s-.5-.55-1.09-1.1l-1.09-1-.3-.55-.29-.56-.3-1.1-.3-1.1-.39-.83-.4-.83-7.42-6.89-7.33-6.89.2-.65.2-.64V8.63l-.2-.37-.2-.37-.3-.27a1.68,1.68,0,0,0-.69-.46L15.7,7H14.51l-.49.1-.5.09L11.25,5l-3-2.75-.7-.55L7,1.46,6.4,1.18l-.8-.09L4.81,1l-.59.18A4.92,4.92,0,0,0,3,1.64l-.5.28-.59.55L1.35,3l-.3.55-.3.56-.1.64-.1.64.1.65.1.64.3.55.3.55,2.87,2.67,2.87,2.66-.1.46-.1.46v1.11l.1.27c.1.09.3.46.49.65l.4.36.4.19.39.18h1l.6-.09.49-.09,7.33,6.8,7.33,6.8.79.37L27,31l1.58.36,1.59.37.49.28.5.27,1.09.92a11.26,11.26,0,0,0,1.28.83Zm-.89-2.11-.89-.74L31,30.78l-.79-.27-1.29-.28c-.69-.09-1.48-.37-1.68-.37a9.07,9.07,0,0,0-.89-.36l-.5-.28-7.23-6.71L11.25,15.8l2.37-2.21L16,11.39l7.33,6.8L30.65,25l.3.74.3.64.29,1.2c.2.64.4,1.28.5,1.56s.3.55.49.83a9.73,9.73,0,0,0,1,1.1,3.3,3.3,0,0,1,.6.73,3.38,3.38,0,0,1-.4.46l-.39.37-.7-.73Zm-2.37-2.21.69.09.1-.27.1-.28-.1-.55c-.1-.28-.2-.92-.3-1.38l-.2-.92-.29-.46-.3-.46-3.66-3.4c-2-1.84-3.67-3.4-3.77-3.4s-.79.64-1.68,1.47l-1.58,1.47,1.09,1.1c.59.56,2.27,2.21,3.76,3.59l2.67,2.48.7.28.69.27.69.09a5.7,5.7,0,0,0,1.39.28Zm-.7-1.2a5.1,5.1,0,0,1-.79-.18l-.69-.09-.4-.18-.39-.19L24.12,24.9,20.85,22v-.19l.89-.73.89-.74,3.17,2.95L29,26.19l.3.36.29.37.1.55a3.84,3.84,0,0,1,.2.92l.1.37-.4-.28ZM9.17,15.8a2.24,2.24,0,0,1-.6-.18l-.39-.19L8,15.16l-.2-.37v-.55l.3-.37c.2-.18.59-.64.89-.92l.59-.55v-.09a.63.63,0,0,0-.19-.37.7.7,0,0,0-.3-.28,1.15,1.15,0,0,0-.59.46l-.5.46L5.21,10,2.44,7.43l-.5-.64-.3-.55V4.58L1.94,4l.3-.55.39-.37L3,2.75l.49-.28L4,2.19H5.8l.5.28.49.18L9.66,5.32l2.87,2.57-1.28,1.2L10,10.28v.1a1.57,1.57,0,0,0,.2.46,1.57,1.57,0,0,1,.3.36s.69-.55,1.38-1.19l1.88-1.75.6-.46h.59l.3.19.29.18.2.46.2.46-.1.27-.1.37-3.17,2.94c-1.78,1.66-3.26,2.95-3.36,3,.3,0,.1.09,0,.09Z" transform="translate(-0.55 -1)"/></svg>