<svg xmlns="http://www.w3.org/2000/svg" viewBox="0 0 33.68 33.65"><defs><style>.a,.b,.c,.d{fill:none;stroke:#1e557d;}.a,.b,.d{stroke-linecap:round;stroke-linejoin:round;}.a{stroke-width:1.2px;}.b{stroke-width:1.2px;}.c{stroke-miterlimit:11.38;stroke-width:1.14px;}.d{stroke-width:0.8px;}</style></defs><path class="a" d="M4.06,19.06,6.4,25.47C8.8,32.09,17.25,35,25.17,32.15S37.53,21.52,35.16,15L33.05,9.19c2.1,6.72-2.75,14.28-10.88,16.9-7.86,2.4-15.81-.72-18.11-7Z" transform="translate(-2.73 -0.2)"/><ellipse class="b" cx="18.49" cy="13.84" rx="15.25" ry="12.69" transform="translate(-6.34 6.96) rotate(-20)"/><path class="c" d="M33.43,12C33.24,4.94,26.42-.07,18,.93S3.2,8.49,3.33,15.71a10.69,10.69,0,0,0,2.33,6.41C5.47,15,12,8.45,20.38,7.35,25.69,6.66,30.67,8.48,33.43,12Z" transform="translate(-2.73 -0.2)"/><path class="a" d="M33.43,12C33.24,4.94,26.42-.07,18,.93S3.2,8.49,3.33,15.71a10.69,10.69,0,0,0,2.33,6.41C5.47,15,12,8.45,20.38,7.35,25.69,6.66,30.67,8.48,33.43,12Z" transform="translate(-2.73 -0.2)"/><path class="d" d="M11.42,26.12a17.48,17.48,0,0,0,20.17-7.57c-.07-5.2-5.07-8.94-11.19-8.3s-11.06,5.5-11,10.69A8.93,8.93,0,0,0,11.42,26.12Z" transform="translate(-2.73 -0.2)"/></svg>