<svg xmlns="http://www.w3.org/2000/svg" viewBox="0 0 28 31"><defs><style>.a{fill:#1e557d;fill-rule:evenodd;}</style></defs><path class="a" d="M28.35,32.56H22l-.08-1.13L21.8,30.3V27.51l.09-.52a3.52,3.52,0,0,1,.26-1l.18-.53.26-.61.27-.6.27-.35c.17-.18.44-.53.62-.7l.71-.7.35-.26.62-.26.62-.26.53-.17.53-.09.54-.09.53-.09h1.24l.53.09c.27.09.62.18.89.26s.53.18.7.26.45.27.62.35l.36.26.44.44c.27.26.53.61.71.78a2.88,2.88,0,0,1,.44.7c.09.17.27.61.36.78l.18.44.17.61.18.61v5.57c-.27.09-3.1.09-6.65.17ZM29,31.43h4.61V27.51L33.49,27a4,4,0,0,1-.17-1l-.18-.34-.27-.53-.26-.52-.36-.43-.35-.44-.36-.26-.35-.26L30.66,23,30,22.72l-.45-.08-.44-.09H27.2l-.35.09c-.18.08-.53.17-.71.26a7,7,0,0,1-.8.35l-.35.26-.53.43-.45.53-.26.43-.27.44-.18.43-.17.44-.09.43c-.09.26-.09.7-.18,1.14l-.09.69L22.86,30,23,31.61h.71A34.73,34.73,0,0,1,29,31.43Zm-14.88,1H9.3L9,32.39H8.68l-.35-.17L8,32l-.26-.26-.27-.26-.17-.35-.18-.35v-1l.09-1.05c.09-.61.09-1.48.17-2s.09-1.57.09-2.26l.09-1.4V19.59l-.09-1.48c0-.78-.09-2.18-.17-3s-.18-1.83-.18-2.18L7,12.28v-.7l.09-.35.09-.35.17-.26.18-.26.27-.17L8.06,10l.18-1.22.18-1.22L8.59,7c.09-.34.27-.87.36-1.13a4.05,4.05,0,0,0,.27-.78c.08-.18.26-.44.35-.61l.27-.35.44-.44.44-.43L11.08,3a1.07,1.07,0,0,1,.62-.35c.17-.09.53-.17.71-.26s.62-.18.79-.26L13.56,2H15l.45.09c.26.08.62.17.88.26l.45.17.44.26.44.26.45.44.44.44.35.52.36.52.18.44c.08.26.26.61.35.95s.18.79.27,1.14.17,1.13.26,1.65l.18,1,.35.34.36.35.17.26.09.26v.27c0,.17-.09.78-.09,1.48s-.17,1.74-.17,2.35-.09,1.91-.18,2.78l-.09,1.57v5.57l.09.87c0,.44.09,1.57.18,2.44l.17,1.57-.08.44-.09.43-.18.35-.18.35-.35.26-.36.35-.26.17-.27.18-.35.08-.36.09-4.78-.52Zm.09-1h4.69l.27-.08.27-.09.17-.18.18-.17.09-.35.09-.35v-.69c0-.35-.09-1.05-.09-1.57s-.09-1.57-.18-2.26-.09-2.18-.09-3.23V20.63l-.17-.08c-.09,0-.45-.09-.89-.18s-1-.17-1.33-.26-1.42-.17-2.3-.26-2-.17-2.31-.26a5,5,0,0,1-1.15-.17c-.27-.09-.71-.18-1.06-.27s-.8-.26-1.15-.34l-.54-.18v5.66l-.09,1.13a19.26,19.26,0,0,1-.17,2.27c0,.61-.18,1.39-.18,1.83l-.09.69.27.26.26.27.27.17a1.89,1.89,0,0,1,.44.26l.18.09,4.61.17ZM19.49,19.5h0L19.58,18l.09-1.48.09-1.83c.09-1,.18-2.17.18-2.7v-.87H8v.18c0,.08.09.87.09,1.74s.18,2.09.27,2.79l.09,1.21.09.27.08.26.18.17c.09.09.27.18.36.26a1.86,1.86,0,0,0,.62.26l.44.18.62.08a6.65,6.65,0,0,0,1.33.18c.35,0,1.51.17,2.48.26s2.22.26,2.66.26a9.86,9.86,0,0,0,1.24.18A7.37,7.37,0,0,0,19.49,19.5ZM15.68,10h3.55l-.18-.87c-.09-.52-.18-1-.18-1l-.09-.18H10.46L9.84,8l-.62.09-.09,1a7.14,7.14,0,0,0-.09,1h1.59c.8-.09,3.1-.09,5-.09ZM14.62,6.7h4V6.62l-.18-.53-.18-.52L18,5.13l-.27-.43-.44-.44-.44-.43-.45-.26-.71-.35A2,2,0,0,0,14.89,3L14.35,3h-1L13,3c-.18.09-.54.18-.71.27L12,3.48l-.44.26L11.08,4l-.36.35-.35.35-.27.35c-.09.17-.26.43-.35.61s-.18.43-.27.61a1.46,1.46,0,0,0-.09.43,1.84,1.84,0,0,1,.53.09c.45-.09,2.49-.09,4.7-.09Z" transform="translate(-7 -2)"/></svg>