<svg xmlns="http://www.w3.org/2000/svg" viewBox="0 0 27.98 32.74"><defs><style>.a,.b,.c,.d{fill:none;stroke:#1e557d;}.a,.b{stroke-miterlimit:4.55;}.a,.c{stroke-width:1.2px;}.b{stroke-width:0.8px;}.c{stroke-linecap:round;stroke-linejoin:round;}.d{stroke-miterlimit:11.38;stroke-width:1.14px;}</style></defs><path class="a" d="M19.59,15.34c-8.74,0-13.33,3-13.33,5.87v4.48c1.6-3,7.57-4.59,13.33-4.59S31.33,22.7,33,25.69V21.21C33,18.33,28.45,15.34,19.59,15.34Z" transform="translate(-5.66 -0.66)"/><path class="a" d="M30.55,16.2V10c0-3.2-4.16-8.75-10.88-8.75S8.79,6.81,8.79,10V16.2c2.88-1.5,6.94-2.14,10.88-2.14S27.67,14.7,30.55,16.2ZM14.77,8a4.89,4.89,0,0,1,4.9-4.9A4.82,4.82,0,0,1,24.58,8a5,5,0,0,1-4.91,4.91A4.89,4.89,0,0,1,14.77,8Z" transform="translate(-5.66 -0.66)"/><path class="a" d="M21,8.73a1.39,1.39,0,1,0-1.39,1.39A1.41,1.41,0,0,0,21,8.73Z" transform="translate(-5.66 -0.66)"/><path class="b" d="M19.63,5a3.45,3.45,0,0,1,3.52,3.31,3.29,3.29,0,0,1-.32,1.49,3.17,3.17,0,0,0,.64-1.92,3.6,3.6,0,0,0-3.73-3.52A3.66,3.66,0,0,0,16,7.89a3,3,0,0,0,.64,1.92,3.29,3.29,0,0,1-.32-1.49A3.13,3.13,0,0,1,19.63,5Z" transform="translate(-5.66 -0.66)"/><ellipse class="c" cx="14.06" cy="27.01" rx="12.69" ry="5.12"/><path class="d" d="M17.22,29.49v0Z" transform="translate(-5.66 -0.66)"/><path class="c" d="M17.22,29.49V22.66" transform="translate(-5.66 -0.66)"/><path class="d" d="M22.15,29.49v0Z" transform="translate(-5.66 -0.66)"/><path class="c" d="M22.15,29.49V22.66" transform="translate(-5.66 -0.66)"/><path class="c" d="M19.05,27.12v1.39c-1.28.11-2.13.75-1.71,1.28s1.71.85,3.1.64,2.13-.75,1.7-1.28a2.84,2.84,0,0,0-1.7-.75l-.11-.1V27c0-.22-.32-.43-.64-.43s-.64.32-.64.53Z" transform="translate(-5.66 -0.66)"/></svg>