<svg xmlns="http://www.w3.org/2000/svg" viewBox="0 0 37.02 32.97"><defs><style>.a,.b{fill:none;stroke:#1e557d;stroke-linecap:round;stroke-linejoin:round;}.a{stroke-width:1.37px;}.b{stroke-width:1.37px;}</style></defs><path class="a" d="M9.36,32.13a1.07,1.07,0,0,0,1.37.63L22.92,28.2a1.07,1.07,0,0,0,.63-1.37L22.13,23a1.07,1.07,0,0,0-1.38-.62L8.56,27a1.06,1.06,0,0,0-.62,1.37Z" transform="translate(-1.14 -0.55)"/><path class="b" d="M5.32,18.07,1.89,8.65a1,1,0,0,1,0-.81l.13-.27c.07-.14.23-.31.29-.45l.9-.66.2-.08L7.15,4.7l.1,0,3.88-1.19.1,0,1.38-.28c.1,0,.33,0,.43,0l.45.29a1,1,0,0,1,.69.66l.15.4a1.06,1.06,0,0,0,1.37.63L26.12,1.31l1.45-.07c.1,0,.14.06.24,0l1.35.3c.1,0,.14.07.24,0l1.33.54a.11.11,0,0,0,.14.06l.48.39A.92.92,0,0,1,31.62,4a.11.11,0,0,0-.06.14l-1,1.27a1.12,1.12,0,0,1-1.24.34l-1.6-.66-.28-.13-.95-.11a.69.69,0,0,0-.43,0l-9.32,3.4a1.05,1.05,0,0,0-.64,1.36l1.49,4.11A1.06,1.06,0,0,1,17,15.09L6.52,18.89A1.18,1.18,0,0,1,5.32,18.07Z" transform="translate(-1.14 -0.55)"/><path class="a" d="M10.26,23.44a1.07,1.07,0,0,0,1.37.63L17.13,22a1.08,1.08,0,0,0,.62-1.38l-1-2.79a1.08,1.08,0,0,0-1.38-.63L9.84,19.27a1.08,1.08,0,0,0-.63,1.38Z" transform="translate(-1.14 -0.55)"/><path class="b" d="M33,6.93A6.35,6.35,0,0,1,32.64,11a2.57,2.57,0,1,0,3.48-1l-.27-.13A6.31,6.31,0,0,1,33,6.93Z" transform="translate(-1.14 -0.55)"/></svg>