<svg xmlns="http://www.w3.org/2000/svg" viewBox="0 0 38.3 32.82"><defs><style>.a,.b,.c{fill:none;stroke:#1e557d;stroke-linecap:round;stroke-linejoin:round;}.a{stroke-width:1.37px;}.b{stroke-width:1.37px;}.c{stroke-width:1.37px;}</style></defs><path class="a" d="M13.35,32a1.19,1.19,0,0,0,1.51.71l6.51-2.38a1.18,1.18,0,0,0,.7-1.5L21.42,27a1.2,1.2,0,0,0-1.51-.71L13.4,28.68a1.18,1.18,0,0,0-.7,1.5Z" transform="translate(-0.5 -0.62)"/><path class="a" d="M24,11.58l-.91-2.51a2,2,0,0,0-2.6-1.21L8,12.38,6.11,13.65a.82.82,0,0,0-.43.38L4.05,16.1c-.06.14-.17.18-.13.28L2.44,18.85l-.19.41-1,3.53-.08.71.22.6a1.46,1.46,0,0,0,.45.3l.23,0a1.15,1.15,0,0,0,.58,0l3.92-.75a.87.87,0,0,1,.58,0l.24,0c.23,0,.37.09.61.12l.17.16a1.52,1.52,0,0,1,.45.29l.34.33a1.48,1.48,0,0,1,.46.63l.35.66,0,.1a1.94,1.94,0,0,0,2.29,1l6.51-2.37a2,2,0,0,0,1.3-2.06l-.31-2.73c0-.24,0-.57,0-.81L20,17.89a1.87,1.87,0,0,1,.26-.54L21.15,16l.07-.14,1-1.28c.1,0,.06-.13.16-.17l.7-.59A2,2,0,0,0,24,11.58Z" transform="translate(-0.5 -0.62)"/><path class="a" d="M24,6.61l2,5.61,3.93-2L28.34,5.72Z" transform="translate(-0.5 -0.62)"/><path class="b" d="M24,15.64l1.29,1.12,2.53,1.64,2.8,1.17,2.3.44,2.2.07-1.61,1.86L31.1,21.8,28,21.11,25.31,20l-1.88-.93-1.19-.75Z" transform="translate(-0.5 -0.62)"/><circle class="c" cx="36.34" cy="6.18" r="1.28"/><circle class="c" cx="34.7" cy="1.96" r="1.28"/><circle class="c" cx="31.75" cy="5.48" r="1.28"/></svg>