<svg xmlns="http://www.w3.org/2000/svg" viewBox="0 0 23.01 33.28"><defs><style>.a{fill:#1e557d;stroke:#1e557d;stroke-miterlimit:11.38;stroke-width:0.28px;fill-rule:evenodd;}</style></defs><path class="a" d="M30,27.88V9.63A2.67,2.67,0,0,0,27.94,7V4.21c0-1.2-1-2.3-2.84-3.11A17.84,17.84,0,0,0,18.64,0a17.94,17.94,0,0,0-6.47,1.1C10.31,1.91,9.33,3,9.33,4.21V7A2.68,2.68,0,0,0,7.27,9.63V28c0,1.41,1.28,2.71,3.53,3.62A20.42,20.42,0,0,0,18.64,33a20.33,20.33,0,0,0,7.83-1.4c2.26-1,3.53-2.31,3.53-3.72Zm-1.67,1.41h0l-.09.1a.1.1,0,0,0-.1.1h0a.1.1,0,0,0-.1.1h0a7.76,7.76,0,0,1-1.76,1.1h0c-.1,0-.1,0-.2.1h0c-.1,0-.1.1-.19.1h0a19.25,19.25,0,0,1-6.27,1.21H17.76a22.22,22.22,0,0,1-5.69-.91h0c-.09,0-.09,0-.19-.1h0c-.1,0-.1,0-.2-.1h0c-.1,0-.1,0-.19-.1h0a.31.31,0,0,1-.2-.1h0a.31.31,0,0,1-.2-.1h0c-.09,0-.09,0-.19-.1h0a5.9,5.9,0,0,1-1.76-1.1h0a.1.1,0,0,1-.1-.1H9l-.1-.1h0a.1.1,0,0,0-.1-.1h0a2.35,2.35,0,0,1-.68-1.41h0a1.9,1.9,0,0,1,.68-1.4A5,5,0,0,1,11,25.08a20.65,20.65,0,0,1,7.54-1.31,21.05,21.05,0,0,1,7.54,1.31,6.25,6.25,0,0,1,2.16,1.3,1.9,1.9,0,0,1,.68,1.4h0a1.67,1.67,0,0,1-.59,1.51ZM27,7.62h0c-.09.81-1,1.51-2.25,2.11a15.71,15.71,0,0,1-6.07,1.1,16.13,16.13,0,0,1-6.08-1.1c-1.37-.6-2.15-1.3-2.25-2V5.52a6.86,6.86,0,0,0,2.06,1.4A16.78,16.78,0,0,0,18.64,8a16.82,16.82,0,0,0,6.27-1.1A5.39,5.39,0,0,0,27,5.52v2.1ZM12.56,2a14.65,14.65,0,0,1,5-1h2a14.54,14.54,0,0,1,5,1c1.38.6,2.26,1.4,2.26,2.2s-.88,1.61-2.26,2.21a15.79,15.79,0,0,1-6.07,1,18.4,18.4,0,0,1-6.07-1C11,5.82,10.11,5,10.11,4.21A4,4,0,0,1,12.56,2ZM9.72,8a4.49,4.49,0,0,0,2.55,2.21,16.82,16.82,0,0,0,6.27,1.1,16.82,16.82,0,0,0,6.27-1.1c1.37-.6,2.35-1.4,2.55-2.21a1.57,1.57,0,0,1,1.56,1.61V26.28l-.29-.3a7.06,7.06,0,0,0-2.35-1.51,19.89,19.89,0,0,0-7.74-1.4,19.89,19.89,0,0,0-7.74,1.4A7.06,7.06,0,0,0,8.45,26l-.29.3V9.63A1.7,1.7,0,0,1,9.72,8Z" transform="translate(-7.13 0.14)"/></svg>