<svg xmlns="http://www.w3.org/2000/svg" viewBox="0 0 32.5 31.5"><defs><style>.a,.b{fill:#1e557d;stroke:#1e557d;stroke-miterlimit:10;stroke-width:0.5px;}.a{fill-rule:evenodd;}</style></defs><path class="a" d="M32.24,10.43H31.06V8.67a2.28,2.28,0,0,0-2.28-2.2h-.55V3.56h.36c.92,0,3.29.18,3.84,1.32,0,.09.18.18.36.18h1.82c.19,0,.37-.09.37-.27,0,0,.27-1.14-1.19-2.38C31.88.83,28.68,1,28.5,1H22.94a.38.38,0,0,0-.37.35V3.12a.38.38,0,0,0,.37.35h2.19V6.38H24.4a2.27,2.27,0,0,0-2.28,2.2v1.85H20.57a2.71,2.71,0,0,0-2.83,2.64V29.36A2.66,2.66,0,0,0,20.57,32H32.24A2.64,2.64,0,0,0,35,29.36V13.16A2.72,2.72,0,0,0,32.24,10.43ZM23.3,2.77V1.71h5.29s3-.18,4.75,1.23a2.48,2.48,0,0,1,.91,1.32H33.06c-1-1.67-4.28-1.58-4.47-1.58C28.59,2.77,23.3,2.77,23.3,2.77Zm4.2.79V6.47H25.86V3.56ZM22.85,8.67a1.57,1.57,0,0,1,1.55-1.5h4.38a1.57,1.57,0,0,1,1.55,1.5v1.85H22.85ZM34.34,29.36a2,2,0,0,1-2.1,1.94H20.57a2,2,0,0,1-2-1.94V13.16a2,2,0,0,1,2-1.94H32.24a2,2,0,0,1,2,1.94v16.2Z" transform="translate(-2.75 -0.75)"/><path class="a" d="M10.18,3.32a.64.64,0,1,1-.64-.62A.61.61,0,0,1,10.18,3.32Z" transform="translate(-2.75 -0.75)"/><path class="a" d="M13.22,10.52V8a1.74,1.74,0,0,0-1.1-1.58V2.59A1.68,1.68,0,0,0,10.39,1H8.66A1.63,1.63,0,0,0,6.92,2.59V6.38A1.89,1.89,0,0,0,5.83,7.87v2.56A3.53,3.53,0,0,0,3,13.86v15.5A2.67,2.67,0,0,0,5.83,32h7.48a2.72,2.72,0,0,0,2.83-2.64V14A3.7,3.7,0,0,0,13.22,10.52ZM7.74,2.68a.93.93,0,0,1,1-.88h1.73a1,1,0,0,1,1,.88v3.7H7.74ZM6.74,8a1,1,0,0,1,1-1h3.84a1,1,0,0,1,1,1v2.47H6.74Zm8.58,21.4a2,2,0,0,1-2,1.94H5.83a2,2,0,0,1-2-1.94V14a2.74,2.74,0,0,1,2.83-2.73H12.4A2.73,2.73,0,0,1,15.22,14V29.36Z" transform="translate(-2.75 -0.75)"/><path class="b" d="M34.65,17.09c0,.88-3.46,1.59-7.75,1.59-4.74,0-8.58.7-8.58,1.58" transform="translate(-2.75 -0.75)"/><path class="b" d="M3.4,17c0,.88,2.65,1.59,5.84,1.59,3.56,0,6.39.7,6.39,1.58" transform="translate(-2.75 -0.75)"/></svg>