<svg xmlns="http://www.w3.org/2000/svg" viewBox="0 0 32.9 33"><defs><style>.a{fill:#1e557d;fill-rule:evenodd;}</style></defs><path class="a" d="M34.4,22.23l-4.58-4.58a2.22,2.22,0,0,0-1.1-.5,1.61,1.61,0,0,0-.5-1.1l-.8-.8a2.09,2.09,0,0,0-1.09-.49,1.61,1.61,0,0,0-.5-1.1l-.8-.8a2.22,2.22,0,0,0-1.1-.5,1.6,1.6,0,0,0-.49-1.09l-.8-.8a1.88,1.88,0,0,0-1.1-.5,1.61,1.61,0,0,0-.5-1.1L17.85,5.68a7.91,7.91,0,0,0-5.68-2.29H12l-.5.5-.7-.6a1.09,1.09,0,0,0,0-1.5L9.28.3a1.09,1.09,0,0,0-1.5,0L2.4,5.68a1.09,1.09,0,0,0,0,1.5L3.9,8.67a1.09,1.09,0,0,0,.79.3,1.33,1.33,0,0,0,.8-.3l.8.8-.5.5v.2a8.26,8.26,0,0,0,2.29,5.68L11.27,19a2.22,2.22,0,0,0,1.1.5,1.61,1.61,0,0,0,.5,1.1l.8.89a2.15,2.15,0,0,0,1.09.5,1.61,1.61,0,0,0,.5,1.1l.8.8a1.88,1.88,0,0,0,1.09.5,1.6,1.6,0,0,0,.5,1.09l.8.8a2.22,2.22,0,0,0,1.1.5,1.27,1.27,0,0,0,.5,1.1l4.58,4.58a1.61,1.61,0,0,0,1.1.5,1.17,1.17,0,0,0,1.1-.5l7.67-7.68a1.56,1.56,0,0,0,.5-1.09A2.29,2.29,0,0,0,34.4,22.23ZM3.3,6.48,8.68,1.1l1.5,1.49L4.79,8Zm7-2.29L11,5,7.19,8.87l-.8-.79ZM33.6,23.73,25.93,31.4a.61.61,0,0,1-.8,0l-4.59-4.58a.61.61,0,0,1,0-.8L22,24.53l-.8-.8-1.49,1.49a.6.6,0,0,1-.8,0l-.8-.79a.5.5,0,0,1,0-.8l-.4-.4.4.4,1.5-1.5-.8-.79-1.6,1.49a.59.59,0,0,1-.79,0l-.8-.8a.49.49,0,0,1,0-.79l1.49-1.5-.79-.8-1.5,1.5a.6.6,0,0,1-.8,0l-.79-.8a.6.6,0,0,1,0-.8l1.49-1.49-.8-.8-1.49,1.5c-.1.1-.2.1-.4.1s-.3,0-.4-.1l-3.19-3.2a7.11,7.11,0,0,1-2-4.58l5.78-5.88a7.15,7.15,0,0,1,4.59,2l3.19,3.19a.61.61,0,0,1,0,.8l-1.5,1.49.8.8,1.49-1.49-.4-.4.4.4a.6.6,0,0,1,.8,0l.8.79a.61.61,0,0,1,0,.8l-1.5,1.5.8.79,1.5-1.49a.59.59,0,0,1,.79,0l.8.8a.6.6,0,0,1,0,.79l-1.49,1.5.79.8,1.5-1.5-.4-.4.4.4a.61.61,0,0,1,.8,0l.79.8a.5.5,0,0,1,0,.8L25.73,19l.8.8L28,18.34a.63.63,0,0,1,.8,0l4.58,4.59a.52.52,0,0,1,.2.4c.1.1.1.4,0,.4Z" transform="translate(-2.1 0)"/></svg>