<?xml version="1.0" encoding="utf-8"?>
<!-- Generator: Adobe Illustrator 24.1.2, SVG Export Plug-In . SVG Version: 6.00 Build 0)  -->
<svg version="1.1" id="Layer_5" xmlns="http://www.w3.org/2000/svg" xmlns:xlink="http://www.w3.org/1999/xlink" x="0px" y="0px"
	 viewBox="0 0 512 512" style="enable-background:new 0 0 512 512;" xml:space="preserve">
<style type="text/css">
	.st0{fill:#E2693E;}
</style>
<g>
	<g>
		<path class="st0" d="M256,416c-57.3,0-104-46.7-104-104s46.7-104,104-104s104,46.7,104,104S313.3,416,256,416z"/>
	</g>
</g>
<g>
	<path d="M208,360h16c5.3,0,10-2.6,12.9-6.5c6,4.2,13.3,6.5,21,6.5H296c13.2,0,24-10.8,24-24v-32c0-13.2-10.8-24-24-24h-8v-6.2
		c0-14.2-11.6-25.8-25.8-25.8c-7.4,0-13.7,5-15.5,12.1l-3.5,13.8c-0.9,3.6-4.1,6.1-7.8,6.1H208c-8.8,0-16,7.2-16,16v48
		C192,352.8,199.2,360,208,360L208,360z M240,295.6c9.1-1.7,16.5-8.5,18.8-17.8l3.5-13.8c5.4,0,9.8,4.4,9.8,9.8V296h24
		c4.4,0,8,3.6,8,8v32c0,4.4-3.6,8-8,8H258c-7.4,0-14.1-3.8-17.9-10L240,295.6L240,295.6z M208,296h16v48h-16V296z"/>
	<path d="M480.6,312l19.2-48H384v48h-16v-88c0-30.9-25.1-56-56-56v-24c0-13.2-10.8-24-24-24v-16c13.2,0,24-10.8,24-24v-8h72
		c13.2,0,24-10.8,24-24s-10.8-24-24-24h-73.5c-3.3-9.3-12.1-16-22.5-16h-64c-13.2,0-24,10.8-24,24v48c0,13.2,10.8,24,24,24v16
		c-13.2,0-24,10.8-24,24v24c-30.9,0-56,25.1-56,56v88h-16v-48H12.2l19.2,48l-19.2,48H72v48h72v56c0,22.1,17.9,40,40,40h144
		c22.1,0,40-17.9,40-40v-56h72v-48h59.8L480.6,312z M400,294.1l14.9,17.9H400V294.1z M296,144v24h-16v-32h8
		C292.4,136,296,139.6,296,144z M264,136v32h-16v-32H264z M392,48c0,4.4-3.6,8-8,8h-72V40h72C388.4,40,392,43.6,392,48z M216,80V32
		c0-4.4,3.6-8,8-8h64c4.4,0,8,3.6,8,8v48c0,4.4-3.6,8-8,8h-64C219.6,88,216,84.4,216,80z M240,104h32v16h-32V104z M216,144
		c0-4.4,3.6-8,8-8h8v32h-16V144z M200,184h112c22.1,0,40,17.9,40,40v216H160V224C160,201.9,177.9,184,200,184z M97.1,312l14.9-17.9
		V312H97.1z M35.8,344l12.8-32l-12.8-32h67.1L72,317.1V344H35.8z M88,392v-64h56v64H88z M328,488H184c-13.2,0-24-10.8-24-24v-8h192
		v8C352,477.2,341.2,488,328,488z M368,392v-64h56v64H368z M476.2,344H440v-26.9L409.1,280h67.1l-12.8,32L476.2,344z"/>
</g>
</svg>
