<?xml version="1.0" encoding="utf-8"?>
<!-- Generator: Adobe Illustrator 24.1.2, SVG Export Plug-In . SVG Version: 6.00 Build 0)  -->
<svg version="1.1" id="_x33_0" xmlns="http://www.w3.org/2000/svg" xmlns:xlink="http://www.w3.org/1999/xlink" x="0px" y="0px"
	 viewBox="0 0 512 512" style="enable-background:new 0 0 512 512;" xml:space="preserve">
<style type="text/css">
	.st0{fill:#E2693E;}
</style>
<g>
	<path class="st0" d="M368,192h64v160h-64V192z"/>
	<path class="st0" d="M80,192h64v160H80V192z"/>
	<path class="st0" d="M408,472h-48v-64h48V472z"/>
	<path class="st0" d="M344,472h-48v-64h48V472z"/>
</g>
<path d="M264,456h16v16h-16V456z"/>
<path d="M232,456h16v16h-16V456z"/>
<path d="M504,252.7L442.3,191c-4.5-4.5-10.6-7-17-7H376v-18.7c0-10.7-4.2-20.7-11.7-28.3l-41.8-41.8c3.4-4.2,5.5-9.4,5.5-15.2V32
	c0-13.2-10.8-24-24-24h-96c-13.2,0-24,10.8-24,24v48c0,5.8,2.1,11,5.5,15.2L147.7,137c-7.5,7.6-11.7,17.6-11.7,28.3V184H86.6
	c-6.4,0-12.4,2.5-17,7L8,252.7v182.6l64-64V504h368V371.3l64,64V252.7z M424,200v144h-48V200H424z M360,168v48H152v-48H360z
	 M152,232h208v48H152V232z M152,296h208v48H152V296z M200,80v-8h112v8c0,4.4-3.6,8-8,8h-96C203.6,88,200,84.4,200,80z M264,56V24h16
	v32H264z M248,56h-16V24h16V56z M312,32v24h-16V24h8C308.4,24,312,27.6,312,32z M208,24h8v32h-16V32C200,27.6,203.6,24,208,24z
	 M203.7,103.6c1.4,0.2,2.8,0.4,4.3,0.4h96c1.5,0,2.9-0.2,4.3-0.4l44.7,44.7c1.1,1.1,2.1,2.4,3,3.7H156c0.9-1.3,1.9-2.6,3-3.7
	L203.7,103.6z M136,344H88V200h48V344z M69.7,351L24,396.7V259.3l48-48v137.8C71.2,349.7,70.4,350.3,69.7,351z M88,488V360h336v128
	H88z M488,396.7L442.3,351c-0.7-0.7-1.5-1.3-2.3-1.9V211.3l48,48V396.7z"/>
</svg>
