<?xml version="1.0" encoding="utf-8"?><svg viewBox="0 0 682 682" xmlns="http://www.w3.org/2000/svg" xmlns:xlink="http://www.w3.org/1999/xlink"><style>:root>svg{display:none}:root>svg:target{display:block}</style><svg viewBox="0 0 16 16" id="calc" xmlns="http://www.w3.org/2000/svg"><path fill-rule="evenodd" clip-rule="evenodd" d="M2 0a2 2 0 00-2 2v12a2 2 0 002 2h12a2 2 0 002-2V2a2 2 0 00-2-2H2zm12 2H2v12h12V2z"/><path d="M4 4h2v2H4V4zM7 4h2v2H7V4zM10 4h2v2h-2V4zM4 7h2v2H4V7zM7 7h2v2H7V7zM10 7h2v2h-2V7zM4 10h2v2H4v-2zM7 10h2v2H7v-2zM10 10h2v2h-2v-2z"/></svg><svg viewBox="0 0 512 512" id="calculator" xmlns="http://www.w3.org/2000/svg"><path d="M394 512H118c-25.364 0-46-20.636-46-46V46c0-25.364 20.636-46 46-46h276c25.364 0 46 20.636 46 46v420c0 25.364-20.636 46-46 46zM118 32c-7.72 0-14 6.28-14 14v420c0 7.72 6.28 14 14 14h276c7.72 0 14-6.28 14-14V46c0-7.72-6.28-14-14-14z"/><path d="M332 200H180c-19.851 0-36-16.149-36-36v-40c0-19.851 16.149-36 36-36h152c19.851 0 36 16.149 36 36v40c0 19.851-16.149 36-36 36zm-152-80c-2.206 0-4 1.794-4 4v40c0 2.206 1.794 4 4 4h152c2.206 0 4-1.794 4-4v-40c0-2.206-1.794-4-4-4zM176.02 288c-8.836 0-16.005-7.164-16.005-16s7.159-16 15.995-16h.01c8.837 0 16 7.164 16 16s-7.164 16-16 16zM256.02 288c-8.836 0-16.005-7.164-16.005-16s7.159-16 15.995-16h.01c8.837 0 16 7.164 16 16s-7.164 16-16 16zM336.02 288c-8.836 0-16.005-7.164-16.005-16s7.159-16 15.995-16h.01c8.837 0 16 7.164 16 16s-7.164 16-16 16zM176.02 360c-8.836 0-16.005-7.164-16.005-16s7.159-16 15.995-16h.01c8.837 0 16 7.164 16 16s-7.164 16-16 16zM256.02 360c-8.836 0-16.005-7.164-16.005-16s7.159-16 15.995-16h.01c8.837 0 16 7.164 16 16s-7.164 16-16 16zM336.02 360c-8.836 0-16.005-7.164-16.005-16s7.159-16 15.995-16h.01c8.837 0 16 7.164 16 16s-7.164 16-16 16zM176.02 432c-8.836 0-16.005-7.164-16.005-16s7.159-16 15.995-16h.01c8.837 0 16 7.164 16 16s-7.164 16-16 16zM256.02 432c-8.836 0-16.005-7.164-16.005-16s7.159-16 15.995-16h.01c8.837 0 16 7.164 16 16s-7.164 16-16 16zM336.02 432c-8.836 0-16.005-7.164-16.005-16s7.159-16 15.995-16h.01c8.837 0 16 7.164 16 16s-7.164 16-16 16z"/></svg><svg preserveAspectRatio="xMidYMid" viewBox="0 0 11 14" id="call" xmlns="http://www.w3.org/2000/svg"><defs><style>.ccls-2{fill:#232e43}</style></defs><path d="M11.012 11.977c.013-.062.027-.123.014-.191-.02-.198-.41-.487-.566-.614-.441-.394-.892-.78-1.322-1.18-.198-.192-.422-.519-.695-.579-.539-.12-1.682 1.296-2.159 1.189-.239-.053-.498-.341-.683-.511-1.408-1.246-2.273-2.6-2.807-4.397-.076-.239-.228-.595-.175-.833.107-.474 1.881-.9 2.001-1.436.061-.273-.141-.613-.231-.873-.181-.557-.341-1.127-.511-1.691C3.829.666 3.731.192 3.559.09 3.503.049 3.442.036 3.38.022c-.318-.071-.968-.068-1.289-.001-.474.088-.867.517-1.177.863-.399.456-.685.946-.817 1.534-.183.818-.013 1.63.094 2.438.074.579.196 1.151.388 1.701.593 1.699 1.999 3.903 3.294 5.16.419.407.887.76 1.383 1.073.689.439 1.357.938 2.178 1.121.592.132 1.159.083 1.743-.083.447-.131 1.005-.302 1.287-.691.197-.26.477-.844.548-1.16z" id="cpath-1" class="ccls-2" fill-rule="evenodd"/></svg><svg viewBox="0 0 47 55" id="check" xmlns="http://www.w3.org/2000/svg"><defs><style>.doscls-1{fill:#222;fill-rule:evenodd}</style></defs><path class="doscls-1" d="M34.5 55A12.5 12.5 0 1147 42.5 12.5 12.5 0 0134.5 55zm0-23A10.5 10.5 0 1045 42.5 10.5 10.5 0 0034.5 32zm-.743 14.647c-.018.021-.024.047-.044.066a1.026 1.026 0 01-1.427 0c-.02-.02-.026-.046-.044-.066l-3.956-3.956a.993.993 0 011.4-1.4L33 44.6l6.309-6.309a.993.993 0 011.4 1.4zM41 28a1 1 0 01-1-1V5h-7.141A3.991 3.991 0 0129 8H13a3.991 3.991 0 01-3.859-3H2v43h17a1 1 0 010 2H2a2 2 0 01-2-2V5a2 2 0 012-2h7.141A3.991 3.991 0 0113 0h16a3.991 3.991 0 013.859 3H40a2 2 0 012 2v22a1 1 0 01-1 1zM29 2H13a2 2 0 000 4h16a2 2 0 000-4zm2 24H11a1 1 0 010-2h20a1 1 0 010 2zm0-10H11a1 1 0 010-2h20a1 1 0 010 2zm0 5H11a1 1 0 010-2h20a1 1 0 010 2zm-21 9a1 1 0 011-1h10a1 1 0 010 2H11a1 1 0 01-1-1z"/></svg><svg viewBox="0 0 24 24" id="circle-button" xmlns="http://www.w3.org/2000/svg"><path d="M12 24C5.383 24 0 18.617 0 12S5.383 0 12 0s12 5.383 12 12-5.383 12-12 12zm0-23C5.935 1 1 5.935 1 12s4.935 11 11 11 11-4.935 11-11S18.065 1 12 1z"/><path d="M12 19a.5.5 0 01-.5-.5v-13a.5.5 0 011 0v13a.5.5 0 01-.5.5z"/><path d="M12 19a.502.502 0 01-.354-.146l-4-4a.5.5 0 01.707-.707L12 17.793l3.646-3.646a.5.5 0 01.707.707l-4 4A.498.498 0 0112 19z"/></svg><svg viewBox="0 0 512 512" id="delivery-truck" xmlns="http://www.w3.org/2000/svg"><path d="M481.542 155.422c-3.359-25.733-25.408-45.672-52.042-45.672H287v-52.5a7.5 7.5 0 00-7.5-7.5H7.5a7.5 7.5 0 00-7.5 7.5v330a7.5 7.5 0 007.5 7.5h22.876c3.775 37.846 35.8 67.5 74.624 67.5s70.849-29.654 74.624-67.5h122.752c3.775 37.846 35.8 67.5 74.624 67.5s70.849-29.654 74.624-67.5H504.5a7.5 7.5 0 007.5-7.5v-195c0-18.27-13.136-33.522-30.458-36.828zM429.5 124.75c18.11 0 33.261 12.904 36.745 30H339.5c-4.143 0-7.5 3.358-7.5 7.5s3.357 7.5 7.5 7.5h135c9.777 0 18.114 6.271 21.21 15H474.5a7.5 7.5 0 00-7.5 7.5v97.5a7.5 7.5 0 007.5 7.5H497v52.5h-55.09c-12.988-22.395-37.21-37.5-64.91-37.5-38.824 0-70.849 29.654-74.624 67.5H287v-210h22.5c4.143 0 7.5-3.358 7.5-7.5s-3.357-7.5-7.5-7.5H287v-30zm67.5 75v82.5h-15v-82.5zm-225 150H169.91c-12.989-22.395-37.211-37.5-64.91-37.5s-51.921 15.105-64.91 37.5H15v-52.5h257zm-95.453 15H272v15h-92.376a74.476 74.476 0 00-3.077-15zM272 64.75v217.5H15V64.75zm-257 300h18.453a74.476 74.476 0 00-3.077 15H15zm90 82.5c-33.084 0-60-26.916-60-60s26.916-60 60-60 60 26.916 60 60-26.916 60-60 60zm272 0c-33.084 0-60-26.916-60-60s26.916-60 60-60 60 26.916 60 60-26.916 60-60 60zm74.624-67.5a74.476 74.476 0 00-3.077-15H497v15z"/><path d="M369.5 297.25h75a7.5 7.5 0 007.5-7.5v-97.5a7.5 7.5 0 00-7.5-7.5h-105a7.5 7.5 0 00-7.5 7.5v67.5c0 20.678 16.822 37.5 37.5 37.5zm-22.5-97.5h90v82.5h-67.5c-12.406 0-22.5-10.093-22.5-22.5zM377 342.25c-24.813 0-45 20.187-45 45s20.187 45 45 45 45-20.187 45-45-20.187-45-45-45zm0 75c-16.542 0-30-13.458-30-30s13.458-30 30-30 30 13.458 30 30-13.458 30-30 30zM105 342.25c-24.813 0-45 20.187-45 45s20.187 45 45 45 45-20.187 45-45-20.187-45-45-45zm0 75c-16.542 0-30-13.458-30-30s13.458-30 30-30 30 13.458 30 30-13.458 30-30 30z"/></svg><svg viewBox="0 0 512 512" id="discount" xmlns="http://www.w3.org/2000/svg"><path d="M489.996 202.88c-5.779-5.779-10.162-12.837-12.678-20.409a232.367 232.367 0 00-12.781-30.849c-3.608-7.197-5.516-15.32-5.516-23.522 0-41.424-33.7-75.124-75.154-75.124-8.172 0-16.295-1.908-23.491-5.515a232.214 232.214 0 00-30.85-12.781c-7.572-2.516-14.63-6.898-20.408-12.678C294.932 7.815 276.066 0 256 0c-20.066 0-38.932 7.815-53.121 22.005-5.778 5.778-12.835 10.161-20.408 12.676a232.597 232.597 0 00-30.849 12.78c-7.196 3.608-15.32 5.516-23.521 5.516-41.423 0-75.124 33.7-75.124 75.154 0 8.172-1.907 16.296-5.516 23.491a232.367 232.367 0 00-12.781 30.849c-2.514 7.572-6.899 14.63-12.678 20.408-29.29 29.291-29.29 76.95 0 106.24 5.779 5.779 10.162 12.837 12.678 20.409a232.367 232.367 0 0012.781 30.849c3.608 7.196 5.516 15.32 5.516 23.522 0 41.424 33.701 75.124 75.154 75.124 8.172 0 16.295 1.908 23.491 5.515a232.214 232.214 0 0030.85 12.781c7.572 2.516 14.63 6.898 20.408 12.678C217.068 504.185 235.934 512 256 512c20.066 0 38.932-7.815 53.12-22.004 5.779-5.779 12.836-10.162 20.409-12.678a232.597 232.597 0 0030.849-12.78c7.196-3.609 15.32-5.516 23.521-5.516 41.423 0 75.124-33.7 75.124-75.124v-.03c0-8.172 1.908-16.295 5.516-23.491a232.367 232.367 0 0012.781-30.849c2.514-7.572 6.899-14.63 12.678-20.408 29.289-29.291 29.289-76.949-.002-106.24zm-15.74 90.5c-8.215 8.215-14.462 18.289-18.062 29.133a210.283 210.283 0 01-11.553 27.886c-5.153 10.277-7.878 21.851-7.878 33.469v.03c0 29.148-23.715 52.863-52.893 52.863-11.618 0-23.193 2.724-33.47 7.878a210.329 210.329 0 01-27.886 11.553c-10.843 3.601-20.917 9.847-29.134 18.063-9.983 9.985-23.258 15.484-37.378 15.484s-27.395-5.498-37.379-15.484c-8.215-8.215-18.291-14.461-29.133-18.062a210.085 210.085 0 01-27.887-11.555c-10.277-5.153-21.851-7.877-33.499-7.877-29.148 0-52.863-23.715-52.863-52.893 0-11.619-2.724-23.194-7.878-33.469a209.96 209.96 0 01-11.553-27.886c-3.601-10.843-9.846-20.917-18.063-29.134-20.611-20.611-20.611-54.147 0-74.76 8.215-8.215 14.462-18.29 18.063-29.133A210.283 210.283 0 0167.363 161.6c5.153-10.276 7.878-21.85 7.878-33.5 0-29.148 23.714-52.863 52.893-52.863 11.618 0 23.192-2.724 33.47-7.878a210.329 210.329 0 0127.886-11.553c10.843-3.601 20.917-9.847 29.134-18.062 9.983-9.984 23.258-15.482 37.378-15.482s27.395 5.498 37.379 15.484c8.215 8.215 18.29 14.461 29.133 18.062a210.085 210.085 0 0127.887 11.555c10.277 5.153 21.851 7.877 33.499 7.877 29.148 0 52.863 23.715 52.863 52.893 0 11.618 2.725 23.193 7.878 33.469a210.093 210.093 0 0111.553 27.886c3.601 10.843 9.846 20.917 18.062 29.134 20.611 20.61 20.611 54.146 0 74.758z"/><path d="M352.914 159.086c-4.346-4.346-11.394-4.346-15.741 0L232.389 263.87c-4.346 4.346-4.346 11.394 0 15.742 2.174 2.173 5.022 3.26 7.87 3.26s5.698-1.087 7.87-3.26l104.784-104.784c4.347-4.346 4.347-11.394.001-15.742zM227.562 293.174a11.337 11.337 0 00-.634-2.081 11.723 11.723 0 00-1.024-1.924 11.971 11.971 0 00-1.38-1.693 11.695 11.695 0 00-1.692-1.379 11.783 11.783 0 00-1.926-1.024 11.214 11.214 0 00-2.081-.634 11.031 11.031 0 00-4.352 0 11.267 11.267 0 00-5.699 3.037 11.204 11.204 0 00-1.38 1.693 11.237 11.237 0 00-1.658 4.005 11.066 11.066 0 00-.223 2.182c0 .723.078 1.448.223 2.17.145.713.356 1.415.634 2.081.278.667.623 1.313 1.024 1.926.401.601.868 1.18 1.38 1.692.512.512 1.091.979 1.692 1.38a11.29 11.29 0 006.189 1.879c.723 0 1.447-.077 2.17-.221a11.344 11.344 0 002.081-.634 11.902 11.902 0 001.926-1.024 11.769 11.769 0 001.692-1.38 11.85 11.85 0 001.38-1.692c.401-.613.746-1.259 1.024-1.926s.49-1.368.634-2.081c.145-.722.211-1.447.211-2.17 0-.733-.066-1.458-.211-2.182zM200.907 311.092c-4.346-4.345-11.394-4.345-15.741 0l-26.08 26.081c-4.346 4.346-4.346 11.394 0 15.742a11.098 11.098 0 007.87 3.26c2.848 0 5.698-1.087 7.87-3.26l26.08-26.081c4.347-4.346 4.347-11.394.001-15.742zM200.907 156.386c-24.549 0-44.522 19.972-44.522 44.522 0 24.549 19.972 44.522 44.522 44.522 24.549 0 44.522-19.972 44.522-44.522-.001-24.55-19.973-44.522-44.522-44.522zm0 66.783c-12.275 0-22.261-9.986-22.261-22.261 0-12.275 9.987-22.261 22.261-22.261 12.275 0 22.261 9.986 22.261 22.261-.001 12.274-9.987 22.261-22.261 22.261zM311.093 266.571c-24.549 0-44.522 19.972-44.522 44.522s19.972 44.522 44.522 44.522c24.549 0 44.522-19.972 44.522-44.522 0-24.55-19.972-44.522-44.522-44.522zm0 66.782c-12.275 0-22.261-9.986-22.261-22.261s9.986-22.261 22.261-22.261 22.261 9.986 22.261 22.261-9.987 22.261-22.261 22.261z"/></svg><svg viewBox="0 0 512 512" id="documents" xmlns="http://www.w3.org/2000/svg"><path d="M446.605 124.392L326.608 4.395A15.02 15.02 0 00316 0H106C81.187 0 61 20.187 61 45v422c0 24.813 20.187 45 45 45h300c24.813 0 45-20.187 45-45V135c0-4.09-1.717-7.931-4.395-10.608zM331 51.213L399.787 120H346c-8.271 0-15-6.729-15-15zM406 482H106c-8.271 0-15-6.729-15-15V45c0-8.271 6.729-15 15-15h195v75c0 24.813 20.187 45 45 45h75v317c0 8.271-6.729 15-15 15z"/><path d="M346 212H166c-8.284 0-15 6.716-15 15s6.716 15 15 15h180c8.284 0 15-6.716 15-15s-6.716-15-15-15zM346 272H166c-8.284 0-15 6.716-15 15s6.716 15 15 15h180c8.284 0 15-6.716 15-15s-6.716-15-15-15zM346 332H166c-8.284 0-15 6.716-15 15s6.716 15 15 15h180c8.284 0 15-6.716 15-15s-6.716-15-15-15zM286 392H166c-8.284 0-15 6.716-15 15s6.716 15 15 15h120c8.284 0 15-6.716 15-15s-6.716-15-15-15z"/></svg><svg viewBox="0 0 512 512" id="email" xmlns="http://www.w3.org/2000/svg"><path d="M467 61H45C20.218 61 0 81.196 0 106v300c0 24.72 20.128 45 45 45h422c24.72 0 45-20.128 45-45V106c0-24.72-20.128-45-45-45zm-6.214 30L256.954 294.833 51.359 91h409.427zM30 399.788V112.069l144.479 143.24L30 399.788zM51.213 421l144.57-144.57 50.657 50.222c5.864 5.814 15.327 5.795 21.167-.046L317 277.213 460.787 421H51.213zM482 399.787L338.213 256 482 112.212v287.575z"/></svg><svg viewBox="0 0 502.664 502.664" id="icon" xmlns="http://www.w3.org/2000/svg"><path d="M153.821 358.226L0 274.337v-46.463l153.821-83.414v54.574L46.636 250.523l107.185 53.431v54.272zM180.094 387.584L282.103 115.08h32.227L212.084 387.584h-31.99zM348.843 358.226v-54.272l107.164-52.999-107.164-52.59v-53.927l153.821 83.522v46.183l-153.821 84.083z"/></svg><svg viewBox="-13 0 512 512" id="manufacturing" xmlns="http://www.w3.org/2000/svg"><path d="M183.344 163.352a102.428 102.428 0 00-46.809 84.113 8.533 8.533 0 1017.067 0 85.138 85.138 0 0138.539-69.492 8.538 8.538 0 002.804-11.649c-2.406-3.992-7.574-5.32-11.601-2.972zm0 0"/><path d="M443.734 213.332c-20.265.027-37.726 14.285-41.804 34.133H297.805a42.51 42.51 0 00-14.371-23.867l28.832-52.93h29.93c4.382 21.46 24.3 36.117 46.093 33.914 21.793-2.2 38.379-20.547 38.379-42.45 0-21.902-16.586-40.25-38.379-42.448-21.793-2.204-41.71 12.457-46.094 33.918h-26.46V97.398l29.132-29.132h39.996c4.38 21.46 24.301 36.12 46.094 33.918 21.793-2.2 38.379-20.547 38.379-42.45 0-21.906-16.586-40.25-38.379-42.453-21.793-2.199-41.715 12.457-46.094 33.918h-39.996a17.17 17.17 0 00-12.066 5l-7.317 7.32a190.701 190.701 0 00-18.285-5.742v-40.71C307.187 7.644 299.555.011 290.133 0h-68.266c-9.422.012-17.055 7.645-17.066 17.066V57.77a202.012 202.012 0 00-52.817 21.812L123.36 50.953a16.901 16.901 0 00-12.172-5.129h-.015a16.762 16.762 0 00-12.074 5.059L50.957 99.016a17.003 17.003 0 00-5.133 12.117 17.007 17.007 0 005.059 12.152l28.691 28.695a202.37 202.37 0 00-21.816 52.82H17.066C7.645 204.813.012 212.446 0 221.868v68.266c.012 9.422 7.645 17.055 17.066 17.066h40.692a202.37 202.37 0 0021.816 52.82l-28.617 28.618a16.992 16.992 0 00-.074 24.266l48.14 48.136a16.842 16.842 0 0012.153 5.137h.015c4.551.02 8.91-1.805 12.094-5.059l28.7-28.695a202.012 202.012 0 0052.816 21.812v40.7c.011 9.421 7.644 17.054 17.066 17.066h68.266c9.422-.012 17.054-7.645 17.066-17.066v-40.711a190.701 190.701 0 0018.285-5.743l7.317 7.32a17.17 17.17 0 0012.066 5h39.996c4.38 21.462 24.301 36.118 46.094 33.919 21.793-2.203 38.379-20.547 38.379-42.453 0-21.903-16.586-40.25-38.379-42.45-21.793-2.203-41.715 12.457-46.094 33.918h-39.996l-29.133-29.132v-56.204h26.461c4.383 21.461 24.301 36.122 46.094 33.918 21.793-2.199 38.379-20.546 38.379-42.449 0-21.902-16.586-40.25-38.379-42.449-21.793-2.203-41.71 12.453-46.094 33.914h-29.93l-28.831-52.93a42.51 42.51 0 0014.37-23.867H401.93c4.492 21.996 25.261 36.754 47.515 33.746 22.25-3.004 38.368-22.742 36.86-45.144-1.508-22.403-20.117-39.805-42.57-39.805zm-17.066-179.2c14.137 0 25.598 11.462 25.598 25.602 0 14.137-11.461 25.598-25.598 25.598-14.14 0-25.602-11.46-25.602-25.598.016-14.132 11.47-25.586 25.602-25.601zm0 392.536c14.137 0 25.598 11.46 25.598 25.598 0 14.14-11.461 25.601-25.598 25.601-14.14 0-25.602-11.46-25.602-25.601.016-14.133 11.47-25.582 25.602-25.598zM256 281.602c-14.137 0-25.602-11.465-25.602-25.602s11.465-25.602 25.602-25.602 25.602 11.465 25.602 25.602c-.016 14.133-11.47 25.586-25.602 25.602zm128-145.067c14.137 0 25.602 11.461 25.602 25.598 0 14.14-11.465 25.601-25.602 25.601s-25.602-11.46-25.602-25.601c.016-14.133 11.47-25.582 25.602-25.598zM296.816 439.16a8.526 8.526 0 00-6.683 8.328v47.446h-68.266v-47.446a8.532 8.532 0 00-6.707-8.336 185.248 185.248 0 01-59.887-24.722 8.55 8.55 0 00-10.605 1.172l-33.5 33.449-48.215-48.266 33.45-33.45a8.53 8.53 0 001.167-10.608 185.48 185.48 0 01-24.726-59.883 8.534 8.534 0 00-8.332-6.711H17.066v-68.266h47.446a8.53 8.53 0 008.332-6.707 185.465 185.465 0 0124.726-59.887 8.523 8.523 0 00-1.168-10.605l-33.449-33.504L111.22 62.95l33.449 33.45a8.53 8.53 0 0010.61 1.171 185.168 185.168 0 0159.882-24.718 8.538 8.538 0 006.707-8.34V17.066h68.266v47.446c0 4 2.777 7.465 6.683 8.328a192.643 192.643 0 0115.258 4.086l-8.406 8.406a16.945 16.945 0 00-5 12.066v11.059c-62.75-18.164-130.121 5.344-167.945 58.606-37.828 53.257-37.828 124.617 0 177.875 37.824 53.261 105.195 76.769 167.945 58.605v11.059a16.961 16.961 0 005 12.066l8.406 8.402a189.334 189.334 0 01-15.258 4.09zM384 324.266c14.137 0 25.602 11.46 25.602 25.601 0 14.137-11.465 25.598-25.602 25.598s-25.602-11.461-25.602-25.598c.016-14.133 11.47-25.586 25.602-25.601zm-85.332 27.773v33.555c-56.336 18.68-118.29-1.172-153.27-49.121-34.984-47.946-34.984-113 0-160.946 34.98-47.949 96.934-67.8 153.27-49.12v33.554l-30.203 55.445A42.245 42.245 0 00256 213.332c-23.563 0-42.668 19.106-42.668 42.668s19.105 42.668 42.668 42.668a42.245 42.245 0 0012.465-2.074zm145.066-70.437c-14.14 0-25.601-11.465-25.601-25.602s11.46-25.602 25.601-25.602c14.137 0 25.598 11.465 25.598 25.602-.016 14.133-11.465 25.586-25.598 25.602zm0 0"/></svg><svg viewBox="0 0 473.806 473.806" id="phone-call3" xmlns="http://www.w3.org/2000/svg"><path d="M374.456 293.506c-9.7-10.1-21.4-15.5-33.8-15.5-12.3 0-24.1 5.3-34.2 15.4l-31.6 31.5c-2.6-1.4-5.2-2.7-7.7-4-3.6-1.8-7-3.5-9.9-5.3-29.6-18.8-56.5-43.3-82.3-75-12.5-15.8-20.9-29.1-27-42.6 8.2-7.5 15.8-15.3 23.2-22.8 2.8-2.8 5.6-5.7 8.4-8.5 21-21 21-48.2 0-69.2l-27.3-27.3c-3.1-3.1-6.3-6.3-9.3-9.5-6-6.2-12.3-12.6-18.8-18.6-9.7-9.6-21.3-14.7-33.5-14.7s-24 5.1-34 14.7l-.2.2-34 34.3c-12.8 12.8-20.1 28.4-21.7 46.5-2.4 29.2 6.2 56.4 12.8 74.2 16.2 43.7 40.4 84.2 76.5 127.6 43.8 52.3 96.5 93.6 156.7 122.7 23 10.9 53.7 23.8 88 26 2.1.1 4.3.2 6.3.2 23.1 0 42.5-8.3 57.7-24.8.1-.2.3-.3.4-.5 5.2-6.3 11.2-12 17.5-18.1 4.3-4.1 8.7-8.4 13-12.9 9.9-10.3 15.1-22.3 15.1-34.6 0-12.4-5.3-24.3-15.4-34.3l-54.9-55.1zm35.8 105.3c-.1 0-.1.1 0 0-3.9 4.2-7.9 8-12.2 12.2-6.5 6.2-13.1 12.7-19.3 20-10.1 10.8-22 15.9-37.6 15.9-1.5 0-3.1 0-4.6-.1-29.7-1.9-57.3-13.5-78-23.4-56.6-27.4-106.3-66.3-147.6-115.6-34.1-41.1-56.9-79.1-72-119.9-9.3-24.9-12.7-44.3-11.2-62.6 1-11.7 5.5-21.4 13.8-29.7l34.1-34.1c4.9-4.6 10.1-7.1 15.2-7.1 6.3 0 11.4 3.8 14.6 7l.3.3c6.1 5.7 11.9 11.6 18 17.9 3.1 3.2 6.3 6.4 9.5 9.7l27.3 27.3c10.6 10.6 10.6 20.4 0 31-2.9 2.9-5.7 5.8-8.6 8.6-8.4 8.6-16.4 16.6-25.1 24.4-.2.2-.4.3-.5.5-8.6 8.6-7 17-5.2 22.7l.3.9c7.1 17.2 17.1 33.4 32.3 52.7l.1.1c27.6 34 56.7 60.5 88.8 80.8 4.1 2.6 8.3 4.7 12.3 6.7 3.6 1.8 7 3.5 9.9 5.3.4.2.8.5 1.2.7 3.4 1.7 6.6 2.5 9.9 2.5 8.3 0 13.5-5.2 15.2-6.9l34.2-34.2c3.4-3.4 8.8-7.5 15.1-7.5 6.2 0 11.3 3.9 14.4 7.3l.2.2 55.1 55.1c10.3 10.2 10.3 20.7.1 31.3zM256.056 112.706c26.2 4.4 50 16.8 69 35.8s31.3 42.8 35.8 69c1.1 6.6 6.8 11.2 13.3 11.2.8 0 1.5-.1 2.3-.2 7.4-1.2 12.3-8.2 11.1-15.6-5.4-31.7-20.4-60.6-43.3-83.5s-51.8-37.9-83.5-43.3c-7.4-1.2-14.3 3.7-15.6 11s3.5 14.4 10.9 15.6zM473.256 209.006c-8.9-52.2-33.5-99.7-71.3-137.5s-85.3-62.4-137.5-71.3c-7.3-1.3-14.2 3.7-15.5 11-1.2 7.4 3.7 14.3 11.1 15.6 46.6 7.9 89.1 30 122.9 63.7 33.8 33.8 55.8 76.3 63.7 122.9 1.1 6.6 6.8 11.2 13.3 11.2.8 0 1.5-.1 2.3-.2 7.3-1.1 12.3-8.1 11-15.4z"/></svg><svg viewBox="0 0 512 512" id="piggy-bank" xmlns="http://www.w3.org/2000/svg"><path d="M422.503 270.613a7.451 7.451 0 00-7.451 7.451c0 5.217-4.244 9.461-9.461 9.461-5.216 0-9.461-4.244-9.461-9.461a7.451 7.451 0 00-14.902 0c0 13.434 10.93 24.363 24.363 24.363s24.363-10.93 24.363-24.363a7.45 7.45 0 00-7.451-7.451z"/><path d="M492.444 271.83l-20.972-6.718c-2.686-.861-4.803-3.005-5.662-5.736-4.42-14.053-11.09-27.246-19.825-39.214-3.981-5.455-8.408-10.664-13.244-15.623 3.094-13.573 4.776-28.934 4.558-42.205-.312-18.985-4.106-30.12-11.598-34.044-4.035-2.116-16.315-8.544-82.782 21.882a24.184 24.184 0 00-4.405 2.623 289.039 289.039 0 00-13.669-3.318c-.555-.121-1.127-.228-1.686-.346a101.505 101.505 0 009.122-37.737 7.45 7.45 0 00-7.111-7.777c-4.101-.204-7.594 2.998-7.777 7.11-.971 21.691-9.969 42.1-25.335 57.467a86.266 86.266 0 01-31.388 20.05 216.081 216.081 0 00-59.976 0 86.257 86.257 0 01-31.388-20.05c-16.394-16.394-25.423-38.191-25.423-61.376 0-23.186 9.029-44.982 25.423-61.376 16.394-16.395 38.192-25.424 61.376-25.424 23.184 0 44.982 9.029 61.376 25.424a86.76 86.76 0 0116.181 22.343 7.45 7.45 0 0010.007 3.304 7.45 7.45 0 003.304-10.006c-4.863-9.659-11.24-18.466-18.953-26.18-19.209-19.209-44.749-29.788-71.914-29.788s-52.705 10.579-71.914 29.788c-19.209 19.21-29.788 44.749-29.788 71.914s10.579 52.705 29.788 71.914a101.645 101.645 0 0017.945 14.298l.006-.001a210.24 210.24 0 00-13.778 4.076 7.452 7.452 0 004.725 14.135c40.636-13.585 85.396-13.585 126.032 0a7.442 7.442 0 009.429-4.705 7.452 7.452 0 00-4.704-9.43 209.627 209.627 0 00-13.778-4.076l.006.001a101.609 101.609 0 0017.945-14.298 102.041 102.041 0 0012.986-15.944c2.054.399 4.093.817 6.102 1.253 2.676.581 5.34 1.205 7.98 1.86-.083.324-.168.647-.237.976-3.634 17.245-3.398 32.497.701 45.33 3.684 11.535 10.333 20.88 19.76 27.777 11.111 8.128 24.525 11.639 36.676 11.639 9.145 0 17.576-1.99 23.768-5.497 7.004-3.967 12.872-12.326 17.517-24.876a126.082 126.082 0 016.1 7.701c7.777 10.654 13.714 22.396 17.646 34.898 2.309 7.343 8.041 13.121 15.332 15.458l20.972 6.718a13.195 13.195 0 019.2 12.606v34.775a13.195 13.195 0 01-9.2 12.606l-33.789 10.823c-5.406 1.733-9.981 5.448-12.882 10.462-13.275 22.942-34.146 41.927-62.037 56.428a11.675 11.675 0 00-6.126 8.23l-10.822 57.303a3.35 3.35 0 01-3.289 2.724h-35.187a3.35 3.35 0 01-3.289-2.724l-5.994-31.669a11.708 11.708 0 00-13.314-9.417c-15.157 2.292-30.775 3.453-46.418 3.453-11.638 0-23.127-.649-34.15-1.93-6.095-.701-11.773 3.454-12.912 9.472l-5.696 30.091a3.35 3.35 0 01-3.289 2.724h-35.187a3.356 3.356 0 01-3.293-2.748l-10.42-54.122a11.697 11.697 0 00-6.012-8.135C96.25 401.595 71.12 359.191 71.12 304.351c0-27.708 6.062-52.209 18.017-72.825 11.156-19.239 27.45-35.146 48.429-47.281a7.453 7.453 0 002.719-10.182 7.454 7.454 0 00-10.181-2.719C89.425 194.876 64.89 231.18 58.135 277.29v-.001c-.717-.065-1.435-.127-2.15-.201.13-4.975-.77-9.995-2.73-14.867-4.323-10.746-13.203-18.502-22.624-19.759-7.424-.994-14.489 2.158-19.392 8.636-7.109 9.394-5.95 16.828-3.727 21.41 3.753 7.733 13.4 13.203 29.409 16.642a29.24 29.24 0 01-1.454 1.986c-9.459 11.863-20.603 14.486-27.839 14.733-4.236.143-7.628 3.544-7.628 7.783v.036c0 4.181 3.299 7.591 7.476 7.782.535.025 1.094.038 1.676.038 9.156 0 23.851-3.377 37.969-21.08 2.229-2.794 4.045-5.742 5.441-8.788 1.406.159 2.757.295 4.051.415l.001-.008a195.776 195.776 0 00-.395 12.304c0 31.028 7.397 58.693 21.984 82.23 13.45 21.7 32.707 39.468 57.255 52.83l10.13 52.616c1.629 8.608 9.17 14.856 17.931 14.856h35.187c8.761 0 16.302-6.248 17.931-14.856l5.15-27.208c10.696 1.133 21.77 1.707 32.965 1.707 15.36 0 30.702-1.07 45.654-3.182l5.429 28.685c1.63 8.608 9.171 14.855 17.931 14.855h35.187c8.761 0 16.302-6.248 17.932-14.859l10.537-55.791c29.768-15.741 52.206-36.419 66.704-61.475 1.045-1.806 2.654-3.131 4.53-3.732l33.788-10.823A28.055 28.055 0 00512 333.403v-34.775a28.05 28.05 0 00-19.556-26.798zm-71.166-88.557c-2.868 24.526-10.561 45.506-18.291 49.884-8.786 4.977-29.071 5.938-44.301-5.203-15.248-11.154-20.323-31.212-14.678-58.006v-.001c.567-2.691 2.479-5.019 5.114-6.225 37.304-17.076 58.811-22.661 66.801-22.661 1.206 0 2.104.127 2.702.361 2.4 2.558 5.548 17.099 2.653 41.851zM20.921 266.001c-.771-1.59 1.049-4.385 2.203-5.911 1.829-2.416 3.514-2.91 4.787-2.91.269 0 .52.022.75.053 3.426.457 8.226 4.227 10.769 10.548a22.624 22.624 0 011.559 7.027c-10.315-2.137-18.329-5.218-20.068-8.807z"/><path d="M237.918 98.277V71.613c9.195.657 12.611 4.86 15.763 4.86 3.941 0 5.78-4.991 5.78-7.487 0-6.437-12.611-9.195-21.543-9.458V55.98c0-1.576-1.971-3.021-3.941-3.021-2.234 0-3.81 1.445-3.81 3.021v3.809c-12.479 1.314-24.958 7.882-24.958 24.433 0 16.814 13.136 21.543 24.958 25.746v30.869c-13.399-1.051-16.945-10.246-21.28-10.246-3.284 0-6.042 4.335-6.042 7.488 0 6.436 11.034 15.237 27.322 15.5v4.072c0 1.576 1.577 3.021 3.81 3.021 1.971 0 3.941-1.445 3.941-3.021v-4.466c14.187-1.971 23.907-10.903 23.907-27.06 0-17.864-12.479-23.645-23.907-27.848zm-6.963-2.495c-6.962-2.627-12.61-5.385-12.61-12.872 0-6.831 5.254-10.115 12.61-11.034v23.906zm6.174 44.792v-27.716c6.436 2.758 11.559 6.436 11.559 14.711 0 7.489-4.466 11.692-11.559 13.005z"/></svg><svg viewBox="0 0 512 512" id="product" xmlns="http://www.w3.org/2000/svg"><path d="M474.5 79.25h-79.226L259.75 1.005a7.499 7.499 0 00-7.5 0L116.726 79.25H37.5C16.789 79.25 0 96.039 0 116.75V414.5C0 435.211 16.789 452 37.5 452h161.823l-6.99 27.957A22.5 22.5 0 01170.505 497H108.5a7.5 7.5 0 000 15h295a7.5 7.5 0 000-15h-62.005a22.5 22.5 0 01-21.828-17.043L312.677 452H474.5c20.711 0 37.5-16.789 37.5-37.5V116.75c0-20.711-16.789-37.5-37.5-37.5zm-88.735 161.67L263.5 311.51V170.33l122.265-70.59zM126.235 99.74L248.5 170.33v141.18l-122.265-70.59zM256 157.34L133.735 86.75l53.632-30.965 122.265 70.589zm0-141.18l122.265 70.59-53.632 30.965-122.266-70.59zM37.5 94.25h73.735v15H37.5a7.5 7.5 0 00-7.5 7.5v103.875c0 4.142 3.357 7.5 7.5 7.5s7.5-3.358 7.5-7.5V124.25h66.235v121a7.5 7.5 0 003.75 6.495l137.265 79.25a7.493 7.493 0 007.5 0l137.265-79.25a7.5 7.5 0 003.75-6.495v-121H467V347H45v-96.375c0-4.142-3.357-7.5-7.5-7.5s-7.5 3.358-7.5 7.5V354.5a7.5 7.5 0 007.5 7.5h437a7.5 7.5 0 007.5-7.5V116.75a7.5 7.5 0 00-7.5-7.5h-73.735v-15H474.5c12.406 0 22.5 10.093 22.5 22.5V377H15V116.75c0-12.407 10.094-22.5 22.5-22.5zm267.614 389.345A37.47 37.47 0 00311.489 497H200.511a37.484 37.484 0 006.374-13.405l7.9-31.595h82.431zM474.5 437h-437C25.094 437 15 426.907 15 414.5V392h482v22.5c0 12.407-10.094 22.5-22.5 22.5z"/><path d="M282.25 279.034a7.493 7.493 0 007.5 0l77.265-44.609a7.5 7.5 0 003.75-6.495v-34.641a7.5 7.5 0 00-11.25-6.495l-77.265 44.609a7.5 7.5 0 00-3.75 6.495v34.641a7.502 7.502 0 003.75 6.495zm11.25-36.806l62.265-35.949V223.6L293.5 259.548z"/></svg><svg viewBox="0 0 64 64" id="production" xmlns="http://www.w3.org/2000/svg"><path d="M63 35V21h-6v-4h4V1H43v8h-8.184A2.996 2.996 0 0032 7c-1.654 0-3 1.346-3 3 0 1.302.839 2.402 2 2.816V19h-4v12h7v6h-2v2.64c0 .479-.307.905-.843 1.127-.501.21-1.025.127-1.367-.215l-1.858-1.868-4.248 4.247 1.867 1.86c.338.336.422.873.197 1.409-.201.486-.637.8-1.11.8h-2.772l-.201-1.405a17.861 17.861 0 00-3.961-8.911 7.357 7.357 0 01-1.619-3.734 4.437 4.437 0 002.622-1.243A4.382 4.382 0 0020 28.586v-1.864l3-1v-.721c0-3.38-1.26-6.294-2.2-8.001H23c1.103 0 2-.897 2-2v-2c0-1.103-.897-2-2-2h-.18l-.255-1.273C21.554 4.67 17.077 1 11.92 1a10.824 10.824 0 00-10.803 9.776L1 12v3c0 .471.171.899.444 1.241A7.877 7.877 0 001 18.828v.416c0 3.3 1.603 6.415 4.289 8.334L8 29.514v4.907a5.001 5.001 0 00-2.303 2.013c-.445.735-.675 1.623-.685 2.566H5v24h17v-5.999h1.616l4.316 4.316 1.858-1.868c.343-.343.865-.427 1.41-.197.494.204.8.63.8 1.109V63h6v-2.64c0-.479.307-.905.843-1.127.5-.211 1.025-.127 1.367.215l1.858 1.868 4.248-4.247-1.867-1.859c-.343-.343-.426-.866-.198-1.41.201-.486.637-.8 1.11-.8H48v-2h7.184A2.996 2.996 0 0058 53c1.654 0 3-1.346 3-3a2.996 2.996 0 00-2-2.816V35zm-12-2V23h9.683l-4.74 5.529-1.236-1.236-1.414 1.414 2.764 2.764L61 25.703V33zM45 3h14v12H45zM32 9a1.001 1.001 0 11-1 1c0-.552.449-1 1-1zm-3 12h7.106l-3.149 3.543-1.25-1.25-1.414 1.414 2.75 2.75L37 23.005V29h-8zm-9.313 24.879l.15 1.051a4.978 4.978 0 01-4.14-4.104l-.662-3.949c.636.067 1.275.107 1.914.114a15.867 15.867 0 012.738 6.888zm1.291-21.592L18 25.28V27h-1.764a2.603 2.603 0 01-2.341-1.447l-1.789.895a4.595 4.595 0 004.13 2.553h1.724c-.084.487-.31.937-.667 1.294a2.434 2.434 0 01-1.707.707L12 31v2l2.064.001a9.372 9.372 0 001.356 3.912c-.32-.03-.638-.079-.955-.125A4.988 4.988 0 0010 34v-8.586A2.01 2.01 0 009.414 24l-1-1A1.406 1.406 0 018 22c0-.552.449-1 1-1h1v-2c0-1.103.897-2 2-2h6.472c.657 1.013 2.298 3.855 2.506 7.287zM23 13v2H3l-.003-2zM5 11H3.105l.002-.024A8.917 8.917 0 013.543 9H5zm8 0h-2V7h2zm7.604-.881l.176.881H19V9h1.294c.124.363.233.734.31 1.119zM11.92 3c3.043 0 5.79 1.572 7.392 4H19c-1.103 0-2 .897-2 2v2h-2V7c0-1.103-.897-2-2-2h-2c-1.103 0-2 .897-2 2v4H7V9c0-1.103-.897-2-2-2h-.49a8.823 8.823 0 017.41-4zM6.452 25.951A8.259 8.259 0 013 19.244v-.416c0-.618.104-1.239.298-1.828h5.259A3.95 3.95 0 008 19v.171A3.006 3.006 0 006 22c0 .911.355 1.769 1 2.414l1 1v1.643zm.956 11.518A3.01 3.01 0 019.998 36c1.518 0 2.795 1.14 2.98 2.7l.746 4.456a6.981 6.981 0 006.907 5.845L25.996 49v6l-7.187.001c-5.423 0-10.104-4.044-10.89-9.407l-.891-6.085c-.09-.761.045-1.486.38-2.04zM20 61H7V49.416c2.085 4.498 6.661 7.585 11.809 7.585H20zm26-10h-.639c-1.285 0-2.445.799-2.972 2.068-.524 1.247-.27 2.644.648 3.558l.447.445-1.413 1.413-.445-.446c-.914-.919-2.311-1.173-3.592-.635C36.799 57.916 36 59.076 36 60.36V61h-2v-.64c0-1.284-.799-2.444-2.067-2.971-1.25-.526-2.646-.271-3.56.648l-.444.446-1.526-1.526a2.003 2.003 0 001.594-1.958h2.122a7 7 0 004.883 2c3.86 0 7-3.141 7-7s-3.14-7-7-7a6.984 6.984 0 00-4.907 2.02c-.097-.01-.194-.02-.293-.02a2.91 2.91 0 00-1.93.739c.034-.88-.275-1.738-.907-2.365l-.447-.445 1.413-1.413.445.446c.915.919 2.312 1.175 3.592.635C33.201 42.084 34 40.924 34 39.64V39h2v.64c0 1.284.799 2.444 2.067 2.971 1.249.525 2.646.271 3.56-.648l.444-.446 1.413 1.413-.446.444c-.918.913-1.173 2.311-.635 3.593.513 1.234 1.673 2.033 2.958 2.033H46zm-11.001-4h-2.383l-.188-.376a2.978 2.978 0 00-.423-.624c.858-.643 1.905-1 2.995-1 2.757 0 5 2.243 5 5s-2.243 5-5 5a4.97 4.97 0 01-.992-.103A5.008 5.008 0 0038 50c0-1.654-1.346-3-3.001-3zm-4.36.519L31.38 49h3.619c.552 0 1.001.448 1.001 1 0 1.654-1.347 3-3.001 3h-5.003v-4.586l1.14-1.139c.429-.427 1.233-.297 1.503.244zM58 51a1.001 1.001 0 010-2 1.001 1.001 0 010 2zm-1-3.816A2.997 2.997 0 0055.184 49H48v-2h-2.639c-.473 0-.909-.313-1.128-.842-.207-.494-.123-1.031.216-1.368l1.867-1.859-4.248-4.247-1.858 1.868c-.343.343-.865.427-1.41.197-.494-.204-.8-.63-.8-1.109V37h-2v-6h3V20.755l2.748-3.091-1.495-1.328L37.884 19H33v-6.184A2.997 2.997 0 0034.816 11H43v6h12v4h-6v14h8z"/><path d="M49.943 10.529l-1.236-1.236-1.414 1.414 2.764 2.764 6.702-7.821-1.518-1.3z"/></svg><svg viewBox="0 0 512 512" id="quality" xmlns="http://www.w3.org/2000/svg"><path d="M485.809 0h-287.87c-5.79 0-10.5 4.71-10.5 10.5v23.499H163.94c-5.79 0-10.5 4.71-10.5 10.5v92.061L43.296 191.607c-5.969 2.983-9.677 8.981-9.677 15.654v57.714c0 19.581 2.316 37.053 6.726 52.896-15.08 13.002-24.654 32.223-24.654 53.65 0 39.066 31.783 70.849 70.849 70.849a70.45 70.45 0 0026.249-5.062v40.229c0 4.467 2.638 8.524 6.721 10.336a11.32 11.32 0 0012.174-1.95l27.504-24.881 27.505 24.881a11.31 11.31 0 0018.895-8.387v-59.101H262c4.143 0 7.5-3.358 7.5-7.5s-3.357-7.5-7.5-7.5h-41.38c15.895-13.605 29.168-28.198 39.443-44.668h131.451c4.143 0 7.5-3.358 7.5-7.5s-3.357-7.5-7.5-7.5h-123.2a155.262 155.262 0 007.716-19.278H301c4.143 0 7.5-3.358 7.5-7.5s-3.357-7.5-7.5-7.5h-20.861c1.38-6.173 2.452-12.595 3.217-19.278h108.157c4.143 0 7.5-3.358 7.5-7.5s-3.357-7.5-7.5-7.5h-107c.145-3.354.241-6.752.241-10.237v-9.041h106.759c4.143 0 7.5-3.358 7.5-7.5s-3.357-7.5-7.5-7.5H284.755v-19.278H323c4.143 0 7.5-3.358 7.5-7.5s-3.357-7.5-7.5-7.5h-38.266c-.217-6.428-3.869-12.157-9.656-15.049l-8.461-4.229h124.896c4.143 0 7.5-3.358 7.5-7.5s-3.357-7.5-7.5-7.5h-154.91l-68.164-34.067V48.999H447.31V105c0 4.142 3.357 7.5 7.5 7.5s7.5-3.358 7.5-7.5V44.499c0-5.79-4.71-10.5-10.5-10.5H202.439V15H481.31v354.437h-19V140c0-4.142-3.357-7.5-7.5-7.5s-7.5 3.358-7.5 7.5v263.436H297c-4.143 0-7.5 3.358-7.5 7.5s3.357 7.5 7.5 7.5h154.81c5.79 0 10.5-4.71 10.5-10.5v-23.499h23.499c5.79 0 10.5-4.71 10.5-10.5V10.5c0-5.79-4.71-10.5-10.5-10.5zM30.691 371.521c0-30.795 25.054-55.849 55.849-55.849s55.849 25.054 55.849 55.849-25.054 55.849-55.849 55.849-55.849-25.054-55.849-55.849zm136.082 76.157a11.274 11.274 0 00-15.172 0l-23.813 21.542v-40.15c17.906-12.871 29.6-33.863 29.6-57.548 0-6.465-.887-12.723-2.517-18.678 1.43.082 2.866.139 4.316.139a76.35 76.35 0 0031.399-6.736V469.22zm102.982-240.417v57.714c0 39.495-9.847 70.708-30.987 98.229-8.825 11.488-19.534 22.312-33.182 33.35v-59.216c18.476-14.045 30.433-36.242 30.433-61.188 0-12.337-3.013-24.624-8.714-35.532a7.5 7.5 0 00-13.294 6.948c4.65 8.898 7.008 18.516 7.008 28.585 0 34.094-27.737 61.832-61.832 61.832-3.682 0-7.288-.331-10.794-.953-9.48-16.933-25.703-29.591-45.014-34.318a61.365 61.365 0 01-6.024-26.561c0-34.094 27.737-61.832 61.832-61.832a61.57 61.57 0 0133.826 10.083 7.499 7.499 0 0010.383-2.164 7.499 7.499 0 00-2.164-10.383c-12.518-8.201-27.057-12.536-42.045-12.536-42.365 0-76.832 34.466-76.832 76.832a76.328 76.328 0 004.032 24.526 70.382 70.382 0 00-32.875 8.193c-3.277-13.497-4.893-28.018-4.893-43.894v-57.714c0-.953.529-1.81 1.382-2.236l109.185-54.569 109.186 54.569a2.483 2.483 0 011.383 2.235z"/><path d="M216.737 145.602a7.5 7.5 0 007.5 7.5h167.277c4.143 0 7.5-3.358 7.5-7.5s-3.357-7.5-7.5-7.5H224.237a7.499 7.499 0 00-7.5 7.5zM391.513 206.657H351c-4.143 0-7.5 3.358-7.5 7.5s3.357 7.5 7.5 7.5h40.514a7.5 7.5 0 10-.001-15zM391.513 309.49H328c-4.143 0-7.5 3.358-7.5 7.5s3.357 7.5 7.5 7.5h63.514a7.5 7.5 0 10-.001-15zM359.292 103.589c4.143 0 7.5-3.358 7.5-7.5s-3.357-7.5-7.5-7.5H256.458a7.5 7.5 0 000 15zM182.335 258.714l-26.732 26.732-17.491-17.491a7.5 7.5 0 00-10.606 0 7.5 7.5 0 000 10.606l22.794 22.794c1.464 1.465 3.384 2.197 5.303 2.197s3.839-.732 5.303-2.197l32.036-32.035a7.5 7.5 0 00-10.607-10.606zM296.838 453.335l-15.367-2.233-6.871-13.924-.001-.001a11.239 11.239 0 00-10.141-6.303 11.24 11.24 0 00-10.141 6.304l-6.872 13.924-15.367 2.233a11.24 11.24 0 00-9.129 7.696 11.238 11.238 0 002.862 11.593l11.119 10.839-2.625 15.304a11.24 11.24 0 004.499 11.061 11.27 11.27 0 006.637 2.172c1.797 0 3.604-.434 5.273-1.311l13.744-7.226 13.744 7.226a11.241 11.241 0 0011.909-.861 11.238 11.238 0 004.499-11.061l-2.625-15.304 11.12-10.839a11.24 11.24 0 002.861-11.592 11.238 11.238 0 00-9.128-7.697zm-16.712 20.742a11.304 11.304 0 00-3.252 10.01l1.688 9.845-8.841-4.647a11.3 11.3 0 00-10.526-.001l-8.841 4.648 1.688-9.845a11.307 11.307 0 00-3.253-10.01l-7.153-6.972 9.885-1.437a11.308 11.308 0 008.515-6.187l4.42-8.957 4.421 8.957a11.305 11.305 0 008.516 6.187l9.885 1.437zM389.643 453.335l-15.366-2.233-6.871-13.924-.001-.001a11.239 11.239 0 00-10.141-6.303 11.24 11.24 0 00-10.141 6.304l-6.871 13.924-15.368 2.233c-4.291.624-7.788 3.573-9.128 7.697s-.243 8.565 2.861 11.592l11.12 10.839-2.625 15.303c-.734 4.273.989 8.511 4.496 11.061s8.071 2.88 11.912.862l13.743-7.226 13.744 7.226A11.325 11.325 0 00376.28 512c2.334 0 4.653-.732 6.636-2.172a11.238 11.238 0 004.499-11.061l-2.625-15.304 11.12-10.839a11.24 11.24 0 002.861-11.592 11.236 11.236 0 00-9.128-7.697zm-16.711 20.742a11.304 11.304 0 00-3.252 10.01l1.688 9.845-8.841-4.647a11.3 11.3 0 00-10.526-.001l-8.842 4.648 1.689-9.845a11.309 11.309 0 00-3.253-10.01l-7.153-6.972 9.885-1.437a11.306 11.306 0 008.516-6.187l4.42-8.957 4.421 8.957a11.305 11.305 0 008.516 6.187l9.885 1.437zM482.45 453.335l-15.366-2.233-6.871-13.924-.001-.001a11.239 11.239 0 00-10.14-6.303 11.24 11.24 0 00-10.142 6.304l-6.871 13.924-15.368 2.233c-4.291.624-7.788 3.573-9.128 7.697s-.243 8.566 2.861 11.592l11.12 10.839-2.625 15.303a11.237 11.237 0 004.497 11.061 11.266 11.266 0 006.637 2.173c1.798 0 3.604-.434 5.273-1.311l13.744-7.226 13.744 7.226a11.241 11.241 0 0011.909-.861 11.238 11.238 0 004.499-11.061l-2.625-15.304 11.121-10.84a11.237 11.237 0 002.859-11.592 11.235 11.235 0 00-9.127-7.696zm-16.708 20.739a11.304 11.304 0 00-3.255 10.013l1.688 9.845-8.841-4.647a11.314 11.314 0 00-10.527-.001l-8.841 4.648 1.689-9.845a11.309 11.309 0 00-3.253-10.01l-7.153-6.972 9.885-1.437a11.314 11.314 0 008.516-6.187l4.421-8.957 4.42 8.957a11.305 11.305 0 008.516 6.187l9.885 1.437zM115.759 354.5l-13.421-1.951-6.002-12.162c-1.854-3.756-5.607-6.09-9.796-6.09s-7.943 2.334-9.796 6.09l-6.002 12.162-13.42 1.95a10.858 10.858 0 00-8.819 7.434 10.855 10.855 0 002.764 11.199l9.712 9.467-2.292 13.366a10.859 10.859 0 004.346 10.686 10.887 10.887 0 006.411 2.098 10.93 10.93 0 005.094-1.267l12.004-6.311 12.004 6.311c3.708 1.95 8.116 1.631 11.505-.831s5.054-6.557 4.346-10.685l-2.292-13.367 9.712-9.467c3-2.924 4.059-7.215 2.764-11.199a10.867 10.867 0 00-8.822-7.433zm-15.662 18.854a10.922 10.922 0 00-3.142 9.669l1.259 7.34-6.591-3.465a10.925 10.925 0 00-10.167 0l-6.591 3.465 1.259-7.34a10.92 10.92 0 00-3.142-9.668l-5.333-5.198 7.366-1.071a10.917 10.917 0 008.228-5.976l3.296-6.678 3.295 6.676a10.916 10.916 0 008.226 5.977l7.369 1.071z"/></svg><svg viewBox="0 0 512 512" id="right-arrow" xmlns="http://www.w3.org/2000/svg"><path d="M506.134 241.843l-.018-.019-104.504-104c-7.829-7.791-20.492-7.762-28.285.068-7.792 7.829-7.762 20.492.067 28.284L443.558 236H20c-11.046 0-20 8.954-20 20s8.954 20 20 20h423.557l-70.162 69.824c-7.829 7.792-7.859 20.455-.067 28.284 7.793 7.831 20.457 7.858 28.285.068l104.504-104 .018-.019c7.833-7.818 7.808-20.522-.001-28.314z"/></svg><svg viewBox="0 0 496 496" id="statistics" xmlns="http://www.w3.org/2000/svg"><path d="M154.672 294.383C158.16 299.648 160 305.734 160 312c0 17.648-14.352 32-32 32-6.266 0-12.352-1.84-17.617-5.328l-8.832 13.344C109.44 357.238 118.586 360 128 360c26.473 0 48-21.527 48-48 0-9.414-2.762-18.559-7.984-26.457zm0 0M128 280c6.266 0 12.36 1.84 17.61 5.32l8.84-13.336C146.565 266.762 137.425 264 128 264c-26.473 0-48 21.527-48 48 0 9.414 2.762 18.559 7.984 26.457l13.344-8.832C97.84 324.352 96 318.265 96 312c0-17.648 14.352-32 32-32zm0 0M288 336v48h32v-16h-16v-32zm0 0"/><path d="M296 288c-20.246 0-40.023 7.055-55.688 19.871l10.145 12.387c10.727-8.785 23.84-14.211 37.543-15.754V320h16v-15.527c33.32 3.703 59.824 30.214 63.527 63.527H352v16h15.496c-1.543 13.71-6.969 26.816-15.754 37.55l12.38 10.137C376.936 416.023 384 396.247 384 376c0-48.52-39.48-88-88-88zm0 0M304 447.496V432h-16v15.527c-33.32-3.703-59.824-30.215-63.527-63.527H240v-16h-15.496c1.543-13.71 6.969-26.816 15.754-37.55l-12.38-10.138C215.064 335.978 208 355.755 208 376c0 48.52 39.48 88 88 88 20.246 0 40.023-7.055 55.688-19.871l-10.145-12.387c-10.727 8.785-23.832 14.211-37.543 15.754zm0 0"/><path d="M448 368h-16V144h-48v150.688a120.64 120.64 0 00-16-14.465V184h-48v74.414c-5.207-1.062-10.574-1.652-16-2.016V224h-48v39a119.393 119.393 0 00-22.855 10.969c-1.61-4.457-3.383-8.832-5.528-13.008l12.649-17.715-43.512-43.527-17.723 12.656a111.401 111.401 0 00-16.672-6.879L158.785 184H97.223l-3.575 21.496a111.401 111.401 0 00-16.671 6.879l-17.72-12.656-43.515 43.527 12.649 17.715a109.953 109.953 0 00-6.887 16.672L0 281.223v61.554l21.496 3.582a110.76 110.76 0 006.887 16.672l-12.649 17.711 43.512 43.531 17.723-12.656a111.401 111.401 0 0016.672 6.88L97.215 440h61.562l3.575-21.496a111.401 111.401 0 0016.671-6.879l3.2 2.285C198.153 461.535 243.09 496 296 496c63.473 0 115.45-49.559 119.594-112H496V80h-48zm-48-208h16v208h-.406c-1.242-18.695-6.739-36.215-15.594-51.61zm-64 40h16v69.953c-5.113-2.715-10.48-4.984-16-6.945zm-64 40h16v16.406c-5.426.364-10.793.953-16 2.02zm-96.36 155.266a95.19 95.19 0 01-22.449 9.27l-4.953 1.343L145.215 424h-34.438l-3.023-18.121-4.953-1.344c-7.906-2.144-15.457-5.262-22.45-9.27l-4.456-2.554-14.918 10.664-24.36-24.352 10.664-14.933-2.554-4.457a95.055 95.055 0 01-9.27-22.442l-1.336-4.953L16 329.223v-34.446l18.121-3.015 1.344-4.953c2.16-7.93 5.27-15.48 9.27-22.442l2.554-4.457-10.664-14.933 24.36-24.352 14.917 10.664 4.457-2.555a95.19 95.19 0 0122.45-9.27l4.953-1.343L110.785 200h34.438l3.023 18.121 4.953 1.344c7.906 2.144 15.457 5.262 22.45 9.27l4.456 2.554 14.918-10.664 24.36 24.352-10.664 14.933 2.554 4.457c3.454 6.016 6.11 12.535 8.2 19.29-4.68 3.886-8.977 8.198-13.016 12.734C199.168 259.727 166.77 232 128 232c-44.113 0-80 35.887-80 80s35.887 80 80 80c17.473 0 34.281-5.91 48.008-16.215 0 .07-.008.145-.008.215 0 6.2.617 12.238 1.527 18.184zm16.16-78.555c-6.023 10.555-10.534 22.059-13.144 34.289-12.082 15.656-30.87 25-50.656 25-35.29 0-64-28.71-64-64s28.71-64 64-64 64 28.71 64 64c0 1.594-.09 3.152-.2 4.71zM296 480c-57.344 0-104-46.656-104-104s46.656-104 104-104 104 46.656 104 104-46.656 104-104 104zM464 96h16v272h-16zm0 0"/><path d="M448 0v16h17.191l-56.597 45.281L384 36.688l-37.719 37.718C343.152 72.902 339.695 72 336 72c-13.23 0-24 10.77-24 24 0 4.137 1.152 7.977 3 11.375l-41.816 46.465A23.875 23.875 0 00264 152c-.152 0-.29.04-.441.047l-32.168-85.79C236.609 61.856 240 55.353 240 48c0-13.23-10.77-24-24-24s-24 10.77-24 24c0 1.727.2 3.406.55 5.04L126.97 93.39C122.855 90.07 117.688 88 112 88c-10.414 0-19.215 6.71-22.527 16H46.527C43.215 94.71 34.414 88 24 88 10.77 88 0 98.77 0 112s10.77 24 24 24c10.414 0 19.215-6.71 22.527-16H89.48c3.313 9.29 12.114 16 22.528 16 13.23 0 24-10.77 24-24 0-1.727-.2-3.406-.551-5.04l65.582-40.35C205.145 69.93 210.313 72 216 72c.152 0 .29-.04.441-.047l32.168 85.781C243.391 162.144 240 168.648 240 176c0 13.23 10.77 24 24 24s24-10.77 24-24c0-4.137-1.145-7.977-3-11.375l41.816-46.465A23.875 23.875 0 00336 120c13.23 0 24-10.77 24-24 0-3.695-.902-7.152-2.406-10.281L384 59.313l23.406 23.406L480 24.649V48h16V0zM24 120c-4.414 0-8-3.594-8-8s3.586-8 8-8 8 3.594 8 8-3.586 8-8 8zm88 0c-4.414 0-8-3.594-8-8s3.586-8 8-8 8 3.594 8 8-3.586 8-8 8zm96-72c0-4.406 3.586-8 8-8s8 3.594 8 8-3.586 8-8 8-8-3.594-8-8zm56 136c-4.414 0-8-3.594-8-8s3.586-8 8-8 8 3.594 8 8-3.586 8-8 8zm72-80c-4.414 0-8-3.594-8-8s3.586-8 8-8 8 3.594 8 8-3.586 8-8 8zm0 0"/></svg><svg viewBox="-23 -21 682 682.667" id="whatsapp" xmlns="http://www.w3.org/2000/svg"><path d="M544.387 93.008C484.512 33.063 404.883.035 320.05 0 145.246 0 2.98 142.262 2.91 317.113c-.024 55.895 14.577 110.457 42.331 158.551L.25 640l168.121-44.102c46.324 25.27 98.477 38.586 151.55 38.602h.134c174.785 0 317.066-142.273 317.132-317.133.036-84.742-32.921-164.418-92.8-224.36zM320.05 580.94h-.11c-47.296-.02-93.683-12.73-134.16-36.742l-9.62-5.715-99.766 26.172 26.628-97.27-6.27-9.972c-26.386-41.969-40.32-90.476-40.296-140.281.055-145.332 118.305-263.57 263.7-263.57 70.406.023 136.59 27.476 186.355 77.3s77.156 116.051 77.133 186.485C583.582 462.69 465.34 580.94 320.05 580.94zm144.586-197.418c-7.922-3.968-46.883-23.132-54.149-25.78-7.258-2.645-12.547-3.962-17.824 3.968-5.285 7.93-20.469 25.781-25.094 31.066-4.625 5.29-9.242 5.953-17.168 1.985-7.925-3.965-33.457-12.336-63.726-39.332-23.555-21.012-39.457-46.961-44.082-54.89-4.617-7.938-.04-11.813 3.476-16.173 8.578-10.652 17.168-21.82 19.809-27.105 2.644-5.29 1.32-9.918-.664-13.883-1.977-3.965-17.824-42.969-24.426-58.84-6.437-15.445-12.965-13.36-17.832-13.601-4.617-.231-9.902-.278-15.187-.278-5.282 0-13.868 1.98-21.133 9.918-7.262 7.934-27.73 27.102-27.73 66.106s28.394 76.683 32.355 81.972c3.96 5.29 55.879 85.328 135.367 119.649 18.906 8.172 33.664 13.043 45.176 16.695 18.984 6.031 36.254 5.18 49.91 3.14 15.226-2.277 46.879-19.171 53.488-37.68 6.602-18.51 6.602-34.374 4.617-37.683-1.976-3.304-7.261-5.285-15.183-9.254zm0 0" fill-rule="evenodd"/></svg></svg>