<?xml version="1.0" encoding="utf-8"?>
<!-- Generator: Adobe Illustrator 24.1.2, SVG Export Plug-In . SVG Version: 6.00 Build 0)  -->
<svg version="1.1" id="Слой_1" xmlns="http://www.w3.org/2000/svg" xmlns:xlink="http://www.w3.org/1999/xlink" x="0px" y="0px"
	 viewBox="0 0 496 496" style="enable-background:new 0 0 496 496;" xml:space="preserve">
<style type="text/css">
	.st0{fill:#E2693E;}
</style>
<path class="st0" d="M168,416c-57.3,0-104-46.7-104-104s46.7-104,104-104s104,46.7,104,104S225.3,416,168,416z"/>
<path class="st0" d="M416,416H304c-8.8,0-16-7.2-16-16V272c0-8.8,7.2-16,16-16h112c8.8,0,16,7.2,16,16v128
	C432,408.8,424.8,416,416,416z"/>
<path d="M114.6,325.9l53.4,53.4l53.4-53.4c6.8-6.8,10.6-16,10.6-25.7c0-20-16.3-36.3-36.3-36.3c-9.7,0-18.8,3.8-25.7,10.6l-2.1,2.1
	l-2.1-2.1c-6.8-6.8-16-10.6-25.7-10.6c-20,0-36.3,16.3-36.3,36.3C104,310,107.8,319.1,114.6,325.9z M140.3,280
	c5.4,0,10.5,2.1,14.3,5.9l13.4,13.4l13.4-13.4c3.8-3.8,8.9-5.9,14.3-5.9c11.2,0,20.3,9.1,20.3,20.3c0,5.4-2.1,10.5-5.9,14.3
	L168,356.7l-42.1-42.1c-3.8-3.8-5.9-8.9-5.9-14.3C120,289.1,129.1,280,140.3,280z"/>
<path d="M430.1,172.2l-22.1-9.4V144h8c13.2,0,24-10.8,24-24v-16c0-10.4-6.7-19.2-16-22.5V72c0-13.2-10.8-24-24-24h-80
	c-13.2,0-24,10.8-24,24v9.5c-9.3,3.3-16,12.1-16,22.5v16c0,13.2,10.8,24,24,24h8v18.7l-11.9,5.1c-4.7-12-13.4-22.2-24.9-28.6
	l-43.2-24V80h32V40c0-22.1-17.9-40-40-40H112C89.9,0,72,17.9,72,40v40h32v35.3l-43.2,24C43,149.2,32,167.9,32,188.2V440
	c0,30.9,25.1,56,56,56h160c9.2,0,18.1-2.3,26.1-6.6c6.3,4.1,13.8,6.6,21.9,6.6h128c22.1,0,40-17.9,40-40V223.6
	C464,201.2,450.7,181,430.1,172.2z M320,64h80c4.4,0,8,3.6,8,8v8h-96v-8C312,67.6,315.6,64,320,64z M296,120v-16c0-4.4,3.6-8,8-8
	h112c4.4,0,8,3.6,8,8v16c0,4.4-3.6,8-8,8H304C299.6,128,296,124.4,296,120z M328,173.3V144h64v29.3l31.8,13.6
	c14.7,6.3,24.2,20.7,24.2,36.8v0.4H272v-0.4c0-16,9.5-30.5,24.2-36.8L328,173.3z M265.9,192c-6.3,9.1-9.9,20.1-9.9,31.6V432H48V192
	H265.9z M272,240h176v192H272V240z M112,16h112c10.4,0,19.2,6.7,22.5,16h-157C92.8,22.7,101.6,16,112,16z M88,48h160v16H88V48z
	 M216,80v32h-96V80H216z M68.6,153.3l45.5-25.3H222l45.5,25.3c8.5,4.7,14.8,12.3,18.1,21.2c-1,0.5-2,0.9-2.9,1.5H50
	C53.1,166.5,59.6,158.3,68.6,153.3z M88,480c-19.3,0-35.5-13.8-39.2-32H256v8c0,7.8,2.3,15.1,6.3,21.3c-4.5,1.7-9.3,2.7-14.3,2.7H88
	z M424,480H296c-13.2,0-24-10.8-24-24v-8h176v8C448,469.2,437.2,480,424,480z"/>
</svg>
