<svg xmlns="http://www.w3.org/2000/svg" viewBox="0 0 476.3 475.1"><defs><style>.cls-1{fill:none;stroke:#2dc964;stroke-width:47px;}</style></defs><title>ic-filters</title><g id="Слой_2" data-name="Слой 2"><g id="Layer_1" data-name="Layer 1"><path class="cls-1" d="M37.29,23.62a24.92,24.92,0,0,1,2.5-.12H436.45a25,25,0,0,1,2.5.12c-.33.61-.73,1.29-1.22,2L323,197.78c-14.31,21.47-25.32,57.85-25.32,83.67V400.52c0,12.82-11,26.94-23.49,30.06l-2.33.58-38.55,9.64-38.49,9.62-2.32.58c-8.78,2.2-13.87-1.76-13.87-10.71V281.36c0-25.8-11-62.07-25.32-83.58L38.51,25.63h0C38,24.9,37.62,24.23,37.29,23.62Z"/></g></g></svg>