<?xml version="1.0" encoding="UTF-8"?><!DOCTYPE svg PUBLIC "-//W3C//DTD SVG 1.1//EN" "http://www.w3.org/Graphics/SVG/1.1/DTD/svg11.dtd"><svg viewBox="0 0 512 512" xmlns="http://www.w3.org/2000/svg" xmlns:xlink="http://www.w3.org/1999/xlink"><style>:root>svg{display:none}:root>svg:target{display:block}</style><svg data-name="Layer 3" viewBox="0 0 64 64" id="barrel" xmlns="http://www.w3.org/2000/svg"><path d="M35 18h2v-4a1 1 0 00-1-1h-4v2h3zM9 15h3v-2H8a1 1 0 00-1 1v4h2zM9 50H7v4a1 1 0 001 1h4v-2H9zM28 13h2v2h-2z"/><path d="M58 35h-3v2h3a3 3 0 013 3v18a3 3 0 01-3 3H30a3 3 0 01-3-3V40a3 3 0 013-3h14v-2h-1v-3a1 1 0 00-1-1h-1V11h1a1 1 0 001-1V6a1 1 0 00-1-1h-3V2a1 1 0 00-1-1h-6a1 1 0 00-1 1v3H2a1 1 0 00-1 1v4a1 1 0 001 1h1v20H2a1 1 0 00-1 1v4a1 1 0 001 1h1v20H2a1 1 0 00-1 1v4a1 1 0 001 1h22v-2H3v-2h22.1a5.009 5.009 0 004.9 4h28a5.006 5.006 0 005-5V40a5.006 5.006 0 00-5-5zm-17 0h-3.033c.021-.333.033-.667.033-1s-.03-.668-.051-1H41zM33 3h4v2h-4zM3 7h38v2H3zm2 4h34v20h-1.292a15.99 15.99 0 00-31.416 0H5zM3 33h3.051c-.021.332-.051.662-.051 1s.03.668.051 1H3zm22 24H5V37h1.292A15.973 15.973 0 0025 49.713zm0-9.327A14 14 0 1136 34c0 .334-.014.668-.037 1H30a4.955 4.955 0 00-.625.063c-.049-.115-.085-.233-.14-.346l-6.066-12.475a1.04 1.04 0 00-1.8 0l-6.063 12.475a7.629 7.629 0 00.239 7.1 7.522 7.522 0 005.977 3.829 8.472 8.472 0 001.499 0A7.62 7.62 0 0025 45.205zM25 40v3.02a5.594 5.594 0 01-2.15.634 6.984 6.984 0 01-1.157 0 5.548 5.548 0 01-4.408-2.824 5.628 5.628 0 01-.181-5.238l5.166-10.626 5.166 10.626c.018.037.029.076.046.113A4.986 4.986 0 0025 40z"/><path d="M29 39v19a1 1 0 001 1h29v-2H31V39z"/><path d="M36 46v2h-1a1 1 0 00-1 1v4a1 1 0 001 1h1v2h2v-2h1a1 1 0 001-1v-4a1 1 0 00-1-1h-1v-2zm2 6h-2v-2h2zM44 44v2h-1a1 1 0 00-1 1v4a1 1 0 001 1h1v2h2v-2h1a1 1 0 001-1v-4a1 1 0 00-1-1h-1v-2zm2 6h-2v-2h2zM55 44h-1v-2h-2v2h-1a1 1 0 00-1 1v4a1 1 0 001 1h1v2h2v-2h1a1 1 0 001-1v-4a1 1 0 00-1-1zm-1 4h-2v-2h2zM34.9 41.005L35.1 43a25.1 25.1 0 0017.038-9.141L53 32.8V34h2v-4a1 1 0 00-1-1h-4v2h1.89l-1.3 1.588a23.109 23.109 0 01-15.69 8.417z"/></svg><svg viewBox="0 0 512.181 512.181" id="barrel2" xmlns="http://www.w3.org/2000/svg"><path d="M20.452 187.787h219.174c4.143 0 7.5-3.358 7.5-7.5s-3.357-7.5-7.5-7.5H27.952V78.861h34.137c4.143 0 7.5-3.358 7.5-7.5s-3.357-7.5-7.5-7.5H20.452c-3 0-5.441-2.441-5.441-5.441v-9.631c0-3 2.441-5.441 5.441-5.441h280.619c3 0 5.441 2.441 5.441 5.441v9.631c0 3-2.441 5.441-5.441 5.441H94.108c-4.143 0-7.5 3.358-7.5 7.5s3.357 7.5 7.5 7.5h199.463v7.295c0 4.142 3.357 7.5 7.5 7.5s7.5-3.358 7.5-7.5v-8.74c7.568-2.999 12.941-10.375 12.941-18.997v-9.631c0-11.271-9.17-20.441-20.441-20.441h-21.729v-4.663C279.342 10.625 268.718 0 255.659 0h-33.257c-13.06 0-23.684 10.625-23.684 23.684v4.663H20.452C9.181 28.347.011 37.517.011 48.788v9.631c0 8.622 5.374 15.998 12.941 18.997v96.814C5.384 177.23.01 184.606.01 193.229v9.631c0 8.622 5.374 15.998 12.941 18.997v96.814C5.384 321.67.01 329.046.01 337.668v9.631c0 8.622 5.374 15.998 12.941 18.997v96.814C5.384 466.109.01 473.486.01 482.108v9.631c0 11.271 9.17 20.441 20.441 20.441H231.15c4.143 0 7.5-3.358 7.5-7.5s-3.357-7.5-7.5-7.5H20.452c-3 0-5.441-2.441-5.441-5.441v-9.631c0-3 2.441-5.441 5.441-5.441h49.37c4.143 0 7.5-3.358 7.5-7.5s-3.357-7.5-7.5-7.5h-41.87v-93.925h211.674c4.143 0 7.5-3.358 7.5-7.5s-3.357-7.5-7.5-7.5H20.446a5.448 5.448 0 01-5.437-5.441v-9.631c0-3 2.441-5.441 5.441-5.441h219.174c4.143 0 7.5-3.358 7.5-7.5s-3.357-7.5-7.5-7.5H27.952v-93.926h211.674c4.143 0 7.5-3.358 7.5-7.5s-3.357-7.5-7.5-7.5H20.452c-3 0-5.441-2.441-5.441-5.441v-9.631a5.447 5.447 0 015.441-5.444zM213.718 23.684c0-4.789 3.896-8.684 8.684-8.684h33.257c4.788 0 8.684 3.896 8.684 8.684v4.663h-50.624v-4.663z"/><path d="M233.568 461.667H101.842c-4.143 0-7.5 3.358-7.5 7.5s3.357 7.5 7.5 7.5h131.726a7.5 7.5 0 000-15zM512.17 135.167v-9.337c0-9.469-7.704-17.173-17.173-17.173h-3.734V94.516c0-10.171-8.275-18.447-18.447-18.447h-28.052c-10.171 0-18.446 8.275-18.446 18.447v14.141H269.625c-9.469 0-17.173 7.704-17.173 17.173v9.337c0 6.778 3.957 12.634 9.673 15.425v117.334c-5.716 2.791-9.673 8.647-9.673 15.425v9.338c0 6.778 3.957 12.634 9.673 15.425v162.13c-5.716 2.791-9.673 8.647-9.673 15.425v9.337c0 9.469 7.704 17.173 17.173 17.173h225.372c9.469 0 17.173-7.704 17.173-17.173v-9.337c0-6.778-3.957-12.634-9.673-15.425v-162.13c5.716-2.791 9.673-8.647 9.673-15.425v-9.338c0-6.778-3.957-12.634-9.673-15.425V150.593c5.716-2.792 9.673-8.648 9.673-15.426zm-70.852-40.651a3.45 3.45 0 013.446-3.447h28.052c1.9 0 3.447 1.546 3.447 3.447v14.141h-34.945zM267.453 125.83c0-1.198.975-2.173 2.173-2.173h225.372c1.198 0 2.173.975 2.173 2.173v9.337a2.176 2.176 0 01-2.173 2.173H269.625a2.176 2.176 0 01-2.173-2.173v-9.337zM497.17 283.352v9.338a2.176 2.176 0 01-2.173 2.173h-37.216c-4.143 0-7.5 3.358-7.5 7.5s3.357 7.5 7.5 7.5h29.716v158.633H277.125V309.863h148.637c4.143 0 7.5-3.358 7.5-7.5s-3.357-7.5-7.5-7.5H269.625a2.176 2.176 0 01-2.173-2.173v-9.338c0-1.198.975-2.173 2.173-2.173h225.372c1.199 0 2.173.975 2.173 2.173zm-220.045-17.173V152.341h210.372v113.838zM497.17 495.007a2.176 2.176 0 01-2.173 2.173H269.625a2.176 2.176 0 01-2.173-2.173v-9.337c0-1.198.975-2.173 2.173-2.173h225.372c1.198 0 2.173.975 2.173 2.173z"/></svg><svg viewBox="0 0 24 24" id="barrel3" xmlns="http://www.w3.org/2000/svg"><path d="M19.5 24h-15a.5.5 0 01-.5-.5v-21a.5.5 0 01.5-.5h15a.5.5 0 01.5.5v21a.5.5 0 01-.5.5zM5 23h14V3H5z"/><path d="M17.5 3a.5.5 0 01-.5-.5V1h-3v1.5a.5.5 0 01-1 0v-2a.5.5 0 01.5-.5h4a.5.5 0 01.5.5v2a.5.5 0 01-.5.5z"/><path d="M20.5 3h-17a.5.5 0 010-1h17a.5.5 0 010 1zM20.5 24h-17a.5.5 0 010-1h17a.5.5 0 010 1zM20.5 8h-17a.5.5 0 010-1h17a.5.5 0 010 1zM20.5 19h-17a.5.5 0 010-1h17a.5.5 0 010 1zM12 17c-1.443 0-3-.987-3-2.583 0-1.354 2.172-4.175 2.607-4.727a.518.518 0 01.785 0c.436.552 2.608 3.372 2.608 4.727C15 16.013 13.443 17 12 17zm0-6.177c-.932 1.256-2 2.946-2 3.594C10 15.395 11.038 16 12 16s2-.605 2-1.583c0-.647-1.068-2.338-2-3.594z"/></svg><svg viewBox="0 0 512 512" id="calculator" xmlns="http://www.w3.org/2000/svg"><path d="M58 190.5h252c5.522 0 10-4.477 10-10v-113c0-5.523-4.478-10-10-10h-81c-5.522 0-10 4.477-10 10s4.478 10 10 10h71v93H68v-93h71c5.522 0 10-4.477 10-10s-4.478-10-10-10H58c-5.522 0-10 4.477-10 10v113c0 5.523 4.478 10 10 10zM409.086 231.167h18v18c0 5.523 4.478 10 10 10s10-4.477 10-10v-18h18c5.522 0 10-4.477 10-10s-4.478-10-10-10h-18v-18c0-5.523-4.478-10-10-10s-10 4.477-10 10v18h-18c-5.522 0-10 4.477-10 10s4.477 10 10 10zM212 214.5h-56c-5.522 0-10 4.477-10 10v44c0 5.523 4.478 10 10 10h56c5.522 0 10-4.477 10-10v-44c0-5.523-4.478-10-10-10zm-10 44h-36v-24h36zM114 214.5H58c-5.522 0-10 4.477-10 10v44c0 5.523 4.478 10 10 10h56c5.522 0 10-4.477 10-10v-44c0-5.523-4.478-10-10-10zm-10 44H68v-24h36zM310 214.5h-56c-5.522 0-10 4.477-10 10v44c0 5.523 4.478 10 10 10h56c5.522 0 10-4.477 10-10v-44c0-5.523-4.478-10-10-10zm-10 44h-36v-24h36zM212 302.5h-56c-5.522 0-10 4.477-10 10v44c0 5.523 4.478 10 10 10h56c5.522 0 10-4.477 10-10v-44c0-5.523-4.478-10-10-10zm-10 44h-36v-24h36zM114 302.5H58c-5.522 0-10 4.477-10 10v44c0 5.523 4.478 10 10 10h56c5.522 0 10-4.477 10-10v-44c0-5.523-4.478-10-10-10zm-10 44H68v-24h36zM212 390.5h-56c-5.522 0-10 4.477-10 10v44c0 5.523 4.478 10 10 10h56c5.522 0 10-4.477 10-10v-44c0-5.523-4.478-10-10-10zm-10 44h-36v-24h36zM114 390.5H58c-5.522 0-10 4.477-10 10v44c0 5.523 4.478 10 10 10h56c5.522 0 10-4.477 10-10v-44c0-5.523-4.478-10-10-10zm-10 44H68v-24h36z"/><path d="M184 77.5c2.63 0 5.21-1.07 7.069-2.93 1.86-1.86 2.931-4.44 2.931-7.07s-1.07-5.21-2.931-7.07A10.072 10.072 0 00184 57.5c-2.641 0-5.21 1.07-7.07 2.93S174 64.87 174 67.5s1.069 5.21 2.93 7.07 4.44 2.93 7.07 2.93z"/><path d="M502 312.5H368v-251c0-27.57-22.43-50-50-50H50c-27.57 0-50 22.43-50 50v389c0 27.57 22.43 50 50 50h452c5.522 0 10-4.477 10-10v-168c0-5.523-4.478-10-10-10zm-202 34h-36v-24h36zm0 88h-36v-24h36zm20-46h172v36H320zm172-20H320v-36h172zm-472 82v-389c0-16.542 13.458-30 30-30h268c16.542 0 30 13.458 30 30v251h-28c0-5.523-4.478-10-10-10h-56c-5.522 0-10 4.477-10 10v44c0 5.523 4.478 10 10 10h46v24h-46c-5.522 0-10 4.477-10 10v44c0 5.523 4.478 10 10 10h46v26H50c-16.542 0-30-13.458-30-30zm472 30H320v-36h172z"/></svg><svg version="1.1" id="call2" x="0" y="0" viewBox="0 0 28 30" xml:space="preserve" xmlns="http://www.w3.org/2000/svg"><style>.est0{fill-rule:evenodd;clip-rule:evenodd;fill:#f15a25}</style><path class="est0" d="M21.9 19.9c-.9-1-2.1-1-3.1 0-.7.7-1.3 1-2 1.7-.2.2-.4.2-.6.1-.5-.3-1-.5-1.4-.8-2.1-1.4-3.8-3.1-5.4-5.1-.8-1-1.4-2-1.9-3.2-.1-.2-.1-.4.1-.6l1.7-1.7c1-1 1-2.2 0-3.3-.6-.6-1.1-1.4-1.6-2-.5-.6-.8-1.4-1.4-2-.9-1-2.1-1-3.1 0-.6.9-1.3 1.7-2.1 2.4C.4 6 .1 6.9 0 7.8c-.1 1.6.3 3 .8 4.5 1.1 3 2.7 5.6 4.6 8 2.6 3.3 5.8 5.8 9.5 7.7 1.7.8 3.4 1.5 5.3 1.6 1.3.1 2.4-.3 3.3-1.3.6-.7 1.3-1.4 2-2 1-1 1-2.2 0-3.2-1.1-1.3-2.5-2-3.6-3.2zm-.5-5.4h.3c.6-.1 1-.7.8-1.3-.5-1.7-1.3-3.2-2.5-4.4-1.3-1.3-2.9-2.3-4.6-2.7-.6-.2-1.1.2-1.2.9v.3c-.1.5.3 1 .7 1.1 1.3.4 2.5 1.1 3.5 2.1.9 1 1.6 2.1 2 3.4 0 .4.5.7 1 .6zm2.5-9.8c-2.3-2.4-5.2-4-8.4-4.7-.6-.1-1.1.3-1.2.9v.3c-.1.5.3 1 .8 1.2 2.7.6 5.2 2 7.2 4 1.9 1.9 3.2 4.4 3.8 7 .1.5.6.9 1.1.8h.3c.6-.1.9-.7.8-1.3-.7-3.1-2.2-5.9-4.4-8.2z"/></svg><svg viewBox="0 0 512 512" id="discount" xmlns="http://www.w3.org/2000/svg"><path d="M489.996 202.88c-5.779-5.779-10.162-12.837-12.678-20.409a232.367 232.367 0 00-12.781-30.849c-3.608-7.197-5.516-15.32-5.516-23.522 0-41.424-33.7-75.124-75.154-75.124-8.172 0-16.295-1.908-23.491-5.515a232.214 232.214 0 00-30.85-12.781c-7.572-2.516-14.63-6.898-20.408-12.678C294.932 7.815 276.066 0 256 0c-20.066 0-38.932 7.815-53.121 22.005-5.778 5.778-12.835 10.161-20.408 12.676a232.597 232.597 0 00-30.849 12.78c-7.196 3.608-15.32 5.516-23.521 5.516-41.423 0-75.124 33.7-75.124 75.154 0 8.172-1.907 16.296-5.516 23.491a232.367 232.367 0 00-12.781 30.849c-2.514 7.572-6.899 14.63-12.678 20.408-29.29 29.291-29.29 76.95 0 106.24 5.779 5.779 10.162 12.837 12.678 20.409a232.367 232.367 0 0012.781 30.849c3.608 7.196 5.516 15.32 5.516 23.522 0 41.424 33.701 75.124 75.154 75.124 8.172 0 16.295 1.908 23.491 5.515a232.214 232.214 0 0030.85 12.781c7.572 2.516 14.63 6.898 20.408 12.678C217.068 504.185 235.934 512 256 512c20.066 0 38.932-7.815 53.12-22.004 5.779-5.779 12.836-10.162 20.409-12.678a232.597 232.597 0 0030.849-12.78c7.196-3.609 15.32-5.516 23.521-5.516 41.423 0 75.124-33.7 75.124-75.124v-.03c0-8.172 1.908-16.295 5.516-23.491a232.367 232.367 0 0012.781-30.849c2.514-7.572 6.899-14.63 12.678-20.408 29.289-29.291 29.289-76.949-.002-106.24zm-15.74 90.5c-8.215 8.215-14.462 18.289-18.062 29.133a210.283 210.283 0 01-11.553 27.886c-5.153 10.277-7.878 21.851-7.878 33.469v.03c0 29.148-23.715 52.863-52.893 52.863-11.618 0-23.193 2.724-33.47 7.878a210.329 210.329 0 01-27.886 11.553c-10.843 3.601-20.917 9.847-29.134 18.063-9.983 9.985-23.258 15.484-37.378 15.484s-27.395-5.498-37.379-15.484c-8.215-8.215-18.291-14.461-29.133-18.062a210.085 210.085 0 01-27.887-11.555c-10.277-5.153-21.851-7.877-33.499-7.877-29.148 0-52.863-23.715-52.863-52.893 0-11.619-2.724-23.194-7.878-33.469a209.96 209.96 0 01-11.553-27.886c-3.601-10.843-9.846-20.917-18.063-29.134-20.611-20.611-20.611-54.147 0-74.76 8.215-8.215 14.462-18.29 18.063-29.133A210.283 210.283 0 0167.363 161.6c5.153-10.276 7.878-21.85 7.878-33.5 0-29.148 23.714-52.863 52.893-52.863 11.618 0 23.192-2.724 33.47-7.878a210.329 210.329 0 0127.886-11.553c10.843-3.601 20.917-9.847 29.134-18.062 9.983-9.984 23.258-15.482 37.378-15.482s27.395 5.498 37.379 15.484c8.215 8.215 18.29 14.461 29.133 18.062a210.085 210.085 0 0127.887 11.555c10.277 5.153 21.851 7.877 33.499 7.877 29.148 0 52.863 23.715 52.863 52.893 0 11.618 2.725 23.193 7.878 33.469a210.093 210.093 0 0111.553 27.886c3.601 10.843 9.846 20.917 18.062 29.134 20.611 20.61 20.611 54.146 0 74.758z"/><path d="M352.914 159.086c-4.346-4.346-11.394-4.346-15.741 0L232.389 263.87c-4.346 4.346-4.346 11.394 0 15.742 2.174 2.173 5.022 3.26 7.87 3.26s5.698-1.087 7.87-3.26l104.784-104.784c4.347-4.346 4.347-11.394.001-15.742zM227.562 293.174a11.337 11.337 0 00-.634-2.081 11.723 11.723 0 00-1.024-1.924 11.971 11.971 0 00-1.38-1.693 11.695 11.695 0 00-1.692-1.379 11.783 11.783 0 00-1.926-1.024 11.214 11.214 0 00-2.081-.634 11.031 11.031 0 00-4.352 0 11.267 11.267 0 00-5.699 3.037 11.204 11.204 0 00-1.38 1.693 11.237 11.237 0 00-1.658 4.005 11.066 11.066 0 00-.223 2.182c0 .723.078 1.448.223 2.17.145.713.356 1.415.634 2.081.278.667.623 1.313 1.024 1.926.401.601.868 1.18 1.38 1.692.512.512 1.091.979 1.692 1.38a11.29 11.29 0 006.189 1.879c.723 0 1.447-.077 2.17-.221a11.344 11.344 0 002.081-.634 11.902 11.902 0 001.926-1.024 11.769 11.769 0 001.692-1.38 11.85 11.85 0 001.38-1.692c.401-.613.746-1.259 1.024-1.926s.49-1.368.634-2.081c.145-.722.211-1.447.211-2.17 0-.733-.066-1.458-.211-2.182zM200.907 311.092c-4.346-4.345-11.394-4.345-15.741 0l-26.08 26.081c-4.346 4.346-4.346 11.394 0 15.742a11.098 11.098 0 007.87 3.26c2.848 0 5.698-1.087 7.87-3.26l26.08-26.081c4.347-4.346 4.347-11.394.001-15.742zM200.907 156.386c-24.549 0-44.522 19.972-44.522 44.522 0 24.549 19.972 44.522 44.522 44.522 24.549 0 44.522-19.972 44.522-44.522-.001-24.55-19.973-44.522-44.522-44.522zm0 66.783c-12.275 0-22.261-9.986-22.261-22.261 0-12.275 9.987-22.261 22.261-22.261 12.275 0 22.261 9.986 22.261 22.261-.001 12.274-9.987 22.261-22.261 22.261zM311.093 266.571c-24.549 0-44.522 19.972-44.522 44.522s19.972 44.522 44.522 44.522c24.549 0 44.522-19.972 44.522-44.522 0-24.55-19.972-44.522-44.522-44.522zm0 66.782c-12.275 0-22.261-9.986-22.261-22.261s9.986-22.261 22.261-22.261 22.261 9.986 22.261 22.261-9.987 22.261-22.261 22.261z"/></svg><svg viewBox="0 0 512 512" id="documents" xmlns="http://www.w3.org/2000/svg"><path d="M446.605 124.392L326.608 4.395A15.02 15.02 0 00316 0H106C81.187 0 61 20.187 61 45v422c0 24.813 20.187 45 45 45h300c24.813 0 45-20.187 45-45V135c0-4.09-1.717-7.931-4.395-10.608zM331 51.213L399.787 120H346c-8.271 0-15-6.729-15-15zM406 482H106c-8.271 0-15-6.729-15-15V45c0-8.271 6.729-15 15-15h195v75c0 24.813 20.187 45 45 45h75v317c0 8.271-6.729 15-15 15z"/><path d="M346 212H166c-8.284 0-15 6.716-15 15s6.716 15 15 15h180c8.284 0 15-6.716 15-15s-6.716-15-15-15zM346 272H166c-8.284 0-15 6.716-15 15s6.716 15 15 15h180c8.284 0 15-6.716 15-15s-6.716-15-15-15zM346 332H166c-8.284 0-15 6.716-15 15s6.716 15 15 15h180c8.284 0 15-6.716 15-15s-6.716-15-15-15zM286 392H166c-8.284 0-15 6.716-15 15s6.716 15 15 15h120c8.284 0 15-6.716 15-15s-6.716-15-15-15z"/></svg><svg viewBox="0 0 97.75 97.75" id="facebook" xmlns="http://www.w3.org/2000/svg"><path d="M48.875 0C21.882 0 0 21.882 0 48.875S21.882 97.75 48.875 97.75 97.75 75.868 97.75 48.875 75.868 0 48.875 0zm18.646 24.89l-6.76.003c-5.301 0-6.326 2.519-6.326 6.215v8.15h12.641l-.006 12.765H54.436v32.758H41.251V52.023H30.229V39.258h11.022v-9.414c0-10.925 6.675-16.875 16.42-16.875l9.851.015V24.89h-.001z"/></svg><svg viewBox="0 0 271.87 452.77" id="ic-arrow" xmlns="http://www.w3.org/2000/svg"><g data-name="Слой 2"><path d="M45.78 0a43.94 43.94 0 0131.9 13.33l181 181c17.62 17.62 17.62 46.19 0 64.29l-181 181c-17.62 17.62-46.19 17.62-64.29 0s-17.62-46.19 0-64.29l149.06-149.12L13.87 77.15C-3.75 59.53-3.75 31 13.87 12.86A45.43 45.43 0 0145.78 0z" data-name="Layer 1"/></g></svg><svg viewBox="0 0 97.75 97.75" id="insta" xmlns="http://www.w3.org/2000/svg"><ellipse cx="48.944" cy="48.719" rx="14.465" ry="14.017"/><path d="M71.333 49.501c0 11.981-10.024 21.692-22.389 21.692s-22.389-9.711-22.389-21.692c0-2.147.324-4.221.924-6.18h-6.616v30.427a2.87 2.87 0 002.863 2.863h50.159a2.871 2.871 0 002.865-2.863V43.321h-6.341c.599 1.959.924 4.033.924 6.18zM65.332 35.11h8.141a3.25 3.25 0 003.242-3.242v-7.762a3.25 3.25 0 00-3.242-3.243h-8.141a3.25 3.25 0 00-3.243 3.243v7.762a3.25 3.25 0 003.243 3.242z"/><path d="M48.875 0C21.882 0 0 21.882 0 48.875S21.882 97.75 48.875 97.75 97.75 75.868 97.75 48.875 75.868 0 48.875 0zm26.77 84.891H22.106c-5.087 0-9.246-3.765-9.246-9.244V22.105c0-5.481 4.159-9.245 9.246-9.245h53.539c5.086 0 9.246 3.764 9.246 9.245v53.542c0 5.479-4.161 9.244-9.246 9.244z"/></svg><svg viewBox="0 0 16 13" id="mail" xmlns="http://www.w3.org/2000/svg"><defs><style>.kecls-1{fill:#222;fill-rule:evenodd}</style></defs><path class="kecls-1" d="M14 13H2a2 2 0 01-2-2V2a2 2 0 012-2h12a2 2 0 012 2v9a2 2 0 01-2 2zM3.534 2l4.481 4.482L12.5 2H3.534zM14 3.5L8.827 8.671a1.047 1.047 0 01-.812.3 1.047 1.047 0 01-.811-.3L2 3.467V11h12V3.5z"/></svg><svg viewBox="0 0 13 16" id="marker" xmlns="http://www.w3.org/2000/svg"><defs><style>.lacls-1{fill-rule:evenodd}</style></defs><path data-name="Ellipse 74 copy" class="lacls-1" d="M11.9 9.916h.03L7 16H6L1.067 9.916h.03a6.262 6.262 0 01-1.1-3.541 6.5 6.5 0 0113 0A6.262 6.262 0 0111.9 9.916zM6.5 2a4.5 4.5 0 00-3.741 7h-.012l3.542 4.447h.422L10.289 9h-.049A4.5 4.5 0 006.5 2zm0 6A1.5 1.5 0 118 6.5 1.5 1.5 0 016.5 8z"/></svg><svg viewBox="0 -94 512.018 512" id="oil" xmlns="http://www.w3.org/2000/svg"><path d="M230.414 76.809a25.548 25.548 0 00-24.336 18.066L77.344 39.687c-22.121-9.496-47.778-4.785-65.082 11.95L7.285 56.44a23.82 23.82 0 00-7.27 17.211 24.223 24.223 0 0012.176 20.914 24.373 24.373 0 0029.27-4.472l1.195-1.192a8.525 8.525 0 016.832-2.507 8.529 8.529 0 016.285 3.675l106.23 155.836a42.62 42.62 0 0035.25 18.637h186.763a25.76 25.76 0 0019.226-8.629l102.485-113.758a25.598 25.598 0 004.64-25.847L484.77 48.043a25.45 25.45 0 00-15.07-15.035 25.786 25.786 0 00-20.77 1.34l-100.098 42.46H315.75V51.208c14.137 0 25.598-11.46 25.598-25.598 0-14.14-11.461-25.601-25.598-25.601h-51.203c-14.137 0-25.598 11.46-25.598 25.601 0 14.137 11.461 25.598 25.598 25.598v25.602zm120.152 17.066c1.141 0 2.274-.227 3.325-.672l102.058-43.266c.266-.12.531-.238.785-.374a8.503 8.503 0 017.051-.524 8.5 8.5 0 015 4.996l25.602 68.266a8.53 8.53 0 01-1.426 8.531L390.516 244.539a8.595 8.595 0 01-6.5 2.938H197.254a25.606 25.606 0 01-21.152-11.188L69.844 80.418a25.6 25.6 0 00-39.254-3.582l-1.195 1.191a7.44 7.44 0 01-8.696 1.707 7.125 7.125 0 01-3.617-6.082 6.889 6.889 0 012.09-4.957l4.95-4.78c12.382-11.935 30.706-15.298 46.515-8.532l139.351 59.73c1.117.239 2.239.469 3.36.692a8.758 8.758 0 003.234-.657 69.948 69.948 0 002.723-1.808 8.35 8.35 0 001.535-2.219c.094-.18.258-.297.332-.484.2-.598.328-1.211.387-1.836.148-.492.257-1 .324-1.512v-4.879a8.533 8.533 0 018.531-8.535zm-94.55-68.266a8.533 8.533 0 018.53-8.535h51.204c4.71 0 8.531 3.82 8.531 8.535 0 4.711-3.82 8.532-8.531 8.532h-51.203a8.532 8.532 0 01-8.531-8.532zm25.597 25.598h17.07v25.602h-17.07zm0 0"/><path d="M383.684 214.29a12.713 12.713 0 0014.097-3.364l73.684-81.492a12.807 12.807 0 002.492-13.082l-12.664-33.844a12.803 12.803 0 00-16.691-7.406l-61.024 24.355a12.752 12.752 0 00-8.098 11.902v90.985a12.72 12.72 0 008.204 11.945zm8.863-100.036l54.289-21.676 10.242 27.309-64.531 71.379zm0 0M59.75 324.277c15.95.36 31.355-5.816 42.637-17.097s17.457-26.688 17.093-42.637c0-27.836-33.808-72.934-46.84-87.973a17.575 17.575 0 00-25.777 0C33.824 191.61.016 236.707.016 264.543a58.418 58.418 0 0059.734 59.734zm0-136.535c17.203 19.856 42.664 58.028 42.664 76.801a41.257 41.257 0 01-12.062 30.602 41.257 41.257 0 01-30.602 12.062 41.266 41.266 0 01-42.668-42.664c0-18.773 25.465-56.934 42.668-76.8zm0 0M256.016 110.941h-8.536a8.533 8.533 0 00-8.53 8.536c0 4.71 3.82 8.53 8.53 8.53h8.536c4.71 0 8.53-3.82 8.53-8.53a8.533 8.533 0 00-8.53-8.536zm0 0M281.613 119.477c0 4.71 3.824 8.53 8.535 8.53h34.133a8.533 8.533 0 100-17.066h-34.133a8.536 8.536 0 00-8.535 8.536zm0 0"/><path d="M48.52 289.707a8.535 8.535 0 008.367-1.719 8.549 8.549 0 002.699-8.105 8.551 8.551 0 00-5.676-6.39c-6.484-2.157-7.492-5.052-7.824-5.973a21.895 21.895 0 013.71-15.36 8.534 8.534 0 10-14.214-9.445A38.16 38.16 0 0029.934 273a27.11 27.11 0 0018.586 16.707zm0 0"/></svg><svg viewBox="0 0 512 512" id="right-arrow" xmlns="http://www.w3.org/2000/svg"><path d="M506.134 241.843l-.018-.019-104.504-104c-7.829-7.791-20.492-7.762-28.285.068-7.792 7.829-7.762 20.492.067 28.284L443.558 236H20c-11.046 0-20 8.954-20 20s8.954 20 20 20h423.557l-70.162 69.824c-7.829 7.792-7.859 20.455-.067 28.284 7.793 7.831 20.457 7.858 28.285.068l104.504-104 .018-.019c7.833-7.818 7.808-20.522-.001-28.314z"/></svg><svg viewBox="0 0 512 512" id="route" xmlns="http://www.w3.org/2000/svg"><path d="M94.744 296.184C85.927 301.414 80 311.026 80 322c0 16.542 13.458 30 30 30 13.036 0 24.152-8.361 28.28-20H216c16.542 0 30 13.458 30 30s-13.458 30-30 30H96c-27.57 0-50 22.43-50 50s22.43 50 50 50h100c5.523 0 10-4.477 10-10s-4.477-10-10-10H96c-16.542 0-30-13.458-30-30s13.458-30 30-30h120c27.57 0 50-22.43 50-50s-22.43-50-50-50h-77.72a30.15 30.15 0 00-13.024-15.816l76.378-125.316C213.649 152.808 220 131.764 220 110 220 49.346 170.654 0 110 0S0 49.346 0 110c0 21.764 6.351 42.808 18.366 60.868zM110 332c-5.514 0-10-4.486-10-10s4.486-10 10-10 10 4.486 10 10-4.486 10-10 10zm0-312c49.626 0 90 40.374 90 90 0 17.868-5.227 35.135-15.115 49.935a9.078 9.078 0 00-.224.351L110 282.785S35.192 160.05 35.115 159.935C25.227 145.135 20 127.868 20 110c0-49.626 40.374-90 90-90z"/><path d="M110 160c27.57 0 50-22.43 50-50s-22.43-50-50-50-50 22.43-50 50 22.43 50 50 50zm0-80c16.542 0 30 13.458 30 30s-13.458 30-30 30-30-13.458-30-30 13.458-30 30-30zM402 166c-60.654 0-110 49.346-110 110 0 21.799 6.371 42.875 18.424 60.954l76.093 119.36A30.154 30.154 0 00373.721 472H286c-5.523 0-10 4.477-10 10s4.477 10 10 10h87.72c4.128 11.639 15.243 20 28.28 20 16.542 0 30-13.458 30-30 0-10.881-5.823-20.426-14.516-25.686l76.093-119.36C505.629 318.875 512 297.799 512 276c0-60.654-49.346-110-110-110zm0 326c-5.514 0-10-4.486-10-10s4.486-10 10-10 10 4.486 10 10-4.486 10-10 10zm74.885-166.065L402 443.397s-74.846-117.403-74.885-117.462C317.227 311.135 312 293.868 312 276c0-49.626 40.374-90 90-90s90 40.374 90 90c0 17.868-5.227 35.135-15.115 49.935z"/><path d="M402 226c-27.57 0-50 22.43-50 50s22.43 50 50 50 50-22.43 50-50-22.43-50-50-50zm0 80c-16.542 0-30-13.458-30-30s13.458-30 30-30 30 13.458 30 30-13.458 30-30 30z"/><circle cx="241" cy="482" r="10"/></svg><svg viewBox="0 0 21 16" id="send" xmlns="http://www.w3.org/2000/svg"><path data-name="Rounded Rectangle 873 copy 3" class="pcls-1" d="M21 .856a.949.949 0 010 .226v.02a.955.955 0 01-.112.357L15.93 12.342a.927.927 0 01-.046.153.974.974 0 01-.179.214.974.974 0 01-.28.2c-.017.008-.032.019-.05.026a.972.972 0 01-.267.063 1.07 1.07 0 01-.127.012.989.989 0 01-.213-.036 1.01 1.01 0 01-.132-.022c-.021-.009-.035-.027-.056-.036s-.036-.007-.052-.016l-3.133-1.8-3.523 4.4a22.232 22.232 0 01-.2.229.96.96 0 01-.218.147 1.048 1.048 0 01-.1.047.975.975 0 01-.3.06c-.019 0-.035.011-.054.011h-.026a.968.968 0 01-.293-.06.821.821 0 01-.1-.033.792.792 0 01-.082-.028.906.906 0 01-.131-.116.73.73 0 01-.233-.284.887.887 0 01-.069-.142 1.032 1.032 0 01-.043-.213A.964.964 0 016 15V8.014L.68 4.964a.979.979 0 01-.618-.621 1.19 1.19 0 01-.044-.118c0-.014-.012-.024-.014-.039a.749.749 0 010-.082.966.966 0 011.118-1.112L19.851 0c.027 0 .052.005.078 0s.047 0 .071 0a.98.98 0 01.307.037.906.906 0 01.089.042.96.96 0 01.233.128 1.008 1.008 0 01.122.13.957.957 0 01.119.15c.011.018.029.029.039.048a1 1 0 01.059.212.661.661 0 01.028.074.226.226 0 01.004.035zm-6.453 9.739l3.332-7.314-8.3 4.467zM8 12.17l1.651-2.064L8 9.16v3.01zm-.462-5.59l6.83-3.676L4.009 4.557z"/></svg><svg viewBox="0 0 512 512" id="seo" xmlns="http://www.w3.org/2000/svg"><path d="M32 168H16v-32a40.045 40.045 0 0140-40h272V80h-16a8 8 0 01-5.657-13.657l48-48a8 8 0 0111.314 0l48 48A8 8 0 01408 80h-16v16h32a40.045 40.045 0 0140 40v160h-16V136a24.028 24.028 0 00-24-24h-32v144h-16V72a8 8 0 018-8h4.687L360 35.313 331.313 64H336a8 8 0 018 8v192h-16V112H56a24.028 24.028 0 00-24 24zm24 248h133.247l-19.2 64H152v16h176v-16h-18.047l-10.29-34.3-15.326 4.6 8.911 29.7h-106.5l19.2-64H264v-16H56a24.028 24.028 0 01-24-24v-8h224v-16H32V184H16v192a40.045 40.045 0 0040 40zm240-136V152h-32v184H56v-16h32v-64a8 8 0 018-8h48a8 8 0 018 8v64h16V200a8 8 0 018-8h48a8 8 0 018 8v120h16V144a8 8 0 018-8h48a8 8 0 018 8v136zm-160-16h-32v56h32zm80-56h-32v112h32zM56 128v16h16v-16zm48 0H88v16h16zm16 0v16h16v-16zm368.967 327.033A24.167 24.167 0 01496 472a23.978 23.978 0 01-24 24 24.5 24.5 0 01-16.967-7.033l-38.293-38.292a96.074 96.074 0 1133.935-33.935zM448 368a80 80 0 10-80 80 80.091 80.091 0 0080-80zm29.652 98.348l-36.387-36.389a96.887 96.887 0 01-11.306 11.306l36.389 36.387a7.993 7.993 0 1011.3-11.3zM432 368a64 64 0 11-64-64 64.072 64.072 0 0164 64zm-16 0a48 48 0 10-48 48 48.053 48.053 0 0048-48zm-80 0h16a16.019 16.019 0 0116-16v-16a32.036 32.036 0 00-32 32zM440 64h16a48.053 48.053 0 00-48-48v16a32.036 32.036 0 0132 32z"/></svg><svg viewBox="0 -10 511.987 511" id="star" xmlns="http://www.w3.org/2000/svg"><path d="M510.652 185.902a27.158 27.158 0 00-23.425-18.71l-147.774-13.419-58.433-136.77C276.71 6.98 266.898.494 255.996.494s-20.715 6.487-25.023 16.534l-58.434 136.746-147.797 13.418A27.208 27.208 0 001.34 185.902c-3.371 10.368-.258 21.739 7.957 28.907l111.7 97.96-32.938 145.09c-2.41 10.668 1.73 21.696 10.582 28.094 4.757 3.438 10.324 5.188 15.937 5.188 4.84 0 9.64-1.305 13.95-3.883l127.468-76.184 127.422 76.184c9.324 5.61 21.078 5.097 29.91-1.305a27.223 27.223 0 0010.582-28.094l-32.937-145.09 111.699-97.94a27.224 27.224 0 007.98-28.927zm0 0" fill="#ffc107"/></svg><svg viewBox="0 0 512.001 512.001" id="startup" xmlns="http://www.w3.org/2000/svg"><path d="M268.662 243.351a10 10 0 00-14.15 0c-3.9 3.9-3.9 10.23 0 14.14 3.91 3.9 10.24 3.9 14.15 0 3.9-3.91 3.9-10.24 0-14.14zM395.933 116.07c-19.54-19.539-51.172-19.54-70.713 0-19.489 19.489-19.49 51.209.003 70.714 19.496 19.484 51.216 19.492 70.71-.002 19.538-19.538 19.542-51.171 0-70.712zm-14.142 56.569c-11.693 11.694-30.727 11.694-42.426.002-11.695-11.702-11.696-30.736-.002-42.429 11.723-11.723 30.703-11.725 42.428 0 11.723 11.722 11.725 30.703 0 42.427z"/><path d="M509.07 2.929a9.965 9.965 0 00-7.43-2.922c-2.261.081-56.096 2.245-120.091 24.864-51.28 18.106-94.023 44.029-127.042 77.049a380.537 380.537 0 00-21.488 23.396c-32.648-19.218-58.81-13.192-75.349-4.341-38.081 20.38-61.652 75.716-61.652 115.296a10.007 10.007 0 0010.001 10 10 10 0 007.073-2.929c20.083-20.083 44.854-18.827 52.946-17.763l3.502 3.502c-6.892 16.4-12.444 32.708-16.516 48.569-1.47 5.74-.974 11.814 1.211 17.37-9.628 4.437-18.917 10.952-27.005 19.04-25.741 25.742-30.968 88.476-31.178 91.134a10 10 0 0010.755 10.756c2.658-.209 65.394-5.436 91.135-31.177 8.085-8.085 14.599-17.373 19.036-26.999 5.882 2.313 11.936 2.598 17.38 1.203 15.854-4.071 32.16-9.621 48.562-16.514l3.502 3.502c1.063 8.093 2.319 32.864-17.763 52.945a10 10 0 007.071 17.07c39.58 0 94.915-23.571 115.295-61.652 8.851-16.537 14.877-42.699-4.341-75.348a380.674 380.674 0 0023.396-21.488c33.02-33.02 58.942-75.763 77.048-127.039 22.62-63.998 24.783-117.834 24.864-120.094.1-2.775-.959-5.466-2.922-7.43zM118.376 214.762c6.212-30.063 24.255-63.052 48.735-76.154 16.359-8.754 34.24-7.896 53.252 2.511a404.33 404.33 0 00-42.015 68.487c-.149-.092-1.949-2.355-5.293-3.109-1.375-.311-27.834-6.002-54.679 8.265zM183.8 370.63c-13.75 13.75-46.005 21.002-66.392 23.963 2.962-20.388 10.215-52.642 23.964-66.391 7.7-7.7 16.628-13.538 25.602-16.826l33.652 33.652c-3.288 8.974-9.125 17.902-16.826 25.602zm45.59-31.027c-2.894.741-6.246-.347-8.738-2.835l-19.586-19.585-25.826-25.827c-2.494-2.499-3.582-5.85-2.843-8.739 3.203-12.474 7.392-25.272 12.486-38.193l82.695 82.695c-12.923 5.095-25.719 9.283-38.188 12.484zm144.004 5.288c-13.102 24.479-46.09 42.523-76.152 48.734 9.585-18.037 11.698-40.998 8.196-54.921-.813-3.234-2.923-4.86-3.041-5.051a404.48 404.48 0 0068.486-42.015c10.407 19.014 11.264 36.897 2.511 53.253zM395.94 243.35a362.965 362.965 0 01-28.84 25.872c-24.342 19.6-51.134 36.202-79.718 49.418l-94.02-94.018c13.216-28.586 29.818-55.378 49.416-79.717 8.164-10.133 16.868-19.837 25.875-28.843 29.625-29.626 67.859-53.204 113.671-70.176l83.792 83.792c-16.97 45.811-40.548 84.045-70.176 113.672zm77.371-134.763l-69.896-69.896c38.081-11.828 71.21-16.257 87.746-17.849-1.593 16.539-6.023 49.668-17.85 87.745z"/><path d="M240.371 413.049c-3.907-3.905-10.239-3.903-14.143.002l-28.28 28.29c-3.904 3.906-3.903 10.238.002 14.142 3.907 3.904 10.239 3.904 14.143-.002l28.28-28.29c3.904-3.906 3.903-10.238-.002-14.142zM98.954 271.631c-3.904-3.906-10.235-3.906-14.142-.002l-28.29 28.28c-3.906 3.904-3.907 10.236-.003 14.142 3.903 3.904 10.234 3.908 14.142.002l28.29-28.28c3.906-3.904 3.907-10.236.003-14.142zM169.663 427.2c-3.903-3.905-10.236-3.905-14.142-.001l-67.74 67.73c-3.906 3.905-3.906 10.237-.001 14.142 3.903 3.905 10.236 3.907 14.142.001l67.74-67.73c3.906-3.905 3.906-10.237.001-14.142zM89.663 427.2c-3.904-3.905-10.237-3.905-14.142-.001l-67.74 67.73c-3.906 3.905-3.906 10.237-.001 14.142 3.903 3.905 10.236 3.907 14.142.001l67.74-67.73c3.906-3.905 3.906-10.237.001-14.142zM84.802 342.338c-3.904-3.904-10.237-3.904-14.142.001l-67.73 67.74c-3.905 3.906-3.905 10.237.001 14.143 3.905 3.905 10.237 3.905 14.142-.001l67.73-67.74c3.905-3.906 3.905-10.237-.001-14.143zM311.083 200.919c-3.906-3.905-10.236-3.905-14.143 0l-14.14 14.14c-3.905 3.905-3.905 10.237 0 14.143 3.906 3.905 10.237 3.905 14.143 0l14.14-14.14c3.905-3.905 3.905-10.237 0-14.143z"/></svg><svg viewBox="0 0 512 512" id="twitter" xmlns="http://www.w3.org/2000/svg"><path d="M256 0C114.637 0 0 114.637 0 256s114.637 256 256 256 256-114.637 256-256S397.363 0 256 0zm116.887 199.602c.113 2.52.168 5.05.168 7.593 0 77.645-59.102 167.18-167.184 167.184h.004-.004c-33.184 0-64.062-9.727-90.066-26.395 4.597.543 9.277.813 14.015.813 27.532 0 52.868-9.39 72.98-25.152-25.722-.477-47.41-17.465-54.894-40.813a58.481 58.481 0 0011.043 1.063c5.363 0 10.559-.723 15.496-2.07-26.886-5.384-47.14-29.145-47.14-57.598 0-.266 0-.504.007-.75a58.354 58.354 0 0026.614 7.347c-15.778-10.527-26.149-28.523-26.149-48.91a58.597 58.597 0 017.957-29.535c28.977 35.555 72.282 58.937 121.118 61.394a58.708 58.708 0 01-1.528-13.398c0-32.437 26.317-58.754 58.766-58.754 16.902 0 32.168 7.145 42.89 18.567a117.855 117.855 0 0037.313-14.262c-4.395 13.715-13.707 25.222-25.84 32.5 11.887-1.422 23.215-4.574 33.742-9.254a119.412 119.412 0 01-29.308 30.43zm0 0"/></svg><svg viewBox="0 0 97.75 97.75" id="youtube" xmlns="http://www.w3.org/2000/svg"><path d="M25.676 52.482h3.875v20.973h3.666V52.482h3.947v-3.435H25.676zM56.674 55.046c-1.212 0-2.343.662-3.406 1.972v-7.972h-3.295v24.409h3.295v-1.762c1.103 1.361 2.233 2.013 3.406 2.013 1.311 0 2.193-.69 2.633-2.044.221-.771.334-1.982.334-3.665v-7.242c0-1.722-.113-2.924-.334-3.655-.439-1.364-1.323-2.054-2.633-2.054zm-.33 13.209c0 1.644-.482 2.454-1.434 2.454-.541 0-1.092-.259-1.643-.811V58.814c.551-.545 1.102-.803 1.643-.803.951 0 1.434.842 1.434 2.482v7.762zM43.824 69.167c-.731 1.033-1.422 1.542-2.084 1.542-.44 0-.691-.259-.771-.771-.03-.106-.03-.508-.03-1.28v-13.39h-3.296v14.379c0 1.285.111 2.153.291 2.705.331.922 1.063 1.354 2.123 1.354 1.213 0 2.457-.732 3.767-2.234v1.984h3.298V55.268h-3.298v13.899zM46.653 38.466c1.073 0 1.588-.851 1.588-2.551v-7.731c0-1.701-.515-2.548-1.588-2.548-1.074 0-1.59.848-1.59 2.548v7.731c0 1.701.516 2.551 1.59 2.551z"/><path d="M48.875 0C21.882 0 0 21.882 0 48.875S21.882 97.75 48.875 97.75 97.75 75.868 97.75 48.875 75.868 0 48.875 0zm5.436 22.86h3.321v13.532c0 .781 0 1.186.04 1.295.073.516.335.78.781.78.666 0 1.365-.516 2.104-1.559V22.86h3.33v18.379h-3.33v-2.004c-1.326 1.52-2.59 2.257-3.805 2.257-1.072 0-1.812-.435-2.146-1.365-.184-.557-.295-1.436-.295-2.733V22.86zm-12.578 5.993c0-1.965.334-3.401 1.042-4.33.921-1.257 2.218-1.885 3.878-1.885 1.668 0 2.964.628 3.885 1.885.698.928 1.032 2.365 1.032 4.33v6.436c0 1.954-.334 3.403-1.032 4.322-.921 1.254-2.217 1.881-3.885 1.881-1.66 0-2.957-.627-3.878-1.881-.708-.919-1.042-2.369-1.042-4.322v-6.436zm-8.906-12.277l2.622 9.685 2.519-9.685h3.735L37.26 31.251v9.989h-3.692v-9.989c-.335-1.77-1.074-4.363-2.259-7.803-.778-2.289-1.589-4.585-2.367-6.872h3.885zm42.359 58.485c-.668 2.899-3.039 5.039-5.894 5.358-6.763.755-13.604.759-20.42.755-6.813.004-13.658 0-20.419-.755-2.855-.319-5.227-2.458-5.893-5.358-.951-4.129-.951-8.638-.951-12.89s.012-8.76.962-12.89c.667-2.9 3.037-5.04 5.892-5.358 6.762-.755 13.606-.759 20.421-.755 6.813-.004 13.657 0 20.419.755 2.855.319 5.227 2.458 5.896 5.358.948 4.13.942 8.638.942 12.89s-.004 8.761-.955 12.89z"/><path d="M67.17 55.046c-1.686 0-2.995.619-3.947 1.864-.699.92-1.018 2.342-1.018 4.285v6.371c0 1.933.357 3.365 1.059 4.276.951 1.242 2.264 1.863 3.988 1.863 1.721 0 3.072-.651 3.984-1.972.4-.584.66-1.245.77-1.975a25.5 25.5 0 00.07-2.124v-.479h-3.361c0 1.32-.043 2.053-.072 2.232-.188.881-.662 1.321-1.473 1.321-1.132 0-1.686-.84-1.686-2.522V64.96h6.592v-3.767c0-1.943-.329-3.365-1.02-4.285-.921-1.242-2.232-1.862-3.886-1.862zm1.612 7.172h-3.296v-1.683c0-1.682.553-2.523 1.654-2.523 1.09 0 1.642.842 1.642 2.523v1.683z"/></svg></svg>