<svg width="28" height="17" viewBox="0 0 28 17" fill="none" xmlns="http://www.w3.org/2000/svg">
<g clip-path="url(#clip0_363_959)">
<path d="M10.2148 1.81836H17.7857V15.1822H10.2148V1.81836Z" fill="#FF5F00"/>
<path d="M10.6953 8.5C10.6953 5.78472 11.9931 3.37639 13.988 1.81806C12.5219 0.684722 10.6712 0 8.65236 0C3.86953 0 0 3.80139 0 8.5C0 13.1986 3.86953 17 8.65236 17C10.6712 17 12.5219 16.3153 13.988 15.1819C11.9931 13.6236 10.6953 11.2153 10.6953 8.5Z" fill="#EB001B"/>
<path d="M28.0003 8.5C28.0003 13.1986 24.1308 17 19.3479 17C17.3291 17 15.4784 16.3153 14.0123 15.1819C16.0072 13.6236 17.305 11.2153 17.305 8.5C17.305 5.78472 16.0072 3.37639 13.9883 1.81806C15.4784 0.684722 17.3291 0 19.3479 0C24.1308 0 28.0003 3.80139 28.0003 8.5Z" fill="#F79E1B"/>
</g>
<defs>
<clipPath id="clip0_363_959">
<rect width="28" height="17" fill="white"/>
</clipPath>
</defs>
</svg>
