<svg width="64" height="18" fill="none" xmlns="http://www.w3.org/2000/svg"><g clip-path="url(#clip0_363_969)"><path d="M35.644 1.909l-4.043 8.746h-.412V0h-5.763v18h4.867a3.279 3.279 0 002.978-1.909l4.044-8.746h.412V18h5.739V0h-4.867a3.27 3.27 0 00-2.955 1.909zm-21.55.459l-2.398 8.287h-.412L8.887 2.368A3.29 3.29 0 005.739 0H0v18h5.739V7.37h.412L9.444 18h4.092L16.83 7.345h.412V18h5.739V0H17.24c-1.453 0-2.76.966-3.148 2.368zM45.96 8.19v9.833h5.739v-5.75h6.175A6.143 6.143 0 0063.66 8.19h-17.7z" fill="#319B42"/><path d="M57.85 0H45.136c.775 4.18 4.455 7.37 8.862 7.37h9.88c.073-.387.121-.798.121-1.233C64 2.754 61.24 0 57.85 0z" fill="url(#paint0_linear_363_969)"/></g><defs><linearGradient id="paint0_linear_363_969" x1="45.129" y1="3.684" x2="64.001" y2="3.684" gradientUnits="userSpaceOnUse"><stop stop-color="#00A3E1"/><stop offset=".304" stop-color="#009ADD"/><stop offset=".799" stop-color="#0082D4"/><stop offset="1" stop-color="#0076CF"/></linearGradient><clipPath id="clip0_363_969"><path fill="#fff" d="M0 0h64v18H0z"/></clipPath></defs></svg>