<svg width="28" height="17" fill="none" xmlns="http://www.w3.org/2000/svg"><g clip-path="url(#clip0_363_964)"><path d="M10.215 1.818h7.57v13.364h-7.57V1.818z" fill="#7673C0"/><path d="M10.695 8.5c0-2.715 1.298-5.124 3.293-6.682A8.697 8.697 0 008.652 0C3.87 0 0 3.801 0 8.5S3.87 17 8.652 17c2.02 0 3.87-.685 5.336-1.818-1.995-1.558-3.293-3.967-3.293-6.682z" fill="#EB001B"/><path d="M28 8.5c0 4.699-3.87 8.5-8.652 8.5a8.697 8.697 0 01-5.336-1.818c1.995-1.558 3.293-3.967 3.293-6.682 0-2.715-1.298-5.124-3.317-6.682A8.82 8.82 0 0119.348 0C24.13 0 28 3.801 28 8.5z" fill="#00A1DF"/></g><defs><clipPath id="clip0_363_964"><path fill="#fff" d="M0 0h28v17H0z"/></clipPath></defs></svg>