<svg width="26" height="24" fill="none" xmlns="http://www.w3.org/2000/svg"><g clip-path="url(#clip0_220_41)"><path d="M21.144 0H4.332C2.19 0 .452 1.697.452 3.79v16.42c0 2.093 1.737 3.79 3.88 3.79h16.812c2.143 0 3.88-1.697 3.88-3.79V3.79c0-2.093-1.737-3.79-3.88-3.79z" fill="url(#paint0_linear_220_41)"/><path opacity=".1" d="M23.569.832c-1.702 4.172-4.817 8.729-9.072 12.884-4.255 4.156-8.922 7.199-13.193 8.863a3.712 3.712 0 01-.852-2.369V3.79c0-1.006.41-1.97 1.137-2.68A3.927 3.927 0 014.332 0h16.812a3.913 3.913 0 012.425.832z" fill="#fff"/><path d="M15.648 5.684h-5.82a3.6 3.6 0 00-2.514 1.018 3.433 3.433 0 00-1.042 2.456v5.684c0 .921.375 1.805 1.042 2.456a3.6 3.6 0 002.514 1.018h5.82a3.6 3.6 0 002.515-1.018 3.433 3.433 0 001.041-2.456V9.158a3.43 3.43 0 00-1.041-2.456 3.6 3.6 0 00-2.515-1.018zm2.425 8.659c0 .76-.31 1.49-.86 2.028-.55.537-1.297.84-2.076.84H10.34a2.972 2.972 0 01-2.076-.84 2.834 2.834 0 01-.86-2.028V9.657c0-.76.31-1.49.86-2.028a2.971 2.971 0 012.076-.84h4.798c.779 0 1.525.302 2.076.84.55.538.86 1.267.86 2.028v4.686z" fill="#fff"/><path d="M15.097 9.72l-.031-.03-.026-.025a3.3 3.3 0 00-3.57-.674 3.322 3.322 0 00-1.071.71 3.234 3.234 0 00-.712 1.057A3.174 3.174 0 009.444 12a3.261 3.261 0 002.038 3.009c.4.163.83.246 1.263.245a3.406 3.406 0 001.82-.57 3.29 3.29 0 001.204-1.447c.25-.587.319-1.232.2-1.857a3.246 3.246 0 00-.872-1.66zm-2.359 4.42a2.23 2.23 0 01-1.226-.345 2.154 2.154 0 01-.82-.955 2.094 2.094 0 01-.138-1.24c.081-.416.287-.8.593-1.103a2.2 2.2 0 011.121-.595 2.24 2.24 0 011.271.117c.402.161.747.435.989.788.242.353.371.768.371 1.193a2.08 2.08 0 01-.16.815 2.121 2.121 0 01-.466.693c-.2.199-.44.357-.703.466a2.22 2.22 0 01-.832.167zm4.272-5.554a.755.755 0 01-.227.547.79.79 0 01-1.324-.391.762.762 0 01.045-.446.782.782 0 01.288-.348.81.81 0 01.436-.136.79.79 0 01.5.177l.016.016a.49.49 0 01.071.07l.018.019a.767.767 0 01.178.492z" fill="#fff"/></g><defs><linearGradient id="paint0_linear_220_41" x1="1.589" y1="1.11" x2="23.363" y2="23.402" gradientUnits="userSpaceOnUse"><stop stop-color="#FAE100"/><stop offset=".15" stop-color="#FCB720"/><stop offset=".3" stop-color="#FF7950"/><stop offset=".5" stop-color="#FF1C74"/><stop offset="1" stop-color="#6C1CD1"/></linearGradient><clipPath id="clip0_220_41"><path fill="#fff" transform="translate(.452)" d="M0 0h24.571v24H0z"/></clipPath></defs></svg>