<svg width="44" height="41" fill="none" xmlns="http://www.w3.org/2000/svg"><path opacity=".1" d="M8.585 10.738v27.905c0 .87 1.156 1.306 1.832.69l4.737-4.308a3.389 3.389 0 012.277-.858h23.35c1.777 0 3.219-1.311 3.219-2.929v-20.5c0-1.617-1.442-2.928-3.22-2.928H11.805c-1.778 0-3.22 1.31-3.22 2.928z" fill="#2970E1"/><path d="M7.598 25.903h0L2.073 30.93V5.857c0-2.056 1.864-3.88 4.366-3.88h23.61c2.502 0 4.366 1.824 4.366 3.88v15.62c0 2.056-1.864 3.88-4.366 3.88H9.029a2.13 2.13 0 00-1.43.546z" stroke="#2970E1" stroke-width="2"/><path d="M10.658 16.595V16.1c0-.693.283-1.378.823-1.919l-.665-.663.665.663 3.616-3.623v6.037c0 .44-.422.953-1.146.953h-2.146c-.725 0-1.147-.514-1.147-.953zm10.732 0V16.1c0-.693.283-1.378.823-1.919 0 0 0 0 0 0l3.617-3.623v6.037c0 .44-.422.953-1.147.953h-2.146c-.724 0-1.146-.514-1.146-.953z" stroke="#2970E1" stroke-width="2"/></svg>