<?xml version="1.0" encoding="iso-8859-1"?><svg viewBox="0 0 512 512" xmlns="http://www.w3.org/2000/svg" xmlns:xlink="http://www.w3.org/1999/xlink"><style>:root>svg{display:none}:root>svg:target{display:block}</style><svg viewBox="0 0 512 512" id="arrow" xmlns="http://www.w3.org/2000/svg"><path d="M506.134 241.843l-.018-.019-104.504-104c-7.829-7.791-20.492-7.762-28.285.068-7.792 7.829-7.762 20.492.067 28.284L443.558 236H20c-11.046 0-20 8.954-20 20s8.954 20 20 20h423.557l-70.162 69.824c-7.829 7.792-7.859 20.455-.067 28.284 7.793 7.831 20.457 7.858 28.285.068l104.504-104 .018-.019c7.833-7.818 7.808-20.522-.001-28.314z"/></svg><svg class="bb24-crm-button-icon" viewBox="0 0 28 30" id="call2" xmlns="http://www.w3.org/2000/svg"><path class="bb24-crm-button-call-icon" fill="#fff" fill-rule="evenodd" d="M21.872 19.905c-.947-.968-2.13-.968-3.072 0-.718.737-1.256.974-1.962 1.723-.193.206-.356.25-.591.112-.465-.262-.96-.474-1.407-.761-2.082-1.355-3.827-3.097-5.372-5.057-.767-.974-1.449-2.017-1.926-3.19-.096-.238-.078-.394.109-.587.718-.718.96-.98 1.666-1.717.984-1.024.984-2.223-.006-3.253-.561-.586-1.104-1.397-1.562-2.034-.457-.637-.816-1.393-1.402-1.986C5.4 2.2 4.217 2.2 3.275 3.16c-.725.737-1.419 1.492-2.155 2.216C.438 6.045.093 6.863.02 7.818c-.115 1.555.254 3.022.773 4.452 1.062 2.959 2.68 5.587 4.642 7.997 2.65 3.259 5.813 5.837 9.513 7.698 1.666.836 3.392 1.48 5.27 1.585 1.291.075 2.414-.262 3.313-1.304.616-.712 1.31-1.361 1.962-2.042.966-1.011.972-2.235.012-3.234-1.147-1.192-2.48-1.879-3.634-3.065zm-.49-5.36l.268-.047c.583-.103.953-.707.79-1.295a10.395 10.395 0 00-2.537-4.445 9.826 9.826 0 00-4.589-2.708c-.575-.15-1.149.248-1.231.855l-.038.28c-.07.522.253 1.01.747 1.142a7.614 7.614 0 013.517 2.086 7.996 7.996 0 011.953 3.412.99.99 0 001.12.72zm2.559-9.85C21.619 2.292 18.74.69 15.56.02 15-.097 14.46.303 14.382.888l-.038.28a1.027 1.027 0 00.786 1.15c2.739.584 5.218 1.968 7.217 4.03a14.86 14.86 0 013.803 7.012c.122.53.617.873 1.136.781l.265-.047c.569-.1.933-.678.8-1.259a17.276 17.276 0 00-4.41-8.14z"/></svg><svg viewBox="0 0 26 26" id="close" xmlns="http://www.w3.org/2000/svg"><path clip-rule="evenodd" d="M20.03 7.052L18.947 5.97 13 11.92 7.052 5.97 5.971 7.052 11.919 13 5.97 18.948l1.081 1.081L13 14.081l5.948 5.948 1.081-1.081L14.082 13l5.947-5.948z"/></svg><svg viewBox="0 0 16 13" id="mail" xmlns="http://www.w3.org/2000/svg"><defs><style>.decls-1{fill:#222;fill-rule:evenodd}</style></defs><path class="decls-1" d="M14 13H2a2 2 0 01-2-2V2a2 2 0 012-2h12a2 2 0 012 2v9a2 2 0 01-2 2zM3.534 2l4.481 4.482L12.5 2H3.534zM14 3.5L8.827 8.671a1.047 1.047 0 01-.812.3 1.047 1.047 0 01-.811-.3L2 3.467V11h12V3.5z"/></svg><svg fill="none" viewBox="0 0 15 12" id="mailw" xmlns="http://www.w3.org/2000/svg"><path fill-rule="evenodd" clip-rule="evenodd" d="M13.125 12H1.875a1.89 1.89 0 01-1.326-.54A1.832 1.832 0 010 10.153V1.846c0-.49.198-.96.55-1.305A1.89 1.89 0 011.874 0h11.25c.497 0 .974.195 1.326.54.351.347.549.817.549 1.306v8.308c0 .49-.197.96-.55 1.305a1.89 1.89 0 01-1.325.541zM3.313 1.846l4.201 4.137 4.205-4.137H3.313zm9.812 1.385l-4.85 4.773a.984.984 0 01-.76.277.996.996 0 01-.761-.277L1.875 3.2v6.954h11.25V3.23z" fill="#fff"/></svg><svg viewBox="0 0 24 24" id="mall" xmlns="http://www.w3.org/2000/svg"><path d="M19 6h-2c0-2.76-2.24-5-5-5S7 3.24 7 6H5c-1.1 0-2 .9-2 2v12c0 1.1.9 2 2 2h14c1.1 0 2-.9 2-2V8c0-1.1-.9-2-2-2zm-7-3c1.66 0 3 1.34 3 3H9c0-1.66 1.34-3 3-3zm7 17H5V8h14v12zm-7-8c-1.66 0-3-1.34-3-3H7c0 2.76 2.24 5 5 5s5-2.24 5-5h-2c0 1.66-1.34 3-3 3z"/></svg><svg viewBox="0 0 13 16" id="marker" xmlns="http://www.w3.org/2000/svg"><defs><style>.gacls-1{fill-rule:evenodd}</style></defs><path data-name="Ellipse 74 copy" class="gacls-1" d="M11.9 9.916h.03L7 16H6L1.067 9.916h.03a6.262 6.262 0 01-1.1-3.541 6.5 6.5 0 0113 0A6.262 6.262 0 0111.9 9.916zM6.5 2a4.5 4.5 0 00-3.741 7h-.012l3.542 4.447h.422L10.289 9h-.049A4.5 4.5 0 006.5 2zm0 6A1.5 1.5 0 118 6.5 1.5 1.5 0 016.5 8z"/></svg><svg fill="none" viewBox="0 0 5 9" id="more" xmlns="http://www.w3.org/2000/svg"><g clip-path="url(#hclip0_265_383)"><path d="M.842 0a.756.756 0 01.319.067c.1.046.192.113.268.198l3.329 3.598a.961.961 0 010 1.278l-3.33 3.598a.797.797 0 01-1.182 0c-.333-.35-.324-.919 0-1.278l2.742-2.965L.255 1.534a.961.961 0 010-1.278A.804.804 0 01.842 0z" fill="#84D2C4"/></g><defs><clipPath id="hclip0_265_383"><path fill="#fff" d="M0 0h5v9H0z"/></clipPath></defs></svg><svg viewBox="0 0 24 24" id="question" xmlns="http://www.w3.org/2000/svg"><path d="M0 0h24v24H0V0z" fill="none"/><path d="M15 4v7H5.17l-.59.59-.58.58V4h11m1-2H3c-.55 0-1 .45-1 1v14l4-4h10c.55 0 1-.45 1-1V3c0-.55-.45-1-1-1zm5 4h-2v9H6v2c0 .55.45 1 1 1h11l4 4V7c0-.55-.45-1-1-1z"/></svg><svg viewBox="0 0 14 14" id="ws" xmlns="http://www.w3.org/2000/svg"><path d="M7.002 0h-.004C3.138 0 0 3.14 0 7c0 1.531.493 2.95 1.333 4.103l-.873 2.6 2.69-.86A6.94 6.94 0 007.003 14C10.862 14 14 10.86 14 7s-3.139-7-6.998-7zm4.073 9.885c-.169.477-.84.872-1.374.988-.366.078-.843.14-2.452-.527-2.057-.852-3.381-2.943-3.485-3.078-.099-.136-.831-1.107-.831-2.112 0-1.004.51-1.493.716-1.703.169-.173.448-.251.715-.251.087 0 .165.004.235.007.206.01.309.022.444.346.17.407.58 1.411.63 1.515.05.103.1.243.03.379-.066.14-.124.202-.227.32-.104.12-.202.21-.305.338-.094.112-.201.23-.082.436.119.202.53.873 1.136 1.412.781.695 1.415.918 1.641 1.012.17.07.37.053.494-.078.156-.169.35-.449.547-.724.14-.198.316-.223.502-.153.189.066 1.189.56 1.395.663.205.103.34.152.39.239.05.086.05.493-.12.97z"/></svg><svg fill="none" viewBox="0 0 15 14" id="wsw" xmlns="http://www.w3.org/2000/svg"><g clip-path="url(#kclip0_0_23)"><path d="M7.708 0h-.004C3.853 0 .721 3.14.721 7c0 1.531.492 2.95 1.33 4.103l-.871 2.6 2.685-.86A6.915 6.915 0 007.708 14c3.851 0 6.984-3.14 6.984-7s-3.133-7-6.984-7zm4.065 9.885c-.169.477-.838.872-1.371.988-.365.078-.842.14-2.447-.527-2.053-.852-3.375-2.943-3.478-3.078-.099-.136-.83-1.107-.83-2.112 0-1.004.51-1.493.715-1.703.168-.173.447-.251.714-.251.086 0 .164.004.234.007.205.01.308.022.444.346.168.407.579 1.411.627 1.515.05.103.1.243.03.379-.065.14-.123.202-.226.32-.103.12-.2.21-.304.338-.094.112-.2.23-.082.436.119.202.53.873 1.133 1.412.78.695 1.412.918 1.639 1.012.168.07.369.053.492-.078.156-.169.35-.449.546-.724.14-.198.316-.223.501-.153.189.066 1.187.56 1.392.663.205.103.34.152.39.239.05.086.05.493-.12.97z" fill="#fff"/></g><defs><clipPath id="kclip0_0_23"><path fill="#fff" transform="translate(.72)" d="M0 0h13.971v14H0z"/></clipPath></defs></svg><svg viewBox="0 0 550.801 550.801" id="xls" xmlns="http://www.w3.org/2000/svg"><path d="M488.432 197.019h-13.226v-63.816c0-.398-.063-.799-.111-1.205-.021-2.531-.833-5.021-2.568-6.992L366.325 3.694c-.032-.031-.063-.042-.085-.076-.633-.707-1.371-1.295-2.151-1.804-.231-.155-.464-.285-.706-.422a11.325 11.325 0 00-2.131-.896c-.2-.053-.38-.135-.58-.188A10.828 10.828 0 00358.193 0H97.2C85.282 0 75.6 9.693 75.6 21.601v175.413H62.377c-17.049 0-30.873 13.818-30.873 30.873v160.545c0 17.038 13.824 30.87 30.873 30.87h13.224V529.2c0 11.907 9.682 21.601 21.6 21.601h356.4c11.907 0 21.6-9.693 21.6-21.601V419.302h13.226c17.044 0 30.871-13.827 30.871-30.87v-160.54c-.001-17.06-13.818-30.873-30.866-30.873zM97.2 21.601h250.193v110.51c0 5.967 4.841 10.8 10.8 10.8H453.6v54.108H97.2V21.601zm242.362 332.743v31.324H236.509V220.704h37.46v133.64h65.593zM74.25 385.663l47.73-83.458-46.019-81.501h42.833l14.439 30.099c4.899 10.03 8.572 18.116 12.49 27.414h.483c3.926-10.529 7.101-17.872 11.259-27.414l13.954-30.099h42.588l-46.509 80.525 48.961 84.438h-43.081l-14.929-29.858c-6.115-11.507-10.036-20.07-14.684-29.615h-.49c-3.431 9.55-7.583 18.119-12.722 29.615l-13.711 29.858H74.25v-.004zm379.351 137.69H97.2V419.302h356.4v104.051zm-51.638-135.228c-18.837 0-37.446-4.904-46.738-10.04l7.578-30.839c10.04 5.136 25.46 10.283 41.375 10.283 17.139 0 26.188-7.099 26.188-17.867 0-10.283-7.831-16.157-27.659-23.256-27.411-9.55-45.282-24.722-45.282-48.718 0-28.15 23.498-49.684 62.427-49.684 18.594 0 32.305 3.927 42.093 8.322l-8.322 30.109c-6.607-3.186-18.361-7.834-34.509-7.834-16.152 0-23.983 7.338-23.983 15.913 0 10.525 9.291 15.18 30.591 23.258 29.125 10.769 42.836 25.936 42.836 49.191-.013 27.664-21.301 51.162-66.595 51.162z" data-original="#000000"/></svg></svg>