<svg xmlns="http://www.w3.org/2000/svg" viewBox="0 0 382.11 91.2"><defs><style>.a{fill:#fff}</style></defs><path class="a" d="M382.11 41.49v28.09h-13.73v-6.75h-.18a15.31 15.31 0 01-14 7.9q-6.84 0-10.76-3.88t-3.93-10.35q0-13.68 16.21-15.79L368.48 39q0-7.71-8.36-7.71a28.48 28.48 0 00-16 5V25.38a35.72 35.72 0 018.28-2.75 43.41 43.41 0 019.57-1.2q20.15 0 20.14 20.06zm-13.63 9v-3.17l-8.54 1.1q-7.07.93-7.07 6.38a5.24 5.24 0 001.72 4.06 6.6 6.6 0 004.66 1.59 8.58 8.58 0 006.65-2.82 10.2 10.2 0 002.58-7.14zM316.29 22.58h14.5v47h-14.5z"/><path d="M331.99 7.62a7 7 0 01-2.32 5.38 8.67 8.67 0 01-6 2.11 8.48 8.48 0 01-6-2.18 7 7 0 01-2.34-5.35 6.8 6.8 0 012.34-5.33 9.84 9.84 0 0112.05 0 6.84 6.84 0 012.27 5.37z" fill="#e52424"/><path class="a" d="M301.97 27.68q4.9 6.24 4.91 17.07 0 11.74-5.74 18.87a18.68 18.68 0 01-15.36 7.11q-8.67 0-13.12-6.61h-.19v5.46h-14.5V0h14.5v29.65h.19a17.2 17.2 0 0115.28-8.22q9.12 0 14.03 6.25zm-12.69 28.11c1.82-2.56 2.73-6.17 2.73-10.86 0-3.88-.84-6.92-2.5-9.11a8.47 8.47 0 00-7.14-3.28 9.22 9.22 0 00-7.23 3.26 12.38 12.38 0 00-2.87 8.49v4.82a11 11 0 002.62 7.53 8.5 8.5 0 006.7 3 8.91 8.91 0 007.69-3.85zM251.25 22.31v13.35a12.55 12.55 0 00-6.1-1.42 8.78 8.78 0 00-7.37 3.47q-2.67 3.47-2.67 9.43v22.44h-14.5v-47h14.5v8.72h.19q3.44-9.54 12.39-9.54a9.3 9.3 0 013.56.55zM211.96 44.11v6.1H181.3q.73 10.24 12.9 10.24a25.25 25.25 0 0013.63-3.67v10.46q-6.51 3.49-16.94 3.49-11.37 0-17.67-6.31t-6.28-17.6q0-11.72 6.79-18.55a22.64 22.64 0 0116.71-6.84q10.28 0 15.9 6.11t5.62 16.57zm-30.75-2.8h17.3q0-10.1-8.17-10.1a7.79 7.79 0 00-6 2.89 13.14 13.14 0 00-3.13 7.21zM155.35 27.7q5 6.27 5 17.05 0 11.74-5.81 18.87a18.94 18.94 0 01-15.45 7.11q-8.49 0-12.94-6.61h-.18V91.2h-14.53V22.58h14.51v7.07h.18a17 17 0 0115.1-8.22q9.13 0 14.12 6.27zm-12.63 28.09c1.82-2.56 2.73-6.17 2.73-10.86q0-12.39-9.63-12.39a9.06 9.06 0 00-7.28 3.38 13.43 13.43 0 00-2.82 8.92v3.77a11.94 11.94 0 002.57 7.94 8.36 8.36 0 006.75 3.07 8.89 8.89 0 007.68-3.83zM99.24 22.58v47H84.78v-7.16h-.23q-5.37 8.31-14.37 8.31-16.33 0-16.34-19.73V22.58H68.3v27.08q0 10 7.89 10a7.83 7.83 0 006.25-2.73 11 11 0 002.34-7.45v-26.9zM43.97 44.09a18.74 18.74 0 011.2 7 18.75 18.75 0 01-2.09 9.25 16.82 16.82 0 01-5.67 6.06 24.42 24.42 0 01-8.33 3.33 48.38 48.38 0 01-10 1 55.9 55.9 0 01-10.3-.92 31.1 31.1 0 01-8.5-2.75V52.37a28.11 28.11 0 0018.13 6.7 21.45 21.45 0 004.89-.5 11.64 11.64 0 003.48-1.4 6.09 6.09 0 002.09-2.11 5.31 5.31 0 00.69-2.64 5.75 5.75 0 00-1.1-3.42 11.85 11.85 0 00-3-2.8 31.22 31.22 0 00-4.52-2.47q-2.61-1.2-5.64-2.44-7.72-3.24-11.52-7.88a17.1 17.1 0 01-3.79-11.2 17.79 17.79 0 012.07-8.83A17.59 17.59 0 017.69 7.3a25.24 25.24 0 018.24-3.51 42.32 42.32 0 019.91-1.13 59.92 59.92 0 019.11.62 35.57 35.57 0 017.33 1.91v13.72a22.87 22.87 0 00-3.61-2 30 30 0 00-4-1.45 30.59 30.59 0 00-4.11-.84 28.12 28.12 0 00-3.88-.28 20.34 20.34 0 00-4.59.48 11.77 11.77 0 00-3.49 1.36 6.68 6.68 0 00-2.2 2.08 5 5 0 00-.79 2.74 5.25 5.25 0 00.87 3 10 10 0 002.48 2.47 26.28 26.28 0 003.9 2.3q2.3 1.13 5.19 2.32a57.83 57.83 0 017.09 3.51 25.4 25.4 0 015.39 4.2 16.2 16.2 0 013.44 5.29z"/></svg>