<?xml version="1.0" encoding="utf-8"?><svg viewBox="0 0 512.01 512.01" xmlns="http://www.w3.org/2000/svg" xmlns:xlink="http://www.w3.org/1999/xlink"><style>:root>svg{display:none}:root>svg:target{display:block}</style><svg viewBox="0 0 512 512" id="automation" xmlns="http://www.w3.org/2000/svg"><path d="M482.993 289.135c-5.263-1.661-10.883 1.261-12.546 6.528-8.239 26.117-24.939 49.561-47.024 66.011-22.833 17.007-49.999 25.998-78.558 25.999h-.015c-72.602-.004-131.666-59.071-131.666-131.673 0-72.604 59.068-131.673 131.673-131.673 56.906 0 107.148 36.273 125.022 90.26 1.736 5.243 7.395 8.086 12.636 6.35 5.243-1.736 8.087-7.393 6.351-12.636a151.398 151.398 0 00-134.009-103.643V94.475c0-19.838-16.14-35.978-35.978-35.978H151.732C146.876 25.452 118.345 0 83.972 0c-37.77 0-68.497 30.728-68.497 68.497s30.728 68.497 68.497 68.497c34.372 0 62.904-25.451 67.76-58.497H318.88c8.81 0 15.978 7.167 15.978 15.978v10.191C259.176 109.617 198.473 170.319 193.522 246h-41.791c-4.856-33.045-33.387-58.497-67.76-58.497-37.338 0-68.497 31.159-68.497 68.497 0 37.769 30.728 68.497 68.497 68.497 33.504 0 62.944-25.283 67.773-58.497h41.777c4.951 75.681 65.654 136.384 141.335 141.335v10.19c0 8.81-7.168 15.978-15.978 15.978H151.732c-4.856-33.045-33.387-58.497-67.76-58.497-37.77 0-68.497 30.728-68.497 68.497S46.203 512 83.972 512c34.373 0 62.904-25.452 67.76-58.497H318.88c19.838 0 35.978-16.14 35.978-35.978v-10.179c29.224-1.885 56.88-12.03 80.513-29.633 25.795-19.214 44.521-45.506 54.151-76.033 1.66-5.267-1.263-10.884-6.529-12.545zM83.972 116.994c-26.741 0-48.497-21.756-48.497-48.497S57.231 20 83.972 20s48.497 21.755 48.497 48.497c0 26.741-21.755 48.497-48.497 48.497zm34.293 173.298c-9.16 9.16-21.339 14.204-34.293 14.204-26.741 0-48.497-21.755-48.497-48.497 0-26.438 22.058-48.497 48.497-48.497 26.741 0 48.497 21.755 48.497 48.497 0 12.955-5.045 25.134-14.204 34.293zM83.972 492c-26.741 0-48.497-21.756-48.497-48.497s21.756-48.497 48.497-48.497 48.497 21.755 48.497 48.497S110.714 492 83.972 492z"/><path d="M496.333 254.05c-1.797-8.855-14.026-10.901-18.501-2.975-2.179 3.86-1.524 8.863 1.631 11.995 2.955 2.933 7.513 3.747 11.288 1.987 4.118-1.92 6.487-6.543 5.582-11.007zM425.339 252.803l7.896-4.553a22.62 22.62 0 0010.608-13.832 22.626 22.626 0 00-2.28-17.278l-14.701-25.462a22.635 22.635 0 00-13.824-10.611 22.614 22.614 0 00-17.288 2.275l-7.886 4.558c-2.235 1.289-5.53-.603-5.53-3.189v-9.12c0-12.556-10.215-22.77-22.771-22.77h-29.41c-12.555 0-22.77 10.214-22.77 22.77v9.11c0 2.581-3.279 4.499-5.526 3.203l-7.891-4.561c-10.871-6.281-24.828-2.541-31.113 8.338l-14.699 25.458c-6.281 10.873-2.547 24.83 8.334 31.116l7.877 4.542c2.214 1.281 2.243 5.112.014 6.402l-7.898 4.555c-10.873 6.282-14.607 20.239-8.327 31.109l14.702 25.462c6.283 10.875 20.239 14.617 31.112 8.335l7.886-4.558c2.243-1.295 5.53.612 5.53 3.2v9.11c0 12.556 10.215 22.77 22.77 22.77h29.41c12.556 0 22.771-10.214 22.771-22.77v-9.11c0-2.582 3.277-4.498 5.525-3.202l7.892 4.561c5.27 3.045 11.409 3.851 17.287 2.274a22.642 22.642 0 0013.825-10.613l14.698-25.457a22.624 22.624 0 002.282-17.28 22.628 22.628 0 00-10.607-13.832l-.007-.004-7.878-4.543c-2.217-1.283-2.242-5.114-.013-6.403zm-9.993 23.72l7.883 4.546a2.787 2.787 0 011.013 3.792l-14.699 25.458c-.76 1.315-2.467 1.787-3.786 1.024l-7.895-4.562c-15.405-8.896-35.529 2.771-35.529 20.52v9.11a2.774 2.774 0 01-2.771 2.77h-29.41a2.774 2.774 0 01-2.77-2.77v-9.11c0-17.731-20.113-29.422-35.534-20.518l-7.888 4.559a2.778 2.778 0 01-3.788-1.021l-14.702-25.463a2.774 2.774 0 011.007-3.784l7.904-4.558c15.343-8.88 15.323-32.164-.014-41.039l-7.883-4.545a2.779 2.779 0 01-1.013-3.792l14.698-25.457a2.78 2.78 0 013.788-1.025l7.895 4.563c15.405 8.894 35.529-2.771 35.529-20.521v-9.11a2.773 2.773 0 012.77-2.77h29.41a2.774 2.774 0 012.771 2.77v9.12c0 17.748 20.137 29.395 35.533 20.508l7.89-4.56c1.319-.76 3.026-.294 3.786 1.021l14.701 25.462c.76 1.313.309 3.025-1.007 3.785l-7.901 4.557c-15.342 8.879-15.324 32.166.012 41.04z"/><path d="M352.808 217.295a39.51 39.51 0 00-7.956-.805c-21.487 0-39.504 18.034-39.504 39.51 0 21.474 18.018 39.51 39.504 39.51 21.507 0 39.514-18.004 39.514-39.51 0-19.062-13.571-35.015-31.558-38.705zm-7.951 58.214c-10.603 0-19.505-8.921-19.505-19.509 0-10.586 8.898-19.509 19.505-19.509 10.61 0 19.505 8.887 19.505 19.509 0 10.615-8.887 19.509-19.505 19.509z"/></svg><svg preserveAspectRatio="xMidYMid" viewBox="0 0 11 14" id="call" xmlns="http://www.w3.org/2000/svg"><path d="M11.012 11.977c.013-.062.027-.123.014-.191-.02-.198-.41-.487-.566-.614-.441-.394-.892-.78-1.322-1.18-.198-.192-.422-.519-.695-.579-.539-.12-1.682 1.296-2.159 1.189-.239-.053-.498-.341-.683-.511-1.408-1.246-2.273-2.6-2.807-4.397-.076-.239-.228-.595-.175-.833.107-.474 1.881-.9 2.001-1.436.061-.273-.141-.613-.231-.873-.181-.557-.341-1.127-.511-1.691C3.829.666 3.731.192 3.559.09 3.503.049 3.442.036 3.38.022c-.318-.071-.968-.068-1.289-.001-.474.088-.867.517-1.177.863-.399.456-.685.946-.817 1.534-.183.818-.013 1.63.094 2.438.074.579.196 1.151.388 1.701.593 1.699 1.999 3.903 3.294 5.16.419.407.887.76 1.383 1.073.689.439 1.357.938 2.178 1.121.592.132 1.159.083 1.743-.083.447-.131 1.005-.302 1.287-.691.197-.26.477-.844.548-1.16z" class="bcls-2"/></svg><svg viewBox="0 0 512.01 512.01" id="down-arrow" xmlns="http://www.w3.org/2000/svg"><path d="M504.958 5.514c-7.104-6.464-17.643-7.317-25.749-2.176L255.998 145.375 32.787 3.338C24.702-1.782 14.184-.929 7.038 5.514a21.364 21.364 0 00-4.8 25.365l234.667 469.333a21.357 21.357 0 0019.093 11.797 21.355 21.355 0 0019.093-11.797L509.758 30.879a21.304 21.304 0 00-4.8-25.365z"/></svg><svg viewBox="0 0 512 512" id="mail" xmlns="http://www.w3.org/2000/svg"><path d="M467 61H45c-6.927 0-13.412 1.703-19.279 4.51L255 294.789l51.389-49.387.005-.007.005-.004L486.286 65.514C480.418 62.705 473.929 61 467 61zM507.496 86.728L338.213 256.002 507.49 425.279c2.807-5.867 4.51-12.352 4.51-19.279V106c0-6.923-1.699-13.407-4.504-19.272zM4.51 86.721C1.703 92.588 0 99.073 0 106v300c0 6.923 1.701 13.409 4.506 19.274L173.789 256 4.51 86.721z"/><path d="M317.002 277.213l-51.396 49.393c-2.93 2.93-6.768 4.395-10.605 4.395s-7.676-1.465-10.605-4.395L195 277.211 25.714 446.486C31.582 449.295 38.071 451 45 451h422c6.927 0 13.412-1.703 19.279-4.51L317.002 277.213z"/></svg><svg viewBox="-66 0 511 511.999" id="medal" xmlns="http://www.w3.org/2000/svg"><path d="M40.5 190c0 82.71 67.29 150 150 150s150-67.29 150-150-67.29-150-150-150-150 67.29-150 150zm150-130c71.684 0 130 58.316 130 130s-58.316 130-130 130-130-58.316-130-130 58.316-130 130-130zm0 0"/><path d="M97.89 172.172l38.762 38.191-8.918 53.676a9.997 9.997 0 003.989 9.73 10.004 10.004 0 0010.484.786l48.293-25.078 48.29 25.078a9.996 9.996 0 0010.483-.785 9.997 9.997 0 003.989-9.73l-8.918-53.677 38.761-38.191a9.993 9.993 0 002.493-10.215 10.007 10.007 0 00-8.024-6.797l-53.793-8.097-24.34-48.676a9.997 9.997 0 00-17.886 0l-24.34 48.676-53.793 8.097a10.001 10.001 0 00-5.531 17.012zm67.438-6.106c3.219-.484 6-2.504 7.457-5.414L190.5 125.22l17.715 35.433a10.004 10.004 0 007.457 5.414l39.152 5.895-28.215 27.793a10.018 10.018 0 00-2.847 8.766l6.492 39.066-35.149-18.25a10.003 10.003 0 00-9.215 0l-35.148 18.25 6.492-39.066a9.996 9.996 0 00-2.847-8.766l-28.211-27.793zm0 0M200.5 10c0 5.523-4.477 10-10 10s-10-4.477-10-10 4.477-10 10-10 10 4.477 10 10zm0 0"/><path d="M143.371 5.895C59.25 27.367.5 103.075.5 190c0 53.988 22.7 104.86 62.547 140.887L2.8 437.062a10.002 10.002 0 0010.73 14.727l68.418-14.207 24.047 67.762a9.997 9.997 0 0018.113 1.597L190.5 390.223l66.387 116.718a9.996 9.996 0 008.687 5.055c.293 0 .59-.012.883-.035a10.014 10.014 0 008.547-6.617l24.043-67.762 68.418 14.207c3.844.797 7.8-.73 10.113-3.902a9.994 9.994 0 00.617-10.825L317.95 330.887c39.848-36.028 62.547-86.899 62.547-140.887 0-86.926-58.75-162.633-142.867-184.105a9.998 9.998 0 00-12.164 7.214c-1.367 5.352 1.863 10.797 7.215 12.164C307.937 44.484 360.5 112.223 360.5 190c0 94.66-76.879 170-170 170-93.188 0-170-75.402-170-170 0-77.777 52.559-145.516 127.816-164.727 5.352-1.367 8.582-6.812 7.22-12.164a9.998 9.998 0 00-12.165-7.214zm-25.836 472.16l-19.652-55.38a10 10 0 00-11.457-6.448l-55.324 11.488 47.68-84.031c27.8 20.21 60.718 32.523 94.948 35.57zm177.035-61.828a10.003 10.003 0 00-11.457 6.449l-19.648 55.379-56.2-98.801c34.235-3.047 67.15-15.36 94.954-35.57l47.68 84.03zm0 0"/></svg></svg>