<svg xmlns="http://www.w3.org/2000/svg" viewBox="0 0 78 96" fill="none"><path d="M50.57 78.102l.758-4.942c-3.954-.606-8.972-7.088-11.627-9.893a5.114 5.114 0 00-5.956-.897c-3.353 1.905-10.093 6.545-14.047 5.939l-.758 4.942 31.63 4.851zm-12.328-25.16c.417.064 2.643-3.493 5.296-4.713l6.05-2.999c.84-.423 1.636-.93 2.375-1.514-9.97 2.346-15.45-5.405-23.833-3.453l-.042.003a13.943 13.943 0 001.639 1.921s3.652 3.51 4.874 4.674c2.244 2.137 2.884 5.965 3.64 6.082z" fill="#E5162D"/><path d="M33.206 38.122a31.457 31.457 0 016.479 1.957 30.708 30.708 0 006.283 1.906c1.843.29 3.725.214 5.539-.22l3.096-.729a13.987 13.987 0 002.607-6.228l1.85-12.058-31.63-4.852-1.85 12.06a13.986 13.986 0 001.332 8.385l.921-.068a14.361 14.361 0 015.373-.153zM48.164 54.52l-4.683-4.427s-.703.436-.845.566a17.469 17.469 0 00-2.486 3.017 2.11 2.11 0 01-2.211 1.242 2.25 2.25 0 01-1.766-1.765 13.26 13.26 0 00-1.762-3.539c-.193-.251-.604-.872-.604-.872l-5.504 2.732a13.999 13.999 0 00-7.622 10.422l-.68 4.435c2.595.398 7.752-2.707 10.833-4.563a90.546 90.546 0 011.923-1.138 7.11 7.11 0 018.398 1.261c.495.524 1.065 1.165 1.67 1.845 2.344 2.64 6.271 7.057 8.806 7.446l.68-4.435a14 14 0 00-4.147-12.227zM52.777 83.5l-37.56-5.762c-.263-.04-.492-.218-.64-.496a1.608 1.608 0 01-.145-.984c.054-.352.21-.674.433-.894.224-.22.497-.322.759-.282l37.56 5.76c.263.041.493.22.64.497.147.278.2.631.146.984-.054.352-.21.674-.434.894-.224.221-.497.322-.759.282zm9.599-62.581l-37.561-5.761c-.262-.04-.492-.22-.64-.497a1.607 1.607 0 01-.145-.983c.054-.352.21-.674.434-.895.223-.22.496-.322.758-.282l37.561 5.761c.262.04.492.219.64.496.146.278.199.632.145.984-.054.352-.21.674-.434.895-.223.22-.496.322-.758.282z" fill="#261F69"/></svg>