<?xml version="1.0" encoding="utf-8"?>
<!-- Generator: Adobe Illustrator 24.1.2, SVG Export Plug-In . SVG Version: 6.00 Build 0)  -->
<svg version="1.1" id="Слой_1" xmlns="http://www.w3.org/2000/svg" xmlns:xlink="http://www.w3.org/1999/xlink" x="0px" y="0px"
	 viewBox="0 0 139 144.1" style="enable-background:new 0 0 139 144.1;" xml:space="preserve">
<style type="text/css">
	.st0{fill:#FFFFFF;}
	.st1{fill:#232F3E;}
</style>
<path class="st0" d="M67.4,46.2l0.1,0.1l0,0.1l0.1,0.1l-0.1,0.1l0,0.1l0,0.2l0.1,0.1l0.1-0.1l0.1-0.1l0.2,0l0,0.1L68,47.1l0,0.1
	l0,0.1l0,0.2l0,0.2l0.1,0l0.2,0l0.2,0l0.2,0l0.2-0.1l0,0.1l0,0.1l0,0.2l0,0.1l0.1,0l0.2,0l0,0.1l0,0.2l0,0.1l-0.1,0.1l-0.2,0.2
	l-0.1,0l-0.2-0.1l-0.1,0l-0.1,0l0.1,0.2l0,0.2l0,0.1l-0.1,0.1l0.1,0.1l0.1,0l0.1,0.1l0,0.1l-0.1,0.1l-0.1,0.1l-0.2,0.1l0,0.1l0,0.2
	l0.1,0.1l0.1,0l0-0.1l0.2-0.1l0.2,0.2l0.2,0l0.1,0l0.1,0l0.1-0.1l0.2,0l0,0.1l-0.1,0.1l-0.2,0l-0.1,0L69,50.5l-0.1,0l-0.1,0
	l-0.1,0.1l-0.1,0.1l-0.1,0.1l0,0.2l0,0.1l-0.1,0.1l-0.1,0.1l0,0.2l0.1,0.1l0.3-0.1l0.1-0.1l0.1-0.2l0.1-0.1l0.1,0l0.2,0.1l0.1,0
	l0.1,0l0.1,0l0-0.2l0.1-0.1l0.2,0l0.2,0l0.1,0l0.1-0.1l0.1-0.1l0.1,0l0.1,0l0.2,0l0.1,0l0.1,0l0.3,0l0.2,0l0.1,0l0.1-0.1l0.1,0
	l0.1-0.1l0.1-0.1l0-0.1l-0.1-0.1l-0.1,0l-0.1,0l0-0.2l0-0.1v-0.1l0.1,0l0.1,0l0.1,0l0.1-0.1l0-0.1l0-0.1l0-0.1l0-0.3l-0.2-0.1
	l-0.1,0l-0.2,0l-0.1,0.1L71.2,49L71.1,49L71,48.9l0-0.2l0-0.2l-0.1-0.1l0.2,0l-0.1-0.1l-0.1,0L70.7,48l-0.2,0l0-0.1l-0.1-0.1
	l-0.3-0.2l-0.2,0l-0.1-0.1l-0.1-0.1l0-0.1l-0.1-0.1l-0.1-0.3h-0.2l0-0.1l-0.1-0.1l-0.1,0l-0.1,0l0-0.1l0-0.1l0-0.2l0-0.1l0.1-0.1
	l0.1-0.1l0.1-0.1l0-0.1l0-0.1l0-0.1l0-0.1l0,0l-0.1-0.2l-0.1,0l-0.1,0l-0.1,0l-0.2,0.1l-0.1,0l-0.2,0l-0.1,0l0-0.1l0-0.2l0.1-0.1
	l0-0.1l0.2-0.1l0-0.3l0-0.1l-0.2,0l-0.2,0.1L68,44.5l-0.1,0l-0.1-0.1l-0.1,0l0,0.1l0,0.1l-0.1,0.2l0,0.1l0,0.2l0,0.1l-0.1,0.1l0,0.1
	l0,0.1l0,0.2l0,0l0,0.1l0,0l0,0.1L67.4,46.2z"/>
<path class="st0" d="M67.7,48.2l0-0.2l-0.1-0.1l-0.1-0.1l-0.1-0.1l-0.1-0.1l-0.1,0l0,0.1L67,47.9l0-0.1l0-0.1l0-0.1L67,47.5
	l-0.2,0.1l-0.1,0l-0.1,0l0,0.1l0,0.1l0,0.1l0,0.1l0,0.1l-0.1,0l-0.1,0.1l0,0.1l-0.2,0l-0.1,0l-0.1,0l0,0.1l0,0.1l0,0.2L65.7,49
	l0,0.2l0,0.1l0.1,0.1l0.1,0l0.1,0l0.1-0.1l0.1-0.1l0.1,0.1l-0.1,0.1l0,0.1l0,0.1l0,0.1l-0.1,0.1L66.1,50L66,50.3l-0.2,0.2l0.1,0.1
	l0,0.1l0.1,0l0,0.1l0.1,0l0.1-0.1l0.1-0.1l0.1,0.1l0.1,0l0.2-0.1l0.1-0.2l0.1-0.1l0.1,0l0.2,0l0-0.1l0-0.2l0.1,0l0.1-0.1l0-0.2
	l0.1-0.1l0-0.1l-0.1-0.2l0-0.2l0-0.1l0-0.1l0-0.1l0-0.1l0.1-0.1l0.1-0.1l0.1-0.1L67.7,48.2L67.7,48.2z"/>
<path class="st0" d="M33.4,76.6l-0.1-0.1l-0.4,0l-0.5,0l-0.2-0.1l-0.6,0.2l-0.2,0.2L31.3,77l-0.1,0.2l-0.1,0.2l0.1,0.1l0.2-0.1
	l0.1-0.1l0.1-0.2l0.1-0.2l0.2-0.1l0.2-0.1l0.2,0.2l0.1,0.1l0.1-0.1l0.1,0l0.2,0.1l0.1-0.1l0.4,0.3l0.1,0.2l0.3-0.1l0.3,0l0.1,0.2
	l0.1,0.2l0.2,0l0.2,0l0.1,0.1l-0.1,0.3l0,0.1l0.1,0l0.4-0.1l0.4-0.2l0.1-0.1l0.2,0l0.3,0l-0.2-0.4l-0.4,0l-0.1-0.1l-0.2-0.4l-0.3,0
	l-0.3-0.1l-0.1-0.1L34.6,77l-0.8-0.2L33.4,76.6z"/>
<path class="st0" d="M36.7,78.8l-0.3,0l0,0.3l0.2,0.1l0.3,0l0.3,0h0l0.2,0l0.2,0l0.5,0l0.1,0.1l0.1-0.1l0.1-0.2l0-0.2l0.1,0l0.2,0.1
	l0.2-0.1l0.2-0.1l0.2-0.1l0.2,0l0.2-0.1l-0.2-0.3l-0.5,0l-0.4-0.2l-0.4-0.1L37.7,78l-0.3,0.1l0,0.4l0.2,0.1l0,0.2l-0.2,0l-0.1,0
	h-0.1l-0.3,0L36.7,78.8z"/>
<path class="st0" d="M35.3,79.1l-0.8,0.1l-0.1,0.2l0.3,0.1l0.2,0.1l0.1,0.1l0.1,0.1l0.1-0.1l0.2-0.1l0.1-0.1l-0.1-0.1L35.3,79.1z"/>
<path class="st0" d="M69.2,17.3c-28.5,0-51.7,23.2-51.7,51.7c0,28.5,23.2,51.7,51.7,51.7c28.5,0,51.7-23.2,51.7-51.7
	C120.9,40.5,97.7,17.3,69.2,17.3z M99.3,54.3l0,0.1l0,0.1l0.1,0.1l0.1-0.1l0.1,0l0,0l0.1,0l0.1,0v0l0,0.1l-0.1,0.2l0.1,0.2l0.1,0.1
	l0.1,0.1l0,0l0.1,0.1l0,0.1l0,0.1l-0.1,0l0,0l0,0.1l0.1,0.2l0,0.2l0,0.2l0,0.1v0l0,0.2l0,0.1l0,0.1l0,0.1l-0.1,0l-0.1-0.1l-0.1,0
	l-0.1,0l-0.1,0.1l-0.1,0L99.4,57L99.3,57l-0.2,0l-0.3-0.1l-0.1-0.1l-0.1,0l-0.1,0l-0.1-0.1l-0.1,0l-0.1,0l-0.1,0l-0.1-0.1l-0.1,0
	l0-0.1l0-0.1l0-0.1l0-0.1l-0.1-0.2l-0.1-0.1L97.4,56l0-0.2l0.1-0.1l0.1-0.2l0-0.1l0-0.2l0-0.1l0-0.1l0.1-0.1l0-0.1l0-0.2l0-0.1
	l0.1,0l0.1,0l0-0.1l-0.1-0.1l-0.1,0l-0.1-0.1L97.4,54l0-0.1l-0.1-0.2l0,0l-0.1-0.1L97,53.6l-0.1-0.1l-0.1-0.1l0-0.2l-0.1-0.1
	L96.5,53l-0.1-0.5l-0.1-0.1l0-0.2l0.1-0.1L96.1,52L96,51.9L95.9,52L95.8,52l0-0.1v-0.2l0-0.2l0.1-0.4l0-0.2l0-0.3l0.1-0.1l0.1-0.1
	l0.1,0.1l0.2,0.1l0.2-0.2l-0.1,0l0-0.1l0.2,0l0.1,0l0.1,0.1l0.1-0.1l0-0.1l0.1-0.1l0.3,0l0.1,0l0.1-0.2l0-0.1l0.1-0.1l0.1-0.1
	l0.1-0.1l0.1,0l0.1,0.1l0.1,0.1l0.1,0h0.1h0.1l0.2,0l0.1,0.1l0.1,0.1l0.3,0.1l0.2,0l0,0.2l0.1,0.2l0.1,0.1l0.1,0.1l0.1,0.1l0,0.1
	l0,0.1L99.5,51L99.3,51l-0.2,0L99,50.9l-0.1,0l-0.1,0l-0.1,0l0,0h-0.1h0L98.4,51l0,0.1l-0.2,0c0,0,0,0-0.1,0
	C98,51.2,98,51.2,98,51.2l0,0.3l0.1,0.1l0,0.1l-0.2,0l-0.3,0.1l0.1,0.2l0.2,0.1l0.2,0.1l0.1,0.2l0.1,0.1l0.2,0.1l0.1,0.1l0.1,0h0.1
	l0.1,0l0.1,0l0.2,0.6h0.1l0.1,0l0,0l0.1-0.1l0,0l0,0l0.1,0.1l0.1,0l0.2,0.1c0,0,0,0.1,0.1,0.1c0,0.1,0.1,0.2,0.1,0.2l0.1,0.1l0.1,0
	l-0.1,0.1l-0.1,0l0,0.1l0,0.1l0,0.1l-0.1,0l-0.1,0l-0.1,0L99.6,54l-0.1,0l-0.1,0l-0.1,0l0,0l-0.1,0.2l-0.1,0.1L99.3,54.3z M53,22.3
	L53,22.3c0.2-0.1,0.5-0.2,0.7-0.2l-0.1,0.1l0,0l-0.2,0.1l-0.1,0L53,22.3L53,22.3z M69.2,118.4c-23.2,0-42.6-15.9-48-37.4l0.1,0.1
	l0.2,0.3l0.5,0.2l0.4,0.2l0.2,0.1l0.3,0.1l0.4,0.2l0.3,0l0.3,0.1l0.3,0.2l0.6,0l0.4,0.1l0.4-0.2l0.2-0.2l0.9,0l0.2,0l0.1,0l0.2,0.2
	l0.3,0.1l0.2,0.4l0.4,0.1l0.4,0.2l0.2,0l0.6,0.3l0.3-0.2l0.3-0.1l0.5,0.1l0.1,0.4l0.3,0l0.3,0.3l0.2-0.1l0.1,0.1l0.1,0.1l0,0
	l0.3,0.2l0,0.2l-0.2,0.1l-0.1,0.3l0.2,0.4l0.2,0l0.3,0.1l0.3,0.2l0.2,0.4l0.3,0.1l0.1,0l0.1,0.1l0.1,0l0.2-0.1l0.4,0.3l0.2,0
	l0.5-0.2l0-0.2l-0.2-0.2l0.2-0.2l0.3,0l0.3,0.1l0.2,0l0.1,0.2l0,0.3l0.1,0.3l0.3,0l0.1,0.3l0,0.3l0,0.3l0.1,0.4l-0.1,0.2l0,0.4
	l0.3,0.2l-0.3,0.3L36,89.4l-0.1,0.3l0.1,0.4l-0.3,0.3l-0.2,0.3l-0.2,0.2l0.2,0.3l0,0.1l-0.1,0.2v0l0,0.3l-0.1,0.2l0,0.4l0,0.3
	l0.1,0.3l0.2,0l0.1,0.2l-0.1,0.3l-0.2,0.2l-0.1,0.4l0.1,0.3l0.1,0.3l0.3,0.6l0.3,0.2l0.3,0.2l0.3,0.3l0.2,0.2l0.3,0.2l0.4,0.6l0,0.1
	l0.1,0.2l0.1,0.1l0.3,0.5l0.7,1.2l0.5,0.9l0.2,0.4l0.4,0.1L40,101l0.2,0.1l0.1,0.1l0.1,0l0.5,0.1l0.3,0.2l0.4,0.1l0.2,0.2l0.2,0.2
	l0.1,0.2l0.2,0.6l0.2,0.4l0.1,0.5l0,0.5l0,0.7l0,0.3l-0.1,0.4l0,0.2l0.2,0.7l0,0.3l-0.1,0.3l0,0l-0.1,0.1l-0.1,0.1l0,0.2l0.1,0.3
	l0,0.8l-0.1,0.4l0,0.1l0,0.2v0l0.3,0.3l0.1,0.3l-0.1,0.5l0,0.1l0,0.1c0.3,0.2,0.5,0.3,0.7,0.5c2.2,1.3,4.5,2.5,6.9,3.4l0,0l0.1-0.2
	l0,0l0.2-0.9l-0.1-0.3l-0.3-0.1l0-0.3v0l-0.2-0.3l0,0l-0.4-0.3l-0.3-0.4l0-0.5l0.2,0.1l0.2,0.4l0.3,0.1l0.2,0.2l0.3,0l0.3-0.1
	l0.7-0.1l0.2-0.3l0.1-0.1l0.3-0.6l0.1-0.2l0.1-0.1l0.1-0.4l0-0.5l0.3-0.5l0.1-0.5l0-0.2l0.3,0.5l0.1,0.1l0,0l0-0.2l0-0.2l0.1-0.4
	l0.1-0.5l0.3-0.3l0.2-0.3l0-0.2l0-0.3l-0.1-0.4l-0.2-0.6l0.1-0.2l0.2-0.3l0.2-0.2l0.3-0.4l0.4-0.4l0.1-0.1l0,0l0.4-0.2l0.1-0.3
	l0.3-0.2l0.6-0.4l0.4,0l0.1-0.3l0-0.5l0.2-0.7l0.3-0.5l0.2-0.7l0-0.3l0.1-0.3l0-0.7l-0.1-0.5l0.1-0.6l0-0.1l0-0.1l-0.1-0.5l0.2-0.9
	l0.2,0l0.1,0l0.1-0.2l0.1-0.3l0.1-0.4l0.1-0.4l0.3-0.5l0.5-0.5l0-0.5l0,0l0-0.2l0.1-0.5l-0.2-1l-0.3-0.3l-0.1-0.5l-0.4-0.1l-0.4,0.1
	l-0.5-0.4l-0.6-0.6l-0.6-0.1l0,0l-0.2,0l-0.3,0L55,90.1L54.5,90l-0.1,0.4L54,90.1l-0.5-0.5l-0.4-0.2l-0.5-0.1l-0.6,0l-0.3,0.4
	l-0.1-0.5l-0.3-0.2l-0.4,0.2l-0.3,0.6l0,0.3l-0.2,0l-0.3,0.2l-0.1-0.4l0.1-0.6l0.5-0.2l0-0.3l0-0.3l-0.3-0.2l0.1-0.4l-0.3-0.1
	l-0.1-0.5l-0.4-0.6l-0.4-0.4l-0.5-0.3l-0.7-0.2l-0.3-0.1l-1.1,0.2l-0.2,0h0l-0.3-0.3l-0.3-0.1l-0.3,0.2l-0.1-0.3l0-0.4l-0.1-0.1
	l-0.6-0.3c0,0-0.4,0.2-0.5,0c-0.1-0.2,0-0.2,0-0.2l0-0.2L44,83.7l-0.3-0.1l-0.3-0.2v-0.2l0-0.2V83l-0.2,0.1l-0.4,0.1l-0.3,0.1
	l-0.1,0.3l-0.5,0l-0.3-0.1l-0.4,0.1l-0.3,0l-0.4,0.3l-0.2-0.3l-0.3-0.2l-0.4-0.2l-0.3-0.1l0,0.3L39,83.7l-0.3,0.2l0,0.2l0,0.1l0,0
	l0.2,0.3l0,0.2l0,0.1l-0.1,0l-0.1,0l-0.2-0.3l-0.1-0.4v-0.4l-0.1-0.3l0-0.1l0.1-0.2l0.1-0.2l-0.2,0l-0.2,0l0,0l-0.1,0.2l-0.2,0.2
	l-0.3,0.2l-0.2,0.1l-0.5,0.3l-0.1,0.3l-0.1,0.4l0.1,0.3l-0.4,0.8l-0.8-0.6l-0.4-0.4l-0.5,0.2l-0.3,0.3L34,85.6l-0.5,0l-0.4-0.4
	l-0.2-0.3l-0.3-0.4L32.4,84l0,0l0-0.6l0-1v-0.1v-0.1l-0.2-0.3l-0.4-0.2l-0.1-0.1h-0.1l-0.8,0l-0.4,0.1l-0.3,0.1l-0.3,0.1l-0.1,0
	l-0.4,0l0-0.1l0-0.1l0.2-0.9l0-0.6l0.3-0.4L29.7,78L29.2,78l-0.6,0.2l-0.3,0.3L28.2,79l0.1,0.4L28,79.9l-0.3,0.2l-0.3,0.1l-0.3,0.2
	l-0.2,0.3l-0.3,0.1l-0.2,0.1l-0.3,0l-0.1,0l0,0L26,80.8l0,0l-0.5-0.2l-1.2-1.5l-0.1-0.6L24.2,78l-0.2-0.9l0.1-0.5l0.2-0.3l-0.1-0.4
	l-0.3-0.5l0-0.5l0.2-0.5l0.5-0.3l0-0.4l0.2-0.4l0.1,0l0.2-0.1l0.2-0.1l0.4-0.2l0.4-0.1l0.5,0l0.2,0.3l0.3-0.2l0.5,0l0.2-0.2
	l-0.1-0.3v-0.4l0.5-0.1l0.5-0.1l0.3-0.2l0.4,0.2l0.3,0.1l0,0l0.1,0l0.2,0l0.2-0.1l0.3,0.2l0.3,0.3l0.2,0.3l0.3,0.7l0.1,0.3l0.3,0.1
	l0,0.3l0.3,0.3l0.3,0.5l0.2,0l0.1-0.2l0.1-0.3L32.7,74l-0.2-0.6l-0.3-0.6l-0.1-0.5l-0.3-0.3l-0.1-0.4l0-0.5l0-0.6l0.3-0.5l0.2-0.3
	l0.7-0.8l0.3-0.4l0.3-0.3l0-0.2l0.4-0.4l-0.2-0.4L33.7,67l-0.4-0.2l-0.1-0.4l-0.2-0.3l0-0.3l-0.1-0.3l0.1-0.1l0.1-0.1l0.1-0.3h0.4
	l-0.2,0.3l0,0.1l0,0.1l0,0.1l0.1,0.4l0.2,0.1l0.3,0.1l0.1-0.4l0.1-0.3l0-0.1l0,0L34,65l0.2-0.2l0.3-0.1l0.1-0.3l0-0.2l0-0.2l0-0.1
	l0.4-0.4l-0.4,0l0.3-0.4l0.2-0.1l0.1,0l0.2-0.1l0.3-0.1l0.3,0l0-0.2L36,62.4V62l-0.1-0.4l0.3-0.3l0.3-0.1l0.3-0.3l0.3,0.1l0.2-0.2
	l0.1-0.2l-0.1-0.4l0.5-0.1l0.3-0.1l0.2-0.1l0.1-0.2l0.2-0.2l0.2,0.3l0.3,0l0.1,0.2l-0.7,0.2l-0.3,0.2L38,60.6l0.1,0.3l0.2,0.1
	l0.3,0.2l0.3-0.1l0.3-0.3l0.1-0.3l0.2-0.4l0.3-0.1l0.2-0.2l0.3-0.5l-0.5,0l-0.5,0.1l-0.3-0.3L38.9,59l-0.2-0.4l-0.2-0.4L37.8,58
	l0-0.3l0.2,0l0.3-0.5l0-0.2l-0.1-0.2l-0.2-0.3l-0.4,0.1L37.1,57l-0.4,0.3l-0.5,0.4l-0.3,0.5l0-0.3l0.2-0.6l0.3-0.2l0.3-0.3l0.2-0.3
	l0.5-0.5l1.1-0.2l0.5-0.1l0.3-0.2l0.5,0.2l0.6-0.3l0.3-0.3l0.5-0.5l0-0.3l0.4-0.2L42,54l0.4-0.5l0-0.3l-0.1-0.5l-0.4-0.2l-0.3-0.1
	L41,52.8l-0.9,0.5l0.3-0.2l0.3-0.5l0.3-0.1l0.2-0.2L41.2,52L41,51.8l-0.2,0l-0.8,0.1l-0.2-0.4l-0.4-0.2L39,51l-0.3-0.3l0.4-0.2
	l0-0.2l-0.4-0.1l0-0.3l-0.3-0.2l-0.2-0.2l-0.3,0.1l0.1-0.3l-0.1-0.3l-0.2-0.2l-0.3-0.1l-0.2-0.4l-0.1-0.4l0-0.1l-0.2,0h0L36.8,48
	l0,0.1l0,0l-0.2,0.4l-0.3,0.2l-0.1,0.2l-0.3,0.3l-0.3,0.1l-0.2,0.1l-0.2-0.3L35,49l-0.5,0l-0.1-0.5l0-0.3l0-0.2v0l0-0.4l0-0.2
	L34,47.5l-0.1-0.2l-0.2-0.2l-0.3,0.2l-0.2,0L32.9,47l-0.5-0.2l0,0l-0.1-0.1l-0.4-0.2l-0.4,0.4l-0.6-0.1l-0.6,0l-0.6,0.2l0.1,0.5
	l0.1,0.5l0.1,0.4l0.3,0.1l0.2,0.6l-0.1,0.3l-0.5,0.3L29.7,50l0,0l0.1,0.1l0.4,0.4l0.4,0.6l0.3,0.2l0.1,0.1l0.1,0.1l-0.1,0.8L31,52.8
	L30.8,53l-0.2,0.2l-0.1,0.1l-0.4,0.4l0.2,0.5l0.1,0.2l0.1,0.2l0,0l0.1,0.5l0,0.8l-0.2,0.4l-0.1,0l-0.2,0l-0.3,0l-0.4-0.4l-0.1-0.4
	L28.9,55l-0.1-0.4l-0.1-0.5l-0.1-0.6l-0.5-0.2l-1.1,0.2l-0.6-0.2l-0.2,0l-0.5-0.2l-0.4-0.4l-0.1-0.1l-0.2-0.1l-0.3-0.1l-0.5-0.1
	l-0.5-0.2l-0.5,0.2L23,52.2l-0.2-0.3c1.6-4.3,3.7-8.3,6.4-11.9l0.2,0.1l0-0.2l0.1-0.1l0.2,0l0.3,0.2l0.1-0.1l0.1,0.2l0,0.3l0.3,0.1
	l-0.1,0.4l0.1,0.1l0.1,0.2l0.1-0.1l0.2-0.1l0.1-0.2l0.2-0.1l0,0.2l0,0.3h0l0.2,0.1l0.2,0.1l0,0.3l0.1,0.3l0.1,0.2l-0.3,0.1l0,0.2
	l0.1,0.1l0.1,0.1l-0.1,0.1L31.8,43l-0.2,0.3l-0.2,0.2l0,0.3l0.7,0.5L32,44.4l-0.6,0.2l-0.2,0.1l-0.6,0L30.1,45L30,45.1l0,0l-0.2,0.5
	l0.1,0.3L30,46l0.2,0.1l0.5-0.2l0.3-0.3l0.1,0l0,0l0.2,0l0.1,0l0,0l-0.1-0.3l0.1,0.1l0.1,0l0.2-0.1l0.1,0.1l0.2,0l0.1,0.1l0.3,0.1
	l0.1,0.1l0.1,0.1l0.1,0.1l0.1,0.1l0.3,0l0.1,0.1l-0.2,0.1l-0.1,0l0.1,0.1l0,0l0.1,0l0,0l0.3,0l0.1-0.1l0,0l0.3-0.1l0.5-0.1l0.4,0
	l0.3-0.1l0.3,0l0.4-0.1l0-0.2l-0.2,0l-0.2-0.2l-0.3,0l-0.4-0.2l-0.4-0.2l0.1-0.1l0.3-0.1l0.2-0.1l0.3,0.2l0.5-0.2l0.5,0.1l-0.1-0.3
	l0.1-0.2l-0.1-0.3l-0.1-0.2l-0.2,0l-0.8-0.3l-0.2-0.2l-0.2-0.3l-0.1-0.1l0.1-0.5l0-0.3l0.3-0.1l0.2,0.3l0.2,0.1l0.2,0.2l0.3,0l0,0.2
	l0.2,0l0.1,0.1l0.2,0.2l0.4,0l0.3,0l0-0.2l0-0.4l0.3-0.1l0-0.2l0-0.2l0.6-0.1l0-0.6l-0.1-0.2l-0.2-0.2l-0.3,0l-0.4,0.3l-0.1,0
	l-0.1,0l-0.3,0L36,41.2l-0.2-0.3L35.6,41l-0.1,0.1l-0.1,0.2l-0.3,0.1l-0.2-0.2l-0.1-0.1l-0.1-0.1l0-0.1L34,40.8l-0.2-0.1l0-0.3
	l0.2,0l0.2-0.2L34,39.9l0.3,0l-0.2-0.2l-0.3,0l-0.2-0.2l0.2-0.2l0.2-0.1v-0.3l-0.3-0.1l0,0.2l-0.3,0l-0.2-0.3l-0.3,0l-0.1,0
	l-0.1,0.1l-0.1,0.3l0,0.1l0,0l-0.1-0.2l-0.1-0.3l-0.2-0.2l-0.2-0.1L32,38.1c0,0-0.3,0-0.4,0c-0.1,0-0.1,0.1-0.1,0.1l-0.4,0.1
	L31,38.1l-0.3,0.2l0-0.2l0-0.1l0-0.1c1.6-2,3.3-3.8,5.2-5.5l0.3,0l0.5,0.1l0.3,0.2l0.1,0.1l0.1,0.1l0.1,0l0.1,0l0.2-0.1l0.2,0.1
	l0.1,0.2l0.1,0.2l0.6,0.3l0.4,0.1l0.1,0l0,0.2l0,0.1L39,34.3l0.3,0l0.1,0.3l0.3,0.2l0,0.3l0.3,0.2l0,0.3L40,35.7L40,36v0.3l0,0.2
	l0,0.2l0.3,0l0.2-0.1l0.3-0.2l0.2,0l0.1,0l0,0l0.5-0.1l0.1,0.2l0.2,0l0.3,0l0.2,0.1l-0.1,0.3l0,0.2l0.2,0.2l0,0.2l-0.3,0.1L42,37.4
	l-0.3-0.1l-0.5,0l-0.5,0.1l0,0l-0.2,0.1l0,0l0,0l0.2,0.1l0.2,0.1l0.1,0.1l0.5,0l0.1,0.2l0.2,0.1l0.3,0.1l0.2,0l0.2-0.1l0.2,0
	l0.1,0.1l0.1,0.3l0.1,0.3l0,0.4l-0.2,0l0,0.4l0,0.3l-0.2,0l-0.2,0L42,39.9l0,0.2l0.2,0.1l0.5-0.1l0.2,0l0.1,0.2l0.1,0.2l-0.3,0.1
	l-0.3,0l-0.2-0.1L42,40.7L41.7,41l0.1,0.3l0.2,0.3l-0.1,0.3l0.1,0.3l0.2,0.1l0.1,0.2l0.2,0l0.3,0.2l0.1,0.4l0,0.2l-0.1,0.2l0.2,0.2
	l0.3-0.3l0-0.2l0.2-0.1l0.2,0l-0.1,0.3l-0.2,0.2l-0.2,0.1l0.2,0.3l0.3,0.1l0,0.2l0.1,0.2l0,0l0.2,0l0,0l0.1,0.2l0.2,0.1l0,0l0,0.1
	l0,0.2l0.4-0.3l0,0l0,0l0.1,0.2l0.2,0.3l0,0.3l0.2,0.1l0.1,0.2l0.1,0.2l0.3-0.2l0.1-0.3l0.2-0.2l0.1,0.2l0.2,0.3l0.4-0.1l0.3,0
	l0.1,0.2l0.2,0.1l0.2,0.4l0.1-0.1l0.2-0.1l0-0.2l-0.1-0.2l-0.2-0.2l0.1-0.3L48,45l0-0.2l0.1-0.2l0-0.4v-0.3l0.1-0.1l0.1-0.2l0.1-0.1
	l0.1-0.1l0.1-0.2l0.1-0.2l0-0.2l0-0.5l0-0.2l0.1-0.4l0-0.2l0.2-0.2l0.1-0.3l0.5-0.1l0.3-0.2l0.3-0.1l0.1,0.2l0.2,0l0.1-0.2l0.1,0
	l0.2,0l0,0l0.3-0.2l0.2-0.3l0.1-0.3l0.2-0.2l0.2-0.2l0.4-0.6l0.3-0.2l0-0.2l-0.1-0.4l0.2,0.2l0.2,0l0.3-0.2l0.3-0.1l0.1,0l0.2,0
	l0.3-0.1l0.2,0l0.2-0.1l0.2-0.1l0.2-0.1l0.1-0.1l0.2,0l0.3,0l0.1-0.4l0.3-0.2l0.1-0.2l0.2,0l0.1-0.3l0.4-0.1l0.3,0l0-0.2l0.1-0.3
	l0.3-0.5L57,35.6l-0.3,0l-0.4-0.2l-0.3,0l-0.4,0.3l-0.2,0l0.1-0.5l0-0.2l-0.1-0.2l0.1-0.2l-0.2-0.2l-0.2,0h-0.4l-0.3,0.1l-0.3-0.2
	l0.2,0l0.2,0l0.2,0l0.2,0l0.2,0l0.2,0l0.2,0l0.2,0.1l0.2,0.1l0.3,0.2l0.1,0.2l0.3,0.1l0.2,0.1l0.3,0.1l0.3,0l0.2,0l0.2-0.1l0-0.2
	l-0.1-0.3l-0.3-0.2l-0.2-0.3l-0.6-0.2l-0.3-0.2L56,33.6l-0.2-0.1l-0.2-0.1l-0.2,0.1l-0.2,0l-0.3,0l-0.1-0.1l-0.1-0.2l0,0l0.1-0.2
	l0.2-0.1l0.2-0.2l0.3-0.2l0.2,0.3l0.2,0.1l0.2,0.2h0l0.2,0l0.1,0.1l0.2,0.3l0.3,0.1l0.2,0l0.2,0.1l0.2-0.1l-0.1-0.2l-0.1-0.2
	l0.3-0.2L57.2,33l0,0l-0.3-0.1l-0.3-0.2l-0.4-0.2l0.4-0.1l0.2,0l0.3-0.1l0.2-0.2l0.3-0.1l0.1-0.3l-0.2-0.3l-0.6,0.3v-0.4l0.5-0.1
	l0-0.2l0-0.2l0-0.2l-0.3-0.3l0.2,0l0.2,0l0.3,0.1l0.1-0.3l0-0.2l-0.4-0.5l-0.3,0.2l-0.3,0l0.2-0.2l0.1-0.2l0-0.2l0-0.1l0-0.1l0.7,0
	h0.2l0.1,0.1l0.3,0l0.2-0.1l0-0.1l-0.1-0.2l-0.1-0.1L58.1,28l-0.2,0.1l-0.3,0.1L57.3,28l0.4-0.4l-0.4-0.1l-0.7,0c0,0,0,0,0-0.2
	c0-0.2,0.2,0,0.2,0l0.4-0.1l0.1-0.3l0.1-0.2l0.3-0.4l-0.1-0.5l0.7-0.3l0-0.2l-0.5-0.2l-0.4,0.1L57,25.4l-0.1-0.3l0.3-0.2l0.4-0.1
	l0.3,0.1l0.8-0.1l0.3-0.4l0.2-0.2l0.1-0.1l0,0l0.2-0.2l0.3-0.2l0.2-0.3l0.4,0.1l0.3-0.5l-0.4-0.1L59.7,23l-0.2,0l-0.1,0l-0.4,0.1
	l-1,0.1l-0.3,0.2l-0.4,0.1l-0.4,0.1l-0.3,0l-0.3,0.2l-0.3,0.3l-0.2,0.3l-0.4,0.2l-0.1,0l-0.2,0l-0.3,0l-0.2-0.2l0.3-0.2l0.2-0.1
	l0.2-0.1l0.2-0.2l0.2-0.3l-0.2-0.1l-0.4,0l-0.4,0.1l-0.1,0.4L54,24.1l-0.4-0.2l-0.3-0.2l0,0l-0.2,0l-0.4,0L51.9,24l-0.5,0.1
	l-0.8,0.4l0-0.1l0-0.2l0.4-0.2l0.2-0.1l0.5-0.2l1-0.1l0.8-0.2l0.3-0.1l1.1-0.2l0.7,0l0.4-0.1l0.3-0.3l0.1-0.4l-0.5-0.1l-0.2,0
	l-0.5,0L55,22.3l-0.1,0l-0.2,0h-0.1l-0.4,0l-0.1-0.2L54.1,22L54,21.9c4.8-1.5,9.9-2.4,15.2-2.4c11.6,0,22.2,4,30.6,10.6l0.1,0.4
	l0.2,0.4L99.8,31l-0.2-0.1l-0.1,0.4l-0.2-0.1L99.1,31L99,30.8l-0.4,0.1l-0.2,0l0,0.3L98,31.1L97.7,31l-0.3,0l-0.2,0.2l0,0.2l0,0.2
	l0,0l-0.4,0.1l-0.2,0l-0.2,0l-0.2,0l0.3-0.2l0.1-0.2l-0.3,0l-0.1-0.2l-0.2,0l-0.5,0.5l-0.3,0.3l-0.3,0l-0.2,0.1l-0.3,0.2l-0.2,0.1
	L94,32.4l0,0l-0.1,0.1l-0.3,0.2l0,0.3v0.3l-0.3,0.3l-0.2,0.1l-0.2,0.1l-0.2-0.1l-0.3-0.2l-0.1-0.3l0.1-0.2l0.3-0.3l-0.1-0.4
	l-0.2-0.3L92,32l-0.7,0.1l0,0.3l0.1,0.1l0,0.5l0,0.2l0,0.3L91.4,34l-0.1,0.3l-0.1,0.3l-0.5-0.2l-0.1-0.1l-0.2,0l-0.2,0.2l-0.1,0.1
	l-0.1,0l-0.2,0.2l-0.2,0.4l0,0.2l0.2,0.3l0.2,0.2l-0.3,0l-0.3-0.2l-0.2-0.1l-0.3,0l-0.2-0.1l-0.2,0l0,0.3l0,0.3l0.2,0.1l0.3,0.3
	L89,36.8l-0.3,0.1l-0.3,0L88,36.8l-0.1-0.1l-0.2-0.2l-0.2-0.3l-0.1-0.4l-0.1-0.3l-0.3-0.1l-0.3-0.1l-0.4-0.1l-0.2-0.2l-0.2-0.4
	l-0.3-0.4l0.6,0.4l0.3,0l0.2,0.1l0.3,0.1l0.5,0l0.3,0l0.3,0l0.5,0l0.3,0.1l0.4-0.2l0.3-0.4l0.2-0.2l0.2-0.2l0.1-0.1l0.1-0.1
	l-0.2-0.4L89.7,33l-0.3,0l-0.3-0.2L89,32.8l-0.3-0.2l-0.2-0.1l-0.2-0.1l-0.3-0.1l-0.8-0.2l-0.2,0l-0.5-0.1h-0.3l-0.4,0.1L85.6,32
	l-0.4-0.1l0.1-0.2l-0.2-0.2l-0.2,0l-0.3,0l-0.2,0L84,31.9l-0.2-0.2l0.1-0.1l0.1-0.1l0.3-0.2l-0.4-0.4l-0.2,0l-0.1-0.1l-0.2-0.1
	l0,0.2l0,0.2l-0.3,0.2L83,31l0.2-0.3l-0.1-0.1l-0.2-0.1l-0.1,0.1l0,0.3l-0.1,0.3l0,0.2l-0.2,0.1l-0.1-0.1l0-0.2l-0.1,0l0,0.2
	L82,31.5l0,0l-0.1,0.1l0,0.1l0,0.2l-0.1,0.2l-0.1-0.3l0-0.2l0.1-0.1l0,0l0-0.1l0-0.1l-0.1-0.1l-0.1,0l-0.1,0l-0.1,0l0,0l-0.2,0v0.3
	l-0.1,0.1l-0.2,0.1l0,0.2l-0.1,0.1l-0.2,0.1l-0.2,0l-0.4-0.2l-0.2,0l-0.1,0l0.1,0.4l-0.1,0.1l-0.2,0l-0.2-0.1l0.1,0.3l-0.2,0
	L79,32.5l-0.2,0.3l-0.2,0L78.5,33l-0.2,0.1l-0.1,0.3L78,33.5l0,0.3l-0.1,0.4l-0.2,0.2l-0.2,0.2l-0.1,0l-0.1,0l0.1,0.3l0.1,0.2l0,0.1
	l0,0.1l-0.1,0.2l-0.2,0.3l-0.2,0L76.8,36l-0.1,0.3l-0.3,0.3l0,0L76.3,37l-0.2,0.2l-0.1,0.3l-0.2,0.1l-0.1,0.1l-0.2,0l-0.2,0.4
	l-0.1,0.2L75,38.5l0,0.2l0.2,0.1l0.2,0L75.3,39l0,0L75,39.2l-0.2,0L74.8,39l0-0.1l-0.2,0l-0.2,0l-0.2,0.1l0,0L74,39.2l0,0l0.1,0.1
	l0.1,0.1l-0.4,0.2l0,0.2l-0.2,0l-0.2,0l-0.1,0.2l0,0.2l-0.1,0l-0.2,0.1l-0.1,0.2l-0.2,0l-0.1,0.2L72.5,41l-0.1,0.2l-0.1,0.3l0.2,0.3
	l0,0.3l0.2,0.4l0.1,0.1l0.4-0.1l0,0.5l-0.3,0.2l0,0.2l0,0.2l0.2,0l0.1,0.3l0,0.3l0.3,0.1l0.3,0.1l0.7-0.1l0.3-0.2l0.2-0.4l0.4-0.2
	l0.2-0.2l0.3-0.1l0.2,0.2l0.1,0.3l0.2,0.3l0,0.1l0,0.2l0,0.1l0.2,0.4l0.4,0.2l0.2,0.1l0.1,0.1L77,45.3l-0.1,0.1l-0.3,0.1l0,0.3
	l-0.3,0l-0.2,0l0.1,0.3l0.2,0.2h0.3l0.1-0.2l0-0.2l0.1-0.2l0.2-0.1l0,0.2l0.1,0.2l0.4-0.1l0.1-0.1l0-0.3l0.1-0.2l0.2-0.1l0.5-0.1
	l0.2-0.4l0-0.3l-0.1-0.4l0.1-0.3l0-0.1l0-0.2l0-0.1l0-0.2l0-0.2l0.2,0l0.2,0l0.3-0.1l0.2-0.1l0.1-0.2l-0.1-0.2l0.2-0.4l-0.3-0.3
	l-0.2-0.2l-0.2,0l-0.2-0.1l-0.2-0.1l-0.2-1.1l0.1-0.2l0-0.2l0.1-0.1l0.2-0.2L79,39l0,0l0.1-0.1l0-0.2v-0.2l0.2-0.2l0.5-0.2l0.3-0.2
	l0.1-0.3l0.3-0.2l-0.2-0.3l-0.2-0.2l0.2-0.3l0.1-0.2l0.2-0.2l0.1-0.2l0.1-0.2l0.4-0.1l0.1,0.2l0.6-0.1l0.3,0.2l0,0.3v0.3l-0.3,0.3
	l-0.2,0.3l-0.1,0.3l-0.2,0.2l-0.1,0.4L81,38.5l0,0.1l-0.1,0.2l0,0.1l0.1,0.5l0,0.3l0.2,0.4L81,40.2l0.2,0.2l0.1,0.2l0.1,0l0.2-0.1
	l0.2,0l0,0.2L81.6,41l0.4,0l0.1,0.2l0.4,0.2l0.2-0.2l0.1-0.3l0.1-0.1l0.3-0.2l0.2-0.1l0.3-0.1l0.3-0.1l0.2,0l0.3,0.3l0.2,0.1l0.2,0
	l0.2-0.1l0.2,0.1l-0.1,0.3l-0.1,0.2l-0.3,0.1L84.5,41l0,0.3l-0.4,0.1l-0.3-0.1l-0.3,0l-0.2-0.1l-0.2,0.3l-0.3,0l-0.2,0L82.5,42
	l-0.2,0.1l0,0.3l0,0.1l0.1,0.1l0.1,0.1l0.2,0.1l0,0.8l-0.2,0.2l-0.1,0.2l-0.2-0.1L82,43.6l-0.1-0.1l-0.2-0.2l-0.3,0.1l0.1,0.4l0,0.4
	l-0.1,0.3l-0.1,0.2l-0.1,0.2l0,0.2l0,0.1l0,0l0.1,0.2l0,0.2l0,0l-0.2,0.2l-0.1-0.2l-0.2,0l-0.1,0.3l0,0.2l-0.1,0.3l-0.2-0.1
	l-0.1,0.1l-0.1,0.3l-0.2-0.2L80,46.3l-0.3,0.1l-0.1,0.2L79,46.9L78.6,47l-0.2,0.1l-0.2,0.1l-0.4,0l-0.2-0.1L77.2,47l-0.1,0l-0.2,0.5
	l-0.3,0l-0.1-0.1l-0.2-0.1l-0.2,0l-0.2-0.2l-0.1-0.3l0.3-0.2l0-0.2l-0.1-0.2l0-0.3l0.1-0.4l0-0.2l-0.3-0.2l-0.1-0.3l0.2-0.3l0-0.2
	l0,0l-0.1-0.1L75.6,44l-0.1,0.1l-0.1,0.2l0,0l-0.1,0.2L75,44.9l-0.4,0.2l0.3,0.1l-0.4,0.5l0.2,0.3l0.2,0.2l0,0.2l0.1,0.3l0.2,0.2
	l0.1,0.2l0.1,0.5l0.1,0.3l-0.3,0.4l-0.1,0l-0.2,0l-0.3,0.1l-0.4,0.1l-0.2,0l-0.3,0l0,0.2l-0.2,0.1l-0.2,0.4l0,0.3v0.4l0,0.2L73,50
	l-0.2,0l0,0l-0.3,0.2l-0.2,0.1L72,50.4l0,0.3L71.9,51l-0.1,0.2l-0.3,0.1l-0.1,0.2l-0.2,0.1l-0.3,0.2l-0.1-0.3l-0.3,0l-0.1,0.3
	l0.1,0.2l0.1,0.3l-0.2,0.1l-0.2,0l-0.2,0l-0.2,0l-0.3,0.2l-0.2,0.1L69.1,53l0,0.3l0.2,0l0.4,0l0.4,0.3l0.5,0.2l0.5,0.3l0.2,0.3
	l0.1,0.5l0,0.2l0,0.2l0,0.4l0.1,0.5l-0.2,0.2l-0.5-0.1l-0.4,0.1L70,56.3l-0.4,0l-0.4,0.1l-0.5,0.3l-0.4-0.1L68,56.5l-0.1,0.1
	l-0.2,0.2L67.4,57l-0.2,0.2l0,0.2l0.2,0.3l0.2,0.3l0.1,0.5l0.1,0.4l-0.1,0.3l-0.1,0.4l0.1,0.4l0.1,0.3l0.2,0.2l0.1,0.6l0,0.3
	l0.4,0.1l0.5-0.2l0.2,0l0.2,0.3l0.3,0.2l0.3,0l0.3-0.2l0.2-0.2l0.4-0.1l0.3,0l0.2-0.2l0.1-0.3l0.3-0.3l0.2-0.1l0.1-0.3l0-0.3
	l0.3-0.3l0-0.2l-0.2-0.2l0-0.3l0.2-0.3l0.2-0.3l0.1-0.1l0.2-0.3l0.3-0.2l0.3-0.2l0.1-0.1l0.1-0.4l0-0.2l-0.2-0.2l0.1-0.2l0.3-0.2
	l0,0h0.1h0.3l0.4,0.1l0.3,0.1l0.2-0.2l0.1-0.3l0.3-0.1l0.2-0.3l0.1-0.3l0.4-0.1l0.3,0.4l0.2,0.2l0.3,0.3l0.1,0.3l0.3,0.3l0.3,0.1
	l0.3,0.2l0.3,0.1l0.4,0.1l0.4,0.3l0.4,0.3l0.3,0.1l0.1,0.3l0.1,0.4l0,0.3l-0.2,0.2L80.1,59l-0.2,0l-0.3,0.1l-0.3,0.2l-0.2,0l0.2,0.3
	l0.4,0.1l0.3,0.1l0.2,0.1l0-0.3l0.1-0.3l0.3-0.1l0.2-0.2l0.2-0.2l0.1-0.3l0-0.4l0-0.2l-0.2-0.2l-0.1-0.3l0.4-0.2l0.3,0.2l-0.3-0.4
	L81,56.7l-0.3-0.1l-0.2-0.2l-0.3-0.3l-0.2,0L79.3,56l-0.2-0.3L79,55.4l-0.3-0.1L78.3,55l-0.2-0.2l0-0.2l0-0.2l0-0.1L78,53.9l0.5-0.3
	l0.2,0.7l0,0l0.1,0l0.2-0.1l0.3-0.4l0.4,0.3l0,0.1l0,0.2l0,0.1l0.1,0.3l0.4,0.1l0.4,0.2l0.5,0.4l0.7,0.1l0.3,0.4l0.1,0.9l0.1,0.2
	l0.3,0.4l0.5,0.3l0.3,0.4l0.3,0.2l0.4,0l-0.3,0.3l0.1,0.3l0.3,0l0.4-0.2l0.3-0.3v0l0-0.2l0.1,0l0.1-0.1L85,57.9l-0.1,0l-0.2,0h0
	l-0.3,0l-0.2-0.2l-0.1-0.2l0-0.3L84,56.8l-0.1-0.3l0.3,0.2l0.2,0l0.2,0v0l0.1-0.2l-0.1-0.2l0.3,0l0.6,0l0.2,0.3l0.2,0.4l0.2,0.3
	l0.2,0.2l0,0.2L86,57.8l0.1,0.3l0.3,0l0.1,0.5l0.3,0l0.2,0.2l0.4,0.1l0.5,0.3l0.2-0.1l0.1-0.3l0.1-0.2l0.4-0.1l0.4,0.2l0.3,0.1
	l0.4-0.1l0.3-0.2l0.3-0.4l0.3-0.2l0.2,0.5l0,0.1l0,0.2l0,0.3l0.1,0.6l0.1,0.4l-0.1,0.5l0,0.4l0,0.3l-0.1,0.3L90,61.8L89.8,62
	l-0.3-0.1l-0.4,0.1l-0.4,0.2l-0.2,0.1l-0.3,0.1l-0.3,0l-0.3-0.1l-0.1,0.5l-0.2,0.1l-0.2,0l-0.2,0l-0.3-0.2l-0.3,0l-0.3,0l-0.2-0.2
	l-0.1-0.1l-0.1,0h-0.1h-0.3l-0.2,0l-0.2,0l-0.2-0.2L84.4,62l-0.3,0.1l-0.3,0l-0.4,0.4l-0.2,0.2l0.1,0.4l0,0.3l-0.2,0.2l-0.2,0.2
	l-0.4,0l-0.2,0l-0.3-0.1l-0.3-0.1l-0.4-0.1l-0.5-0.2L80.7,63l-0.5,0l-0.5-0.1l-0.4,0l-0.2-0.2l-0.3,0l-0.2-0.2l-0.1-0.3L78.4,62
	l-0.1-0.2l0.2-0.2l-0.1-0.6l-0.3-0.2l0.1-0.4l0.2-0.5L78.1,60l-0.3,0l-0.3,0.1l-0.4,0.2l-0.4,0l-0.3-0.1l-0.1,0.2l-0.3,0l-0.3,0
	l-0.4-0.1L75,60.4l0,0l-0.2,0.1l-0.2,0.2l-0.5,0.1l-0.4-0.1l-0.3,0.1l-0.1,0.3L73,61.4l-0.4,0.2l-0.1,0.2l-0.4,0.1L71.8,62l-0.2,0.2
	L71,62.3l-0.2,0.1l-0.2,0l-0.3-0.1l-0.3-0.1l-0.3,0l0.1,0.4L69.6,63l-0.2,0.4l-0.2,0.3l0,0L69,63.9h0l-0.3,0.2l-0.3,0.5l0,0.7
	l0.1,0.5l0,0.3l0.1,0.4L68.3,67l-0.5,0.6l-0.2,0.3l-0.3,0.3l-0.1,0.3L67,68.6l-0.2,0.7L66.4,70l-0.1,0.4l-0.2,0.5L66,71.5l-0.4,0.6
	l0.1,0.5l0.2,0.4l0,0.1l0.1,0.2l0,0.1l0,0.6l0.1,0.4l0.2,0.3l0.1,0.5l0,0.4l-0.1,0.5l-0.2,0.6L66,77.3l0.2,0.3l0.1,0.5l0.2,0.3
	l0.2,0.2l0.2,0.3l0.2,0.3l0.3,0.1l0.1,0.2l0.4,0.3l0.3,0.3l0.2,0.4l0.2,0.2l0.3,0.4l0.1,0.1l0.1,0.1l0.1,0.1l0.3,0.2l0.6,0.5
	l0.5,0.2l0.5,0.3l0.3,0.1l0.3,0.1l0.2,0l1-0.5l0.4-0.2l0.4,0l0.5-0.1l0.3,0l0.5-0.1l0.4-0.1l0.3-0.2l0.4,0l0.4-0.4l0.3-0.2l0.9-0.3
	l0,0l0.2,0.1l0.1,0l0.5,0.2l0.1,0.3l0.1,0.5l0.4,0.2l0.6-0.2l0.3-0.2l0.3,0l0.6,0.4l0.2,0.3l0,0.8l0,0.2l-0.1,0.4l0.2,0.9l-0.2,0.6
	l0.6,0.6l0.7,0.7l0.7,0.9l0.1,0.5l0.3,0.3l0.4,0.4l0.1,0.7l0.1,0.3l0.1,0.2l0.1,0.2l0.1,0.6l0.1,0.4l0.1,0.4l0.1,0.6L84,92.5l0,0.3
	l0,0.7L83.9,94l0,0.1l-0.1,0.2l-0.1,0.3l0,0.6l0.3,0.5l0.3,0.5l0.4,0.4l0.4,1l0.4,0.4l0.5,1l0.1,0.6l0.1,0.5l0.2,0.6l0.1,0.2l0,0.1
	l0.1,0.3l0.3,0.4l0.4,0.4l0.4,0.3L88,103l0.3,0.6l0.1,0.1l0,0l0.1,0.3l0.2,0.3l0,0.7l0.1,0.5l0.2,0.2l0.4,0.1l0.6,0l0,0l0.2-0.1
	l0.2-0.1l1-0.1l0.3-0.3l0.7-0.1l0.2,0l0.6-0.3l0.3-0.3l0,0l0.1-0.1l0.1-0.1l0.2-0.3l0.1-0.3l0.2-0.2l0.1-0.3l0.2-0.3l0.1-0.3
	l0.1-0.4l0.2-0.3l0.1-0.3l0.2-0.2l0.2-0.3l-0.2-0.3l0.6-0.1l-0.1-0.7l-0.1-0.5l-0.2-0.3l0.2-0.2l0.3-0.3l0.4-0.2l0.3-0.1l0.2-0.2
	l0-0.3l-0.1-1.6L96.2,96l-0.1-0.2l-0.2-0.2l-0.1-0.3l0-0.3l0.2-0.2l0.1-0.3l0.2-0.5l0.2-0.3l0.6-0.4l0.6-0.4l0.2-0.4l0.3-0.7
	l0.1-0.6l-0.1-0.5l-0.1-0.4l0-0.2l0-0.3L98,89.7l0-0.2l-0.1-0.3l-0.1-0.6l-0.2-0.3L97.2,88l-0.1-0.9l0.1-0.5L97,86.4l-0.3-0.3
	l-0.1-0.4l0.3-0.8l-0.1-0.7l0.1-0.4l0.2-0.4l0.4-0.4l0.2-0.5l0.4-0.7l0.2-0.6l0.3-0.3l0.4-0.4l0.5-0.5l0.5-0.9l0.4-0.6l0.2-0.7v-0.4
	l0.2-0.7l0.2-0.9l0.3-0.7l0-0.5l0.1-0.5l-0.1-0.5l0-0.1l0-0.1l-0.1-0.4l-0.4,0.2l-0.3,0.2l-0.4,0.1l-0.2,0.1L99.6,74l-0.1,0.1
	l-0.2,0.2l-0.5,0l-0.2,0l-0.3,0L98,74.4l-0.6-0.5L97,73.5l0-0.3l-0.4-0.4l-0.2-0.2l-0.3-0.2l-0.3-0.2l-0.2-0.3l-0.3-0.1l0,0L95,71.7
	l-0.2-0.1l-0.2-0.5l-0.1-0.4l0,0l-0.1-0.1l-0.1-0.3L94,70l-0.3-0.4l-0.3-0.3l-0.2-0.6v-0.5L93.1,68l-0.3-0.4l-0.5-0.3l-0.4-0.9
	l-0.2-0.3l-0.3-0.8L91.2,65l-0.4-0.4l-0.1-0.4l-0.3-0.3l0-0.3l-0.1-0.3l0.3,0.4l0.4,0.2l0.5,0.2l0.3,0.5l0.2,0.4l0.6,0.5l0.4,0.4
	l0.6,0.4l0.1,0.3l0.1,0.4l0.1,0.4l0.2,0.3l0.1,0.3l0.4,0.7l0.1,0.1l0.2,0.1l0.4,0.2l0.4,0.4l0.3,0.4l0.3,0.6l0,0l0.1,0.2l0.1,0.3
	l0.2,0.6l0.1,0.3l0.6,0.5l0.3,0.1l0.4,0.1l0.5-0.3l0.2,0l0.5-0.1l0.8-0.5l0.5-0.2l0.3-0.4l0.3-0.2l0.1-0.1v0l0-0.5L102,70l0.2-0.3
	l0.1-0.1l0.1-0.2l0,0l0.3-0.4l0.6-0.3l0.2-0.4l0.2-0.6l0.2-0.3l0.3-0.6l-0.1-0.4l0.3-0.6l-0.2-0.5l-0.6-0.4l-0.4-0.1l-0.4-0.2
	l-0.2-0.4l-0.3-0.2l-0.1-0.4l-0.5,0.6l0,0l-0.1,0.3l0,0.1l-0.7,0.3l-0.3,0.1l-0.3,0l-0.2-0.5l-0.2-0.4l-0.3,0l-0.2,0.4l-0.3-0.4
	L99,64l-0.4-0.7l-0.3-0.4L98,62.4l-0.2-0.3l0-0.4l0.6-0.2l0.6-0.1l0.4,0.4l0.1,0.3l0.1,0.2l0.3,0.4l0.2,0.2l0.4,0.3l0.3,0.1l0.4,0.1
	l0.4-0.1l0.2,0l0,0l0.4-0.1l0.3-0.1l0.3,0l0.3,0.4l0.2,0.2l0.3,0l0.9,0.2l0.4,0.2l0.9-0.2l1.3-0.4l0.4,0.1l0.2,0.1l0.2,0l0,0
	l0.1,0.2l0.7,0.2l0.5,0.3l0.4,0.2l0.4-0.1l-0.5,0.7l-0.2,0.3l0.6,0.4l0.6,0.1l0.3,0l0.2-0.2l-0.1-0.6l0.1-0.3l0.3,0.1l0.2,0.5
	l0.1,0.6l0,0.6l0.2,0.7l0.3,0.8l0.1,0.1l0,0l0.4,0.9l0.5,0.7l0.1,0.7l0,0.1l0.1,0.5l0,0l0.6,0.6l0.5,0.8l0.2,0.6l0.5,0.3l0.4-0.3
	l0.2-0.4l0.3-0.2l0.1,0.2l0.1,0.7l0.3,0.5l0.2,0.6L117,75l0.3-0.3l-0.1-0.5l-0.1-0.4l-0.4-0.4l-0.2-0.3l-0.1-0.2l-0.3-0.4l-0.1-0.4
	l-0.1-0.4l-0.1-0.6l0.1-0.5l-0.1-0.7l-0.1-0.5l0-0.4l0.6-0.7l0.4-0.5l0.4-0.2l0.5-0.7l0.2-0.3l0.2-0.3l0.3-0.6l0.2-0.1l0.1-0.1
	c0.1,1.1,0.1,2.3,0.1,3.5C118.7,96.3,96.5,118.4,69.2,118.4z M87.2,55.9l-0.1,0.2l-0.1,0L86.8,56l-0.1,0.1l-0.3,0.2l-0.2,0l0.1-0.2
	l0.4-0.2l0.1-0.1l0.1-0.1l0.1-0.2l-0.1,0l-0.2,0l-0.2-0.1l-0.1-0.2l-0.2-0.3l0.1-0.3l0.1-0.3l0-0.1l0.2-0.2l0,0l0-0.2l-0.1-0.4
	l0.1-0.2l0-0.1l0.2-0.1l-0.1-0.3l-0.1-0.2l0.1-0.2l0.1-0.1l0.2-0.3l0.1-0.1l0.1-0.3l0.3,0l0.1,0l0.1,0.1l0,0.1l0.1,0.1l0.4,0.1
	l0.3,0l0.2-0.1l0,0.2L88.8,52l-0.3,0.1l-0.1,0.2l-0.1,0.2l0.2,0h0.3l0.1,0.1l0,0.2L89,52.9l0.1,0.1h0.2l0.2-0.2l0.3-0.1l0.2-0.1
	l0.1,0l0.1-0.1l0.2,0l0.1-0.2l0.4-0.1l0.1,0.1l0.1,0.2l0.2,0.1l0.2,0.1l0.3,0.2l0.1,0.1l0.1,0.1l0.2,0.1l0.2,0.1l0.1,0l0.4,0.1
	l0.3,0l0.1,0.1l0.1,0.2l0,0.1l0,0.1l0,0l0,0.1l0,0.2l-0.1,0.3l-0.2,0.2L93,54.7l-0.2,0.2l-0.1,0l-0.2-0.1l-0.1-0.1l0,0l-0.1-0.1
	l-0.1,0.1l0,0L92.1,55L91.5,55l-0.2-0.1l-0.1-0.1l-0.1-0.1h-0.2l-0.1,0.1l-0.2-0.2l-0.1,0l-0.1,0h-0.2l0-0.2l-0.3,0l-0.8,0l-0.1,0.2
	L88.6,55l-0.1,0.1l-0.2,0.1l-0.1,0.1l-0.1,0.1l-0.4,0.1l-0.1-0.1l-0.3,0l-0.2,0.1L87.2,55.9z M90.9,51.3l0.2,0.1l0.1,0.1l-0.2,0.2
	l0.1,0.1L90.8,52l-0.3,0.1l-0.3,0.1l-0.4,0.1l-0.2-0.1L89.6,52l0-0.1l-0.2-0.1l-0.1-0.1l-0.1-0.1L89,51.6l0.5-0.1l0.1,0l0.2-0.1
	l0.1-0.2l0.2-0.1l0.4-0.1l0.1-0.1l0.2-0.1l0.1-0.1l0.1-0.1l0,0l0.2-0.1l0.2,0l0.1,0l0,0.1l-0.2,0.1l-0.1,0.2L91.3,51L91.2,51l0,0.1
	l0,0l-0.1,0l-0.2,0.1L90.9,51.3z"/>
<path class="st0" d="M39,8.6l-1-2c0.7-0.3,1.4-0.7,2.1-1L41,7.6C40.3,7.9,39.6,8.2,39,8.6z"/>
<path class="st0" d="M68.7,138.8c-1.5,0-3-0.1-4.5-0.2l0.2-2.3c1.4,0.1,2.9,0.2,4.4,0.2L68.7,138.8z M73.3,138.7l-0.1-2.3
	c1.5-0.1,2.9-0.2,4.4-0.4l0.3,2.2C76.3,138.4,74.8,138.6,73.3,138.7z M59.7,138.1c-1.5-0.2-3-0.5-4.5-0.8l0.5-2.2
	c1.4,0.3,2.9,0.5,4.3,0.7L59.7,138.1z M82.3,137.6l-0.4-2.2c1.4-0.3,2.9-0.6,4.3-1l0.6,2.2C85.3,136.9,83.8,137.3,82.3,137.6z
	 M50.8,136.3c-1.5-0.4-2.9-0.8-4.3-1.3l0.7-2.1c1.4,0.5,2.8,0.9,4.2,1.3L50.8,136.3z M91.1,135.3l-0.7-2.1c1.4-0.5,2.8-1,4.1-1.5
	l0.8,2.1C93.9,134.3,92.5,134.8,91.1,135.3z M42.2,133.4c-1.4-0.6-2.8-1.2-4.1-1.9l1-2c1.3,0.7,2.6,1.3,4,1.8L42.2,133.4z
	 M99.5,131.9l-1-2c1.3-0.6,2.6-1.3,3.9-2l1.1,2C102.2,130.5,100.9,131.2,99.5,131.9z M34.1,129.3c-1.3-0.8-2.6-1.6-3.8-2.4l1.3-1.9
	c1.2,0.8,2.5,1.6,3.7,2.3L34.1,129.3z M107.4,127.4l-1.2-1.9c1.2-0.8,2.4-1.6,3.6-2.5l1.4,1.8C109.9,125.7,108.7,126.6,107.4,127.4z
	 M26.5,124.2c-1.2-0.9-2.4-1.9-3.5-2.9l1.5-1.7c1.1,1,2.2,1.9,3.4,2.8L26.5,124.2z M114.6,122l-1.5-1.7c1.1-1,2.2-1.9,3.2-3l1.6,1.6
	C116.9,120,115.8,121,114.6,122z M19.7,118.2c-1.1-1.1-2.1-2.2-3.1-3.3l1.7-1.5c1,1.1,2,2.2,3,3.2L19.7,118.2z M121.1,115.6
	l-1.7-1.5c1-1.1,1.9-2.2,2.8-3.4l1.8,1.4C123.1,113.3,122.1,114.5,121.1,115.6z M13.7,111.4c-0.9-1.2-1.8-2.4-2.6-3.7l1.9-1.3
	c0.8,1.2,1.7,2.4,2.6,3.6L13.7,111.4z M126.8,108.5l-1.9-1.3c0.8-1.2,1.6-2.4,2.4-3.7l1.9,1.2C128.4,106,127.6,107.2,126.8,108.5z
	 M8.7,103.8c-0.8-1.3-1.5-2.6-2.1-4l2-1c0.6,1.3,1.3,2.6,2.1,3.9L8.7,103.8z M131.4,100.7l-2-1c0.7-1.3,1.3-2.6,1.9-4l2.1,0.9
	C132.7,98,132.1,99.3,131.4,100.7z M4.7,95.7c-0.6-1.4-1.1-2.8-1.6-4.3l2.1-0.7c0.5,1.4,1,2.8,1.5,4.1L4.7,95.7z M135,92.3l-2.1-0.8
	c0.5-1.4,0.9-2.8,1.3-4.2l2.2,0.6C136,89.5,135.5,90.9,135,92.3z M1.8,87.1c-0.4-1.5-0.7-2.9-1-4.4L3,82.2c0.3,1.4,0.6,2.9,1,4.3
	L1.8,87.1z M137.5,83.6l-2.2-0.5c0.3-1.4,0.6-2.9,0.8-4.3l2.2,0.3C138.1,80.6,137.8,82.1,137.5,83.6z M0,78.2
	c-0.2-1.5-0.3-3-0.4-4.5l2.3-0.1c0.1,1.5,0.2,2.9,0.4,4.4L0,78.2z M138.8,74.6l-2.3-0.2c0.1-1.4,0.2-2.9,0.2-4.4l2.3,0
	C139,71.6,138.9,73.1,138.8,74.6z M-0.6,69.1V69c0-1.5,0-2.9,0.1-4.4l2.3,0.1c-0.1,1.4-0.1,2.8-0.1,4.2L-0.6,69.1z M136.7,65.6
	c-0.1-1.5-0.2-2.9-0.4-4.4l2.2-0.3c0.2,1.5,0.3,3,0.4,4.5L136.7,65.6z M2.2,60.4L0,60.1c0.2-1.5,0.4-3,0.7-4.5L2.9,56
	C2.6,57.4,2.4,58.9,2.2,60.4z M135.7,56.9c-0.3-1.4-0.6-2.9-0.9-4.3l2.2-0.5c0.4,1.5,0.7,2.9,1,4.4L135.7,56.9z M3.9,51.7l-2.2-0.6
	c0.4-1.5,0.8-2.9,1.3-4.4l2.1,0.7C4.7,48.9,4.3,50.3,3.9,51.7z M133.6,48.4c-0.4-1.4-0.9-2.8-1.5-4.1l2.1-0.8
	c0.6,1.4,1.1,2.8,1.5,4.3L133.6,48.4z M6.7,43.4l-2.1-0.9c0.6-1.4,1.2-2.8,1.9-4.1l2,1C7.8,40.7,7.2,42,6.7,43.4z M130.3,40.2
	c-0.6-1.3-1.3-2.6-2-3.9l2-1.1c0.7,1.3,1.4,2.7,2.1,4L130.3,40.2z M126.1,32.5c-0.8-1.2-1.6-2.4-2.5-3.6l1.8-1.3
	c0.9,1.2,1.8,2.5,2.6,3.7L126.1,32.5z M120.9,25.5c-0.9-1.1-1.9-2.2-2.9-3.3l1.6-1.6c1,1.1,2.1,2.2,3,3.4L120.9,25.5z M114.8,19.1
	c-1.1-1-2.2-1.9-3.3-2.9l1.4-1.8c1.2,0.9,2.3,1.9,3.5,3L114.8,19.1z M107.9,13.6c-1.2-0.8-2.4-1.6-3.7-2.4l1.2-1.9
	c1.3,0.8,2.6,1.6,3.8,2.5L107.9,13.6z M100.4,9.1c-1.3-0.7-2.6-1.3-4-1.9l0.9-2.1c1.4,0.6,2.8,1.3,4.1,2L100.4,9.1z M45,5.9
	l-0.8-2.1c1.4-0.5,2.9-1,4.3-1.5l0.7,2.2C47.8,4.9,46.4,5.4,45,5.9z M92.4,5.5c-1.4-0.5-2.8-1-4.2-1.4L88.8,2
	c1.5,0.4,2.9,0.9,4.3,1.4L92.4,5.5z M53.4,3.3l-0.5-2.2c1.5-0.4,3-0.7,4.5-0.9l0.4,2.2C56.3,2.7,54.8,2.9,53.4,3.3z M83.9,3
	c-1.4-0.3-2.9-0.6-4.3-0.8L80,0c1.5,0.2,3,0.5,4.5,0.8L83.9,3z M62.1,1.8l-0.2-2.2c1.5-0.2,3-0.3,4.5-0.3l0.1,2.3
	C65,1.5,63.5,1.7,62.1,1.8z M75.3,1.7c-1.5-0.1-2.9-0.2-4.4-0.2l0.1-2.3c1.5,0,3,0.1,4.5,0.3L75.3,1.7z"/>
<path class="st0" d="M10.6,35.3l-2-1.1c0.4-0.7,0.8-1.3,1.2-2l1.9,1.2C11.4,34,11,34.7,10.6,35.3z"/>
<path class="st0" d="M31.5,9.1c1.5-1.5,3.8,0.8,2.2,2.3l-6.3,6.3l3.4,14.2l-2.3,2.3l-5.8-11.7l-4.7,4.7l0.4,3.6l-1.9,1.8l-2.1-4.1
	l-4.1-2.2l1.9-1.8l3.6,0.4l4.7-4.7l-11.6-6l2.3-2.3l14,3.5L31.5,9.1z"/>
<rect x="-0.9" y="86.1" class="st1" width="140" height="53"/>
<path class="st0" d="M38.8,108.5h-2l-4-5.6v8.6H29V97.1h3.9l5,7.4l5-7.4h3.9v14.4h-3.9v-8.6L38.8,108.5z"/>
<path class="st0" d="M52.9,97.1h3.9v14.4h-3.9V97.1z"/>
<path class="st0" d="M66.3,106.7v-9.7h3.9v10.1c0,0.8-0.1,1.4-0.3,2c-0.2,0.6-0.5,1.1-1,1.4c-0.5,0.4-1.1,0.7-1.8,0.9
	c-0.7,0.2-1.6,0.3-2.7,0.3c-0.4,0-0.8,0-1.3-0.1c-0.4,0-0.9-0.1-1.2-0.2V108c0.3,0.1,0.7,0.2,1.2,0.3c0.4,0,0.8,0.1,1.2,0.1
	c0.5,0,0.9,0,1.1-0.1c0.3-0.1,0.5-0.2,0.6-0.3c0.1-0.1,0.2-0.3,0.3-0.5C66.3,107.2,66.3,107,66.3,106.7z"/>
<path class="st0" d="M89.5,97.1v3.4h-9.9v2.1h7.7v3.4h-7.7v1.9h9.9v3.4H75.7V97.1H89.5z"/>
<path class="st0" d="M103.7,111.5h-3.9v-10.9h-5.6v-3.4h15v3.4h-5.6V111.5z"/>
<path class="st0" d="M115.8,119.3H21.5c-0.7,0-1.1,0.7-1.1,1.7c0,1,0.5,1.7,1.1,1.7h94.2c0.7,0,1.1-0.7,1.1-1.7
	C116.8,120,116.4,119.3,115.8,119.3z"/>
<path class="st0" d="M44.2,127.9v1.3h-3.8v0.8h3v1.3h-3v2.1h-1.5v-5.6H44.2z"/>
<path class="st0" d="M50.5,133.5h-5.3v-5.6h1.5v4.2h3.8V133.5z"/>
<path class="st0" d="M52.3,133.5v-2.1l-2.2-3.2v-0.3h1.5l1.5,2.3l1.5-2.3H56v0.3l-2.2,3.2v2.1H52.3z"/>
<path class="st0" d="M58.5,127.9h1.3l1.1,3.7l1.1-3.7h1.1l1.1,3.7l1.1-3.7h1.3v0.3l-1.9,5.3h-1l-1.2-3.6l-1.1,3.6h-1l-1.9-5.3V127.9
	z"/>
<path class="st0" d="M67.5,127.9H69v5.6h-1.5V127.9z"/>
<path class="st0" d="M73.6,133.5h-1.5v-4.3h-2.2v-1.3h5.8v1.3h-2.2V133.5z"/>
<path class="st0" d="M76.6,127.9h1.5v2.2h2.9v-2.2h1.5v5.6h-1.5v-2.1h-2.9v2.1h-1.5V127.9z"/>
<path class="st0" d="M90.4,127.9h1.5v3.3c0,0.3,0,0.7-0.1,1c-0.1,0.3-0.2,0.6-0.5,0.8c-0.2,0.2-0.5,0.4-0.9,0.5
	c-0.4,0.1-0.8,0.2-1.4,0.2h-0.3c-0.6,0-1-0.1-1.4-0.2c-0.4-0.1-0.7-0.3-0.9-0.5c-0.2-0.2-0.4-0.5-0.5-0.8c-0.1-0.3-0.1-0.6-0.1-1
	v-3.3h1.5v3c0,0.2,0,0.4,0,0.5c0,0.2,0.1,0.3,0.2,0.4c0.1,0.1,0.2,0.2,0.4,0.3c0.2,0.1,0.5,0.1,0.9,0.1c0.4,0,0.7,0,0.9-0.1
	c0.2-0.1,0.4-0.2,0.4-0.3c0.1-0.1,0.1-0.3,0.2-0.4c0-0.2,0-0.3,0-0.5V127.9z"/>
<path class="st0" d="M95.7,132.3c0.3,0,0.5,0,0.7,0c0.2,0,0.3-0.1,0.4-0.1c0.1,0,0.1-0.1,0.2-0.2c0-0.1,0-0.1,0-0.2
	c0-0.1,0-0.2-0.1-0.2c0-0.1-0.1-0.1-0.2-0.1c-0.1,0-0.2-0.1-0.4-0.1c-0.2,0-0.4,0-0.6,0c-0.1,0-0.3,0-0.5,0c-0.2,0-0.4,0-0.6-0.1
	c-0.2,0-0.4-0.1-0.6-0.2c-0.2-0.1-0.4-0.2-0.5-0.3c-0.2-0.1-0.3-0.3-0.4-0.5c-0.1-0.2-0.1-0.4-0.1-0.7v-0.1c0-0.2,0-0.5,0.1-0.7
	c0.1-0.2,0.2-0.4,0.4-0.6c0.2-0.2,0.5-0.3,0.8-0.4c0.4-0.1,0.8-0.1,1.3-0.1H96c0.4,0,0.8,0,1.1,0.1c0.4,0,0.7,0.1,1.1,0.2v1.4
	c-0.4-0.1-0.8-0.2-1.2-0.2c-0.4-0.1-0.8-0.1-1.2-0.1c-0.3,0-0.5,0-0.7,0c-0.2,0-0.3,0.1-0.4,0.1c-0.1,0-0.1,0.1-0.2,0.2
	c0,0,0,0.1,0,0.2c0,0.1,0,0.2,0.1,0.2c0,0.1,0.1,0.1,0.2,0.1c0.1,0,0.2,0.1,0.4,0.1c0.2,0,0.4,0,0.6,0c0.1,0,0.3,0,0.5,0
	c0.2,0,0.4,0,0.6,0.1c0.2,0,0.4,0.1,0.6,0.2c0.2,0.1,0.4,0.2,0.5,0.3c0.2,0.1,0.3,0.3,0.4,0.5c0.1,0.2,0.1,0.4,0.1,0.7v0.1
	c0,0.2,0,0.5-0.1,0.7c-0.1,0.2-0.2,0.4-0.4,0.6c-0.2,0.2-0.5,0.3-0.8,0.4c-0.3,0.1-0.8,0.1-1.3,0.1h-0.3c-0.4,0-0.9,0-1.3-0.1
	c-0.4,0-0.8-0.1-1.2-0.2V132c0.5,0.1,0.9,0.2,1.4,0.2C94.8,132.3,95.3,132.3,95.7,132.3z"/>
</svg>
