<?xml version="1.0" encoding="utf-8"?>
<!-- Generator: Adobe Illustrator 24.1.2, SVG Export Plug-In . SVG Version: 6.00 Build 0)  -->
<svg version="1.1" id="Слой_1" xmlns="http://www.w3.org/2000/svg" xmlns:xlink="http://www.w3.org/1999/xlink" x="0px" y="0px"
	 viewBox="0 0 139.5 139.6" style="enable-background:new 0 0 139.5 139.6;" xml:space="preserve">
<style type="text/css">
	.st0{fill:#FFFFFF;}
	.st1{fill:#AC8650;}
</style>
<path class="st0" d="M67.9,47l0.1,0.1l0,0.1l0.1,0.1l-0.1,0.1l0,0.1l0,0.2l0.1,0.1l0.1-0.1l0.1-0.1l0.2,0l0,0.1l-0.1,0.2l0,0.1
	l0,0.1l0,0.2l0,0.2l0.1,0l0.2,0l0.2,0l0.2,0l0.2-0.1l0,0.1l0,0.1l0,0.2l0,0.1l0.1,0l0.2,0l0,0.1l0,0.2l0,0.1l-0.1,0.1l-0.2,0.2
	l-0.1,0l-0.2-0.1l-0.1,0l-0.1,0l0.1,0.2l0,0.2l0,0.1l-0.1,0.1l0.1,0.1l0.1,0l0.1,0.1l0,0.1l-0.1,0.1L69,50.6l-0.2,0.1l0,0.1l0,0.2
	l0.1,0.1l0.1,0l0-0.1l0.2-0.1l0.2,0.2l0.2,0l0.1,0l0.1,0l0.1,0l0.2,0l0,0.1L70,51.2l-0.2,0l-0.1,0l-0.2,0.1l-0.1,0l-0.1,0l-0.1,0.1
	l-0.1,0.1L69,51.7l0,0.2l0,0.1l-0.1,0.1l-0.1,0.1l0,0.2l0.1,0.1l0.3-0.1l0.1-0.1l0.1-0.2l0.1-0.1l0.1,0l0.2,0.1l0.1,0l0.1,0l0.1,0
	l0-0.2l0.1-0.1l0.2,0l0.2,0l0.1,0l0.1-0.1l0.1-0.1l0.1,0l0.1,0l0.2,0l0.1,0l0.1,0l0.3,0l0.2,0l0.1,0l0.1-0.1l0.1,0l0.1-0.1l0.1-0.1
	l0-0.1l-0.1-0.1l-0.1,0l-0.1,0l0-0.2l0-0.1v-0.1l0.1,0l0.1,0l0.1,0l0.1-0.1l0-0.1l0-0.1l0-0.1l0-0.3l-0.2-0.1l-0.1,0l-0.2,0
	l-0.1,0.1l-0.1,0.2l-0.1-0.1l-0.1-0.1l0-0.2l0-0.2l-0.1-0.1l0.2,0L71.4,49l-0.1,0l-0.1-0.1l-0.2,0l0-0.1l-0.1-0.1l-0.3-0.2l-0.2,0
	l-0.1-0.1l-0.1-0.1l0-0.1l-0.1-0.1L70,47.7h-0.2l0-0.1l-0.1-0.1l-0.1,0l-0.1,0l0-0.1l0-0.1l0-0.2l0-0.1l0.1-0.1l0.1-0.1l0.1-0.1
	l0-0.1l0-0.1l0-0.1l0-0.1l0,0L69.7,46l-0.1,0l-0.1,0l-0.1,0l-0.2,0.1l-0.1,0l-0.2,0l-0.1,0l0-0.1l0-0.2l0.1-0.1l0-0.1l0.2-0.1l0-0.3
	l0-0.1l-0.2,0l-0.2,0.1l-0.2,0.1l-0.1,0l-0.1-0.1l-0.1,0l0,0.1l0,0.1l-0.1,0.2l0,0.1l0,0.2l0,0.1l-0.1,0.1l0,0.1l0,0.1l0,0.2l0,0
	l0,0.1l0,0l0,0.1L67.9,47z"/>
<path class="st0" d="M68.2,49l0-0.2l-0.1-0.1L68,48.6L68,48.5l-0.1-0.1l-0.1,0l0,0.1l-0.2,0.1l0-0.1l0-0.1l0-0.1l-0.1-0.1l-0.2,0.1
	l-0.1,0l-0.1,0l0,0.1l0,0.1l0,0.1l0,0.1l0,0.1l-0.1,0l-0.1,0.1l0,0.1l-0.2,0l-0.1,0l-0.1,0l0,0.1l0,0.1l0,0.2l-0.2,0.1l0,0.2l0,0.1
	l0.1,0.1l0.1,0l0.1,0l0.1-0.1l0.1-0.1l0.1,0.1l-0.1,0.1l0,0.1l0,0.1l0,0.1l-0.1,0.1l-0.1,0.3l-0.1,0.2l-0.2,0.2l0.1,0.1l0,0.1l0.1,0
	l0,0.1l0.1,0l0.1-0.1l0.1-0.1l0.1,0.1l0.1,0l0.2-0.1l0.1-0.2l0.1-0.1l0.1,0l0.2,0l0-0.1l0-0.2l0.1,0l0.1-0.1l0-0.2l0.1-0.1l0-0.1
	l-0.1-0.2l0-0.2l0-0.1l0-0.1l0-0.1l0-0.1l0.1-0.1l0.1-0.1l0.1-0.1L68.2,49L68.2,49z"/>
<path class="st0" d="M33.8,77.4l-0.1-0.1l-0.4,0l-0.5,0l-0.2-0.1L32,77.4l-0.2,0.2l-0.1,0.1l-0.1,0.2l-0.1,0.2l0.1,0.1l0.2-0.1
	l0.1-0.1l0.1-0.2l0.1-0.2l0.2-0.1l0.2-0.1l0.2,0.2l0.1,0.1l0.1-0.1l0.1,0l0.2,0.1l0.1-0.1l0.4,0.3l0.1,0.2l0.3-0.1l0.3,0l0.1,0.2
	l0.1,0.2l0.2,0l0.2,0l0.1,0.2L35.2,79l0,0.1l0.1,0l0.4-0.1l0.4-0.2l0.1-0.1l0.2,0l0.3,0l-0.2-0.4l-0.4,0l-0.1-0.1L35.9,78l-0.3,0
	L35.4,78l-0.1-0.1L35,77.8l-0.8-0.2L33.8,77.4z"/>
<path class="st0" d="M37.2,79.6l-0.3,0l0,0.2l0.2,0.1l0.3,0l0.3,0h0l0.2,0l0.2,0l0.5,0l0.1,0.1l0.1-0.1l0.1-0.2l0-0.2l0.1,0l0.2,0
	l0.2-0.1l0.2-0.1l0.2-0.1l0.2,0l0.2-0.1L39.8,79l-0.5,0L39,78.7l-0.4-0.1l-0.5,0.1l-0.3,0.1l0,0.4l0.2,0.1l0,0.2l-0.2,0l-0.1,0h-0.1
	l-0.3,0L37.2,79.6z"/>
<path class="st0" d="M35.7,79.9L35,80l-0.1,0.2l0.3,0.1l0.2,0.1l0.1,0.1l0.1,0.1l0.1-0.1l0.2-0.1l0.1-0.1L35.8,80L35.7,79.9z"/>
<path class="st0" d="M69.7,18.1c-28.5,0-51.7,23.2-51.7,51.7c0,28.5,23.2,51.7,51.7,51.7c28.5,0,51.7-23.2,51.7-51.7
	C121.4,41.3,98.2,18.1,69.7,18.1z M99.7,55.1l0,0.1l0,0.1l0.1,0.1l0.1-0.1l0.1,0l0,0l0.1,0l0.1,0v0l0,0.1l-0.1,0.2l0.1,0.2l0.1,0.1
	l0.1,0.1l0,0l0.1,0.1l0,0.1l0,0.1l-0.1,0l0,0l0,0.1l0.1,0.2l0,0.2l0,0.2l0,0.1v0l0,0.2l0,0.1l0,0.1l0,0.1l-0.1,0l-0.1-0.1l-0.1,0
	l-0.1,0l-0.1,0.1l-0.1,0l-0.1,0.1l-0.1,0.1l-0.2,0l-0.3-0.1l-0.1-0.1l-0.1,0l-0.1,0l-0.1-0.1l-0.1,0l-0.1,0l-0.1,0l-0.1-0.1l-0.1,0
	l0-0.1l0-0.1l0-0.1l0-0.1L98.1,57L98,56.9l-0.1-0.1l0-0.2l0.1-0.1l0.1-0.2l0-0.1l0-0.2l0-0.1l0-0.1l0.1-0.1l0-0.1l0-0.2l0-0.1l0.1,0
	l0.1,0l0-0.1l-0.1-0.1l-0.1,0L98,55l-0.1-0.1l0-0.1l-0.1-0.2l0,0l-0.1-0.1l-0.2-0.1l-0.1-0.1l-0.1-0.1l0-0.2L97.1,54l-0.2-0.2
	l-0.1-0.5l-0.1-0.1l0-0.2l0.1-0.1l-0.1-0.1l-0.1-0.1l-0.1,0.1l-0.1,0.1l0-0.1v-0.2l0-0.2l0.1-0.4l0-0.2l0-0.3l0.1-0.1l0.1-0.1
	l0.1,0.1l0.2,0.1l0.2-0.2l-0.1,0l0-0.1l0.2,0l0.1,0l0.1,0.1l0.1-0.1l0-0.1l0.1-0.1l0.3,0l0.1,0l0.1-0.2l0-0.1l0.1-0.1l0.1-0.1
	l0.1-0.1l0.1,0l0.1,0.1l0.1,0.1l0.1,0h0.1h0.1l0.2,0l0.1,0.1l0.1,0.1l0.3,0.1l0.2,0l0,0.2l0.1,0.2l0.1,0.1l0.1,0.1l0.1,0.1l0,0.1
	l0,0.2l-0.1,0.1l-0.2,0.1l-0.2,0l-0.1-0.1l-0.1,0l-0.1,0l-0.1,0l0,0H99h0l-0.1,0.1l0,0.1l-0.2,0c0,0,0,0-0.1,0
	C98.5,52,98.5,52,98.5,52l0,0.3l0.1,0.1l0,0.1l-0.2,0l-0.3,0.1l0.1,0.2l0.2,0.1l0.2,0.1l0.1,0.2l0.1,0.1l0.2,0.1l0.1,0.1l0.1,0h0.1
	l0.1,0l0.1,0l0.2,0.6h0.1l0.1,0l0,0l0.1-0.1l0,0l0,0l0.1,0.1l0.1,0l0.2,0.1c0,0,0,0.1,0.1,0.1c0,0.1,0.1,0.2,0.1,0.2l0.1,0.1l0.1,0
	l-0.1,0.1l-0.1,0l0,0.1l0,0.1l0,0.1l-0.1,0l-0.1,0l-0.1,0l-0.1-0.1l-0.1,0l-0.1,0l-0.1,0l0,0l-0.1,0.2L99.7,55L99.7,55.1z
	 M53.4,23.1L53.4,23.1c0.2-0.1,0.5-0.2,0.7-0.2L54,22.9l0,0l-0.2,0.1l-0.1,0L53.4,23.1L53.4,23.1z M69.7,119.2
	c-23.2,0-42.6-15.9-48-37.4l0.1,0.1l0.2,0.3l0.5,0.2l0.4,0.2l0.2,0.1l0.3,0.1l0.4,0.2l0.3,0l0.3,0.1l0.3,0.2l0.6,0l0.4,0.1l0.4-0.2
	l0.2-0.2l0.9,0l0.2,0l0.1,0l0.2,0.2l0.3,0.1l0.2,0.4l0.4,0.1l0.4,0.2l0.2,0l0.6,0.3l0.3-0.2l0.3-0.1l0.5,0.1l0.1,0.3l0.3,0l0.3,0.3
	l0.2-0.1l0.1,0.1l0.1,0.1l0,0l0.3,0.2l0,0.2l-0.2,0.1L32,85.7l0.2,0.4l0.2,0l0.3,0.1l0.3,0.2l0.2,0.4l0.3,0.1l0.1,0l0.1,0.1l0.1,0
	l0.2-0.1l0.4,0.3l0.2,0l0.5-0.2l0-0.2L35,86.7l0.2-0.2l0.3,0l0.3,0.1l0.2,0l0.1,0.2l0,0.3l0.1,0.3l0.3,0l0.1,0.3l0,0.3l0,0.3
	l0.1,0.3L36.7,89l0,0.4l0.3,0.2L36.6,90l-0.2,0.3l-0.1,0.3l0.1,0.4l-0.3,0.3l-0.2,0.3l-0.2,0.2l0.2,0.3l0,0.1l-0.1,0.2v0l0,0.3
	l-0.1,0.2l0,0.4l0,0.3l0.1,0.3l0.2,0l0.1,0.2L36,94.4l-0.2,0.2L35.7,95l0.1,0.3l0.1,0.3l0.3,0.6l0.3,0.2l0.3,0.2l0.3,0.2l0.2,0.2
	l0.3,0.2L38,98l0,0.1l0.1,0.2l0.1,0.1l0.3,0.5l0.7,1.2l0.5,0.9l0.2,0.4l0.4,0.1l0.3,0.2l0.2,0.1l0.1,0.1l0.1,0l0.5,0.1l0.3,0.2
	l0.4,0.1l0.2,0.2l0.2,0.2l0.1,0.2l0.2,0.6l0.2,0.4l0.1,0.5l0,0.5l0,0.7l0,0.3l-0.1,0.4l0,0.2l0.2,0.7l0,0.3l-0.1,0.3l0,0l-0.1,0.1
	l-0.1,0.1l0,0.2l0.1,0.3l0,0.8l-0.1,0.4l0,0.1l0,0.2v0l0.3,0.3l0.1,0.3l-0.1,0.5l0,0.1l0,0.1c0.3,0.2,0.5,0.3,0.7,0.5
	c2.2,1.3,4.5,2.5,6.9,3.4l0,0l0.1-0.2l0,0l0.2-0.9l-0.1-0.3l-0.3-0.1l0-0.3v0l-0.2-0.3l0,0l-0.4-0.3l-0.3-0.4l0-0.5l0.2,0.1l0.2,0.4
	l0.3,0.1l0.2,0.2l0.3,0l0.3-0.1l0.7-0.1l0.2-0.3l0.1-0.1l0.3-0.6l0.1-0.2l0.1-0.1l0.1-0.4l0-0.5l0.3-0.5l0.1-0.5l0-0.2l0.3,0.5
	l0.1,0.1l0,0l0-0.2l0-0.2l0.1-0.4l0.1-0.5l0.3-0.3l0.2-0.3l0-0.2l0-0.3l-0.1-0.4l-0.2-0.6l0.1-0.2l0.2-0.3l0.2-0.2l0.3-0.4l0.4-0.4
	l0.1-0.1l0,0l0.4-0.2l0.1-0.3l0.3-0.2l0.6-0.4l0.4,0l0.1-0.3l0-0.5l0.2-0.7l0.3-0.5l0.2-0.7l0-0.3l0.1-0.3l0-0.7l-0.1-0.5l0.1-0.6
	l0-0.1l0-0.1L58.1,98l0.2-0.9l0.2,0l0.1,0l0.1-0.2l0.1-0.3l0.1-0.4l0.1-0.4l0.3-0.5l0.5-0.5l0-0.5l0,0l0-0.2l0.1-0.5l-0.2-1
	l-0.3-0.3L59.1,92l-0.4-0.1L58.3,92l-0.5-0.4L57.2,91L56.6,91l0,0l-0.2,0l-0.3,0l-0.6-0.1l-0.5-0.1l-0.1,0.4l-0.3-0.3L54,90.4
	l-0.4-0.2l-0.5-0.1l-0.6,0l-0.3,0.4L52,89.9l-0.3-0.2l-0.4,0.2l-0.3,0.6l0,0.3l-0.2,0l-0.3,0.2l-0.1-0.4l0.1-0.6l0.5-0.2l0-0.3
	l0-0.3l-0.3-0.2l0.1-0.4l-0.3-0.1l-0.1-0.5l-0.4-0.6l-0.4-0.4l-0.5-0.3l-0.7-0.2l-0.3-0.1l-1.1,0.2l-0.2,0h0l-0.3-0.3l-0.3-0.1
	L46,86.2L46,85.9l0-0.4l-0.1-0.1l-0.6-0.3c0,0-0.4,0.2-0.5,0c-0.1-0.2,0-0.2,0-0.2l0-0.2l-0.3-0.1l-0.3-0.1l-0.3-0.2V84l0-0.2v-0.1
	l-0.2,0.1L43.2,84l-0.3,0.1l-0.1,0.3l-0.5,0l-0.3-0.1l-0.4,0.1l-0.3,0l-0.4,0.2l-0.2-0.3l-0.3-0.2L40,84.1L39.7,84l0,0.3l-0.3,0.2
	l-0.3,0.2l0,0.2l0,0.1l0,0l0.2,0.3l0,0.2l0,0.1l-0.1,0l-0.1,0L39,85.5l-0.1-0.4v-0.4l-0.1-0.3l0-0.1l0.1-0.2l0.1-0.2l-0.2,0l-0.2,0
	l0,0l-0.1,0.2l-0.2,0.2l-0.3,0.2l-0.2,0.1l-0.5,0.3l-0.1,0.3l-0.1,0.4l0.1,0.3l-0.4,0.8L36,86.1l-0.4-0.4l-0.5,0.2l-0.3,0.3
	l-0.4,0.2l-0.5,0l-0.4-0.4l-0.2-0.3L33,85.3l-0.2-0.5l0,0l0-0.6l0-1V83v-0.1l-0.2-0.3l-0.4-0.2l-0.1-0.1h-0.1l-0.8,0l-0.4,0.1
	l-0.3,0.1l-0.3,0.1l-0.1,0l-0.4,0l0-0.1l0-0.1l0.2-0.9l0-0.6l0.3-0.4l-0.2-1.9l-0.5,0.1L29.1,79l-0.3,0.3l-0.2,0.4l0.1,0.4l-0.2,0.6
	L28.2,81l-0.3,0.1l-0.3,0.2l-0.2,0.3l-0.3,0.1l-0.2,0.1l-0.3,0l-0.1,0l0,0l-0.1-0.2l0,0L26,81.4l-1.2-1.5l-0.1-0.6l-0.1-0.5
	l-0.2-0.9l0.1-0.5l0.2-0.3l-0.1-0.4l-0.3-0.5l0-0.5l0.2-0.5l0.5-0.3l0-0.4l0.2-0.4l0.1,0l0.2-0.1l0.2-0.1l0.4-0.2l0.4-0.1l0.5,0
	l0.2,0.3l0.3-0.2l0.5,0l0.2-0.2l-0.1-0.3V73l0.5-0.1l0.5-0.1l0.3-0.2l0.4,0.2l0.3,0.1l0,0l0.1,0l0.2,0l0.2-0.1l0.3,0.2l0.3,0.3
	l0.2,0.3l0.3,0.7l0.1,0.3l0.3,0.1l0,0.3l0.3,0.3l0.3,0.5l0.2,0l0.1-0.2l0.1-0.3l-0.1-0.5l-0.2-0.6l-0.3-0.6l-0.1-0.5l-0.3-0.3
	l-0.1-0.4l0-0.5l0-0.6l0.3-0.5l0.2-0.3l0.7-0.8l0.3-0.4l0.3-0.3l0-0.2l0.4-0.4l-0.2-0.4l-0.2-0.3l-0.4-0.2l-0.1-0.4l-0.2-0.3l0-0.3
	l-0.1-0.3l0.1-0.1l0.1-0.1l0.1-0.3h0.4L34,65.9l0,0.1l0,0.1l0,0l0.1,0.4l0.2,0.1l0.3,0.1l0.1-0.4l0.1-0.3l0-0.1l0,0l-0.2-0.3
	l0.2-0.2l0.3-0.1l0.1-0.3l0-0.2l0-0.2l0-0.1l0.4-0.4l-0.4,0l0.3-0.4l0.2-0.1l0.1,0l0.2-0.1l0.3-0.1l0.3,0l0-0.2l-0.1-0.2v-0.4
	l-0.1-0.4l0.3-0.3l0.3-0.1l0.3-0.3l0.3,0.1l0.2-0.2l0.1-0.2l-0.1-0.4l0.5-0.1l0.3-0.1l0.2-0.1l0.1-0.2l0.2-0.2l0.2,0.3l0.3,0
	l0.1,0.2L39,60.9l-0.3,0.2l-0.3,0.3l0.1,0.3l0.2,0.1l0.3,0.2l0.3-0.1l0.3-0.3l0.1-0.3L40,61l0.3-0.1l0.2-0.2l0.3-0.5l-0.5,0
	l-0.5,0.1L39.6,60l-0.2-0.2l-0.2-0.4L38.9,59l-0.6-0.1l0-0.3l0.2,0l0.3-0.5l0-0.2l-0.1-0.2l-0.2-0.3l-0.4,0.1l-0.7,0.3l-0.4,0.3
	l-0.5,0.4l-0.3,0.5l0-0.3l0.2-0.6l0.3-0.2l0.3-0.3l0.2-0.3l0.5-0.5l1.1-0.2l0.5-0.1l0.3-0.2l0.5,0.2l0.6-0.3l0.3-0.3l0.5-0.5l0-0.3
	L42,55l0.5-0.2l0.4-0.5l0-0.3l-0.1-0.5l-0.4-0.2L42,53.3l-0.5,0.3l-0.9,0.5l0.3-0.2l0.3-0.5l0.3-0.1l0.2-0.2l-0.1-0.3l-0.2-0.2
	l-0.2,0l-0.8,0.1l-0.2-0.4L39.7,52l-0.3-0.3l-0.3-0.3l0.4-0.2l0-0.2L39.2,51l0-0.3l-0.3-0.2l-0.2-0.2l-0.3,0.1l0.1-0.3l-0.1-0.3
	l-0.2-0.2l-0.3-0.1L37.6,49l-0.1-0.4l0-0.1l-0.2,0h0l-0.1,0.3l0,0.1l0,0l-0.2,0.4l-0.3,0.2l-0.1,0.2L36.4,50l-0.3,0.1l-0.2,0.1
	l-0.2-0.3l-0.2-0.1l-0.5,0l-0.1-0.5l0-0.3l0-0.2v0l0-0.4l0-0.2l-0.3,0.1l-0.1-0.2l-0.2-0.2l-0.3,0.2l-0.2,0l-0.2-0.4l-0.5-0.2l0,0
	l-0.1-0.1l-0.4-0.2L32,47.6l-0.6-0.1l-0.6,0l-0.6,0.2l0.1,0.5l0.1,0.5l0.1,0.4l0.3,0.1l0.2,0.6L30.8,50l-0.5,0.3l-0.1,0.4l0,0
	l0.1,0.1l0.4,0.4l0.4,0.6l0.3,0.2l0.1,0.1l0.1,0.1l-0.1,0.8l-0.2,0.5l-0.2,0.2l-0.2,0.2L30.9,54l-0.4,0.4l0.2,0.5l0.1,0.2l0.1,0.2
	l0,0l0.1,0.5l0,0.8L30.8,57l-0.1,0l-0.2,0l-0.3,0l-0.4-0.4l-0.1-0.4l-0.3-0.3l-0.1-0.4l-0.1-0.5l-0.1-0.6l-0.5-0.2l-1.1,0.2L27,54.1
	l-0.2,0l-0.5-0.2l-0.4-0.4l-0.1-0.1l-0.2-0.1l-0.3-0.1l-0.5-0.1L24.3,53l-0.5,0.2L23.5,53l-0.2-0.3c1.6-4.3,3.7-8.3,6.4-11.9
	l0.2,0.1l0-0.2l0.1-0.1l0.2,0l0.3,0.2l0.1-0.1l0.1,0.2l0,0.3l0.3,0.1l-0.1,0.4l0.1,0.1l0.1,0.2l0.1-0.1l0.2-0.1l0.1-0.2l0.2-0.1
	l0,0.2l0,0.3h0l0.2,0.1l0.2,0.1l0,0.3l0.1,0.3l0.1,0.2L32.3,43l0,0.2l0.1,0.1l0.1,0.1l-0.1,0.1l-0.1,0.2L32,44l-0.2,0.2l0,0.3
	l0.7,0.5l-0.1,0.2l-0.6,0.2l-0.2,0.1l-0.6,0l-0.5,0.3l-0.1,0.1l0,0l-0.2,0.5l0.1,0.3l0.2,0.1l0.2,0.1l0.5-0.2l0.3-0.3l0.1,0l0,0
	l0.2,0l0.1,0l0,0l-0.1-0.3l0.1,0.1l0.1,0l0.2-0.1l0.1,0.1l0.2,0l0.1,0.1l0.3,0.1l0.1,0.1l0.1,0.1l0.1,0.1l0.1,0.1l0.3,0l0.1,0.1
	L33.6,47l-0.1,0l0.1,0.1l0,0l0.1,0l0,0l0.3,0l0.1-0.1l0,0l0.3-0.1L35,47l0.4,0l0.3-0.1l0.3,0l0.4-0.1l0-0.2l-0.2,0l-0.2-0.2l-0.3,0
	l-0.4-0.2L34.8,46L35,46l0.3-0.1l0.2-0.1l0.3,0.2l0.5-0.2l0.5,0.1l-0.1-0.3l0.1-0.2l-0.1-0.3L36.5,45l-0.2,0l-0.8-0.3l-0.2-0.2
	l-0.2-0.3l-0.1-0.1l0.1-0.5l0-0.3l0.3-0.1l0.2,0.3l0.2,0.1l0.2,0.2l0.3,0l0,0.2l0.2,0l0.1,0.1l0.2,0.2l0.4,0l0.3,0l0-0.2l0-0.4
	l0.3-0.1l0-0.2l0-0.2l0.6-0.1l0-0.6l-0.1-0.2L38,42.1l-0.3,0l-0.4,0.3l-0.1,0l-0.1,0l-0.3,0L36.5,42l-0.2-0.3l-0.2,0.1L36,41.9
	l-0.1,0.2l-0.3,0.1L35.3,42l-0.1-0.1l-0.1-0.1l0-0.1l-0.5-0.1l-0.2-0.1l0-0.3l0.2,0l0.2-0.2l-0.1-0.3l0.3,0l-0.2-0.2l-0.3,0
	l-0.2-0.2l0.2-0.2l0.2-0.1v-0.3l-0.3-0.1l0,0.2l-0.3,0l-0.2-0.3l-0.3,0l-0.1,0l-0.1,0.1l-0.1,0.3l0,0.1l0,0L33,39.7l-0.1-0.3
	l-0.2-0.2l-0.2-0.1l-0.1-0.2c0,0-0.3,0-0.4,0C31.9,39,32,39,32,39l-0.4,0.1l-0.1-0.1l-0.3,0.2l0-0.2l0-0.1l0-0.1
	c1.6-2,3.3-3.8,5.2-5.5l0.3,0l0.5,0.1l0.3,0.2l0.1,0.1l0.1,0.1l0.1,0l0.1,0l0.2-0.1l0.2,0.1l0.1,0.2l0.1,0.2l0.6,0.3l0.4,0.1l0.1,0
	l0,0.2l0,0.1l-0.1,0.4l0.3,0l0.1,0.3l0.3,0.2l0,0.3l0.3,0.2l0,0.3l-0.2,0.1l-0.1,0.3v0.3l0,0.2l0,0.2l0.3,0l0.2-0.1l0.3-0.2l0.2,0
	l0.1,0l0,0l0.5-0.1l0.1,0.2l0.2,0l0.3,0l0.2,0.1l-0.1,0.3l0,0.2l0.2,0.2l0,0.2l-0.3,0.1l-0.2-0.1l-0.3-0.1l-0.5,0l-0.5,0.1l0,0
	l-0.2,0.1l0,0l0,0l0.2,0.1l0.2,0.1l0.1,0.1l0.5,0l0.1,0.2l0.2,0.1l0.3,0.1l0.2,0l0.2-0.1l0.2,0l0.1,0.1l0.1,0.3l0.1,0.3l0,0.4
	l-0.2,0l0,0.4l0,0.3l-0.2,0l-0.2,0l-0.2,0.2l0,0.2l0.2,0.1l0.5-0.1l0.2,0l0.1,0.2l0.1,0.2l-0.3,0.1l-0.3,0l-0.2-0.1l-0.3,0.2
	l-0.3,0.3l0.1,0.3l0.2,0.3l-0.1,0.3l0.1,0.3l0.2,0.1l0.1,0.2l0.2,0l0.3,0.2l0.1,0.4l0,0.2l-0.1,0.2l0.2,0.2l0.3-0.3l0-0.2l0.2-0.1
	l0.2,0l-0.1,0.3l-0.2,0.2l-0.2,0.1l0.2,0.3l0.3,0.1l0,0.2l0.1,0.2l0,0l0.2,0l0,0l0.1,0.2l0.2,0.1l0,0l0,0.1l0,0.2l0.4-0.3l0,0l0,0
	l0.1,0.2l0.2,0.3l0,0.3l0.2,0.1l0.1,0.2l0.1,0.2l0.3-0.2l0.1-0.3l0.2-0.2l0.1,0.2l0.2,0.3l0.4-0.1l0.3,0l0.1,0.2l0.2,0.1l0.2,0.4
	l0.1-0.1l0.2-0.1l0-0.2l-0.1-0.2l-0.2-0.2l0.1-0.3l0.2-0.4l0-0.2l0.1-0.2l0-0.4v-0.3l0.1-0.1l0.1-0.2l0.1-0.1l0.1-0.1l0.1-0.2
	l0.1-0.2l0-0.2l0-0.5l0-0.2l0.1-0.4l0-0.2l0.2-0.2l0.1-0.3l0.5-0.1l0.3-0.2l0.3-0.1l0.1,0.2l0.2,0l0.1-0.2l0.1,0l0.2,0l0,0l0.3-0.2
	l0.2-0.3l0.1-0.3l0.2-0.2l0.2-0.2l0.4-0.6l0.3-0.2l0-0.2L52.8,39l0.2,0.2l0.2,0l0.3-0.2l0.3-0.1l0.1,0l0.2,0l0.3-0.1l0.2,0l0.2-0.1
	l0.2-0.1l0.2-0.1l0.1-0.1l0.2,0l0.3,0l0.1-0.4l0.3-0.2l0.1-0.2l0.2,0l0.1-0.3l0.4-0.1l0.3,0l0-0.2l0.1-0.3l0.3-0.5l-0.5,0.1l-0.3,0
	l-0.4-0.2l-0.3,0l-0.4,0.3l-0.2,0l0.1-0.5l0-0.2l-0.1-0.2l0.1-0.2l-0.2-0.2l-0.2,0h-0.4L55,35.4l-0.3-0.2l0.2,0l0.2,0l0.2,0l0.2,0
	l0.2,0l0.2,0l0.2,0l0.2,0.1l0.2,0.1l0.3,0.2l0.1,0.2l0.3,0.1l0.2,0.1l0.3,0.1l0.3,0l0.2,0l0.2-0.1l0-0.2l-0.1-0.3l-0.3-0.2l-0.2-0.3
	L57,34.7l-0.3-0.2l-0.3-0.1l-0.2-0.1l-0.2-0.1l-0.2,0.1l-0.2,0l-0.3,0l-0.1-0.1L55.2,34l0,0l0.1-0.2l0.2-0.1l0.2-0.2l0.3-0.2
	l0.2,0.3l0.2,0.1l0.2,0.2h0l0.2,0l0.1,0.1l0.2,0.3l0.3,0.1l0.2,0l0.2,0.1l0.2-0.1l-0.1-0.2l-0.1-0.2l0.3-0.2l-0.2-0.2l0,0l-0.3-0.1
	l-0.3-0.2l-0.4-0.2l0.4-0.1l0.2,0l0.3-0.1l0.2-0.2l0.3-0.1l0.1-0.3l-0.2-0.3l-0.6,0.3v-0.4L58,32l0-0.2l0-0.2l0-0.2l-0.3-0.3l0.2,0
	l0.2,0l0.3,0.1l0.1-0.3l0-0.2l-0.4-0.5l-0.3,0.2l-0.3,0l0.2-0.2l0.1-0.2l0-0.2l0-0.1l0-0.1l0.7,0h0.2l0.1,0.1l0.3,0l0.2-0.1l0-0.1
	l-0.1-0.2l-0.1-0.1l-0.2-0.2l-0.2,0.1L58,29l-0.2-0.1l0.4-0.4l-0.4-0.1l-0.7,0c0,0,0,0,0-0.2c0-0.2,0.2,0,0.2,0l0.4-0.1l0.1-0.3
	l0.1-0.2l0.3-0.4l-0.1-0.5l0.7-0.3l0-0.2L58.2,26l-0.4,0.1l-0.3,0.2l-0.1-0.3l0.3-0.2l0.4-0.1l0.3,0.1l0.8-0.1l0.3-0.4l0.2-0.2
	l0.1-0.1l0,0l0.2-0.2l0.3-0.2l0.2-0.3l0.4,0.1l0.3-0.5l-0.4-0.1l-0.7,0.1l-0.2,0l-0.1,0l-0.4,0.1l-1,0.1l-0.3,0.2l-0.4,0.1l-0.4,0.1
	l-0.3,0l-0.3,0.2l-0.3,0.3l-0.2,0.3l-0.4,0.2l-0.1,0l-0.2,0l-0.3,0l-0.2-0.2l0.3-0.2l0.2-0.1l0.2-0.1l0.2-0.2l0.2-0.3l-0.2-0.1
	l-0.4,0l-0.4,0.1L55,24.7l-0.6,0.2l-0.4-0.2l-0.3-0.2l0,0l-0.2,0l-0.4,0l-0.8,0.3l-0.5,0.1L51,25.3l0-0.1l0-0.2l0.4-0.2l0.2-0.1
	l0.5-0.2l1-0.1l0.8-0.2l0.3-0.1l1.1-0.2l0.7,0l0.4-0.1l0.3-0.3l0.1-0.4l-0.5-0.1l-0.2,0l-0.5,0l-0.1-0.1l-0.1,0l-0.2,0h-0.1l-0.4,0
	l-0.1-0.2l-0.1-0.1l-0.1-0.1c4.8-1.5,9.9-2.4,15.2-2.4c11.6,0,22.2,4,30.6,10.6l0.1,0.4l0.2,0.4l-0.3,0.1l-0.2-0.1l-0.1,0.4L99.7,32
	l-0.1-0.2l-0.1-0.2l-0.4,0.1l-0.2,0l0,0.3l-0.4-0.1l-0.2-0.1l-0.3,0l-0.2,0.2l0,0.2l0,0.2l0,0l-0.4,0.1l-0.2,0l-0.2,0l-0.2,0
	l0.3-0.2l0.1-0.2l-0.3,0L96.6,32l-0.2,0l-0.5,0.5l-0.3,0.3l-0.3,0l-0.2,0.1l-0.3,0.2l-0.2,0.1l-0.2,0.1l0,0l-0.1,0.1L94,33.6l0,0.3
	v0.3l-0.3,0.3l-0.2,0.1l-0.2,0.1l-0.2-0.1l-0.3-0.2l-0.1-0.3l0.1-0.2l0.3-0.3l-0.1-0.4l-0.2-0.3l-0.4-0.1l-0.7,0.1l0,0.3l0.1,0.1
	l0,0.5l0,0.2l0,0.3l-0.1,0.4l-0.1,0.3l-0.1,0.3l-0.5-0.2l-0.1-0.1l-0.2,0l-0.2,0.2l-0.1,0.1l-0.1,0l-0.2,0.2L90.2,36l0,0.2l0.2,0.3
	l0.2,0.2l-0.3,0l-0.3-0.2l-0.2-0.1l-0.3,0l-0.2-0.1l-0.2,0l0,0.3l0,0.3l0.2,0.1l0.3,0.3l-0.1,0.3l-0.3,0.1l-0.3,0l-0.4-0.2l-0.1-0.1
	l-0.2-0.2l-0.2-0.3l-0.1-0.4l-0.1-0.3l-0.3-0.1l-0.3-0.1l-0.4-0.1l-0.2-0.2l-0.2-0.4L86,35l0.6,0.4l0.3,0l0.2,0.1l0.3,0.1l0.5,0
	l0.3,0l0.3,0l0.5,0l0.3,0.1l0.4-0.2l0.3-0.4L90,35l0.2-0.2l0.1-0.1l0.1-0.1l-0.2-0.4l-0.1-0.3l-0.3,0l-0.3-0.2l-0.1-0.1l-0.3-0.2
	L89,33.3l-0.2-0.1l-0.3-0.1l-0.8-0.2l-0.2,0L87,32.9h-0.3l-0.4,0.1l-0.2-0.1l-0.4-0.1l0.1-0.2l-0.2-0.2l-0.2,0l-0.3,0l-0.2,0
	l-0.5,0.2l-0.2-0.2l0.1-0.1l0.1-0.1l0.3-0.2l-0.4-0.4l-0.2,0l-0.1-0.1l-0.2-0.1l0,0.2l0,0.2l-0.3,0.2l-0.2-0.2l0.2-0.3l-0.1-0.1
	l-0.2-0.1l-0.1,0.1l0,0.3L83.1,32l0,0.2l-0.2,0.1l-0.1-0.1l0-0.2l-0.1,0l0,0.2l-0.1,0.2l0,0l-0.1,0.1l0,0.1l0,0.2l-0.1,0.2l-0.1-0.3
	l0-0.2l0.1-0.1l0,0l0-0.1l0-0.1l-0.1-0.1l-0.1,0l-0.1,0l-0.1,0l0,0l-0.2,0v0.3l-0.1,0.1l-0.2,0.1l0,0.2l-0.1,0.1l-0.2,0.1l-0.2,0
	l-0.4-0.2l-0.2,0l-0.1,0l0.1,0.4L80.1,33L80,33l-0.2-0.1l0.1,0.3l-0.2,0l-0.2,0.1l-0.2,0.2l-0.2,0L79,33.8l-0.2,0.1l-0.1,0.3
	l-0.1,0.2l0,0.3l-0.1,0.4l-0.2,0.2l-0.2,0.2l-0.1,0l-0.1,0l0.1,0.3l0.1,0.2l0,0.1l0,0.1l-0.1,0.2l-0.2,0.3l-0.2,0l-0.2,0.1l-0.1,0.3
	l-0.3,0.3l0,0l-0.1,0.3L76.6,38l-0.1,0.3l-0.2,0.1l-0.1,0.1l-0.2,0l-0.2,0.4l-0.1,0.2l-0.2,0.1l0,0.2l0.2,0.1l0.2,0l-0.1,0.2l0,0
	L75.5,40l-0.2,0l-0.1-0.1l0-0.1l-0.2,0l-0.2,0l-0.2,0.1l0,0L74.5,40l0,0l0.1,0.1l0.1,0.1l-0.4,0.2l0,0.2l-0.2,0l-0.2,0l-0.1,0.2
	l0,0.2l-0.1,0l-0.2,0.1l-0.1,0.2l-0.2,0l-0.1,0.2L73,41.8L72.9,42l-0.1,0.3l0.2,0.3l0,0.3l0.2,0.4l0.1,0.1l0.4-0.1l0,0.5l-0.3,0.2
	l0,0.2l0,0.2l0.2,0l0.1,0.3l0,0.3l0.3,0.1l0.3,0.1l0.7-0.1l0.3-0.2l0.2-0.4l0.4-0.2l0.2-0.2l0.3-0.1l0.2,0.2l0.1,0.3l0.2,0.3l0,0.1
	l0,0.2l0,0.1l0.2,0.4l0.4,0.2l0.2,0.1l0.1,0.1l-0.2,0.3l-0.1,0.1l-0.3,0.1l0,0.3l-0.3,0l-0.2,0l0.1,0.3l0.2,0.2h0.3l0.1-0.2l0-0.2
	l0.1-0.2l0.2-0.1l0,0.2l0.1,0.2l0.4-0.1l0.1-0.1l0-0.3l0.1-0.2l0.2-0.1l0.5-0.1l0.2-0.4l0-0.3l-0.1-0.4l0.1-0.3l0-0.1l0-0.2l0-0.1
	l0-0.2l0-0.2l0.2,0l0.2,0l0.3-0.1l0.2-0.1l0.1-0.2L80.1,43l0.2-0.4L80,42.4l-0.2-0.2l-0.2,0l-0.2-0.1L79.2,42L79,40.9l0.1-0.2l0-0.2
	l0.1-0.1l0.2-0.2l0.1-0.3l0,0l0.1-0.1l0-0.2v-0.2l0.2-0.2l0.5-0.2l0.3-0.2l0.1-0.3l0.3-0.2L80.7,38l-0.2-0.2l0.2-0.3l0.1-0.2L81,37
	l0.1-0.2l0.1-0.2l0.4-0.1l0.1,0.2l0.6-0.1l0.3,0.2l0,0.3v0.3l-0.3,0.3L82.1,38L82,38.3l-0.2,0.2L81.7,39l-0.3,0.3l0,0.1l-0.1,0.2
	l0,0.1l0.1,0.5l0,0.3l0.2,0.4L81.5,41l0.2,0.2l0.1,0.2l0.1,0l0.2-0.1l0.2,0l0,0.2l-0.1,0.2l0.4,0l0.1,0.2l0.4,0.2l0.2-0.2l0.1-0.3
	l0.1-0.1l0.3-0.2l0.2-0.1l0.3-0.1l0.3-0.1l0.2,0l0.3,0.3l0.2,0.1l0.2,0l0.2-0.1l0.2,0.1l-0.1,0.3l-0.1,0.2l-0.3,0.1L85,41.8l0,0.3
	l-0.4,0.1l-0.3-0.1l-0.3,0l-0.2-0.1l-0.2,0.3l-0.3,0l-0.2,0l-0.1,0.2l-0.2,0.1l0,0.3l0,0.1l0.1,0.1l0.1,0.1l0.2,0.1l0,0.8L83,44.5
	l-0.1,0.2l-0.2-0.1l-0.1-0.2l-0.1-0.1l-0.2-0.2l-0.3,0.1l0.1,0.4l0,0.4l-0.1,0.3l-0.1,0.2l-0.1,0.2l0,0.2l0,0.1l0,0l0.1,0.2l0,0.2
	l0,0l-0.2,0.2l-0.1-0.2l-0.2,0l-0.1,0.3l0,0.2l-0.1,0.3L81,47.1l-0.1,0.1l-0.1,0.3l-0.2-0.2l-0.1-0.1l-0.3,0.1L80,47.4l-0.5,0.3
	l-0.4,0.2l-0.2,0.1L78.6,48l-0.4,0L78,47.9l-0.4-0.1l-0.1,0l-0.2,0.5l-0.3,0l-0.1-0.1L76.7,48l-0.2,0l-0.2-0.2l-0.1-0.3l0.3-0.2
	l0-0.2L76.3,47l0-0.3l0.1-0.4l0-0.2l-0.3-0.2L76,45.6l0.2-0.3l0-0.2l0,0l-0.1-0.1L76,44.8l-0.1,0.1l-0.1,0.2l0,0l-0.1,0.2l-0.2,0.3
	l-0.4,0.2l0.3,0.1L75,46.4l0.2,0.3l0.2,0.2l0,0.2l0.1,0.3l0.2,0.2l0.1,0.2l0.1,0.5l0.1,0.3l-0.3,0.4l-0.1,0l-0.2,0L75,49l-0.4,0.1
	l-0.2,0l-0.3,0l0,0.2L74,49.5l-0.2,0.4l0,0.3v0.4l0,0.2l-0.4,0.1l-0.2,0l0,0L72.9,51l-0.2,0.1l-0.3,0.2l0,0.3l-0.1,0.2L72.2,52
	l-0.3,0.1l-0.1,0.2l-0.2,0.1l-0.3,0.2l-0.1-0.3l-0.3,0l-0.1,0.3l0.1,0.2l0.1,0.3l-0.2,0.1l-0.2,0l-0.2,0l-0.2,0l-0.3,0.2l-0.2,0.1
	l-0.1,0.2l0,0.3l0.2,0l0.4,0l0.4,0.3l0.5,0.2l0.5,0.3l0.2,0.3l0.1,0.5l0,0.2l0,0.2l0,0.4l0.1,0.5l-0.2,0.2l-0.5-0.1l-0.4,0.1
	l-0.4-0.1l-0.4,0l-0.4,0.1l-0.5,0.3l-0.4-0.1l-0.3-0.1l-0.1,0.1l-0.2,0.2l-0.4,0.1L67.7,58l0,0.2l0.2,0.3l0.2,0.3l0.1,0.5l0.1,0.4
	l-0.1,0.3l-0.1,0.4l0.1,0.4l0.1,0.3l0.2,0.2l0.1,0.6l0,0.3l0.4,0.1l0.5-0.2l0.2,0l0.2,0.3l0.3,0.2l0.3,0l0.3-0.2l0.2-0.2l0.4-0.1
	l0.3,0l0.2-0.2l0.1-0.3l0.3-0.3l0.2-0.1l0.1-0.3l0-0.3l0.3-0.3l0-0.2l-0.2-0.2l0-0.3l0.2-0.3l0.2-0.3l0.1-0.1l0.2-0.3l0.3-0.2
	l0.3-0.2l0.1-0.1l0.1-0.4l0-0.2L74,57.1l0.1-0.2l0.3-0.2l0,0h0.1h0.3l0.4,0.1l0.3,0.1l0.2-0.2l0.1-0.3l0.3-0.1l0.2-0.3l0.1-0.3
	l0.4-0.1l0.3,0.4l0.2,0.2l0.3,0.3l0.1,0.3l0.3,0.3l0.3,0.1l0.3,0.2l0.3,0.1l0.4,0.1l0.4,0.3l0.4,0.3l0.3,0.1l0.1,0.3l0.1,0.4l0,0.3
	l-0.2,0.2l-0.2,0.1l-0.2,0l-0.3,0.1l-0.3,0.2l-0.2,0l0.2,0.3l0.4,0.1l0.3,0.1l0.2,0.1l0-0.3l0.1-0.3l0.3-0.1l0.2-0.2l0.2-0.2
	l0.1-0.3l0-0.4l0-0.2l-0.2-0.2l-0.1-0.3l0.4-0.2l0.3,0.2l-0.3-0.4l-0.2-0.2l-0.3-0.1L81,57.2l-0.3-0.3l-0.2,0l-0.7-0.1l-0.2-0.3
	l-0.1-0.2l-0.3-0.1l-0.4-0.3l-0.2-0.2l0-0.2l0-0.2l0-0.1l-0.2-0.4l0.5-0.3l0.2,0.7l0,0l0.1,0l0.2-0.1l0.3-0.4L80,55l0,0.1l0,0.2
	l0,0.1l0.1,0.3l0.4,0.1l0.4,0.2l0.5,0.4l0.7,0.1l0.3,0.4l0.1,0.9l0.1,0.2l0.3,0.4l0.5,0.3l0.3,0.4l0.3,0.2l0.4,0l-0.3,0.3l0.1,0.3
	l0.3,0l0.4-0.2l0.3-0.3v0l0-0.2l0.1,0l0.1-0.1l-0.1-0.2l-0.1,0l-0.2,0h0l-0.3,0l-0.2-0.2l-0.1-0.2l0-0.3l-0.1-0.3l-0.1-0.3l0.3,0.2
	l0.2,0l0.2,0v0l0.1-0.2L85.1,57l0.3,0l0.6,0l0.2,0.3l0.2,0.4l0.2,0.3l0.2,0.2l0,0.2l-0.1,0.3l0.1,0.3l0.3,0l0.1,0.5l0.3,0l0.2,0.2
	l0.4,0.1l0.5,0.3l0.2-0.1l0.1-0.3l0.1-0.2l0.4-0.1l0.4,0.2l0.3,0.1l0.4-0.1l0.3-0.2l0.3-0.4l0.3-0.2l0.2,0.5l0,0.1l0,0.2l0,0.3
	l0.1,0.6l0.1,0.4l-0.1,0.5l0,0.4l0,0.3l-0.1,0.3l-0.9,0.1l-0.2,0.2L90,62.7l-0.4,0.1L89.2,63l-0.2,0.1l-0.3,0.1l-0.3,0L88.2,63
	l-0.1,0.5l-0.2,0.1l-0.2,0l-0.2,0l-0.3-0.2l-0.3,0l-0.3,0l-0.2-0.2l-0.1-0.1l-0.1,0H86h-0.3l-0.2,0l-0.2,0L85,63l-0.1-0.2l-0.3,0.1
	l-0.3,0L84,63.3l-0.2,0.2l0.1,0.4l0,0.3l-0.2,0.2l-0.2,0.2l-0.4,0l-0.2,0l-0.3-0.1l-0.3-0.1L82,64.2L81.5,64l-0.4-0.3l-0.5,0
	l-0.5-0.1l-0.4,0l-0.2-0.2l-0.3,0L79,63.2L78.9,63l-0.1-0.2l-0.1-0.2l0.2-0.2l-0.1-0.6l-0.3-0.2l0.1-0.4l0.2-0.5l-0.4,0.1l-0.3,0
	L78,60.9l-0.4,0.2l-0.4,0L76.9,61l-0.1,0.2l-0.3,0l-0.3,0l-0.4-0.1l-0.4,0.1l0,0l-0.2,0.1l-0.2,0.2l-0.5,0.1l-0.4-0.1l-0.3,0.1
	L73.8,62l-0.3,0.2l-0.4,0.2L73,62.6l-0.4,0.1l-0.3,0.1L72,63l-0.6,0.1l-0.2,0.1l-0.2,0l-0.3-0.1L70.4,63l-0.3,0l0.1,0.4l-0.1,0.4
	l-0.2,0.4l-0.2,0.3l0,0l-0.2,0.2h0l-0.3,0.2l-0.3,0.5l0,0.7l0.1,0.5l0,0.3l0.1,0.4l-0.2,0.5l-0.5,0.6l-0.2,0.3L67.9,69l-0.1,0.3
	l-0.3,0.1l-0.2,0.7l-0.4,0.7l-0.1,0.4l-0.2,0.5l-0.1,0.7L66,72.9l0.1,0.5l0.2,0.4l0,0.1l0.1,0.2l0,0.1l0,0.6l0.1,0.4l0.2,0.3
	l0.1,0.5l0,0.4L66.7,77l-0.2,0.6l-0.1,0.5l0.2,0.3l0.1,0.5l0.2,0.3l0.2,0.2l0.2,0.3l0.2,0.3l0.3,0.1l0.1,0.2l0.4,0.3l0.3,0.3
	l0.2,0.4l0.2,0.2l0.3,0.4l0.1,0.1l0.1,0.1l0.1,0.1l0.3,0.2l0.6,0.5l0.5,0.2l0.5,0.3l0.3,0.1l0.3,0.1l0.2,0l1-0.5l0.4-0.2l0.4,0
	l0.5-0.1l0.3,0l0.5-0.1l0.4-0.1l0.3-0.2l0.4,0l0.4-0.4l0.3-0.2l0.9-0.3l0,0l0.2,0.1l0.1,0l0.5,0.2L79,82l0.1,0.5l0.4,0.2l0.6-0.2
	l0.3-0.2l0.3,0l0.6,0.4l0.2,0.3l0,0.8l0,0.2l-0.1,0.4l0.2,0.9l-0.2,0.6l0.6,0.6l0.7,0.7l0.7,0.9l0.1,0.5l0.3,0.3l0.4,0.4l0.1,0.7
	l0.1,0.3l0.1,0.2l0.1,0.2l0.1,0.6l0.1,0.4l0.1,0.4l0.1,0.6l-0.3,0.5l0,0.3l0,0.7l-0.1,0.5l0,0.1L84.3,95l-0.1,0.3l0,0.6l0.3,0.5
	l0.3,0.5l0.4,0.4l0.4,1l0.4,0.4l0.5,1l0.1,0.6l0.1,0.5l0.2,0.6l0.1,0.2l0,0.1l0.1,0.3l0.3,0.4l0.4,0.4l0.4,0.3l0.2,0.6l0.3,0.6
	l0.1,0.1l0,0l0.1,0.3l0.2,0.3l0,0.7l0.1,0.5l0.2,0.2l0.4,0.1l0.6,0l0,0l0.2-0.1l0.2-0.1l1-0.1l0.3-0.3l0.7-0.1l0.2,0l0.6-0.3
	l0.3-0.3l0,0l0.1-0.2l0.1-0.1l0.2-0.3l0.1-0.3l0.2-0.2l0.1-0.3l0.2-0.3l0.1-0.3l0.1-0.4l0.2-0.3l0.1-0.3l0.2-0.2l0.2-0.3l-0.2-0.3
	l0.6-0.1l-0.1-0.7l-0.1-0.5l-0.2-0.3l0.2-0.2l0.3-0.3l0.4-0.2l0.3-0.1L97,99l0-0.3l-0.1-1.6l-0.2-0.4l-0.1-0.2l-0.2-0.2l-0.1-0.3
	l0-0.3l0.2-0.2l0.1-0.3l0.2-0.5l0.2-0.3l0.6-0.4l0.6-0.4l0.2-0.4l0.3-0.7l0.1-0.6l-0.1-0.5l-0.1-0.4l0-0.2l0-0.3l-0.1-0.3l0-0.2
	L98.3,90l-0.1-0.6L98,89.1l-0.3-0.3l-0.1-0.9l0.1-0.5l-0.3-0.2l-0.3-0.3l-0.1-0.4l0.3-0.8l-0.1-0.7l0.1-0.4l0.2-0.4l0.4-0.4l0.2-0.5
	l0.4-0.7l0.2-0.6l0.3-0.3l0.4-0.4l0.5-0.5l0.5-0.9l0.4-0.6l0.2-0.7v-0.4l0.2-0.7l0.2-0.9l0.3-0.7l0-0.5l0.1-0.5l-0.1-0.5l0-0.1
	l0-0.1l-0.1-0.4l-0.4,0.2l-0.3,0.2l-0.4,0.1l-0.2,0.1l-0.3,0.3L100,75l-0.2,0.2l-0.5,0l-0.2,0l-0.3,0l-0.3-0.1l-0.6-0.5l-0.4-0.4
	l0-0.3L97,73.6l-0.2-0.2l-0.3-0.2L96.2,73L96,72.7l-0.3-0.1l0,0l-0.2-0.1l-0.2-0.1l-0.2-0.5L95,71.5l0,0l-0.1-0.1l-0.1-0.3l-0.3-0.3
	l-0.3-0.4l-0.3-0.3l-0.2-0.6v-0.5l-0.1-0.2l-0.3-0.4l-0.5-0.3l-0.4-0.9l-0.2-0.3l-0.3-0.8l-0.2-0.3l-0.4-0.4L91.2,65l-0.3-0.3l0-0.3
	l-0.1-0.3l0.3,0.4l0.4,0.2l0.5,0.2l0.3,0.5l0.2,0.4l0.6,0.5l0.4,0.4l0.6,0.4l0.1,0.3l0.1,0.4l0.1,0.4l0.2,0.3l0.1,0.3l0.4,0.7
	l0.1,0.1l0.2,0.1l0.4,0.2l0.4,0.4l0.3,0.4l0.3,0.6l0,0l0.1,0.2l0.1,0.3l0.2,0.6l0.1,0.3l0.6,0.5l0.3,0.1l0.4,0.1l0.5-0.3l0.2,0
	l0.5-0.1l0.8-0.5l0.5-0.2l0.3-0.4l0.3-0.2l0.1-0.1v0l0-0.5l0.6-0.4l0.2-0.3l0.1-0.1l0.1-0.2l0,0l0.3-0.4l0.6-0.3l0.2-0.4l0.2-0.6
	l0.2-0.3l0.3-0.6l-0.1-0.4l0.3-0.6l-0.2-0.5l-0.6-0.4l-0.4-0.1l-0.4-0.2l-0.2-0.4l-0.3-0.2l-0.1-0.4l-0.5,0.6l0,0l-0.1,0.3l0,0.1
	l-0.7,0.3l-0.3,0.1l-0.3,0l-0.2-0.5l-0.2-0.4l-0.3,0l-0.2,0.4l-0.3-0.4l-0.2-0.4l-0.4-0.7l-0.3-0.4l-0.3-0.4l-0.2-0.3l0-0.4l0.6-0.2
	l0.6-0.1l0.4,0.4l0.1,0.3l0.1,0.2l0.3,0.4l0.2,0.2L101,64l0.3,0.1l0.4,0.1l0.4-0.1l0.2,0l0,0l0.4-0.1L103,64l0.3,0l0.3,0.4l0.2,0.2
	l0.3,0l0.9,0.2l0.4,0.2l0.9-0.2l1.3-0.4l0.4,0.1l0.2,0.1l0.2,0l0,0l0.1,0.2l0.7,0.2l0.5,0.3l0.4,0.2l0.4-0.1l-0.5,0.7l-0.2,0.3
	l0.6,0.4L111,67l0.3,0l0.2-0.2l-0.1-0.6l0.1-0.3l0.3,0.1l0.2,0.5l0.1,0.6l0,0.6l0.2,0.7l0.3,0.8l0.1,0.1l0,0l0.4,0.9l0.5,0.7
	l0.1,0.7l0,0.1l0.1,0.5l0,0l0.6,0.6l0.5,0.8l0.2,0.6l0.5,0.3l0.4-0.3l0.2-0.4l0.3-0.2l0.1,0.2l0.1,0.7l0.3,0.5l0.2,0.6l0.4,0.1
	l0.3-0.3l-0.1-0.5l-0.1-0.4l-0.4-0.4l-0.2-0.3l-0.1-0.2l-0.3-0.4l-0.1-0.4l-0.1-0.4l-0.1-0.6l0.1-0.5l-0.1-0.7l-0.1-0.5l0-0.4
	l0.6-0.7l0.4-0.5l0.4-0.2l0.5-0.7l0.2-0.3l0.2-0.3l0.3-0.6l0.2-0.1l0.1-0.1c0.1,1.1,0.1,2.3,0.1,3.5C119.1,97.1,97,119.2,69.7,119.2
	z M87.7,56.7l-0.1,0.2l-0.1,0l-0.2-0.1l-0.1,0.1l-0.3,0.2l-0.2,0l0.1-0.2l0.4-0.2l0.1-0.1l0.1-0.1l0.1-0.2l-0.1,0l-0.2,0l-0.2-0.1
	L86.8,56l-0.2-0.3l0.1-0.3l0.1-0.3l0-0.1l0.2-0.2l0,0l0-0.2L87,54.3l0.1-0.2l0-0.1l0.2-0.1l-0.1-0.3l-0.1-0.2l0.1-0.2l0.1-0.1
	l0.2-0.3l0.1-0.1l0.1-0.3l0.3,0l0.1,0l0.1,0.1l0,0.1l0.1,0.1l0.4,0.1l0.3,0l0.2-0.1l0,0.2l-0.1,0.1L89,52.9L89,53.1l-0.1,0.2l0.2,0
	h0.3l0.1,0.1l0,0.2l-0.1,0.1l0.1,0.1h0.2l0.2-0.2l0.3-0.1l0.2-0.1l0.1,0l0.1-0.1l0.2,0l0.1-0.2l0.4-0.1l0.1,0.1l0.1,0.2l0.2,0.1
	l0.2,0.1l0.3,0.2l0.1,0.1l0.1,0.1l0.2,0.2l0.2,0.1l0.1,0l0.4,0.1l0.3,0l0.1,0.1l0.1,0.2l0,0.1l0,0.1l0,0l0,0.1l0,0.2l-0.1,0.3
	l-0.2,0.2l-0.1,0.1l-0.2,0.2l-0.1,0l-0.2-0.1l-0.1-0.1l0,0l-0.1-0.1l-0.1,0.1l0,0l-0.1,0.1L92,55.8l-0.2-0.1l-0.1-0.1l-0.1-0.1h-0.2
	l-0.1,0.1l-0.2-0.2l-0.1,0l-0.1,0h-0.2l0-0.2l-0.3,0l-0.8,0l-0.1,0.2l-0.3,0.2L89,55.9l-0.2,0.1l-0.1,0.1l-0.1,0.1l-0.4,0.1
	l-0.1-0.1l-0.3,0l-0.2,0.1L87.7,56.7z M91.3,52.1l0.2,0.1l0.1,0.1l-0.2,0.2l0.1,0.1l-0.2,0.1L91,52.9l-0.3,0.1L90.3,53l-0.2-0.1
	L90,52.8l0-0.1l-0.2-0.1l-0.1-0.1l-0.1-0.1l-0.2-0.1l0.5-0.1l0.1,0l0.2-0.1l0.1-0.2l0.2-0.1l0.4-0.1l0.1-0.1l0.2-0.1l0.1-0.1
	l0.1-0.1l0,0l0.2-0.1l0.2,0l0.1,0l0,0.1L92,51.5l-0.1,0.2l-0.1,0.1l-0.1,0.1l0,0.1l0,0l-0.1,0L91.3,52L91.3,52.1z"/>
<path class="st0" d="M39.4,9.4l-1-2c0.7-0.3,1.4-0.7,2.1-1l0.9,2.1C40.8,8.7,40.1,9,39.4,9.4z"/>
<path class="st0" d="M69.2,139.6c-1.5,0-3-0.1-4.5-0.2l0.2-2.3c1.4,0.1,2.9,0.2,4.4,0.2L69.2,139.6z M73.7,139.5l-0.1-2.3
	c1.5-0.1,2.9-0.2,4.4-0.4l0.3,2.2C76.8,139.2,75.3,139.4,73.7,139.5z M60.1,138.9c-1.5-0.2-3-0.5-4.5-0.8l0.5-2.2
	c1.4,0.3,2.9,0.5,4.3,0.7L60.1,138.9z M82.8,138.4l-0.4-2.2c1.4-0.3,2.9-0.6,4.3-1l0.6,2.2C85.7,137.7,84.2,138.1,82.8,138.4z
	 M51.3,137.1c-1.5-0.4-2.9-0.8-4.3-1.3l0.7-2.1c1.4,0.5,2.8,0.9,4.2,1.3L51.3,137.1z M91.5,136.1l-0.7-2.1c1.4-0.5,2.8-1,4.1-1.5
	l0.8,2.1C94.4,135.1,93,135.6,91.5,136.1z M42.7,134.2c-1.4-0.6-2.8-1.2-4.1-1.9l1-2c1.3,0.7,2.6,1.3,4,1.8L42.7,134.2z M100,132.7
	l-1-2c1.3-0.6,2.6-1.3,3.9-2l1.1,2C102.7,131.3,101.3,132,100,132.7z M34.5,130.1c-1.3-0.8-2.6-1.6-3.8-2.4l1.3-1.9
	c1.2,0.8,2.5,1.6,3.7,2.3L34.5,130.1z M107.9,128.2l-1.2-1.9c1.2-0.8,2.4-1.6,3.6-2.5l1.4,1.8C110.4,126.5,109.1,127.4,107.9,128.2z
	 M27,125c-1.2-0.9-2.4-1.9-3.5-2.9l1.5-1.7c1.1,1,2.2,1.9,3.4,2.8L27,125z M115.1,122.8l-1.5-1.7c1.1-1,2.2-1.9,3.2-3l1.6,1.6
	C117.4,120.8,116.3,121.8,115.1,122.8z M20.2,119c-1.1-1.1-2.1-2.2-3.1-3.3l1.7-1.5c1,1.1,2,2.2,3,3.2L20.2,119z M121.6,116.4
	l-1.7-1.5c1-1.1,1.9-2.2,2.8-3.4l1.8,1.4C123.6,114.1,122.6,115.3,121.6,116.4z M14.2,112.2c-0.9-1.2-1.8-2.4-2.6-3.7l1.9-1.3
	c0.8,1.2,1.7,2.4,2.6,3.6L14.2,112.2z M127.2,109.3l-1.9-1.3c0.8-1.2,1.6-2.4,2.4-3.7l1.9,1.2C128.9,106.8,128.1,108,127.2,109.3z
	 M9.2,104.6c-0.8-1.3-1.5-2.6-2.1-4l2-1c0.6,1.3,1.3,2.6,2.1,3.9L9.2,104.6z M131.9,101.5l-2-1c0.7-1.3,1.3-2.6,1.9-4l2.1,0.9
	C133.2,98.8,132.6,100.1,131.9,101.5z M5.2,96.5c-0.6-1.4-1.1-2.8-1.6-4.3l2.1-0.7c0.5,1.4,1,2.8,1.5,4.1L5.2,96.5z M135.5,93.1
	l-2.1-0.8c0.5-1.4,0.9-2.8,1.3-4.2l2.2,0.6C136.4,90.3,136,91.7,135.5,93.1z M2.2,87.9c-0.4-1.5-0.7-2.9-1-4.4L3.4,83
	c0.3,1.4,0.6,2.9,1,4.3L2.2,87.9z M137.9,84.4l-2.2-0.5c0.3-1.4,0.6-2.9,0.8-4.3l2.2,0.3C138.5,81.4,138.3,82.9,137.9,84.4z M0.5,79
	c-0.2-1.5-0.3-3-0.4-4.5l2.3-0.1c0.1,1.5,0.2,2.9,0.4,4.4L0.5,79z M139.2,75.4l-2.3-0.2c0.1-1.5,0.2-2.9,0.2-4.4l2.3,0
	C139.4,72.4,139.4,73.9,139.2,75.4z M-0.1,69.9v-0.2c0-1.5,0-2.9,0.1-4.4l2.3,0.1c-0.1,1.4-0.1,2.8-0.1,4.2L-0.1,69.9z M137.1,66.4
	c-0.1-1.5-0.2-2.9-0.4-4.4l2.2-0.3c0.2,1.5,0.3,3,0.4,4.5L137.1,66.4z M2.7,61.2l-2.2-0.3c0.2-1.5,0.4-3,0.7-4.5l2.2,0.4
	C3.1,58.3,2.9,59.7,2.7,61.2z M136.1,57.7c-0.3-1.4-0.6-2.9-0.9-4.3l2.2-0.5c0.4,1.5,0.7,2.9,1,4.4L136.1,57.7z M4.3,52.5L2.2,52
	C2.6,50.5,3,49,3.5,47.6l2.1,0.7C5.1,49.7,4.7,51.1,4.3,52.5z M134,49.2c-0.4-1.4-0.9-2.8-1.5-4.1l2.1-0.8c0.6,1.4,1.1,2.8,1.5,4.3
	L134,49.2z M7.1,44.2L5,43.3c0.6-1.4,1.2-2.8,1.9-4.1l2,1C8.3,41.5,7.7,42.8,7.1,44.2z M130.8,41c-0.6-1.3-1.3-2.6-2-3.9l2-1.1
	c0.7,1.3,1.4,2.7,2.1,4L130.8,41z M126.5,33.3c-0.8-1.2-1.6-2.4-2.5-3.6l1.8-1.3c0.9,1.2,1.8,2.5,2.6,3.7L126.5,33.3z M121.3,26.3
	c-0.9-1.1-1.9-2.2-2.9-3.3l1.6-1.6c1,1.1,2.1,2.2,3,3.4L121.3,26.3z M115.2,19.9c-1.1-1-2.2-1.9-3.3-2.9l1.4-1.8
	c1.2,0.9,2.3,1.9,3.5,3L115.2,19.9z M108.4,14.4c-1.2-0.8-2.4-1.6-3.7-2.4l1.2-1.9c1.3,0.8,2.6,1.6,3.8,2.5L108.4,14.4z M100.9,9.9
	c-1.3-0.7-2.6-1.3-4-1.9l0.9-2.1c1.4,0.6,2.8,1.3,4.1,2L100.9,9.9z M45.5,6.7l-0.8-2.1c1.4-0.5,2.9-1,4.3-1.5l0.7,2.2
	C48.2,5.7,46.9,6.2,45.5,6.7z M92.8,6.3c-1.4-0.5-2.8-1-4.2-1.4l0.6-2.2c1.5,0.4,2.9,0.9,4.3,1.4L92.8,6.3z M53.9,4.1l-0.5-2.2
	c1.5-0.4,3-0.7,4.5-0.9l0.4,2.2C56.7,3.5,55.3,3.8,53.9,4.1z M84.4,3.9C83,3.5,81.5,3.3,80.1,3l0.3-2.2c1.5,0.2,3,0.5,4.5,0.8
	L84.4,3.9z M62.5,2.6l-0.2-2.2c1.5-0.2,3-0.3,4.5-0.3l0.1,2.3C65.5,2.4,64,2.5,62.5,2.6z M75.7,2.5c-1.5-0.1-2.9-0.2-4.4-0.2L71.4,0
	c1.5,0,3,0.1,4.5,0.3L75.7,2.5z"/>
<path class="st0" d="M11.1,36.1l-2-1.1c0.4-0.7,0.8-1.3,1.2-2l1.9,1.2C11.9,34.8,11.5,35.5,11.1,36.1z"/>
<path class="st0" d="M32,10c1.5-1.5,3.8,0.8,2.2,2.3l-6.3,6.3l3.4,14.2L28.9,35l-5.8-11.7L18.4,28l0.4,3.6l-1.9,1.8l-2.1-4.1
	l-4.1-2.2l1.9-1.8l3.6,0.4l4.7-4.7l-11.6-6l2.3-2.3l14,3.5L32,10z"/>
<rect x="-0.4" y="86.9" class="st1" width="140" height="53"/>
<path class="st0" d="M39.3,109.3h-2l-4-5.6v8.6h-3.9V97.9h3.9l5,7.4l5-7.4h3.9v14.4h-3.9v-8.6L39.3,109.3z"/>
<path class="st0" d="M53.3,97.9h3.9v14.4h-3.9V97.9z"/>
<path class="st0" d="M66.8,107.6v-9.7h3.9V108c0,0.8-0.1,1.4-0.3,2c-0.2,0.6-0.5,1.1-1,1.4c-0.5,0.4-1.1,0.7-1.8,0.9
	c-0.7,0.2-1.6,0.3-2.7,0.3c-0.4,0-0.8,0-1.3-0.1c-0.4,0-0.9-0.1-1.2-0.2v-3.5c0.3,0.1,0.7,0.2,1.2,0.3c0.4,0,0.8,0.1,1.2,0.1
	c0.5,0,0.9,0,1.1-0.1c0.3-0.1,0.5-0.2,0.6-0.3c0.1-0.1,0.2-0.3,0.3-0.5C66.7,108,66.8,107.8,66.8,107.6z"/>
<path class="st0" d="M89.9,97.9v3.4H80v2.1h7.7v3.4H80v1.9h9.9v3.4H76.2V97.9H89.9z"/>
<path class="st0" d="M104.2,112.3h-3.9v-10.9h-5.6v-3.4h15v3.4h-5.6V112.3z"/>
<path class="st0" d="M116.3,120.1H22c-0.7,0-1.1,0.7-1.1,1.7c0,1,0.5,1.7,1.1,1.7h94.2c0.7,0,1.1-0.7,1.1-1.7
	C117.3,120.8,116.9,120.1,116.3,120.1z"/>
<path class="st0" d="M44.6,128.7v1.3h-3.8v0.8h3v1.3h-3v2.1h-1.5v-5.6H44.6z"/>
<path class="st0" d="M51,134.3h-5.3v-5.6h1.5v4.3H51V134.3z"/>
<path class="st0" d="M52.8,134.3v-2.1l-2.2-3.2v-0.3H52l1.5,2.3l1.5-2.3h1.5v0.3l-2.2,3.2v2.1H52.8z"/>
<path class="st0" d="M58.9,128.7h1.3l1.1,3.7l1.1-3.7h1.1l1.1,3.7l1.1-3.7h1.3v0.3l-1.9,5.3h-1l-1.2-3.6l-1.1,3.6h-1l-1.9-5.3V128.7
	z"/>
<path class="st0" d="M68,128.7h1.5v5.6H68V128.7z"/>
<path class="st0" d="M74,134.3h-1.5V130h-2.2v-1.3h5.8v1.3H74V134.3z"/>
<path class="st0" d="M77.1,128.7h1.5v2.2h2.9v-2.2H83v5.6h-1.5v-2.1h-2.9v2.1h-1.5V128.7z"/>
<path class="st0" d="M90.8,128.7h1.5v3.3c0,0.3,0,0.7-0.1,1c-0.1,0.3-0.2,0.6-0.5,0.8c-0.2,0.2-0.5,0.4-0.9,0.5
	c-0.4,0.1-0.8,0.2-1.4,0.2h-0.3c-0.6,0-1-0.1-1.4-0.2c-0.4-0.1-0.7-0.3-0.9-0.5c-0.2-0.2-0.4-0.5-0.5-0.8c-0.1-0.3-0.1-0.6-0.1-1
	v-3.3h1.5v3c0,0.2,0,0.4,0,0.5c0,0.2,0.1,0.3,0.2,0.4c0.1,0.1,0.2,0.2,0.4,0.3c0.2,0.1,0.5,0.1,0.9,0.1c0.4,0,0.7,0,0.9-0.1
	c0.2-0.1,0.4-0.2,0.4-0.3c0.1-0.1,0.1-0.3,0.2-0.4c0-0.2,0-0.3,0-0.5V128.7z"/>
<path class="st0" d="M96.2,133.1c0.3,0,0.5,0,0.7,0c0.2,0,0.3-0.1,0.4-0.1c0.1,0,0.1-0.1,0.2-0.2c0-0.1,0-0.1,0-0.2
	c0-0.1,0-0.2-0.1-0.2c0-0.1-0.1-0.1-0.2-0.1c-0.1,0-0.2-0.1-0.4-0.1c-0.2,0-0.4,0-0.6,0c-0.1,0-0.3,0-0.5,0c-0.2,0-0.4,0-0.6-0.1
	c-0.2,0-0.4-0.1-0.6-0.2c-0.2-0.1-0.4-0.2-0.5-0.3c-0.2-0.1-0.3-0.3-0.4-0.5c-0.1-0.2-0.1-0.4-0.1-0.7v-0.1c0-0.2,0-0.5,0.1-0.7
	c0.1-0.2,0.2-0.4,0.4-0.6c0.2-0.2,0.5-0.3,0.8-0.4c0.4-0.1,0.8-0.1,1.3-0.1h0.3c0.4,0,0.8,0,1.1,0.1c0.4,0,0.7,0.1,1.1,0.2v1.4
	c-0.4-0.1-0.8-0.2-1.2-0.2c-0.4-0.1-0.8-0.1-1.2-0.1c-0.3,0-0.5,0-0.7,0c-0.2,0-0.3,0.1-0.4,0.1c-0.1,0-0.1,0.1-0.2,0.2
	c0,0,0,0.1,0,0.2c0,0.1,0,0.2,0.1,0.2c0,0.1,0.1,0.1,0.2,0.1c0.1,0,0.2,0.1,0.4,0.1c0.2,0,0.4,0,0.6,0c0.1,0,0.3,0,0.5,0
	c0.2,0,0.4,0,0.6,0.1c0.2,0,0.4,0.1,0.6,0.2c0.2,0.1,0.4,0.2,0.5,0.3c0.2,0.1,0.3,0.3,0.4,0.5c0.1,0.2,0.1,0.4,0.1,0.7v0.1
	c0,0.2,0,0.5-0.1,0.7c-0.1,0.2-0.2,0.4-0.4,0.6c-0.2,0.2-0.5,0.3-0.8,0.4c-0.3,0.1-0.8,0.1-1.3,0.1h-0.3c-0.4,0-0.9,0-1.3-0.1
	c-0.4,0-0.8-0.1-1.2-0.2v-1.4c0.5,0.1,0.9,0.2,1.4,0.2C95.3,133.1,95.8,133.1,96.2,133.1z"/>
</svg>
