<?xml version="1.0" encoding="utf-8"?><!DOCTYPE svg PUBLIC "-//W3C//DTD SVG 1.1//EN" "http://www.w3.org/Graphics/SVG/1.1/DTD/svg11.dtd"><svg viewBox="0 0 486.733 486.733" xmlns="http://www.w3.org/2000/svg" xmlns:xlink="http://www.w3.org/1999/xlink"><style>:root>svg{display:none}:root>svg:target{display:block}</style><svg viewBox="0 0 448 448" id="add" xmlns="http://www.w3.org/2000/svg"><path d="M272 184a8 8 0 01-8-8V0h-80v176a8 8 0 01-8 8H0v80h176a8 8 0 018 8v176h80V272a8 8 0 018-8h176v-80zm0 0"/></svg><svg fill="none" viewBox="0 0 26 26" id="calendar" xmlns="http://www.w3.org/2000/svg"><g clip-path="url(#bclip0_27_402)"><path d="M21.5 3.53h-1.045V1.44h-2.088V3.53H7.925V1.44H5.837V3.53H4.793c-1.149 0-2.089.94-2.089 2.088v16.707c0 1.148.94 2.088 2.089 2.088h16.706c1.149 0 2.088-.94 2.088-2.088V5.617c0-1.149-.94-2.088-2.088-2.088zm0 18.795H4.792V10.838h16.706v11.486zm0-13.574H4.792V5.618h16.706v3.133z" fill="#66727F"/></g><defs><clipPath id="bclip0_27_402"><path fill="#fff" transform="translate(.616 .397)" d="M0 0h25.06v25.06H0z"/></clipPath></defs></svg><svg class="cb24-crm-button-icon" viewBox="0 0 28 30" id="call2" xmlns="http://www.w3.org/2000/svg"><path class="cb24-crm-button-call-icon" fill="#fff" fill-rule="evenodd" d="M21.872 19.905c-.947-.968-2.13-.968-3.072 0-.718.737-1.256.974-1.962 1.723-.193.206-.356.25-.591.112-.465-.262-.96-.474-1.407-.761-2.082-1.355-3.827-3.097-5.372-5.057-.767-.974-1.449-2.017-1.926-3.19-.096-.238-.078-.394.109-.587.718-.718.96-.98 1.666-1.717.984-1.024.984-2.223-.006-3.253-.561-.586-1.104-1.397-1.562-2.034-.457-.637-.816-1.393-1.402-1.986C5.4 2.2 4.217 2.2 3.275 3.16c-.725.737-1.419 1.492-2.155 2.216C.438 6.045.093 6.863.02 7.818c-.115 1.555.254 3.022.773 4.452 1.062 2.959 2.68 5.587 4.642 7.997 2.65 3.259 5.813 5.837 9.513 7.698 1.666.836 3.392 1.48 5.27 1.585 1.291.075 2.414-.262 3.313-1.304.616-.712 1.31-1.361 1.962-2.042.966-1.011.972-2.235.012-3.234-1.147-1.192-2.48-1.879-3.634-3.065zm-.49-5.36l.268-.047c.583-.103.953-.707.79-1.295a10.395 10.395 0 00-2.537-4.445 9.826 9.826 0 00-4.589-2.708c-.575-.15-1.149.248-1.231.855l-.038.28c-.07.522.253 1.01.747 1.142a7.614 7.614 0 013.517 2.086 7.996 7.996 0 011.953 3.412.99.99 0 001.12.72zm2.559-9.85C21.619 2.292 18.74.69 15.56.02 15-.097 14.46.303 14.382.888l-.038.28a1.027 1.027 0 00.786 1.15c2.739.584 5.218 1.968 7.217 4.03a14.86 14.86 0 013.803 7.012c.122.53.617.873 1.136.781l.265-.047c.569-.1.933-.678.8-1.259a17.276 17.276 0 00-4.41-8.14z"/></svg><svg fill="none" viewBox="0 0 25 25" id="checked" xmlns="http://www.w3.org/2000/svg"><path d="M12.494 24.098c6.408 0 11.604-5.196 11.604-11.604 0-6.41-5.196-11.605-11.604-11.605C6.084.89.889 6.085.889 12.494c0 6.408 5.196 11.604 11.605 11.604z" stroke="#76C274" stroke-width="1.3" stroke-linecap="round" stroke-linejoin="round"/><path d="M7.499 12.672l3.448 3.448 6.24-7.239" stroke="#76C274" stroke-width="1.3" stroke-linecap="round" stroke-linejoin="round"/></svg><svg viewBox="0 0 26 26" id="close" xmlns="http://www.w3.org/2000/svg"><path clip-rule="evenodd" d="M20.03 7.052L18.947 5.97 13 11.92 7.052 5.97 5.971 7.052 11.919 13 5.97 18.948l1.081 1.081L13 14.081l5.948 5.948 1.081-1.081L14.082 13l5.947-5.948z"/></svg><svg viewBox="0 0 21 21" id="flight" xmlns="http://www.w3.org/2000/svg"><path d="M7 18.375h1.75l4.375-7h4.813a1.31 1.31 0 001.312-1.313 1.31 1.31 0 00-1.313-1.312h-4.812l-4.375-7H7l2.188 7H4.375L3.062 7H1.75l.875 3.063-.875 3.062h1.313l1.312-1.75h4.813l-2.188 7z"/></svg><svg viewBox="0 0 94 94" id="insta" xmlns="http://www.w3.org/2000/svg"><path d="M64.748 32.155h8.781a3.507 3.507 0 003.496-3.498v-8.371a3.506 3.506 0 00-3.496-3.498h-8.781a3.507 3.507 0 00-3.497 3.498v8.371a3.507 3.507 0 003.497 3.498z"/><ellipse cx="47.074" cy="46.831" rx="15.602" ry="15.117"/><path d="M89 0H5a5 5 0 00-5 5v84a5 5 0 005 5h84a5 5 0 005-5V5a5 5 0 00-5-5zm-3.157 75.872c0 5.911-4.487 9.971-9.971 9.971H18.128c-5.484 0-9.971-4.06-9.971-9.971V18.128c0-5.911 4.486-9.971 9.971-9.971h57.744c5.483 0 9.971 4.06 9.971 9.971v57.744z"/><path d="M71.221 47.676c0 12.922-10.812 23.396-24.146 23.396-13.336 0-24.147-10.475-24.147-23.396 0-2.316.35-4.553.997-6.666h-7.136v32.815a3.098 3.098 0 003.089 3.088h54.099a3.098 3.098 0 003.088-3.088V41.01h-6.838a22.82 22.82 0 01.994 6.666z"/></svg><svg viewBox="0 0 486.733 486.733" id="lock" xmlns="http://www.w3.org/2000/svg"><path d="M403.88 196.563h-9.484v-44.388c0-82.099-65.151-150.681-146.582-152.145-2.225-.04-6.671-.04-8.895 0C157.486 1.494 92.336 70.076 92.336 152.175v44.388h-9.485c-14.616 0-26.538 15.082-26.538 33.709v222.632c0 18.606 11.922 33.829 26.539 33.829H403.88c14.616 0 26.539-15.223 26.539-33.829V230.272c0-18.626-11.922-33.709-26.539-33.709zM273.442 341.362v67.271c0 7.703-6.449 14.222-14.158 14.222H227.45c-7.71 0-14.159-6.519-14.159-14.222v-67.271c-7.477-7.36-11.83-17.537-11.83-28.795 0-21.334 16.491-39.666 37.459-40.513 2.222-.09 6.673-.09 8.895 0 20.968.847 37.459 19.179 37.459 40.513-.002 11.258-4.355 21.435-11.832 28.795zm58.444-144.799H154.847v-44.388c0-48.905 39.744-89.342 88.519-89.342 48.775 0 88.521 40.437 88.521 89.342v44.388z"/></svg><svg viewBox="0 0 15 12" id="mail" xmlns="http://www.w3.org/2000/svg"><path fill-rule="evenodd" clip-rule="evenodd" d="M13.125 12H1.875a1.89 1.89 0 01-1.326-.54A1.832 1.832 0 010 10.153V1.846c0-.49.198-.96.55-1.305A1.89 1.89 0 011.874 0h11.25c.497 0 .974.195 1.326.54.351.347.549.817.549 1.306v8.308c0 .49-.197.96-.55 1.305a1.89 1.89 0 01-1.325.541zM3.313 1.846l4.201 4.137 4.205-4.137H3.313zm9.812 1.385l-4.85 4.773a.984.984 0 01-.76.277.996.996 0 01-.761-.277L1.875 3.2v6.954h11.25V3.23z"/></svg><svg fill="none" viewBox="0 0 15 12" id="mailw" xmlns="http://www.w3.org/2000/svg"><path fill-rule="evenodd" clip-rule="evenodd" d="M13.125 12H1.875a1.89 1.89 0 01-1.326-.54A1.832 1.832 0 010 10.153V1.846c0-.49.198-.96.55-1.305A1.89 1.89 0 011.874 0h11.25c.497 0 .974.195 1.326.54.351.347.549.817.549 1.306v8.308c0 .49-.197.96-.55 1.305a1.89 1.89 0 01-1.325.541zM3.313 1.846l4.201 4.137 4.205-4.137H3.313zm9.812 1.385l-4.85 4.773a.984.984 0 01-.76.277.996.996 0 01-.761-.277L1.875 3.2v6.954h11.25V3.23z" fill="#fff"/></svg><svg viewBox="0 0 24 24" id="mall" xmlns="http://www.w3.org/2000/svg"><path d="M19 6h-2c0-2.76-2.24-5-5-5S7 3.24 7 6H5c-1.1 0-2 .9-2 2v12c0 1.1.9 2 2 2h14c1.1 0 2-.9 2-2V8c0-1.1-.9-2-2-2zm-7-3c1.66 0 3 1.34 3 3H9c0-1.66 1.34-3 3-3zm7 17H5V8h14v12zm-7-8c-1.66 0-3-1.34-3-3H7c0 2.76 2.24 5 5 5s5-2.24 5-5h-2c0 1.66-1.34 3-3 3z"/></svg><svg viewBox="0 0 26 26" id="map" xmlns="http://www.w3.org/2000/svg"><g clip-path="url(#lclip0_27_385)"><path d="M12.781 12.927a2.095 2.095 0 01-2.088-2.088c0-1.149.94-2.088 2.088-2.088 1.149 0 2.089.94 2.089 2.088 0 1.148-.94 2.088-2.089 2.088zm6.265-1.88c0-3.79-2.767-6.473-6.265-6.473-3.497 0-6.264 2.683-6.264 6.474 0 2.443 2.036 5.68 6.264 9.543 4.23-3.863 6.265-7.1 6.265-9.543zm-6.265-8.561c4.386 0 8.354 3.362 8.354 8.562 0 3.466-2.788 7.57-8.354 12.32-5.565-4.75-8.353-8.854-8.353-12.32 0-5.2 3.968-8.562 8.353-8.562z"/></g><defs><clipPath id="lclip0_27_385"><rect transform="translate(.252 .397)"/></clipPath></defs></svg><svg viewBox="0 0 13 15" id="marker" xmlns="http://www.w3.org/2000/svg"><g clip-path="url(#mclip0_0_10)"><path fill-rule="evenodd" clip-rule="evenodd" d="M11.332 9.296h.028L6.82 15h-.921L1.354 9.296h.027a5.944 5.944 0 01-1.013-3.32c0-1.616.63-3.166 1.754-4.308A5.935 5.935 0 016.355-.117c1.588 0 3.111.642 4.234 1.785a6.149 6.149 0 011.754 4.309 5.944 5.944 0 01-1.01 3.32zM6.358 1.875a4.09 4.09 0 00-2.13.6 4.188 4.188 0 00-1.525 1.63 4.28 4.28 0 00.21 4.332H2.9l3.263 4.17h.389l3.295-4.17h-.045a4.28 4.28 0 00.21-4.332 4.188 4.188 0 00-1.524-1.63 4.09 4.09 0 00-2.13-.6zm0 5.625c-.273 0-.54-.082-.767-.237a1.401 1.401 0 01-.51-.631 1.43 1.43 0 01.3-1.533c.193-.196.44-.33.708-.384a1.36 1.36 0 01.798.08c.252.106.468.286.62.517a1.424 1.424 0 01-.172 1.776 1.37 1.37 0 01-.977.412z"/></g><defs><clipPath id="mclip0_0_10"><path transform="translate(.37)" d="M0 0h11.975v15H0z"/></clipPath></defs></svg><svg viewBox="0 0 341.333 341.333" id="minus" xmlns="http://www.w3.org/2000/svg"><path d="M0 149.333h341.333V192H0z"/></svg><svg fill="none" viewBox="0 0 26 26" id="no-checked" xmlns="http://www.w3.org/2000/svg"><path d="M8.279 16.982l8.703-8.703M16.982 16.982L8.279 8.279M12.494 24.098c6.408 0 11.604-5.196 11.604-11.604 0-6.41-5.196-11.605-11.604-11.605C6.084.89.889 6.085.889 12.494c0 6.408 5.196 11.604 11.605 11.604z" stroke="#DA2323" stroke-width="1.3" stroke-linecap="round" stroke-linejoin="round"/></svg><svg viewBox="0 0 23 23" id="phone" xmlns="http://www.w3.org/2000/svg"><path d="M14.375 11.5h1.917A4.793 4.793 0 0011.5 6.708v1.917a2.871 2.871 0 012.875 2.875zm3.833 0h1.917A8.626 8.626 0 0011.5 2.875v1.917c3.709 0 6.708 3 6.708 6.708zm.959 3.354c-1.198 0-2.348-.191-3.422-.546a1.07 1.07 0 00-.297-.048.982.982 0 00-.68.278l-2.108 2.108a14.418 14.418 0 01-6.316-6.315l2.109-2.118a.92.92 0 00.24-.958 10.887 10.887 0 01-.547-3.422.961.961 0 00-.959-.958H3.833a.961.961 0 00-.958.958c0 9 7.293 16.292 16.292 16.292a.961.961 0 00.958-.958v-3.355a.961.961 0 00-.958-.958zM4.82 4.792h1.438c.067.843.21 1.677.431 2.472l-1.15 1.16a14.708 14.708 0 01-.719-3.632zM18.208 18.18a14.279 14.279 0 01-3.641-.729l1.15-1.15c.814.23 1.648.374 2.491.432v1.447z"/></svg><svg viewBox="0 0 24 24" id="question" xmlns="http://www.w3.org/2000/svg"><path d="M0 0h24v24H0V0z" fill="none"/><path d="M15 4v7H5.17l-.59.59-.58.58V4h11m1-2H3c-.55 0-1 .45-1 1v14l4-4h10c.55 0 1-.45 1-1V3c0-.55-.45-1-1-1zm5 4h-2v9H6v2c0 .55.45 1 1 1h11l4 4V7c0-.55-.45-1-1-1z"/></svg><svg fill="none" viewBox="0 0 70 70" id="tizer1" xmlns="http://www.w3.org/2000/svg"><path d="M35 24.839c-4.516 0-6.774 4.516-6.774 4.516h13.548S39.516 24.839 35 24.839zM6.74 68.871h56.52l-6.773-27.097H13.513L6.74 68.871z" fill="#C29D68"/><path d="M39.516 20.323h-9.032v2.258h9.032v-2.258z" fill="#fff"/><path d="M67.742 19.194V21.5L44.03 22.531a9.005 9.005 0 00-.327-2.335l12.749-2.318v-3.2h-17.09a8.934 8.934 0 00-1.012-.478L37.347 2.16A2.368 2.368 0 0035 0a2.368 2.368 0 00-2.347 2.16L31.649 14.2a9.03 9.03 0 00-1.013.477H13.548v3.201l12.75 2.317a9.01 9.01 0 00-.328 2.335L2.258 21.5v-2.306H0v6.636l6.067.791c-.26.48-.422 1.021-.422 1.605a3.391 3.391 0 003.387 3.387 3.391 3.391 0 003.387-3.387c0-.273-.04-.535-.102-.79l6.877.897V35h-1.13v-1.129h-2.258v4.516h2.258v-1.129h4.517v1.13h2.258V33.87H22.58V35h-1.13v-2.823l4.032-3.023.657.086c.434 1.37 1.702 2.373 3.215 2.373h11.29c1.513 0 2.782-1.003 3.216-2.375l.657-.085 4.03 3.024V35H47.42v-1.129h-2.258v4.516h2.258v-1.129h4.517v1.13h2.258V33.87h-2.259V35h-1.129v-6.667l6.877-.896a3.308 3.308 0 00-.102.789 3.391 3.391 0 003.387 3.387 3.391 3.391 0 003.387-3.387c0-.584-.162-1.125-.422-1.605L70 25.83v-6.636h-2.258zm-58.71 10.16a1.13 1.13 0 11.001-2.258 1.13 1.13 0 010 2.259zm51.936 0a1.13 1.13 0 110-2.258 1.13 1.13 0 010 2.259zm-18.159-11.29a9.073 9.073 0 00-.77-1.128h6.972l-6.202 1.127zM34.903 2.346c.009-.1.187-.1.196 0l.938 11.266A8.965 8.965 0 0035 13.548c-.351 0-.697.025-1.036.065l.938-11.266zM20.989 16.936h6.971c-.284.354-.54.732-.77 1.127l-6.201-1.127zm-18.73 6.823l23.709 1.031v2.15l-23.71-3.093v-.088zm19.193 5.596v-.728l.826.108-.826.62zm20.322-1.13a1.13 1.13 0 01-1.129 1.13h-11.29a1.13 1.13 0 01-1.13-1.13v-5.644A6.781 6.781 0 0135 15.806a6.781 6.781 0 016.774 6.775v5.645zm6.774 1.13l-.826-.62.826-.107v.727zm-4.516-2.414v-2.15l23.71-1.03v.088l-23.71 3.092zM8.15 40.645L.812 70h68.376L61.85 40.645H8.15zM3.704 67.742l6.21-24.839h50.172l6.21 24.839H3.704z" fill="#fff"/><path d="M36.13 45.161H33.87v4.517h2.258V45.16zM36.13 53.065H33.87v4.516h2.258v-4.516zM36.13 60.968H33.87v4.516h2.258v-4.516z" fill="#fff"/></svg><svg fill="none" viewBox="0 0 70 70" id="tizer2" xmlns="http://www.w3.org/2000/svg"><g clip-path="url(#sclip0_27_545)"><path d="M18.065 51.935C27.418 51.935 35 44.353 35 35c0-9.353-7.582-16.935-16.935-16.935C8.71 18.065 1.129 25.647 1.129 35c0 9.353 7.582 16.935 16.936 16.935zM51.935 51.935c9.354 0 16.936-7.582 16.936-16.935 0-9.353-7.582-16.935-16.935-16.935C42.581 18.065 35 25.647 35 35c0 9.353 7.582 16.935 16.935 16.935z" fill="#C29D68"/><path d="M28.474 43.669A13.567 13.567 0 0031.614 35c0-7.47-6.079-13.548-13.55-13.548a13.566 13.566 0 00-8.668 3.138l1.445 1.735a11.31 11.31 0 017.224-2.615c6.225 0 11.29 5.065 11.29 11.29 0 2.634-.93 5.198-2.615 7.221l1.734 1.448zM18.065 48.548c3.162 0 6.24-1.114 8.668-3.14l-1.446-1.733a11.306 11.306 0 01-7.222 2.615c-6.226 0-11.29-5.065-11.29-11.29 0-2.634.929-5.2 2.614-7.222l-1.734-1.446A13.56 13.56 0 004.516 35c0 7.47 6.078 13.548 13.549 13.548z" fill="#fff"/><path d="M16.936 29.355h2.258a2.26 2.26 0 012.258 2.258h2.258a4.52 4.52 0 00-4.516-4.516v-1.13h-2.258v1.13a4.52 4.52 0 00-4.517 4.516 4.52 4.52 0 004.517 4.516h2.258a2.26 2.26 0 012.258 2.258 2.26 2.26 0 01-2.258 2.258h-2.258a2.26 2.26 0 01-2.258-2.258h-2.259a4.52 4.52 0 004.517 4.516v1.13h2.258v-1.13a4.52 4.52 0 004.516-4.516 4.52 4.52 0 00-4.516-4.516h-2.258a2.26 2.26 0 01-2.258-2.258 2.26 2.26 0 012.258-2.258zM62.345 43.669A13.566 13.566 0 0065.484 35c0-7.47-6.078-13.548-13.548-13.548-3.162 0-6.24 1.114-8.67 3.138l1.446 1.735a11.31 11.31 0 017.224-2.615c6.225 0 11.29 5.065 11.29 11.29 0 2.634-.93 5.198-2.615 7.221l1.734 1.448zM59.158 43.675a11.306 11.306 0 01-7.222 2.615c-6.226 0-11.29-5.065-11.29-11.29 0-2.634.928-5.2 2.614-7.222l-1.734-1.446A13.561 13.561 0 0038.387 35c0 7.47 6.078 13.548 13.549 13.548 3.162 0 6.24-1.114 8.668-3.14l-1.446-1.733z" fill="#fff"/><path d="M45.161 36.129v2.258h2.258v.565c0 2.8 2.28 5.08 5.081 5.08 2.801 0 5.08-2.28 5.08-5.08h-2.257a2.826 2.826 0 01-2.823 2.822 2.826 2.826 0 01-2.822-2.822v-.565h2.258v-2.258h-2.258V33.87h2.258v-2.258h-2.258v-.565a2.827 2.827 0 012.822-2.822 2.827 2.827 0 012.823 2.822h2.258c0-2.8-2.28-5.08-5.08-5.08a5.087 5.087 0 00-5.082 5.08v.565h-2.258v2.258h2.258v2.258h-2.258zM16.936 56.452h-2.258v2.258h2.258v-2.258zM21.452 56.452h-2.258v2.258h2.258v-2.258zM55.323 56.452H23.71v2.258h31.613v-2.258zM56.452 65.484v-3.387H5.645v2.258h48.549V70l10.838-8.13-1.354-1.805-7.226 5.419zM55.323 11.29h-2.258v2.258h2.258V11.29zM50.807 11.29h-2.258v2.258h2.258V11.29zM46.29 11.29H14.678v2.258H46.29V11.29zM13.548 4.516v3.387h50.807V5.645H15.806V0L4.969 8.129l1.355 1.806 7.225-5.419z" fill="#fff"/></g><defs><clipPath id="sclip0_27_545"><path fill="#fff" d="M0 0h70v70H0z"/></clipPath></defs></svg><svg fill="none" viewBox="0 0 70 70" id="tizer3" xmlns="http://www.w3.org/2000/svg"><g clip-path="url(#tclip0_27_564)"><path d="M56.452 16.936H29.355v2.258h27.097v-2.258zM56.452 21.452H29.355v2.258h27.097v-2.258zM3.5 19.194l1.016 10.16h6.774l1.016-10.16H3.5z" fill="#C29D68"/><path d="M68.213 29.707l-2.578-1.933a3.413 3.413 0 00-2.033-.677h-1.505v-9.033a3.391 3.391 0 00-3.387-3.387h-1.29c-.504-1.943-2.258-3.387-4.355-3.387H32.742c-2.098 0-3.851 1.444-4.356 3.387h-1.29a3.391 3.391 0 00-3.386 3.387v9.033h-1.505c-.729 0-1.45.24-2.031.678l-2.58 1.933a4.467 4.467 0 00-1.52 5.102l.843 2.318a56.394 56.394 0 013.4 19.08 3.365 3.365 0 00-1.123 2.502 3.391 3.391 0 003.387 3.387 3.385 3.385 0 003.268-2.545c2.13-.728 9.639-3.1 17.054-3.1 7.416 0 14.924 2.372 17.054 3.1a3.385 3.385 0 003.269 2.545 3.391 3.391 0 003.387-3.387 3.37 3.37 0 00-1.123-2.502 56.391 56.391 0 013.399-19.08l.842-2.317A4.488 4.488 0 0070 33.283c0-1.4-.668-2.736-1.787-3.576zm-3.933-.126l2.578 1.933c.038.029.068.067.104.099h-4.398l-2.258-2.258h3.296c.242 0 .483.08.678.226zM55.984 35l3.387 3.387H26.435L29.822 35h26.162zm1.597-2.258v-1.56c0-.38.123-.733.328-1.031l3.059 3.058v3.582l-3.387-3.387v-.662zM27.897 30.15c.206.298.329.651.329 1.03v2.223l-3.387 3.387v-3.582l3.058-3.058zM24.84 40.645h36.129v2.258a1.13 1.13 0 01-1.13 1.13h-33.87a1.13 1.13 0 01-1.13-1.13v-2.258zm35-22.58v9.032h-.432c-.63 0-1.262.149-1.826.431V16.935h1.129a1.13 1.13 0 011.129 1.13zm-29.355-2.259a2.26 2.26 0 012.258-2.258h20.323a2.26 2.26 0 012.258 2.258v16.936h-24.84V15.806zm-4.516 2.258c0-.623.507-1.129 1.129-1.129h1.129v10.593a4.104 4.104 0 00-1.827-.431h-.431v-9.033zm-4.44 11.517c.193-.146.434-.226.677-.226H25.5l-2.258 2.258h-4.397c.036-.032.065-.07.104-.1l2.578-1.932zm-2.488 6.774l-.843-2.32c-.02-.053-.029-.11-.044-.164h4.428V55.323l-.025.002a58.612 58.612 0 00-3.516-18.97zm3.54 23.484a1.13 1.13 0 010-2.258 1.13 1.13 0 010 2.258zm3.04-2.596a3.37 3.37 0 00-.781-1.039V46.083c.354.126.731.207 1.129.207h33.87c.398 0 .775-.081 1.13-.207v10.121a3.402 3.402 0 00-.782 1.039c-2.76-.918-9.959-3.05-17.283-3.05-7.324 0-14.523 2.132-17.283 3.05zm37.606 2.596a1.13 1.13 0 010-2.258 1.13 1.13 0 010 2.258zm3.54-23.484a58.6 58.6 0 00-3.515 18.97c-.01 0-.017-.003-.025-.003V33.871h4.428c-.016.055-.025.112-.045.166l-.843 2.318z" fill="#fff"/><path d="M9.032 30.484h6.774v-2.258h-3.268l1.01-10.162v-3.387H9.541l.503-4.516h4.633V7.903H8.022l-.753 6.774h-5.01l.005 3.5 1.005 10.049H0v2.258h6.774v29.355H0v2.258h15.806v-2.258H9.032V30.484zm2.26-13.549l.003 1.017-1.028 10.274H8.035l1.255-11.29h2.003zm-6.776 1.13v-1.13h2.502l-1.254 11.29h-.226l-1.022-10.16z" fill="#fff"/></g><defs><clipPath id="tclip0_27_564"><path fill="#fff" d="M0 0h70v70H0z"/></clipPath></defs></svg><svg fill="none" viewBox="0 0 70 70" id="tizer4" xmlns="http://www.w3.org/2000/svg"><path d="M20.781 9.844h-2.187a2.19 2.19 0 01-2.188-2.188V3.281a2.19 2.19 0 012.188-2.187h2.187A2.19 2.19 0 0122.97 3.28v4.375a2.19 2.19 0 01-2.188 2.188zM31.719 9.844H29.53a2.19 2.19 0 01-2.187-2.188V3.281a2.19 2.19 0 012.187-2.187h2.188a2.19 2.19 0 012.187 2.187v4.375a2.19 2.19 0 01-2.187 2.188zM42.656 9.844H40.47a2.19 2.19 0 01-2.188-2.188V3.281a2.19 2.19 0 012.188-2.187h2.187a2.19 2.19 0 012.188 2.187v4.375a2.19 2.19 0 01-2.188 2.188zM53.594 9.844h-2.188a2.19 2.19 0 01-2.187-2.188V3.281a2.19 2.19 0 012.187-2.187h2.188A2.19 2.19 0 0155.78 3.28v4.375a2.19 2.19 0 01-2.187 2.188z" fill="#C29D68"/><path d="M22.969 3.281h4.375V5.47h-4.375V3.28zM33.906 3.281h4.375V5.47h-4.375V3.28zM44.844 3.281h4.375V5.47h-4.375V3.28z" fill="#fff"/><path d="M62.344 51.406V9.844A6.57 6.57 0 0055.78 3.28V5.47a4.38 4.38 0 014.375 4.375v2.187H12.031V8.75a5.412 5.412 0 00-1.122-3.281h5.497V3.28H6.563a5.475 5.475 0 00-5.47 5.469v53.594H5.47v2.187h4.375v4.375h52.5v-6.562h1.64a4.928 4.928 0 004.922-4.922v-6.016h-6.562zM60.156 14.22v37.187H17.5v6.016c0 1.42-1.087 2.59-2.474 2.721a3.285 3.285 0 01-2.995-3.268V14.219h48.125zM6.563 5.469a3.285 3.285 0 013.28 3.281v3.281H3.282V8.75a3.285 3.285 0 013.281-3.281zM3.28 60.156V14.22H5.47v45.937H3.28zm4.375 2.188V14.219h2.188V62.344H7.656zm52.5 4.375H12.031v-5.476a5.43 5.43 0 002.735 1.075v.026c.09 0 .178-.002.265-.008.093.006.187.008.281.008h44.844v4.375zm6.563-9.297a2.737 2.737 0 01-2.735 2.734H18.856a4.894 4.894 0 00.831-2.734v-3.828H66.72v3.828z" fill="#fff"/><path d="M18.594 44.844a2.19 2.19 0 002.187 2.187h30.625a2.19 2.19 0 002.188-2.187v-2.188a2.19 2.19 0 00-2.188-2.187h-.087l-.342-4.099c-.379-4.557-3.913-8.215-8.32-8.9v-.126a4.38 4.38 0 00-4.375-4.375h-4.375a4.38 4.38 0 00-4.375 4.375v.125c-4.406.686-7.94 4.344-8.32 8.901l-.343 4.099h-.088a2.19 2.19 0 00-2.187 2.187v2.188zm15.312-19.688h4.375a2.19 2.19 0 012.188 2.188h-8.75a2.19 2.19 0 012.187-2.188zM23.39 36.552c.33-3.938 3.68-7.02 7.63-7.02h10.147c3.95 0 7.301 3.082 7.63 7.02l.328 3.917H23.063l.327-3.917zm-2.609 6.104h30.625l.002 2.188H20.781v-2.188zM16.406 18.594h2.188v2.187h-2.188v-2.187zM20.781 18.594h2.188v2.187H20.78v-2.187zM25.156 18.594h2.188v2.187h-2.188v-2.187z" fill="#fff"/></svg><svg fill="none" viewBox="0 0 15 14" id="wsw" xmlns="http://www.w3.org/2000/svg"><g clip-path="url(#vclip0_0_23)"><path d="M7.708 0h-.004C3.853 0 .721 3.14.721 7c0 1.531.492 2.95 1.33 4.103l-.871 2.6 2.685-.86A6.915 6.915 0 007.708 14c3.851 0 6.984-3.14 6.984-7s-3.133-7-6.984-7zm4.065 9.885c-.169.477-.838.872-1.371.988-.365.078-.842.14-2.447-.527-2.053-.852-3.375-2.943-3.478-3.078-.099-.136-.83-1.107-.83-2.112 0-1.004.51-1.493.715-1.703.168-.173.447-.251.714-.251.086 0 .164.004.234.007.205.01.308.022.444.346.168.407.579 1.411.627 1.515.05.103.1.243.03.379-.065.14-.123.202-.226.32-.103.12-.2.21-.304.338-.094.112-.2.23-.082.436.119.202.53.873 1.133 1.412.78.695 1.412.918 1.639 1.012.168.07.369.053.492-.078.156-.169.35-.449.546-.724.14-.198.316-.223.501-.153.189.066 1.187.56 1.392.663.205.103.34.152.39.239.05.086.05.493-.12.97z" fill="#fff"/></g><defs><clipPath id="vclip0_0_23"><path fill="#fff" transform="translate(.72)" d="M0 0h13.971v14H0z"/></clipPath></defs></svg></svg>