<svg width="70" height="70" viewBox="0 0 70 70" fill="none" xmlns="http://www.w3.org/2000/svg">
    <path d="M35 24.8387C30.4839 24.8387 28.2258 29.3549 28.2258 29.3549H41.7742C41.7742 29.3549 39.5162 24.8387 35 24.8387Z" fill="#C29D68" />
    <path d="M6.73926 68.8711H63.2609L56.4867 41.7743H13.5135L6.73926 68.8711Z" fill="#C29D68" />
    <path d="M39.5161 20.3226H30.4839V22.5807H39.5161V20.3226Z" fill="#2D3C5E" />
    <path d="M67.7419 19.1935V21.5002L44.03 22.531C44.0255 21.7226 43.9069 20.9413 43.7026 20.1961L56.4516 17.8782V14.6774H39.3626C39.0374 14.4968 38.6987 14.3398 38.3498 14.1998L37.3473 2.15984C37.2468 0.948387 36.216 0 35 0C33.784 0 32.7532 0.948387 32.6527 2.15984L31.649 14.1998C31.3013 14.3398 30.9615 14.4968 30.6363 14.6774H13.5484V17.8782L26.2974 20.195C26.0931 20.9413 25.9745 21.7214 25.97 22.5298L2.25806 21.5002V19.1935H0V25.83L6.06742 26.6214C5.80661 27.1013 5.64516 27.6421 5.64516 28.2258C5.64516 30.0932 7.16484 31.6129 9.03226 31.6129C10.8997 31.6129 12.4194 30.0932 12.4194 28.2258C12.4194 27.9526 12.3787 27.6906 12.3166 27.4366L19.1935 28.3331V35H18.0645V33.871H15.8065V38.3871H18.0645V37.2581H22.5806V38.3871H24.8387V33.871H22.5806V35H21.4516V32.1774L25.4834 29.1539L26.1405 29.2397C26.574 30.6103 27.8419 31.6129 29.3548 31.6129H40.6452C42.1581 31.6129 43.4271 30.6103 43.8606 29.2385L44.5177 29.1527L48.5484 32.1774V35H47.4194V33.871H45.1613V38.3871H47.4194V37.2581H51.9355V38.3871H54.1936V33.871H51.9355V35H50.8064V28.3331L57.6834 27.4366C57.6213 27.6906 57.5806 27.9526 57.5806 28.2258C57.5806 30.0932 59.1003 31.6129 60.9677 31.6129C62.8352 31.6129 64.3548 30.0932 64.3548 28.2258C64.3548 27.6421 64.1934 27.1013 63.9326 26.6214L70 25.83V19.1935H67.7419ZM9.03226 29.3548C8.40903 29.3548 7.90323 28.849 7.90323 28.2258C7.90323 27.6026 8.40903 27.0968 9.03226 27.0968C9.65548 27.0968 10.1613 27.6026 10.1613 28.2258C10.1613 28.849 9.65548 29.3548 9.03226 29.3548ZM60.9677 29.3548C60.3445 29.3548 59.8387 28.849 59.8387 28.2258C59.8387 27.6026 60.3445 27.0968 60.9677 27.0968C61.591 27.0968 62.0968 27.6026 62.0968 28.2258C62.0968 28.849 61.591 29.3548 60.9677 29.3548ZM42.8095 18.0634C42.5803 17.6682 42.324 17.29 42.0395 16.9355H49.0113L42.8095 18.0634ZM34.9018 2.34726C34.9108 2.2479 35.0892 2.2479 35.0982 2.34726L36.0364 13.6127C35.6966 13.5732 35.3511 13.5484 35 13.5484C34.6489 13.5484 34.3034 13.5732 33.9636 13.6127L34.9018 2.34726ZM20.9887 16.9355H27.9605C27.676 17.29 27.4197 17.6682 27.1905 18.0634L20.9887 16.9355ZM2.25806 23.7594L25.9677 24.7902V26.9398L2.25806 23.8474V23.7594ZM21.4516 29.3548V28.6266L22.2781 28.735L21.4516 29.3548ZM41.7742 28.2258C41.7742 28.849 41.2684 29.3548 40.6452 29.3548H29.3548C28.7316 29.3548 28.2258 28.849 28.2258 28.2258V22.5806C28.2258 18.8447 31.264 15.8064 35 15.8064C38.736 15.8064 41.7742 18.8447 41.7742 22.5806V28.2258ZM48.5484 29.3548L47.7219 28.735L48.5484 28.6277V29.3548ZM44.0323 26.941V24.7913L67.7419 23.7605V23.8485L44.0323 26.941Z" fill="#2D3C5E" />
    <path d="M8.15048 40.6451L0.811768 70H69.1882L61.8495 40.6451H8.15048ZM3.70435 67.7419L9.91403 42.9032H60.086L66.2956 67.7419H3.70435Z" fill="#2D3C5E" />
    <path d="M36.1292 45.1614H33.8711V49.6775H36.1292V45.1614Z" fill="#2D3C5E" />
    <path d="M36.1292 53.0646H33.8711V57.5807H36.1292V53.0646Z" fill="#2D3C5E" />
    <path d="M36.1292 60.9677H33.8711V65.4838H36.1292V60.9677Z" fill="#2D3C5E" />
</svg>
