<svg width="70" height="70" viewBox="0 0 70 70" fill="none" xmlns="http://www.w3.org/2000/svg">
    <path d="M20.7812 9.84375H18.5938C17.3873 9.84375 16.4062 8.86266 16.4062 7.65625V3.28125C16.4062 2.07484 17.3873 1.09375 18.5938 1.09375H20.7812C21.9877 1.09375 22.9688 2.07484 22.9688 3.28125V7.65625C22.9688 8.86266 21.9877 9.84375 20.7812 9.84375Z" fill="#C29D68" />
    <path d="M31.7188 9.84375H29.5312C28.3248 9.84375 27.3438 8.86266 27.3438 7.65625V3.28125C27.3438 2.07484 28.3248 1.09375 29.5312 1.09375H31.7188C32.9252 1.09375 33.9062 2.07484 33.9062 3.28125V7.65625C33.9062 8.86266 32.9252 9.84375 31.7188 9.84375Z" fill="#C29D68" />
    <path d="M42.6562 9.84375H40.4688C39.2623 9.84375 38.2812 8.86266 38.2812 7.65625V3.28125C38.2812 2.07484 39.2623 1.09375 40.4688 1.09375H42.6562C43.8627 1.09375 44.8438 2.07484 44.8438 3.28125V7.65625C44.8438 8.86266 43.8627 9.84375 42.6562 9.84375Z" fill="#C29D68" />
    <path d="M53.5938 9.84375H51.4062C50.1998 9.84375 49.2188 8.86266 49.2188 7.65625V3.28125C49.2188 2.07484 50.1998 1.09375 51.4062 1.09375H53.5938C54.8002 1.09375 55.7812 2.07484 55.7812 3.28125V7.65625C55.7812 8.86266 54.8002 9.84375 53.5938 9.84375Z" fill="#C29D68" />
    <path d="M22.9688 3.28125H27.3438V5.46875H22.9688V3.28125Z" fill="#2D3C5E" />
    <path d="M33.9062 3.28125H38.2812V5.46875H33.9062V3.28125Z" fill="#2D3C5E" />
    <path d="M44.8438 3.28125H49.2188V5.46875H44.8438V3.28125Z" fill="#2D3C5E" />
    <path d="M62.3438 51.4062V9.84375C62.3438 6.22453 59.4005 3.28125 55.7812 3.28125V5.46875C58.1941 5.46875 60.1562 7.43094 60.1562 9.84375V12.0312H12.0312V8.75C12.0312 7.51406 11.6036 6.38531 10.9091 5.46875H16.4062V3.28125H6.5625C3.54703 3.28125 1.09375 5.73453 1.09375 8.75V62.3438H5.46875V64.5312H9.84375V68.9062H62.3438V62.3438H63.9844C66.698 62.3438 68.9062 60.1355 68.9062 57.4219V51.4062H62.3438ZM60.1562 14.2188V51.4062H17.5V57.4219C17.5 58.8416 16.4128 60.0119 15.0259 60.1431C13.3503 59.9977 12.0312 58.5878 12.0312 56.875V54.6875V14.2188H60.1562ZM6.5625 5.46875C8.37156 5.46875 9.84375 6.94094 9.84375 8.75V12.0312H3.28125V8.75C3.28125 6.94094 4.75344 5.46875 6.5625 5.46875ZM3.28125 60.1562V14.2188H5.46875V60.1562H3.28125ZM7.65625 62.3438V14.2188H9.84375V54.6875V56.875V62.3438H7.65625ZM60.1562 66.7188H12.0312V61.2434C12.8089 61.8297 13.7452 62.2158 14.7656 62.3175V62.3438C14.8553 62.3438 14.9439 62.3416 15.0314 62.3361C15.1244 62.3416 15.2184 62.3438 15.3125 62.3438H60.1562V66.7188ZM66.7188 57.4219C66.7188 58.9302 65.4927 60.1562 63.9844 60.1562H18.8562C19.3813 59.3731 19.6875 58.4325 19.6875 57.4219V53.5938H66.7188V57.4219Z" fill="#2D3C5E" />
    <path d="M18.5938 44.8438C18.5938 46.0502 19.5748 47.0312 20.7812 47.0312H51.4062C52.6127 47.0312 53.5938 46.0502 53.5938 44.8438V42.6562C53.5938 41.4498 52.6127 40.4688 51.4062 40.4688H51.3187L50.9775 36.3705C50.598 31.8128 47.0641 28.1553 42.6573 27.4695V27.3438C42.6573 24.9309 40.6952 22.9688 38.2823 22.9688H33.9073C31.4945 22.9688 29.5323 24.9309 29.5323 27.3438V27.4695C25.1256 28.1553 21.5917 31.8128 21.2122 36.3705L20.8687 40.4688H20.7812C19.5748 40.4688 18.5938 41.4498 18.5938 42.6562V44.8438ZM33.9062 25.1562H38.2812C39.4877 25.1562 40.4688 26.1373 40.4688 27.3438H31.7188C31.7188 26.1373 32.6998 25.1562 33.9062 25.1562ZM23.3898 36.552C23.7191 32.6145 27.0703 29.5312 31.0198 29.5312H41.1666C45.1161 29.5312 48.4684 32.6145 48.7977 36.552L49.1247 40.4688H23.0628L23.3898 36.552ZM20.7812 42.6562H51.4062L51.4084 44.8438H20.7812V42.6562Z" fill="#2D3C5E" />
    <path d="M16.4062 18.5938H18.5938V20.7812H16.4062V18.5938Z" fill="#2D3C5E" />
    <path d="M20.7812 18.5938H22.9688V20.7812H20.7812V18.5938Z" fill="#2D3C5E" />
    <path d="M25.1562 18.5938H27.3438V20.7812H25.1562V18.5938Z" fill="#2D3C5E" />
</svg>
