<svg width="70" height="70" viewBox="0 0 70 70" fill="none" xmlns="http://www.w3.org/2000/svg">
    <g clip-path="url(#clip0_27_564)">
        <path d="M56.4515 16.9355H29.3547V19.1936H56.4515V16.9355Z" fill="#C29D68" />
        <path d="M56.4515 21.4517H29.3547V23.7097H56.4515V21.4517Z" fill="#C29D68" />
        <path d="M3.5 19.1936L4.51613 29.3549H11.2903L12.3064 19.1936H3.5Z" fill="#C29D68" />
        <path d="M68.2127 29.7071L65.6351 27.7742C65.0514 27.3372 64.3299 27.0967 63.6017 27.0967H62.0967V18.0645C62.0967 16.1971 60.577 14.6774 58.7096 14.6774H57.4203C56.9156 12.7343 55.1622 11.2903 53.0645 11.2903H32.7419C30.6441 11.2903 28.8907 12.7343 28.3861 14.6774H27.0967C25.2293 14.6774 23.7096 16.1971 23.7096 18.0645V27.0967H22.2046C21.4764 27.0967 20.7549 27.3372 20.1735 27.7753L17.5948 29.7082C16.4748 30.5471 15.8064 31.8827 15.8064 33.2827C15.8064 33.8077 15.8978 34.3214 16.0751 34.8103L16.9174 37.1282C19.1483 43.2645 20.2887 49.683 20.3169 56.2088C19.6327 56.8275 19.1935 57.715 19.1935 58.7096C19.1935 60.5771 20.7132 62.0967 22.5806 62.0967C24.1556 62.0967 25.472 61.0106 25.8491 59.5519C27.9796 58.8237 35.4877 56.4516 42.9032 56.4516C50.3186 56.4516 57.8267 58.8237 59.9572 59.5519C60.3343 61.0106 61.6507 62.0967 63.2257 62.0967C65.0932 62.0967 66.6128 60.5771 66.6128 58.7096C66.6128 57.715 66.1736 56.8275 65.4895 56.2077C65.5177 49.6819 66.658 43.2633 68.889 37.1271L69.7312 34.8114C69.9085 34.3203 69.9999 33.8066 69.9999 33.2827C69.9999 31.8827 69.3316 30.5471 68.2127 29.7071ZM64.2803 29.5806L66.8578 31.5135C66.8962 31.5429 66.9256 31.5812 66.9617 31.6129H62.5641L60.3061 29.3548H63.6017C63.8445 29.3548 64.0849 29.435 64.2803 29.5806ZM55.9841 35L59.3712 38.3871H26.4351L29.8222 35H55.9841ZM57.5806 32.7419V31.1816C57.5806 30.8022 57.7037 30.4488 57.9091 30.1508L60.9677 33.2093V36.7906L57.5806 33.4035V32.7419ZM27.8972 30.1508C28.1027 30.4488 28.2257 30.8022 28.2257 31.1816V32.7419V33.4035L24.8387 36.7906V33.2093L27.8972 30.1508ZM24.8387 40.6451H60.9677V42.9032C60.9677 43.5264 60.4607 44.0322 59.8386 44.0322H25.9677C25.3456 44.0322 24.8387 43.5264 24.8387 42.9032V40.6451ZM59.8386 18.0645V27.0967H59.4074C58.7762 27.0967 58.1451 27.2458 57.5806 27.528V16.9354H58.7096C59.3317 16.9354 59.8386 17.4413 59.8386 18.0645ZM30.4838 15.8064C30.4838 14.5611 31.4966 13.5483 32.7419 13.5483H53.0645C54.3098 13.5483 55.3225 14.5611 55.3225 15.8064V31.1816V32.7419H30.4838V31.1816V15.8064ZM25.9677 18.0645C25.9677 17.4413 26.4746 16.9354 27.0967 16.9354H28.2257V27.528C27.6612 27.2458 27.0301 27.0967 26.399 27.0967H25.9677V18.0645ZM21.5272 29.5806C21.7214 29.435 21.9619 29.3548 22.2046 29.3548H25.5003L23.2422 31.6129H18.8446C18.8808 31.5812 18.9101 31.5429 18.9485 31.5135L21.5272 29.5806ZM19.0399 36.3548L18.1966 34.0346C18.1774 33.9816 18.1683 33.9251 18.1525 33.8709H22.5806V40.4509V42.9032V55.3225C22.5727 55.3225 22.5648 55.3248 22.5558 55.3248C22.4327 48.8396 21.2608 42.4629 19.0399 36.3548ZM22.5806 59.8387C21.9585 59.8387 21.4516 59.3329 21.4516 58.7096C21.4516 58.0864 21.9585 57.5806 22.5806 57.5806C23.2027 57.5806 23.7096 58.0864 23.7096 58.7096C23.7096 59.3329 23.2027 59.8387 22.5806 59.8387ZM25.6199 57.243C25.428 56.8467 25.1627 56.4956 24.8387 56.2043V46.0825C25.1932 46.209 25.5703 46.2903 25.9677 46.2903H59.8386C60.2361 46.2903 60.6132 46.209 60.9677 46.0825V56.2043C60.6437 56.4967 60.3795 56.8467 60.1864 57.243C57.4259 56.3251 50.2272 54.1935 42.9032 54.1935C35.5791 54.1935 28.3804 56.3251 25.6199 57.243ZM63.2257 59.8387C62.6036 59.8387 62.0967 59.3329 62.0967 58.7096C62.0967 58.0864 62.6036 57.5806 63.2257 57.5806C63.8478 57.5806 64.3548 58.0864 64.3548 58.7096C64.3548 59.3329 63.8478 59.8387 63.2257 59.8387ZM66.7664 36.3548C64.5456 42.4617 63.3736 48.8385 63.2506 55.3248C63.2416 55.3248 63.2337 55.3225 63.2257 55.3225V42.9032V40.4509V33.8709H67.6538C67.638 33.9262 67.629 33.9827 67.6087 34.0369L66.7664 36.3548Z" fill="#2D3C5E" />
        <path d="M9.03226 30.4838H15.8064V28.2258H12.5379L13.5484 18.0645V14.6774H9.54145L10.0439 10.1613H14.6774V7.9032H8.02177L7.26871 14.6774H2.25806L2.26371 18.1774L3.26855 28.2258H0V30.4838H6.77419V59.8387H0V62.0967H15.8064V59.8387H9.03226V30.4838ZM11.2926 16.9355L11.2948 17.9516L10.2674 28.2258H8.03532L9.28968 16.9355H11.2926ZM4.51613 18.0645V16.9355H7.01806L5.76371 28.2258H5.5379L4.51613 18.0645Z" fill="#2D3C5E" />
    </g>
    <defs>
        <clipPath id="clip0_27_564">
            <rect width="70" height="70" fill="#2D3C5E" />
        </clipPath>
    </defs>
</svg>
