<svg width="70" height="70" viewBox="0 0 70 70" fill="none" xmlns="http://www.w3.org/2000/svg">
    <g clip-path="url(#clip0_27_545)">
        <path d="M18.0646 51.9355C27.4178 51.9355 35.0001 44.3533 35.0001 35.0001C35.0001 25.6468 27.4178 18.0646 18.0646 18.0646C8.71142 18.0646 1.12915 25.6468 1.12915 35.0001C1.12915 44.3533 8.71142 51.9355 18.0646 51.9355Z" fill="#C29D68" />
        <path d="M51.9355 51.9355C61.2887 51.9355 68.871 44.3533 68.871 35.0001C68.871 25.6468 61.2887 18.0646 51.9355 18.0646C42.5823 18.0646 35 25.6468 35 35.0001C35 44.3533 42.5823 51.9355 51.9355 51.9355Z" fill="#C29D68" />
        <path d="M28.4744 43.6688C30.4987 41.2391 31.6131 38.1613 31.6131 35C31.6131 27.5292 25.5355 21.4517 18.0647 21.4517C14.9034 21.4517 11.8257 22.566 9.396 24.5904L10.8412 26.3246C12.8655 24.6389 15.4307 23.7097 18.0647 23.7097C24.2902 23.7097 29.355 28.7746 29.355 35C29.355 37.6341 28.4258 40.1981 26.7402 42.2213L28.4744 43.6688Z" fill="#2D3C5E" />
        <path d="M18.0647 48.5484C21.2272 48.5484 24.3049 47.434 26.7335 45.4085L25.2872 43.6755C23.2639 45.3611 20.6988 46.2903 18.0647 46.2903C11.8393 46.2903 6.77442 41.2255 6.77442 35C6.77442 32.3659 7.70362 29.8008 9.38926 27.7776L7.65507 26.3324C5.63071 28.7609 4.51636 31.8387 4.51636 35C4.51636 42.4708 10.5939 48.5484 18.0647 48.5484Z" fill="#2D3C5E" />
        <path d="M16.9356 29.3547H19.1936C20.439 29.3547 21.4517 30.3675 21.4517 31.6128H23.7098C23.7098 29.1222 21.6843 27.0967 19.1936 27.0967V25.9677H16.9356V27.0967C14.4449 27.0967 12.4194 29.1222 12.4194 31.6128C12.4194 34.1035 14.4449 36.1289 16.9356 36.1289H19.1936C20.439 36.1289 21.4517 37.1417 21.4517 38.387C21.4517 39.6323 20.439 40.6451 19.1936 40.6451H16.9356C15.6902 40.6451 14.6775 39.6323 14.6775 38.387H12.4194C12.4194 40.8777 14.4449 42.9031 16.9356 42.9031V44.0322H19.1936V42.9031C21.6843 42.9031 23.7098 40.8777 23.7098 38.387C23.7098 35.8964 21.6843 33.8709 19.1936 33.8709H16.9356C15.6902 33.8709 14.6775 32.8581 14.6775 31.6128C14.6775 30.3675 15.6902 29.3547 16.9356 29.3547Z" fill="#2D3C5E" />
        <path d="M62.3452 43.6688C64.3696 41.2391 65.4839 38.1613 65.4839 35C65.4839 27.5292 59.4064 21.4517 51.9356 21.4517C48.7743 21.4517 45.6965 22.566 43.2668 24.5904L44.712 26.3246C46.7364 24.6389 49.3015 23.7097 51.9356 23.7097C58.161 23.7097 63.2259 28.7746 63.2259 35C63.2259 37.6341 62.2967 40.1981 60.611 42.2213L62.3452 43.6688Z" fill="#2D3C5E" />
        <path d="M59.158 43.6755C57.1348 45.3611 54.5696 46.2903 51.9356 46.2903C45.7101 46.2903 40.6453 41.2255 40.6453 35C40.6453 32.3659 41.5745 29.8008 43.2601 27.7776L41.5259 26.3324C39.5016 28.7609 38.3872 31.8387 38.3872 35C38.3872 42.4708 44.4648 48.5484 51.9356 48.5484C55.098 48.5484 58.1758 47.434 60.6043 45.4085L59.158 43.6755Z" fill="#2D3C5E" />
        <path d="M45.1614 36.1289V38.387H47.4194V38.9515C47.4194 41.7526 49.699 44.0322 52.5001 44.0322C55.3012 44.0322 57.5807 41.7526 57.5807 38.9515H55.3227C55.3227 40.5085 54.0559 41.7741 52.5001 41.7741C50.9443 41.7741 49.6775 40.5085 49.6775 38.9515V38.387H51.9356V36.1289H49.6775V33.8709H51.9356V31.6128H49.6775V31.0483C49.6775 29.4925 50.9443 28.2257 52.5001 28.2257C54.0559 28.2257 55.3227 29.4925 55.3227 31.0483H57.5807C57.5807 28.2472 55.3012 25.9677 52.5001 25.9677C49.699 25.9677 47.4194 28.2472 47.4194 31.0483V31.6128H45.1614V33.8709H47.4194V36.1289H45.1614Z" fill="#2D3C5E" />
        <path d="M16.9356 56.4515H14.6775V58.7096H16.9356V56.4515Z" fill="#2D3C5E" />
        <path d="M21.4517 56.4515H19.1936V58.7096H21.4517V56.4515Z" fill="#2D3C5E" />
        <path d="M55.3226 56.4515H23.7097V58.7096H55.3226V56.4515Z" fill="#2D3C5E" />
        <path d="M56.4517 65.4838V62.0967H5.64526V64.3548H54.1937V69.9999L65.0324 61.8709L63.6775 60.0645L56.4517 65.4838Z" fill="#2D3C5E" />
        <path d="M55.3228 11.2903H53.0647V13.5483H55.3228V11.2903Z" fill="#2D3C5E" />
        <path d="M50.8067 11.2903H48.5486V13.5483H50.8067V11.2903Z" fill="#2D3C5E" />
        <path d="M46.2904 11.2903H14.6775V13.5483H46.2904V11.2903Z" fill="#2D3C5E" />
        <path d="M13.5484 4.51613V7.90323H64.3549V5.64516H15.8065V0L4.96777 8.12903L6.32261 9.93548L13.5484 4.51613Z" fill="#2D3C5E" />
    </g>
    <defs>
        <clipPath id="clip0_27_545">
            <rect width="70" height="70" fill="#2D3C5E" />
        </clipPath>
    </defs>
</svg>
