<?xml version="1.0" encoding="utf-8"?><svg xmlns="http://www.w3.org/2000/svg" xmlns:xlink="http://www.w3.org/1999/xlink"><symbol id="audit" viewBox="0 0 70 70" xml:space="preserve" xmlns="http://www.w3.org/2000/svg"><style>.ast1{fill:#fb4700}</style><g opacity=".1"><path class="ast1" d="M28 28.1V14c0-2.8-2.2-5-5-5H12V2h15c3.9 0 7 3.1 7 6.8V37h-4v-4c0-1.9-.8-3.6-2-4.9zM33 51v8h9l3.6-5.6c.2-.4.4-.7.6-1.1.2-.4.4-.9.5-1.3.2-.8.3-1.6.3-2.4V45h-7.1c-.5 3.4-3.4 6-6.9 6z"/><path class="ast1" d="M65 7h-4v32H30v1.3c2.9.9 5 3.5 5 6.7v1.6c1.8-.8 3-2.5 3-4.6v-1h27V7zM43 61h-8v7h8v-7z"/></g><path class="ast1" d="M29.2 13.9c.6 0 1 .5 1 1s-.5 1-1 1H15.8c-.6 0-1-.5-1-1s.5-1 1-1h13.4zm.7-3.3c-.1-.1-.1-.3-.2-.4-.1-.1-.2-.2-.4-.2H16c-.6 0-1 .4-1 1v.4c0 .1.1.1.1.2s.1.1.2.2c.2.2.4.3.7.3h13c.6 0 1-.4 1-1v-.2l-.1-.3zM49 32c0-.2-.1-.4-.2-.6-.1-.2-.5-.4-.8-.4h-7c-.4 0-.7.2-.8.5-.1.1-.2.3-.2.5s.1.5.2.6c.1.1.2.2.4.3h7.5c.5.1.9-.3.9-.9zm5-5c.6 0 1 .4 1 1s-.4 1-1 1H41c-.3 0-.6-.1-.8-.4-.1-.1-.2-.4-.2-.6 0-.3.1-.5.3-.7.1-.1.2-.2.3-.2h.5L54 27zm.8-3.6c-.2-.3-.5-.4-.8-.4H41c-.2 0-.3 0-.5.1-.3.2-.5.5-.5.9 0 .6.4 1 1 1h13c.6 0 1-.4 1-1v-.3c-.1-.1-.1-.2-.2-.3zM54 14c.6 0 1 .4 1 1s-.4 1-1 1H41c-.6 0-1-.4-1-1s.4-1 1-1h13zm1-3c0-.6-.4-1-1-1H41c-.6 0-1 .4-1 1s.4 1 1 1h13c.6 0 1-.4 1-1zM30 65c.6 0 1-.4 1-1s-.4-1-1-1c-.3 0-.5.1-.7.3-.2.2-.3.4-.3.7 0 .6.4 1 1 1z"/><path d="M11 0c-.6 0-1 .4-1 1v4H4v40h17v2c0 .7.1 1.3.2 1.9.2 1.1.6 2.2 1.1 3.2l3.7 7.1c-.6.3-1 1-1 1.7v7H1c-.3 0-.5.1-.7.3-.2.2-.3.5-.3.8 0 .6.4 1 1 1h68c.6 0 1-.4 1-1s-.4-1-1-1H45v-7c0-.4-.1-.7-.3-1s-.4-.5-.6-.7l3.1-4.8c1.2-1.8 1.8-3.9 1.8-6V45h18V5h-6V1c0-.3-.1-.5-.3-.7-.1-.2-.4-.3-.7-.3H43c-3.5 0-6.5 1.9-8 4.8C33.5 1.9 30.5 0 27 0H11zm12 28c2.8 0 5 2.2 5 5v9c2.8 0 5 2.2 5 5v4c3.5 0 6.4-2.6 6.9-6H47v3.5c0 .8-.1 1.7-.3 2.4-.1.4-.3.9-.5 1.3s-.4.8-.6 1.1L42 59H28.1L24 51.2c-.7-1.3-1-2.7-1-4.2V28zm-2 15v-4H10V7H6v36h15zm-9-6h9V27c0-.6.4-1 1-1h1c3.9 0 7 3.1 7 7v4h4V8.8C34 5 30.9 2 27 2H12v35zM61 7h4v36H38v1c0 2.1-1.2 3.8-3 4.6V47c0-3.2-2.1-5.8-5-6.7V39h31V7zm-2-5v35H36V8.8C36 5 39.1 2 43 2h16zM43 61v7H27v-7h16z" fill-rule="evenodd" clip-rule="evenodd"/></symbol><symbol viewBox="0 0 19 19" id="checked" xmlns="http://www.w3.org/2000/svg"><g stroke-width="1.3" fill-rule="evenodd" stroke-linecap="round" stroke-linejoin="round"><circle cx="9.13" cy="9.13" r="8.48"/><path d="M5.48 9.26L8 11.78l4.56-5.29"/></g></symbol><symbol viewBox="0 0 141 141" id="favicons--safari-pinned-tab" xmlns="http://www.w3.org/2000/svg"><path d="M91 4.2v4.2l-2.9-3.2c-3.3-3.6-5.8-3.4-6.7.4C81 7 79.9 8.5 78.9 9c-1.4.8-2.3.4-4.4-1.7-2-2.3-2.8-2.6-4.3-1.7-.9.6-1.8 2.3-2 3.8-.4 3.5-3.8 5.3-6.1 3.2-3.5-3.2-7.4-1.2-6.5 3.4.8 3.5-1.9 5.9-4.7 4.2-2.7-1.7-4.7-1.5-5.9.8-.8 1.4-.8 2.6 0 4 1.4 2.7-2.1 6.5-4.8 5.1-2.2-1.2-5.2.4-5.2 2.7 0 .9.7 2.5 1.5 3.6 2.2 2.9.2 5.6-3.9 5.6-4.3 0-5.6 3.3-2.5 6.6 2.5 2.7 1.6 5.4-2 5.4-1.5 0-3.1.8-3.9 2-1.1 1.8-.9 2.4 1.7 4.8 2.3 2 2.9 3.3 2.5 5C28 67 27 68 26 68c-2.3 0-4.4 2.6-3.6 4.5.3.8 1.7 2 3.1 2.5 3.9 1.5 4.3 4 1.1 6.5-3 2.4-3.2 5.3-.3 6.6.9.5 2.5 1.3 3.4 1.7 2.5 1.3 2.7 2.9.4 4.9-3.9 3.2-2.2 6.8 3.4 7.5 2.4.2 3.1.8 3.3 3 .2 1.6-.1 2.8-.7 2.8s-1.1 1.1-1.1 2.5c0 2.8 2.9 4.8 5.1 3.4 1.9-1.2 2.5-1.1 4.3.7 1.2 1.2 1.3 2 .5 3.5-2.2 4.2 1.2 7.7 5.6 5.7 3.3-1.5 5.6.4 4.9 4.1-.4 1.8 0 3.2 1 4 1.6 1.3 5.6.6 5.6-1 0-.5.8-.9 1.9-.9 2.1 0 4.5 2.5 3.7 3.8-.6 1 2.1 5.2 3.4 5.2.5 0 2-1.2 3.3-2.6 2.1-2.2 2.8-2.4 4.6-1.5 1.1.7 2.1 1.8 2.1 2.5 0 3.9 6.3 4.4 7.3.6.7-2.9 2.7-2.5 2.7.5 0 2.4.2 2.5 6.5 2.5h6.5V0H91v4.2z"/></symbol><symbol id="format" viewBox="0 0 70 70" xml:space="preserve" xmlns="http://www.w3.org/2000/svg"><style>.dst1{fill:#fb4700}</style><path class="dst1" d="M41.2 13.6c-.3.8-.7 1.5-1.2 2.2.9.5 1.9.9 2.9 1.1.9.2 1.9.3 2.8.2.9-.1 1.7-.2 2.6-.5l.3-.1c.1-.1.3-.1.4-.2v-.2c0-6.1-3.8-11.2-9.2-13.2.6.8 1.1 1.8 1.5 2.8.1.2.1.3.2.5 0 .2.1.3.1.5.1.3.1.5.2.8 0 .2.1.5.1.7.1.4.1.8.1 1.3 0 1.4-.3 2.8-.8 4.1zM35 60v4h33v-4H35zm11.9-2h10.7l-1.9-7.5c-.3-1.4-1.4-2.5-2.8-2.9l-8.2-2.3 4.9 6.2c1 1.2.9 2.9-.2 4L46.9 58zM46 43.6l7.5 2.2c.1 0 .3.1.4.1l.1.1.1.1c1.1-1.2 1.8-2.8 1.8-4.5 0-3.4-2.6-6.2-6-6.5v2.2c-.2 2.9-1.8 5.4-3.9 6.3zM42 45l-5 10.5v-16l.6-.4-1.7.2c3-1.6 5.1-5.6 5.1-10.3v-1h3.4l-.9 4.5-2 3-2 2 2.5-2V45zM7 66h55v3H7v-3z" opacity=".1"/><path d="M51 16c0-8.8-7.2-16-16-16S19 7.2 19 16v1.2c-1.3 1.1-1.8 2.9-1.2 4.6l1.5 4.1.3.6c.1.2.3.4.4.6v6c-4.5.3-8 4-8 8.5 0 2.1.8 4.1 2.1 5.6-.3.3-.6.7-.9 1-.4.6-.7 1.2-.9 1.9l-2 7.9H1c-.3 0-.6.2-.8.4-.1.2-.2.4-.2.6v6c0 .6.4 1 1 1h4v3c0 .6.4 1 1 1s1-.4 1-1v-3h62c.6 0 1-.4 1-1v-6c0-.6-.4-1-1-1h-9.3l-2-7.9c-.1-.4-.2-.8-.4-1.1-.3-.7-.8-1.3-1.4-1.9 1.3-1.5 2.1-3.4 2.1-5.6 0-4.5-3.5-8.2-8-8.5v-6c.3-.3.5-.8.7-1.2l1.5-4.1c.3-.7.3-1.4.2-2.1-.1-.5-.2-.9-.5-1.3-.1-.2-.3-.5-.5-.7-.1-.2-.3-.3-.5-.5V16zm17 48v-4H2v4h66zM21 16c0-7.7 6.3-14 14-14h.9c.1.5.1 1 .1 1.5 0 2.5-.5 4.7-1.3 6.7 0 0 0 .1-.1.1l-.1.3-.1.1c-.2.5-.4.9-.7 1.4-1.5 2.4-3.8 4.2-6.8 4.8-2.1.4-4.2.2-6-.6l.1-.3zM38 3.5V2.3c6.3 1.4 11 7 11 13.7v.2c-1 .4-2.1.7-3.3.8-.9.1-1.8 0-2.8-.2-3-.6-5.4-2.5-6.8-5C37.3 9.4 38 6.6 38 3.5zm3 41.3l-6 12.4-6-12.4v-7.2c2.1 2.1 4.5 3.4 6 3.4s3.9-1.3 6-3.4v7.2zm-3.9-6.6c-1 .6-1.8.8-2.1.8s-1.1-.2-2.1-.8c-.5-.3-1-.6-1.5-1.1-.6-.5-1.2-1-1.7-1.7-.2-.3-.5-.5-.7-.8v-.1h-.1c-1.4-1.8-2.4-3.9-2.8-6.2.9.4 1.9.7 2.9.7 3.3 0 6-2.7 6-6h1c0 3.3 2.7 6 6 6 .6 0 1.2-.1 1.8-.3-.4 2.1-1.4 4.1-2.7 5.8H41v.1c-.2.3-.5.6-.7.8-.1.1-.2.2-.3.4l-.5.5c-.3.3-.6.6-.9.8-.2.2-.5.4-.7.5-.1.1-.2.1-.3.2-.2.2-.3.3-.5.4zm7.3-12c.4-.3.7-.6.9-1 .4-.6.7-1.4.7-2.3h-8c0 2.2 1.8 4 4 4 .9.1 1.7-.2 2.4-.7zm2.4.4c.7-1 1.2-2.2 1.2-3.6v-1c0-.3-.1-.6-.3-.7-.2-.2-.4-.3-.7-.3H24c-.2 0-.4.1-.6.2-.2.2-.4.5-.4.8v1c0 1.3.4 2.4 1.1 3.4H24c-.8.3-1.7.1-2.3-.5-.2-.2-.4-.5-.5-.8L19.7 21c-.2-.5-.2-1.1 0-1.6.1-.3.3-.6.6-.8.1-.1.3-.2.5-.3 2.1.7 4.3.9 6.6.4 3.2-.7 5.8-2.5 7.5-5 1.7 2.5 4.4 4.3 7.5 5 2.3.5 4.6.3 6.6-.4.5.2.9.6 1.1 1.1.2.5.2 1.1 0 1.6l-1.5 4.1c-.2.6-.7 1.1-1.3 1.3 0 .1-.2.2-.5.2zM33.2 58h-7.3L22 54.1c-.4-.4-.4-.9-.1-1.3l5.4-6.8 5.9 12zm-10.1 0H12.4l1.9-7.5c.3-1.4 1.4-2.5 2.8-2.9l8.2-2.3-4.9 6.2c-1 1.2-.9 2.9.2 4l2.5 2.5zm.6-29.4h-.3c-.5 0-.9 0-1.3-.2V37c0 .4-.2.7-.6.9-.2.1-.3.1-.5.1-.6 0-1-.4-1-1v-2c-3.4.3-6 3.1-6 6.5 0 .9.2 1.7.5 2.5s.8 1.5 1.3 2c.2-.1.5-.2.7-.2l10.5-3v-7.5c-1.4-1.9-2.5-4.3-2.8-6.8-.2 0-.4 0-.5.1zM36.8 58h7.3l3.9-3.9c.4-.4.4-.9.1-1.3L42.7 46l-5.9 12zm10.1 0h10.7l-1.9-7.5c-.3-1.4-1.4-2.5-2.8-2.9l-8.2-2.3 4.9 6.2c1 1.2.9 2.9-.2 4L46.9 58zm-1.1-29.5c.7.2 1.5.1 2.2-.1V37c0 .6.4 1 1 1 .3 0 .5-.1.7-.3.2-.2.3-.4.3-.7v-2c3.4.3 6 3.1 6 6.5 0 1.7-.7 3.3-1.8 4.5l-.1-.1-.1-.1c-.1 0-.3-.1-.4-.1l-10.5-3v-7.5c.9-1.3 1.7-2.8 2.3-4.4.1-.7.3-1.5.4-2.3zM29 27c-2.2 0-4-1.8-4-4h8c0 2.2-1.8 4-4 4z" fill-rule="evenodd" clip-rule="evenodd"/></symbol><symbol viewBox="0 0 70 70" id="icons--aydit" xmlns="http://www.w3.org/2000/svg"><g opacity=".1"><path d="M28 28.1V14a5 5 0 00-5-5H12V1.95h15c3.866 0 7 3.056 7 6.825V37h-4v-4a6.978 6.978 0 00-2-4.9zM33 51v8h8.956l3.6-5.563A9.044 9.044 0 0047 48.547V45h-7.071A7.001 7.001 0 0133 51z"/><path d="M65 7h-4v32H30v1.29c2.892.86 5 3.54 5 6.71v1.584A5.001 5.001 0 0038 44v-1h27V7zM43 61h-8v7h8v-7z"/></g><path d="M29 14a1 1 0 110 2H16a1 1 0 110-2h13zm.926-3.38A1.003 1.003 0 0029 10H16a1 1 0 00-.96 1.28l.02.065a1.052 1.052 0 00.266.395c.178.161.414.26.674.26h13a1 1 0 00.974-1.232l-.024-.082-.024-.066zM49 32a.998.998 0 00-1-1h-7a1 1 0 00-.29 1.958l.055.015.08.015c.05.008.102.012.155.012h7a1 1 0 001-1zm5-5a1 1 0 110 2H41a.999.999 0 01-.438-1.9l.082-.035.08-.026.039-.01.079-.016A.943.943 0 0141 27h13zm.766-3.644A.999.999 0 0054 23H41a.998.998 0 00-1 1 1 1 0 001 1h13a1 1 0 00.766-1.644zM54 14a1 1 0 110 2H41a1 1 0 110-2h13zm1-3a1 1 0 00-1-1H41a1 1 0 100 2h13a1 1 0 001-1zM30 65a1 1 0 10.001-1.999A1 1 0 0030 65z"/><path fill-rule="evenodd" clip-rule="evenodd" d="M11 0a1 1 0 00-1 1v4H4v40h17v2.04a10.986 10.986 0 001.256 5.105l3.734 7.128c-.592.347-.99.99-.99 1.727v7H1a.996.996 0 00-1 1 1 1 0 001 1h68a1 1 0 100-2H45v-7a1.987 1.987 0 00-.883-1.66l3.118-4.818A11.005 11.005 0 0049 48.547V45h18V5h-6V1a.997.997 0 00-1-1H43c-3.483 0-6.504 1.928-8 4.75C33.504 1.928 30.482 0 27 0H11zm12 28a5 5 0 015 5v9a5 5 0 015 5v4a7.001 7.001 0 006.929-6H47v3.547a8.992 8.992 0 01-1.444 4.89L41.956 59H28.104l-4.077-7.784A9.004 9.004 0 0123 47.039V28zm-2 15v-4H10V7H6v36h15zm-9-6h9V27a1 1 0 011-1h1a7 7 0 017 7v4h4V8.775c0-3.77-3.134-6.825-7-6.825H12V37zM61 7h4v36H38v1a5.001 5.001 0 01-3 4.584V47c0-3.17-2.108-5.85-5-6.71V39h31V7zm-2-5.05V37H36V8.775c0-3.77 3.134-6.825 7-6.825h16zM43 61v7H27v-7h16z"/></symbol><symbol viewBox="0 0 16 16" id="icons--calendar" xmlns="http://www.w3.org/2000/svg"><path fill-rule="evenodd" clip-rule="evenodd" d="M2 0a2 2 0 00-2 2v12a2 2 0 002 2h12a2 2 0 002-2V2a2 2 0 00-2-2H2zm12 2H2v12h12V2z"/><path d="M4 4h2v2H4V4zm3 0h2v2H7V4zm3 0h2v2h-2V4zM4 7h2v2H4V7zm3 0h2v2H7V7zm3 0h2v2h-2V7zm-6 3h2v2H4v-2zm3 0h2v2H7v-2zm3 0h2v2h-2v-2z"/></symbol><symbol preserveAspectRatio="xMidYMid" viewBox="0 0 11 14" id="icons--call" xmlns="http://www.w3.org/2000/svg"><path d="M11.012 11.977c.013-.062.027-.123.014-.191-.02-.198-.41-.487-.566-.614-.441-.394-.892-.78-1.322-1.18-.198-.192-.422-.519-.695-.579-.539-.12-1.682 1.296-2.159 1.189-.239-.053-.498-.341-.683-.511-1.408-1.246-2.273-2.6-2.807-4.397-.076-.239-.228-.595-.175-.833.107-.474 1.881-.9 2.001-1.436.061-.273-.141-.613-.231-.873-.181-.557-.341-1.127-.511-1.691C3.829.666 3.731.192 3.559.09 3.503.049 3.442.036 3.38.022c-.318-.071-.968-.068-1.289-.001-.474.088-.867.517-1.177.863-.399.456-.685.946-.817 1.534-.183.818-.013 1.63.094 2.438.074.579.196 1.151.388 1.701.593 1.699 1.999 3.903 3.294 5.16.419.407.887.76 1.383 1.073.689.439 1.357.938 2.178 1.121.592.132 1.159.083 1.743-.083.447-.131 1.005-.302 1.287-.691.197-.26.477-.844.548-1.16z" fill-rule="evenodd"/></symbol><symbol viewBox="0 0 24 24" id="icons--darts" xmlns="http://www.w3.org/2000/svg"><path d="M10 24C4.5 24 0 19.5 0 14S4.5 4 10 4s10 4.5 10 10-4.5 10-10 10zm0-19c-5 0-9 4-9 9s4 9 9 9 9-4 9-9-4-9-9-9z"/><path d="M10 20.5c-3.6 0-6.5-2.9-6.5-6.5S6.4 7.5 10 7.5s6.5 2.9 6.5 6.5-2.9 6.5-6.5 6.5zm0-12C7 8.5 4.5 11 4.5 14S7 19.5 10 19.5s5.5-2.5 5.5-5.5S13 8.5 10 8.5z"/><path d="M10 17c-1.7 0-3-1.3-3-3s1.3-3 3-3 3 1.3 3 3-1.3 3-3 3zm0-5c-1.1 0-2 .9-2 2s.9 2 2 2 2-.9 2-2-.9-2-2-2z"/><path d="M10 14.5c-.1 0-.3 0-.4-.1-.2-.2-.2-.5 0-.7l7.5-7.5c.2-.2.5-.2.7 0s.2.5 0 .7l-7.5 7.5c0 .1-.2.1-.3.1z"/><path d="M20 7h-2.5c-.3 0-.5-.2-.5-.5V4c0-.1.1-.3.1-.4L20.6.1c.2-.1.4-.1.6-.1.2.1.3.3.3.5v2h2c.2 0 .4.1.5.3 0 .2 0 .4-.1.6l-3.5 3.5c-.1 0-.3.1-.4.1zm-2-1h1.8l2.5-2.5H21c-.3 0-.5-.2-.5-.5V1.7L18 4.2z"/></symbol><symbol viewBox="0 0 512 512" id="icons--email" xmlns="http://www.w3.org/2000/svg"><path d="M467 61H45c-6.927 0-13.412 1.703-19.279 4.51L255 294.789l51.389-49.387.005-.007.005-.004L486.286 65.514C480.418 62.705 473.929 61 467 61zm40.496 25.728L338.213 256.002 507.49 425.279c2.807-5.867 4.51-12.352 4.51-19.279V106c0-6.923-1.699-13.407-4.504-19.272zM4.51 86.721C1.703 92.588 0 99.073 0 106v300c0 6.923 1.701 13.409 4.506 19.274L173.789 256 4.51 86.721z"/><path d="M317.002 277.213l-51.396 49.393c-2.93 2.93-6.768 4.395-10.605 4.395s-7.676-1.465-10.605-4.395L195 277.211 25.714 446.486C31.582 449.295 38.071 451 45 451h422c6.927 0 13.412-1.703 19.279-4.51L317.002 277.213z"/></symbol><symbol viewBox="-35 0 511 512" id="icons--file" xmlns="http://www.w3.org/2000/svg"><path d="M436.031 107.031L331.43 4.297A15 15 0 00320.918 0H56.468C25.61 0 .5 25.105.5 55.969V456.03C.5 486.891 25.605 512 56.469 512H384.55c30.86 0 55.969-25.105 55.969-55.969V117.734a15 15 0 00-4.489-10.703zM335.918 50.758l52.922 51.976h-48.153a4.776 4.776 0 01-4.769-4.77zM384.551 482H56.469C42.152 482 30.5 470.352 30.5 456.031V55.97C30.5 41.649 42.148 30 56.469 30h249.453v67.965c0 19.172 15.598 34.77 34.77 34.77h69.828V456.03c0 14.32-11.649 25.969-25.97 25.969zm0 0"/><path d="M324.645 238H113.19c-8.285 0-15 6.715-15 15s6.715 15 15 15h211.454c8.285 0 15-6.715 15-15s-6.715-15-15-15zm-211.454 90h172.414c8.286 0 15-6.715 15-15s-6.714-15-15-15H113.191c-8.285 0-15 6.715-15 15s6.715 15 15 15zm193.215 30H113.191c-8.285 0-15 6.715-15 15s6.715 15 15 15h193.215c8.281 0 15-6.715 15-15s-6.719-15-15-15zm0 0"/></symbol><symbol viewBox="0 0 70 70" id="icons--format" xmlns="http://www.w3.org/2000/svg"><path d="M41.234 13.552c-.306.78-.699 1.52-1.166 2.208a10.284 10.284 0 005.645 1.28 10.316 10.316 0 002.561-.49l.283-.097c.148-.054.295-.11.442-.17v-.046L49 16c0-6.053-3.84-11.208-9.218-13.162A11.267 11.267 0 0141.6 6.545 11.086 11.086 0 0142 9.5c0 1.426-.27 2.792-.766 4.052zM35 60v4h33v-4H35zm11.913-2h10.682l-1.864-7.456a4 4 0 00-2.782-2.876l-8.21-2.346 4.923 6.155a3 3 0 01-.22 3.996L46.912 58zm-.953-14.41l7.538 2.155c.142.04.281.086.418.136l.136.052.146.06A6.5 6.5 0 0050 35.018V37c0 .082-.01.163-.028.24-.233 2.958-1.84 5.412-4.012 6.35zM42 45l-5 10.5v-16l.556-.444-1.674.209C38.876 37.674 41 33.678 41 29a15.27 15.27 0 00-.032-1H44.4l-.9 4.5-2 3-2 2 2.5-2V45zM7 66h55v3H7v-3z" opacity=".1"/><path fill-rule="evenodd" clip-rule="evenodd" d="M51 16c0-8.837-7.163-16-16-16S19 7.163 19 16v1.174a4.15 4.15 0 00-1.195 4.59l1.511 4.1A4.251 4.251 0 0020 27.061v5.954a8.5 8.5 0 00-5.903 14.075 6.002 6.002 0 00-1.768 2.969L10.344 58H1a.996.996 0 00-1 1v6a1 1 0 001 1h4v3a1 1 0 102 0v-3h62a1 1 0 001-1v-6a1 1 0 00-1-1h-9.344l-1.985-7.941a5.998 5.998 0 00-1.768-2.969A8.5 8.5 0 0050 33.015V27.06a4.17 4.17 0 00.684-1.197l1.511-4.1a4.13 4.13 0 00-.27-3.458A4.194 4.194 0 0051 17.174V16zm17 48v-4H2v4h66zM21 16c0-7.732 6.268-14 14-14 .317 0 .632.01.943.031.038.48.057.97.057 1.469 0 2.49-.48 4.741-1.298 6.661a.324.324 0 00-.053.091l-.106.271-.059.126c-.215.473-.42.924-.681 1.351-1.452 2.413-3.838 4.223-6.756 4.838a10.3 10.3 0 01-6.046-.555v-.046L21 16zM38 3.5c0-.398-.012-.794-.034-1.186C44.273 3.674 49 9.285 49 16l-.001.237v.046a10.36 10.36 0 01-3.286.757 10.262 10.262 0 01-2.76-.202c-2.976-.628-5.4-2.5-6.843-4.986C37.307 9.442 38 6.576 38 3.5zm3 41.272L35 57.2l-6-12.428v-7.155C31.12 39.728 33.451 41 35 41c1.549 0 3.88-1.272 6-3.383v7.155zm-3.85-6.616c-1.062.652-1.81.844-2.15.844-.34 0-1.088-.192-2.15-.844a12.432 12.432 0 01-1.456-1.057 15.755 15.755 0 01-1.706-1.668 16.026 16.026 0 01-.688-.834V34.5h-.074c-1.36-1.788-2.41-3.929-2.781-6.222A6 6 0 0035 23h1a6 6 0 007.773 5.734c-.43 2.12-1.43 4.096-2.699 5.766H41v.097a16.026 16.026 0 01-1.541 1.731c-.296.288-.594.556-.89.802a12.988 12.988 0 01-1.42 1.026zm7.223-11.935l.053-.04A4.004 4.004 0 0046 23h-8a4 4 0 006.373 3.22zm2.442.358A5.97 5.97 0 0048 23v-1a.997.997 0 00-1-1H24a.998.998 0 00-1 1v1a5.97 5.97 0 001.059 3.404l-.105.042a2.153 2.153 0 01-2.257-.488 2.143 2.143 0 01-.504-.785l-1.512-4.1a2.146 2.146 0 01.665-2.416c.145-.118.308-.218.487-.297 2.065.728 4.34.916 6.626.435 3.167-.668 5.793-2.503 7.541-4.974 1.748 2.471 4.374 4.306 7.541 4.974 2.286.481 4.56.293 6.626-.435.513.226.898.63 1.106 1.112.213.49.246 1.06.046 1.601l-1.512 4.1a2.143 2.143 0 01-1.992 1.406zM33.165 58h-7.25l-3.941-3.941a1 1 0 01-.075-1.332l5.439-6.798L33.165 58zm-10.078 0H12.405l1.865-7.456a4 4 0 012.78-2.876l8.212-2.346-4.924 6.155a3 3 0 00.22 3.996L23.088 58zm.581-29.446A4.171 4.171 0 0122 28.399V37a1 1 0 11-2 0v-1.981a6.5 6.5 0 00-4.198 10.973 6.3 6.3 0 01.7-.247l10.498-3v-7.488c-1.382-1.939-2.466-4.259-2.85-6.785-.16.037-.322.064-.482.082zM36.835 58h7.25l3.941-3.941a1 1 0 00.075-1.332l-5.439-6.798L36.835 58zm10.078 0h10.682l-1.864-7.456a4 4 0 00-2.782-2.876l-8.21-2.346 4.923 6.155a3 3 0 01-.22 3.996L46.912 58zM45.85 28.472c.73.17 1.468.134 2.15-.074V37a1 1 0 102 0v-1.981a6.5 6.5 0 014.198 10.973l-.146-.06-.136-.051a5.998 5.998 0 00-.418-.136l-10.498-3v-7.488c.941-1.322 1.745-2.82 2.283-4.44.251-.757.444-1.54.567-2.345zM29 27a4 4 0 01-4-4h8a4 4 0 01-4 4z"/></symbol><symbol viewBox="0 0 70 70" id="icons--lamp" xmlns="http://www.w3.org/2000/svg"><path d="M5.803 26.981C14.818 26.562 22 19.12 22 10c0-2.757-.655-5.36-1.82-7.662C26.936 3.796 32 9.807 32 17c0 8.284-6.716 15-15 15-4.451 0-8.45-1.94-11.197-5.019zM17 33h4v11h-4V33zm39 13.5c0 8.786-6.126 16.143-14.34 18.03A18.867 18.867 0 0049 66c10.493 0 19-8.507 19-19s-8.507-19-19-19c-2.019 0-3.964.315-5.79.898C50.635 31.305 56 38.276 56 46.5z" opacity=".1"/><path fill-rule="evenodd" clip-rule="evenodd" d="M23 32.91c6.428-2.424 11-8.633 11-15.91 0-9.389-7.611-17-17-17S0 7.611 0 17c0 7.277 4.572 13.486 11 15.91V43a3 3 0 003 3h2v2a2 2 0 01-2 2H4a4 4 0 000 8h15a2 2 0 010 4H4a4 4 0 000 8h15c.986 0 2.067-.302 3.117-.73 1.064-.432 2.17-1.023 3.227-1.665a42.538 42.538 0 003.856-2.667l.553 4.103 8.01-4.972a2 2 0 00.938-1.858l-.383-4.817a2.023 2.023 0 00-.025-.198l6.728-5.705a6 6 0 10-1.256-1.557L37 55.67a1.993 1.993 0 00-.193-.058l-4.69-1.165a2 2 0 00-1.986.623l-6.214 7.089 4.012 1.233a40.464 40.464 0 01-3.623 2.504c-1.001.608-2.008 1.142-2.942 1.522-.948.385-1.75.582-2.364.582H4a2 2 0 010-4h15a4.008 4.008 0 003.926-3.226A4 4 0 0019 56H4a2 2 0 010-4h10a4 4 0 004-4v-2h2a3 3 0 003-3V32.91zm12.13 24.346l-3.495-.868-4.178 4.767 2.257.693 5.416-4.592zm-4.123 6.118l.315 2.339 5.386-3.344-.286-3.587-5.415 4.592zM17 32c.336 0 .67-.011 1-.033V18.5a4.5 4.5 0 114.501 4.5H20v8.7c6.847-1.39 12-7.443 12-14.7 0-8.284-6.716-15-15-15C8.716 2 2 8.716 2 17c0 7.257 5.154 13.31 12.001 14.7V23H11.5a4.5 4.5 0 114.5-4.5l.001.5v12.967c.33.022.663.033.999.033zm4 1.527A17.01 17.01 0 0117 34c-1.378 0-2.717-.164-4-.473V43a1 1 0 001 1h6a1 1 0 001-1v-9.473zM22.501 21a2.5 2.5 0 10-2.5-2.5v.5H20v2h2.501zM9 18.5a2.5 2.5 0 002.5 2.5H14v-2.5a2.5 2.5 0 00-5 0zm41.115 28.67l-3.545 3.007a4 4 0 10-1.236-1.575l3.487-2.957 1.294 1.526z"/><path d="M70 47c0 11.598-9.402 21-21 21-3.332 0-6.483-.776-9.281-2.157l.64-1.918A18.92 18.92 0 0049 66c10.493 0 19-8.507 19-19s-8.507-19-19-19-19 8.507-19 19c0 1.924.286 3.782.818 5.532l-1.982.354A21.01 21.01 0 0128 47c0-11.598 9.402-21 21-21s21 9.402 21 21z"/><path d="M42.288 58.136A12.94 12.94 0 0049 60c7.18 0 13-5.82 13-13s-5.82-13-13-13-13 5.82-13 13c0 1.57.278 3.074.788 4.467l2.005-.359A10.97 10.97 0 0138 47c0-6.075 4.925-11 11-11s11 4.925 11 11-4.925 11-11 11c-2.24 0-4.323-.67-6.06-1.819l-.652 1.955z"/></symbol><symbol preserveAspectRatio="xMidYMid" viewBox="0 0 14 14" id="icons--lk" xmlns="http://www.w3.org/2000/svg"><path d="M12 14H2a2 2 0 01-2-2v-.344a4.993 4.993 0 014.104-4.909A3.98 3.98 0 013 4a4 4 0 018 0 3.98 3.98 0 01-1.104 2.747A4.993 4.993 0 0114 11.656V12a2 2 0 01-2 2zM7 2a2 2 0 10-.001 3.999A2 2 0 007 2zm3.862 7.17C9.86 8.424 8.452 7.995 7 7.995c-1.453 0-2.861.427-3.864 1.172-.857.638-1.146 1.306-1.146 1.513L2 12h10l.009-1.313c0-.208-.289-.877-1.147-1.517z" fill-rule="evenodd"/></symbol><symbol viewBox="0 0 70 70" id="icons--support" xmlns="http://www.w3.org/2000/svg"><path fill-rule="evenodd" clip-rule="evenodd" d="M55 2H33a.999.999 0 00-1 1v9a1 1 0 11-2 0V3a3 3 0 013-3h34a3 3 0 013 3v42a3 3 0 01-3 3H33a3 3 0 01-3-3v-9a.988.988 0 01.29-.703A.988.988 0 0131 35a1 1 0 011 1v9a1 1 0 001 1h34a1 1 0 001-1V3a.996.996 0 00-1-1h-3v13.414l-4.5-4.5-4.5 4.5V2zm2 0v8.586l2.5-2.5 2.5 2.5V2h-5z"/><path fill-rule="evenodd" clip-rule="evenodd" d="M32 18a6 6 0 103.742 10.69l6.099 6.534a5 5 0 101.422-1.408l-6.182-6.624A5.955 5.955 0 0037.917 25H47.1a5 5 0 100-2h-9.183a5.955 5.955 0 00-.836-2.192l6.182-6.623a5.002 5.002 0 001.63.693 5 5 0 10-3.052-2.101l-6.099 6.534A5.976 5.976 0 0032 18zm0 2a4 4 0 110 8 4 4 0 010-8zm17-10a3 3 0 10-6 0 3 3 0 006 0zm-.35 29.406A3.004 3.004 0 0146 41a3 3 0 112.65-1.594zm4.333-12.571a3 3 0 11-1.968-5.67 3 3 0 011.968 5.67zM16 22a9 9 0 019 9v5a.99.99 0 01-.188.582l-.057.073-.067.07A1.01 1.01 0 0124 37v1c0 2.266-1.315 4.574-3.001 6.286v2.095l8.79 4.395A4 4 0 0132 54.353V70H0V54.353a3.995 3.995 0 012.21-3.577L11 46.382v-2.097a12.412 12.412 0 01-1.295-1.545C8.687 41.3 8 39.64 8 38v-1a1 1 0 01-1-1v-5a9 9 0 019-9zm-4.948 26.593l-7.947 3.972a2.01 2.01 0 00-.917.943c-.122.26-.188.548-.188.845V68h4v-9a1 1 0 112 0v9h7V52.68l-2.874-2.298a2.994 2.994 0 01-1.074-1.79zM17 52.68V68h7v-9a1 1 0 112 0v9h4V54.353a2.001 2.001 0 00-1.105-1.788l-7.948-3.973a2.99 2.99 0 01-1.074 1.79L17 52.68zM16 47c.886 0 1.945-.398 2.999-1.075v2.114a1.005 1.005 0 01-.375.78L16 50.92l-2.625-2.1a.998.998 0 01-.375-.78v-2.115c.218.14.437.267.653.383l.19.097.155.075c.154.074.309.14.46.198.545.209 1.068.323 1.542.323zm-6-10v1c0 .665.175 1.385.494 2.111.236.535.549 1.072.928 1.592a10.46 10.46 0 002.252 2.259c.266.194.53.364.787.508.726.407 1.258.53 1.539.53.281 0 .813-.123 1.54-.53a8.03 8.03 0 00.844-.55l.214-.161.216-.177c.294-.244.585-.515.867-.809C21.11 41.28 22 39.5 22 38v-1.29a6.757 6.757 0 01-.81-.297A7.034 7.034 0 0118 33.607 6.995 6.995 0 0112 37h-2zm7-7h2a5.003 5.003 0 004 4.9V31a7 7 0 10-14 0v4h3a5 5 0 005-5z"/><path d="M45 63a1 1 0 10-2 0v7h2v-7zm7-5a1 1 0 011 1v11h-2V59a1 1 0 011-1zm9-4a1 1 0 10-2 0v16h2V54z"/><path d="M32 46v-4h31a1 1 0 001-1V2h3a.996.996 0 011 1v42a1 1 0 01-1 1H32zM17 30h2a5.003 5.003 0 004 4.9V31a7 7 0 00-9.174-6.656 5.02 5.02 0 012.45 2.063A4.98 4.98 0 0117 29v1zm-1 17c.886 0 1.945-.398 2.999-1.075v2.114a1.005 1.005 0 01-.375.78L16 50.92V47zm1.54-2.53c-.727.407-1.259.53-1.54.53-.281 0-.813-.123-1.54-.53a7.725 7.725 0 01-.786-.508 10.247 10.247 0 01-1.354-1.188 10.327 10.327 0 01-.778-.91l.132.098c.266.194.53.364.787.508.726.407 1.258.53 1.539.53.281 0 .813-.123 1.54-.53a8.03 8.03 0 00.844-.55l.214-.161.216-.177c.294-.244.585-.515.867-.809C19.11 39.28 20 37.5 20 36v-.254a7.197 7.197 0 001.19.667c.261.115.532.215.81.297V38c0 1.5-.89 3.28-2.32 4.773a10.39 10.39 0 01-.866.809l-.216.177-.214.162a8.03 8.03 0 01-.845.549zM18 33.607l.071.116.081.126a6.279 6.279 0 01-.212-.145l.06-.097zM17 52.68V68h7v-9a1 1 0 112 0v9h4V54.353a2.001 2.001 0 00-1.105-1.788l-7.948-3.973a2.99 2.99 0 01-1.074 1.79L17 52.68z" opacity=".1"/></symbol><symbol viewBox="0 0 512 512" id="icons--whatsapp" xmlns="http://www.w3.org/2000/svg"><path d="M256 0C114.637 0 0 114.637 0 256s114.637 256 256 256 256-114.637 256-256S397.363 0 256 0zm5.426 405.05c-.004 0 .004 0 0 0h-.063c-25.644-.01-50.843-6.44-73.222-18.644l-81.223 21.301 21.738-79.375c-13.41-23.227-20.465-49.578-20.453-76.574.035-84.453 68.77-153.16 153.223-153.16 40.984.015 79.457 15.968 108.383 44.918 28.93 28.953 44.851 67.437 44.836 108.363-.036 84.457-68.778 153.172-153.22 153.172zm0 0"/><path d="M261.477 124.469c-70.247 0-127.375 57.105-127.407 127.3-.007 24.055 6.727 47.481 19.473 67.75l3.027 4.817-12.867 46.98 48.2-12.64 4.652 2.758c19.55 11.601 41.965 17.738 64.816 17.746h.05c70.192 0 127.321-57.11 127.352-127.309.012-34.02-13.222-66.004-37.265-90.066-24.043-24.063-56.02-37.325-90.031-37.336zm74.906 182.035c-3.192 8.937-18.485 17.098-25.84 18.2-6.598.983-14.941 1.394-24.113-1.517-5.563-1.765-12.692-4.12-21.828-8.062-38.403-16.578-63.485-55.234-65.399-57.79-1.914-2.554-15.633-20.753-15.633-39.593 0-18.836 9.89-28.097 13.399-31.926 3.511-3.832 7.66-4.789 10.21-4.789 2.551 0 5.106.024 7.337.133 2.351.117 5.507-.894 8.613 6.57 3.191 7.665 10.848 26.5 11.805 28.415.957 1.917 1.593 4.152.32 6.707-1.277 2.554-5.52 8.066-9.57 13.09-1.7 2.105-3.914 3.98-1.68 7.812 2.23 3.828 9.918 16.363 21.297 26.512 14.625 13.039 26.96 17.078 30.789 18.996 3.824 1.914 6.058 1.593 8.293-.957 2.23-2.555 9.57-11.176 12.12-15.008 2.552-3.832 5.106-3.192 8.614-1.914 3.512 1.273 22.332 10.535 26.16 12.449 3.828 1.918 6.38 2.875 7.336 4.473.961 1.597.961 9.258-2.23 18.199zm0 0"/></symbol><symbol id="lamp" viewBox="0 0 70 70" xml:space="preserve" xmlns="http://www.w3.org/2000/svg"><style>.pst1{fill:#fb4700}</style><path class="pst1" d="M5.8 27c9-.4 16.2-7.9 16.2-17 0-2.8-.7-5.4-1.8-7.7C26.9 3.8 32 9.8 32 17c0 8.3-6.7 15-15 15-4.5 0-8.5-1.9-11.2-5zM17 33h4v11h-4V33zm39 13.5c0 8.8-6.1 16.1-14.3 18 1.3.5 2.6.9 4 1.2 1.1.2 2.2.3 3.4.3 10.5 0 19-8.5 19-19s-8.5-19-19-19c-2 0-4 .3-5.8.9C50.6 31.3 56 38.3 56 46.5z" opacity=".1"/><path d="M23 32.9c6.4-2.4 11-8.6 11-15.9 0-9.4-7.6-17-17-17S0 7.6 0 17c0 7.3 4.6 13.5 11 15.9V43c0 1.7 1.3 3 3 3h2v2c0 1.1-.9 2-2 2H4c-2.2 0-4 1.8-4 4s1.8 4 4 4h15c1.1 0 2 .9 2 2s-.9 2-2 2H4c-2.2 0-4 1.8-4 4s1.8 4 4 4h15c1 0 2.1-.3 3.1-.7 1.1-.4 2.2-1 3.2-1.7 1.4-.9 2.8-1.8 3.9-2.7l.6 4.1 8-5c.6-.4 1-1.1.9-1.9l-.4-4.8v-.2l6.7-5.7c1.1.9 2.5 1.5 4 1.5 3.3 0 6-2.7 6-6s-2.7-6-6-6-6 2.7-6 6c0 1.1.3 2.1.8 2.9L37 55.7c-.1 0-.1 0-.2-.1l-4.7-1.2c-.7-.2-1.5.1-2 .6l-6.2 7.1 4 1.2c-1 .8-2.3 1.7-3.6 2.5-1 .6-2 1.1-2.9 1.5-1 .5-1.8.7-2.4.7H4c-1.1 0-2-.9-2-2s.9-2 2-2h15c1.2 0 2.2-.5 3-1.3.4-.4.6-.8.8-1.3.1-.2.1-.4.2-.6 0-.3.1-.5.1-.8 0-2.2-1.8-4-4-4H4c-1.1 0-2-.9-2-2 0-.4.1-.7.3-1 .4-.6 1-1 1.7-1h10c2.2 0 4-1.8 4-4v-2h2c1.7 0 3-1.3 3-3V32.9zm12.1 24.4l-3.5-.9-4.2 4.8 2.3.7 5.4-4.6zM31 63.4l.3 2.3 5.4-3.3-.3-3.6-5.4 4.6zM17 32h1V18.5c0-2.5 2-4.5 4.5-4.5s4.5 2 4.5 4.5-2 4.5-4.5 4.5H20v8.7c6.8-1.4 12-7.4 12-14.7 0-8.3-6.7-15-15-15S2 8.7 2 17c0 7.3 5.2 13.3 12 14.7V23h-2.5C9 23 7 21 7 18.5S9 14 11.5 14s4.5 2 4.5 4.5V32h1zm4 1.5c-1.3.3-2.6.5-4 .5s-2.7-.2-4-.5V43c0 .6.4 1 1 1h6c.6 0 1-.4 1-1v-9.5zM22.5 21c1.4 0 2.5-1.1 2.5-2.5S23.9 16 22.5 16 20 17.1 20 18.5V21h2.5zM9 18.5c0 1.4 1.1 2.5 2.5 2.5H14v-2.5c0-1.4-1.1-2.5-2.5-2.5S9 17.1 9 18.5zm41.1 28.7l-3.5 3c.7.5 1.5.8 2.4.8 2.2 0 4-1.8 4-4s-1.8-4-4-4-4 1.8-4 4c0 .6.1 1.1.3 1.6l3.5-3 1.3 1.6z" fill-rule="evenodd" clip-rule="evenodd"/><path class="pst1" d="M70 47c0 11.6-9.4 21-21 21-3.3 0-6.5-.8-9.3-2.2l.6-1.9C43 65.3 45.9 66 49 66c10.5 0 19-8.5 19-19s-8.5-19-19-19-19 8.5-19 19c0 1.9.3 3.8.8 5.5l-2 .4C28.3 51 28 49 28 47c0-11.6 9.4-21 21-21s21 9.4 21 21z"/><path class="pst1" d="M42.3 58.1c2 1.2 4.3 1.9 6.7 1.9 7.2 0 13-5.8 13-13s-5.8-13-13-13-13 5.8-13 13c0 1.6.3 3.1.8 4.5l2-.4c-.5-1.3-.8-2.6-.8-4.1 0-6.1 4.9-11 11-11s11 4.9 11 11-4.9 11-11 11c-2.2 0-4.3-.7-6.1-1.8l-.6 1.9z"/></symbol><symbol viewBox="0 0 431.85 161.32" id="logo" xmlns="http://www.w3.org/2000/svg"><defs><linearGradient id="qa" x1="125.37" y1="137.86" x2="1.56" y2="137.86" gradientUnits="userSpaceOnUse"><stop offset="0" stop-color="#fff"/><stop offset="1" stop-color="#747474"/></linearGradient><linearGradient id="qb" x1="124.94" y1="56.13" x2="0" y2="56.13" xlink:href="#qa"/><style>.qa{fill:#eaeaea}</style></defs><path class="qa" d="M175.68 80.63V55.24h-11.76v25.39h-6.15V49.45h24.05v31.18zm25.33-31.18c8.73 0 13.89 5.17 13.89 12s-5.16 12-13.89 12h-4.1v7.17h-6.14V49.45zm.45 18.27c4 0 7.57-1.83 7.57-6.24 0-4.18-3.61-6.19-7.57-6.19h-4.59v12.43zm112.11 18.65v-5.74h-20.3v5.74h-6.15V74.84h4.14l10.42-25.39h3.66l10.28 25.39h4.1v11.53zm-15.72-11.53h11.16l-5.59-14.12zm40.26-25.39c9 0 10.56 5.22 10.56 8.29 0 3.47-1.7 5.65-4.1 6.63 3.25.76 5.3 3.61 5.3 7.31 0 4.94-2.76 9-11.54 9h-12.24V49.45zm-5.88 12.47h6.55c3.29 0 4.1-1.87 4.1-3.34s-.63-3.34-4.1-3.34h-6.55zm0 12.87h7.4c3.34 0 4.45-1.78 4.45-3.78s-1.25-3.79-4.45-3.79h-7.4zm42.62 5.84V60.99l-14.78 19.64h-3.61V49.45h6.14v19.64l14.74-19.64h3.67v31.18zm43.64-10.02c-1.38-2.1-2.09-2.81-4.23-2.81h-1.69v12.83h-6.15V67.8h-1.69c-2.14 0-2.89.71-4.23 2.81l-6.41 10h-6.95l7.62-11.89c1.82-2.81 2.8-3.61 3.78-4-.84-.45-1.82-1.3-3.61-3.75l-7.3-11.49h6.95l6.1 9.62c1.38 2 2.14 2.81 4.23 2.81h1.51V49.45h6.15v12.43h1.44c2.14 0 2.89-.76 4.23-2.81l6.15-9.62h6.94l-7.32 11.49c-1.73 2.45-2.76 3.3-3.56 3.75.94.44 2 1.24 3.79 4l7.61 11.89h-6.94zM251.58 35.92a31.33 31.33 0 1031.33 31.33 31.37 31.37 0 00-31.33-31.33zm0 56.28a25 25 0 1125-25 24.95 24.95 0 01-25 25z"/><path d="M105.4 109.84a46.31 46.31 0 01-85.85 0l-19 11a67.55 67.55 0 00123.81 0z"/><path d="M62.47 0L0 36.07v27.5L62.47 27.5l38.88 22.45v21.2L62.47 48.7 0 84.76v27.51L62.47 76.2l62.47 36.07v-76.2L62.47 0z"/></symbol><symbol viewBox="0 0 19 19" id="no-checked" xmlns="http://www.w3.org/2000/svg"><g stroke-width="1.3" fill-rule="evenodd" stroke-linecap="round" stroke-linejoin="round"><path d="M6.05 12.41l6.36-6.36m0 6.36L6.05 6.05"/><circle cx="9.13" cy="9.13" r="8.48"/></g></symbol><symbol id="support" viewBox="0 0 70 70" xml:space="preserve" xmlns="http://www.w3.org/2000/svg"><style>.sst0{fill-rule:evenodd;clip-rule:evenodd}.sst0,.sst1{fill:#fb4700}</style><path class="sst0" d="M55 2H33c-.3 0-.6.1-.7.3-.2.2-.3.4-.3.7v9c0 .6-.4 1-1 1s-1-.4-1-1V3c0-1.7 1.3-3 3-3h34c1.7 0 3 1.3 3 3v42c0 1.7-1.3 3-3 3H33c-1.7 0-3-1.3-3-3v-9c0-.2 0-.3.1-.5 0-.1.1-.2.2-.2.1-.1.2-.2.3-.2.1 0 .2-.1.4-.1.6 0 1 .4 1 1v9c0 .6.4 1 1 1h34c.6 0 1-.4 1-1V3c0-.2-.1-.4-.2-.6-.2-.2-.5-.4-.8-.4h-3v13.4l-4.5-4.5-4.5 4.5V2zm2 0v8.6l2.5-2.5 2.5 2.5V2h-5z"/><path class="sst0" d="M32 18c-3.3 0-6 2.7-6 6s2.7 6 6 6c1.4 0 2.7-.5 3.7-1.3l6.1 6.5c-.5.8-.8 1.8-.8 2.8 0 2.8 2.2 5 5 5s5-2.2 5-5-2.2-5-5-5c-1 0-2 .3-2.7.8l-6.2-6.6c.4-.7.7-1.4.8-2.2h9.2c.5 2.3 2.5 4 4.9 4 2.8 0 5-2.2 5-5s-2.2-5-5-5c-2.4 0-4.4 1.7-4.9 4h-9.2c-.1-.8-.4-1.5-.8-2.2l6.2-6.6c.2.2.5.3.8.4.3.1.6.2.8.3.3.1.7.1 1.1.1 2.8 0 5-2.2 5-5s-2.2-5-5-5-5 2.2-5 5c0 1 .3 2 .8 2.8l-6.1 6.5c-.6-.5-1.4-.9-2.2-1.1-.5-.1-1-.2-1.5-.2zm0 2c2.2 0 4 1.8 4 4s-1.8 4-4 4-4-1.8-4-4 1.8-4 4-4zm17-10c0-1.7-1.3-3-3-3s-3 1.3-3 3 1.3 3 3 3c.7 0 1.4-.3 1.9-.7.7-.5 1.1-1.4 1.1-2.3zm-.3 29.4c-.2.3-.4.6-.6.8-.5.5-1.2.8-2 .8-1.7 0-3-1.3-3-3s1.3-3 3-3 3 1.3 3 3c-.1.5-.2 1-.4 1.4zM53 26.8c-.3.1-.6.2-1 .2-1.7 0-3-1.3-3-3 0-.9.4-1.7 1-2.2.5-.5 1.2-.8 2-.8 1.7 0 3 1.3 3 3 0 1.3-.8 2.4-2 2.8zM16 22c5 0 9 4 9 9v5c0 .2-.1.4-.2.6l-.1.1-.1.1c-.1.1-.2.2-.3.2H24v1c0 2.3-1.3 4.6-3 6.3v2.1l8.8 4.4c1.4.7 2.2 2.1 2.2 3.6V70H0V54.4c0-.7.2-1.3.4-1.8.2-.3.3-.6.6-.8 0-.1.1-.1.2-.2l.4-.4c.2-.2.4-.3.6-.4l8.8-4.4v-2.1c-.5-.5-.9-1-1.3-1.5C8.7 41.3 8 39.6 8 38v-1c-.6 0-1-.4-1-1v-5c0-5 4-9 9-9zm-4.9 26.6l-7.9 4c-.2.1-.4.2-.5.4-.1.1-.2.2-.2.3l-.1.1c0 .1-.1.1-.1.2-.2.2-.3.5-.3.8V68h4v-9c0-.6.4-1 1-1s1 .4 1 1v9h7V52.7l-2.9-2.3c-.5-.5-.9-1.1-1-1.8zm5.9 4.1V68h7v-9c0-.6.4-1 1-1s1 .4 1 1v9h4V54.4c0-.4-.1-.7-.3-1-.2-.3-.5-.6-.8-.8l-7.9-4c-.1.7-.5 1.3-1.1 1.8L17 52.7zM16 47c.9 0 1.9-.4 3-1.1V48c0 .2-.1.4-.1.5-.1.1-.1.2-.2.3L16 50.9l-2.6-2.1c-.3-.2-.4-.5-.4-.8v-2.1c.2.1.4.3.7.4l.2.1.2.1c.2.1.3.1.5.2.4.2.9.3 1.4.3zm-6-10v1c0 .7.2 1.4.5 2.1.2.5.5 1.1.9 1.6.3.4.6.7.9 1.1.2.2.4.4.6.5.3.2.5.4.8.6.3.2.5.4.8.5.7.4 1.3.5 1.5.5s.8-.1 1.5-.5c.3-.2.6-.3.8-.5l.2-.2.2-.2c.3-.2.6-.5.9-.8 1.4-1.5 2.3-3.3 2.3-4.8v-1.3c-.3-.1-.5-.2-.8-.3-.2-.1-.5-.2-.7-.3-1-.6-1.9-1.4-2.5-2.5-1.2 2-3.5 3.4-6 3.4H10zm7-7h2c0 2.4 1.7 4.4 4 4.9V31c0-3.9-3.1-7-7-7s-7 3.1-7 7v4h3c2.8 0 5-2.2 5-5z"/><path class="sst1" d="M45 63c0-.6-.4-1-1-1s-1 .4-1 1v7h2v-7zm7-5c.6 0 1 .4 1 1v11h-2V59c0-.6.4-1 1-1zm9-4c0-.6-.4-1-1-1s-1 .4-1 1v16h2V54z"/><path class="sst1" d="M32 46v-4h31c.6 0 1-.4 1-1V2h3c.3 0 .6.2.8.4.1.2.2.4.2.6v42c0 .6-.4 1-1 1H32zM17 30h2c0 2.4 1.7 4.4 4 4.9V31c0-3.9-3.1-7-7-7-.8 0-1.5.1-2.2.3 1 .4 1.9 1.1 2.5 2.1.5.8.7 1.6.7 2.6v1zm-1 17c.9 0 1.9-.4 3-1.1V48c0 .2-.1.4-.1.5-.1.1-.1.2-.2.3L16 50.9V47zm1.5-2.5c-.7.4-1.2.5-1.5.5s-.8-.1-1.5-.5c-.3-.1-.5-.3-.8-.5-.3-.2-.5-.4-.8-.6-.2-.2-.4-.4-.6-.5-.3-.3-.5-.6-.8-.9l.1.1c.3.2.5.4.8.5.7.4 1.3.5 1.5.5s.8-.1 1.5-.5c.3-.2.6-.3.8-.5l.2-.2.2-.2c.3-.2.6-.5.9-.8 1.4-1.5 2.3-3.3 2.3-4.8v-.3c.2.1.3.2.5.3.2.1.4.2.7.3.3.1.5.2.8.3V38c0 1.5-.9 3.3-2.3 4.8-.3.3-.6.6-.9.8l-.2.2-.2.2c-.1.1-.4.3-.7.5zm.5-10.9l.1.1.1.1c-.1 0-.2 0-.2-.2zm-1 19.1V68h7v-9c0-.6.4-1 1-1s1 .4 1 1v9h4V54.4c0-.4-.1-.7-.3-1-.2-.3-.5-.6-.8-.8l-7.9-4c-.1.7-.5 1.3-1.1 1.8L17 52.7z" opacity=".1"/></symbol></svg>