<?xml version="1.0" encoding="utf-8"?><svg xmlns="http://www.w3.org/2000/svg" xmlns:xlink="http://www.w3.org/1999/xlink"><symbol preserveAspectRatio="xMidYMid" viewBox="0 0 11 14" id="icons--call" xmlns="http://www.w3.org/2000/svg"><path d="M11.012 11.977c.013-.062.027-.123.014-.191-.02-.198-.41-.487-.566-.614-.441-.394-.892-.78-1.322-1.18-.198-.192-.422-.519-.695-.579-.539-.12-1.682 1.296-2.159 1.189-.239-.053-.498-.341-.683-.511-1.408-1.246-2.273-2.6-2.807-4.397-.076-.239-.228-.595-.175-.833.107-.474 1.881-.9 2.001-1.436.061-.273-.141-.613-.231-.873-.181-.557-.341-1.127-.511-1.691C3.829.666 3.731.192 3.559.09 3.503.049 3.442.036 3.38.022c-.318-.071-.968-.068-1.289-.001-.474.088-.867.517-1.177.863-.399.456-.685.946-.817 1.534-.183.818-.013 1.63.094 2.438.074.579.196 1.151.388 1.701.593 1.699 1.999 3.903 3.294 5.16.419.407.887.76 1.383 1.073.689.439 1.357.938 2.178 1.121.592.132 1.159.083 1.743-.083.447-.131 1.005-.302 1.287-.691.197-.26.477-.844.548-1.16z" fill-rule="evenodd"/></symbol><symbol viewBox="0 0 34 34" id="icons--close" xmlns="http://www.w3.org/2000/svg"><path fill-rule="evenodd" clip-rule="evenodd" d="M26.192 9.222l-1.414-1.414L17 15.586 9.222 7.808 7.808 9.222 15.586 17l-7.778 7.778 1.414 1.414L17 18.414l7.778 7.778 1.414-1.414L18.414 17l7.778-7.778z"/></symbol><symbol viewBox="0 0 512 512" id="icons--mail" xmlns="http://www.w3.org/2000/svg"><path d="M467 61H45c-6.927 0-13.412 1.703-19.279 4.51L255 294.789l51.389-49.387.005-.007.005-.004L486.286 65.514C480.418 62.705 473.929 61 467 61zm40.496 25.728L338.213 256.002 507.49 425.279c2.807-5.867 4.51-12.352 4.51-19.279V106c0-6.923-1.699-13.407-4.504-19.272zM4.51 86.721C1.703 92.588 0 99.073 0 106v300c0 6.923 1.701 13.409 4.506 19.274L173.789 256 4.51 86.721z"/><path d="M317.002 277.213l-51.396 49.393c-2.93 2.93-6.768 4.395-10.605 4.395s-7.676-1.465-10.605-4.395L195 277.211 25.714 446.486C31.582 449.295 38.071 451 45 451h422c6.927 0 13.412-1.703 19.279-4.51L317.002 277.213z"/></symbol></svg>